<svg width="79" height="71" viewBox="0 0 79 71" fill="none" xmlns="http://www.w3.org/2000/svg">
<g clip-path="url(#clip0)">
<path d="M76.303 51.0312L50.6135 6.65625C48.228 2.53825 43.8129 0 39.0417 0C34.2705 0 29.8554 2.53825 27.4699 6.65625L1.7804 51.0312C-0.605184 55.1493 -0.605184 60.2257 1.7804 64.3438C4.16597 68.4618 8.58107 71 13.3522 71H64.749C69.5201 71 73.9352 68.4618 76.3208 64.3438C78.7064 60.2257 78.6886 55.1493 76.303 51.0312Z" fill="#FF6600"/>
<path d="M64.7493 71C69.5204 71 73.9355 68.4618 76.3211 64.3438C78.7067 60.2257 78.7067 55.1493 76.3211 51.0312L50.6316 6.65625C48.2282 2.53825 43.8131 0 39.042 0V71H64.7493Z" fill="#B34700"/>
<path d="M34.5504 44.2262H40.4987V43.6878C40.5301 40.6004 41.6288 39.1596 44.1085 37.6554C47.0435 35.8979 48.9582 33.5705 48.9582 29.8497C48.9582 24.3081 44.5323 21.0781 38.3015 21.0781C32.6043 21.0781 27.9586 24.0864 27.8174 30.4197H34.2208C34.315 27.8389 36.2141 26.4614 38.2701 26.4614C40.3889 26.4614 42.0996 27.8864 42.0996 30.0872C42.0996 32.1613 40.6086 33.5388 38.6782 34.7738C36.0414 36.4521 34.5661 38.1462 34.5504 43.6878V44.2262ZM37.6423 54.3594C39.6512 54.3594 41.3934 52.6652 41.409 50.5594C41.3934 48.4853 39.6512 46.7911 37.6423 46.7911C35.5706 46.7911 33.8599 48.4853 33.8756 50.5594C33.8599 52.6652 35.5706 54.3594 37.6423 54.3594Z" fill="white"/>
</g>
<defs>
<clipPath id="clip0">
<rect width="79" height="71" fill="white"/>
</clipPath>
</defs>
</svg>
