<svg width="79" height="119" viewBox="0 0 79 119" fill="none" xmlns="http://www.w3.org/2000/svg">
<g clip-path="url(#clip0)">
<path d="M39.4852 28.4099L76.4526 65.3819C77.3708 66.3003 78.9704 65.6485 78.9704 64.345V39.5193C78.9704 38.7194 78.6445 37.9788 78.1114 37.4159L41.5883 0.858718C40.4331 -0.296656 38.5669 -0.296656 37.4117 0.858718L0.859017 37.4159C0.325834 37.9492 0 38.7194 0 39.4897V64.3154C0 65.6485 1.59955 66.3003 2.51781 65.3523L39.4852 28.4099Z" fill="#181818"/>
<path d="M39.4852 81.0835L76.4526 118.056C77.3708 118.974 78.9704 118.322 78.9704 117.019V92.1928C78.9704 91.393 78.6445 90.6523 78.1114 90.0895L41.5883 53.5618C40.4331 52.4065 38.5669 52.4065 37.4117 53.5618L0.859017 90.0895C0.325834 90.6523 0 91.4226 0 92.1928V117.019C0 118.352 1.59955 119.004 2.51781 118.056L39.4852 81.0835Z" fill="#005797"/>
<path d="M78.1114 90.0895L41.5883 53.5618C40.4331 52.4065 38.5669 52.4065 37.4117 53.5618L0.859017 90.0895C0.325834 90.6523 0 91.4226 0 92.1928V101.08C0 100.281 0.325834 99.5399 0.859017 98.9771L37.3821 62.4493C38.5373 61.294 40.4035 61.294 41.5586 62.4493L78.0817 98.9771C78.6445 99.5399 78.9408 100.281 78.9408 101.08V92.1928C79 91.4226 78.6741 90.6523 78.1114 90.0895Z" fill="black" fill-opacity="0.3"/>
</g>
<defs>
<clipPath id="clip0">
<rect width="79" height="118.5" fill="white"/>
</clipPath>
</defs>
</svg>
