<svg width="79" height="83" viewBox="0 0 79 83" fill="none" xmlns="http://www.w3.org/2000/svg">
<g clip-path="url(#clip0)">
<path d="M6.21692 82.8852H28.8446C29.5284 75.5085 30.2536 67.7794 30.9789 60.0918H47.7631L49.8974 82.8852H72.5251C76.8558 82.8852 79.8604 78.5545 78.3478 74.4931L51.9281 4.04066C51.0164 1.61626 48.6956 0 46.1054 0H42.1269L43.8675 18.6492H34.8537C35.3925 12.8058 36.0141 6.29928 36.5943 0H32.6158C30.0257 0 27.7049 1.61626 26.7932 4.04066L0.373511 74.4931C-1.11842 78.5545 1.88616 82.8852 6.21692 82.8852ZM31.9528 49.7312C33.1132 37.2984 33.2375 35.9722 34.2735 24.8656H44.4477L46.7685 49.7312H31.9528Z" fill="#005797"/>
<path d="M42.127 0H46.1054C48.6956 0 51.0164 1.61626 51.9281 4.04066L78.3478 74.4931C79.8605 78.5545 76.8559 82.8852 72.5251 82.8852H49.8974L42.127 0Z" fill="#002C4D"/>
</g>
<defs>
<clipPath id="clip0">
<rect width="79" height="82.8852" fill="white"/>
</clipPath>
</defs>
</svg>
