<svg width="79" height="73" viewBox="0 0 79 73" fill="none" xmlns="http://www.w3.org/2000/svg">
<g clip-path="url(#clip0)">
<path d="M43.3371 0H10.8343C4.85737 0 0 4.85737 0 10.8343V51.9865C0 52.7991 0.975086 53.1963 1.53486 52.6185L10.8343 43.3371H43.3371C49.3141 43.3371 54.1714 38.4798 54.1714 32.5029V10.8343C54.1714 4.85737 49.3141 0 43.3371 0Z" fill="#005797"/>
<path d="M41.5313 30.697C43.5259 30.697 45.1428 29.0801 45.1428 27.0856C45.1428 25.091 43.5259 23.4741 41.5313 23.4741C39.5368 23.4741 37.9199 25.091 37.9199 27.0856C37.9199 29.0801 39.5368 30.697 41.5313 30.697Z" fill="#002C4D"/>
<path d="M27.086 30.697C29.0806 30.697 30.6975 29.0801 30.6975 27.0856C30.6975 25.091 29.0806 23.4741 27.086 23.4741C25.0915 23.4741 23.4746 25.091 23.4746 27.0856C23.4746 29.0801 25.0915 30.697 27.086 30.697Z" fill="#002C4D"/>
<path d="M12.6407 30.697C14.6353 30.697 16.2522 29.0801 16.2522 27.0856C16.2522 25.091 14.6353 23.4741 12.6407 23.4741C10.6462 23.4741 9.0293 25.091 9.0293 27.0856C9.0293 29.0801 10.6462 30.697 12.6407 30.697Z" fill="#002C4D"/>
<path d="M41.5313 25.28C43.5259 25.28 45.1428 23.6631 45.1428 21.6686C45.1428 19.674 43.5259 18.0571 41.5313 18.0571C39.5368 18.0571 37.9199 19.674 37.9199 21.6686C37.9199 23.6631 39.5368 25.28 41.5313 25.28Z" fill="white"/>
<path d="M27.086 25.28C29.0806 25.28 30.6975 23.6631 30.6975 21.6686C30.6975 19.674 29.0806 18.0571 27.086 18.0571C25.0915 18.0571 23.4746 19.674 23.4746 21.6686C23.4746 23.6631 25.0915 25.28 27.086 25.28Z" fill="white"/>
<path d="M12.6407 25.28C14.6353 25.28 16.2522 23.6631 16.2522 21.6686C16.2522 19.674 14.6353 18.0571 12.6407 18.0571C10.6462 18.0571 9.0293 19.674 9.0293 21.6686C9.0293 23.6631 10.6462 25.28 12.6407 25.28Z" fill="white"/>
<path d="M10.8343 0H43.3371C49.3141 0 54.1714 4.85737 54.1714 10.8343V16.2514C54.1714 10.2745 49.3141 5.41714 43.3371 5.41714H10.8343C4.85737 5.41714 0 10.2745 0 16.2514V10.8343C0 4.85737 4.85737 0 10.8343 0Z" fill="#002C4D"/>
<path d="M77.8801 52.6006V48.5378C77.8801 48.1405 77.6092 47.7794 77.23 47.671L71.8129 46.0639C71.4698 44.8902 71.0184 43.7707 70.4406 42.7234L73.1311 37.7577C73.3297 37.4146 73.2575 36.9631 72.9686 36.6923L70.0975 33.8212C69.8086 33.5323 69.3752 33.4781 69.0321 33.6587L64.0664 36.3492C63.0191 35.7714 61.8995 35.3199 60.7258 34.9769L59.1187 29.5597C58.9923 29.1625 58.6493 28.8916 58.2339 28.8916H54.1711C53.7738 28.8916 53.4127 29.1625 53.3043 29.5417L51.6973 34.9588C50.5235 35.3019 49.404 35.7533 48.3567 36.3311L43.391 33.6406C43.0479 33.442 42.5965 33.5142 42.3256 33.8031L39.4545 36.6742C39.1656 36.9631 39.1114 37.3965 39.292 37.7396L41.9825 42.7053C41.4047 43.7526 40.9533 44.8722 40.6102 46.0459L35.193 47.653C34.8138 47.7613 34.543 48.1225 34.543 48.5197V52.5826C34.543 52.9798 34.8138 53.341 35.193 53.4493L40.6102 55.0564C40.9533 56.2301 41.4047 57.3497 41.9825 58.397L39.292 63.3627C39.0934 63.7058 39.1656 64.1572 39.4545 64.4281L42.3256 67.2991C42.6145 67.5881 43.0479 67.6422 43.391 67.4617L48.3567 64.7711C49.404 65.349 50.5235 65.8004 51.6973 66.1435L53.3043 71.5606C53.4127 71.9579 53.7738 72.2287 54.1711 72.2287H58.2339C58.6312 72.2287 58.9923 71.9579 59.1007 71.5787L60.7078 66.1615C61.8815 65.8185 63.001 65.367 64.0483 64.7892L69.0141 67.4797C69.3571 67.6783 69.8086 67.6061 70.0794 67.3172L72.9505 64.4461C73.2394 64.1572 73.2936 63.7238 73.113 63.3807L70.4225 58.415C71.0003 57.3677 71.4518 56.2482 71.7948 55.0745L77.212 53.4674C77.6093 53.341 77.8801 52.9979 77.8801 52.6006ZM56.2115 58.6859C51.7153 58.6859 48.0858 55.0564 48.0858 50.5602C48.0858 46.0639 51.7153 42.4345 56.2115 42.4345C60.7078 42.4345 64.3373 46.0639 64.3373 50.5602C64.3373 55.0564 60.6897 58.6859 56.2115 58.6859Z" fill="black"/>
</g>
<defs>
<clipPath id="clip0">
<rect width="79" height="72.2286" fill="white"/>
</clipPath>
</defs>
</svg>
