<svg width="79" height="71" viewBox="0 0 79 71" fill="none" xmlns="http://www.w3.org/2000/svg">
<g clip-path="url(#clip0)">
<path d="M76.302 51.0312L50.6126 6.65625C48.227 2.53825 43.8119 0 39.0407 0C34.2696 0 29.8545 2.53825 27.4689 6.65625L1.77942 51.0312C-0.606161 55.1493 -0.606161 60.2257 1.77942 64.3438C4.165 68.4618 8.5801 71 13.3513 71H64.748C69.5191 71 73.9342 68.4618 76.3198 64.3438C78.7054 60.2257 78.6876 55.1493 76.302 51.0312Z" fill="#005797"/>
<path d="M64.7483 71C69.5194 71 73.9345 68.4618 76.3201 64.3438C78.7057 60.2257 78.7057 55.1493 76.3201 51.0312L50.6306 6.65625C48.2273 2.53825 43.8122 0 39.041 0V71H64.7483Z" fill="#002C4D"/>
<path d="M34.5495 44.2262H40.4978V43.6878C40.5292 40.6004 41.6278 39.1596 44.1076 37.6554C47.0425 35.8979 48.9572 33.5705 48.9572 29.8497C48.9572 24.3081 44.5313 21.0781 38.3005 21.0781C32.6033 21.0781 27.9577 24.0864 27.8164 30.4197H34.2199C34.314 27.8389 36.2131 26.4614 38.2691 26.4614C40.3879 26.4614 42.0986 27.8864 42.0986 30.0872C42.0986 32.1613 40.6076 33.5388 38.6772 34.7738C36.0405 36.4521 34.5652 38.1462 34.5495 43.6878V44.2262ZM37.6413 54.3594C39.6503 54.3594 41.3924 52.6652 41.4081 50.5594C41.3924 48.4853 39.6503 46.7911 37.6413 46.7911C35.5696 46.7911 33.8589 48.4853 33.8746 50.5594C33.8589 52.6652 35.5696 54.3594 37.6413 54.3594Z" fill="white"/>
</g>
<defs>
<clipPath id="clip0">
<rect width="79" height="71" fill="white"/>
</clipPath>
</defs>
</svg>
