<?xml version="1.0" encoding="utf-8"?>
<!-- Generator: Adobe Illustrator 22.1.0, SVG Export Plug-In . SVG Version: 6.00 Build 0)  -->
<svg version="1.1" id="Layer_1" xmlns="http://www.w3.org/2000/svg" xmlns:xlink="http://www.w3.org/1999/xlink" x="0px" y="0px"
	 viewBox="0 0 88.7 88.7" style="enable-background:new 0 0 88.7 88.7;" xml:space="preserve">
<style type="text/css">
	.st0{fill:#1C3664;}
	.st1{fill:#FFFFFF;}
	.st2{fill:#573B3A;}
	.st3{fill:#AF8071;}
	.st4{fill:#3690C0;}
	.st5{fill:#090909;}
	.st6{fill:#4B3A38;}
	.st7{fill:#F7F8F8;}
	.st8{fill:#FFFFFF;stroke:#66B155;stroke-width:3;stroke-miterlimit:10;}
	.st9{fill:#FFFFFF;stroke:#66B155;stroke-width:3;stroke-linecap:round;stroke-miterlimit:10;}
	.st10{fill:#66B155;stroke:#FFFFFF;stroke-width:3;stroke-miterlimit:10;}
	.st11{fill:#66B155;stroke:#FFFFFF;stroke-width:3;stroke-linecap:round;stroke-linejoin:round;stroke-miterlimit:10;}
	.st12{fill:#F05327;}
	.st13{fill:#E82126;}
	.st14{fill:#E92326;}
	.st15{fill:#F15527;}
	.st16{fill:#FDD10B;}
	.st17{fill:#F7961F;}
	.st18{fill:#5E566B;}
	.st19{fill:#B8E2F0;}
	.st20{fill:#6ACCEE;}
	.st21{opacity:0.83;fill:#CCCCCB;}
	.st22{fill:#F2A750;}
	.st23{fill:#464846;}
	.st24{fill:#CCCCCC;}
	.st25{fill:#474947;}
	.st26{fill:#CBCBCA;}
	.st27{fill:#F3A84E;}
	.st28{fill:#CBCBCB;}
	.st29{fill:#F2A84E;}
	.st30{fill:#373836;}
	.st31{fill:#989A9A;}
	.st32{fill:#BA823F;}
	.st33{fill:#313332;}
	.st34{fill:#484A47;}
	.st35{fill:#868686;}
	.st36{fill:#A16F34;}
	.st37{fill:#486DB4;}
	.st38{fill:#FDFEFE;}
	.st39{fill:#4A6EB5;}
	.st40{fill:#FAFAFA;}
	.st41{fill:#F3A850;}
</style>
<path class="st1" d="M44.3,88.7C19.9,88.7,0,68.8,0,44.3C0,19.9,19.9,0,44.3,0c24.4,0,44.3,19.9,44.3,44.3
	C88.7,68.8,68.8,88.7,44.3,88.7z M44.3,5.3c-21.5,0-39,17.5-39,39s17.5,39,39,39s39-17.5,39-39S65.8,5.3,44.3,5.3z"/>
<g>
	<path class="st1" d="M38.5,51.2c6.8-5.1,13.4-10,19.9-14.9c0.5-0.4,1-0.8,1.5-1.1c1.8-1.3,3.6-1.2,4.7,0.3c1,1.5,0.7,3-1.1,4.4
		c-6.1,4.6-12.2,9.2-18.3,13.7c-1.5,1.1-3,2.3-4.6,3.4c-1.9,1.4-3.2,1.4-4.9-0.3c-3.7-3.7-7.4-7.4-11.1-11.1
		c-1.6-1.6-1.7-3.3-0.4-4.6c1.3-1.2,3-1,4.6,0.6C32.1,44.7,35.2,47.8,38.5,51.2z"/>
</g>
</svg>
