<?xml version="1.0" encoding="utf-8"?>
<!-- Generator: Adobe Illustrator 22.1.0, SVG Export Plug-In . SVG Version: 6.00 Build 0)  -->
<svg version="1.1" id="Layer_1" xmlns="http://www.w3.org/2000/svg" xmlns:xlink="http://www.w3.org/1999/xlink" x="0px" y="0px"
	 viewBox="0 0 206.7 84" style="enable-background:new 0 0 206.7 84;" xml:space="preserve">
<style type="text/css">
	.st0{fill:#4E82AC;}
	.st1{fill:#E94C26;}
	.st2{fill:#FFFFFF;}
</style>
<title>container-stack-logo</title>
<g id="Layer_2_1_">
	<g id="Layer_1-2">
		<rect class="st0" width="206.7" height="40.8"/>
		<rect y="43.3" class="st1" width="206.7" height="40.8"/>
		<path class="st2" d="M25.9,15.3v-1.5h3.6v7.8h-3.6c-0.1-1.3-0.7-2.6-1.8-3.4c-1-0.8-2.3-1.2-3.6-1.2c-1.1,0-2.2,0.3-3.1,1
			c-0.9,0.6-1.7,1.5-2.2,2.5c-0.5,1.1-0.8,2.3-0.8,3.5c-0.1,1.9,0.5,3.8,1.7,5.3c1.1,1.3,2.8,2.1,4.5,2c2.7,0.1,5.2-1.5,6.2-4
			l3.4,1.6c-1.6,3.9-5.5,6.4-9.7,6.2c-1.9,0-3.8-0.5-5.4-1.5c-1.6-0.9-2.8-2.3-3.7-4C10.4,27.8,10,25.9,10,24c0-1.9,0.4-3.8,1.3-5.5
			c1.7-3.2,5-5.2,8.7-5.2C22.1,13.2,24.2,13.9,25.9,15.3z"/>
		<path class="st2" d="M54.2,24.1c0,1.9-0.5,3.8-1.4,5.5c-1.9,3.4-5.5,5.4-9.3,5.4c-2,0-3.9-0.5-5.6-1.5c-1.6-0.9-3-2.3-3.9-3.9
			c-1-1.7-1.5-3.6-1.5-5.5c0-1.9,0.4-3.9,1.4-5.6c0.9-1.6,2.2-2.9,3.8-3.9c1.7-0.9,3.6-1.4,5.6-1.4c3.9-0.1,7.5,2,9.5,5.4
			C53.7,20.3,54.2,22.2,54.2,24.1z M43.4,31c1.2,0,2.3-0.4,3.3-1c1-0.6,1.8-1.5,2.4-2.5c0.6-1,0.9-2.2,0.9-3.4
			c0-1.2-0.3-2.4-0.8-3.4c-0.6-1-1.4-1.9-2.4-2.5c-1-0.6-2.2-1-3.3-1c-1.2-0.1-2.4,0.3-3.5,0.9c-1,0.6-1.8,1.5-2.3,2.5
			c-1.2,2.1-1.2,4.7,0,6.9c0.6,1,1.5,1.9,2.5,2.5C41.1,30.6,42.2,31,43.4,31z"/>
		<path class="st2" d="M76.8,20.6v10.2h3.5v3.6h-7.5V20.8c0.1-1-0.1-1.9-0.6-2.8c-0.4-0.6-1.1-0.9-1.8-0.9c-2.3,0.2-4.4,1.1-6,2.6
			v10.9h3.5v3.6H56.7v-3.6h3.6V17.5h-3.6v-3.7h7.5v2.5c2-1.6,4.5-2.6,7.1-2.8c1.6-0.1,3.1,0.5,4.1,1.7
			C76.4,16.8,76.9,18.7,76.8,20.6z"/>
		<path class="st2" d="M92.8,13.8v3.7H89v10.8c-0.1,0.7,0.1,1.5,0.4,2.2c0.3,0.4,0.8,0.5,1.2,0.5c0.7,0,1.5-0.1,2.2-0.4v3.6
			c-1,0.3-2,0.5-3,0.6c-1.3,0.1-2.7-0.3-3.6-1.3c-0.9-1.3-1.3-2.9-1.1-4.5V17.5h-2.7v-3.7H85v-3.1L89,7v6.8H92.8z"/>
		<path class="st2" d="M113,21.1v9.7h3.5v3.6h-7v-2.5c-1.7,1.8-4,2.8-6.5,2.9c-1.2,0-2.4-0.3-3.4-0.9c-1-0.6-1.9-1.4-2.5-2.4
			c-1.3-2-1.3-4.7,0-6.7c0.8-1,1.8-1.8,3-2.3c1.1-0.5,2.3-0.8,3.6-0.8c2,0,4,0.6,5.6,1.8v-2.3c0.1-1.2-0.3-2.5-1-3.4
			c-0.9-0.8-2.1-1.1-3.3-1c-1,0-1.9,0.2-2.7,0.6c-0.8,0.4-1.4,1-1.8,1.8l-4-1c0.8-1.5,2-2.8,3.5-3.6c1.6-0.8,3.4-1.2,5.2-1.2
			c2.2-0.2,4.3,0.5,6,1.9C112.5,16.8,113.2,18.9,113,21.1z M103.5,31.6c2.1-0.1,4.1-1,5.6-2.5v-2.5c-1.5-1.2-3.3-2-5.3-2
			c-1,0-2,0.3-2.8,1c-0.7,0.6-1.2,1.5-1.1,2.5c-0.1,0.9,0.3,1.9,1,2.5C101.6,31.3,102.5,31.6,103.5,31.6z"/>
		<path class="st2" d="M128.6,30.8v3.6h-10.4v-3.6h3.2V17.5h-3.2v-3.7h7.2v16.9H128.6z M125.7,6.9c0,0.7-0.2,1.3-0.7,1.7
			c-0.4,0.5-1.1,0.7-1.7,0.7c-0.6,0-1.3-0.3-1.7-0.7c-0.5-0.5-0.7-1.1-0.7-1.7c0-0.6,0.3-1.3,0.7-1.7c0.4-0.5,1.1-0.7,1.7-0.7
			c0.6,0,1.3,0.2,1.7,0.7C125.4,5.6,125.7,6.3,125.7,6.9z"/>
		<path class="st2" d="M150.5,20.6v10.2h3.5v3.6h-7.5V20.8c0.1-1-0.1-1.9-0.6-2.8c-0.4-0.6-1.1-0.9-1.8-0.9
			c-2.3,0.2-4.4,1.1-6.1,2.6v10.9h3.5v3.6h-11.1v-3.6h3.6V17.5h-3.6v-3.7h7.5v2.5c2-1.6,4.5-2.6,7.1-2.8c1.6-0.1,3.1,0.5,4.1,1.7
			C150.1,16.8,150.6,18.7,150.5,20.6z"/>
		<path class="st2" d="M177.9,25h-17.2c0.2,1.8,1,3.5,2.3,4.7c1.3,1.1,3,1.7,4.7,1.7c1.3,0,2.6-0.3,3.8-0.9c1.2-0.6,2.2-1.4,2.9-2.5
			l3.6,1.6c-1.1,1.7-2.6,3.1-4.4,4c-1.9,0.9-3.9,1.4-6,1.4c-2.1,0-4.1-0.4-5.9-1.4c-1.7-0.9-3.1-2.2-4-3.9c-1-1.7-1.5-3.6-1.4-5.6
			c0-1.9,0.5-3.9,1.4-5.6c0.9-1.6,2.2-3,3.9-3.9c3.5-1.9,7.6-1.9,11.1,0c1.6,1,2.9,2.4,3.8,4.1C177.3,20.7,177.9,22.8,177.9,25z
			 M167.1,16.6c-1.5,0-2.9,0.5-4,1.5c-1.2,1.1-1.9,2.5-2.2,4.1h12.9c-0.4-1.6-1.2-3-2.5-4C170,17.2,168.6,16.6,167.1,16.6z"/>
		<path class="st2" d="M188.4,26.1v4.7h4.5v3.6h-12.5v-3.6h4.1V17.5h-4.2v-3.7h7.3v4.6c0.6-1.6,1.7-2.9,3.1-3.9
			c1.6-0.8,3.4-1.2,5.2-1.1h0.9v4.1H196c-1.7-0.1-3.4,0.2-5,0.9c-1,0.5-1.8,1.4-2.1,2.5C188.5,22.7,188.3,24.4,188.4,26.1z"/>
		<path class="st2" d="M22.2,57.8v-0.9h3.5v6.8h-3.5v-1.2c-1-1.6-2.8-2.5-4.7-2.5c-0.9,0-1.8,0.2-2.5,0.7c-0.6,0.4-1,1.1-1,1.8
			c0,0.6,0.3,1.2,0.8,1.6c1,0.5,2.1,0.8,3.2,0.9l2.7,0.5c4,0.8,6.1,2.7,6.1,6c0.1,1.8-0.8,3.5-2.2,4.6c-1.7,1.2-3.7,1.8-5.8,1.7
			c-1,0.1-1.9,0-2.9-0.2c-0.8-0.2-1.6-0.6-2.3-1v1H10v-7.1h3.6v0.7c0.2,1,0.8,1.8,1.6,2.4c0.9,0.6,2,0.9,3.1,0.9
			c1.1,0.1,2.1-0.2,3.1-0.7c0.7-0.4,1.2-1.2,1.1-2.1c0-0.6-0.3-1.2-0.9-1.5c-1.2-0.5-2.4-0.8-3.6-1L16,68.7c-1.7-0.2-3.3-1-4.6-2.2
			c-1-1-1.5-2.4-1.5-3.9c0-1.2,0.3-2.3,1.1-3.3c0.7-0.9,1.7-1.6,2.7-2c1.1-0.5,2.2-0.7,3.4-0.7C18.9,56.6,20.7,57,22.2,57.8z"/>
		<path class="st2" d="M40.1,56.9v3.6h-3.8v10.8c-0.1,0.7,0,1.5,0.3,2.2C37,73.8,37.5,74,38,74c0.7,0,1.5-0.1,2.2-0.4v3.6
			c-1,0.3-2,0.5-3,0.5c-1.3,0.1-2.7-0.3-3.7-1.3c-0.9-1.3-1.3-2.8-1.1-4.4V60.5h-2.7v-3.6h2.7v-3.1l4.1-3.7v6.8H40.1z"/>
		<path class="st2" d="M60.4,64.2v9.7h3.4v3.6h-7V75c-1.7,1.8-4,2.8-6.5,2.9c-1.2,0-2.4-0.3-3.5-0.9c-1-0.6-1.9-1.4-2.5-2.4
			c-1.3-2-1.3-4.7,0-6.7c0.7-1,1.7-1.8,2.8-2.3c1.1-0.5,2.3-0.8,3.6-0.8c2,0,4,0.6,5.6,1.8v-2.3c0.1-1.2-0.2-2.5-1-3.4
			c-0.9-0.8-2.1-1.2-3.3-1c-1,0-1.9,0.2-2.8,0.6c-0.8,0.4-1.4,1-1.8,1.8l-3.9-0.9c0.8-1.6,2-2.9,3.6-3.7c1.7-0.8,3.5-1.2,5.3-1.1
			c2.2-0.2,4.3,0.5,6,1.9C59.9,59.9,60.6,62,60.4,64.2z M50.8,74.7c2.1-0.1,4.1-1,5.5-2.5v-2.5c-1.5-1.3-3.3-2-5.3-2.1
			c-1,0-2,0.3-2.8,1C47,69.8,46.8,72,48,73.4c0.1,0.1,0.2,0.2,0.3,0.3C48.9,74.3,49.9,74.7,50.8,74.7z"/>
		<path class="st2" d="M81.9,58.4v-1.5h3.6v7.8h-3.6c-0.1-1.4-0.7-2.6-1.8-3.4c-1-0.8-2.3-1.3-3.6-1.3c-1.1,0-2.2,0.3-3.2,0.9
			c-0.9,0.6-1.7,1.5-2.2,2.5c-0.5,1.1-0.8,2.3-0.8,3.5c-0.1,1.9,0.5,3.8,1.7,5.2c1.1,1.4,2.8,2.1,4.5,2c2.7,0.1,5.2-1.5,6.2-4
			l3.3,1.6c-1.6,3.9-5.5,6.4-9.7,6.1c-1.9,0-3.8-0.5-5.5-1.4c-1.5-0.9-2.8-2.2-3.6-3.8c-0.9-1.7-1.3-3.6-1.3-5.6
			c0-1.9,0.4-3.8,1.3-5.5c1.7-3.3,5.1-5.3,8.8-5.2C78.3,56.4,80.3,57.1,81.9,58.4z"/>
		<path class="st2" d="M103.1,60.3h-3.2v-3.3h11.3v3.3h-3.1l-7.7,6.4l7.3,7.2h3.6v3.6h-5.3L95.6,67.2v6.8h3.5v3.6H87.9v-3.6h3.6
			V51.6h-3.6V48h7.7v18.5L103.1,60.3z"/>
	</g>
</g>
</svg>
