<?xml version="1.0" encoding="utf-8"?>
<!-- Generator: Adobe Illustrator 23.0.3, SVG Export Plug-In . SVG Version: 6.00 Build 0)  -->
<svg version="1.1" id="Layer_1" xmlns="http://www.w3.org/2000/svg" xmlns:xlink="http://www.w3.org/1999/xlink" x="0px" y="0px"
	 viewBox="0 0 171.3 53.9" style="enable-background:new 0 0 171.3 53.9;" xml:space="preserve">
<style type="text/css">
	.st0{fill:#001959;}
	.st1{fill:#0063FF;}
	.st2{enable-background:new    ;}
	.st3{fill:#9FB2DC;}
	.st4{fill:#8EA0C5;}
	.st5{fill:#636F89;}
	.st6{fill:#23232A;}
	.st7{fill:#FFFFFF;}
	.st8{fill:#14BBC4;}
	.st9{fill:#8AFFFF;}
	.st10{fill:#231F20;}
	.st11{fill:#1BE0E6;}
	.st12{fill:#262B3E;}
	.st13{fill:#F26D00;}
	.st14{fill:#744729;stroke:#FEFEFE;stroke-miterlimit:10;}
	.st15{fill:#2D1D0D;stroke:#FEFEFE;stroke-miterlimit:10;}
	.st16{fill:#060707;stroke:#FEFEFE;stroke-miterlimit:10;}
	.st17{fill:#FFFFFF;stroke:#FEFEFE;stroke-miterlimit:10;}
	.st18{fill:#4B3938;stroke:#FEFEFE;stroke-miterlimit:10;}
	.st19{fill:#C5875D;stroke:#FEFEFE;stroke-miterlimit:10;}
	.st20{fill:#663399;}
	.st21{fill:#F05A2B;}
	.st22{fill:#020202;}
	.st23{fill:#060707;}
	.st24{fill:#AF8070;}
	.st25{fill:#4B3938;}
	.st26{fill:#563A39;}
	.st27{opacity:0.27;fill:#F05A2B;enable-background:new    ;}
	.st28{fill:none;stroke:#262B3E;stroke-width:0.5;stroke-miterlimit:10;}
	.st29{fill:#6976F4;stroke:#6976F4;stroke-width:0.3;}
	.st30{fill:#6976F4;stroke:#6976F4;}
	.st31{fill:none;stroke:#FFFFFF;stroke-width:2;}
	.st32{fill:none;stroke:#6976F4;stroke-width:2;}
	.st33{fill:url(#Path_1_);}
	.st34{fill:#EFEDED;}
	.st35{fill:#6666FF;}
	.st36{clip-path:url(#Path_2_);}
	.st37{fill:#684FF1;}
	.st38{opacity:0.24;enable-background:new    ;}
	.st39{fill:#C48C62;}
	.st40{fill:#FEFEFE;}
	.st41{opacity:0.1;fill:#262B3E;}
	.st42{fill:#454745;}
	.st43{fill:#75451D;}
	.st44{fill:#684FF1;stroke:#21201F;stroke-width:0.75;}
	.st45{fill:#6466AD;}
	.st46{fill:#C5875D;}
	.st47{clip-path:url(#Path_3_);}
	.st48{fill:#6445FF;}
	.st49{fill:#744729;}
	.st50{fill:#7A5DFF;}
	.st51{fill:#F15A29;}
	.st52{fill:#348FC0;}
	.st53{fill:#51331A;}
	.st54{fill:#895F3D;}
	.st55{fill:#5333FF;}
	.st56{fill:#4C3520;}
	.st57{fill:#2D1D0D;}
	.st58{fill:#2B83FF;}
	.st59{fill:#212127;}
	.st60{fill:#579BFF;}
	.st61{fill:#626372;}
	.st62{fill:none;stroke:#F26D00;stroke-width:2;stroke-miterlimit:10;}
	.st63{opacity:0.4;fill:#F26D00;}
	.st64{fill:#744729;stroke:#FFFFFF;stroke-width:2;stroke-miterlimit:10;}
	.st65{fill:#C5875D;stroke:#FFFFFF;stroke-width:2;stroke-miterlimit:10;}
	.st66{fill:none;stroke:#5333FF;stroke-width:2;stroke-miterlimit:10;}
	.st67{fill:none;stroke:#262B3E;stroke-width:2;stroke-miterlimit:10;}
	.st68{fill:none;stroke:#FFFFFF;stroke-width:0.25;stroke-miterlimit:10;}
	.st69{fill:none;stroke:#262B3E;stroke-width:0.25;stroke-miterlimit:10;}
	.st70{stroke:#000000;}
	.st71{fill:#0063FF;stroke:#0063FF;stroke-miterlimit:10;}
	.st72{fill:#03A678;}
	.st73{fill:none;stroke:#000000;stroke-linecap:round;stroke-miterlimit:10;}
	.st74{fill:none;stroke:#23232A;stroke-width:1.3;stroke-linecap:round;stroke-miterlimit:10;}
	.st75{fill:none;stroke:#23232A;stroke-width:2;stroke-linecap:round;stroke-miterlimit:10;}
	.st76{fill:none;stroke:#FFFFFF;stroke-width:0.75;stroke-linecap:round;stroke-miterlimit:10;}
	.st77{fill:none;stroke:#FFFFFF;stroke-width:0.5;stroke-linecap:round;stroke-miterlimit:10;}
	.st78{fill:none;stroke:#23232A;stroke-width:0.5;stroke-linecap:round;stroke-miterlimit:10;}
	.st79{fill:#7D7E8D;}
	.st80{fill:#383842;}
	.st81{fill:#D1D2D9;}
	.st82{fill:url(#SVGID_1_);}
	.st83{fill:url(#SVGID_2_);}
	.st84{fill:url(#SVGID_4_);}
	.st85{fill:url(#SVGID_5_);}
	.st86{fill:url(#SVGID_6_);}
	.st87{fill:url(#SVGID_7_);}
	.st88{fill:url(#SVGID_8_);}
	.st89{fill:url(#SVGID_9_);}
	.st90{fill:url(#SVGID_10_);}
	.st91{fill:url(#SVGID_11_);}
	.st92{fill:url(#SVGID_12_);}
	.st93{fill:url(#SVGID_13_);}
	.st94{fill:url(#SVGID_14_);}
	.st95{fill:url(#SVGID_15_);}
	.st96{fill:url(#SVGID_16_);}
	.st97{fill:url(#SVGID_17_);}
	.st98{fill:url(#SVGID_18_);}
	.st99{fill:url(#SVGID_19_);}
	.st100{fill:url(#SVGID_20_);}
	.st101{fill:url(#SVGID_21_);}
	.st102{fill:url(#SVGID_22_);}
	.st103{fill:url(#SVGID_23_);}
	.st104{fill:url(#SVGID_24_);}
	.st105{fill:url(#SVGID_25_);}
	.st106{fill:url(#SVGID_26_);}
	.st107{fill:url(#SVGID_27_);}
	.st108{fill:url(#SVGID_28_);}
	.st109{fill:url(#SVGID_29_);}
	.st110{fill:url(#SVGID_30_);}
	.st111{fill:url(#SVGID_31_);}
	.st112{fill:url(#SVGID_32_);}
	.st113{fill:url(#SVGID_33_);}
	.st114{fill:url(#SVGID_34_);}
	.st115{fill:url(#SVGID_35_);}
	.st116{fill:url(#SVGID_36_);}
	.st117{fill:url(#SVGID_37_);}
	.st118{fill:url(#SVGID_38_);}
	.st119{stroke:#000000;stroke-miterlimit:10;}
	.st120{fill:#1BE0E6;stroke:#1BE0E6;stroke-width:0.5;stroke-miterlimit:10;}
	.st121{fill:#1BE0E6;stroke:#FFFFFF;stroke-linecap:round;stroke-linejoin:round;stroke-miterlimit:10;}
	.st122{fill:#1BE0E6;stroke:#23232A;stroke-linecap:round;stroke-linejoin:round;stroke-miterlimit:10;}
	.st123{fill:none;stroke:#23232A;stroke-width:2;stroke-miterlimit:10;}
	.st124{fill:none;stroke:#23232A;stroke-width:4;stroke-miterlimit:10;}
	.st125{fill:none;stroke:#FFFFFF;stroke-width:2;stroke-linecap:round;stroke-miterlimit:10;}
	.st126{fill:none;stroke:#FFFFFF;stroke-width:2;stroke-miterlimit:10;}
	.st127{fill:#FFFFFF;stroke:#FFFFFF;stroke-width:0.3;stroke-miterlimit:10;}
	.st128{fill:#23232A;stroke:#23232A;stroke-width:0.4;stroke-miterlimit:10;}
	.st129{fill:none;stroke:#FFFFFF;stroke-miterlimit:10;}
	.st130{fill:none;stroke:#23232A;stroke-miterlimit:10;}
	.st131{fill:none;stroke:#FFFFFF;stroke-width:0.75;stroke-miterlimit:10;}
	.st132{fill:none;stroke:#000000;stroke-width:5.000000e-02;stroke-miterlimit:10;}
	.st133{fill:none;stroke:#000000;stroke-width:3;stroke-miterlimit:10;}
	.st134{fill:none;stroke:#606060;stroke-width:3;stroke-miterlimit:10;}
	.st135{fill:none;stroke:#000000;stroke-miterlimit:10;}
	.st136{fill:#606060;}
	.st137{fill:#382F32;}
	.st138{fill:#544C4F;}
	.st139{fill:none;stroke:#000000;stroke-width:4;stroke-linecap:round;stroke-linejoin:round;stroke-miterlimit:10;}
	.st140{fill:none;stroke:#000000;stroke-width:3;stroke-linecap:round;stroke-linejoin:round;stroke-miterlimit:10;}
	.st141{fill:#BDBDBD;}
	.st142{fill:#6E6E6E;}
	.st143{fill:#4D4E5A;}
	.st144{fill:#B5B5C0;}
</style>
<g>
	<g>
		<path class="st0" d="M30.4,13.3c-1.1,0-2,0.4-2.8,1.2c-0.8,0.8-1.1,1.7-1.1,2.8s0.4,2,1.1,2.8c0.8,0.8,1.7,1.2,2.8,1.2
			c1.1,0,2-0.4,2.8-1.2c0.8-0.8,1.2-1.7,1.2-2.8c0-1.1-0.4-2-1.2-2.8C32.5,13.7,31.6,13.3,30.4,13.3z"/>
		<path class="st0" d="M138.7,34.8c0,3.6-0.2,6-0.5,7.2c-0.3,1.1-0.8,2.2-1.6,3.2c-0.8,1-1.7,1.8-2.8,2.4c-2.2,1.1-4.7,1-6.2,0.3
			c-0.8-0.3-1.4-0.8-1.9-1.5c-0.5-0.7-0.9-1.6-1.2-2.6c-0.3-1-0.4-3.1-0.4-6.1v-14h-5.6v15c0,3.9,0.4,6.8,1.3,8.7
			c0.9,1.9,2.2,3.5,3.9,4.6c1.7,1.1,3.7,1.7,5.8,1.7c3.4,0,6.5-1.3,9.1-3.8V53h5.7V23.8h-5.7V34.8z"/>
		<path class="st0" d="M98.3,23c-2.1,0-4,0.5-5.9,1.6c-1.5,0.9-2.8,2.1-3.8,3.6c-0.7-1.5-1.8-2.6-3.1-3.5c-1.7-1.1-3.6-1.7-5.7-1.7
			c-3.2,0-5.9,1.2-8.2,3.5v-2.7h-5.6V53h5.6V40.5c0-3.4,0.3-5.8,0.9-7.3c0.6-1.4,1.5-2.5,2.7-3.4c1.2-0.8,2.5-1.3,3.9-1.3
			c1.3,0,2.4,0.3,3.3,1c0.9,0.7,1.4,1.5,1.7,2.6c0.3,1.2,0.4,3.1,0.4,5.9v15H90V41.3c0-3.4,0.3-5.9,0.8-7.6c0.5-1.6,1.4-2.9,2.7-3.8
			c1.3-0.9,2.6-1.4,4-1.4c1.4,0,2.6,0.3,3.4,1c0.9,0.7,1.4,1.5,1.6,2.5c0.3,1.1,0.4,2.8,0.4,5.1V53h5.7V37.1c0-5.4-1-9-3-11.1
			C103.6,24.1,101.1,23,98.3,23z"/>
		<path class="st0" d="M164.2,35.8c-2-1-3.4-1.9-4.1-2.6c-0.7-0.6-1-1.3-1-2c0-0.8,0.3-1.4,0.8-1.9c1.6-1.5,4.2-1,7.2,1.8l0.5,0.5
			l3.7-3.8l-0.5-0.5c-2.8-2.8-5.6-4.2-8.2-4.2c-2.6,0-4.8,0.8-6.4,2.3c-1.6,1.6-2.4,3.5-2.4,5.7c0,2.2,0.6,4,1.7,5.4
			c1.1,1.3,2.7,2.5,4.8,3.6c2,1,3.3,1.9,4.1,2.6c0.7,0.6,1,1.4,1,2.3c0,0.9-0.4,1.7-1.2,2.5c-0.8,0.7-1.7,1.1-2.8,1.1
			c-1.7,0-3.4-1-5.1-3l-0.5-0.6l-3.6,4l0.4,0.5c2.4,3,5.4,4.6,9,4.6c2.6,0,4.8-0.9,6.6-2.7c1.8-1.8,2.7-4,2.7-6.5
			c0-2-0.6-3.8-1.8-5.2C167.9,38.2,166.3,36.9,164.2,35.8z"/>
		<polygon class="st0" points="5.9,13.3 0,13.3 0,53 20,53 20,47.4 5.9,47.4 		"/>
		<rect x="27.6" y="23.8" class="st0" width="5.7" height="29.3"/>
		<path class="st0" d="M52.2,13.3h-5.7v10.5h-4.8v5.1h4.8v19.4c0,1.9,0.5,3.4,1.4,4.3c0.9,0.9,2.3,1.4,4.1,1.4
			c0.9,0,2.2-0.1,3.8-0.4l0.6-0.1v-4.9h-3.2c-0.7,0-1-0.1-1,0c0-0.1-0.1-0.3-0.1-0.8V28.9h5.5v-5.1h-5.5V13.3z"/>
	</g>
</g>
</svg>
