<svg width="103" height="166" viewBox="0 0 103 166" fill="none" xmlns="http://www.w3.org/2000/svg">
<g opacity="0.4">
<rect x="0.365123" y="-0.365123" width="27.0191" height="27.0191" rx="1.82562" transform="matrix(1 0 0 -1 23.9639 67.3049)" stroke="url(#paint0_radial)" stroke-width="0.730247"/>
<rect x="0.365123" y="-0.365123" width="22.6376" height="22.6376" rx="1.82562" transform="matrix(1 0 0 -1 26.1543 65.1145)" stroke="url(#paint1_radial)" stroke-width="0.730247"/>
<rect x="0.365123" y="-0.365123" width="18.2562" height="18.2562" rx="1.82562" transform="matrix(1 0 0 -1 28.3447 62.9231)" stroke="url(#paint2_radial)" stroke-width="0.730247"/>
<rect width="12.7605" height="12.7605" rx="1.00741" transform="matrix(1 0 0 -1 0 106.775)" fill="url(#paint3_linear)"/>
<rect x="63.5459" y="37.5752" width="11.832" height="11.832" rx="0.934106" transform="rotate(-180 63.5459 37.5752)" fill="#57BA2D"/>
<rect x="55.1982" y="44.0371" width="13.1938" height="13.1938" rx="1.04162" transform="rotate(-180 55.1982 44.0371)" fill="#DDE60D"/>
<rect width="15.9307" height="15.9307" rx="1.25769" transform="matrix(1 0 0 -1 0 124.44)" fill="#57BA2D"/>
<rect width="15.9307" height="15.9307" rx="1.25769" transform="matrix(1 0 0 -1 0 142.048)" fill="#57BA2D"/>
<rect x="33.1191" y="124.44" width="15.9307" height="15.9307" rx="1.25769" transform="rotate(-180 33.1191 124.44)" fill="#57BA2D"/>
<g filter="url(#filter0_dd)">
<rect x="39.5811" y="163.858" width="19.6561" height="19.6561" rx="2.69261" transform="rotate(-180 39.5811 163.858)" fill="#DDE60D"/>
</g>
<rect x="21.091" y="86.9387" width="16.6025" height="16.6025" rx="0.902311" transform="rotate(-180 21.091 86.9387)" stroke="#57BA2D" stroke-width="0.360924"/>
<rect x="102.185" y="18.5919" width="17.502" height="17.502" rx="1.26836" transform="rotate(-180 102.185 18.5919)" stroke="#DDE60D" stroke-width="0.269261"/>
<rect x="42.9016" y="26.8928" width="16.6025" height="16.6025" rx="0.902311" transform="rotate(-180 42.9016 26.8928)" stroke="#57BA2D" stroke-width="0.360924"/>
<rect x="77.8174" y="31.6514" width="17.7712" height="17.7712" rx="1.40299" transform="rotate(-180 77.8174 31.6514)" fill="#DDE60D"/>
</g>
<defs>
<filter id="filter0_dd" x="18.9555" y="143.664" width="21.5947" height="21.5947" filterUnits="userSpaceOnUse" color-interpolation-filters="sRGB">
<feFlood flood-opacity="0" result="BackgroundImageFix"/>
<feColorMatrix in="SourceAlpha" type="matrix" values="0 0 0 0 0 0 0 0 0 0 0 0 0 0 0 0 0 0 127 0"/>
<feOffset dy="0.430818"/>
<feGaussianBlur stdDeviation="0.48467"/>
<feColorMatrix type="matrix" values="0 0 0 0 0 0 0 0 0 0 0 0 0 0 0 0 0 0 0.13 0"/>
<feBlend mode="normal" in2="BackgroundImageFix" result="effect1_dropShadow"/>
<feColorMatrix in="SourceAlpha" type="matrix" values="0 0 0 0 0 0 0 0 0 0 0 0 0 0 0 0 0 0 127 0"/>
<feOffset dy="0.0807783"/>
<feGaussianBlur stdDeviation="0.121167"/>
<feColorMatrix type="matrix" values="0 0 0 0 0 0 0 0 0 0 0 0 0 0 0 0 0 0 0.1 0"/>
<feBlend mode="normal" in2="effect1_dropShadow" result="effect2_dropShadow"/>
<feBlend mode="normal" in="SourceGraphic" in2="effect2_dropShadow" result="shape"/>
</filter>
<radialGradient id="paint0_radial" cx="0" cy="0" r="1" gradientUnits="userSpaceOnUse" gradientTransform="translate(-9.30943e-07 26.654) rotate(-37.0928) scale(18.7675)">
<stop stop-color="#BFDFE3"/>
<stop offset="1" stop-color="#BFDFE3" stop-opacity="0"/>
</radialGradient>
<radialGradient id="paint1_radial" cx="0" cy="0" r="1" gradientUnits="userSpaceOnUse" gradientTransform="translate(-7.83952e-07 22.4455) rotate(-37.0928) scale(15.8042)">
<stop stop-color="#BFDFE3"/>
<stop offset="1" stop-color="#BFDFE3" stop-opacity="0"/>
</radialGradient>
<radialGradient id="paint2_radial" cx="0" cy="0" r="1" gradientUnits="userSpaceOnUse" gradientTransform="translate(-6.36961e-07 18.2369) rotate(-37.0928) scale(12.8409)">
<stop stop-color="#BFDFE3"/>
<stop offset="1" stop-color="#BFDFE3" stop-opacity="0"/>
</radialGradient>
<linearGradient id="paint3_linear" x1="8.0218e-08" y1="12.7605" x2="13.6" y2="-9.39847e-08" gradientUnits="userSpaceOnUse">
<stop stop-color="#BFDFE3"/>
<stop offset="1" stop-color="#BFDFE3"/>
</linearGradient>
</defs>
</svg>
