<svg xmlns="http://www.w3.org/2000/svg" id="Layer_1" x="0" y="0" version="1.1" viewBox="0 0 613 556" xml:space="preserve"><defs/><style>.st20{fill:#1c89fa}.st24{fill:#0b0b0b}</style><path fill="#858cdd" fill-opacity=".05" d="M17.9 283.8c33.5 150.1 93.7 297.9 241 268.4C406.3 522.7 613 434 613 283.8 613 133.5 399.5 18.4 243.9 3.1c-271.1-26.7-261 123.8-226 280.7z"/><path fill="#0b0b0a" d="M278 350.1H159.8c-38.7 0-77.4-.2-116.2-.2h-.2c-1.2-.2-3.1.6-3.1-1.4s2-1.4 3.1-1.4c16.3 0 32.7 0 49 .1 1.7 0 2.4-.2 2.7-2.3 2.8-22.7 9.3-43.9 24.8-61.4 1.2-1.4 2.5-2.7 4-3.8 1.6-1.2 1.4-1.6-.2-2.5-13.7-8.2-22.6-20.1-27-35.5-1-3.7-1.4-7.5-2.2-11.3-.2-.8-.8-1.8-1.5-2.2-5.5-2.8-7.5-7.2-6-13.3 1.3-5.2 4.5-9.1 8.7-12.1 3.5-2.5 6.3-5.2 8.7-8.8 13.1-19.9 31.8-32.8 53.8-41.2 7-2.7 14.3-4.5 21.4-6.6.5-.2 1.1-.4 1.6-.6-.4-.4-.7-.9-1.1-1.3-3.3-3.4-3.3-7.9.3-11 4-3.4 8.5-4.4 13.5-2.2 1.3.5 2.6 1.8 3.7 1.6.8-.2 1.2-2.2 2-3.3 3.3-4.8 7.9-7.3 13.8-6.8 2.9.3 5.3 1.5 6.4 4.4.5 1.2.9.9 1.7.3 3.3-2.4 6.9-4 11.1-3.7 2.7.2 4.9 1.1 6.2 3.5.8 1.5 1.4 1 2.4.3 6.4-5.2 13.7-6.7 21.5-4.1 2.1.7 4.2 1.8 5.9 3.1 6.6 5 7.1 12.8 1.2 18.6-1.5 1.5-1.4 1.8.6 2.5 15.1 5 29.2 11.7 41 22.5 3.5 3.2 7.3 4.9 11.7 6.1 7.1 1.8 13.4 5.6 17.4 11.8 5.5 8.4 5.6 17.4 1.2 26.4-2.6 5.2-6.3 9.5-11 13.1-.5.4-1.2 1.5-1 2 4.3 12.5 1.1 23.6-6.1 33.9-1.3 1.9-1.2 2.7.2 4.3 8.1 9.4 13.4 20.5 17.7 31.9 4.8 12.8 8.7 25.9 10.4 39.5.3 2.4.6 4.8.6 7.2 0 1.4.6 1.6 1.8 1.6h40c.5 0 .9-.1 1.4-.2-.2-.4-.3-.9-.6-1.2-8.3-10.3-9.2-22.5-8.9-35 .1-2 1.2-3 3.2-3 1.7 0 3.3-.1 5 0 1.6.2 1.9-.5 1.9-2 0-11.5-.2-23 .1-34.5.2-8.8 1.4-17.5 5.8-25.3 4.6-8.1 11.1-13.8 20.5-15.7 4.3-.8 8.3-.3 12.2 1.2 12.8 5 19.6 14.9 22.1 27.8 1.6 8.1 1.9 16.5 2.5 24.8.5 7.2.6 14.5.7 21.7 0 1.6.5 2 2 1.9 2.1-.1 4.2 0 6.2 0 1.9 0 3.2.9 3.4 2.8 1.7 12 .8 23.6-5.2 34.4-.4.7-.7 1.4-1 2.1.7.1 1.5.2 2.2.2 39.4.1 78.8.2 118.2.2 1 0 2-.2 3 .1.6.2 1.1.9 1.7 1.4-.6.4-1.2 1-1.8 1.3-.6.2-1.3 0-2 0-40.6 0-81.2-.1-121.7-.2-1.7 0-2.9.4-4.2 1.6-4.6 4.2-10.1 7-16.2 8.6-1.8.5-2.3 1.3-2.2 3.1.1 4.7.2 9.3 0 14-.1 2.1.6 2.4 2.5 2.4 6.8-.1 11.7 3.7 13.7 10.2 1 3.5.2 4.7-3.4 4.7h-46c-4.2 0-4.8-.9-3.5-5 1.9-6 6.8-9.8 13.2-9.9 1.5 0 1.8-.5 1.8-1.9-.1-5-.1-10 0-15 0-1.5-.5-2-1.9-2.3-7-1.8-13.5-4.7-18.9-9.6-.7-.7-2.1-.9-3.2-.9h-119c.1-.2.1-.4.1-.5z"/><path fill="#0c0c0c" d="M278.2 363.5c16-.1 32-.2 48-.4 3.6 0 6.4 1.5 8.8 4 20.9 21.7 41.8 43.5 62.7 65.2 1.3 1.3 2.5 2.7 3.6 4.1 1.6 2 1.1 3.2-1.5 3.4-7 .5-14 1.1-20.9 1.3-24.7.7-49.4 1.4-74.2 2-4.3.1-8.7-.1-13-.5-1.3-.1-2.7-.7-3.7-1.6-23.1-22.2-44.6-45.8-66.1-69.5-1-1.1-1.5-2.8-2.3-4.2 1.5-.4 2.9-1 4.4-1.1 18.1-.8 36.1-1.6 54.2-2.4v-.3z"/><path fill="#07090b" d="M198.8 366.5c1.3.8 3.9 1.8 5.9 3.5 4.1 3.7 8 7.7 11.8 11.8 5.8 6.2 11.3 12.7 17.1 18.8 3.6 3.8 7.8 7.2 11.3 11 3.1 3.4 5.9 7.2 8.5 11.1 1.4 2.2 2.5 4.7 3 7.3.9 4.4-3.2 7.7-7.7 6.8-6.1-1.2-11.2-4.1-15.2-8.7-4.3-4.8-8.5-9.5-12.5-14.5-1.3-1.6-2.3-3.7-1.3-6 .2-.4-.6-1.4-1.1-2-7.5-8.6-15.1-17.1-22.4-25.9-1.7-2-3-4.7-3.6-7.2-.8-3.3 1.6-5.9 6.2-6z"/><path fill="#f3f4fd" d="M210.7 347.2c-16.6 0-33.2-.1-49.7.1-2.5 0-2.8-.7-2.5-2.9.7-6.4 1.2-12.9 1.7-19.4 0-.7-.8-1.5-1.3-2.3-.5.7-1.4 1.4-1.5 2.2-.6 6.5-1.2 12.9-1.6 19.4-.1 2.2-.7 3-3.1 3-17.5-.1-35-.1-52.5-.1-2 0-2.6-.5-2.4-2.5 1.3-12.4 4.7-24.1 9.3-35.6 3.3-8.2 7.8-15.8 13.7-22.5 1.2-1.4 2.5-2.7 3.8-4 2.2-2.2 4.2-2.9 7.4-1.3 9.9 4.7 20.5 6.6 31.3 7.8 3.3.4 6.6.8 9.9 1 1.4.1 1.6.7 1.5 1.8-.2 2.1-.3 4.2-.3 6.2 0 6.2 2.7 9.7 8.7 11.1 3.4.8 6.9 1.3 10.4 1.3 14.7-.2 29.5-.2 44.2-1.1 6.2-.3 12.4-2.2 18.5-3.8 1.9-.5 3.3-2.9 5.1-3.2 1.6-.3 3.6 1.8 5.3 1.7 6.7-.4 13.4-1 20-2.1 8.5-1.5 17-3.3 25.4-5.4 3.1-.8 6.2-2.4 8.9-4.2 4-2.6 5.3-6.8 3.4-11.2-1.5-3.5-3.8-6.8-5.9-10-.7-1-1.2-1.5.1-2.5 1.2-.9 2-1.4 3 0 3 4.4 6.4 8.6 8.9 13.2 9.8 17.6 15.5 36.7 18.7 56.5.4 2.4.4 4.8.6 7.2.1 1.3-.3 2-1.8 1.9-3-.1-6-.1-9 0-1.5.1-1.7-.6-1.8-1.9-.4-6.6-.9-13.1-1.3-19.7-.1-1.1-.2-2.2-.6-3.2-.3-.7-1.1-1.2-1.7-1.7-.4.7-1.1 1.5-1 2.2.4 5.2 1 10.4 1.4 15.7.2 2.1.1 4.2.3 6.2.2 1.8-.4 2.4-2.3 2.4-13.5-.1-27-.1-40.5-.1-7.6 0-15.2-.1-22.7 0-1.8 0-2.5-.3-2.5-2.4-.4-10.9-.9-21.8-1.4-32.7v-.2c-.2-1.2.1-3.1-1.8-2.8-.5.1-1 2-1 3 .4 10.8 1 21.6 1.6 32.4.1 2.3-.7 2.7-2.8 2.7-16.7-.1-33.3-.1-50-.1-.1 0-.1 0-.1-.1z"/><path fill="#fdf49e" d="M218.6 288.9c-26 .3-46-.8-65.8-4.2-12.2-2.1-23.6-6.2-33.5-13.9-13.1-10.3-20-24-21.8-40.3 0-.4.4-1.2.6-1.2 6.2-1 10.1-5.3 13.7-9.8 3-3.7 6.9-4.8 11.3-4.4 4.6.4 9.1 1.1 13.7 1.4 2.9.2 5.8.2 8.7-.1 1.8-.2 2.3.3 2.9 1.9 6.9 18 19 30.5 38.3 34.3 17.9 3.5 33.7-1.7 47.7-13.1 8.3-6.7 14-15.1 17.2-25.2.2-.7 1.3-1.6 2.1-1.7 5.4-.4 10.8-.7 16.2-.8.7 0 1.7.7 2.1 1.3.9 1.7 1.5 3.5 2.4 5.2.7 1.3.2 1.4-1 1.5-5.4.7-10.9 1.2-16.2 2.6-3.2.9-6.5 2.8-9.1 5-4.6 3.9-4.3 8.9.1 12.8.4.4.9 1 .9 1.6.1 2.5 1.7 3.8 3.8 4.3 1.9.5 4 .9 5.9.7 7.6-.9 15.2-1.8 22.7-3.1 2.1-.3 4.1-1.4 5.9-2.6 1.1-.8 2.4-2.7 2.2-3.8-.3-2.1.2-3.3 1.6-4.6.2-.2.4-.4.4-.6.3-4.4 2.5-2.4 4.6-1.5 9.6 3.9 19.2 3.8 28.7-.1 2-.8 2.5-.2 2.9 1.4 3.1 13.2-.5 24.5-10.1 33.7-8.2 7.9-18.6 12.1-29.5 15.1-13.2 3.7-26.8 5.3-40.4 6.5-11.6.9-23.4 1.3-29.2 1.7z"/><path fill="#fcfcfc" d="M286 192.7c14.1 0 26-.5 37.7 2.4 6.4 1.6 12.4 3.8 16.4 9.5 1 1.4 1.4 2.7.7 4.4-4.5 11.6-12.6 19.1-25.1 20.9-12.6 1.8-23.4-2.1-31.6-12-1.7-2.1-2.8-4.9-3.9-7.5-.7-1.6-1.4-2.4-3.3-2.3-8.5.5-17 .9-25.4 1.5-.8.1-2.1.9-2.3 1.6-4 15.8-14.4 26.1-28.3 33.4-13.8 7.3-27.3 4.6-40-2.5-11.4-6.3-18.4-16.6-22.4-28.9-.4-1.3-.2-1.9.8-2.7 1.2-.9 2.3-2 3.3-3 4-4 9-5.8 14.6-6.3 22.1-2 44.2-4.3 66.4-6.1 14.9-1.1 29.8-1.6 42.4-2.4z"/><path fill="#6b7287" d="M264.4 174.7c10.5 0 21-.5 31.5.2 8.9.6 17.9 1.8 26.6 4 9.4 2.4 16.8 7.8 19 18.1.3 1.4.2 2.9.3 4.4l-3-2.4c-5.8-4.7-12.7-6.5-19.8-7.6-11-1.7-22.1-1.7-33.1-1.2-8.3.4-16.6.6-24.9 1.2-14.9 1-29.9 2.2-44.8 3.4-8.6.7-17.3 1.3-25.9 2.2-6.4.7-12.8 1.2-19 2.7-3.6.9-7.3 3.1-10 5.8-7.4 7.3-16 9.3-25.9 8.1-5.4-.6-10.9-1.1-16.4-1.1-3.6 0-6.5 1.9-9 4.7-2.9 3.3-5.6 6.9-9.9 8.6-6 2.3-11.5-2.2-10.5-8.6.6-4.3 2.9-7.5 6-10.3 5.3-4.7 11.6-7.4 18-10 21.7-8.8 44.2-13.9 67.4-16.7 27.7-3.6 55.5-5.8 83.4-5.5z"/><path fill="#fcf39d" d="M223.7 144c13.6-.5 27 .6 40.1 4.3 15.5 4.3 30.3 10.6 42.8 21.2 1 .9 2.1 1.6 3.2 2.4.4.3.6.7.9 1.1-.5 0-.9.1-1.4.1-6.1-.5-12.1-1.5-18.2-1.5-19.1 0-38.2-.1-57.2.9-17.9.9-35.7 2.8-53.5 4.7-24.7 2.6-48.6 8.6-71.5 18.3-.7.3-1.4.4-2.1.6.3-.7.5-1.5.9-2.1 9.8-13.9 22.5-24.5 37.5-32.2 20.4-10.6 42.3-15.7 65.2-17.1 4.4-.3 8.8-.4 13.3-.7z"/><path fill="#d2d2d5" d="M428.4 308.2h-27c-1.7 0-2.3-.4-2.2-2.2.2-3.8.2-7.7 0-11.5-.1-1.7.6-2 2.1-2 5.2.1 10.3.1 15.5 0 1.1 0 3.1-.9 3.1-1.4 0-2-1.8-1.5-3-1.5-5.2 0-10.3-.1-15.5 0-1.7 0-2.3-.3-2.2-2.2.1-4.6 0-4.6 4.7-4.6 4.6 0 9.2.1 13.7-.1.9 0 1.8-.9 2.6-1.4-.8-.4-1.7-1.2-2.5-1.2-5.5-.1-11-.1-16.5 0-1.6 0-2.1-.4-2.1-2.1.1-5.3 0-5.3 5.3-5.3 4.5 0 9 .1 13.5-.1.8 0 1.7-.9 2.5-1.3-.8-.5-1.7-1.3-2.6-1.3-5.5-.1-11-.1-16.5 0-1.5 0-2-.3-1.9-1.9.4-5.6.3-5.6 5.8-5.6 3.8 0 7.7 0 11.5-.1 1.3 0 3.3.7 3.3-1.5 0-2-2-1.3-3.2-1.3-4.7-.1-9.5-.1-14.2 0-1.8 0-2.2-.5-1.6-2.1 1.9-4.4 3.1-9.3 5.8-13.1 10.2-14.5 27.7-14.9 39.3-1.4 6 7.1 8.7 15.5 9.3 24.6.9 13 1.3 25.9 2 38.9.1 1.8-.9 1.5-2 1.5-8.8.2-17.9.2-27 .2z"/><path fill="#8c8fa8" d="M429.3 311.1H467c1.7 0 2.4.5 2.5 2.1.9 10 .4 19.9-4.3 29-4.9 9.6-13.6 14.2-23.6 16.4-9.8 2.1-19.6 1.3-28.9-2.7-13.4-5.7-21.2-15.9-23-30.5-.5-3.9-.5-7.8-.7-11.7-.1-1.9.4-2.6 2.5-2.6 12.6.1 25.2 0 37.8 0z"/><path fill="#f2f3fc" d="M177.3 295.7c.4-5.2.3-5.1 5.5-4.7 20.3 1.4 40.6 1 60.9-.6 14.8-1.2 29.7-2.9 44.1-6.7 8.8-2.3 17.2-5.7 24.9-10.7 1.8-1.2 3-1.1 4.1.7 1.6 2.6 3.5 5.1 4.7 7.9 1.7 4 1 6.5-2.6 8.8-2.3 1.5-4.8 2.8-7.4 3.4-13.1 2.7-26.3 5.2-39.4 7.6-1.6.3-3.4.4-5 0-1.4-.3-2.8-1.3-3.8-2.3-1.5-1.6-2.2-1.5-3.7.2-1.4 1.6-3 3.1-4.9 3.9-6.7 2.9-13.9 3.6-21 3.9-13.7.5-27.5.5-41.2.6-2.7 0-5.5-.5-8.2-1-5-1-7.1-3.5-7.1-8.7.1-.8.1-1.5.1-2.3z"/><path fill="#9399e0" d="M271.5 135.6c-.4 4.6-3 7.4-6.4 9.6-.5.3-1.4.2-2.1 0-18.1-4.6-36.4-4.7-54.8-3.1-7.1.6-14.2 1.7-21.3 2.6-1.7.2-4.9-1.8-5.8-3.8-.9-2.2-.3-4.1 1.5-5.6 3.4-2.9 7.6-3.2 11.9-.7.7.4 1.4.9 2.1 1.4 2.2 1.5 2.9 1.4 3.8-1.2 1.4-4.2 3.9-7.3 8.2-8.7 1.5-.5 3.1-.6 4.6-.5 2.7.2 4.3 1.8 4.7 4.7.1.9.8 1.7 1.1 2.6.8-.4 1.8-.7 2.4-1.4 2.7-2.5 5.7-4.3 9.4-4.8 3.9-.5 5.7.8 6.5 4.7.1.6.7 1.6 1.1 1.7.7 0 1.5-.4 2.1-.9 4-3.7 8.3-6.7 14-6.9 5.7-.2 11 1.1 14.7 5.8 1 1 1.5 2.8 2.3 4.5z"/><path fill="#f4ae17" d="M255.9 238.7c-1.5 0-3.1.4-4.4-.1-3.7-1.2-5-5-2.5-8 1.5-1.8 3.5-3.4 5.7-4.3 8.5-3.6 17.3-4.6 26.4-3 2.3.4 4.5 1.7 6.4 3.1 2.7 2 2.6 4.6-.3 6.2-2.9 1.6-6.1 2.8-9.3 3.4-7.3 1.3-14.6 2.1-22 3.1v-.4z"/><path fill="#8b8ea6" d="M432.5 392.1h-21.9c-1.8 0-2.2-.4-1.5-2.1 1.8-4.1 4.8-6.8 9.2-6.9 9.4-.2 18.8-.1 28.2 0 4.4.1 7.8 2.9 9.4 7 .6 1.5.4 2-1.4 2h-22z"/><path fill="#898ca4" d="M423.8 371.1v-7.2c0-1.2.2-1.7 1.6-1.6 4.1.1 8.3.1 12.4-.2 1.7-.1 2.2.3 2.2 1.9-.1 4.7-.1 9.5 0 14.2 0 1.5-.4 2-2 2-4.2-.1-8.3-.1-12.5 0-1.5 0-1.8-.5-1.8-1.9.1-2.4.1-4.8.1-7.2z"/><path fill="#c1c1c1" d="M150.5 215.6c.6-.3 1.2-.7 1.9-.9 3.2-1.3 3.2-1.3 4.4 2 6.2 16.2 17 27.8 34 32.9.4.1.7.3 1.1.5-.4.1-.9.2-1.3.2-10.8-1.2-19.9-5.7-27.4-13.4-5.4-5.5-9.5-11.8-12-19-.3-.8-.4-1.3-.7-2.3z"/><path fill="#e9a616" d="M260.3 244.1c-1.5-.2-3.9-.4-6.3-.7-.6-.1-1.1-.8-1.6-1.2.6-.2 1.2-.4 1.8-.4 9-1.2 17.9-2.3 26.9-3.5 1.5-.2 3-.9 4.5-1.4.4-.1.9-.1 1.4-.2-.1.5 0 1.3-.4 1.6-.8.7-1.7 1.5-2.7 1.7-4.7 1.2-9.5 2.3-14.3 3.2-2.8.4-5.6.5-9.3.9z"/><path fill="#bebebe" d="M276.5 210.9c.5.5 1.1.9 1.4 1.5 1.2 2.2 2.3 4.4 3.4 6.6.2.4.3.7.4 1.1-.4 0-.9.2-1.2.1-1-.5-2.2-.8-2.7-1.7-1.1-1.7-2-3.6-2.7-5.5-.2-.5.2-1.3.4-1.9.3-.1.6-.1 1-.2z"/><path fill="#e9e9e9" d="M276.2 366.6c15-.3 30-.6 45-.8 2.3 0 4.7 0 7 .5 1.5.3 3.1 1.2 4.2 2.3l63.3 65.7.7.7c.5.6.9 1.2 1.3 1.8-.8.1-1.5.3-2.3.4-30.2 1.9-60.4 3.2-90.7 3-3.7 0-7.5-.2-11.2-.2-1.8 0-3.2-.7-4.6-2-22.2-21.5-43-44.4-63.8-67.3-.4-.4-.6-.9-.9-1.4.5-.1 1.1-.3 1.6-.3 10.2-.5 20.5-.9 30.7-1.3 6.6-.3 13.2-.5 19.7-.8v-.3z"/><path d="M195.3 372.4c.1-2.5 1.6-3.7 3.4-2.7 2.2 1.1 4.4 2.4 6.1 4.2 9.1 9.7 18.1 19.5 27.2 29.2.8.9.9 1.3-.3 1.9-6.6 3.6-6.6 3.6-11.5-2-6.7-7.6-13.4-15.2-20.1-22.9-1.4-1.6-2.6-3.5-3.7-5.3-.7-.8-.9-1.8-1.1-2.4zM253.7 429.8c0 3.5-2.2 5.2-4.6 4.1-1.8-.8-3.6-1.9-4.9-3.3-5.8-6.1-11.4-12.3-17.1-18.5-1-1-.9-1.6.5-2.1.7-.2 1.4-.6 2.1-.9 6.4-2.9 6.6-3 11.3 2.4 3.7 4.2 7.2 8.8 10.5 13.3 1.1 1.7 1.7 3.9 2.2 5z" class="st20"/><path fill="#040404" d="M214.2 218.1c-.2.7-.5 2-1 3.2-.5 1.2-1.7 2.3-.1 3.6.2.1 0 1.1-.2 1.3-.4.3-1.2.5-1.5.3-3.8-2.2-7.3-1.4-10.8.7-.4.3-1.4.2-1.7-.2-.3-.3-.4-1.5-.1-1.7 1.4-1 .2-1.6-.3-2.3-1.9-2.8-1.5-7.3.8-10.3 2.3-2.9 6.3-4.1 9.6-3 3.1 1.2 5.3 4.4 5.3 8.4z"/><path fill="#050505" d="M312.2 201.6c5 .1 8 6 5.5 11-.5 1-1.5 1.8-.3 3 .2.2 0 1.2-.2 1.3-.5.3-1.4.5-1.8.2-3-1.7-6-1.7-9.1-.6-.4.1-1.3-.9-1.9-1.4 1.4-1.1.3-2.2 0-3.3-1.5-5.2 2.4-10.2 7.8-10.2z"/><path fill="#090909" d="M302 395h34.5c.6 0 1.3-.1 1.7.1.7.4 1.3 1 1.9 1.6-.7.4-1.4 1.1-2.1 1.1-18.7.1-37.5.1-56.2.2-4.8 0-9.7.2-14.5.2-1.2 0-3.1.6-3-1.5.1-2.1 1.8-1.2 3.1-1.3 7.1-.1 14.2-.3 21.2-.4 4.4 0 8.9.1 13.4 0 0 .1 0 0 0 0z"/><path d="M312.8 409.5c-9.8.2-21.3.5-32.8.8-.2 0-.5.1-.7 0-.9-.4-2.4-.8-2.4-1.3-.2-1.8 1.4-1.4 2.5-1.4 17.5-.3 35-.6 52.4-.9 6.2-.1 12.3-.1 18.5 0 .9 0 1.7.8 2.5 1.3-.9.5-1.7 1.5-2.6 1.5-11.9.1-23.8 0-37.4 0zM326.5 422.7h-31.2c-.7 0-1.6.1-2.2-.2-.5-.2-1.1-1-1.1-1.4 0-.5.7-1 1.2-1.3.2-.2.6 0 1 0 21.1 0 42.3-.1 63.4-.1 1.4 0 3.8-.8 3.9 1.4 0 2.3-2.4 1.4-3.8 1.4-10.4.1-20.8 0-31.2 0v.2z" class="st24"/><path fill="#0f0f0f" d="M315.1 385.2c-4.2 0-8.5.1-12.7-.1-.9 0-1.8-.9-2.7-1.4.9-.5 1.8-1.4 2.7-1.4 8.6 0 17.3.2 25.9.4.7 0 1.5.9 2.2 1.4-.8.5-1.5 1.3-2.3 1.4-4.4.1-8.8.1-13.2.1.1-.1.1-.3.1-.4z"/></svg>