<svg xmlns="http://www.w3.org/2000/svg" fill="none" viewBox="0 0 687 619"><defs/><path fill="#858CDD" fill-opacity=".05" d="M47.9 332.8c33.5 150.1 93.7 297.9 241 268.4C436.3 571.7 643 483 643 332.8c0-150.3-213.5-265.4-369.1-280.7-271.1-26.7-261 123.8-226 280.7z"/><path fill="#0B0B0A" d="M138.3 415.6H73.9c-1.2-.2-3 .6-3.1-1.4 0-.3 1.9-1.2 3-1.2 17.1-.1 34.2-.1 51.2-.1h1.7c1.2.1 1.7-.2 1.6-1.7-.8-11.9.7-23.6 3.1-35.2.1-.4.1-1-.1-1.4-4.8-6.4-4-13.6-2.5-20.6 3.5-16.1 11.1-30.5 20.2-44.2.8-1.2.5-1.5-.5-2.2-6.5-4.6-12.4-9.9-15.7-17.4-1.2-2.7-2.2-5.6-3.1-8.4-.4-1.2-.7-1.6-1.8-1-.4.2-1 .2-1.5.3-8.4 1.7-13.2-3.6-10.6-11.7 2.2-6.9 7.3-11.3 13.5-14.3 2.7-1.3 4.2-3.2 5.3-5.7 13.8-31.8 38.2-51.1 71.3-59.8 7.7-2 15.7-2.5 23.6-3.7.8-.1 1.7-.4 2.5-.6-.6-.7-1.1-1.6-1.8-2.1-3.4-2.5-4.5-5-3-8.3.7-1.5 2.1-3.1 3.6-3.8 5.4-2.5 10.3-1.3 14.5 3.1.9.9 1.1 1.3 1.9-.1 4.1-6.9 12.1-7.4 17.1-1.1 1.1 1.3 1.3.3 1.7-.3 2.7-3.3 6-5.7 10.4-6.4 5.7-.9 10 2.3 10.6 8.1.1.5.2 1 .3 1.6.5-.3.9-.6 1.4-.9 4-2.6 7.8-6 12.1-7.6 11.1-4.3 22.9 5.5 21.2 17.1-.8 5.5-4.8 8.9-9.2 11.9-.8.5-1.5 1.1-2.3 1.7l2.4 1.2c22.5 9.8 39.4 25.6 50.1 47.6 3.2 6.5 6.4 12.9 10.2 19 8.2 13.1 4.8 26.4-8.2 35.6-1.4 1-2.2 2.1-2.9 3.7-1.9 5.2-6 8.7-10.4 11.8-1.1.8-2.9 1.4-3.3 2.5-.3.9 1.1 2.3 1.6 3.6.5 1.1 1.2 2.3 1.2 3.5.2 5.3 4.8 7.7 7.4 11.4.2.3 1 .4 1.5.4 6.9-.5 12.6 1.8 16.7 7.5.5.7 1.8 1 2.8 1 4.8.1 9.2 1.1 12.9 4.5 6.9 6.3 6.9 15-.1 21.3-4.3 3.9-9.7 5.5-15.1 6.8-5.6 1.4-11.2 2.4-16.9 3.5-1.2.2-1.6.5-1.6 1.8.2 8.9.2 17.8.4 26.7 0 .5.9 1.3 1.3 1.3 15.2.1 30.5 0 45.7.1 1.7 0 1.6-.9 1.6-2.1.1-13.7.3-27.5.4-41.2 0-3.8.4-4.3 4.3-4.4 7.2-.3 14.3-.4 21.5-.5 1.8 0 2.2-.5 2.2-2.2.1-6.2 1.5-7.9 7.6-9 6-1.1 12-.7 17.8 1.1 4.8 1.5 6 3.4 5.8 8.4-.1 1.7.6 1.9 2 1.8 4.7-.2 9.3-.4 14-.4 2 0 2.4-.7 2.3-2.4-.2-5.3 1.3-6.8 6.9-8.5l1.2-.3c5.8-.6 11.7-.5 17.3 1.3 4.7 1.5 6 3.4 5.8 8.4 0 1.2.2 1.6 1.5 1.6 4.8-.1 9.7 0 14.5-.1.5 0 1-.9 1.4-1.4.1-.2 0-.5.1-.7.6-6.4 2.3-8.6 8.8-9.1 5.1-.3 10.3.4 15.4.9 1.6.2 3.1 1.2 4.5 2 2 1.3 3.2 3.1 2.7 5.7-.3 1.6-.1 2.7 2 2.5 6.7-.8 12.1 1.8 17 6 2.4 2.1 5 3.9 7.5 5.8 2 1.4 2.8 3.3 2.9 5.7.1 9.6.4 19.2.5 28.7 0 1.8.4 2.5 2.3 2.3 2.3-.2 4.7-.2 7 0 .7 0 1.4.7 2.2 1.1-.7.5-1.5 1.3-2.2 1.3-2.4.2-4.8.1-7.2 0-1.5-.1-2 .4-2 1.9.1 5.5-.1 11 0 16.5 0 4.5-3.4 6.9-7.3 4.5-4.6-2.8-8.7-6.4-13-9.7-.5-.4-.6-1.5-.7-2.2-.1-3.1-.1-6.2-.1-9.2 0-1.2-.2-1.7-1.6-1.7-2.4.2-4.8.1-7.2 0-1.6-.1-2.2.4-2.7 2-1.6 5-4.2 9.4-9.3 11.4-8.3 3.2-16.3-.7-19.5-9.2-1.5-4.1-1.5-4.1-5.8-4.1-3.8 0-7.7.1-11.5 0-1.5 0-2.1.4-2.5 1.9-1.5 4.9-4.1 9.3-9 11.3-8.3 3.5-16.4-.3-19.7-9-1.6-4.2-1.6-4.2-6.3-4.2-3.8 0-7.7.1-11.5 0-1.7 0-2.5.3-3.1 2.2-1.4 4.9-4.1 9.1-9 11.1-8.1 3.4-16.3-.3-19.5-8.6-.4-.9-.5-2-1-2.8-.4-.7-1.1-1.2-1.7-1.8-.3.7-.8 1.5-.8 2.2.1 5.2.3 10.5.4 15.7 0 1.7.7 3.8-1.4 4.6-2.2.9-4.6 1.1-6.6-.6-5.3-4.4-10.5-9-15.8-13.4-2.2-1.9-1.3-4.3-1.4-6.5-.1-1.7-.4-2.2-2.2-2.2-17.3.1-34.7.1-52 0-1.3 0-2.4-.1-2.2 1.9.1 1.5.2 2.2 2.1 2.4 6.5.6 12.9 1.4 19.3 2.4 5.1.8 5.7 1.7 5.8 6.9l.3 24.5c0 1.9 0 3.8.2 5.7.2 2-.6 3.1-2.3 3.9-8 3.5-16.3 5.7-24.9 6.9-31.2 4.3-62.5 5.5-94 3.8-12.9-.7-25.8-1-38.7-1.7-15.8-.9-31-5.1-46.2-8.9-1.9-.5-2.3-1.8-2.3-3.3 0-4.6-.1-9.2.2-13.7.3-5.2.9-10.5 1.4-15.7.4-3.7 1-4.7 4.8-5.3 8.6-1.3 17.3-2.4 26-3.3 1.9-.2 2.1-.8 2.2-2.3.2-4 .2-4-3.7-4h-63.7z"/><path fill="#F2F3FC" d="M165.5 413c-10.5 0-21-.1-31.5.1-2.7 0-3.5-.8-3.3-3.3l2.1-27.6c0-.4.2-.8.2-1.2.6-3.8.6-3.8 3.6-1.5.4.3.6 1.1.4 1.6-.3 1-.9 1.9-1.3 2.9-2.5 6.8 2.2 12.5 9.3 11.2 1.2-.2 1.8-.1 2.6 1 2.2 3.1 6.4 3.8 10.1 2 .7-.3 1.8-.3 2.4.1 3.1 2 6.3 2.1 9.5.4 3-1.6 4.3-4.3 4-7.7-.1-1.2.2-1.6 1.4-1.7 4.1-.4 7.1-2.7 9.5-5.8 4.4-5.7 6.8-12.1 8-19.1.3-1.7.8-3.4.9-5.1 0-.9-.7-1.9-1.1-2.9-.4.7-1.1 1.4-1.2 2.2-1.4 7.6-2.7 15.2-7.2 21.8-3.5 5.1-7.9 7.5-14 6.3-10.3-2-20.6-3.7-30.1-8.5-4.6-2.4-8.2-5.7-8.9-11-.5-3.3-.3-6.9.2-10.2 1.9-11 6-21.2 11.5-30.9 2.9-5.1 5.9-10 8.9-15 .2-.3 1.2-.6 1.5-.4 11.7 7.5 24.7 11.4 38 14.4 1.9.4 1.7 1.1 1.1 2.5-3.3 7.9-.8 14 7.3 16.8 3.7 1.3 7.7 2.3 11.6 2.7 17.4 1.4 34.7 2.7 52.1 3.6 6.3.3 12.8-.6 19.1-1.5 4.2-.6 7.4-3.3 9.5-7 .4-.8.7-1.5 1.6-.3 2.1 2.7 5.1 3.8 8.4 3.8 5.1-.1 10.2-.3 15.2-1 7.8-1 15.5-2.1 23.2-3.5 4.3-.8 8.2-2.7 10.9-6.5.2-.3 1.1-.4 1.3-.2 1.3 1.3 2.5 2.7 3.6 4.2.2.2-.1 1-.3 1.2-4.4 2.3-7.8 5.6-9.7 10.3-.2.4-.9.8-1.5.9-2.1.6-4.2 1-6.2 1.7-5.8 2-7.9 4.7-7.8 10.9.1 3.8 1 7.6 1.4 11.4.1.7 0 1.7-.5 2.1-4 3.3-5.7 7.9-7.1 12.6-.5 1.6-1.1 3.1-1.6 4.7-.5 1.5-1.2 1.3-2 .4-4.7-4.8-10.7-6.1-17.1-5.7h-2.2c-3.4 0-5.5-1.8-5.1-5.2.4-3.6.2-7-2.4-9.8-.3-.3-.2-.9-.2-1.4l1.5-23.4c0-.7-.7-1.4-1-2.2-.5.7-1.3 1.3-1.4 2-.4 5.1-.5 10.1-.8 15.2 0 .4-.2.7-.2 1.1l-.6-.9c-.9-1.6-1.7-3.2-2.8-4.6-1-1.2-1.9-.9-3 .4-1.4 1.8-3.1 3.3-4.9 4.8-.9.8-2.2 1.2-3.2 1.9-3.3 2.2-5.2 5.2-4.8 9.2.2 2.4-.8 4-2.4 5.4-9.6 8.1-10 17.9-1.3 26.9 1.1 1.1.8 3.7 1 5.6 0 .1-.8.5-1.2.5-3.2.1-6.5.1-9.7.1-.4 0-1.1-.9-1.1-1.5-.1-3.5-.2-7-.1-10.5 0-4-1.8-6.9-5.6-7.9-6.9-1.9-13.8-3.5-20.8-4.9-2.7-.5-5.4-.4-6.8-3.4-.5-1-1.8-1.5-2.5-2.4-1-1.3-2.3-2.7-2.8-4.2-1.2-3.9-3.8-6.4-7.3-8-.5-.3-2 .3-2.3.8-2.2 3.2-4.6 6.1-4 10.6.2 1.6-2 3.8-3.6 5.3-2.9 2.7-5.3 5.5-5.9 9.5-.8 5 .5 9.4 3.5 13.4.3.4.6.9.9 1.4-.5.1-1.1.3-1.6.3-11.5-.3-22.4-.3-33.3-.3z"/><path fill="#FDF49E" d="M363.8 254.2c-1.1-.2-1.7-.3-2.2-.5-6.7-2.3-13.3-5.5-20.2-6.9-10.3-2-20.7-3.3-31.2-3.9-17.2-1.1-34.4-2-51.7-1.9-25.2.1-50.5.8-75.7 1.9-14.8.7-29.4 3.6-43.5 8.3-.7.2-1.4.3-2.1.5.1-.9.1-1.8.4-2.6 4.7-11.5 11.9-21.3 20.7-30 17-16.8 37.6-26.1 61.2-29.4 14-2 27.9-1.3 41.8.4 13.4 1.6 26.7 3.8 39.6 7.7 26.2 7.9 45.8 24 58.9 48 1.4 2.4 2.5 5.1 4 8.4z"/><path fill="#C6C6C6" d="M271.5 472c-17.2-.8-34.4-1.5-51.7-2.3-14.1-.7-27.7-4.4-41.4-7.7l-1.5-.3c-2.4-.6-3.9-1.8-3.7-4.6.7-8.9 1.3-17.8 1.9-26.6.1-1.6.8-1.8 2.3-1.4 17.4 4.9 35.2 7 53.2 8.4 20.9 1.7 41.9 2.4 62.9 1.6 17.8-.7 35.6-1.7 53.2-5 9.6-1.8 18.9-4.9 28.4-7.4.3-.1 1.1.3 1.2.6.2.6.2 1.3.2 2 .2 9.9.3 19.8.5 29.7 0 1.7-1 2.2-2.2 2.5-7.4 2.1-14.8 4.8-22.3 6-24 3.6-48.2 4.9-72.4 4.7h-8.5c-.1-.1-.1-.2-.1-.2z"/><path fill="#FCF8D5" d="M253.1 255.5c13 .7 28.6 1.4 44.3 2.3 19.8 1.2 39.5 3.2 58.6 8.9 4.8 1.4 9.7 3.8 13.7 6.8 6.6 5 7.2 9.1 2.8 16.5-10.8 18.3-33.9 18.3-47 8.1-.6-.4-1-1.3-1.1-2-.2-3.5-1.8-6.2-4.9-7.5-2.5-1.1-3.4-2.9-3.9-5.2-1.1-5.1-1.2-5.1-6.3-5.1-8.2-.1-16.3-.3-24.5-.5-4.1-.1-4.7.3-6.2 3.8-11.8 27.1-47.2 36.8-70.4 19.1-7.5-5.7-12.7-13.1-15.4-22.2-.6-2-.2-3.7.9-5.4 3.1-4.9 7.8-7.9 12.8-10.5 7-3.8 14.6-5.4 22.5-5.9 7.2-.4 14.3-.7 24.1-1.2z"/><path fill="#FCF39D" d="M308.3 285.4c-7.4-.5-14.8-.3-22 1.7-1 .3-2.1.6-3 1.1-2.9 1.5-4.6 3.9-4.6 7.2 0 3.2 1.8 5.5 4.6 6.9 1.3.7 2.3 1.2 2.7 3 .6 2.8 3.1 4 5.7 4.1 6.1.3 12.3.6 18.5.5 3.6-.1 6.7-1.3 7.2-5.8.1-1.3 4.4-2.4 5.9-1.7 9.8 4.4 20 6 30.6 4.1 1.3-.2 2.6-.7 3.8-1.1.6-.2 1.2-.3 1.8-.4-.2.7-.3 1.5-.8 2-1.9 2.1-3.6 4.4-5.8 6.2-7.2 6.1-15.8 9.1-24.7 11.3-21.3 5.4-43.1 6.6-65 6.4-17.2-.2-34.3-1.4-51.2-4.3-17-2.9-34-6-49.6-13.6-7.6-3.7-14.8-8.3-20.8-14.5-4.7-4.8-7.4-10.6-9.3-16.8-.5-1.5-.1-2.4 1.3-3.5 2.1-1.6 3.9-3.6 5.6-5.7 1.1-1.4 2.3-2.1 4-1.9 12.3 1.3 24.6 2.7 37 4.1.6.1 1.4.9 1.5 1.5 1.9 10.9 7.8 19.3 16.5 25.9 8 6.1 17.2 9 27.1 9.7 9.3.6 18.5.6 27.4-2.6 13.3-4.9 23.1-13.6 28.7-26.8.6-1.3 1.2-1.9 2.7-1.9 7.7.2 15.3.2 23 .3.6 0 1.3.8 1.6 1.5.3.8.3 1.8.4 2.7l-.8.4z"/><path fill="#6A7187" d="M117.9 272.5c.2-4.7 3.6-8.7 7.9-12 6.5-5 14.3-7.1 22-9.2 12.9-3.6 26.1-5.5 39.4-6.2 9.8-.5 19.6-.7 29.5-1 12.2-.3 24.3-.9 36.5-.8 12.1 0 24.1.7 36.2 1.1 8.5.3 17 .6 25.4 1.3 13.4 1.1 26.8 2.6 39.6 7.4 8.9 3.3 15.2 9 18.7 17.8.2.6.3 1.3.4 1.9-.5-.3-1.1-.6-1.5-1-5.9-5-13-7.3-20.3-9.1-13.9-3.5-28.1-5.4-42.4-6.6-14.2-1.1-28.4-1.6-42.6-2.6-14.5-1.1-29-.2-43.4 1.3-11.8 1.2-22.7 5.7-30.2 15.3-2.8 3.5-4.9 3.7-8.6 2.9-13.4-3-27.1-4.4-40.8-5-3.1-.1-5.2 1.1-6.9 3.5-3 4.1-6.8 6.8-11.9 7.5-4.3.7-7-1.4-7-6.5z"/><path fill="#F1F2FB" d="M305.3 343.6c-4.4-.4-8.7-.5-11.3-5.1-1.1-1.9-3-1.6-3.7.5-1.7 5-5.5 7.7-10.4 8.1-7.4.7-15 1.1-22.4.8-15-.7-30.1-1.9-45.1-3.3-4.5-.4-9.1-1.4-13.3-3-6.9-2.6-7.4-8.5-4-14.6.2-.4 1.4-.6 2.1-.4 16.2 3.5 32.6 5.6 49.2 6.4 26.9 1.4 53.6.9 80-5.3 6-1.4 11.8-3.8 17.7-5.9 1.5-.5 2.4-.6 3 .8.9 2.3 1.9 4.6 2.4 7 .6 3.2-1.3 5.4-3.9 6.6-3.5 1.6-7.2 3.1-11 3.7-9.8 1.4-19.6 2.4-29.3 3.7z"/><path fill="#939AE1" d="M320.3 182.6c-1 2.1-1.5 4.8-3 6.3-2.8 2.8-6.1 5-9.4 7.3-.7.5-1.9.4-2.8.1-16.9-5.3-34.3-8.1-51.9-9.7-5.6-.5-11.3-.6-16.9-1-.6 0-1.3-.8-1.8-1.3-1-1-1.9-2.3-3-3.2-1.5-1.2-2.8-2.4-2.3-4.6.5-2.1 1.9-3.1 4-3.6 5.5-1.3 10 1 12 6.2.3.8 1 1.5 1.6 2.2.5-.9 1.3-1.7 1.5-2.6.6-3.5 2.3-6 5.7-7.2 4-1.5 8.1.8 9.1 4.9.2.9 1 1.7 1.4 2.6.6-.7 1.4-1.3 1.8-2.1 2.2-4.1 5.3-7 10-8 5-1 8.4 1.8 8.1 6.9-.1 1.5-.7 2.9-1 4.3-.1.6.2 1.3.3 2 .6-.2 1.4-.2 1.9-.6 2.9-2.6 5.6-5.5 8.8-7.8 2.5-1.8 5.4-3.4 8.3-4.3 8.2-2.3 17.1 4.6 17.6 13.2z"/><path fill="#8389C3" d="M254.6 409.6c-.3 2 1 4.7-1.7 6.5-.4.3-.3 1.4-.3 2.1-.1 5.2-.2 10.5-.2 15.7 0 1.7-.4 2.4-2.2 2.2-13.7-1.2-27.3-2.4-41-3.6-.5-.1-1.4-1.1-1.4-1.7 0-4.7.2-9.3.4-14 0-.4.9-1 1.3-1 9.6.6 14.4-2.2 18.2-10.6.3-.6 1.7-1 2.5-.9 6.4.2 12.8.5 19.1.8.4 0 .8 0 1.2-.1 1.3-.4 2.5-.8 3.8-1.1.1 1.5.2 3.1.3 4.6v1.1z"/><path fill="#B59891" d="M526.3 378.7c-14.6 0-29.1-.1-43.7 0-7.1.1-14.1.7-21.2.7-10.6 0-21.1-.2-31.7-.4-.6 0-1.3-.2-1.8-.5-4.4-3.2-8.7-6.4-13.1-9.6-.3-.2-.6-.5-.9-.8.4-.1.9-.3 1.3-.4 6.2-.2 12.5-.3 18.7-.4.7 0 1.5.4 2.2.6-.5.5-1.2.9-1.6 1.4-.8.9-2.2 2-2 2.7.2 1 1.5 2 2.6 2.5 1.3.5 2.8.5 4.2.5l27-.3c.9 0 2 0 2.7-.5 1.1-.8 2.4-1.8 2.5-2.9.1-.8-1.4-1.9-2.2-2.8-.3-.3-.8-.5-1.2-.7.5-.1 1-.4 1.5-.4 4.9-.2 9.8-.3 14.7-.4.5 0 1 .5 1.5.8-.4.4-.8.9-1.1 1.3-.9 1-1.8 2.1-2.7 3.1 1.2.8 2.4 2.3 3.7 2.3 10.6.1 21.1.1 31.7-.2 1.3 0 3.1-1.2 3.7-2.4 1-1.9-.6-3-2.3-3.6-.5-.2-.8-.6-1.3-.9.5-.1 1-.4 1.5-.4 4.7 0 9.3-.1 14 0 .6 0 1.1.4 1.7.6-.5.5-.9 1-1.4 1.4-.5.4-1.3.5-1.8.8-1.7 1.2-1.6 3.3.3 4.2 1.2.5 2.6.8 3.9.8 9.5 0 19-.1 28.5-.2.7 0 1.6 0 2.2-.3 1.2-.8 2.7-1.6 3.1-2.8.2-.7-1.4-2-2.1-3.1-.3-.4-.7-.8-1-1.1.5-.2 1-.4 1.5-.4 2.3 0 4.7.1 7 .3.9.1 2 .4 2.8.9 4.1 2.9 8.1 5.8 12.1 8.8.5.4.8.9 1.2 1.4-.6.1-1.3.2-1.9.2-14.4 0-28.8.1-43.2.1-6.7.1-13.2.1-19.6.1z"/><path fill="#FCB513" d="M283.8 411.2c-8.4-.2-18.4-4.7-19-15.1-.3-4.7 1.2-8.6 4.9-11.4 3.3-2.4 5.4-5.2 4.9-9.6-.3-2.8 1.7-4.7 3.9-6.2 2.6-1.8 5.2-3.8 7.8-5.6.2-.2 1.1.1 1.2.2.3 1.3.9 2.8.7 4-.6 2.9 0 5.2 2.3 7.2 2.5 2.2 3.3 4.8 3.1 8.2-.2 2.1.7 4.5 1.8 6.5 2.5 5 2.9 10 .1 14.8-2.8 4.8-7.4 6.7-11.7 7z"/><path fill="#F28E90" d="M549.6 386.2c3.9 0 7.8-.1 11.7.1.6 0 1.7.9 1.7 1.3-.4 9.2-.5 18.5-1.7 27.6-.8 5.9-4 10.8-10.6 12.1-5.9 1.2-11.8-2.1-13.5-8.3-1.4-5.1-1.7-10.6-1.9-16-.2-5.1.5-10.1.6-15.2 0-1.7.6-2 2.2-1.9 3.8.1 7.6 0 11.5 0v.3z"/><path fill="#65D1A7" d="M501.1 386.1c3.7 0 7.5.1 11.2 0 1.9-.1 2.2.5 2.1 2.2-.4 7.4-.6 14.8-1 22.2-.3 4.7-1.5 9-4.7 12.7-5.5 6.4-15.1 5.7-19.1-1.8-1.9-3.6-2.9-7.9-3.1-11.9-.3-7.2.3-14.5.4-21.7 0-1.6.8-1.7 2-1.7 4.2.1 8.2 0 12.2 0z"/><path fill="#FCAF00" d="M451.3 386.4c4 0 8 0 12 .1.6 0 1.6.8 1.6 1.1-.6 9.6-.7 19.3-2.1 28.8-.7 5.3-4.2 9.6-10.1 10.8-5.8 1.2-11.3-1.7-13.5-7.7-1.1-2.9-1.9-6.1-2-9.2-.1-7.4.3-14.8.4-22.2 0-1.5.8-1.5 1.9-1.5h11.7c.1-.1.1-.2.1-.2z"/><path fill="#B59891" d="M426 407.4v25c0 .6-.1 1.3-.2 1.9-.6-.3-1.3-.6-1.9-1-3.9-3.3-7.9-6.7-11.6-10.2-.8-.8-1.5-2.3-1.5-3.4 0-16.1.1-32.3.3-48.4 0-.5.2-.9.2-1.4.4.2.9.3 1.3.6 4.1 2.9 8.3 5.9 12.3 8.9.8.6 1.4 2 1.4 3 .1 8.3.1 16.6.1 24.9-.1.1-.3.1-.4.1z"/><path fill="#FCB513" d="M211.2 413.6c-7.2-.3-10.8-2.9-12.6-7.9-2.1-6-.8-10.9 4.3-15.1 3.2-2.7 5.1-5.6 4.8-10.1-.1-1.8 1.9-3.8 3-5.7.1-.1 1 0 1.2.3 1.4 1.8 2.8 3.6 4.1 5.5.9 1.4 1.2 3.5 2.4 4.2 5.4 3.3 6.1 8.7 7.1 14.1 1.6 8.8-6.1 15.3-14.3 14.7z"/><path fill="#9C7F77" d="M510 383.8h-51.2c-8.2 0-16.5.2-24.7.2-1.6 0-2.3.8-2.5 2.2-.2 1.5-.4 3-.4 4.5-.2 11.7-.4 23.5-.5 35.2 0 2.7.4 5.5.4 8.2 0 .7-.8 1.4-1.3 2.1-.4-.6-1.1-1.3-1.1-1.9l.3-50.7c0-1.6.6-1.9 2.1-1.8 8.1.2 16.1.5 24.2.4 9.8-.1 19.6-.7 29.5-.7 12.2-.1 24.5.2 36.7.2 23.2-.1 46.5-.2 69.7-.4 1.6 0 2 .4 2 1.9.1 17.2.3 34.3.4 51.5 0 .6-.7 1.2-1.1 1.8-.3-.5-1-1.1-1-1.6-.2-5.2-.3-10.3-.4-15.5l-.6-32.7c-.1-2.8-.7-3-3.5-3-12.6.2-25.1.2-37.7.2h-39.2c-.1-.2-.1-.1-.1-.1z"/><path fill="#37C9A3" d="M312.8 403.8c4.1 0 8.2.1 12.2 0 1.5 0 2 .4 2.1 2 .2 4.3.2 4.3-4.1 4.5-2.2.1-4.5.4-6.6 1-2.4.7-3.8 2.5-3.8 5.2-.1 5.7-.3 11.5-.4 17.2 0 1.5-.4 2.1-2 2-1.6 0-3.2.2-4.7.4-1.8.3-2.8-.2-2.6-2.3.2-2.4 0-4.8.2-7.2.2-2.4-.7-4-2.7-5.2-3.5-2.1-7-4.2-10.4-6.3-.6-.3-1.4-.9-1.4-1.4 0-.5.7-1.2 1.3-1.5 3.5-1.6 6.3-3.9 8.3-7.3.3-.6 1.4-1.1 2.2-1.1 4.1-.1 8.2 0 12.4 0z"/><path fill="#F9F9F9" d="M379.6 353.5v-1c-.2-3.1-.2-3.2 2.9-2.8 5.6.7 9.8 3.4 12.3 8.6.9 1.8.5 3-1.3 4-6.6 3.5-13.8 5.3-21.2 6.3-8.2 1-16.4 1.7-24.6 2.5-1.9.2-4.3 1.4-5.4.6-1.1-.8-.6-3.5-1.2-5.3-1-3.2-2.2-6.4-3.3-9.6-.1-.4.1-1.2.4-1.5.5-.4 1.2-.5 1.9-.7 4.3-1.4 4.3-1.4 5 2.9 1 6.2 6.5 8.9 11.8 5.8.6-.3 1.7-.3 2.3 0 3.4 1.6 5.9 1.3 8.8-1 .4-.4 1.1-.7 1.6-.6 6.1 1.2 10-1.9 10-8.2z"/><path fill="#F1F2FB" d="M357.6 399.3c-.2 3.1-.4 7.5-.6 11.9-.1 1.3-.5 1.7-1.9 1.9-5.2.7-9.9-1.7-15-2.1-.3 0-.8-.7-.8-1.1-.3-7.6-.6-15.3-.8-22.9 0-1.1.2-1.7 1.6-1.8 5-.3 10-.7 14.9-1.2 1.3-.1 1.6.1 1.6 1.3l1 14z"/><path fill="#B59891" d="M588.7 411v22.5c0 .5-.2 1.1-.3 1.6-.5-.2-1.1-.4-1.5-.7-2.7-2.1-5.5-4.1-8.1-6.3-.7-.5-1.2-1.6-1.2-2.5v-37.7c0-1.4.4-1.9 1.8-1.9 2.7.1 6.3-.9 8 .4 1.4 1.1.9 4.9 1 7.6.1 5.7 0 11.3 0 17h.3z"/><path fill="#FAC324" d="M304.3 301.9c-6.7-.3-11.6-.5-16.5-.8-1.2-.1-2.5-.4-3.5-1-1.9-1-3.3-2.6-3.1-5 .2-2.4 1.6-4.1 3.8-4.8 10.3-3.3 20.8-3.6 31.2-.5 1.2.4 2.4 1.1 3.5 1.9 1.7 1.3 2.5 3.1 2.2 5.3-.3 2.3-1.9 3.4-3.9 3.7-5.2.5-10.3.9-13.7 1.2z"/><path fill="#E8DF81" d="M315.1 426.8v-7c0-1.2.3-1.3 1.4-1.1 10.4 2.3 20.8 1.8 31.2.1 1.4-.2 1.7.1 1.8 1.4.1 3.3.3 6.6.3 9.9 0 .4-.8 1-1.3 1.1-6.8 1-13.6 2-20.5 2.9-3.9.5-7.8.7-11.7 1.1-1.3.1-1.7-.3-1.7-1.6.1-2.2 0-4.5 0-6.7.2-.1.3-.1.5-.1z"/><path fill="#FCF39D" d="M362.6 341c6.9.2 12 3.7 14 10.4.5 1.8.1 4.3-.7 6.2-1.1 2.5-3.9 2.9-6.1 1.1-1.3-1-2-1-2.9.6-1.7 3.1-4.8 3.6-7.5 1.1-1.3-1.2-2.1-1.4-3.4.1-2.3 2.8-6.4 2.3-7.8-1-.7-1.7-1-3.9-.7-5.8 1-7.3 7.9-12.9 15.1-12.7z"/><path fill="#F9F9F9" d="M466.9 399.7c.2-3.9.3-7.8.6-11.7 0-.6.9-1.5 1.4-1.5 4.8-.2 9.7-.2 14.5-.3 1.6 0 1.2 1 1.2 1.8-.2 6.6-.5 13.1-.6 19.7-.1 5.3 0 5.3-5.3 5.3-3.4 0-6.8-.1-10.2 0-1.7.1-2.1-.5-2-2.1.1-3.7 0-7.5 0-11.2h.4zM516.4 399.7l.6-12c0-1.2.2-1.8 1.6-1.8 4.3 0 8.7-.1 13-.3 1.6-.1 1.9.5 1.9 2-.2 8-.3 16-.6 23.9 0 .5-.7 1.3-1.1 1.3-4.8.1-9.7.1-14.5 0-.4 0-1.2-.9-1.2-1.5-.1-3.9-.1-7.8-.1-11.7.2.1.3.1.4.1z"/><path fill="#7F8BF4" d="M342.2 383.2c-.3-1-.6-1.6-.6-2.2 0-.7.2-1.5.3-2.2.5-4.4.5-4.5 5.2-5 7.1-.8 14.2-1.3 21.3-2.1 8.7-1 17.2-2.7 25.2-6.6.3-.2.7-.2 1.1-.3-.1.5-.1 1-.2 1.4-1.4 3.1-3.6 5.8-6.8 7-5.1 2-10.2 4-15.6 5.1-9.6 1.9-19.4 3.2-29.9 4.9z"/><path fill="#D87678" d="M283 436.7h-15.2c-1.3 0-1.7-.2-1.5-1.7.3-2.6.3-5.1.3-7.7 0-1.4.4-1.9 1.9-1.9 10.1.1 20.1.1 30.2.1 1.4 0 1.9.3 1.9 1.8-.1 2.4-.2 4.8-.1 7.2.1 1.4-.5 1.7-1.7 1.7h-15.7c-.1.2-.1.4-.1.5z"/><path fill="#FCF39D" d="M171.1 391.4c0 2.5-.9 4.2-2.9 5.1-2.5 1.2-5 1.1-7-.8-1.6-1.5-2.6-1.9-4.5-.2-2.4 2.2-6.4 1.1-7.7-2-.8-1.9-1.5-2.3-3.5-1.3-3.9 2.1-8-.6-8-5 0-.7.1-1.3.3-2 1.3-4.2 1.4-4 5.6-2.8 8.4 2.4 16.8 4.5 25.3 6.5 1.8.5 2.6 1 2.4 2.5z"/><path fill="#7F8BF4" d="M334.7 410.6c-5-.3-5.3-.3-5.1-4.9.2-3.5-1.6-5.4-4.2-6.9-1.5-.8-1.5-1.7-.8-3.2 1.2-2.8 2-5.8 3-8.7 1.7-5.1 4.9-8.7 10-10.7 1.7-.6 2-.2 1.8 1.4-.2 1.6-.9 2.9-1.7 4.3-1.3 2.4-2.1 5.5-2.1 8.2 0 6.1.4 12.1.9 18.2.3 2 .1 2.9-1.8 2.3z"/><path fill="#F9F9F9" d="M575 399.6v11.7c0 1.2-.3 1.6-1.5 1.6-2.5-.1-5 0-7.5.1-1.3.1-1.5-.6-1.4-1.7.4-7.8.6-15.6 1.1-23.5 0-.6.9-1.5 1.5-1.5 2.6-.2 5.1-.1 7.7-.2.1 2.5.2 4.9.2 7.4 0 2.1 0 4.1-.1 6.1.1 0 .1 0 0 0z"/><path fill="#5D63A7" d="M244.5 403.2c-4.7-.5-9.7-.9-14.6-1.6-.6-.1-1.5-.9-1.7-1.5-.5-2-.7-4.1-1.1-6.1-.3-1.3 0-2.1 1.6-1.9 7.6.9 15.2 2 22.2 5.1 1.2.5 2.1 1.9 3.1 2.9-1.2.8-2.3 1.9-3.6 2.3-1.8.5-3.7.5-5.9.8z"/><path fill="#F6F6F6" d="M549.6 372.6c-3.7 0-7.3-.1-11 0-1.6 0-2-.5-1.8-2 .3-2 .2-4 .3-6 0-.9-.1-1.6 1.3-1 7.7 3 15.6 2.8 23.6 1.5 1.3-.2 1.5-.1 1.5 1.1.1 6.2.1 6.2-6.2 6.3h-7.7v.1zM501 372.6c-3.6 0-7.1-.1-10.7 0-2 .1-2.4-.6-2.2-2.4.3-2 .2-4 .5-6 0-.3.8-.7 1.1-.6 7.7 2.9 15.6 2.7 23.5 1.5 1.2-.2 1.5-.3 1.5 1.1.1 6.2.2 6.2-6 6.3H501v.1zM451.8 372.6c-3.7 0-7.5-.1-11.2 0-1.5 0-2.4-.3-2-2.1.1-.2 0-.5 0-.7.1-2 .3-4 .4-6 1.7.4 3.5.9 5.2 1.2 6.6 1 13.2 1.5 19.8.1.3-.1.8.4 1.1.8.1.1 0 .5 0 .7 0 5.8 0 5.9-5.9 5.9-2.4 0-4.9 0-7.4.1 0 0 0-.1 0 0z"/><path fill="#BC6567" d="M282.7 422.9h-14.5c-3.9 0-6.1-3.1-9-5-.2-.1-.2-.4-.3-.6.3-.1.6-.2.9-.2 2.3 0 4.7-.1 7-.1 6.1 0 12.2.2 18.2.1 4.8-.1 8.2 2.8 11.9 5.1.2.1.3.4.4.5-.4.1-.7.3-1.1.3h-13.7c.2 0 .2-.1.2-.1z"/><path fill="#28B28D" d="M311.6 401.2c-3.4 0-6.8-.1-10.2 0-1.5 0-1.8-.4-1.7-1.9.1-2.1.2-4.2-.2-6.2-.3-1.6.3-1.7 1.5-1.6 3.5.2 7 .3 10.5.5.8.1 1.6.4 2.2.9 3.1 2.2 6.2 4.5 9.2 6.8.4.3.6.7 1 1.1-.5.1-1 .4-1.5.4-3.7.1-7.3.1-10.8 0 0 .1 0 .1 0 0z"/><path fill="#F9F9F9" d="M455.1 363.6c-3.6-.3-6.5-.6-9.5-.9-1-.1-2.1-.2-2.9-.7-1.2-.8-2.1-1.9-3.2-2.8 1-.9 1.9-2.1 3.1-2.5 6.6-1.9 13.1-1.3 19.6.8.6.2 1.3.6 1.7 1 .6.7 1.5 1.7 1.4 2.3-.2.7-1.3 1.7-2.1 1.8-2.9.5-5.8.7-8.1 1zM551.7 363.6c-2.9-.4-6.6-.7-10.2-1.5-1.4-.3-2.6-1.8-3.8-2.8 1.2-1 2.3-2.5 3.7-2.8 6.4-1.6 12.7-1.2 18.9 1 1.3.5 2.2 2.1 3.3 3.3-1.4.8-2.8 2-4.3 2.3-2.2.4-4.5.3-7.6.5zM504.2 363.6c-3.2-.3-6.2-.5-9.2-.9-1.1-.1-2.4-.4-3.3-1-1-.6-1.8-1.7-2.7-2.6.9-.8 1.7-2 2.7-2.3 6.8-2.1 13.6-1.5 20.3.8.2.1.5.2.7.3.8.9 1.5 1.8 2.3 2.7-1 .7-1.9 1.9-3 2.2-2.7.5-5.4.5-7.8.8z"/><path fill="#D3CE98" d="M184.3 275.7c4-.1 5.3 1.1 6.3 4.3 3.2 9.8 9.1 17.6 17.4 23.7.3.2.6.3.8.6.5.4.9.9 1.3 1.3-.6-.1-1.3-.1-1.8-.3-5.8-2.5-10.9-6-15.1-10.7-4.3-4.8-7.5-10.4-9-16.7-.1-.8.1-1.6.1-2.2z"/><path fill="#BC6567" d="M255.1 427.1v-7.5c0-1.1.1-1.7 1.3-.8 2.3 1.8 4.7 3.4 7 5.2.4.3.8 1.1.8 1.6-.1 3.2-.3 6.3-.3 9.5 0 1.2-.5 1.5-1.7 1.5-7.2.2-7.2.2-7.1-6.8-.1-.9-.1-1.8 0-2.7-.1 0-.1 0 0 0z"/><path fill="#E8DF81" d="M330.1 412.6c4.5.5 9.2 1 13.9 1.6.9.1 1.8.4 2.6.7.5.2 1 .6 1.5.9-.5.3-1 .7-1.6.8-9.1 1.4-18.2 1.6-27.3.3-1.2-.2-2.3-1.2-3.5-1.9 1.3-.6 2.5-1.6 3.8-1.8 3.4-.4 6.9-.4 10.6-.6z"/><path fill="#ABABAB" d="M205.1 428.1c0 4 0 4.1-4 3.3-6.3-1.2-12.5-2.5-18.8-3.8-.4-.1-.8-.4-1.3-.7.4-.1.9-.2 1.3-.3 7-.8 14-1.5 21.1-2.3 1.4-.2 1.8.3 1.7 1.6v2.2zM352.1 426.3c-.1-4.7-.9-4.2 3.9-3.9 5 .4 10 1.2 15 1.9.5.1.9.4 1.3.6-.4.2-.8.6-1.3.7-5.8 1.6-11.5 3.1-17.3 4.6-1.2.3-1.9.1-1.7-1.4.2-.9.1-1.7.1-2.5z"/><path fill="#FAC324" d="M301.4 304.1h11.5c.5 0 1 .2 1.6.3-.2.6-.3 1.5-.7 1.7-1.4.6-2.9 1.4-4.4 1.4-5.7 0-11.5-.2-17.2-.5-.6 0-1.4-.1-1.9-.5-.8-.7-1.4-1.6-2.1-2.5.8-.1 1.7-.2 2.5-.2h10.7v.3z"/><path fill="#F6F6F6" d="M332.5 364.1c.4-1.6.6-3.6 1.2-5.5.4-1.2 1.6-1.6 2.1-.1 1.3 4.5 2.5 9.1 3.4 13.6.1.4-1.4 1.2-2.3 1.6-2.8 1.2-2.8 1.1-3.3-1.9-.5-2.4-.7-4.9-1.1-7.7z"/><path fill="#F1F2FB" d="M434.6 399.8v11.5c0 .6-.5 1.1-.7 1.7-.3-.5-.8-1-.8-1.5.2-7.8.5-15.6.9-23.4 0-.5.4-.9.6-1.4.2.5.5.9.5 1.4v11.7h-.5z"/><path fill="#D3CE98" d="M210.9 305.8c0 .1-.1.1-.1.2-.1-.1-.2-.1-.3-.2l.2-.2.2.2z"/><path fill="#FCF39D" d="M308.7 285c.1.1.1.3.2.4h-.6c.2-.1.3-.3.4-.4z"/><path fill="#060706" d="M237.8 276.7c4.9.4 9.4.7 13.9 1.2.8.1 1.5.9 2.2 1.4-.8.4-1.7 1.1-2.4 1-1.8-.3-2.1-.2-1.2 1.6 1.4 2.9.3 6.3-2.7 9.1-.3.3-.4.6-.6.9.3 0 .6.1 1 .1 1 .1 2 0 3 .3.6.2 1.1.9 1.7 1.4-.7.4-1.5 1-2.2 1-5.3-.2-10.6-.6-16-.9-2.1-.1-4.2-.1-6.2-.3-.6-.1-1.2-.8-1.8-1.2.6-.4 1.2-1.1 1.9-1.2 1.9-.1 3.8.1 5.7.1.2 0 .6-.8.5-.9-2.6-3.3-2.1-6.5.1-9.6.3-.4.5-.8.7-1.3-.5-.1-1.1-.2-1.6-.3-1.3-.3-3.7.8-3.7-1.3 0-2.2 2.3-1 3.7-1.2 1.4 0 2.9.1 4 .1zM347 293.8c-3.1-.2-6.1-.3-9.2-.6-.6-.1-1.2-.7-1.8-1.1.7-.4 1.4-1.3 2-1.2 1.9.1 1.5-.4 1.4-2-.2-2.1.7-4.2 1.2-6.3.1-.4.4-.7.6-1-.4-.1-.9-.1-1.3-.3-.9-.4-1.9-.8-2.8-1.2.9-.4 1.9-1.2 2.8-1.2 5.2 0 10.5.2 15.7.4.8 0 1.5.9 2.2 1.3-.7.4-1.5 1.1-2.1 1.1-1.8-.1-2.4.1-1.4 2 1.2 2.2.8 4.5-.7 6.6-.3.4-.5.8-.7 1.2.5.1.9.2 1.4.2.7.1 1.4-.1 2 .1.6.2 1 .9 1.5 1.3-.6.4-1.1 1.1-1.7 1.1-3 0-6-.3-9-.4-.1-.1-.1 0-.1 0z"/><path stroke="#858CDD" stroke-opacity=".1" d="M20.594 315.818c18.776 83.539 45.001 166.372 87.13 224.214 21.059 28.914 46.079 51.564 76.112 64.945 30.027 13.379 65.101 17.508 106.301 9.322 82.539-16.399 181.668-49.275 260.147-98.936C628.777 465.695 686.5 399.314 686.5 315.927c0-83.395-59.659-157.131-141.224-212.181-81.549-55.039-184.874-91.31-271.943-99.814C121.469-10.898 48.63 23.57 18.53 83.277 3.46 113.168-.94 149.455.89 189.215c1.831 39.757 9.89 82.941 19.704 126.603z"/></svg>