<svg xmlns="http://www.w3.org/2000/svg" id="Layer_1" x="0" y="0" version="1.1" viewBox="0 0 935 723.6" xml:space="preserve"><defs/><style>.st4{fill:#da6f6f}.st5{fill:#da7171}.st6{fill:#d96969}.st11{fill:#f2f3fc}.st13{fill:#ebb23d}.st18{fill:#fefefe}.st19{fill:#fbf2f2}.st22{fill:#35c58f}.st24{fill:#32c48e}.st25{fill:#30c38d}.st26{fill:#2ec38c}.st27{fill:#181817}.st28{fill:#f7fcfa}</style><path fill="#858cdd" fill-opacity=".05" d="M311.6 573.5c137.8 96.4 295.5 171.3 393.5 38.3 97.9-132.9 200.4-357.6 89.7-479-110.7-121.3-368.9-56.2-506.5 46.7-239.7 179.2-120.7 293.2 23.3 394z"/><path fill="#181818" d="M570.2 354.3c14.8 0 29.7.1 44.5.1 3.4 0 3.5-.1 3.5-3.6v-42.5-3.5c0-2.3 1.2-3.3 3.4-3.3h85.5c.7 0 1.3-.1 2 0 2.5.3 3.2-1 3-3.2-.1-2.5 0-5 0-7.5v-36.5c0-4.6.2-4.8 4.8-4.8h43c4 0 4-.1 4-4.1v-46c0-4.6.4-4.4-4.3-4.4h-59c-2.5 0-5-.1-7.5-.3-7.9-.8-13.1-6.2-13.5-14.1-.2-2.8-.2-5.7-.2-8.5v-116c0-2.3 0-4.7.2-7 .7-9.3 6-15 15.2-16.3 2.1-.3 4.3-.3 6.5-.3h159c10.1 0 15.9 4.6 17.8 14.5.5 2.6.8 5.3.8 7.9.1 41.2.1 82.3 0 123.5 0 9.4-5.2 15.3-14.6 16.4-2 .2-4 .2-6 .2h-49.5c-4.1 0-4.1.1-4.1 4.1v46.5c0 3.8.1 3.8 3.8 3.9H846c7.1 0 7.1 0 7.1 6.9v345.5c0 2.3-.2 4.7-.1 7 .1 1.8-.7 2.3-2.4 2.2-1.3-.1-2.7 0-4 0h-711c-1 0-2 .1-3 0-3.1-.3-3.8-.8-3.8-4-.1-16.3 0-32.7-.1-49 0-2.7 1.2-3.6 3.6-3.5h90.5c1.2 0 2.4.3 3.5-.1.9-.3 1.7-1.3 2-2.2.4-1 .1-2.3.1-3.5v-40c0-5 0-5 5-5.1h82c1.3 0 2.7.2 4-.1.7-.2 1.5-1 1.7-1.7.3-1.1.1-2.3.1-3.5v-37.5c0-1.3 0-2.7.1-4 .1-1.5.8-2.5 2.5-2.6 1.8-.1 3.7-.2 5.5-.2h86c1.2 0 2.3-.1 3.5 0 1.5.1 2.1-.6 2-2.1v-9.5-34c0-6.7 0-6.7 6.5-6.7 28.3.1 56.7.2 85 .2 6.4 0 5.5.9 5.6-5.5v-37c0-4.9.2-5 5.1-5.1h4c1.8-.1 3.6-.2 5.4-.4-.5-1.6-1.2-3.2-1.4-4.9-.5-5.3-2-10.1-5.5-14.2-2.7-3.2-5.9-4.1-9.6-2.2-.6.3-1 1.2-1.1 1.9-.4 2-.5 4-1 5.9-2.3 10.5-8.6 17.8-18.1 22.5-2.1 1-4 1.9-4.9 4.4-1 2.6-3.5 3.4-6.8 2.4-3-.9-6-2.2-8.6-3.8-4.3-2.8-8.6-5.7-12.3-9.3-3.8-3.6-4-7.5-.3-10.9.7-.7 1.4-1.5 1.8-2.4.8-2 1.5-4 2.2-6-1.9-.1-3.8-.3-5.7-.3-2.5 0-5 .3-7.5.1-3.9-.2-4.7-.9-4.7-4.9.1-7.2.3-14.3 1.2-21.4 1.8-15.3 5.9-30 12.3-44.1.6-1.4 1.5-2.5-.9-3.4-16-6.2-23.6-22.7-21.5-41.5 1.7-15.3 9.9-26.1 23-33.6 7-4 14.4-6.8 22.2-8.7 2.7-.7 4.6-1.2 4.8-4.8.2-4.1 3.2-6 7-4.6 2.1.8 2.9 0 4.1-1.1 2.9-2.7 6.2-4 9.9-1.4 1.5 1.1 2.4.1 3.6-.4 3.8-1.7 7.5-2.7 11.2.4.5.4 1.7.1 2.6-.1 2.6-.6 5.1-1.6 7.7-1.9 3.2-.3 5.9 1.1 7.5 4 1.5 2.9.5 5.5-1.2 7.9-1.9 2.8-1.9 2.9 1.2 4 6.5 2.4 12.3 5.8 17.5 10.4 1.9 1.7 3.8 2.5 6.3 2 4.3-.9 7.4 1.1 9.8 4.5 4.4 6.1 7.9 12.7 10.1 19.9.4 1.2.6 2.6.5 3.9-.2 2.2-1.4 4.1-3.8 3.6-2.8-.6-2.6.7-2.4 2.6.6 8-1.2 15.2-6.8 21.2-1.5 1.6-3.2 2.9-4.9 4.2-1.2.9-1.2 1.6-.4 2.8 10.1 15.1 14.8 32.2 17.9 49.9.5 2.8.6 5.6.9 8.4.3 3.6.3 3.7-3.3 4.7-3.4.9-6.8 1.6-10.2 2.4-1.7.4-2.5 1-2 3 1.5 5.5 1.9 11.1 1.1 16.8-.1.9.3 1.9.7 2.7 1.8 3.8 1.4 5.2-2.4 7.1-.7.4-1.5.6-2.3.9-1.4 1.4-3.5.9-5.1 1.8 1.9-.4 3.6-1.1 5.4-.1z"/><path fill="#d65f5f" d="M69.2 516.5c14.8-.6 28.6 11.5 28.4 28.3-.1 15-11.1 28.3-28.7 28.3-18.2 0-28.2-15.5-28.2-28.8.1-13.9 12.4-28.6 28.5-27.8z"/><path fill="#d96c6c" d="M25 600c-.8-1.7-1.3-2.8-1.9-4-.4-.7-.9-1.3-1.3-2-.4.6-.7 1.3-1.1 1.9-.8 1.2-1.6 2.3-2.4 3.5-.7-1.1-1.4-2.1-2-3.3-1.1-2.2-2.2-4.4-3.2-6.7-.2-.6.3-1.4.5-2.2.7.3 1.7.4 2.1.9.8 1.2 1.3 2.6 2 4 .2.4.6.8.9 1.2.2-.4.4-.9.6-1.3.8-1.6 1.6-3.2 2.4-4.9.9 1.5 1.8 2.9 2.7 4.4 1 1.7 1.5 1 2.2-.3.9-1.6 1.5-4.9 3.7-3.7 2.3 1.2-.3 3.4-.9 5-.7 2-1.8 3.9-2.8 5.8-.3.5-.8.9-1.5 1.7z"/><path d="M62.1 589.2c0-3-.1-6 .1-9 0-.5 1-1 1.5-1.6.5.5 1.3 1.1 1.3 1.6.1 2.8.1 5.7.1 8.5 0 .5.2.9.3 1.3.4-.2.9-.3 1.3-.5 1.1-.8 2-1.7 3.1-2.4.4-.2 1.2.2 1.8.3-.1.6 0 1.3-.4 1.7-3 3.8-3.1 3.8-.1 7.5.2.3.5.5.7.7.3.6.5 1.2.7 1.8-.8.1-1.8.6-2.4.3-1.1-.6-2-1.6-3-2.5-.5-.4-1-.8-1.4-1.2-.3.5-.7 1-.7 1.5-.2 1.2-.1 2.6-1.8 2.1-.6-.2-1.1-1.5-1.2-2.3 0-2.5.1-5.2.1-7.8z" class="st4"/><path d="M88.1 593c.2-2 .9-4.1 3.2-5.4 2-1.1 4.1-1.3 6.1.1 2.1 1.6 3.4 3.6 2.2 6.4-.6 1.5 1 3.6-1.4 4.5-1.4.5-2.7 1.4-4.1 1.4-3.2.2-5.9-3.2-6-7zM44 592.3c.1 4.9-1.9 7.9-5.3 8-3.3.1-6.5-3.2-6.5-6.8-.1-3.6 2.5-6.5 6-6.6 3-.2 5.7 2.3 5.8 5.4z" class="st5"/><path d="M59.2 593.3c-.2 6.4-.2 6.3-6.5 6.5-2.4.1-4.4-.7-5.4-2.8-1.2-2.5-1.5-5.1.4-7.5 1.5-1.9 3.3-3.3 6-2.2.2.1.3.2.5.2 1.4.2 3.7-.1 4.1.6.9 1.4.7 3.4.9 5.2zM75 593.7v-.5c0-5.7.7-6.4 6.2-6.3 1.9 0 4.1 1.8 4.4 4 .3 2.3.2 4.6 0 6.9-.1.6-1.2 1.2-1.8 1.7-.5-.7-1.4-1.3-1.5-2.1-.2-1.8.1-3.7-.2-5.4-.1-.9-1.2-1.6-1.8-2.4-.8.7-2 1.3-2.2 2.2-.4 1.6 0 3.3-.3 4.9-.1.9-.8 2.5-1.3 2.6-2.2.3-1.5-1.6-1.6-2.8 0-.8.1-1.8.1-2.8z" class="st6"/><path d="M120 588.9c-.1.3-.1.8-.2.9-4.9 1.9.1 2.4.5 3.6.4 1.2 1 2.4.9 3.5-.2 2.1-2.1 3.2-3.9 3.1-1.3 0-2.6-1.2-3.9-1.8.4-.7.7-1.8 1.3-2.1.6-.2 1.5.4 2.3.6.2.1.8-.2.8-.4.1-.4.1-1.1-.2-1.3-1.1-.8-2.4-1.3-3.3-2.1-1.5-1.3-1.3-3.3.2-4.8 1.6-1.6 3.9-1.7 5.3-.1 0 .2.1.6.2.9zM105.9 599.7c-.3 0-1.1 0-1.5-.3-.6-.6-1-1.5-1.5-2.3.8-.3 1.5-.6 2.3-.7.4-.1.9.3 1.4.4.3 0 .8-.2.8-.3 0-.4 0-1-.2-1.2-.9-.7-2-1.2-2.9-1.9-1.7-1.4-1.9-3.1-.6-4.8 1.3-1.8 3.3-2.1 5.2-.8.5.3.7 1 1 1.6-.6.4-1.3.9-2 1.1-.5.2-1.1 0-1.7-.1.4.5.7 1 1.1 1.4.4.3.8.5 1.3.7 1.9.8 2.8 2.3 2.3 4.4-.5 2-2 2.9-5 2.8z" class="st4"/><path fill="#a8a8a8" d="M570.2 354.3c-1.8.1-3.5.2-5.3.2-.4 0-.9-.1-1.3-.2.4-.2.8-.4 1.3-.5 1.7-.4 3.4-.7 5.2-1.1 0 .5 0 1.1.1 1.6z"/><path fill="#daddf2" d="M490.9 607.8h-353c-6.9 0-5.9.9-5.9-5.7-.1-13.2 0-26.3 0-39.5 0-6-.8-5.1 5.4-5.1h87c1.2 0 2.3-.1 3.5 0 2.4.2 3.3-1.3 3.6-3.3.2-1.3.1-2.7.1-4v-38c0-5.7 0-5.7 5.9-5.7H320c4.3-.1 4.4-.1 4.4-4.6v-40c0-4.9 0-4.9 5-4.9h88.5c7.2 0 6.1-.2 6.1-6.3v-42c0-4 0-4 4.1-4l86 .3c7.1 0 7.1 0 7.1-7v-36c0-4.6-.4-4.7 4.6-4.6h86.5c1.8 0 3.7-.1 5.5 0 2.4.2 3.3-1 3.3-3.3v-4-41c0-4.6-.5-4.7 4.6-4.7h81.5c7.7 0 7.7 0 7.7-7.5v-40.5c0-4.2-.4-4 4.1-4 30 0 60 .1 90 .1 12.5 0 25-.1 37.5-.1 3.4 0 3.4.1 3.5 3.6v345.5c0 6.3 0 6.3-6.3 6.3H490.9z"/><path fill="#fcfdfd" d="M778.9 191.8h-77.5c-2.7 0-5.3 0-8-.3-6.4-.7-10.3-4.7-10.7-11-.2-2.7-.2-5.3-.2-8V53c0-1.2 0-2.3.1-3.5 1-9.1 5.4-13.4 14.5-14.1 1.8-.1 3.7-.1 5.5-.1h157c10 0 14.3 3.5 16.1 13.3.3 2 .4 4 .4 6 0 41.2.1 82.3.1 123.5 0 8.3-4.3 13-12.6 13.7-1.7.1-3.3.1-5 .1-26.7-.1-53.2-.1-79.7-.1z"/><path fill="#fcf39d" d="M573 211.6c.3 0 .8-.1.9 0 3.3 7.7 6.1 15.5 4.6 24.1-1.9 10.7-9 16.8-18.9 19.8-4.9 1.5-10 2.2-15.1 2.9-22.1 3-44.3 5.3-66.7 5.3-10.9 0-20.7-3.6-27.6-12.6-6.7-8.7-7.9-18.8-6.8-29.4 1.7-15.2 10.5-25.1 23.5-32 10.9-5.7 22.5-9 34.8-9.8 12.8-.8 25.6-.5 38 3.4 6.1 1.9 11.7 4.8 16.8 8.5.9.6 1.6 1.6 2.3 2.4-1.1.3-2.2.7-3.3.9-7.9 1.8-16 3.3-23.7 5.6-4.7 1.4-9.1 4-13.3 6.6-3.5 2.1-5.5 5.7-6.1 9.9-.5 3.2.8 6.1 3.1 7.3 2.1 1.1 4.8.6 7.2-1.7 1.1-1 2.1-2.2 2.8-3.5 2-3.7 5.2-5.7 9.1-6.4 8.3-1.6 16.7-3 25-4.4 3.3-.5 6.6-.8 9.9-.9 3.2-.1 3.2 0 3.7 4-1 .5-1.9 0-2.9-.2-1.1-.2-2 0-2.4 1.1-.3.9 0 1.7.9 2.1 1 .5 1.9.2 2.6-.7.5-.7.8-1.6 1.6-2.3z"/><path d="M452 325.6c.8-19.1 4.8-38.1 12.7-56.1 1.9-4.3 2-4.2 6.6-3.4 2.1.4 4.3.6 6.5.5 23.3-.3 46.6-2.2 69.6-5.9 5.6-.9 11-2.2 16.5-3.7 1.7-.5 2.5.1 3.2 1.2 1.4 2.3 2.8 4.5 4.1 6.8 8 14.9 12.1 30.9 13.9 47.6.4 3.8.2 3.9-3.3 4.7-20.2 4.8-40.7 8.3-61.3 11.3-20.8 3-41.7 4.4-62.6 5.5h-1.5c-4.1 0-4.2-.1-4.3-4.1-.1-1.2-.1-2.5-.1-4.4z" class="st11"/><path fill="#c6c6c6" d="M801.8 222.1v23.5c0 3.5-.1 3.6-3.6 3.6-9.3.1-18.6.1-27.9.3-2.5 0-3.5-.5-3.4-3.3.1-15.8 0-31.6.1-47.4 0-3.7.1-3.8 3.8-3.8h27.5c3.5 0 3.5.1 3.6 3.7-.1 7.8-.1 15.6-.1 23.4z"/><path d="M511.8 336.1c-1.3 10.9-7.1 19.1-17.2 24.1-2.5 1.3-5.2 2-6.1 5.3-.2.7-2.6 1.5-3.7 1.2-7.7-2.5-14.4-6.7-19.9-12.7-1.7-1.9-2.2-3.8 0-6.1 1.6-1.6 3.3-3.7 3.7-5.8.8-5 3.8-6 8.1-6.1 5.6-.2 11.2-.8 16.9-1.3 5.1-.5 10.2-1.1 15.3-1.7 2.9-.3 3.2-.1 2.9 3.1zM545.8 352.5c-2.2 0-4.3.2-6.5 0-3.3-.3-4.9-1.8-5.2-5-.5-5.3-2.4-10-5.7-14.1-1.4-1.7-1.7-2.5 1.1-2.9 9.3-1.4 18.6-3.1 27.9-4.8 3.1-.5 6.2-1.3 9.2-1.9 1.9-.4 3.3-.2 3.4 2.2.3 4.4.8 8.8 1.1 13.3.2 2.5-1.2 5.3 1.3 7.5.1.1-.5 1.9-1.1 2-3.3 1-6.7 2-10.1 2.5-5.1.7-10.2 1-15.4 1.5v-.3z" class="st13"/><path fill="#676e83" d="M568.8 196.8c2.8 0 6.8 2.9 7.6 5.7.1.3-.4 1.2-.7 1.3-1.6.4-3.2.8-4.9.9-12.2.5-24.3 2.5-36.2 5.2-5 1.1-9.3 3.3-11.8 8.2-.6 1.1-1.5 2.3-2.6 2.9-1 .6-2.8 1-3.5.4-.8-.5-1.3-2.3-1.2-3.4.4-3.2 2.1-6 4.7-7.9 2.4-1.7 5-3.4 7.7-4.4 11.8-4.3 24-7.2 36.6-8.1 1.5-.2 2.9-.6 4.3-.8z"/><path fill="#8e94d9" d="M495.1 177.7c-.2-.1-1.7-.4-1.9-1.1-.2-.9.1-2.5.8-3.1.6-.5 2.4-.5 3 0 2.4 2.3 3.7 1.4 5.5-1 2.8-3.8 4.5-3.8 8.2-.7.5.5 1.8.5 2.5.2 1.6-.8 3-2.1 4.7-2.8 2.4-1 4.9-1.2 6.6 1.4 1.2 1.9 2.6 1.8 4.1.5 2.4-2 5.3-3.1 8.3-2.5 1.6.3 3.5 1.5 4.2 2.8.5 1-.3 3.2-1.1 4.4-1.7 2.6-3.8 3.7-7.4 2.8-11.1-2.7-22.3-2.7-33.6-1.3-1 .2-2 .2-3.9.4z"/><path fill="#b7b7b7" d="M585.3 221.2c-.3.4-.6 1-1 1.3-.2.1-1-.2-1.2-.6-2.4-4.4-4.7-8.7-7-13.2-.2-.4.2-1.4.5-1.6 1.3-.5 2.7-.6 3.4 1 1.4 3.2 2.8 6.3 4.2 9.5.4 1.1.7 2.2 1.1 3.6z"/><path fill="#fdfafa" d="M68.7 549.3c-.8.5-1.5 1-2 1.5-1.3 1.2-2.6 2.5-3.9 3.8-1.4 1.3-3 1-3.9-.2-.6-.9-.8-2.7-.3-3.6 1.1-1.8 2.8-3.2 4.4-4.7 1.1-1 1.1-1.9 0-2.9-1.2-1.1-2.7-2.2-3.4-3.6-.5-1.1-.5-3 .2-4 .9-1.5 2.6-1.1 3.9 0 1.6 1.4 3.3 3.9 4.9 3.9 1.6 0 3.3-2.5 4.9-3.8 1.6-1.4 3.3-1.6 4.8 0 1.5 1.7.3 3-.8 4.4-1.4 1.6-3.8 3.3-3.7 4.8.1 1.7 2.6 3.2 4.1 4.8.4.5.9 1 1.3 1.5 1 1.3.8 2.7-.4 3.5-1 .6-2.7 1-3.5.5-1.7-1-3-2.6-4.4-4-.8-.8-1.4-1.3-2.2-1.9z"/><path d="M94.6 594.2c.9.3 1.6.6 2.2.9-.9.6-1.7 1.4-2.6 1.6-.6.1-1.4-.9-2.1-1.4.8-.3 1.7-.7 2.5-1.1z" class="st18"/><path d="M94.3 591.9c-.7-.3-1.3-.6-2-.9.6-.4 1.3-1.3 1.8-1.2.8.1 1.5.8 2.3 1.3-.6.2-1.3.5-2.1.8z" class="st19"/><path d="M38.7 594c.9.7 1.6 1.2 2.2 1.7-.8.4-1.6 1.1-2.4 1.1-.8 0-1.6-.7-2.3-1.1.7-.6 1.5-1.1 2.5-1.7z" class="st18"/><path d="M38.5 591.9c-.7-.3-1.4-.5-2.1-.8.6-.5 1.2-1.3 1.8-1.3.8.1 1.6.8 2.3 1.3-.7.2-1.3.5-2 .8zM53.2 589.7c1.9.2 2.8 1.5 2.9 3.6 0 2.2-1.5 4.2-3.2 4.1-2 0-3.2-1.7-3-4.2 0-2.4 1.1-3.6 3.3-3.5z" class="st19"/><path fill="#28c188" d="M818.2 93.7c.7 18.6-13.8 37.4-37 37.7-20 .2-37.5-14.4-37.7-37.1-.2-24.6 20-37.7 37.1-37.7 22.2-.2 38.3 18.7 37.6 37.1z"/><path fill="#31c48d" d="M700 158.3v-10c0-1.3.2-2.4 1.8-2.4 3.5.1 7 .2 10.4.5 3.2.3 5 2.6 5.6 5.6.6 2.9.2 5.9-2.7 7.4-2.3 1.3-1.7 2.2-.4 3.6.9 1 1.7 2.1 2.4 3.2.8 1.3 1.9 2.6 2.2 4.1.1.7-6.9 0-7.8-1.1-1.2-1.6-2.1-3.4-3.2-5-.3-.4-.7-.7-1-1-.2.5-.5 1.1-.6 1.6-.1.8-.1 1.7 0 2.5.4 2.7-.8 3.4-3.4 3.4-2.6 0-3.6-.8-3.4-3.4.3-3 .1-6 .1-9z"/><path d="M809.2 161.9v-4.5c.1-3.6.2-3.8 3.6-3.6 2.4.2 4.7.3 7.2 0 4.4-.6 6.9 1.8 7 6.2.1 2.7-.1 5.3.1 8 .1 2.3-1 2.7-3 2.7s-3.2-.3-3-2.7c.1-2.1 0-4.3 0-6.5 0-1.7-.7-2.9-2.6-2.9-1.9 0-2.6 1.2-2.7 2.9-.1 2.3 0 4.7 0 7 0 2.8-2 2-3.6 2.1-1.6.1-3 0-2.9-2.3 0-2.1-.1-4.3-.1-6.4z" class="st22"/><path fill="#34c48f" d="M730.3 153.5c5.5.1 8.4 2.5 9.2 7.6.3 1.8-.4 2.4-2.1 2.4-2.5 0-5-.1-7.5 0-.7 0-1.3.6-2 .9.6.7 1 1.6 1.7 2.1.4.3 1.3.2 1.9.1.6-.1 1.2-.7 1.8-.7 1.8-.1 3.5 0 5.3.1-1.2 1.5-2.1 3.4-3.6 4.3-3.7 2.1-9.3.8-11.9-2.2-2.5-2.9-2.7-7.1-.6-10.7 1.9-3.2 4.8-4 7.8-3.9z"/><path d="M797.6 153.5c4.9.1 8.2 3 8.5 7.2.1 1.9-.4 2.8-2.4 2.7-2.7-.1-5.3 0-8 0-.4 0-1.2.4-1.2.5.1.6.2 1.6.6 1.7 1.3.4 2.8.7 4.1.6 1.6-.1 3.2-.7 4.8-.9.5-.1 1.5.3 1.6.7.1.5-.3 1.3-.6 1.8-2.5 3.4-7.4 4.3-11.7 2.3-4-1.9-6-5.9-4.9-10.3.8-4.1 4.1-6.4 9.2-6.3zM855.6 153.5c4.9.1 8.2 3 8.5 7.2.1 1.9-.4 2.8-2.4 2.7-2.7-.1-5.3 0-8 0-.4 0-1.3.4-1.3.5.1.6.2 1.6.6 1.8 1.3.4 2.7.8 4.1.7 1.6-.1 3.2-.7 4.8-.9.5-.1 1.1.4 1.7.6-.2.6-.3 1.3-.7 1.8-2.5 3.4-7.4 4.4-11.7 2.4-4-1.9-6-5.9-5-10.3 1-4.3 4.3-6.6 9.4-6.5z" class="st24"/><path d="M750.6 153.5c1.1.1 1.8 0 2.4.2.8.4 2.1 1 2.1 1.5.1 1.3-.5 2.7-2.3 2.5-.3 0-.7-.1-1-.1-.8.3-1.7.6-2.5.9.8.4 1.5 1 2.3 1.3 2.5.8 4.7 2 4.9 4.9.2 2.8-1.5 5.2-5 5.9-2.3.5-4.9.1-7.2-.3-.7-.1-1.8-1.6-1.7-2.3.3-1.3.9-3 3.1-2.3 1.4.5 3 1.9 4.3-.2-1.2-.7-2.3-1.5-3.6-2-2-.9-3.4-2.2-3.3-4.5.1-2.7 1.7-4.3 4-5.2 1.2-.4 2.6-.2 3.5-.3z" class="st25"/><path d="M775 157c0 3.6-.1 7.3 0 10.9.1 2.3-1 2.7-3 2.7-1.9 0-3.1-.3-3-2.7.1-7.3.1-14.6 0-21.9 0-2.6 1.6-2.4 3.3-2.4 1.7 0 2.8.2 2.8 2.4-.2 3.7-.1 7.4-.1 11z" class="st26"/><path d="M839.5 171.3c-5.4-.1-9.8-5-9.3-9.9.6-5.1 5.7-8.6 10.9-7.8 1.8.3 2.5 1.2 2.6 3 0 1.9-1 2.1-2.6 2-1.7-.2-3.4.1-4.1 2-.9 2.5 0 5.6 3.7 5.4 1.2-.1 2.8-1 3 1.3.2 2.3-.9 3.4-3 3.8-.5 0-.9.1-1.2.2z" class="st25"/><path d="M765.1 162.7v4.5c-.1 3.4-.4 3.7-3.7 3.5-1.7-.1-2.3-.7-2.3-2.4.1-4 .1-8 0-12-.1-2.5 1.4-2.5 3.2-2.5 1.8 0 2.9.4 2.8 2.4-.1 2.1 0 4.3 0 6.5z" class="st22"/><path d="M779 161.7v-4.5c.1-3.4.9-4.1 4.2-3.4.7.2 1.7 1.2 1.7 1.8.2 4.3.1 8.7.1 13 0 2.5-1.8 1.9-3.2 1.9-1.3.1-2.8.2-2.8-1.9v-6.9zM762.5 143.3c1.4 2 2.8 3.1 3 4.4.2 1.7-1 3.1-3.1 3.1s-3.8-1.5-3.2-3.4c.3-1.3 1.7-2.3 3.3-4.1z" class="st25"/><path d="M781.7 150.8c-2-.3-3-1.4-2.8-3.4.1-2 1.4-3 3.3-2.9 2 .1 3 1.4 2.9 3.3-.2 2.1-1.4 2.9-3.4 3z" class="st26"/><path d="M573 211.6c0 .8.1 1.7-.1 2.5-.6 2.3-2.6 3.3-4.5 2.6-1.8-.6-2.9-3.2-2.2-5 .7-1.9 2.7-2.5 5-1.4.7.4 1.3.9 2 1.4l-.2-.1zM536.2 310.1c-1.1.2-2.2.4-3.2.7-4.1 1.3-7.1.5-8.7-3.2-1.1-2.6-2.9-3.8-5.1-5-4.5-2.5-7.6-6.4-10.1-10.8-1.5-2.7-2.9-5.6-4.1-8.5-.2-.4.3-1.2.4-1.8.7.2 1.8.2 2.1.7 1 1.7 1.8 3.6 2.7 5.3.8 1.5 1.5 3 2.4 4.4 6.7 9.7 11.5 11.3 22 8.9 3.7-.9 7.3-2.2 10.6-4.1 5.4-3.1 6.7-7.1 4.9-13.1-1-3.2-2.1-6.3-3-9.5-.2-.7.5-1.7.8-2.5.7.5 1.7 1 1.9 1.7 1.2 3.4 2.3 6.9 3.3 10.4.4 1.4.8 3 .6 4.4-.6 4.1-1.7 8.1-1 12.5.4 2.8-2.2 4.9-4.8 5.8-2.2.8-4.1 1.8-6.1 3.1-1.5 1-3.7 1.1-5.6 1.6.2-.4.1-.7 0-1z" class="st27"/><path d="M762.2 89.9c1 .5 2.1.8 3 1.5 1.8 1.4 3.6 3 5.3 4.5 3.6 3.3 3.6 3.3 7 .1 4.9-4.7 9.8-9.5 14.8-14.1 1.3-1.1 3.1-2.1 4.7-2.3 3.6-.3 5.7 3.2 4.1 6.4-.6 1.2-1.5 2.2-2.4 3.1-6.4 6.3-12.9 12.5-19.4 18.7-3.7 3.5-5.8 3.6-9.5.5s-7.3-6.3-10.6-9.8c-3.2-3.3-2.3-7 1.6-8.3.3 0 .8-.2 1.4-.3zM708.2 151c1.8.5 3.2 1.1 3.1 3.3-.1 1.9-1.2 2.5-2.9 2.6-2.4.1-2-1.6-2-3.1-.1-1.4 0-2.7 1.8-2.8zM730 159.7c-.2-.1-1-.6-1.9-1 1-.4 1.9-.8 2.9-1.2.3-.1.7 0 1 .2.5.4.9.9 1.4 1.3-.5.2-1 .5-1.5.7-.3.1-.6 0-1.9 0z" class="st28"/><path d="M797.3 160c-.8-.4-1.5-.8-2.2-1.2.8-.4 1.6-1.3 2.3-1.2.9.1 1.7.9 2.6 1.4-.9.3-1.7.6-2.7 1zM855.5 160c-.9-.4-1.7-.8-2.4-1.1.7-.5 1.5-1.4 2.2-1.3.9.1 1.8.8 2.7 1.3-.9.3-1.6.7-2.5 1.1z" class="st11"/><path fill="#ede493" d="M537.6 308c-2.3-1.5-4-1.4-6 .2-1.5 1.2-3.2.3-4.2-1.3-.8-1.2-.8-2.1 1.1-2.2 7.3-.3 14-2.3 20.1-6.5 1.5-1 1.6.2 1.6 1.2 0 2.3-1.5 3.8-3.5 4.3-2.2.4-4 1-5.5 2.8-.9.8-2.5 1-3.6 1.5z"/></svg>