<svg width="536" height="479" viewBox="0 0 536 479" fill="none" xmlns="http://www.w3.org/2000/svg">
<path d="M153.542 355.48C153.094 356.909 152.64 358.232 152.182 359.448C151.723 360.664 151.264 361.848 150.806 363H149.254C148.688 361.368 148.187 359.645 147.75 357.832C147.323 356.019 146.923 354.045 146.55 351.912H148.182C148.331 352.744 148.486 353.576 148.646 354.408C148.806 355.24 148.971 356.051 149.142 356.84C149.312 357.619 149.483 358.365 149.654 359.08C149.824 359.795 150 360.456 150.182 361.064C150.608 359.944 151.062 358.717 151.542 357.384C152.022 356.04 152.47 354.653 152.886 353.224H154.23C154.646 354.653 155.099 356.04 155.59 357.384C156.08 358.717 156.539 359.944 156.966 361.064C157.136 360.467 157.307 359.811 157.478 359.096C157.648 358.381 157.814 357.635 157.974 356.856C158.144 356.067 158.31 355.256 158.47 354.424C158.63 353.581 158.784 352.744 158.934 351.912H160.518C160.134 354.045 159.723 356.019 159.286 357.832C158.859 359.645 158.368 361.368 157.814 363H156.262C155.792 361.848 155.334 360.664 154.886 359.448C154.438 358.232 153.99 356.909 153.542 355.48ZM161.418 358.856C161.418 358.12 161.524 357.48 161.738 356.936C161.951 356.381 162.234 355.923 162.586 355.56C162.938 355.197 163.343 354.925 163.802 354.744C164.26 354.563 164.73 354.472 165.21 354.472C166.33 354.472 167.188 354.824 167.786 355.528C168.383 356.221 168.682 357.283 168.682 358.712C168.682 358.776 168.682 358.861 168.682 358.968C168.682 359.064 168.676 359.155 168.666 359.24H162.97C163.034 360.104 163.284 360.76 163.722 361.208C164.159 361.656 164.842 361.88 165.77 361.88C166.292 361.88 166.73 361.837 167.082 361.752C167.444 361.656 167.716 361.565 167.898 361.48L168.106 362.728C167.924 362.824 167.604 362.925 167.146 363.032C166.698 363.139 166.186 363.192 165.61 363.192C164.884 363.192 164.255 363.085 163.722 362.872C163.199 362.648 162.767 362.344 162.426 361.96C162.084 361.576 161.828 361.123 161.658 360.6C161.498 360.067 161.418 359.485 161.418 358.856ZM167.13 358.04C167.14 357.368 166.97 356.819 166.618 356.392C166.276 355.955 165.802 355.736 165.194 355.736C164.852 355.736 164.548 355.805 164.282 355.944C164.026 356.072 163.807 356.243 163.626 356.456C163.444 356.669 163.3 356.915 163.194 357.192C163.098 357.469 163.034 357.752 163.002 358.04H167.13ZM177.338 361.928C177.69 361.928 178 361.923 178.266 361.912C178.544 361.891 178.773 361.859 178.954 361.816V359.336C178.848 359.283 178.672 359.24 178.426 359.208C178.192 359.165 177.904 359.144 177.562 359.144C177.338 359.144 177.098 359.16 176.842 359.192C176.597 359.224 176.368 359.293 176.154 359.4C175.952 359.496 175.781 359.635 175.642 359.816C175.504 359.987 175.434 360.216 175.434 360.504C175.434 361.037 175.605 361.411 175.946 361.624C176.288 361.827 176.752 361.928 177.338 361.928ZM177.21 354.472C177.808 354.472 178.309 354.552 178.714 354.712C179.13 354.861 179.461 355.08 179.706 355.368C179.962 355.645 180.144 355.981 180.25 356.376C180.357 356.76 180.41 357.187 180.41 357.656V362.856C180.282 362.877 180.101 362.909 179.866 362.952C179.642 362.984 179.386 363.016 179.098 363.048C178.81 363.08 178.496 363.107 178.154 363.128C177.824 363.16 177.493 363.176 177.162 363.176C176.693 363.176 176.261 363.128 175.866 363.032C175.472 362.936 175.13 362.787 174.842 362.584C174.554 362.371 174.33 362.093 174.17 361.752C174.01 361.411 173.93 361 173.93 360.52C173.93 360.061 174.021 359.667 174.202 359.336C174.394 359.005 174.65 358.739 174.97 358.536C175.29 358.333 175.664 358.184 176.09 358.088C176.517 357.992 176.965 357.944 177.434 357.944C177.584 357.944 177.738 357.955 177.898 357.976C178.058 357.987 178.208 358.008 178.346 358.04C178.496 358.061 178.624 358.083 178.73 358.104C178.837 358.125 178.912 358.141 178.954 358.152V357.736C178.954 357.491 178.928 357.251 178.874 357.016C178.821 356.771 178.725 356.557 178.586 356.376C178.448 356.184 178.256 356.035 178.01 355.928C177.776 355.811 177.466 355.752 177.082 355.752C176.592 355.752 176.16 355.789 175.786 355.864C175.424 355.928 175.152 355.997 174.97 356.072L174.794 354.84C174.986 354.755 175.306 354.675 175.754 354.6C176.202 354.515 176.688 354.472 177.21 354.472ZM185.954 354.504C186.082 354.504 186.226 354.515 186.386 354.536C186.556 354.547 186.722 354.568 186.882 354.6C187.042 354.621 187.186 354.648 187.314 354.68C187.452 354.701 187.554 354.723 187.618 354.744L187.362 356.04C187.244 355.997 187.047 355.949 186.77 355.896C186.503 355.832 186.156 355.8 185.73 355.8C185.452 355.8 185.175 355.832 184.898 355.896C184.631 355.949 184.455 355.987 184.37 356.008V363H182.882V355.032C183.234 354.904 183.671 354.787 184.194 354.68C184.716 354.563 185.303 354.504 185.954 354.504ZM188.589 358.856C188.589 358.12 188.696 357.48 188.909 356.936C189.123 356.381 189.405 355.923 189.757 355.56C190.109 355.197 190.515 354.925 190.973 354.744C191.432 354.563 191.901 354.472 192.381 354.472C193.501 354.472 194.36 354.824 194.957 355.528C195.555 356.221 195.853 357.283 195.853 358.712C195.853 358.776 195.853 358.861 195.853 358.968C195.853 359.064 195.848 359.155 195.837 359.24H190.141C190.205 360.104 190.456 360.76 190.893 361.208C191.331 361.656 192.013 361.88 192.941 361.88C193.464 361.88 193.901 361.837 194.253 361.752C194.616 361.656 194.888 361.565 195.069 361.48L195.277 362.728C195.096 362.824 194.776 362.925 194.317 363.032C193.869 363.139 193.357 363.192 192.781 363.192C192.056 363.192 191.427 363.085 190.893 362.872C190.371 362.648 189.939 362.344 189.597 361.96C189.256 361.576 189 361.123 188.829 360.6C188.669 360.067 188.589 359.485 188.589 358.856ZM194.301 358.04C194.312 357.368 194.141 356.819 193.789 356.392C193.448 355.955 192.973 355.736 192.365 355.736C192.024 355.736 191.72 355.805 191.453 355.944C191.197 356.072 190.979 356.243 190.797 356.456C190.616 356.669 190.472 356.915 190.365 357.192C190.269 357.469 190.205 357.752 190.173 358.04H194.301ZM204.51 361.928C204.862 361.928 205.171 361.923 205.438 361.912C205.715 361.891 205.945 361.859 206.126 361.816V359.336C206.019 359.283 205.843 359.24 205.598 359.208C205.363 359.165 205.075 359.144 204.734 359.144C204.51 359.144 204.27 359.16 204.014 359.192C203.769 359.224 203.539 359.293 203.326 359.4C203.123 359.496 202.953 359.635 202.814 359.816C202.675 359.987 202.606 360.216 202.606 360.504C202.606 361.037 202.777 361.411 203.118 361.624C203.459 361.827 203.923 361.928 204.51 361.928ZM204.382 354.472C204.979 354.472 205.481 354.552 205.886 354.712C206.302 354.861 206.633 355.08 206.878 355.368C207.134 355.645 207.315 355.981 207.422 356.376C207.529 356.76 207.582 357.187 207.582 357.656V362.856C207.454 362.877 207.273 362.909 207.038 362.952C206.814 362.984 206.558 363.016 206.27 363.048C205.982 363.08 205.667 363.107 205.326 363.128C204.995 363.16 204.665 363.176 204.334 363.176C203.865 363.176 203.433 363.128 203.038 363.032C202.643 362.936 202.302 362.787 202.014 362.584C201.726 362.371 201.502 362.093 201.342 361.752C201.182 361.411 201.102 361 201.102 360.52C201.102 360.061 201.193 359.667 201.374 359.336C201.566 359.005 201.822 358.739 202.142 358.536C202.462 358.333 202.835 358.184 203.262 358.088C203.689 357.992 204.137 357.944 204.606 357.944C204.755 357.944 204.91 357.955 205.07 357.976C205.23 357.987 205.379 358.008 205.518 358.04C205.667 358.061 205.795 358.083 205.902 358.104C206.009 358.125 206.083 358.141 206.126 358.152V357.736C206.126 357.491 206.099 357.251 206.046 357.016C205.993 356.771 205.897 356.557 205.758 356.376C205.619 356.184 205.427 356.035 205.182 355.928C204.947 355.811 204.638 355.752 204.254 355.752C203.763 355.752 203.331 355.789 202.958 355.864C202.595 355.928 202.323 355.997 202.142 356.072L201.966 354.84C202.158 354.755 202.478 354.675 202.926 354.6C203.374 354.515 203.859 354.472 204.382 354.472ZM218.621 363.24C217.842 363.24 217.133 363.112 216.493 362.856C215.853 362.6 215.303 362.227 214.845 361.736C214.386 361.245 214.029 360.643 213.773 359.928C213.527 359.203 213.405 358.376 213.405 357.448C213.405 356.52 213.543 355.699 213.821 354.984C214.109 354.259 214.493 353.651 214.973 353.16C215.453 352.669 216.013 352.296 216.653 352.04C217.293 351.784 217.975 351.656 218.701 351.656C219.159 351.656 219.57 351.688 219.933 351.752C220.306 351.816 220.626 351.891 220.893 351.976C221.17 352.061 221.394 352.147 221.565 352.232C221.735 352.317 221.853 352.381 221.917 352.424L221.469 353.704C221.373 353.64 221.234 353.571 221.053 353.496C220.871 353.421 220.663 353.347 220.429 353.272C220.205 353.197 219.954 353.139 219.677 353.096C219.41 353.043 219.138 353.016 218.861 353.016C218.274 353.016 217.746 353.117 217.277 353.32C216.807 353.523 216.407 353.816 216.077 354.2C215.746 354.584 215.49 355.053 215.309 355.608C215.138 356.152 215.053 356.765 215.053 357.448C215.053 358.109 215.127 358.712 215.277 359.256C215.437 359.8 215.671 360.269 215.981 360.664C216.29 361.048 216.674 361.347 217.133 361.56C217.602 361.773 218.146 361.88 218.765 361.88C219.479 361.88 220.071 361.805 220.541 361.656C221.01 361.507 221.362 361.373 221.597 361.256L221.997 362.536C221.922 362.589 221.789 362.659 221.597 362.744C221.405 362.819 221.165 362.893 220.877 362.968C220.589 363.043 220.253 363.107 219.869 363.16C219.485 363.213 219.069 363.24 218.621 363.24ZM226.174 363.16C225.257 363.139 224.606 362.941 224.222 362.568C223.838 362.195 223.646 361.613 223.646 360.824V350.84L225.134 350.584V360.584C225.134 360.829 225.156 361.032 225.198 361.192C225.241 361.352 225.31 361.48 225.406 361.576C225.502 361.672 225.63 361.747 225.79 361.8C225.95 361.843 226.148 361.88 226.382 361.912L226.174 363.16ZM235.397 358.84C235.397 359.501 235.301 360.099 235.109 360.632C234.917 361.165 234.645 361.624 234.293 362.008C233.952 362.392 233.541 362.691 233.061 362.904C232.581 363.107 232.059 363.208 231.493 363.208C230.928 363.208 230.405 363.107 229.925 362.904C229.445 362.691 229.029 362.392 228.677 362.008C228.336 361.624 228.069 361.165 227.877 360.632C227.685 360.099 227.589 359.501 227.589 358.84C227.589 358.189 227.685 357.597 227.877 357.064C228.069 356.52 228.336 356.056 228.677 355.672C229.029 355.288 229.445 354.995 229.925 354.792C230.405 354.579 230.928 354.472 231.493 354.472C232.059 354.472 232.581 354.579 233.061 354.792C233.541 354.995 233.952 355.288 234.293 355.672C234.645 356.056 234.917 356.52 235.109 357.064C235.301 357.597 235.397 358.189 235.397 358.84ZM233.845 358.84C233.845 357.901 233.632 357.16 233.205 356.616C232.789 356.061 232.219 355.784 231.493 355.784C230.768 355.784 230.192 356.061 229.765 356.616C229.349 357.16 229.141 357.901 229.141 358.84C229.141 359.779 229.349 360.525 229.765 361.08C230.192 361.624 230.768 361.896 231.493 361.896C232.219 361.896 232.789 361.624 233.205 361.08C233.632 360.525 233.845 359.779 233.845 358.84ZM244.115 362.76C243.774 362.845 243.32 362.936 242.755 363.032C242.2 363.128 241.555 363.176 240.819 363.176C240.179 363.176 239.64 363.085 239.203 362.904C238.766 362.712 238.414 362.445 238.147 362.104C237.88 361.763 237.688 361.363 237.571 360.904C237.454 360.435 237.395 359.917 237.395 359.352V354.68H238.883V359.032C238.883 360.045 239.043 360.771 239.363 361.208C239.683 361.645 240.222 361.864 240.979 361.864C241.139 361.864 241.304 361.859 241.475 361.848C241.646 361.837 241.806 361.827 241.955 361.816C242.104 361.795 242.238 361.779 242.355 361.768C242.483 361.747 242.574 361.725 242.627 361.704V354.68H244.115V362.76ZM252.054 356.44C251.873 356.291 251.612 356.147 251.27 356.008C250.929 355.869 250.556 355.8 250.15 355.8C249.724 355.8 249.356 355.88 249.046 356.04C248.748 356.189 248.502 356.403 248.31 356.68C248.118 356.947 247.98 357.267 247.894 357.64C247.809 358.013 247.766 358.413 247.766 358.84C247.766 359.811 248.006 360.563 248.486 361.096C248.966 361.619 249.606 361.88 250.406 361.88C250.812 361.88 251.148 361.864 251.414 361.832C251.692 361.789 251.905 361.747 252.054 361.704V356.44ZM252.054 350.84L253.542 350.584V362.76C253.201 362.856 252.764 362.952 252.23 363.048C251.697 363.144 251.084 363.192 250.39 363.192C249.75 363.192 249.174 363.091 248.662 362.888C248.15 362.685 247.713 362.397 247.35 362.024C246.988 361.651 246.705 361.197 246.502 360.664C246.31 360.12 246.214 359.512 246.214 358.84C246.214 358.2 246.294 357.613 246.454 357.08C246.625 356.547 246.87 356.088 247.19 355.704C247.51 355.32 247.9 355.021 248.358 354.808C248.828 354.595 249.361 354.488 249.958 354.488C250.438 354.488 250.86 354.552 251.222 354.68C251.596 354.808 251.873 354.931 252.054 355.048V350.84ZM267.499 363C267.265 362.605 266.993 362.163 266.683 361.672C266.385 361.181 266.059 360.675 265.707 360.152C265.355 359.619 264.987 359.08 264.603 358.536C264.23 357.992 263.857 357.469 263.483 356.968C263.11 356.456 262.747 355.976 262.395 355.528C262.043 355.08 261.718 354.685 261.419 354.344V363H259.899V351.912H261.131C261.633 352.445 262.166 353.069 262.731 353.784C263.307 354.488 263.873 355.219 264.427 355.976C264.993 356.723 265.521 357.459 266.011 358.184C266.513 358.909 266.934 359.555 267.275 360.12V351.912H268.795V363H267.499ZM274.26 361.928C274.612 361.928 274.921 361.923 275.188 361.912C275.465 361.891 275.695 361.859 275.876 361.816V359.336C275.769 359.283 275.593 359.24 275.348 359.208C275.113 359.165 274.825 359.144 274.484 359.144C274.26 359.144 274.02 359.16 273.764 359.192C273.519 359.224 273.289 359.293 273.076 359.4C272.873 359.496 272.703 359.635 272.564 359.816C272.425 359.987 272.356 360.216 272.356 360.504C272.356 361.037 272.527 361.411 272.868 361.624C273.209 361.827 273.673 361.928 274.26 361.928ZM274.132 354.472C274.729 354.472 275.231 354.552 275.636 354.712C276.052 354.861 276.383 355.08 276.628 355.368C276.884 355.645 277.065 355.981 277.172 356.376C277.279 356.76 277.332 357.187 277.332 357.656V362.856C277.204 362.877 277.023 362.909 276.788 362.952C276.564 362.984 276.308 363.016 276.02 363.048C275.732 363.08 275.417 363.107 275.076 363.128C274.745 363.16 274.415 363.176 274.084 363.176C273.615 363.176 273.183 363.128 272.788 363.032C272.393 362.936 272.052 362.787 271.764 362.584C271.476 362.371 271.252 362.093 271.092 361.752C270.932 361.411 270.852 361 270.852 360.52C270.852 360.061 270.943 359.667 271.124 359.336C271.316 359.005 271.572 358.739 271.892 358.536C272.212 358.333 272.585 358.184 273.012 358.088C273.439 357.992 273.887 357.944 274.356 357.944C274.505 357.944 274.66 357.955 274.82 357.976C274.98 357.987 275.129 358.008 275.268 358.04C275.417 358.061 275.545 358.083 275.652 358.104C275.759 358.125 275.833 358.141 275.876 358.152V357.736C275.876 357.491 275.849 357.251 275.796 357.016C275.743 356.771 275.647 356.557 275.508 356.376C275.369 356.184 275.177 356.035 274.932 355.928C274.697 355.811 274.388 355.752 274.004 355.752C273.513 355.752 273.081 355.789 272.708 355.864C272.345 355.928 272.073 355.997 271.892 356.072L271.716 354.84C271.908 354.755 272.228 354.675 272.676 354.6C273.124 354.515 273.609 354.472 274.132 354.472ZM281.195 354.68H284.347V355.928H281.195V359.768C281.195 360.184 281.227 360.531 281.291 360.808C281.355 361.075 281.451 361.288 281.579 361.448C281.707 361.597 281.867 361.704 282.059 361.768C282.251 361.832 282.475 361.864 282.731 361.864C283.179 361.864 283.537 361.816 283.803 361.72C284.081 361.613 284.273 361.539 284.379 361.496L284.667 362.728C284.518 362.803 284.257 362.893 283.883 363C283.51 363.117 283.083 363.176 282.603 363.176C282.038 363.176 281.569 363.107 281.195 362.968C280.833 362.819 280.539 362.6 280.315 362.312C280.091 362.024 279.931 361.672 279.835 361.256C279.75 360.829 279.707 360.339 279.707 359.784V352.36L281.195 352.104V354.68ZM287.729 363H286.241V354.68H287.729V363ZM286.977 353.176C286.71 353.176 286.481 353.091 286.289 352.92C286.108 352.739 286.017 352.499 286.017 352.2C286.017 351.901 286.108 351.667 286.289 351.496C286.481 351.315 286.71 351.224 286.977 351.224C287.244 351.224 287.468 351.315 287.649 351.496C287.841 351.667 287.937 351.901 287.937 352.2C287.937 352.499 287.841 352.739 287.649 352.92C287.468 353.091 287.244 353.176 286.977 353.176ZM296.784 354.68C296.368 356.237 295.877 357.731 295.312 359.16C294.757 360.589 294.218 361.869 293.696 363H292.352C291.829 361.869 291.285 360.589 290.72 359.16C290.165 357.731 289.68 356.237 289.264 354.68H290.864C290.992 355.203 291.141 355.763 291.312 356.36C291.493 356.947 291.68 357.533 291.872 358.12C292.074 358.696 292.277 359.256 292.48 359.8C292.682 360.344 292.874 360.829 293.056 361.256C293.237 360.829 293.429 360.344 293.632 359.8C293.834 359.256 294.032 358.696 294.224 358.12C294.426 357.533 294.613 356.947 294.784 356.36C294.965 355.763 295.12 355.203 295.248 354.68H296.784ZM297.636 358.856C297.636 358.12 297.743 357.48 297.956 356.936C298.17 356.381 298.452 355.923 298.804 355.56C299.156 355.197 299.562 354.925 300.02 354.744C300.479 354.563 300.948 354.472 301.428 354.472C302.548 354.472 303.407 354.824 304.004 355.528C304.602 356.221 304.9 357.283 304.9 358.712C304.9 358.776 304.9 358.861 304.9 358.968C304.9 359.064 304.895 359.155 304.884 359.24H299.188C299.252 360.104 299.503 360.76 299.94 361.208C300.378 361.656 301.06 361.88 301.988 361.88C302.511 361.88 302.948 361.837 303.3 361.752C303.663 361.656 303.935 361.565 304.116 361.48L304.324 362.728C304.143 362.824 303.823 362.925 303.364 363.032C302.916 363.139 302.404 363.192 301.828 363.192C301.103 363.192 300.474 363.085 299.94 362.872C299.418 362.648 298.986 362.344 298.644 361.96C298.303 361.576 298.047 361.123 297.876 360.6C297.716 360.067 297.636 359.485 297.636 358.856ZM303.348 358.04C303.359 357.368 303.188 356.819 302.836 356.392C302.495 355.955 302.02 355.736 301.412 355.736C301.071 355.736 300.767 355.805 300.5 355.944C300.244 356.072 300.026 356.243 299.844 356.456C299.663 356.669 299.519 356.915 299.412 357.192C299.316 357.469 299.252 357.752 299.22 358.04H303.348ZM315.605 363.24C314.826 363.24 314.117 363.112 313.477 362.856C312.837 362.6 312.288 362.227 311.829 361.736C311.37 361.245 311.013 360.643 310.757 359.928C310.512 359.203 310.389 358.376 310.389 357.448C310.389 356.52 310.528 355.699 310.805 354.984C311.093 354.259 311.477 353.651 311.957 353.16C312.437 352.669 312.997 352.296 313.637 352.04C314.277 351.784 314.96 351.656 315.685 351.656C316.144 351.656 316.554 351.688 316.917 351.752C317.29 351.816 317.61 351.891 317.877 351.976C318.154 352.061 318.378 352.147 318.549 352.232C318.72 352.317 318.837 352.381 318.901 352.424L318.453 353.704C318.357 353.64 318.218 353.571 318.037 353.496C317.856 353.421 317.648 353.347 317.413 353.272C317.189 353.197 316.938 353.139 316.661 353.096C316.394 353.043 316.122 353.016 315.845 353.016C315.258 353.016 314.73 353.117 314.261 353.32C313.792 353.523 313.392 353.816 313.061 354.2C312.73 354.584 312.474 355.053 312.293 355.608C312.122 356.152 312.037 356.765 312.037 357.448C312.037 358.109 312.112 358.712 312.261 359.256C312.421 359.8 312.656 360.269 312.965 360.664C313.274 361.048 313.658 361.347 314.117 361.56C314.586 361.773 315.13 361.88 315.749 361.88C316.464 361.88 317.056 361.805 317.525 361.656C317.994 361.507 318.346 361.373 318.581 361.256L318.981 362.536C318.906 362.589 318.773 362.659 318.581 362.744C318.389 362.819 318.149 362.893 317.861 362.968C317.573 363.043 317.237 363.107 316.853 363.16C316.469 363.213 316.053 363.24 315.605 363.24ZM327.772 358.84C327.772 359.501 327.676 360.099 327.484 360.632C327.292 361.165 327.02 361.624 326.668 362.008C326.327 362.392 325.916 362.691 325.436 362.904C324.956 363.107 324.434 363.208 323.868 363.208C323.303 363.208 322.78 363.107 322.3 362.904C321.82 362.691 321.404 362.392 321.052 362.008C320.711 361.624 320.444 361.165 320.252 360.632C320.06 360.099 319.964 359.501 319.964 358.84C319.964 358.189 320.06 357.597 320.252 357.064C320.444 356.52 320.711 356.056 321.052 355.672C321.404 355.288 321.82 354.995 322.3 354.792C322.78 354.579 323.303 354.472 323.868 354.472C324.434 354.472 324.956 354.579 325.436 354.792C325.916 354.995 326.327 355.288 326.668 355.672C327.02 356.056 327.292 356.52 327.484 357.064C327.676 357.597 327.772 358.189 327.772 358.84ZM326.22 358.84C326.22 357.901 326.007 357.16 325.58 356.616C325.164 356.061 324.594 355.784 323.868 355.784C323.143 355.784 322.567 356.061 322.14 356.616C321.724 357.16 321.516 357.901 321.516 358.84C321.516 359.779 321.724 360.525 322.14 361.08C322.567 361.624 323.143 361.896 323.868 361.896C324.594 361.896 325.164 361.624 325.58 361.08C326.007 360.525 326.22 359.779 326.22 358.84ZM329.866 354.92C330.207 354.835 330.655 354.744 331.21 354.648C331.775 354.552 332.426 354.504 333.162 354.504C333.695 354.504 334.143 354.579 334.506 354.728C334.869 354.867 335.173 355.075 335.418 355.352C335.493 355.299 335.61 355.224 335.77 355.128C335.93 355.032 336.127 354.941 336.362 354.856C336.597 354.76 336.858 354.68 337.146 354.616C337.434 354.541 337.743 354.504 338.074 354.504C338.714 354.504 339.237 354.6 339.642 354.792C340.047 354.973 340.362 355.235 340.586 355.576C340.821 355.917 340.975 356.323 341.05 356.792C341.135 357.261 341.178 357.773 341.178 358.328V363H339.69V358.648C339.69 358.157 339.663 357.736 339.61 357.384C339.567 357.032 339.477 356.739 339.338 356.504C339.21 356.269 339.029 356.099 338.794 355.992C338.57 355.875 338.277 355.816 337.914 355.816C337.413 355.816 336.997 355.885 336.666 356.024C336.346 356.152 336.127 356.269 336.01 356.376C336.095 356.653 336.159 356.957 336.202 357.288C336.245 357.619 336.266 357.965 336.266 358.328V363H334.778V358.648C334.778 358.157 334.751 357.736 334.698 357.384C334.645 357.032 334.549 356.739 334.41 356.504C334.282 356.269 334.101 356.099 333.866 355.992C333.642 355.875 333.354 355.816 333.002 355.816C332.853 355.816 332.693 355.821 332.522 355.832C332.351 355.843 332.186 355.859 332.026 355.88C331.877 355.891 331.738 355.907 331.61 355.928C331.482 355.949 331.397 355.965 331.354 355.976V363H329.866V354.92ZM349.423 358.856C349.423 357.885 349.183 357.139 348.703 356.616C348.223 356.093 347.583 355.832 346.783 355.832C346.335 355.832 345.983 355.848 345.727 355.88C345.482 355.912 345.285 355.949 345.135 355.992V361.24C345.317 361.389 345.578 361.533 345.919 361.672C346.261 361.811 346.634 361.88 347.039 361.88C347.466 361.88 347.829 361.805 348.127 361.656C348.437 361.496 348.687 361.283 348.879 361.016C349.071 360.739 349.21 360.419 349.295 360.056C349.381 359.683 349.423 359.283 349.423 358.856ZM350.975 358.856C350.975 359.485 350.89 360.067 350.719 360.6C350.559 361.133 350.319 361.592 349.999 361.976C349.679 362.36 349.285 362.659 348.815 362.872C348.357 363.085 347.829 363.192 347.231 363.192C346.751 363.192 346.325 363.128 345.951 363C345.589 362.872 345.317 362.749 345.135 362.632V365.96H343.647V354.936C343.999 354.851 344.437 354.76 344.959 354.664C345.493 354.557 346.106 354.504 346.799 354.504C347.439 354.504 348.015 354.605 348.527 354.808C349.039 355.011 349.477 355.299 349.839 355.672C350.202 356.045 350.479 356.504 350.671 357.048C350.874 357.581 350.975 358.184 350.975 358.856ZM359.693 362.76C359.352 362.845 358.898 362.936 358.333 363.032C357.778 363.128 357.133 363.176 356.397 363.176C355.757 363.176 355.218 363.085 354.781 362.904C354.344 362.712 353.992 362.445 353.725 362.104C353.458 361.763 353.266 361.363 353.149 360.904C353.032 360.435 352.973 359.917 352.973 359.352V354.68H354.461V359.032C354.461 360.045 354.621 360.771 354.941 361.208C355.261 361.645 355.8 361.864 356.557 361.864C356.717 361.864 356.882 361.859 357.053 361.848C357.224 361.837 357.384 361.827 357.533 361.816C357.682 361.795 357.816 361.779 357.933 361.768C358.061 361.747 358.152 361.725 358.205 361.704V354.68H359.693V362.76ZM363.649 354.68H366.801V355.928H363.649V359.768C363.649 360.184 363.681 360.531 363.745 360.808C363.809 361.075 363.905 361.288 364.033 361.448C364.161 361.597 364.321 361.704 364.513 361.768C364.705 361.832 364.929 361.864 365.185 361.864C365.633 361.864 365.99 361.816 366.257 361.72C366.534 361.613 366.726 361.539 366.833 361.496L367.121 362.728C366.971 362.803 366.71 362.893 366.337 363C365.963 363.117 365.537 363.176 365.057 363.176C364.491 363.176 364.022 363.107 363.649 362.968C363.286 362.819 362.993 362.6 362.769 362.312C362.545 362.024 362.385 361.672 362.289 361.256C362.203 360.829 362.161 360.339 362.161 359.784V352.36L363.649 352.104V354.68ZM370.182 363H368.694V354.68H370.182V363ZM369.43 353.176C369.163 353.176 368.934 353.091 368.742 352.92C368.561 352.739 368.47 352.499 368.47 352.2C368.47 351.901 368.561 351.667 368.742 351.496C368.934 351.315 369.163 351.224 369.43 351.224C369.697 351.224 369.921 351.315 370.102 351.496C370.294 351.667 370.39 351.901 370.39 352.2C370.39 352.499 370.294 352.739 370.102 352.92C369.921 353.091 369.697 353.176 369.43 353.176ZM372.741 354.92C373.082 354.835 373.536 354.744 374.101 354.648C374.666 354.552 375.317 354.504 376.053 354.504C376.714 354.504 377.264 354.6 377.701 354.792C378.138 354.973 378.485 355.235 378.741 355.576C379.008 355.907 379.194 356.307 379.301 356.776C379.408 357.245 379.461 357.763 379.461 358.328V363H377.973V358.648C377.973 358.136 377.936 357.699 377.861 357.336C377.797 356.973 377.685 356.68 377.525 356.456C377.365 356.232 377.152 356.072 376.885 355.976C376.618 355.869 376.288 355.816 375.893 355.816C375.733 355.816 375.568 355.821 375.397 355.832C375.226 355.843 375.061 355.859 374.901 355.88C374.752 355.891 374.613 355.907 374.485 355.928C374.368 355.949 374.282 355.965 374.229 355.976V363H372.741V354.92ZM387.144 362.168C387.016 362.253 386.766 362.365 386.392 362.504C386.03 362.632 385.603 362.696 385.112 362.696C384.611 362.696 384.136 362.616 383.688 362.456C383.251 362.296 382.867 362.051 382.536 361.72C382.206 361.379 381.944 360.957 381.752 360.456C381.56 359.955 381.464 359.357 381.464 358.664C381.464 358.056 381.555 357.501 381.736 357C381.918 356.488 382.179 356.051 382.52 355.688C382.872 355.315 383.299 355.027 383.8 354.824C384.302 354.611 384.867 354.504 385.496 354.504C386.19 354.504 386.792 354.557 387.304 354.664C387.827 354.76 388.264 354.851 388.616 354.936V362.36C388.616 363.64 388.286 364.568 387.624 365.144C386.963 365.72 385.96 366.008 384.616 366.008C384.094 366.008 383.598 365.965 383.128 365.88C382.67 365.795 382.27 365.693 381.928 365.576L382.2 364.28C382.499 364.397 382.862 364.499 383.288 364.584C383.726 364.68 384.179 364.728 384.648 364.728C385.534 364.728 386.168 364.552 386.552 364.2C386.947 363.848 387.144 363.288 387.144 362.52V362.168ZM387.128 355.992C386.979 355.949 386.776 355.912 386.52 355.88C386.275 355.837 385.939 355.816 385.512 355.816C384.712 355.816 384.094 356.077 383.656 356.6C383.23 357.123 383.016 357.816 383.016 358.68C383.016 359.16 383.075 359.571 383.192 359.912C383.32 360.253 383.486 360.536 383.688 360.76C383.902 360.984 384.142 361.149 384.408 361.256C384.686 361.363 384.968 361.416 385.256 361.416C385.651 361.416 386.014 361.363 386.344 361.256C386.675 361.139 386.936 361.005 387.128 360.856V355.992ZM165.696 385V373.912H172.384V375.24H167.248V378.584H171.808V379.896H167.248V385H165.696ZM181.319 380.84C181.319 381.501 181.223 382.099 181.031 382.632C180.839 383.165 180.567 383.624 180.215 384.008C179.874 384.392 179.463 384.691 178.983 384.904C178.503 385.107 177.981 385.208 177.415 385.208C176.85 385.208 176.327 385.107 175.847 384.904C175.367 384.691 174.951 384.392 174.599 384.008C174.258 383.624 173.991 383.165 173.799 382.632C173.607 382.099 173.511 381.501 173.511 380.84C173.511 380.189 173.607 379.597 173.799 379.064C173.991 378.52 174.258 378.056 174.599 377.672C174.951 377.288 175.367 376.995 175.847 376.792C176.327 376.579 176.85 376.472 177.415 376.472C177.981 376.472 178.503 376.579 178.983 376.792C179.463 376.995 179.874 377.288 180.215 377.672C180.567 378.056 180.839 378.52 181.031 379.064C181.223 379.597 181.319 380.189 181.319 380.84ZM179.767 380.84C179.767 379.901 179.554 379.16 179.127 378.616C178.711 378.061 178.141 377.784 177.415 377.784C176.69 377.784 176.114 378.061 175.687 378.616C175.271 379.16 175.063 379.901 175.063 380.84C175.063 381.779 175.271 382.525 175.687 383.08C176.114 383.624 176.69 383.896 177.415 383.896C178.141 383.896 178.711 383.624 179.127 383.08C179.554 382.525 179.767 381.779 179.767 380.84ZM190.037 384.76C189.695 384.845 189.242 384.936 188.677 385.032C188.122 385.128 187.477 385.176 186.741 385.176C186.101 385.176 185.562 385.085 185.125 384.904C184.687 384.712 184.335 384.445 184.069 384.104C183.802 383.763 183.61 383.363 183.493 382.904C183.375 382.435 183.317 381.917 183.317 381.352V376.68H184.805V381.032C184.805 382.045 184.965 382.771 185.285 383.208C185.605 383.645 186.143 383.864 186.901 383.864C187.061 383.864 187.226 383.859 187.397 383.848C187.567 383.837 187.727 383.827 187.877 383.816C188.026 383.795 188.159 383.779 188.277 383.768C188.405 383.747 188.495 383.725 188.549 383.704V376.68H190.037V384.76ZM192.6 376.92C192.942 376.835 193.395 376.744 193.96 376.648C194.526 376.552 195.176 376.504 195.912 376.504C196.574 376.504 197.123 376.6 197.56 376.792C197.998 376.973 198.344 377.235 198.6 377.576C198.867 377.907 199.054 378.307 199.16 378.776C199.267 379.245 199.32 379.763 199.32 380.328V385H197.832V380.648C197.832 380.136 197.795 379.699 197.72 379.336C197.656 378.973 197.544 378.68 197.384 378.456C197.224 378.232 197.011 378.072 196.744 377.976C196.478 377.869 196.147 377.816 195.752 377.816C195.592 377.816 195.427 377.821 195.256 377.832C195.086 377.843 194.92 377.859 194.76 377.88C194.611 377.891 194.472 377.907 194.344 377.928C194.227 377.949 194.142 377.965 194.088 377.976V385H192.6V376.92ZM207.164 378.44C206.982 378.291 206.721 378.147 206.38 378.008C206.038 377.869 205.665 377.8 205.26 377.8C204.833 377.8 204.465 377.88 204.156 378.04C203.857 378.189 203.612 378.403 203.42 378.68C203.228 378.947 203.089 379.267 203.004 379.64C202.918 380.013 202.876 380.413 202.876 380.84C202.876 381.811 203.116 382.563 203.596 383.096C204.076 383.619 204.716 383.88 205.516 383.88C205.921 383.88 206.257 383.864 206.524 383.832C206.801 383.789 207.014 383.747 207.164 383.704V378.44ZM207.164 372.84L208.652 372.584V384.76C208.31 384.856 207.873 384.952 207.34 385.048C206.806 385.144 206.193 385.192 205.5 385.192C204.86 385.192 204.284 385.091 203.772 384.888C203.26 384.685 202.822 384.397 202.46 384.024C202.097 383.651 201.814 383.197 201.612 382.664C201.42 382.12 201.324 381.512 201.324 380.84C201.324 380.2 201.404 379.613 201.564 379.08C201.734 378.547 201.98 378.088 202.3 377.704C202.62 377.32 203.009 377.021 203.468 376.808C203.937 376.595 204.47 376.488 205.068 376.488C205.548 376.488 205.969 376.552 206.332 376.68C206.705 376.808 206.982 376.931 207.164 377.048V372.84ZM214.026 383.928C214.378 383.928 214.687 383.923 214.954 383.912C215.231 383.891 215.46 383.859 215.642 383.816V381.336C215.535 381.283 215.359 381.24 215.114 381.208C214.879 381.165 214.591 381.144 214.25 381.144C214.026 381.144 213.786 381.16 213.53 381.192C213.284 381.224 213.055 381.293 212.842 381.4C212.639 381.496 212.468 381.635 212.33 381.816C212.191 381.987 212.122 382.216 212.122 382.504C212.122 383.037 212.292 383.411 212.634 383.624C212.975 383.827 213.439 383.928 214.026 383.928ZM213.898 376.472C214.495 376.472 214.996 376.552 215.402 376.712C215.818 376.861 216.148 377.08 216.394 377.368C216.65 377.645 216.831 377.981 216.938 378.376C217.044 378.76 217.098 379.187 217.098 379.656V384.856C216.97 384.877 216.788 384.909 216.554 384.952C216.33 384.984 216.074 385.016 215.786 385.048C215.498 385.08 215.183 385.107 214.842 385.128C214.511 385.16 214.18 385.176 213.85 385.176C213.38 385.176 212.948 385.128 212.554 385.032C212.159 384.936 211.818 384.787 211.53 384.584C211.242 384.371 211.018 384.093 210.858 383.752C210.698 383.411 210.618 383 210.618 382.52C210.618 382.061 210.708 381.667 210.89 381.336C211.082 381.005 211.338 380.739 211.658 380.536C211.978 380.333 212.351 380.184 212.778 380.088C213.204 379.992 213.652 379.944 214.122 379.944C214.271 379.944 214.426 379.955 214.586 379.976C214.746 379.987 214.895 380.008 215.034 380.04C215.183 380.061 215.311 380.083 215.418 380.104C215.524 380.125 215.599 380.141 215.642 380.152V379.736C215.642 379.491 215.615 379.251 215.562 379.016C215.508 378.771 215.412 378.557 215.274 378.376C215.135 378.184 214.943 378.035 214.698 377.928C214.463 377.811 214.154 377.752 213.77 377.752C213.279 377.752 212.847 377.789 212.474 377.864C212.111 377.928 211.839 377.997 211.658 378.072L211.482 376.84C211.674 376.755 211.994 376.675 212.442 376.6C212.89 376.515 213.375 376.472 213.898 376.472ZM220.961 376.68H224.113V377.928H220.961V381.768C220.961 382.184 220.993 382.531 221.057 382.808C221.121 383.075 221.217 383.288 221.345 383.448C221.473 383.597 221.633 383.704 221.825 383.768C222.017 383.832 222.241 383.864 222.497 383.864C222.945 383.864 223.302 383.816 223.569 383.72C223.846 383.613 224.038 383.539 224.145 383.496L224.433 384.728C224.284 384.803 224.022 384.893 223.649 385C223.276 385.117 222.849 385.176 222.369 385.176C221.804 385.176 221.334 385.107 220.961 384.968C220.598 384.819 220.305 384.6 220.081 384.312C219.857 384.024 219.697 383.672 219.601 383.256C219.516 382.829 219.473 382.339 219.473 381.784V374.36L220.961 374.104V376.68ZM227.495 385H226.007V376.68H227.495V385ZM226.743 375.176C226.476 375.176 226.247 375.091 226.055 374.92C225.873 374.739 225.783 374.499 225.783 374.2C225.783 373.901 225.873 373.667 226.055 373.496C226.247 373.315 226.476 373.224 226.743 373.224C227.009 373.224 227.233 373.315 227.415 373.496C227.607 373.667 227.703 373.901 227.703 374.2C227.703 374.499 227.607 374.739 227.415 374.92C227.233 375.091 227.009 375.176 226.743 375.176ZM237.397 380.84C237.397 381.501 237.301 382.099 237.109 382.632C236.917 383.165 236.645 383.624 236.293 384.008C235.952 384.392 235.541 384.691 235.061 384.904C234.581 385.107 234.059 385.208 233.493 385.208C232.928 385.208 232.405 385.107 231.925 384.904C231.445 384.691 231.029 384.392 230.677 384.008C230.336 383.624 230.069 383.165 229.877 382.632C229.685 382.099 229.589 381.501 229.589 380.84C229.589 380.189 229.685 379.597 229.877 379.064C230.069 378.52 230.336 378.056 230.677 377.672C231.029 377.288 231.445 376.995 231.925 376.792C232.405 376.579 232.928 376.472 233.493 376.472C234.059 376.472 234.581 376.579 235.061 376.792C235.541 376.995 235.952 377.288 236.293 377.672C236.645 378.056 236.917 378.52 237.109 379.064C237.301 379.597 237.397 380.189 237.397 380.84ZM235.845 380.84C235.845 379.901 235.632 379.16 235.205 378.616C234.789 378.061 234.219 377.784 233.493 377.784C232.768 377.784 232.192 378.061 231.765 378.616C231.349 379.16 231.141 379.901 231.141 380.84C231.141 381.779 231.349 382.525 231.765 383.08C232.192 383.624 232.768 383.896 233.493 383.896C234.219 383.896 234.789 383.624 235.205 383.08C235.632 382.525 235.845 381.779 235.845 380.84ZM239.491 376.92C239.832 376.835 240.286 376.744 240.851 376.648C241.416 376.552 242.067 376.504 242.803 376.504C243.464 376.504 244.014 376.6 244.451 376.792C244.888 376.973 245.235 377.235 245.491 377.576C245.758 377.907 245.944 378.307 246.051 378.776C246.158 379.245 246.211 379.763 246.211 380.328V385H244.723V380.648C244.723 380.136 244.686 379.699 244.611 379.336C244.547 378.973 244.435 378.68 244.275 378.456C244.115 378.232 243.902 378.072 243.635 377.976C243.368 377.869 243.038 377.816 242.643 377.816C242.483 377.816 242.318 377.821 242.147 377.832C241.976 377.843 241.811 377.859 241.651 377.88C241.502 377.891 241.363 377.907 241.235 377.928C241.118 377.949 241.032 377.965 240.979 377.976V385H239.491V376.92ZM254.318 383.928C254.926 383.928 255.374 383.848 255.662 383.688C255.96 383.528 256.11 383.272 256.11 382.92C256.11 382.557 255.966 382.269 255.678 382.056C255.39 381.843 254.915 381.603 254.254 381.336C253.934 381.208 253.624 381.08 253.326 380.952C253.038 380.813 252.787 380.653 252.574 380.472C252.36 380.291 252.19 380.072 252.062 379.816C251.934 379.56 251.87 379.245 251.87 378.872C251.87 378.136 252.142 377.555 252.686 377.128C253.23 376.691 253.971 376.472 254.91 376.472C255.144 376.472 255.379 376.488 255.614 376.52C255.848 376.541 256.067 376.573 256.27 376.616C256.472 376.648 256.648 376.685 256.798 376.728C256.958 376.771 257.08 376.808 257.166 376.84L256.894 378.12C256.734 378.035 256.483 377.949 256.142 377.864C255.8 377.768 255.39 377.72 254.91 377.72C254.494 377.72 254.131 377.805 253.822 377.976C253.512 378.136 253.358 378.392 253.358 378.744C253.358 378.925 253.39 379.085 253.454 379.224C253.528 379.363 253.635 379.491 253.774 379.608C253.923 379.715 254.104 379.816 254.318 379.912C254.531 380.008 254.787 380.109 255.086 380.216C255.48 380.365 255.832 380.515 256.142 380.664C256.451 380.803 256.712 380.968 256.926 381.16C257.15 381.352 257.32 381.587 257.438 381.864C257.555 382.131 257.614 382.461 257.614 382.856C257.614 383.624 257.326 384.205 256.75 384.6C256.184 384.995 255.374 385.192 254.318 385.192C253.582 385.192 253.006 385.128 252.59 385C252.174 384.883 251.891 384.792 251.742 384.728L252.014 383.448C252.184 383.512 252.456 383.608 252.83 383.736C253.203 383.864 253.699 383.928 254.318 383.928ZM262.338 383.928C262.69 383.928 263 383.923 263.266 383.912C263.544 383.891 263.773 383.859 263.954 383.816V381.336C263.848 381.283 263.672 381.24 263.426 381.208C263.192 381.165 262.904 381.144 262.562 381.144C262.338 381.144 262.098 381.16 261.842 381.192C261.597 381.224 261.368 381.293 261.154 381.4C260.952 381.496 260.781 381.635 260.642 381.816C260.504 381.987 260.434 382.216 260.434 382.504C260.434 383.037 260.605 383.411 260.946 383.624C261.288 383.827 261.752 383.928 262.338 383.928ZM262.21 376.472C262.808 376.472 263.309 376.552 263.714 376.712C264.13 376.861 264.461 377.08 264.706 377.368C264.962 377.645 265.144 377.981 265.25 378.376C265.357 378.76 265.41 379.187 265.41 379.656V384.856C265.282 384.877 265.101 384.909 264.866 384.952C264.642 384.984 264.386 385.016 264.098 385.048C263.81 385.08 263.496 385.107 263.154 385.128C262.824 385.16 262.493 385.176 262.162 385.176C261.693 385.176 261.261 385.128 260.866 385.032C260.472 384.936 260.13 384.787 259.842 384.584C259.554 384.371 259.33 384.093 259.17 383.752C259.01 383.411 258.93 383 258.93 382.52C258.93 382.061 259.021 381.667 259.202 381.336C259.394 381.005 259.65 380.739 259.97 380.536C260.29 380.333 260.664 380.184 261.09 380.088C261.517 379.992 261.965 379.944 262.434 379.944C262.584 379.944 262.738 379.955 262.898 379.976C263.058 379.987 263.208 380.008 263.346 380.04C263.496 380.061 263.624 380.083 263.73 380.104C263.837 380.125 263.912 380.141 263.954 380.152V379.736C263.954 379.491 263.928 379.251 263.874 379.016C263.821 378.771 263.725 378.557 263.586 378.376C263.448 378.184 263.256 378.035 263.01 377.928C262.776 377.811 262.466 377.752 262.082 377.752C261.592 377.752 261.16 377.789 260.786 377.864C260.424 377.928 260.152 377.997 259.97 378.072L259.794 376.84C259.986 376.755 260.306 376.675 260.754 376.6C261.202 376.515 261.688 376.472 262.21 376.472ZM267.882 376.92C268.223 376.835 268.676 376.744 269.242 376.648C269.807 376.552 270.458 376.504 271.194 376.504C271.855 376.504 272.404 376.6 272.842 376.792C273.279 376.973 273.626 377.235 273.882 377.576C274.148 377.907 274.335 378.307 274.442 378.776C274.548 379.245 274.602 379.763 274.602 380.328V385H273.114V380.648C273.114 380.136 273.076 379.699 273.002 379.336C272.938 378.973 272.826 378.68 272.666 378.456C272.506 378.232 272.292 378.072 272.026 377.976C271.759 377.869 271.428 377.816 271.034 377.816C270.874 377.816 270.708 377.821 270.538 377.832C270.367 377.843 270.202 377.859 270.042 377.88C269.892 377.891 269.754 377.907 269.626 377.928C269.508 377.949 269.423 377.965 269.37 377.976V385H267.882V376.92ZM282.445 378.44C282.264 378.291 282.002 378.147 281.661 378.008C281.32 377.869 280.946 377.8 280.541 377.8C280.114 377.8 279.746 377.88 279.437 378.04C279.138 378.189 278.893 378.403 278.701 378.68C278.509 378.947 278.37 379.267 278.285 379.64C278.2 380.013 278.157 380.413 278.157 380.84C278.157 381.811 278.397 382.563 278.877 383.096C279.357 383.619 279.997 383.88 280.797 383.88C281.202 383.88 281.538 383.864 281.805 383.832C282.082 383.789 282.296 383.747 282.445 383.704V378.44ZM282.445 372.84L283.933 372.584V384.76C283.592 384.856 283.154 384.952 282.621 385.048C282.088 385.144 281.474 385.192 280.781 385.192C280.141 385.192 279.565 385.091 279.053 384.888C278.541 384.685 278.104 384.397 277.741 384.024C277.378 383.651 277.096 383.197 276.893 382.664C276.701 382.12 276.605 381.512 276.605 380.84C276.605 380.2 276.685 379.613 276.845 379.08C277.016 378.547 277.261 378.088 277.581 377.704C277.901 377.32 278.29 377.021 278.749 376.808C279.218 376.595 279.752 376.488 280.349 376.488C280.829 376.488 281.25 376.552 281.613 376.68C281.986 376.808 282.264 376.931 282.445 377.048V372.84ZM287.979 377.048C288.16 376.931 288.432 376.808 288.795 376.68C289.168 376.552 289.595 376.488 290.075 376.488C290.672 376.488 291.2 376.595 291.659 376.808C292.128 377.021 292.523 377.32 292.843 377.704C293.163 378.088 293.403 378.547 293.563 379.08C293.734 379.613 293.819 380.2 293.819 380.84C293.819 381.512 293.718 382.12 293.515 382.664C293.323 383.197 293.046 383.651 292.683 384.024C292.32 384.397 291.883 384.685 291.371 384.888C290.859 385.091 290.283 385.192 289.643 385.192C288.95 385.192 288.336 385.144 287.803 385.048C287.27 384.952 286.832 384.856 286.491 384.76V372.84L287.979 372.584V377.048ZM287.979 383.704C288.128 383.747 288.336 383.789 288.603 383.832C288.88 383.864 289.222 383.88 289.627 383.88C290.427 383.88 291.067 383.619 291.547 383.096C292.027 382.563 292.267 381.811 292.267 380.84C292.267 380.413 292.224 380.013 292.139 379.64C292.054 379.267 291.915 378.947 291.723 378.68C291.531 378.403 291.28 378.189 290.971 378.04C290.672 377.88 290.31 377.8 289.883 377.8C289.478 377.8 289.104 377.869 288.763 378.008C288.422 378.147 288.16 378.291 287.979 378.44V383.704ZM303.257 380.84C303.257 381.501 303.161 382.099 302.969 382.632C302.777 383.165 302.505 383.624 302.153 384.008C301.811 384.392 301.401 384.691 300.921 384.904C300.441 385.107 299.918 385.208 299.353 385.208C298.787 385.208 298.265 385.107 297.785 384.904C297.305 384.691 296.889 384.392 296.537 384.008C296.195 383.624 295.929 383.165 295.737 382.632C295.545 382.099 295.449 381.501 295.449 380.84C295.449 380.189 295.545 379.597 295.737 379.064C295.929 378.52 296.195 378.056 296.537 377.672C296.889 377.288 297.305 376.995 297.785 376.792C298.265 376.579 298.787 376.472 299.353 376.472C299.918 376.472 300.441 376.579 300.921 376.792C301.401 376.995 301.811 377.288 302.153 377.672C302.505 378.056 302.777 378.52 302.969 379.064C303.161 379.597 303.257 380.189 303.257 380.84ZM301.705 380.84C301.705 379.901 301.491 379.16 301.065 378.616C300.649 378.061 300.078 377.784 299.353 377.784C298.627 377.784 298.051 378.061 297.625 378.616C297.209 379.16 297.001 379.901 297.001 380.84C297.001 381.779 297.209 382.525 297.625 383.08C298.051 383.624 298.627 383.896 299.353 383.896C300.078 383.896 300.649 383.624 301.065 383.08C301.491 382.525 301.705 381.779 301.705 380.84ZM310.061 385C309.943 384.765 309.799 384.504 309.629 384.216C309.458 383.928 309.271 383.635 309.069 383.336C308.866 383.027 308.658 382.723 308.445 382.424C308.231 382.125 308.023 381.843 307.821 381.576C307.618 381.843 307.41 382.131 307.197 382.44C306.983 382.739 306.775 383.043 306.573 383.352C306.381 383.651 306.199 383.944 306.029 384.232C305.858 384.52 305.714 384.776 305.597 385H304.061C304.434 384.275 304.877 383.539 305.389 382.792C305.911 382.035 306.429 381.315 306.941 380.632L304.189 376.68H305.869L307.853 379.592L309.853 376.68H311.437L308.749 380.536C309.261 381.229 309.783 381.965 310.317 382.744C310.861 383.512 311.319 384.264 311.693 385H310.061ZM322.736 380.856C322.736 379.885 322.496 379.139 322.016 378.616C321.536 378.093 320.896 377.832 320.096 377.832C319.648 377.832 319.296 377.848 319.04 377.88C318.794 377.912 318.597 377.949 318.448 377.992V383.24C318.629 383.389 318.89 383.533 319.232 383.672C319.573 383.811 319.946 383.88 320.352 383.88C320.778 383.88 321.141 383.805 321.44 383.656C321.749 383.496 322 383.283 322.192 383.016C322.384 382.739 322.522 382.419 322.608 382.056C322.693 381.683 322.736 381.283 322.736 380.856ZM324.288 380.856C324.288 381.485 324.202 382.067 324.032 382.6C323.872 383.133 323.632 383.592 323.312 383.976C322.992 384.36 322.597 384.659 322.128 384.872C321.669 385.085 321.141 385.192 320.544 385.192C320.064 385.192 319.637 385.128 319.264 385C318.901 384.872 318.629 384.749 318.448 384.632V387.96H316.96V376.936C317.312 376.851 317.749 376.76 318.272 376.664C318.805 376.557 319.418 376.504 320.112 376.504C320.752 376.504 321.328 376.605 321.84 376.808C322.352 377.011 322.789 377.299 323.152 377.672C323.514 378.045 323.792 378.504 323.984 379.048C324.186 379.581 324.288 380.184 324.288 380.856ZM329.454 376.504C329.582 376.504 329.726 376.515 329.886 376.536C330.056 376.547 330.222 376.568 330.382 376.6C330.542 376.621 330.686 376.648 330.814 376.68C330.952 376.701 331.054 376.723 331.118 376.744L330.862 378.04C330.744 377.997 330.547 377.949 330.27 377.896C330.003 377.832 329.656 377.8 329.23 377.8C328.952 377.8 328.675 377.832 328.398 377.896C328.131 377.949 327.955 377.987 327.87 378.008V385H326.382V377.032C326.734 376.904 327.171 376.787 327.694 376.68C328.216 376.563 328.803 376.504 329.454 376.504ZM339.897 380.84C339.897 381.501 339.801 382.099 339.609 382.632C339.417 383.165 339.145 383.624 338.793 384.008C338.452 384.392 338.041 384.691 337.561 384.904C337.081 385.107 336.559 385.208 335.993 385.208C335.428 385.208 334.905 385.107 334.425 384.904C333.945 384.691 333.529 384.392 333.177 384.008C332.836 383.624 332.569 383.165 332.377 382.632C332.185 382.099 332.089 381.501 332.089 380.84C332.089 380.189 332.185 379.597 332.377 379.064C332.569 378.52 332.836 378.056 333.177 377.672C333.529 377.288 333.945 376.995 334.425 376.792C334.905 376.579 335.428 376.472 335.993 376.472C336.559 376.472 337.081 376.579 337.561 376.792C338.041 376.995 338.452 377.288 338.793 377.672C339.145 378.056 339.417 378.52 339.609 379.064C339.801 379.597 339.897 380.189 339.897 380.84ZM338.345 380.84C338.345 379.901 338.132 379.16 337.705 378.616C337.289 378.061 336.719 377.784 335.993 377.784C335.268 377.784 334.692 378.061 334.265 378.616C333.849 379.16 333.641 379.901 333.641 380.84C333.641 381.779 333.849 382.525 334.265 383.08C334.692 383.624 335.268 383.896 335.993 383.896C336.719 383.896 337.289 383.624 337.705 383.08C338.132 382.525 338.345 381.779 338.345 380.84ZM340.631 387.992C340.503 387.992 340.338 387.976 340.135 387.944C339.932 387.912 339.762 387.869 339.623 387.816L339.815 386.6C339.922 386.632 340.044 386.659 340.183 386.68C340.322 386.701 340.45 386.712 340.567 386.712C341.079 386.712 341.442 386.552 341.655 386.232C341.879 385.923 341.991 385.464 341.991 384.856V376.68H343.479V384.84C343.479 385.907 343.234 386.696 342.743 387.208C342.263 387.731 341.559 387.992 340.631 387.992ZM342.727 375.176C342.46 375.176 342.231 375.091 342.039 374.92C341.858 374.739 341.767 374.499 341.767 374.2C341.767 373.901 341.858 373.667 342.039 373.496C342.231 373.315 342.46 373.224 342.727 373.224C342.994 373.224 343.218 373.315 343.399 373.496C343.591 373.667 343.687 373.901 343.687 374.2C343.687 374.499 343.591 374.739 343.399 374.92C343.218 375.091 342.994 375.176 342.727 375.176ZM345.574 380.856C345.574 380.12 345.68 379.48 345.894 378.936C346.107 378.381 346.39 377.923 346.742 377.56C347.094 377.197 347.499 376.925 347.958 376.744C348.416 376.563 348.886 376.472 349.366 376.472C350.486 376.472 351.344 376.824 351.942 377.528C352.539 378.221 352.838 379.283 352.838 380.712C352.838 380.776 352.838 380.861 352.838 380.968C352.838 381.064 352.832 381.155 352.822 381.24H347.126C347.19 382.104 347.44 382.76 347.878 383.208C348.315 383.656 348.998 383.88 349.926 383.88C350.448 383.88 350.886 383.837 351.238 383.752C351.6 383.656 351.872 383.565 352.054 383.48L352.262 384.728C352.08 384.824 351.76 384.925 351.302 385.032C350.854 385.139 350.342 385.192 349.766 385.192C349.04 385.192 348.411 385.085 347.878 384.872C347.355 384.648 346.923 384.344 346.582 383.96C346.24 383.576 345.984 383.123 345.814 382.6C345.654 382.067 345.574 381.485 345.574 380.856ZM351.286 380.04C351.296 379.368 351.126 378.819 350.774 378.392C350.432 377.955 349.958 377.736 349.35 377.736C349.008 377.736 348.704 377.805 348.438 377.944C348.182 378.072 347.963 378.243 347.782 378.456C347.6 378.669 347.456 378.915 347.35 379.192C347.254 379.469 347.19 379.752 347.158 380.04H351.286ZM358.591 385.192C357.919 385.192 357.327 385.085 356.815 384.872C356.314 384.659 355.887 384.36 355.535 383.976C355.194 383.592 354.938 383.139 354.767 382.616C354.597 382.083 354.511 381.496 354.511 380.856C354.511 380.216 354.602 379.629 354.783 379.096C354.975 378.563 355.242 378.104 355.583 377.72C355.925 377.325 356.341 377.021 356.831 376.808C357.333 376.584 357.887 376.472 358.495 376.472C358.869 376.472 359.242 376.504 359.615 376.568C359.989 376.632 360.346 376.733 360.687 376.872L360.351 378.136C360.127 378.029 359.866 377.944 359.567 377.88C359.279 377.816 358.97 377.784 358.639 377.784C357.807 377.784 357.167 378.045 356.719 378.568C356.282 379.091 356.063 379.853 356.063 380.856C356.063 381.304 356.111 381.715 356.207 382.088C356.314 382.461 356.474 382.781 356.687 383.048C356.911 383.315 357.194 383.523 357.535 383.672C357.877 383.811 358.293 383.88 358.783 383.88C359.178 383.88 359.535 383.843 359.855 383.768C360.175 383.693 360.426 383.613 360.607 383.528L360.815 384.776C360.73 384.829 360.607 384.883 360.447 384.936C360.287 384.979 360.106 385.016 359.903 385.048C359.701 385.091 359.482 385.123 359.247 385.144C359.023 385.176 358.805 385.192 358.591 385.192ZM363.805 376.68H366.957V377.928H363.805V381.768C363.805 382.184 363.837 382.531 363.901 382.808C363.965 383.075 364.061 383.288 364.189 383.448C364.317 383.597 364.477 383.704 364.669 383.768C364.861 383.832 365.085 383.864 365.341 383.864C365.789 383.864 366.146 383.816 366.413 383.72C366.69 383.613 366.882 383.539 366.989 383.496L367.277 384.728C367.127 384.803 366.866 384.893 366.493 385C366.119 385.117 365.693 385.176 365.213 385.176C364.647 385.176 364.178 385.107 363.805 384.968C363.442 384.819 363.149 384.6 362.925 384.312C362.701 384.024 362.541 383.672 362.445 383.256C362.359 382.829 362.317 382.339 362.317 381.784V374.36L363.805 374.104V376.68ZM370.782 384.136C370.782 384.424 370.686 384.675 370.494 384.888C370.302 385.101 370.041 385.208 369.71 385.208C369.38 385.208 369.118 385.101 368.926 384.888C368.734 384.675 368.638 384.424 368.638 384.136C368.638 383.848 368.734 383.597 368.926 383.384C369.118 383.171 369.38 383.064 369.71 383.064C370.041 383.064 370.302 383.171 370.494 383.384C370.686 383.597 370.782 383.848 370.782 384.136Z" fill="#6F6F6F"/>
<mask id="mask0" mask-type="alpha" maskUnits="userSpaceOnUse" x="0" y="0" width="536" height="479">
<rect width="536" height="479" fill="#C4C4C4"/>
</mask>
<g mask="url(#mask0)">
<path d="M127.471 392.979C234.113 466.399 355.969 523.12 430.449 420.28C504.928 317.44 582.269 143.975 496.303 51.2028C410.336 -41.5692 212.111 9.98956 106.961 89.8802C-76.325 229.137 15.9955 316.232 127.471 392.979Z" fill="#858CDD" fill-opacity="0.05"/>
<g filter="url(#filter0_d)">
<rect x="25.0235" y="122.679" width="480" height="180" rx="10" fill="white"/>
</g>
<path d="M171.483 209.085C174.416 209.085 176.727 207.917 178.594 205.581L182.327 209.534C179.305 212.948 175.838 214.655 171.75 214.655C167.661 214.655 164.372 213.398 161.706 210.792C159.039 208.187 157.795 204.952 157.795 200.999C157.795 197.046 159.128 193.722 161.795 191.117C164.461 188.511 167.75 187.163 171.661 187.163C176.016 187.163 179.661 188.87 182.505 192.195L178.861 196.417C176.994 194.081 174.683 192.913 171.927 192.913C169.705 192.913 167.839 193.632 166.239 195.07C164.639 196.507 163.839 198.484 163.839 200.999C163.839 203.515 164.55 205.491 166.061 207.019C167.572 208.277 169.35 209.085 171.483 209.085ZM187.038 214.296V187.613H192.905V208.995H204.193V214.296H187.038ZM229.97 210.612C227.303 213.218 224.014 214.565 220.104 214.565C216.193 214.565 212.904 213.218 210.237 210.612C207.571 208.007 206.237 204.683 206.237 200.82C206.237 196.956 207.571 193.632 210.237 191.027C212.904 188.421 216.193 187.074 220.104 187.074C224.014 187.074 227.303 188.421 229.97 191.027C232.636 193.632 233.97 196.956 233.97 200.82C233.97 204.683 232.636 208.007 229.97 210.612ZM227.925 200.82C227.925 198.484 227.126 196.417 225.703 194.71C224.192 193.003 222.326 192.195 220.104 192.195C217.881 192.195 216.015 193.003 214.504 194.71C212.993 196.417 212.193 198.394 212.193 200.82C212.193 203.245 212.993 205.222 214.504 206.929C216.015 208.636 217.881 209.444 220.104 209.444C222.326 209.444 224.192 208.636 225.703 206.929C227.214 205.222 227.925 203.245 227.925 200.82ZM245.969 207.468C246.947 208.726 248.28 209.355 249.969 209.355C251.658 209.355 252.991 208.726 253.88 207.468C254.858 206.21 255.302 204.503 255.302 202.437V187.613H261.169V202.527C261.169 206.39 260.102 209.355 257.969 211.421C255.836 213.487 253.169 214.565 249.88 214.565C246.591 214.565 243.836 213.487 241.703 211.421C239.57 209.355 238.503 206.39 238.503 202.527V187.613H244.369V202.347C244.458 204.503 244.992 206.21 245.969 207.468ZM287.479 191.117C289.968 193.452 291.301 196.687 291.301 200.82C291.301 204.952 290.057 208.277 287.657 210.702C285.168 213.128 281.435 214.296 276.457 214.296H267.302V187.613H276.635C281.346 187.613 284.99 188.781 287.479 191.117ZM283.212 207.019C284.635 205.671 285.346 203.605 285.346 200.999C285.346 198.394 284.635 196.327 283.212 194.98C281.79 193.542 279.568 192.824 276.546 192.824H273.257V209.085H276.99C279.657 209.085 281.701 208.366 283.212 207.019ZM324.811 187.613H330.766V214.296H324.811L312.278 197.585V214.296H306.323V187.613H311.922L324.811 204.862V187.613ZM356.01 214.296L353.521 208.546H342.41L339.921 214.296H333.611L344.988 187.613H350.677L362.054 214.296H356.01ZM348.099 195.609L344.81 203.335H351.388L348.099 195.609ZM374.676 192.824V214.296H368.72V192.824H361.254V187.613H382.142V192.824H374.676ZM386.409 187.613H392.275V214.296H386.409V187.613ZM408.541 204.593L415.297 187.613H421.696L411.03 214.296H406.052L395.475 187.613H401.875L408.541 204.593ZM443.829 187.613V192.913H430.674V198.484H442.496V203.515H430.674V209.085H444.273V214.296H424.807V187.613H443.829ZM164.728 237.026C166.328 237.026 167.661 236.397 168.728 235.05L170.861 237.296C169.172 239.182 167.217 240.171 164.906 240.171C162.594 240.171 160.728 239.452 159.306 238.014C157.795 236.577 157.084 234.69 157.084 232.534C157.084 230.288 157.795 228.491 159.306 226.964C160.817 225.436 162.683 224.718 164.817 224.718C167.217 224.718 169.261 225.616 170.95 227.503L168.905 229.839C167.839 228.491 166.594 227.862 164.994 227.862C163.75 227.862 162.683 228.311 161.795 229.12C160.906 229.929 160.461 231.007 160.461 232.444C160.461 233.882 160.906 234.96 161.706 235.768C162.506 236.667 163.572 237.026 164.728 237.026ZM185.527 237.925C184.016 239.362 182.149 240.171 180.016 240.171C177.883 240.171 176.016 239.452 174.505 237.925C172.994 236.487 172.283 234.6 172.283 232.444C172.283 230.288 172.994 228.401 174.505 226.964C176.016 225.526 177.883 224.718 180.016 224.718C182.149 224.718 184.016 225.436 185.527 226.964C187.038 228.401 187.749 230.288 187.749 232.444C187.749 234.6 187.038 236.487 185.527 237.925ZM184.46 232.444C184.46 231.097 184.016 229.929 183.216 229.03C182.327 228.132 181.349 227.593 180.105 227.593C178.861 227.593 177.794 228.042 176.994 229.03C176.105 229.929 175.75 231.097 175.75 232.444C175.75 233.792 176.194 234.87 176.994 235.858C177.883 236.757 178.861 237.296 180.105 237.296C181.349 237.296 182.416 236.847 183.216 235.858C184.016 234.96 184.46 233.792 184.46 232.444ZM203.837 230.558L199.838 238.823H197.882L193.882 230.558V239.991H190.593V225.077H195.038L198.86 233.253L202.682 225.077H207.126V239.991H203.837V230.558ZM220.992 226.425C222.059 227.323 222.592 228.671 222.592 230.558C222.592 232.444 222.059 233.792 220.992 234.6C219.926 235.499 218.326 235.858 216.104 235.858H214.148V239.991H210.859V225.077H216.104C218.326 225.077 219.926 225.526 220.992 226.425ZM218.592 232.265C218.948 231.815 219.215 231.186 219.215 230.288C219.215 229.39 218.948 228.85 218.415 228.491C217.881 228.132 217.081 227.952 216.015 227.952H214.148V232.983H216.37C217.437 232.983 218.148 232.714 218.592 232.265ZM229.081 236.128C229.614 236.847 230.414 237.206 231.303 237.206C232.192 237.206 232.992 236.847 233.525 236.128C234.059 235.409 234.325 234.511 234.325 233.253V224.987H237.614V233.343C237.614 235.499 236.992 237.206 235.836 238.374C234.681 239.542 233.17 240.081 231.303 240.081C229.437 240.081 227.925 239.452 226.77 238.284C225.614 237.116 224.992 235.409 224.992 233.253V224.897H228.281V233.343C228.281 234.511 228.548 235.499 229.081 236.128ZM247.303 227.952V239.991H244.014V227.952H239.836V225.077H251.48V227.952H247.303ZM253.969 225.077H257.258V240.081H253.969V225.077ZM271.213 225.077H274.502V239.991H271.213L264.191 230.647V239.991H260.902V225.077H263.924L271.213 234.69V225.077ZM287.834 232.444H291.123V237.745C289.612 239.362 287.657 240.261 284.99 240.261C282.857 240.261 280.99 239.542 279.479 238.104C277.968 236.667 277.257 234.78 277.257 232.624C277.257 230.378 277.968 228.581 279.479 227.054C280.99 225.526 282.768 224.808 284.901 224.808C287.034 224.808 288.901 225.526 290.412 226.964L288.723 229.479C288.101 228.85 287.479 228.491 286.857 228.311C286.323 228.132 285.701 227.952 285.079 227.952C283.835 227.952 282.768 228.401 281.879 229.21C280.99 230.108 280.546 231.186 280.546 232.624C280.546 234.061 280.99 235.139 281.79 236.038C282.59 236.847 283.568 237.296 284.723 237.296C285.879 237.296 286.857 237.116 287.568 236.667L287.834 232.444ZM309.789 225.077V227.952H302.945V231.186H309.523V234.151H302.945V239.991H299.656V225.077H309.789ZM325.078 237.925C323.567 239.362 321.7 240.171 319.567 240.171C317.344 240.171 315.567 239.452 314.056 237.925C312.545 236.487 311.834 234.6 311.834 232.444C311.834 230.288 312.545 228.401 314.056 226.964C315.567 225.526 317.433 224.718 319.567 224.718C321.789 224.718 323.567 225.436 325.078 226.964C326.589 228.401 327.3 230.288 327.3 232.444C327.3 234.6 326.589 236.487 325.078 237.925ZM323.922 232.444C323.922 231.097 323.478 229.929 322.678 229.03C321.789 228.132 320.811 227.593 319.567 227.593C318.322 227.593 317.256 228.042 316.456 229.03C315.567 229.929 315.211 231.097 315.211 232.444C315.211 233.792 315.656 234.87 316.456 235.858C317.344 236.757 318.322 237.296 319.567 237.296C320.811 237.296 321.878 236.847 322.678 235.858C323.566 234.96 323.922 233.792 323.922 232.444ZM334.055 236.128C334.588 236.847 335.388 237.206 336.277 237.206C337.166 237.206 337.966 236.847 338.499 236.128C339.033 235.409 339.299 234.511 339.299 233.253V224.987H342.588V233.343C342.588 235.499 341.966 237.206 340.81 238.374C339.655 239.542 338.144 240.081 336.277 240.081C334.411 240.081 332.9 239.452 331.744 238.284C330.588 237.116 329.966 235.409 329.966 233.253V224.897H333.255V233.343C333.166 234.511 333.522 235.499 334.055 236.128ZM356.365 225.077H359.654V239.991H356.365L349.343 230.647V239.991H346.055V225.077H349.077L356.365 234.69V225.077ZM374.587 227.054C376.009 228.401 376.72 230.198 376.72 232.534C376.72 234.87 376.009 236.667 374.676 238.014C373.342 239.362 371.209 240.081 368.365 240.081H363.298V225.077H368.543C371.209 225.077 373.254 225.706 374.587 227.054ZM372.187 235.948C372.987 235.139 373.431 234.061 373.431 232.624C373.431 231.186 372.987 230.018 372.187 229.21C371.387 228.401 370.143 228.042 368.454 228.042H366.587V237.116H368.72C370.232 237.026 371.387 236.667 372.187 235.948ZM389.697 239.991L388.364 236.757H382.142L380.809 239.991H377.253L383.653 224.987H386.853L393.253 239.991H389.697ZM385.253 229.479L383.387 233.792H387.12L385.253 229.479ZM400.186 227.952V239.991H396.808V227.952H392.631V225.077H404.364V227.952H400.186ZM406.764 225.077H410.052V240.081H406.764V225.077ZM426.141 237.925C424.63 239.362 422.763 240.171 420.63 240.171C418.408 240.171 416.63 239.452 415.119 237.925C413.608 236.487 412.897 234.6 412.897 232.444C412.897 230.288 413.608 228.401 415.119 226.964C416.63 225.526 418.496 224.718 420.63 224.718C422.852 224.718 424.63 225.436 426.141 226.964C427.652 228.401 428.363 230.288 428.363 232.444C428.363 234.6 427.652 236.487 426.141 237.925ZM425.074 232.444C425.074 231.097 424.63 229.929 423.83 229.03C422.941 228.132 421.963 227.593 420.719 227.593C419.474 227.593 418.408 228.042 417.608 229.03C416.719 229.929 416.363 231.097 416.363 232.444C416.363 233.792 416.808 234.87 417.608 235.858C418.496 236.757 419.474 237.296 420.719 237.296C421.963 237.296 423.03 236.847 423.83 235.858C424.63 234.96 425.074 233.792 425.074 232.444ZM441.518 225.077H444.896V239.991H441.518L434.496 230.647V239.991H431.207V225.077H434.318L441.518 234.69V225.077Z" fill="black"/>
<path d="M94.4192 222.292H86.3306V241.518H105.263V233.253H94.4192V222.292ZM135.129 222.382V233.253H124.285V233.163V241.518H143.217V222.292H135.04L135.129 222.382ZM86.3306 203.155H94.5081L94.4192 203.065V192.194H105.263V183.929H86.3306V203.155ZM124.285 183.929V192.194H135.129V203.155H143.217V183.929H124.285Z" fill="#446CA9"/>
<path d="M123.218 203.155L112.374 192.194H124.285V183.929H105.263V192.194L116.107 203.155H123.218ZM113.441 222.292H106.33L115.307 231.366L117.085 233.253H105.263V241.518H124.285V233.163L118.863 227.772L113.441 222.292ZM135.129 203.155V215.104L133.262 213.218L124.285 204.144V211.421L129.618 216.811L135.04 222.292H143.217V203.155H135.129ZM105.263 214.026L94.5081 203.155H86.3306V222.292H94.4192V210.343L105.263 221.304V214.026Z" fill="#76C4D5"/>
</g>
<defs>
<filter id="filter0_d" x="0.0669918" y="106.279" width="529.913" height="229.913" filterUnits="userSpaceOnUse" color-interpolation-filters="sRGB">
<feFlood flood-opacity="0" result="BackgroundImageFix"/>
<feColorMatrix in="SourceAlpha" type="matrix" values="0 0 0 0 0 0 0 0 0 0 0 0 0 0 0 0 0 0 127 0"/>
<feOffset dy="8.55652"/>
<feGaussianBlur stdDeviation="12.4783"/>
<feColorMatrix type="matrix" values="0 0 0 0 0 0 0 0 0 0 0 0 0 0 0 0 0 0 0.06 0"/>
<feBlend mode="normal" in2="BackgroundImageFix" result="effect1_dropShadow"/>
<feBlend mode="normal" in="SourceGraphic" in2="effect1_dropShadow" result="shape"/>
</filter>
</defs>
</svg>
