<svg width="40" height="40" viewBox="0 0 40 40" fill="none" xmlns="http://www.w3.org/2000/svg">
<g clip-path="url(#clip0)">
<path d="M37.0349 31.8964V26.2018H21.1719V23.0206H31.7853C35.3787 23.0206 38.3023 20.097 38.3023 16.5036C38.3023 13.2928 35.9518 10.6039 32.8809 10.0797C32.2485 6.59668 29.2169 3.99811 25.5743 3.99811C24.7507 3.99811 23.9304 4.13635 23.1546 4.40338C21.4691 1.69647 18.4723 0 15.2374 0C10.0992 0 5.91888 4.1803 5.91888 9.31854C5.91888 9.67346 5.93903 10.0281 5.979 10.3799C3.44086 11.2988 1.69769 13.7143 1.69769 16.5036C1.69769 20.0974 4.62128 23.0206 8.21472 23.0206H18.8281V26.2018H2.96509V31.8964C1.25305 32.403 0 33.989 0 35.863C0 38.1442 1.85577 40 4.13696 40C6.41785 40 8.27362 38.1442 8.27362 35.863C8.27362 33.989 7.02057 32.403 5.30884 31.8964V28.5455H18.8281V31.8964C17.1161 32.403 15.863 33.989 15.863 35.863C15.863 38.1442 17.7188 40 20 40C22.2812 40 24.137 38.1442 24.137 35.863C24.137 33.989 22.8839 32.403 21.1719 31.8964V28.5455H34.6912V31.8964C32.9794 32.403 31.7264 33.989 31.7264 35.863C31.7264 38.1442 33.5822 40 35.863 40C38.1442 40 40 38.1442 40 35.863C40 33.989 38.7469 32.403 37.0349 31.8964ZM4.04144 16.5036C4.04144 14.4604 5.5014 12.7304 7.51312 12.3901L8.75153 12.1808L8.45703 10.9601C8.32794 10.4245 8.26233 9.87213 8.26233 9.31885C8.26263 5.47272 11.3916 2.34375 15.2374 2.34375C17.9471 2.34375 20.4333 3.93402 21.5717 6.39496L22.0923 7.52075L23.1866 6.93726C23.9273 6.54205 24.7308 6.34186 25.5743 6.34186C28.3075 6.34186 30.5386 8.47961 30.6534 11.2085L30.7004 12.323L31.8158 12.3312C34.1 12.3477 35.9586 14.2194 35.9586 16.5036C35.9586 18.8049 34.0863 20.6769 31.7853 20.6769H8.21472C5.91339 20.6772 4.04144 18.8049 4.04144 16.5036ZM5.92987 35.863C5.92987 36.8518 5.12573 37.6562 4.13696 37.6562C3.14819 37.6562 2.34375 36.8518 2.34375 35.863C2.34375 34.8743 3.14819 34.0701 4.13696 34.0701C5.12573 34.0701 5.92987 34.8743 5.92987 35.863ZM21.7932 35.863C21.7932 36.8518 20.9888 37.6562 20 37.6562C19.0112 37.6562 18.2068 36.8518 18.2068 35.863C18.2068 34.8743 19.0112 34.0701 20 34.0701C20.9888 34.0701 21.7932 34.8743 21.7932 35.863ZM35.863 37.6562C34.8743 37.6562 34.0701 36.8518 34.0701 35.863C34.0701 34.8743 34.8743 34.0701 35.863 34.0701C36.8518 34.0701 37.6562 34.8743 37.6562 35.863C37.6562 36.8518 36.8518 37.6562 35.863 37.6562Z" fill="white"/>
</g>
<defs>
<clipPath id="clip0">
<rect width="40" height="40" fill="white"/>
</clipPath>
</defs>
</svg>
