<svg width="40" height="40" viewBox="0 0 40 40" fill="none" xmlns="http://www.w3.org/2000/svg">
<g clip-path="url(#clip0)">
<path d="M24.9234 40H15.0766V36.8179C13.8669 36.4633 12.7011 35.9787 11.5927 35.3699L9.33899 37.6236L2.37671 30.6607L4.63013 28.4073C4.0213 27.2989 3.53668 26.1328 3.18237 24.9234H0V15.0766H3.18207C3.53668 13.8672 4.0213 12.7011 4.63013 11.5927L2.37671 9.33929L9.33929 2.3764L11.593 4.63013C12.7011 4.0213 13.8669 3.53668 15.0766 3.18237V0H24.9234V3.18207C26.1331 3.53668 27.2989 4.0213 28.4073 4.63013L30.661 2.3764L37.6236 9.33899L35.3699 11.5927C35.9787 12.7008 36.4633 13.8669 36.8179 15.0766H40V24.9234H36.8179C36.4633 26.1328 35.9787 27.2989 35.3699 28.407L37.6236 30.6607L30.661 37.6233L28.4073 35.3699C27.2989 35.9784 26.1331 36.4633 24.9234 36.8176V40ZM17.4203 37.6562H22.5797V34.9878L23.4827 34.7751C25.0717 34.4006 26.5842 33.772 27.9788 32.9065L28.7683 32.4167L30.6607 34.3091L34.3088 30.661L32.4164 28.7686L32.9065 27.9791C33.772 26.5845 34.4006 25.0717 34.7748 23.483L34.9878 22.5797H37.6562V17.4207H34.9878L34.7751 16.5173C34.4006 14.9286 33.772 13.4158 32.9065 12.0212L32.4167 11.2317L34.3091 9.33929L30.661 5.69122L28.7683 7.58362L27.9788 7.09381C26.5845 6.22833 25.0717 5.59967 23.4827 5.22522L22.5797 5.01251V2.34375H17.4203V5.01221L16.5173 5.22491C14.9283 5.59937 13.4155 6.22803 12.0212 7.09351L11.2317 7.58331L9.33899 5.69092L5.69092 9.33899L7.58331 11.2314L7.09351 12.0209C6.22803 13.4155 5.59937 14.9283 5.22491 16.517L5.01221 17.4203H2.34375V22.5793H5.01221L5.22491 23.4827C5.59937 25.0714 6.22803 26.5842 7.09351 27.9788L7.58331 28.7683L5.69092 30.6607L9.33899 34.3088L11.2317 32.4164L12.0212 32.9062C13.4155 33.7717 14.9283 34.4003 16.5173 34.7748L17.4203 34.9875V37.6562Z" fill="white"/>
<path d="M14.6602 27.0049L9.14844 20.0005L14.6602 12.9961L16.502 14.4454L12.1309 20.0005L16.502 25.5556L14.6602 27.0049Z" fill="white"/>
<path d="M25.3398 27.0049L23.498 25.5556L27.8691 20.0005L23.498 14.4454L25.3398 12.9961L30.8516 20.0005L25.3398 27.0049Z" fill="white"/>
<path d="M18.8281 12.9648H21.1719V27.0359H18.8281V12.9648Z" fill="white"/>
</g>
<defs>
<clipPath id="clip0">
<rect width="40" height="40" fill="white"/>
</clipPath>
</defs>
</svg>
