<svg width="19" height="23" viewBox="0 0 19 23" fill="none" xmlns="http://www.w3.org/2000/svg">
<path d="M17.8406 9.84309H10.6633C10.0107 9.84309 9.3848 9.58383 8.92332 9.12235C8.46183 8.66086 8.20257 8.03496 8.20257 7.38232V0.205064C8.20257 0.150678 8.18097 0.098519 8.14251 0.060062C8.10405 0.021605 8.0519 0 7.99751 0H3.28103C2.41085 0 1.5763 0.345679 0.960991 0.960991C0.345679 1.5763 0 2.41085 0 3.28103V19.6862C0 20.5564 0.345679 21.3909 0.960991 22.0062C1.5763 22.6215 2.41085 22.9672 3.28103 22.9672H14.7646C15.6348 22.9672 16.4694 22.6215 17.0847 22.0062C17.7 21.3909 18.0457 20.5564 18.0457 19.6862V10.0482C18.0457 9.99377 18.0241 9.94161 17.9856 9.90315C17.9471 9.86469 17.895 9.84309 17.8406 9.84309ZM13.1241 18.0457H4.92154C4.704 18.0457 4.49536 17.9592 4.34153 17.8054C4.18771 17.6516 4.10129 17.443 4.10129 17.2254C4.10129 17.0079 4.18771 16.7992 4.34153 16.6454C4.49536 16.4916 4.704 16.4051 4.92154 16.4051H13.1241C13.3417 16.4051 13.5503 16.4916 13.7041 16.6454C13.858 16.7992 13.9444 17.0079 13.9444 17.2254C13.9444 17.443 13.858 17.6516 13.7041 17.8054C13.5503 17.9592 13.3417 18.0457 13.1241 18.0457ZM13.1241 13.9444H4.92154C4.704 13.9444 4.49536 13.858 4.34153 13.7041C4.18771 13.5503 4.10129 13.3417 4.10129 13.1241C4.10129 12.9066 4.18771 12.6979 4.34153 12.5441C4.49536 12.3903 4.704 12.3039 4.92154 12.3039H13.1241C13.3417 12.3039 13.5503 12.3903 13.7041 12.5441C13.858 12.6979 13.9444 12.9066 13.9444 13.1241C13.9444 13.3417 13.858 13.5503 13.7041 13.7041C13.5503 13.858 13.3417 13.9444 13.1241 13.9444Z" fill="#007BFF"/>
<path d="M17.3908 8.0272L10.0183 0.654621C10.0039 0.640369 9.9857 0.630672 9.96587 0.626752C9.94604 0.622831 9.92549 0.624861 9.90681 0.632586C9.88812 0.640311 9.87214 0.653386 9.86087 0.670168C9.8496 0.68695 9.84354 0.70669 9.84345 0.726907V7.38176C9.84345 7.5993 9.92987 7.80794 10.0837 7.96177C10.2375 8.11559 10.4462 8.20201 10.6637 8.20201H17.3186C17.3388 8.20193 17.3585 8.19587 17.3753 8.1846C17.3921 8.17333 17.4052 8.15734 17.4129 8.13866C17.4206 8.11998 17.4226 8.09943 17.4187 8.0796C17.4148 8.05977 17.4051 8.04153 17.3908 8.0272Z" fill="#007BFF"/>
</svg>
