<svg width="130" height="129" viewBox="0 0 130 129" fill="none" xmlns="http://www.w3.org/2000/svg">
<g filter="url(#filter0_d)">
<rect x="33.0242" y="14" width="63.1909" height="63" rx="31.5" fill="#858CDD"/>
</g>
<rect x="25.5" y="6.5" width="78.2394" height="78" rx="39" stroke="#858CDD" stroke-opacity="0.2"/>
<g clip-path="url(#clip0)">
<path d="M67.51 41.5965L66.3928 37.4396C66.6519 33.1369 66.6624 33.3495 66.5946 33.0972C66.2874 31.9543 65.1049 31.2736 63.9585 31.5798L58.2118 33.115C57.0655 33.4213 56.3828 34.6002 56.6899 35.7431C56.7577 35.9952 56.6609 35.807 59.0422 39.4028L60.1595 43.5602C56.0233 46.3263 54.064 51.4367 55.3719 56.3031C57.047 62.5358 63.4959 66.2478 69.7475 64.5778C75.9991 62.9077 79.7223 56.4784 78.0472 50.2456C76.7391 45.3792 72.4793 41.9301 67.51 41.5965ZM62.0745 45.0995C62.5626 44.8249 62.7748 44.2506 62.6097 43.7386C62.6079 43.7316 62.607 43.7245 62.6051 43.7175C61.1182 38.1849 61.2288 38.5083 61.0877 38.2918C61.0517 38.2361 60.9329 38.0573 59.0911 35.2762L64.2809 33.8898C64.0499 37.7244 64.0433 37.5663 64.0842 37.7761C64.1027 37.873 65.4621 42.9193 65.4785 42.9753C65.5934 43.4996 66.0641 43.8897 66.6237 43.8842C71.712 43.8341 75.8825 47.8209 76.1159 52.8413L67.7346 55.0802C67.3848 52.8949 65.2134 51.5071 63.0899 52.0743C60.9632 52.6425 59.783 54.9291 60.5749 56.9929L58.3461 57.5883C56.035 53.133 57.6347 47.5971 62.0745 45.0995ZM62.6974 56.0255C62.4969 55.2795 62.9426 54.5099 63.6908 54.31C64.439 54.1102 65.2108 54.5544 65.4113 55.3005C65.6118 56.0465 65.1662 56.816 64.418 57.0159C63.6698 57.2158 62.8979 56.7715 62.6974 56.0255ZM69.1465 62.3421C65.6411 63.2785 62.0588 62.1052 59.7605 59.6067L62.2886 58.9314C64.0276 59.8658 66.1848 59.2906 67.2229 57.6132L75.9033 55.2943C75.1659 58.6037 72.6519 61.4057 69.1465 62.3421Z" fill="white"/>
<path d="M69.9196 51.1139C70.579 50.9377 70.9718 50.2595 70.7951 49.6021C70.6184 48.9447 69.9381 48.5531 69.2787 48.7293C68.6193 48.9054 68.2265 49.5836 68.4032 50.2411C68.5799 50.8985 69.2602 51.29 69.9196 51.1139Z" fill="white"/>
<path d="M62.4266 48.876C62.7085 49.4342 63.3788 49.6895 63.981 49.4016C64.555 49.113 64.7899 48.4379 64.5083 47.8519C64.1897 47.221 63.4202 47.03 62.8549 47.3814C62.3276 47.7185 62.1728 48.3479 62.4266 48.876Z" fill="white"/>
<path d="M61.4852 28.6808C61.7731 29.2509 62.4501 29.4882 63.0397 29.2065C63.6136 28.9178 63.8485 28.2427 63.5669 27.6567C63.2535 27.0361 62.4946 26.8298 61.9128 27.1865C61.3723 27.5371 61.238 28.1665 61.4852 28.6808Z" fill="white"/>
<path d="M56.361 28.692C56.6506 29.2655 57.3279 29.4984 57.9154 29.2176C58.4929 28.9272 58.7227 28.2505 58.4427 27.6679C58.1277 27.0442 57.3681 26.8424 56.7885 27.1976C56.2561 27.5431 56.11 28.1697 56.361 28.692Z" fill="white"/>
</g>
<defs>
<filter id="filter0_d" x="0.0241699" y="0" width="129.191" height="129" filterUnits="userSpaceOnUse" color-interpolation-filters="sRGB">
<feFlood flood-opacity="0" result="BackgroundImageFix"/>
<feColorMatrix in="SourceAlpha" type="matrix" values="0 0 0 0 0 0 0 0 0 0 0 0 0 0 0 0 0 0 127 0"/>
<feOffset dy="19"/>
<feGaussianBlur stdDeviation="16.5"/>
<feColorMatrix type="matrix" values="0 0 0 0 0.521569 0 0 0 0 0.54902 0 0 0 0 0.866667 0 0 0 0.25 0"/>
<feBlend mode="normal" in2="BackgroundImageFix" result="effect1_dropShadow"/>
<feBlend mode="normal" in="SourceGraphic" in2="effect1_dropShadow" result="shape"/>
</filter>
<clipPath id="clip0">
<rect width="39.6117" height="39.508" fill="white" transform="matrix(0.966121 -0.258089 0.259551 0.965729 40.3589 31.5352)"/>
</clipPath>
</defs>
</svg>
