<svg width="62" height="62" viewBox="0 0 62 62" fill="none" xmlns="http://www.w3.org/2000/svg">
<g clip-path="url(#clip0)">
<path d="M34.6466 26.0584L33.2367 20.7965C33.5637 15.3501 33.577 15.6192 33.4914 15.2998C33.1038 13.853 31.6114 12.9915 30.1647 13.3791L22.9123 15.3224C21.4657 15.71 20.6041 17.2023 20.9917 18.6491C21.0772 18.9682 20.9551 18.73 23.9602 23.2816L25.3703 28.5441C20.1505 32.0455 17.6778 38.5144 19.3284 44.6744C21.4424 52.5639 29.5808 57.2626 37.4703 55.1486C45.3598 53.0346 50.0586 44.8963 47.9446 37.0067C46.2938 30.8466 40.9179 26.4806 34.6466 26.0584ZM27.787 30.4926C28.4031 30.145 28.6708 29.4181 28.4624 28.7699C28.4602 28.761 28.4591 28.7521 28.4567 28.7433C26.5802 21.74 26.7198 22.1494 26.5417 21.8753C26.4962 21.8048 26.3464 21.5784 24.022 18.058L30.5715 16.3031C30.28 21.157 30.2717 20.9569 30.3232 21.2224C30.3467 21.3451 32.0621 27.7329 32.0828 27.8037C32.2279 28.4674 32.822 28.9612 33.5281 28.9542C39.9495 28.8908 45.2127 33.9374 45.5073 40.2923L34.9301 43.1264C34.4887 40.3602 31.7484 38.6034 29.0685 39.3215C26.3846 40.0406 24.8951 42.9351 25.8945 45.5475L23.0819 46.3011C20.1652 40.6616 22.1841 33.6541 27.787 30.4926ZM28.5731 44.3229C28.3201 43.3786 28.8825 42.4045 29.8268 42.1515C30.771 41.8985 31.7451 42.4609 31.9981 43.4052C32.2512 44.3496 31.6888 45.3236 30.7445 45.5766C29.8003 45.8296 28.8261 45.2673 28.5731 44.3229ZM36.7119 52.3186C32.2881 53.504 27.7672 52.0188 24.8668 48.8562L28.0572 48.0013C30.2518 49.1842 32.9743 48.456 34.2843 46.3327L45.239 43.3974C44.3084 47.5866 41.1357 51.1333 36.7119 52.3186Z" fill="white"/>
<path d="M37.6872 38.1063C38.5194 37.8833 39.015 37.0248 38.7921 36.1926C38.5691 35.3605 37.7106 34.8648 36.8784 35.0878C36.0462 35.3108 35.5506 36.1693 35.7735 37.0014C35.9965 37.8336 36.855 38.3293 37.6872 38.1063Z" fill="white"/>
<path d="M28.2309 35.2732C28.5866 35.9798 29.4326 36.3029 30.1926 35.9386C30.9169 35.5732 31.2134 34.7186 30.8579 33.9768C30.4559 33.1783 29.4847 32.9365 28.7713 33.3814C28.106 33.808 27.9105 34.6047 28.2309 35.2732Z" fill="white"/>
<path d="M27.0431 9.71004C27.4064 10.4316 28.2608 10.732 29.0048 10.3754C29.7291 10.01 30.0256 9.15545 29.6701 8.41368C29.2746 7.62805 28.317 7.367 27.5826 7.81844C26.9005 8.26226 26.7311 9.05893 27.0431 9.71004Z" fill="white"/>
<path d="M20.5764 9.72366C20.9418 10.4496 21.7966 10.7445 22.5381 10.389C23.2669 10.0213 23.5568 9.16476 23.2034 8.42729C22.8059 7.63783 21.8473 7.38242 21.1159 7.83206C20.444 8.26931 20.2596 9.06251 20.5764 9.72366Z" fill="white"/>
</g>
<defs>
<clipPath id="clip0">
<rect width="50" height="50" fill="white" transform="translate(0.380859 13.3223) rotate(-15)"/>
</clipPath>
</defs>
</svg>
