<svg width="22" height="23" viewBox="0 0 22 23" fill="none" xmlns="http://www.w3.org/2000/svg">
<path d="M10.8792 0C9.45654 0 8.36862 1.14836 8.36862 2.65006V7.95019C8.36862 9.45189 9.45654 10.6003 10.8792 10.6003H15.9004L19.2478 14.1337V10.6003C20.6705 10.6003 21.7584 9.45189 21.7584 7.95019V2.65006C21.7584 1.14836 20.6705 0 19.2478 0H10.8792ZM14.384 2.65006H15.8217L17.2343 7.95019H15.979L15.6384 6.62516H14.3831L14.0702 7.95019H12.9714L14.384 2.65006ZM15.0635 3.53342C14.9798 3.88676 14.8861 4.31784 14.8016 4.58284L14.5673 5.7418H15.5606L15.3246 4.58196C15.1581 4.31783 15.0635 3.88676 15.0635 3.53342ZM2.51059 8.83354C1.08792 8.83354 0 9.9819 0 11.4836V16.7837C0 18.2854 1.08792 19.4338 2.51059 19.4338V22.9672L5.85803 19.4338H10.8792C12.3019 19.4338 13.3898 18.2854 13.3898 16.7837V11.4836H10.8792C9.28917 11.4836 8.02885 10.3352 7.61042 8.83354H2.51059ZM6.35513 11.4006C7.77779 11.4006 8.44728 12.6373 8.44728 14.0506C8.44728 15.2873 8.04475 16.0717 7.37526 16.4251C7.71001 16.6018 8.10668 16.6954 8.52511 16.7837L8.21212 17.6671C7.62632 17.4904 7.01876 17.2148 6.43296 16.9489C6.34927 16.8606 6.20282 16.8668 6.11913 16.8668C5.1149 16.7784 4.18431 15.9004 4.18431 14.1337C4.18431 12.632 5.01615 11.4006 6.35513 11.4006ZM6.35513 12.367C5.68564 12.367 5.36094 13.162 5.36094 14.1337C5.36094 15.1937 5.68564 15.9004 6.35513 15.9004C7.02462 15.9004 7.37443 15.1054 7.37443 14.1337C7.37443 13.162 7.02462 12.367 6.35513 12.367Z" fill="#042A2B"/>
</svg>
