<svg xmlns="http://www.w3.org/2000/svg" xmlns:xlink="http://www.w3.org/1999/xlink" viewBox="0 0 1423 2992" xmlns:v="https://vecta.io/nano"><style><![CDATA[.BT{fill:none}.BU{font-family:Ubuntu-Regular}.BV{font-size:16px}.BW{fill:#6f6f6f}.BX{stroke-width:18}.BY{fill:#fff}.BZ{fill:#042a2b}.Ba{font-family:Ubuntu-Medium;font-weight:400}.Bb{font-size:56px}.Bc{stroke-opacity:.3}.Bd{fill:#fcfcfc}.Be{stroke-opacity:.2}.Bf{fill-opacity:.05}.Bg{fill-opacity:.2}.Bh{fill:#545454}.Bi{fill:#fdf49e}.Bj{fill:#939ae1}.Bk{overflow:visible}.Bl{stroke-opacity:.25}.Bm{fill:#f2f3fc}.Bn{fill:#fcf39d}.Bo{fill:#050505}]]></style><defs><style>@font-face{font-family:Ubuntu;}text{font-family: Ubuntu !important;}</style><path id="A" d="M116 318.1c27 120.1 75.3 238.3 193.9 214.8 118.5-23.6 284.7-94.5 284.7-214.8 0-120.2-171.7-212.3-296.8-224.5-218.1-21.4-210 99-181.8 224.5z"/><path id="B" d="M145.2 1754.1c26.9 120.1 75.3 238.3 193.8 214.7s284.7-94.5 284.7-214.7-171.7-212.3-296.8-224.5c-217.9-21.4-209.8 99-181.7 224.5z"/><path id="C" d="M925.4 2295c118.5-56.3 246.6-95.9 288.6 4.8s68 266-36.4 341.9-274.8 9.7-351.4-73.2c-133.4-144.5-24.6-214.6 99.2-273.5z"/><path id="D" d="M913 122h0c22.1 0 40 17.9 40 40h0c0 22.1-17.9 40-40 40h0c-22.1 0-40-17.9-40-40h0c0-22.1 17.9-40 40-40z"/><path id="E" d="M913 112.5h0c27.3 0 49.5 22.2 49.5 49.5h0c0 27.3-22.2 49.5-49.5 49.5h0c-27.3 0-49.5-22.2-49.5-49.5h0c0-27.3 22.2-49.5 49.5-49.5z"/></defs><use xlink:href="#A" fill="#858cdd" class="Bf"/><radialGradient id="F" cx="167.701" cy="2035.302" r="1" gradientTransform="matrix(1.361795e-14,222.398,246.508,-1.509426e-14,-501370.2188,-36982.957)" gradientUnits="userSpaceOnUse"><stop offset="0" stop-color="#858cdd"/><stop offset="1" stop-color="#858cdd" stop-opacity="0"/></radialGradient><use xlink:href="#A" fill="url(#F)" class="Bg"/><path d="M147.1 428.8c40.7 46.2 85.8 89.3 132.2 111.2 23.2 10.9 46.8 16.6 70.3 14.7s47-11.4 70-30.8c46.3-38.8 97.3-93.7 129.5-152 32.2-58.4 45.6-120 16.9-172.5-28.8-52.5-91.7-78.4-162-84.9-70.3-6.6-147.8 6.2-205.5 30.9C97.7 188.3 63.9 235.1 65.6 283c.8 24 10.6 48.4 25.5 72.8 14.8 24.4 34.8 48.8 56 73z" stroke="#858cdd" class="BT Be"/><linearGradient id="G" gradientUnits="userSpaceOnUse" x1="1068.585" y1="2185.221" x2="887.581" y2="2411.221" gradientTransform="matrix(1 0 0 -1 0 2992)"><stop offset="0" stop-color="#ebebeb" stop-opacity="0"/><stop offset=".51" stop-color="#858cdd"/><stop offset=".776" stop-color="#858cdd"/><stop offset="1" stop-color="#eef0f6"/></linearGradient><path d="M1081.6,816c0-141-98-141-179.5-141" stroke="url(#G)" class="BT BX Bc"/><linearGradient id="H" gradientUnits="userSpaceOnUse" x1="548.069" y1="2569.155" x2="623.069" y2="2341.155" gradientTransform="matrix(1 0 0 -1 0 2992)"><stop offset="0" stop-color="#eef0f6" stop-opacity="0"/><stop offset=".776" stop-color="#858cdd"/><stop offset="1" stop-color="#858cdd"/></linearGradient><path d="M331.6,534c0,141,98,141,179.5,141h391.5" stroke="url(#H)" class="BT BX Bc"/><image width="108" height="108" xlink:href="B653FDD0.png" transform="translate(395 108)" opacity=".1" class="Bk"/><path d="M443.6 116.3l45.3 12.2c2.1.6 3.4 2.8 2.8 4.9l-12.2 45.3c-.6 2.1-2.8 3.4-4.9 2.8l-45.3-12.2c-2.1-.6-3.4-2.8-2.8-4.9l12.2-45.3c.5-2.1 2.7-3.4 4.9-2.8z" class="BY"/><image width="108" height="108" xlink:href="B653FDD1.png" transform="translate(54 174)" opacity=".1" class="Bk"/><path d="M111.6 182.9l36.5 20.5c1.9 1.1 2.6 3.5 1.5 5.4l-20.5 36.5c-1.1 1.9-3.5 2.6-5.4 1.5l-36.5-20.5c-1.9-1.1-2.6-3.5-1.5-5.4l20.5-36.5c1-1.9 3.5-2.6 5.4-1.5z" class="BY"/><image width="147" height="102" xlink:href="B653FDD7.png" transform="translate(24 281)" opacity=".1" class="Bk"/><path d="M58.4 312.9l88.6-23.8c2.1-.6 4.3.7 4.9 2.8l7.4 27.6c.6 2.1-.7 4.3-2.8 4.9l-88.6 23.8c-2.1.6-4.3-.7-4.9-2.8l-7.4-27.6c-.6-2.1.7-4.3 2.8-4.9z" class="BY"/><path d="M879.3 922.3c96-92 206.7-171 279.3-87.5 72.6 83.6 150.3 234.3 74.1 340.6-76.2 106.4-261.4 97-361.5 41.7-174.5-96.4-92.2-198.6 8.1-294.8z" fill="#109b67" class="Bf"/><path d="M957.8 874.1c63.9-18.4 129.4-32.2 182.2-27.9 26.4 2.1 49.5 8.7 67.6 21.5s31.2 31.7 37.5 58.5c12.7 53.8 18.7 123.1 6.9 186.2s-41.3 120-99.5 149.3c-58.3 29.3-127.3 20.4-189.5-7.8-62.3-28.2-117.8-75.6-149.2-123.3-27.4-41.6-40.4-76-42.4-104.8s6.9-52 23.3-71.2c16.5-19.3 40.5-34.6 68.9-47.4 28.3-13 60.8-23.5 94.2-33.1z" stroke="#109b67" class="BT Be"/><radialGradient id="I" cx="173.137" cy="2040.16" r="1" gradientTransform="matrix(216.3397 -108.6226 -100.4705 -200.1034 168567.25 428113.9375)" gradientUnits="userSpaceOnUse"><stop offset="0" stop-color="#109b67"/><stop offset="1" stop-color="#109b67" stop-opacity="0"/></radialGradient><path d="M957.7 873.6c127.8-36.8 262.5-55.3 287.9 52.5 25.4 107.7 24.1 277.3-92.9 336-116.9 58.7-276.5-35.7-339.4-131.3-109.6-166.5 10.8-218.7 144.4-257.2z" fill="url(#I)" class="Bg"/><linearGradient id="J" gradientUnits="userSpaceOnUse" x1="344.532" y1="1455.221" x2="525.532" y2="1681.221" gradientTransform="matrix(1 0 0 -1 0 2992)"><stop offset="0" stop-color="#ebebeb" stop-opacity="0"/><stop offset=".51" stop-color="#109b67"/></linearGradient><path d="M331.6,1546c0-141,98-141,179.5-141" stroke="url(#J)" class="BT BX Bc"/><linearGradient id="K" gradientUnits="userSpaceOnUse" x1="865.046" y1="1839.156" x2="790.046" y2="1611.156" gradientTransform="matrix(1 0 0 -1 0 2992)"><stop offset="0" stop-color="#eef0f6" stop-opacity="0"/><stop offset="1" stop-color="#109b67"/></linearGradient><path d="M1081.6,1264c0,141-98,141-179.5,141H510.6" stroke="url(#K)" class="BT BX Bc"/><use xlink:href="#B" fill="#f0b740" class="Bf"/><radialGradient id="L" cx="167.701" cy="2035.302" r="1" gradientTransform="matrix(1.361556e-14,222.359,246.465,-1.509163e-14,-501253.4688,-35540.2969)" gradientUnits="userSpaceOnUse"><stop offset="0" stop-color="#f0b740"/><stop offset="1" stop-color="#f0b740" stop-opacity="0"/></radialGradient><use xlink:href="#B" fill="url(#L)" class="Bg"/><path d="M176.4 1864.7c40.7 46.2 85.7 89.3 132.2 111.2 23.2 11 46.8 16.6 70.2 14.7 23.5-1.9 46.9-11.4 70-30.8 46.3-38.8 97.3-93.7 129.5-152s45.6-120 16.8-172.5-91.7-78.4-162-84.9c-70.3-6.6-147.8 6.2-205.5 30.9-100.7 43-134.5 89.8-132.8 137.7.8 24 10.6 48.3 25.5 72.8 14.9 24.3 34.8 48.8 56.1 72.9z" stroke="#f0b740" class="BT Bl"/><linearGradient id="M" gradientUnits="userSpaceOnUse" x1="612.557" y1="1974" x2="612.557" y2="2115"><stop offset="0" stop-color="#f0b740" stop-opacity="0"/><stop offset="1" stop-color="#f0b740"/></linearGradient><path d="M331.6,1974c0,141,98,141,179.5,141h391.5" stroke="url(#M)" class="BT BX Bc"/><linearGradient id="N" gradientUnits="userSpaceOnUse" x1="1080.193" y1="2237.166" x2="932.19" y2="2086.617"><stop offset="0" stop-color="#ebebeb" stop-opacity="0"/><stop offset="1" stop-color="#f3e2c0"/></linearGradient><path d="M1081.6,2256c0-141-98-141-179.5-141" stroke="url(#N)" class="BT BX"/><linearGradient id="O" gradientUnits="userSpaceOnUse" x1="800.559" y1="2710" x2="800.559" y2="2851"><stop offset="0" stop-color="#25c187" stop-opacity="0"/><stop offset="1" stop-color="#25c187"/></linearGradient><path d="M1081.6,2710c0,141-98,141-179.5,141H510.6" stroke="url(#O)" class="BT BX Bc"/><linearGradient id="P" gradientUnits="userSpaceOnUse" x1="326.918" y1="2988.64" x2="487.918" y2="2798.045"><stop offset="0" stop-color="#ebebeb" stop-opacity="0"/><stop offset="1" stop-color="#b6e6d5"/></linearGradient><path d="M331.6,2992c0-141,98-141,179.5-141" stroke="url(#P)" class="BT BX"/><use xlink:href="#C" fill="#25c187" class="Bf"/><path d="M987.2 2266.4c65.1-7.5 131.2-10.2 181.8 2.5 25.3 6.4 46.7 16.6 62.2 31.9 15.5 15.4 25.2 35.9 27 63 3.6 54.4-1.9 122.8-23.6 182.3s-59.7 110-121.1 129-127.1-.9-183.1-38.4c-56-37.6-102.3-92.7-125.1-144.3-19.9-44.9-26.9-80.5-24.2-108.9 2.7-28.3 15.1-49.5 34.3-65.5 19.2-16.1 45.1-27 74.7-34.9s63-12.8 97.1-16.7z" stroke="#25c187" class="BT Bl"/><radialGradient id="Q" cx="173.773" cy="2039.959" r="1" gradientTransform="matrix(193.0869,-140.4533,-129.9125,-178.5961,232506.6719,391201.75)" gradientUnits="userSpaceOnUse"><stop offset="0" stop-color="#25c187"/><stop offset="1" stop-color="#f0b740" stop-opacity="0"/><stop offset="1" stop-color="#25c187"/></radialGradient><use xlink:href="#C" fill="url(#Q)" class="Bg"/><text transform="translate(861 283.304)" class="BZ Ba Bb">Easy to write chaos </text><text transform="translate(861 356.304)" class="BZ Ba Bb">experiments</text><text transform="translate(863 425.444)" class="BU BV Bh">SDK is available in GO, Python and Ansible. A basic experiment structure is </text><text transform="translate(863 452.444)" class="BU BV Bh">created quickly using SDK and developers and SREs just need to add the </text><text transform="translate(863 479.444)" class="BU BV Bh">chaos logic into to make a new experiment. Your chaos logic is turned into a </text><text transform="translate(863 506.444)" class="BU BV Bh">well orchestrated chaos experiment quickly and easily. </text><use xlink:href="#D" fill="#858cdd"/><use xlink:href="#E" stroke="#858cdd" class="BT Be"/><defs><path id="R" transform="matrix(.9659 -.2588 .2588 .9659 -10.8189 241.8217)" d="M888 137h50v50h-50z"/></defs><clipPath id="S"><use xlink:href="#R"/></clipPath><g clip-path="url(#S)" class="BY"><path d="M916.6 157.1l-1.4-5.3.3-5.5c-.4-1.4-1.9-2.3-3.3-1.9l-7.3 1.9c-1.4.4-2.3 1.9-1.9 3.3.1.3 0 .1 3 4.6l1.4 5.3c-5.2 3.5-7.7 10-6 16.1 2.1 7.9 10.3 12.6 18.1 10.5 7.9-2.1 12.6-10.3 10.5-18.1-1.7-6.2-7.1-10.5-13.4-10.9zm-6.8 4.4c.6-.3.9-1.1.7-1.7-1.9-7-1.7-6.6-1.9-6.9 0-.1-.2-.3-2.5-3.8l6.5-1.8c-.3 4.9-.3 4.7-.2 4.9 0 .1 1.7 6.5 1.8 6.6.1.7.7 1.2 1.4 1.1 6.4-.1 11.7 5 12 11.3L917 174c-.4-2.8-3.2-4.5-5.9-3.8s-4.2 3.6-3.2 6.2l-2.8.8c-2.9-5.5-.9-12.5 4.7-15.7zm.8 13.8c-.3-.9.3-1.9 1.3-2.2.9-.3 1.9.3 2.2 1.3s-.3 1.9-1.3 2.2c-1 .2-2-.3-2.2-1.3zm8.1 8c-4.4 1.2-8.9-.3-11.8-3.5l3.2-.9c2.2 1.2 4.9.5 6.2-1.7l11-2.9c-1 4.3-4.2 7.8-8.6 9zm1-14.2c.8-.2 1.3-1.1 1.1-1.9s-1.1-1.3-1.9-1.1-1.3 1.1-1.1 1.9 1.1 1.3 1.9 1.1zm-9.5-2.8a1.59 1.59 0 0 0 2 .7c.7-.4 1-1.2.7-2-.4-.8-1.4-1-2.1-.6s-.9 1.2-.6 1.9zm-1.2-25.6a1.59 1.59 0 0 0 2 .7 1.59 1.59 0 0 0 .7-2c-.4-.8-1.4-1-2.1-.6-.7.5-.9 1.3-.6 1.9zm-6.4 0a1.59 1.59 0 0 0 2 .7c.7-.4 1-1.2.7-2-.4-.8-1.4-1-2.1-.6-.8.5-.9 1.3-.6 1.9z"/></g><text transform="translate(21 1033.3)" class="BZ Ba Bb">Declarative chaos </text><text transform="translate(21 1106.3)" class="BZ Ba Bb">management</text><text transform="translate(23 1175.44)" class="BU BV BW">Chaos management is 100% declarative. Done cloud-native way. Litmus </text><text transform="translate(23 1202.44)" class="BU BV BW">provides CRDs and a chaos operator to manage the life cycle of chaos. This </text><text transform="translate(23 1229.44)" class="BU BV BW">capability also helps in scaling the chaos to chaos workflows. </text><use xlink:href="#D" x="-840" y="750" fill="#109b67"/><use xlink:href="#E" x="-840" y="750" stroke="#109b67" class="BT Be"/><defs><path id="T" d="M53 892h40v40H53z"/></defs><clipPath id="U"><use xlink:href="#T"/></clipPath><g clip-path="url(#U)" class="BY"><path d="M77.9 932h-9.8v-3.2c-1.2-.4-2.4-.8-3.5-1.4l-2.3 2.3-7-7 2.3-2.3c-.6-1.1-1.1-2.3-1.4-3.5H53v-9.8h3.2c.4-1.2.8-2.4 1.4-3.5l-2.3-2.3 7-7 2.3 2.3c1.1-.6 2.3-1.1 3.5-1.4V892h9.8v3.2c1.2.4 2.4.8 3.5 1.4l2.3-2.3 7 7-2.3 2.3c.6 1.1 1.1 2.3 1.4 3.5H93v9.8h-3.2c-.4 1.2-.8 2.4-1.4 3.5l2.3 2.3-7 7-2.3-2.3c-1.1.6-2.3 1.1-3.5 1.4v3.2zm-7.5-2.3h5.2V927l.9-.2c1.6-.4 3.1-1 4.5-1.9l.8-.5 1.9 1.9 3.6-3.6-1.9-1.9.5-.8c.9-1.4 1.5-2.9 1.9-4.5l.2-.9h2.7v-5.2H88l-.2-.9c-.4-1.6-1-3.1-1.9-4.5l-.5-.8 1.9-1.9-3.6-3.6-1.9 1.9-.8-.5c-1.4-.9-2.9-1.5-4.5-1.9l-.9-.2v-2.7h-5.2v2.7l-.9.2c-1.6.4-3.1 1-4.5 1.9l-.8.5-1.9-1.9-3.6 3.6 1.9 1.9-.5.8c-.9 1.4-1.5 2.9-1.9 4.5l-.2.9h-2.7v5.2H58l.2.9c.4 1.6 1 3.1 1.9 4.5l.5.8-1.9 1.9 3.6 3.6 1.9-1.9.8.5c1.4.9 2.9 1.5 4.5 1.9l.9.2v2.7zM67.7 919l-5.5-7 5.5-7 1.8 1.4-4.4 5.6 4.4 5.6-1.8 1.4zm10.6 0l-1.8-1.5 4.4-5.6-4.4-5.6 1.8-1.4 5.5 7-5.5 7.1zm-6.5-14h2.3v14h-2.3v-14z"/></g><text transform="translate(861 1719.31)" class="BZ Ba Bb">Application specific </text><text transform="translate(861 1792.31)" class="BZ Ba Bb">experiments</text><text transform="translate(863 1861.44)" class="BU BV BW">Litmus provides not only the ability to introduce chaos into infrastructure </text><text transform="translate(863 1888.44)" class="BU BV BW">and Kubernetes resources but also into application itself. These application </text><text transform="translate(863 1915.44)" class="BU BV BW">specific experiments help in identifyin the weaknesses related to faults </text><text transform="translate(863 1942.44)" class="BU BV BW">related to applications that run on Kubernetes.</text><use xlink:href="#D" y="1436" fill="#f0b740"/><use xlink:href="#E" y="1436" stroke="#f0b740" class="BT Be"/><defs><path id="V" d="M893 1578h40v40h-40z"/></defs><clipPath id="W"><use xlink:href="#V"/></clipPath><g clip-path="url(#W)" class="BY"><path d="M910.3 1582.7c-6.9 0-12.6 5.6-12.6 12.6 0 6.9 5.6 12.6 12.6 12.6s12.6-5.6 12.6-12.6c-.1-7-5.7-12.6-12.6-12.6zm0 22.8c-5.6 0-10.2-4.6-10.2-10.2s4.6-10.2 10.2-10.2 10.2 4.6 10.2 10.2-4.6 10.2-10.2 10.2zm22.7 7l-8.1-8.1c1.7-2.6 2.6-5.8 2.6-9.1a17.31 17.31 0 0 0-17.3-17.3 17.31 17.31 0 0 0-17.3 17.3 17.31 17.31 0 0 0 17.3 17.3c3.3 0 6.5-1 9.1-2.6l8.1 8.1 5.6-5.6zm-37.7-17.2c0-8.2 6.7-14.9 14.9-14.9s14.9 6.7 14.9 14.9-6.7 14.9-14.9 14.9-14.9-6.7-14.9-14.9zm28.2 11l6.2 6.2-2.2 2.2-6.2-6.2a22.84 22.84 0 0 0 2.2-2.2zm-14.7-9l-3.7-3.7-1.7 1.7 5.3 5.3 8.2-8.2-1.7-1.7-6.4 6.6z"/></g><text transform="translate(21 2436.3)" class="BZ Ba Bb">Chaos Portal for </text><text transform="translate(21 2509.3)" class="BZ Ba Bb">chaos at scale</text><text transform="translate(23 2578.44)" class="BU BV BW">Litmus Portal provides capabilities to orchestrate complex chaos workflows, </text><text transform="translate(23 2605.44)" class="BU BV BW">monitor chaos events and metrics around chaos experiments. Workflows </text><text transform="translate(23 2632.44)" class="BU BV BW">running on multiple Kubernetes clusters can be managed from this portal. </text><text transform="translate(23 2659.44)" class="BU BV BW">Multiple team members can share the workflows management together.</text><use xlink:href="#D" x="-840" y="2153" fill="#25c187"/><use xlink:href="#E" x="-840" y="2153" stroke="#25c187" class="BT Bl"/><defs><path id="X" d="M53 2295h40v40H53z"/></defs><clipPath id="Y"><use xlink:href="#X"/></clipPath><g clip-path="url(#Y)" class="BY"><path d="M57.7 2328h9.4v2.3h-9.4v-2.3zm27.1-4.7v-4.7H74.2v-2.3h9.6c3.3 0 6.1-2.7 6.1-6.1 0-3-2.1-5.4-5-6-.6-3.2-3.4-5.6-6.8-5.6-.7 0-1.5.1-2.2.4-1.6-2.5-4.3-4-7.3-4-4.8 0-8.6 3.9-8.6 8.6v.9c-2.3.9-3.9 3.1-3.9 5.7 0 3.3 2.7 6.1 6.1 6.1h9.6v2.3H61.2v4.7H53v11.7h18.8v-11.7h-8.2v-2.3h18.8v2.3h-8.2v11.7H93v-11.7h-8.2zm-26.3-13.1c0-1.8 1.3-3.4 3.1-3.7l1.2-.2-.3-1.2c-.1-.5-.2-1-.2-1.5 0-3.5 2.8-6.3 6.3-6.3 2.4 0 4.7 1.4 5.7 3.6l.5 1.1 1.1-.6c.7-.4 1.4-.5 2.1-.5 2.4 0 4.4 1.9 4.5 4.4v1.1h1.1a3.76 3.76 0 0 1 3.7 3.7c0 2.1-1.7 3.7-3.7 3.7H62.2c-2 .1-3.7-1.6-3.7-3.6zm11 22.5H55.3v-7h14.1v7zm21.2 0H76.5v-7h14.1v7zm-11.8-4.7h9.4v2.3h-9.4v-2.3z"/></g><path d="M203.6 387.8l.3-32.2c0-.7-.8-1.7-1.5-2l-22.1-11c-2.3-1.2-4.4-2.6-6.6-4.1-2.4-1.6-2.5-2.7-.6-4.9l21.5-24c3.2-3.5 6.5-7 9.9-10.3.9-.9 2.3-1.6 3.6-1.9l24.2-5c.6-.1 1.2-.2 1.7-.4.5-.1.9-.4 1.3-.6-.3-.4-.6-.9-.9-1.3-3.1-2.9-6.5-5.5-9.2-8.8-6.4-7.8-10.2-16.7-9.7-27.1 0-.6-.7-1.6-1.3-1.7-5.3-1.3-8-5-6.4-10.2 1.1-3.4 2.9-6.8 5.2-9.4 3.2-3.4 7.1-6.2 11-8.9 1.7-1.2 3.1-2.4 4.3-4.3 6.4-10.7 15.3-19 25.2-26.4 14.6-10.9 30.9-17.9 48.8-20.9 1.6-.3 1.8-.5.8-2-4-5.4-1.1-12.6 5.5-13.9 3.8-.7 7.5-.4 10.6 2.2 1 .8 1.3.7 1.9-.4 2-3.4 4.6-5.9 8.9-6 2.6-.1 4.9.7 6.3 2.9 1.1 1.7 1.5.9 2.3-.1 2.4-3.3 5.3-5.8 9.7-5.7 3.6 0 6.6 1.9 7.6 5.3.6 2 1.1 1 2 .4 3.3-1.9 6.4-4.3 9.9-5.5 4.5-1.6 9.4-1.2 14 .2 5.1 1.5 9 4.6 10 10.1 1 5.6-.7 10.5-5.2 14.3-2.9 2.4-2.8 2.3.7 3.9 10.2 4.5 19.8 9.9 28.1 17.3.8.7 2.1.9 3.2 1 8.5 1.4 15.9 4.7 21.5 11.4 8.5 10.2 7.5 27.1-.6 34.9-.4.4-.7 1.3-.5 1.8 3.9 12 .4 22.2-7.2 31.6-1.2 1.5-3.4 2.9-3.4 4.3 0 1.5 2.3 2.8 3.5 4.3l8.1 10.1c.5.7 1.3 1.2 2 1.7l32 18.3c.5.3.8.8 1.1 1.2l26.7 40.1c1.3 1.9.8 3.1-1.6 3.8l-30.8 8.2c-1.7.5-2.1 1-1.9 2.8l4.6 57.8c.4 5.7-.7 7.3-6.2 9.2L414.4 455c-25.6 8-51.3 15.7-77.7 21.1-3.3.7-6.6 1.7-10 2-2.6.2-5.4.2-7.8-.7-24-8.4-47.3-18.5-69.8-30.5l-43-23.1c-2.6-1.4-3.7-3.1-3.5-6.3.5-10 .7-20 .9-30 .1.3 0 .3.1.3z" fill="#0c0b0a"/><path d="M312.1 305.7c-16.6.5-33.3.1-49.3-4.3-16.2-4.4-30.4-12.4-39.5-27.2-3.7-6-5.7-12.5-5.1-19.7.1-.7.6-1.9 1.1-2.1 4.4-1.3 7-4.5 9.1-8.1 1.6-2.8 3.8-4.1 6.8-4.2l17-.4 14.2-.4c.5 0 1.4.5 1.6.9 7 20.5 27.4 28.5 45.2 27.5 11.1-.6 21-4.1 29.6-11 6.6-5.4 10.9-12.3 12.6-20.7.3-1.3.7-1.9 2.2-2.1 7.5-.9 15-2 22.5-3.1 1.4-.2 2.5-.1 2.9 1.5.1.3.3.6.5.9.6 1.2 1.3 2.4 1.9 3.5-1.3.1-2.6.2-3.9.4-5.6.9-11.2 1.6-16.7 3-2.4.6-4.8 2.4-6.6 4.2-3.8 3.9-2.3 9.5 2.7 11.6.5.2 1.3.7 1.3 1.1.4 3.4 2.8 4.7 5.7 4.9 8.5.5 17-.6 25.1-3.2 1.8-.6 3.6-1.8 5.1-3 .9-.7 1.6-2.1 1.6-3.2 0-1.6.8-2.4 1.7-3.5 1.5-1.7 2.6-1.3 4.3-.6 9.9 3.7 19.6 3.1 28.9-2 2.2-1.2 2.6-.4 3 1.4 1.7 7.6.3 14.8-3.7 21.3-5.9 9.5-14.2 16.1-24.5 20.4-13 5.5-26.6 8.6-40.4 10.8-12.5 2-25 3.8-37.5 5.2-6.5.8-13 .2-19.4.2z" class="Bi"/><path d="M325.5 355.3c.7-1.6 1.2-1 1.9.1 3.6 5.7 7.1 11.5 10.9 17.1l14.9 21.6c1.1 1.6 2.3 2 4.2 1.7 21.4-2.9 42.2-8.8 62.9-14.4l42.7-11.3c1.5-.4 2-.1 2.2 1.5l4.4 58c.3 3.9-.1 4.6-3.9 5.9-13.9 4.8-27.7 9.9-41.8 14.1l-75.8 21.6c-7.4 2-15 3.2-22.4 4.7-2.1-3.5-1.2-7.3-1-11.1.3-1.1.7-2.2.7-3.4.5-12 1.1-24 .4-35.9-.9-15.5.7-30.9.1-46.4-.1-1.9 0-3.8-1.1-5.5-.4-1.1-.5-2.3-.4-3.4.3-4 .6-8.1.5-12.2-.1-1 .4-1.8.6-2.7z" fill="#cc9e7a"/><path d="M325 464.8l.6 11.1c-2-.2-4.1 0-5.9-.6-22.3-7.9-44.1-17.1-65-28l-46.5-24.8c-2.6-1.4-3.3-3-3.2-5.9l1.3-57.5c.1-3.8.1-3.8 3.6-2.2l67.7 28.8c3.7 1.6 7.7 2.6 11.5 4.2 2.6 1.1 4.4.4 6.1-1.6l29.3-32.1c.3-.3.6-.6.9-.8l-.4 18.3c-.8 2.8-.7 5.8-.7 8.7v77.1c.1 1.7 0 3.6.7 5.3z" fill="#ac8668"/><path d="M356.2 393.3c-.5-.5-1.3-1.1-1.9-1.9l-20.2-30-3.2-5.1c-1.1-1.5-.9-1.9.9-2.3 8.8-1.5 17.6-2.9 26.2-4.9l49.5-12.6 61.2-17c4.8-1.3 4.8-1.5 7.5 2.6l22.1 33.3c1.3 1.9 1 2.5-1.1 3l-64.9 17.1-53.1 13.7c-7 1.7-14.2 2.6-21.3 3.9-.3.1-.7.1-1.7.2z" fill="#e1b087"/><path d="M291.8 388l-2.3-.8c-23.3-7.8-45.7-17.9-68-28.1l-39.1-18.3c-2.2-1-4.1-2.5-6.2-3.7-1.6-.9-1.6-1.6-.4-3l20.1-22.3c3-3.3 6.3-6.5 9.3-9.8 1.4-1.5 2.4-1.8 4.4-.9l45.1 21.4 67 29.7c1.7.7 2 1.1.7 2.6l-29.3 32.1c-.4.5-.9.8-1.3 1.1z" fill="#cc9f7a"/><path d="M320.2 328.2l39.3-3.2c4.6-.4 7.7-2.9 9.7-7.2 2-4.4 3.1-4.6 6.3-1.1 3.8 4.2 8.1 4.5 13.2 3.4 11.9-2.8 23.1-7.3 34.1-12.6 4.9-2.4 6.2-6.1 3.5-10.8-1.7-2.9-3.9-5.6-6-8.3-.7-.9-.9-1.3.3-2 1.5-.9 3-1.9 4.2-3.1s1.7-.8 2.7.3c10.1 10.8 17.8 23.2 24.6 36.2.8 1.6.5 1.9-1.1 2.4l-46.6 12.7-46.1 11.7c-8.1 1.9-16.3 3.1-24.5 4.8-3.7.8-7.3.4-10.7-1.2l-71.9-32c-6.1-2.7-12.1-5.8-18.2-8.6-1.4-.7-2.1-1.4-1.4-3l5.4-12.5c.6-1.4 1.2-1.3 2.4-.5 8.3 5.4 17.2 9.4 27 11.3 6.8 1.3 13.6 2 20.5 2.9 1.8.2 2.2.6 1.2 2.3-.8 1.4-1.4 3-1.8 4.6-1.5 5.2.2 9 5.4 10.3 5.8 1.4 11.8 1.9 17.7 2.5 3.4.2 7.1.7 10.8.7 0 .3 0-.2 0 0z" class="Bm"/><path d="M417.3 248.6c-3.3-.7-6.7-1.2-9.9-2.1-2.1-.6-3.8-1.7-4.5-4.3-.8-2.9-3.4-4.6-6.3-5.1-2.7-.5-4.4-1.9-5.5-4.1-1.3-2.3-2.5-4.7-3.3-7.2-.5-1.7-1.2-2.5-2.9-2.2l-16.8 2.1c-4.1.5-8.2 1.2-12.3 1.7-1.6.2-2.4.9-2.4 2.6.7 21.7-24.9 37.7-44.7 34.2-8.5-1.5-16.4-4.2-23-9.9-6-5.2-8.8-12.2-11.1-19.4-.1-.5.4-1.3.8-1.7 3.9-3.9 9-5.8 14.1-7 9.8-2.3 19.6-4.4 29.6-5.9 30.7-4.6 61.6-6.6 92.5-7.7 8.3-.3 16.6 0 24.4 2.8 8.2 2.9 7.9 3.4 7.6 10.9-.4 12.6-8.7 20.9-21.5 21.9-1.6.1-3.2.2-4.7.2 0-.1-.1.1-.1.2z" class="Bd"/><path d="M231.8 219.2c6.2-9.7 14.5-17.3 23.7-24.1 18.9-14.1 40.3-20.9 63.6-22.1 10.2-.5 20.5-1 30.7-.4 21.4 1.3 41.6 7 59 20.3 1 .7 1.8 1.6 2.8 2.4-1.2.1-2.3.1-3.5.2l-40.9 1.8c-15 1.1-30 2.5-45 4.3-14.9 1.8-29.8 4-44.6 6.7-12.1 2.2-24 5.3-36 8.2-3.1.8-6.1 2.1-9.2 3.2-.3-.1-.5-.2-.6-.5z" class="Bn"/><path d="M440.5 214.1c-8.7-3.5-17.8-4.6-27.2-4.2l-33.4 1.6c-27.1 1.9-54.3 3.9-81 9.5-4.9 1-9.8 2.6-14.6 4.1-4.9 1.5-9.1 4.1-12.5 8-2.4 2.8-5.5 3.9-9 3.9h-22c-2.6 0-5.1.3-7.7.5-2.9.2-4.9 1.8-6.3 4.3-1.7 3.2-4 5.7-7.3 7.3-2.8 1.3-5.2.9-7.4-1-2.1-1.9-2.3-4.3-1.2-6.9 2-4.9 5.8-8.2 9.8-11.4 9.2-7.2 19.7-11.3 31.1-13.5 17.2-3.3 34.4-7 51.7-9.7 14.7-2.3 29.5-3.9 44.3-5.2 16.2-1.5 32.4-2.7 48.6-3.4 8.3-.3 16.7.4 24.9 1.5 7.5 1 13.7 4.9 18.2 11.3.6.9 1 1.9 1.5 2.9-.2.3-.3.4-.5.4z" fill="#6b7287"/><path d="M287.7 317.2l3.7-8.4c.2-.4 1.3-.5 1.9-.5 14.2-.1 28.5.6 42.7-.6 15-1.3 29.9-4.3 44.8-7 12.2-2.1 23.9-5.8 35-11.3.6-.3 1.8-.2 2.1.2 2.3 3.1 4.8 6.2 6.7 9.6 1.4 2.5.6 4.5-1.9 5.6-12.1 5.8-24.3 11.1-37.7 13.4-2.5.4-4.5-.2-6.4-2-1.4-1.3-2.8-2.6-4.4-3.6-2.2-1.4-4.1-.8-5.6 1.3-.5.7-1 1.4-1.3 2.1-1.7 4.7-5.4 6.5-10 6.9-18.3 1.8-36.7 3.1-55.1 1.5-3.7-.3-7.4-1.2-10.9-2.3-2.6-.7-3.3-2.3-3.6-4.9z" class="Bm"/><path d="M389.6 163.7c.1 5.2-4 8.6-8.6 11.6-.4.3-1.3.1-1.9 0-21.1-6.1-42.6-6.5-64.3-4.4-1.3.1-2.7.2-4 .4-3.2.4-5.9-1.2-6.7-4.1-.9-3 .5-6.3 3.4-7.5 3.7-1.5 7.3-1.3 10.6 1.3s3.2 2.6 5.1-.9a12.48 12.48 0 0 1 3.3-3.9c3.2-2.4 6.9-1.4 8.8 2.1 1.5 2.9 2.1 2.9 4 .2 1.1-1.5 2.3-3.1 3.6-4.4 2-2 4.6-2.7 7.4-1.8 2.7.9 3.5 3 3.7 5.6.2 2.4 1.1 2.7 3.1 1.2 1.3-1 2.6-2 3.9-3.1 6-5.1 13-5.6 20.2-3.8 5.3 1.3 8.5 5.4 8.4 11.5z" class="Bj"/><path d="M366.2 254c-1.1 0-2.3.2-3.2-.2-1.6-.7-3.4-1.6-4.2-3-1-1.8-.3-4.2 1.5-5.3 2.4-1.6 5-3.4 7.7-3.8 8.1-1.3 16.3-2 24.5-2.6 1.9-.1 4.2.6 5.8 1.7 1.3.8 2.5 2.8 2.4 4.2 0 1.2-1.7 3-3 3.4-4.7 1.4-9.5 2.4-14.3 3.3-5.7 1-11.5 1.8-17.2 2.7v-.4z" fill="#f6ae0f"/><path d="M455.7 320.9c-.2-.3-.5-.6-.7-1l-9.8-17.4c-.2-.4-.3-.9-.4-1.3.5.1 1 .1 1.3.3l23.3 13.4c.4.3.7.8 1.1 1.2-.4.2-.8.5-1.3.6l-12.6 3.8c-.3.2-.5.2-.9.4z" fill="#96755b"/><path d="M232.5 294.9c.1.5.4.9.3 1.3-1.2 3.3-2.4 6.7-3.8 10-.2.4-1.2.9-1.6.7l-14.5-6.7c-.3-.1-.4-.4-.7-.6a3.04 3.04 0 0 1 .7-.5c6.4-1.5 12.7-2.8 19.6-4.2z" fill="#95745a"/><path d="M372.1 259.9c-2.1-.3-4-.4-5.8-.9-.7-.2-1.1-1.3-1.6-2 .7-.2 1.3-.4 2-.5l28.3-4.4c.7-.1 1.5-.1 2.2-.1-.4.8-.6 1.9-1.2 2.2-2.7 1.3-5.3 2.8-8.2 3.4-5.3 1.1-10.6 1.5-15.7 2.3z" fill="#f1ab0e"/><path d="M382.4 227.8l-24.1 3.4c-.2 0-.3.1-.5.1-.7-.1-1.4-.3-2.1-.5.7-.4 1.3-1.2 2-1.3 2.4-.5 4.8-.7 7.2-1l18.3-2.4c.7-.1 1.9.5 2.2 1.1l4.2 8.1c.2.3.2.7.3 1-.4-.1-.9 0-1.1-.2l-4.3-6.1c-.6-.8-1.5-1.5-2.1-2.2z" fill="#b9b9b9"/><path d="M271.8 235.6c.6 1.2.9 1.5 1 1.9l2.5 6.5c2.6 5.8 6.3 10.7 11.5 14.4.3.2.5.7.7 1-.4-.1-.8-.1-1.1-.3-7.9-4.5-13.2-11.3-16.1-19.8-.2-.8.8-2 1.5-3.7z" fill="#bcbcbc"/><path d="M440.9 213.8v.6a.76.76 0 0 0-.4-.2.78.78 0 0 1 .4-.4z" fill="#6b7287"/><path d="M232.3 219.7c-.3.1-.5.1-.8.2.1-.2.1-.4.2-.6.2.1.4.2.6.4z" class="Bn"/><path d="M288.5 259.7s0 .1-.1.1c-.1-.1-.2-.1-.3-.2l.2-.2c.1.2.1.2.2.3z" fill="#bcbcbc"/><path d="M389.2 419.4c0-4.2-.1-8.3.1-12.5 0-.7.7-1.9 1.3-2.1 3.6-1.1 7.2-2.2 10.8-2.8 9.5-1.5 14.8 4.2 13.1 13.7-1.4 7.9-6.4 12.8-13.8 15.2-3.2 1.1-6.6 1.7-9.8 2.7-1.5.5-1.7-.1-1.7-1.3v-12.9z" fill="#060504"/><path d="M420 411.1v-12.5c0-1.4 3.3-3.5 4.5-2.8.3.2.4 1 .4 1.5v9.7c0 .8.2 1.5.4 2.3l1.5-1.6c3.4-4.7 7-9.3 10.2-14.1 1.7-2.5 4.3-2.2 6.5-3.1 0 .4.2 1 0 1.3-2.9 3.9-5.7 7.8-8.7 11.5-1.3 1.6-1.1 2.5.2 3.9 3.1 3.3 6 6.9 9.1 10.3.9 1 1.3 1.4-.5 2.1-3.2 1.2-5.4.8-7.3-2.2-1.5-2.3-3.5-4.2-5.3-6.3-.8-1-1.2-.9-2.1 0-3.1 3.2-4.8 6.9-4.1 11.4.2 1.5-3 3.6-4.4 2.8-.4-.2-.5-1.1-.5-1.7.1-4 .1-8.3.1-12.5z" fill="#080605"/><path d="M374.3 421.1h2.7c5.6.3 8 3.8 6.2 9.2-2 5.9-11.2 10.9-17.1 9.1-1.5-.5-3-1.8-3.9-3.2-1.8-2.9-.5-4.9 3-4.7.4 0 1 .6 1.2 1.1.8 1.8 2.2 2.8 3.9 2.3 2.3-.6 4.8-1.5 6.7-2.9 1-.7 1.4-2.8 1.1-4.2-.1-.7-2-1.5-3.2-1.7-1.9-.2-3.8.2-5.7.1-5.9-.1-8.4-3.8-6.3-9.4 2.1-5.5 9.5-9.8 15.2-8.3 1.6.4 3.3 1.8 4.1 3.2 1.9 3 .4 5.1-3.1 4.9-.4 0-.8-.6-1-1-1.2-2.6-2.9-3.2-6.2-2.1-3.2 1.1-5.2 3.4-4.6 5.6.2.8 1.2 1.7 2 1.8 1.8.3 3.4.1 5 .2z" fill="#070605"/><path d="M325 464.8c-.5-.7-1.4-1.4-1.4-2.2l.1-84.3c0-1.6.9-3.2 1.3-4.8.5.7 1.3 1.4 1.3 2.1v62.1c0 8.1-.2 16.1-.4 24.2.2 1-.5 2-.9 2.9z" fill="#0e0b09"/><path d="M315.5 240.7c0-4.4 4-8.3 8.6-8.2 4.2 0 7.8 4.5 7.8 9.6 0 4.3-3.6 7.4-8.4 7.3-4.5-.1-8-3.9-8-8.7zm101.6-18.4c3.8 0 7.3 3.9 7.3 8s-2.5 6.8-6.3 6.8c-4.1 0-7.3-3.6-7.3-8.2 0-3.8 2.8-6.6 6.3-6.6z" class="Bo"/><path d="M394.2 418.2l.1-8.2c0-.7.9-1.8 1.5-1.9 2.5-.7 5-1.3 7.5-1.4 3.2-.1 5.3 1.9 5.9 5 1.3 6.8-2.1 12.5-8.7 14.9-6.2 2.2-6.2 2.2-6.2-4.3-.1-1.4-.1-2.8-.1-4.1z" fill="#ca9d79"/><path d="M1220.4 2571.9c-1.2.3-2.5.4-3.5 1.1-4.3 2.7-9.1 3-13.9 3.5-10.7 1.1-21.4 1.7-32.1 3.1-8.2 1.1-16.3 2.9-24.4 4.5-6.6 1.3-13.2 1.2-19.8.5l-12.4-1.1c-7-.5-14-1.4-21-1.4-5 0-10 1-15 1.6-10.6 1.4-21.1 1.5-31.3-2.6-1.2-.5-2.6-.5-3.9-.7-4.3-.5-8.6-.7-12.8-1.7-3.8-.9-5.4-4.3-6.6-7.7 2.5-3.2 2.9-7.2 4-10.9 2.2-7.2 5.1-14.1 8.3-20.9 1.7-3.6 2.6-3.9 6.2-2.4 8.5 3.6 17.6 5.1 26.7 6.3 14.2 2 28.6 1.9 42.9 1.4 22.5-.7 44.9-3.1 66.7-8.9 6.6-1.7 13.1-3.9 19-7.4 3.2-1.9 3.7-1.6 5.7 1.6 5.1 8 8.6 16.7 11.6 25.7 2.1 5.5 4 10.9 5.6 16.4z" fill="#f4f5fe"/><path d="M1026.4 2526l-4.5.1c-1 .1-3.7-1.2-2.2 2 .2.3-1.3 2.1-2.2 2.2-2.4.4-4.8.3-7.2.3-16.9 0-33.8-.1-50.7 0l-26.2.2c-2.1 0-4.2-.2-6.2-.5-1.6-.3-3.5-.7-2.6-3.2 0-.1-1.1-.9-1.7-.9-5.2-.1-10.5 0-15.7 0h-37.5c-.7 0-1.4.1-2-.1-.5-.2-1.2-.8-1.2-1.3 0-.4.7-1.1 1.2-1.3.6-.2 1.3-.1 2-.1l60.5-.1c6.2-.1 11.9-2.1 17.2-5.4 2.1-1.3 3-3.3 3.1-5.7.1-2.1 0-4.2.1-6.2.1-1.6-.5-1.9-2-1.9l-44.7.7c-9.7 0-19.3-.3-29-1-8.4-.6-13.4-7-13.2-15.5.1-6.5-.1-13-.1-19.5l.1-62.7.2-37.2c.2-7.1 4.4-10.9 11.5-11l31.7.1 135.1-.5c8.1 0 16.2.1 24.2.4 8.1.3 12.6 4.4 12.9 12.5.4 10.8.3 21.7.5 32.5-1 1.4-2.1 1.4-3.3.3-.6-1.2-.5-2.4-.4-3.7.9-10 .2-20-.7-29.9-.4-4.9-2.7-6.9-7.6-7.9-4.5-.9-9-.5-13.5-.5-32.7-.1-65.5-.5-98.2.1l-80 .4c-6.3.1-9.1 2.6-9.1 8.9 0 9.1-.3 18.2.2 27.2.1 2.1-.2 4.2-.3 6.2-.3 7 .7 14 .5 21l-.5 50.5c0 3.3.2 3.5 3.6 3.5l65.2-.1 24.2-.4c13.5.2 27-.1 40.5 0 3.4 0 6.8-.3 10.2 0 1 .1 2 0 2.9.5 1.3 1 1.5 2.2.6 3.5-1.4.9-3.1.6-4.6.6-22.4.1-44.8-.4-67.2.2-20.4.5-40.8.2-61.2.3-3.9 0-7.8-.3-11.7.1-1.7.2-2.6.8-2.5 2.6v3c.4 6.2 3.3 9.7 9.4 10.8 4.6.9 9.3.8 13.9.9h42c27.4-.9 54.8-.1 82.2-.4 1.5 0 3-.2 4.4.4 1.3.8 1.5 2 .9 3.3-1 1-2.3.8-3.5.8h-17c-3.3 0-3.4.2-3.5 3.4v2c-.3 4.1 1.7 6.8 5.4 8.3 6.1 2.6 12.4 4.2 19.2 3.8 1.8-.1 3.7-.1 5.5.1 2 .6 3.1 1.4 2.6 3.3z" fill="#0a0a0a"/><path d="M1026.4 2526l-2.1-2.6c-3.8-5.3-6-11.2-7-17.6-.1-.5.1-1 .5-1.4-.2-1-.3-1.9-.5-2.9-1.2-1.7-.9-3.7-.6-5.5.5-3-.1-5.3-2.3-7.6-1.5-1.6-2.6-3.6-2.1-6-.2-1-.3-1.9-.5-2.9-1-1.4-1.3-3.1-1.2-4.7.3-4 .1-8.1 1.4-12 .6-2.8 1.9-5.3 3.4-7.7 2.8-4.3 7.3-5.2 11.9-5.8 2.8-.3 5.6-.7 8.4-.6 1.2.1 2.3-.3 3.1-1.2 4.5-5.3 10.4-9 15.9-13 4.6-2.9 9.3-5.5 14.1-7.8 1.6-.8 1.9-1.2.2-2.3-3.6-2.2-5.8-5.3-5.5-9.9.4-5.3 6-10.8 11.3-11.1.9-.2 1.8-.3 2.7-.5 4.6-.2 9 .4 13 2.7.3.2 1.3 0 1.4-.3 3.6-6.2 10.1-8 16.1-4.1 1.4.9 2 1.1 3.2-.4 2.8-3.5 9.7-3.8 13.2-.7 1.3 1.1 1.9 1 3.2.1 3.5-2.3 7.4-3.2 11.4-1.6 4.5 1.7 6.1 6 3.9 10.4-.7 1.5-1.6 3.1-2.4 4.6 1.7.2 3.4.3 5.1.5 16.9 1.7 32.9 6 46.7 16.3 17.1 12.7 28 29.4 30.2 50.8 1.8 17.5-3.5 32.7-18.3 43.6-.4.3-.9 1.5-.7 1.8 8.5 12.8 12.9 27.3 17.6 41.7.5 1.4 1.7 3.1-1 3.6-.5-1-1.2-2-1.6-3l-11.6-30.8c-1.3-3.4-3.5-6.4-5.5-9.5-.3-.5-1.6-.9-2-.7-13.3 7.8-28.1 10.5-43 13-24.9 4.2-50 5.2-75.2 4-12.5-.6-24.9-2.2-36.8-6.5-1.1-.4-2.3-.7-3.2-1.4-2.3-1.6-3.3-.6-4.4 1.6-4.7 9.3-8.2 19.1-10.9 29.2-.4 1.3-.3 3.2-2.5 3.2-.2-.8-.7-1.7-.6-2.4 3-11.4 6.7-22.6 12.4-33 .2-.4.2-1.5-.1-1.7-2.5-2.6-5.6-5.2-8.7-7.9z" fill="#535352"/><path d="M1012.8 2462.5l-.9 17-116.7.6c-9.6 0-19.2-.2-28.7-.2-1.8 0-2.1-.6-2.1-2.2l.3-59-.1-47.2c0-8.5 3-11 12.5-10.9l65.2.3 111-.4c4.4 0 8.8.1 13.2.5 5 .5 7.8 3.1 8 8 .5 10.5.5 21 .7 31.5v3c-1.8.9-3.8 1.7-5.5 2.8-7.3 5.1-7.1 13 .3 17.9.8.5 1.6 1.1 2.4 1.7-.9.4-1.8.8-2.7 1.3l-14.1 7.8c-1.2-1.3-1.2-2.9-1.2-4.4-.2-12.2-1.1-24.4-.5-36.5.1-1.1.7-2 .9-3.1.2-1.4-.1-2.7-1.6-3.3-1.4-.6-2.7-.2-3.4 1.2-1 2-2.8 3.1-4.6 4.1-7.4 4.4-14.6 9.1-21.8 13.7-1.4.9-2.7 1.5-4.4 1.2-.9-.2-1.9 0-2.6.7-1.4 1.7-3.4 1.9-5.4 2.3l-22.6 4.2c-1.5.3-2.8.3-4.3-.6-2-1.2-4.2-.4-4.5 1.7-.8 5.6-5.1 8.6-8.2 12.5-2.7 3.3-5.5 6.5-8.3 9.7-1 1.2-2 2.2-3.7 2.3-.4 0-.9.1-1.2.4-2.3 2.3-4.8 1.2-7.2.2-2-.8-4-1.7-6.1-2.3-1.6-.5-2.9-1.2-3.9-2.6-1-1.3-2.3-2.2-3.9-1-1.4 1.1-1.2 2.6-.4 4.1.4.8 1.1 1.5 1.3 2.4.4 5 .1 10 .2 15 0 1 0 2 .1 3 .2 1.7.9 2.8 2.8 2.8 4.7 0 9.3.2 14-.1 2.7-.2 5.3-.3 8-.4 15.2-.1 30.5-.8 45.7-.5 1.3-.1 2.8-.3 4 .8z" fill="#fcfcfd"/><path d="M1012.3 2482.4l4.9 8.2c.3.6.6 1.3.5 2l-.5 8.9-88.5.4c-16.3 0-32.7-.2-49-.4-2.1 0-4.2-.2-6.2-.6-5.7-1.2-9.2-5.3-9.3-11.1-.1-2.3-.7-5.3.4-6.8.9-1.1 4.2-.6 6.4-.6l51.2.2 80-.7c3.5.1 6.8.4 10.1.5z" fill="#c8c8c8"/><path d="M971.8 2527.9h-40.5c-.7 0-1.4-.1-2.1-.2.7-.4 1.3-.9 2-1.1 4.7-1.5 9.4-2.8 14-4.4 5.6-2 8.1-6.1 8-12.1-.1-6.1.1-6 6.1-6h28.5c2.1 0 2.9.6 2.5 2.6-.1.5 0 1 0 1.5.2 9.5 1.8 12 10.9 15.2 3.9 1.4 8 2.3 12 3.5.5.1.9.6 1.3.9-.5 0-1 .1-1.4.1h-41.3z" fill="#c7c7c7"/><path d="M1017.8 2504.4c.7 6 2.8 11.5 5.6 16.8.4.7.6 1.5.8 2.2-6.9-.1-13.8.7-20.4-2-.6-.2-1.3-.4-1.9-.6-8.1-3-10.4-7.1-8.8-15.6.1-.4.9-1 1.4-1l23.3.2z" class="Bd"/><path d="M1101.5 2542.4c-11.6.4-25.6 0-39.5-2.5-8.1-1.4-16-3.2-23.2-7.4-11.4-6.7-17-17.1-18.3-29.9-1.2-11.9 2-22.9 8.1-33.2.3-.6 1.2-1.1 1.9-1.1l35.8-3.3c2.9-.3 5.3-.1 7.7 2.2 3 2.9 7 4.2 11.3 3.1 4.5-1.1 6.7-5.1 5.1-9.4s-4.6-7.4-8.9-8.5c-5.7-1.4-11.5-2.4-17.4-2.9-6.4-.6-12.8-.4-19.2-.5-.7 0-1.4-.2-2.1-.3.4-.6.8-1.2 1.3-1.7 11.1-9.7 23.4-17.3 37.6-21.7 18.5-5.7 37.3-9.5 56.7-8.9 20.4.6 39.5 5.1 55.6 18.4 17.2 14.1 27.2 32.1 26.3 54.8-.6 14.8-7.2 26.7-20.2 34.8-10.4 6.4-21.9 9.6-33.7 11.9-20.7 4.1-41.4 6.3-64.9 6.1z" fill="#fef59e"/><path d="M1012.8 2462.5l-55 .6-16.7.5c-2.8.2-3.7-1-3.7-3.6l-.1-19c3.2-1.2 6.4-1.2 9.6.3 2.4 1.1 4.9 2 7.4 2.9 1.2.4 2 1.2 2.7 2.1 1 1.2 2.2 1.8 3.8 1 1.5-.7 2.3-2 1.9-3.7-.5-1.9.4-3.2 1.5-4.5 4.7-5.7 9.8-11.1 14.5-16.8.8-1 1.8-1.5 3.1-1.3 1.8.3 3.1-.5 3.8-2.2.6-1.4 1.5-2.1 3-2.3 8.1-1.3 16-3 24-4.5 1.4-.3 2.6-.1 3.8.7 2.6 1.7 3.9 1.3 4.9-1.6.4-1.3 1.2-2.1 2.2-2.9 7.7-5.2 15.6-10 23.4-14.8 1.3-.8 2.6-1.2 4-.6 1.1.5 2.3-.2 3.4.2l.6 30.2c.1 3.9.4 7.8.6 11.7-4.1 3.1-9 5.6-12.1 9.5-4 5-9 5.5-14.4 5.6-8.8-.1-14.1 4.1-16.2 12.5z" fill="#66d3a8"/><path d="M1080.7 2405.8c4.1-.2 7.8 1.4 11.1 3.9.7.5 1.4 1.2 2.3 1.5.4.2 1.2.1 1.6-.2.3-.3.5-1.1.3-1.5-.9-1.6-1.9-3.1-.4-4.8 1.9-2.1 4.5-3.3 7.2-2.6 2.4.7 4.5 2.3 6.7 3.5.8.4 1.7.8 2.6 1.1.3-.8.4-1.7.8-2.4.3-.8.6-1.8 1.2-2.3 3.1-2.4 8.2-1.5 10.3 1.8 1.3 2 2 2.1 3.4.1 2.2-3 7.5-4.3 10.8-2.8 2.7 1.2 3.6 3.5 2.3 6.2-.9 1.9-2.1 3.8-3.3 5.5-.3.5-1.2.8-1.8.8-19.7-.6-38.6 3.9-57.3 9.7-3 .9-8.6-1.8-10.5-4.9-1.6-2.8-1-6 1.7-8.8 2.9-2.9 6.7-3.9 11-3.8z" class="Bj"/><path d="M1046.3 2451.5c9.8.7 19.1 1.1 28.5 2.1 3.2.3 6.4 1.9 9.1 3.6 1.7 1 2.9 3.2 3.7 5.1 1.2 2.9-.8 5.4-4.1 5.7-3.8.3-6.6-1.6-9.4-3.8-1.3-1-3.3-2.1-4.8-2-6.8.4-13.5 1.3-20.3 2l-7.2.6c-7.6.4-15.2 1.8-22.8-.2-3.2-.8-3.5-1.5-2.3-4.4 1.5-3.7 3.9-6.3 8.2-6.7 7.2-.8 14.5-1.4 21.4-2z" fill="#6b7288"/><path d="M1014.2 2473.5l.4-5.4c.1-.6.7-1.1 1.1-1.7.9.8 2.8.2 2.2 2.7-1.2 4.9-1.6 9.8 1 14.5.4.8-.2 2.2-.3 3.3-.5-.2-1.5-.2-1.6-.5-1-3-2-6.1-2.8-9.2-.3-1.2 0-2.5 0-3.7.1 0 .1 0 0 0z" fill="#c3c3c3"/><path d="M1019.7 2474.7c.3-1.6.5-3.5 1.1-5.3.2-.6 1.3-1.4 2-1.4 3.2 0 3.2.1 1.8 2.8l-3.5 7.7c-.2.3-.4.6-.7.9l-.3-1-.4-3.7z" fill="#f2f2f3"/><path d="M1054.2 2392.9c-.9.2-2.2.9-2.8.6-2.3-1.4-3.7 0-5.4 1.1l-22.5 14.3a4.14 4.14 0 0 0-1.7 2.4c-.6 3.1-3.1 4.1-5.8 2.3-1-.7-2.6-1.1-3.7-.9-7.9 1.3-15.7 2.9-23.6 4.3-1.3.2-2.3.5-2.8 2.2-.6 2-2.2 3-4.6 2.4-.6-.2-1.6.2-2 .7l-15.4 18.1c-.6.7-.8 2-.7 3 .3 2.2-.3 3.8-2.3 4.7s-3.5.1-4.7-1.6a4.41 4.41 0 0 0-1.8-1.5l-8.4-3.2c-2.2-.8-4.3-2.3-6.7-.5-.4.3-1.4-.1-2.2-.2-.7-1.1-1.9-2.2-1.8-3.3 0-1.1 1.1-3 2-3.1 1.2-.2 2.8.7 4 1.4 1 .5 1.7 1.6 2.8 2.1 3.1 1.3 6.4 2.4 9.5 3.6 1.1.4 2.1.9 2.9-.6.3-.5 1.2-1 1.7-1 2.6.4 3.6-1.6 4.9-3.1l13.8-16.2c.8-1 .9-2.5 1.4-3.6.6-1.2 1-2.9 2-3.4 1.1-.5 2.8 0 4.2.1 1 .1 2 .7 2.9.5l25-4.6c1-.2 1.8-1.1 2.8-1.6 1.2-.5 2.4-.9 3.6-1.3 1.2-.3 2.7-.2 3.7-.8l24.1-15.2c.7-.5 1.5-1.1 1.8-1.9 1.3-2.6 2.7-3.3 4.8-2.3s2.6 3 1.4 5.3c0 .3-.2.6-.4.8z" fill="#070908"/><path d="M900.4 2402.2v-18.7c0-2.4.8-3.5 3.4-3.4 9.3.3 8.1-.3 8.3 8.1.3 10.7.1 21.4.1 32.2 0 3.7-.4 4-4 4.1-1.6 0-3.2.1-4.7.1-2.3.1-3.3-1.1-3.3-3.3v-19c.1-.1.2-.1.2-.1z" fill="#0b0909"/><path d="M941.8 2406c0 4.6.2 9.2.3 13.7 0 2.1-.7 3.1-2.8 3.2-2.2 0-4.3.3-6.5.1-.7-.1-1.8-1.2-1.9-1.8l-1.1-28.7c-.1-2.2.9-3.1 3.1-3.3 8.2-.9 8.7-.6 8.9 7.6v9.2c.1 0-.1 0 0 0z" fill="#0d0a0a"/><path d="M908.4 2450.8c0-5-.6-10-.7-14.9-.1-2.2.7-3.3 2.9-3.3h.7c5.5-.3 5.9.1 6 5.5l.5 27.4c.1 2.6-.8 3.7-3.6 3.6-6.7 0-5.7 0-5.8-5.6-.1-4.2 0-8.5 0-12.7-.3 0 .2 0 0 0z" fill="#0a0a0b"/><path d="M883.9 2407.8c0-4.3.5-8.7.5-13 0-2.5 1.1-3.5 3.5-3.4 8.7.3 7.6-1.3 7.8 7.5.2 6.7.1 13.5 0 20.2 0 4.2-.4 4.4-4.4 4.2l-3.7-.3c-3.7-.3-3.6-.3-3.6-4.1-.1-3.6-.1-7.4-.1-11.1.4 0-.2 0 0 0z" fill="#0d0c0c"/><path d="M883.9 2454.9c0-3.9.5-7.8.3-11.7-.1-2.5 1-3.2 3.3-3.2 5.9 0 5.8 0 5.9 5.8l.3 20.7c.1 2.2-.7 3.1-3 3.3-8.4.4-6.9.5-6.9-6.4.1-2.9.1-5.7.1-8.5.1 0-.1 0 0 0z" fill="#0b0b0c"/><path d="M896.4 2458.3l.1-8.2c.1-.9.9-2.3 1.5-2.4 1.9-.3 4-.3 5.9 0 .7.1 1.5 1.6 1.5 2.5 0 5.5-.1 11-.4 16.5 0 .7-1.4 2-2.1 2-7.9.5-6.7.5-6.6-5.9.1-1.5 0-3 .1-4.5z" fill="#0f1011"/><path d="M926.5 2414.9v6.5c0 .6-.2 1.6-.4 1.6-2.7.3-5.5.8-8.2.6-.7 0-1.8-2.1-1.9-3.2-.3-4.1-.2-8.2-.3-12.2 0-1.8.7-2.9 2.6-3 1.7-.1 3.5-.3 5.2-.2 1.7 0 2.6 1.1 2.6 2.7.1 2.4.4 4.8.4 7.2.1 0-.2 0 0 0z" fill="#0e0b0b"/><path d="M964.3 2491.5c0-3.2 3.1-5.7 7-5.6 2.8.1 5.4 2.9 5.4 5.8 0 3.1-2.6 5.5-6.2 5.5-3.5.1-6.2-2.3-6.2-5.7z" fill="#0a0a0a"/><path d="M902.9 2402c0-5.7.4-11.5.3-17.2 0-1.5.4-2 1.9-1.9 4.1.1 4.2 0 4.2 4l.2 32.4c0 4-3 1.9-4.7 2.4-2.1.6-1.9-1.1-1.9-2.5V2402c.1 0-.1 0 0 0z" fill="#f4928c"/><path d="M938.9 2406.1c0 4 .3 8 .4 12 0 1.6-.4 2.2-2 2.2-3.9.1-3.9.2-4-3.7l-.7-22.2c-.1-1.9.4-2.6 2.4-2.6 3.8.1 3.8-.1 3.9 3.8v10.5c.1 0-.2 0 0 0z" fill="#f7948e"/><path d="M911 2450.9l-.6-13.5c-.1-1.1-.2-2.2 1.5-2.1 1.2.1 2.6-.4 2.6 1.8l.5 27.2c0 1.7-.7 2-2.2 2.1-1.7 0-1.6-.9-1.6-2.1 0-4.5-.2-9-.2-13.4-.1 0 .1 0 0 0z" fill="#a1b8db"/><path d="M892.8 2407.4v11.5c0 1.3-.3 1.7-1.7 1.7-4.5-.1-4.4 0-4.4-4.5l.3-19.9c0-1.2.2-2.4 1.7-1.9 1.4.5 4-1.3 4 2 .1 3.6.1 7.4.1 11.1z" fill="#f8948e"/><path d="M886.7 2455c0-3.5.4-7 .3-10.5 0-1.3.4-1.8 1.7-1.7 1 .1 2.1-.2 2.1 1.6-.1 7 0 14 .1 21 0 2.4-1.8 1.4-2.8 1.5-.4 0-1.3-.9-1.3-1.5-.2-3.4-.1-6.9-.1-10.4.1 0-.1 0 0 0z" fill="#a2b9dd"/><path d="M899.3 2458.2l.1-6.5c.1-.6 1.1-1.6 1.7-1.6s1.7 1 1.7 1.6c0 4.2-.3 8.5-.3 12.7 0 1.7-1.1 1.7-2.1 1.5-.5-.1-1.1-1.1-1.2-1.7-.2-2-.1-4-.1-6h.2z" fill="#a4bce0"/><path d="M918.5 2414.3c0-1.2.2-2.3 0-3.5-.4-2.4.4-3.3 2.9-3.1 1.4.1 2.1.2 2.1 1.9l.4 9.9c.1 1.6-.8 1.9-2 1.6-1.2-.2-3.1.9-3.1-1.6v-5.2h-.3z" fill="#f6938d"/><path d="M970.5 2488.2c2.4.8 3.5 1.8 3.4 3.7-.1 2.2-1.8 2.6-3.5 2.5-1.9 0-3.5-1-3-2.9.3-1.3 2-2.2 3.1-3.3z" fill="#c3c3c3"/><path d="M1060.4 1183.7c-5.7-.2-10.7.5-15-2.4-.2-.1-.7-.2-.9 0-4.7 2.5-9.8 1.7-14.7 1.8-8.1.2-16.3-.4-24.4-.9-1.7-.1-3.5-.6-4.9-1.6-1.2-.8-2.2-2.4-2.8-3.8-.8-2.3-.9-4.9-1.7-7.2l-7.2-20.7c-.7-1.9-1.6-2.5-3.7-2.7-9.3-.8-18.5-1.9-27.8-3-2.4-.3-3.7-1.8-4.3-4.2-2.7-10.4-3.9-20.9-3.6-31.6 0-.9-.2-1.8-.5-2.7-1.7-5.5-1.6-11-.3-16.5.2-.8.4-1.7.9-2.3 2.4-2.6 2.6-6 3.6-9.2 2.3-7.8 6.6-14.1 13.5-18.5.6-.4.9-1.4 1.2-2.1.2-.4 0-.8 0-1.2 0-2.6.8-5.6-.3-7.6-1-1.9-3.9-2.6-6-4-8.9-5.9-14.1-14-14.1-24.9 0-.9-.8-2-1.6-2.6-8.1-6.2-13.2-14-12.8-24.6.4-10.3 6.7-18.2 16.6-20.9.7-.2 1.6-.6 2-1.2 8.2-13.8 19.9-24.1 33.2-32.6 2.4-1.6 5-2.9 7.6-4.4.9-.5 1.3-.7.2-1.5-1.9-1.4-3.8-3-5.4-4.8-2.8-3.3-3.7-7.1-1.9-11.2 2-4.4 5.8-6.8 10.6-7.4 6-.7 11.1 1.3 15.8 4.9 1.2.9 1.7 1.3 2-.7.3-2.6 2.1-4.5 4.4-5.7 6-2.9 12.1-1.8 17.1 3.3 1 1.1 1.5 1.7 2.7 0 2.8-4.2 9.9-5 12.8.1.8 1.4 1.2.4 1.8-.1 4.3-3.2 9-4.9 14.5-3.8 2.5.5 4.9 1.4 5.8 4.1.9 2.8.2 5.4-1.7 7.7-1.1 1.3-2 2.7-3 4 1.8.2 3.6.6 5.4.6 20.6 1.1 39.1 8.1 55.7 20.1 12.7 9.2 22.4 21 27.9 35.9.3.8 1 1.4 1.7 2 3.8 2.9 6.9 6.3 8 11.1 1 4.6-1.5 8.4-6 9.6-.6.2-1.5 1-1.6 1.5-1 9.4-4.9 17.6-10.8 24.8-2.2 2.6-4.9 4.8-7.3 7.2-.4.4-.6 1.3-.4 1.7 6.6 9.7 11 20.5 14.2 31.7 4.5 15.6 8.2 31.4 9.5 47.6.4 5.7.2 11.5.1 17.2-.1 3.3-1.7 5.3-5.2 5.6-7.9.9-15.9 1.4-23.9 2.1l-17.2 1.3c-1.4.1-1.7.6-1.8 1.9-.6 8.5-1.2 16.9-3.8 25.1-2.6 8.5-8 12.9-16.8 13.3l-25.2 1.4-10.2 1z" fill="#0d0d0c"/><path d="M1027.5 1144.4l-51.2-.7c-5.9-.2-11.7-1.5-17.5-2.3-2.2-.3-3.4-1.3-4-3.7-2.1-8.6-3.2-17.3-3.3-26.2 0-.5.1-.9.2-1.4.4.2.8.5 1.2.7 1.1.6 2.2 1.2 3.3 1.7 1.3.5 2.4.8 2.5 2.6 0 .6 1.5 1.4 2.5 1.5 1.9.3 3.8 0 5.7.2.5 0 1.2.9 1.3 1.4.2 2.7.3 5.5.4 8.2.1 1.7.8 2.5 2.7 2.4l58.2-.1c1.9 0 2.7-.9 2.8-2.6.1-2.7.2-5.5.5-8.2.1-.6.8-1.5 1.4-1.6 2.3-.4 4.7-.7 7.1-.9.4 0 .9.3 1.3.5 4.6 3 9.5 3.2 14.6 1.3.6-.2 1.7-.2 2.1.1 4.1 4.2 9.5 5.2 15 6.1 9 1.5 17.5-.6 25.9-3.7.6-.2.9-1.1 1.4-1.7-.7-.1-1.5-.5-2.1-.3-5.3 1.2-10.6 2.9-15.9 3.8-5.6.9-11.1-.2-16.5-1.9-5.1-1.6-8.6-5.4-10.3-10.2-3.1-8.8-5.9-17.8-8.3-26.9-1.1-4 .6-7.8 4-10.4 3.2-2.4 6.8-3.6 10.8-3.9 3.8-.3 7.8-1 11.4-2.3 4.9-1.7 6.7-5.6 5.4-10.6-.5-1.9.2-2 1.7-2.3 12-2.3 24.1-4.3 35.9-7.4 6.5-1.7 12.5-5.3 18.5-8.3 1.9-1 2.8-.8 3.6.9 3.4 7.1 7.5 14 10.1 21.3 6.7 18.9 11.1 38.5 12.5 58.6.3 4.3.2 8.7 0 13-.2 3.5-1 4.3-4.5 4.7a397.5 397.5 0 0 1-15.7 1.5l-48.5 3.8c-12.7.9-25.4 1.5-38.2 2.1l-27.5 1.2c0 .3-.5-.1-.5 0z" fill="#f3f4fd"/><path d="M1153.3 976.2c-10.6-4.8-21.5-8.4-33-10.3-13.5-2.2-27.1-3.2-40.8-3.1l-70.4 1.7c-12.3.4-24.6 1.3-36.9 2.2-5.3.4-10.5 1.4-15.8 2.1-.6.1-1.3.1-1.9.1.3-.6.5-1.2.8-1.8 7.2-10.8 16.6-19.2 27.1-26.6 14.3-10.1 30.5-14.5 47.6-16.4 17.5-2 35.2-2.1 52.6.6 28.1 4.4 51.2 17.6 67 42 1.7 2.7 2.8 5.8 4.2 8.7-.2.5-.3.7-.5.8z" class="Bi"/><path d="M1047.9 1053c-4.7 0-9.5.1-14.2-.1-.8 0-1.8-.6-2.4-1.3-3.1-3.2-6-6.6-9.2-9.9-2.4-2.5-5.9-2.3-8.9-2.4l-35.2-.2c-2.2 0-4.3.2-6.5.1-2.3-.1-3.7.7-3.7 3.2 0 1-.2 1.5-1.4 1-8.5-3.2-16.3-13.8-16.7-22.9-.1-2.1.3-2.5 2.4-1.7 8.8 3.4 17.6 2.6 26.2-.9 1.1-.5 1.9-.6 2.3.8a3 3 0 0 0 1.2 1.5c1.2.8 1.5 1.8 1.5 3.3-.1 2.3 1.5 3.9 3.6 4.6 1.5.5 3.1.9 4.6.9 8-.2 16-.3 23.9-.9 4.6-.4 5.6-2.2 5.8-7 0-.4.5-1 .8-1.3 3.4-3.1 3.5-8.3-.4-11-2.4-1.6-5.4-2.7-8.3-3-4.9-.5-10-.4-14.9-.3-1.8 0-2-.2-1.6-2 .5-2.3 1.5-2.9 3.8-3 5.8-.1 11.6-.5 17.5-.9 1.2-.1 1.9.3 2.4 1.5 6.7 17.9 20.9 26.2 38.7 28.8 15.1 2.2 28.7-2.2 40.1-12.5 7.4-6.6 11.6-15.1 13.6-24.7.2-1.2.5-1.7 1.8-1.8l22.6-2.2c2.8-.3 5 .9 6.9 2.9 2.1 2.2 4.2 4.3 6.5 6.2 1 .9 2.4 1.6 3.8 1.8 2.9.5 2.9 2.3 2.4 4.3-2.1 8.6-5.6 16.5-11.8 23-9.2 9.7-20.7 14.8-33.3 18-21.1 5.6-42.4 7.8-63.9 8.1z" class="Bn"/><path d="M1041.3 979.5l33.5.4c7.9.2 15.3 2.1 21.6 7.3 1.8 1.5 4.1 2.5 6.3 3.4 1.3.5 1.4 1.1 1.2 2.2-3.8 18.9-16.6 31.9-35.6 35-18.8 3.1-39.3-9.4-45.8-27.4-.7-1.9-1.7-2.8-3.8-2.7l-26.5 1.2c-.8 0-1.7 1-2.2 1.8s-.5 1.9-.8 2.9c-.6 2.3-1.8 4-4.1 5.3-1.9 1.1-3.2 3.2-4.8 4.8-.5.5-.9 1.2-1.4 1.5-13 6.1-28 4.8-37.3-6.5-2.2-2.6-3.6-5.9-5.2-9-.4-.7-.4-1.8-.2-2.6 1.6-5.1 4.5-9.3 9.9-10.7 6-1.5 12.2-2.9 18.4-3.3 25.6-1.6 51.2-2.2 76.8-3.6 0 .3 0-.3 0 0z" class="Bd"/><path d="M935.5 992.3c-1-9.1 5.6-18.1 15.2-19.9 10-1.8 20-3.4 30.1-4.1 19-1.3 38.1-2.1 57.1-2.7 17.1-.5 34.3-.7 51.4-.3 17.6.4 35 2.1 51.7 8.3 6.2 2.3 12.7 4.4 17.7 9 2 1.8 3.7 4.1 4.9 6.5 1.3 2.3 1.4 5-.6 7.2s-4.6 2.3-7.2 1.6c-1.9-.6-3.7-1.8-5.5-2.8-.8-.5-1.5-1.2-2-1.9-4-5.7-9.4-7.4-16.1-6.5-6.6.9-13.2 1.5-19.8 2.3-5.6.7-10.8-.2-15.3-3.9-6.7-5.6-14.7-7.3-23-7.7-22.1-1.2-44.1-.1-66.2.8-8.2.3-16.5.5-24.7 1.2-10.7.9-21.3 2-32 3.3-6.4.7-12 3.7-15.7 9.6h0z" fill="#6b7187"/><path d="M1057.4 1181.4c-1.6-.1-4.4-.1-7.2-.6-4.2-.7-5-2.3-4.9-6.5 0-2.6-.8-5.2-1.6-7.7-1.9-6.1-4-12.1-6.1-18.2-.5-1.6-.3-2.2 1.6-2.3l48.9-2.4c8.1-.5 16.1-1.3 24.1-2.1 1.4-.1 2 .2 1.9 1.7-.4 8.8-1.3 17.5-4.3 26-2.4 6.6-7 9.5-13.5 9.9l-38.9 2.2z" fill="#eeb53f"/><path d="M1000.1 1114l-38.2.4c-.4-.1-.9-.3-1.3-.4.4-.3.7-.9 1.1-1 3.6-1 6-3.2 6.3-6.9.1-1.6-1.4-3.3-1.4-5 .1-1.7 1.9-3.4 1.7-4.9-.3-1.9-2.4-3.5-2.8-5.5-.4-1.8.8-4 .4-5.8-.3-1.4-2-2.5-3-3.8l-1-1.3c.5-.2 1-.5 1.5-.6l44.4-.7c10 0 20 .7 29.9 1.2.6 0 1.2.5 1.8.8-.4.5-.6 1.2-1.1 1.6-4.3 3.1-5.1 6.9-2.5 11.4.2.4.2 1.2 0 1.6-1.7 3.6-1.2 6.3 1.6 9 .5.5.7 1.3.8 2 .3 1.9.1 4 .6 5.8.5 1.5.4 1.8-1.2 1.8l-23.2-.1-14.4.4c0 .2 0-.2 0 0z" fill="#aae3cc"/><path d="M1000.1 1076.3c-9.5 0-19 .6-28.5.7-1.5 0-2.1-.1-2.1-1.9l.4-31.5c0-1.7.5-2.2 2.2-2.2l36.7-.1c2.5 0 5 .4 7.5.5 1.3.1 1.6.6 1.5 1.9-.5 7.3 2.1 10.1 9.5 10 2.1 0 2.9.5 3 2.7l.8 19c.1 1.5-.7 1.5-1.8 1.5l-21.7-.5c-2.5-.1-5-.1-7.5-.1 0 .3 0-.2 0 0z" fill="#fafafa"/><path d="M1012.5 1146.5h20.2c1.4 0 2.1.1 2.5 1.7 1.9 6.4 4.4 12.7 6.2 19.2 1 3.7 1.2 7.6 1.8 11.4 0 .3-.4.7-.7.8-.8.3-1.6.7-2.4.7-11.7 1-23.4 1.1-35.1-.4a12.94 12.94 0 0 1-3.8-1.2c-.7-.4-1.3-1.3-1.6-2-1.2-4.1-2.2-8.3-3.5-12.4-1.7-5.2-3.5-10.4-5.4-15.5-.7-1.9-.4-2.4 1.7-2.3 6.8.1 13.5 0 20.1 0z" fill="#eeb53f"/><path d="M1050.5 921.1c-17.2 0-34.2 1.9-50.5 7.7-1.4.5-3.2 1.4-4.3 1-3.6-1.5-6.5-4-8.2-7.6-2-4.4-.2-8.9 4.6-11.4 5-2.5 9.9-1.6 14.6.9 2.4 1.3 4.5 3.2 6.7 4.7.6.4 1.4.6 2.2.9.1-.7.5-1.5.4-2.2-.7-4.1.7-6.5 4.7-7.8 4.9-1.5 9.2-.6 12.8 3.2.8.8 1.5 1.8 2.3 2.6.5.5 1.1.8 1.7 1.2.4-.6.9-1.1 1.1-1.7.7-2.1 2-3.6 4.2-4.3 2.8-1 5.1 0 6.5 2.6 1.7 3.2 1.5 3 4 .7 4-3.7 8.7-5.2 14-3.9 4 1 5 4.3 2.5 7.6-1.4 1.8-2.7 3.7-4.2 5.4-.3.3-1 .4-1.5.4h-13.6z" class="Bj"/><path d="M999.6 1126.7c-8.8 0-17.7-.1-26.5 0-2 0-2.5-.8-2.6-2.6-.4-7.7-.4-7.7 7.3-7.8l49.7-.4c2.5 0 3.5.6 3 3.2-.3 1.4-.4 2.8-.2 4.2.2 2.7-1.1 3.3-3.5 3.3-9 0-18.1 0-27.2.1z" fill="#fafafa"/><path d="M1046.2 1055.9l29.4-2.2c1.4-.1 1.9.2 2.2 1.5 1.1 4-.1 7.2-4.1 8.7-2.5 1-5.3 1.9-7.9 1.9-10.3.1-20.6-.1-30.9-.1-1.4 0-1.8-.5-1.8-1.9 0-2.2-.2-4.5-.5-6.7-.2-1.4.2-1.8 1.7-1.8 3.9.1 7.9.6 11.9.6 0 .1 0-.2 0 0z" fill="#f1f2fa"/><path d="M1001.3 1020.4h-14c-2.3-.1-4.4-1-5.1-3.6-.5-2 .9-4.4 3.4-5.8 4.6-2.6 9.6-3.3 14.7-3.2 5.1 0 10.1.2 15.2.7 3 .3 5.8 1.6 6.7 5.1.6 2.2 0 4-2 4.8-2.3.9-4.7 1.7-7.1 1.9-4 .3-7.9.1-11.8.1z" fill="#ecb43f"/><path d="M1050.8 1116.5c-2.5-1.1-5.5-1.7-7.8-3.1-2.9-1.8-3.4-4.4-2-7.6.6-1.3.3-1.9-.9-2.6-3.6-2.2-3.9-4.6-1.2-7.8.3-.4.2-1.7-.2-2.2-3.4-3.6-2.9-7 1.4-9.5.1-.1.3-.2.4-.3 4.7-2.5 4.7-2.4 6.2 2.4 2.1 7.2 4.4 14.5 6.7 21.7.6 2 1.5 3.9 2.7 5.6 1 1.5.5 1.9-.9 2.3-1.5.3-2.9.7-4.4 1 0 .1.1 0 0 .1z" fill="#faf19c"/><path d="M959.9 1110.9c-4.2 0-7.4-2.4-8.9-6.6-1.8-5.3-1.7-10.7-.2-16 1.2-4.2 4.9-6.8 8.6-6 1.7.4 3.5 1.9 4.5 3.3 1 1.5 0 3.1-1.6 4.2-1.2.9-.9 1.8.5 2.4 4.3 1.9 4.7 4.7 1 7.9-.4.3-.4 1.9-.2 2 1.9.8 2.9 2 2.3 4.1-.6 2.3-2.2 3.9-4.5 4.5-.5.2-1.1.2-1.5.2z" fill="#fbf29c"/><path d="M1033.4 1072.4c0-4.9 0-4.8 5.1-4.4 4 .4 8.1.4 12.2.6.5 0 1.1.2 1.6.4-.4.4-.7.8-1.1 1.1-2.6 1.8-4.1 4.4-4.7 7.4-.4 2.3-2.2 2.1-3.7 2.5-.3.1-.9-1-1.4-1.5-.4-.3-1-.6-1.5-.7-.6-.2-1.3-.1-2-.2-4.6-.6-4.6-.6-4.5-5.2z" fill="#eff0f9"/><path d="M967.4 1068.9v6.7c0 1.3-.4 1.8-1.7 1.7-1.2-.1-2.5-.1-3.7 0-.7.1-1.9.4-1.9.7-.6 3-3.4 1.5-4.9 2.6-.2-.6-.6-1.3-.5-1.8 1.3-4.8 3.2-9.3 6.6-13 1.5-1.7 3.4-3.2 5.1-4.7 1-.8 1.4-.5 1.4.8v7h-.4z" fill="#f0f1f9"/><path d="M1000.5 1027.3l-9.7-.5c-1.6-.2-3.3-1-4.8-1.8-.4-.2-.4-1.3-.5-2 .6-.1 1.1-.2 1.7-.2l30.4-1c1.3-.1 1.9.4 1.4 1.3-.7 1.1-1.9 2.5-3.1 2.7-5.1.8-10.2 1.2-15.3 1.8 0-.1 0-.2-.1-.3z" fill="#e6af3d"/><path d="M1088.2 1022c9.9-7.4 15.6-17.3 17.8-29.3.5-2.6 2.5-.8 3.8-1.3.1 0 .8 1 .7 1.4-2.9 13.1-9.9 23.2-21.9 29.6-.3.1-.4 0-.4-.4z" fill="silver"/><path d="M1019.9 1045.1c0-.2.2-.9.3-1.6.6.4 1.3.7 1.7 1.2l5.5 5.8c.8.9.6 1.1-.6 1.2-4.3.4-6.9-1.9-6.9-6.6z" fill="#c9c9c9"/><path d="M1088.7 1022.5c-.5 0-1 .1-1.5.1l1-.6.5.5z" fill="silver"/><path d="M1153.7 975.7c.1.2.1.4.2.6-.2 0-.4 0-.6-.1.1-.2.2-.3.4-.5z" class="Bi"/><path d="M935.5 992.3c0 .1 0 .2-.1.2h-.2c.2 0 .2-.1.3-.2z" fill="#6b7187"/><path d="M1065 1008.5c0 4.5-2.7 7.5-6.8 7.6-4.3.1-7.5-3.1-7.4-7.3 0-4.3 2.8-7.3 6.8-7.3 4.4-.1 7.4 2.8 7.4 7z" fill="#040404"/><path d="M970.1 1006.3c0 4-2.2 6.5-5.9 6.6-3.9 0-6.9-2.9-6.9-6.6 0-3.4 3.4-6.9 6.7-6.8 3.4 0 6.1 3 6.1 6.8z" class="Bo"/><path d="M1000.5 1096.5v-5c0-.7.4-1.4.6-2.1.8.4 1.8.6 2.5 1.2.9.9 1.7 2 2.4 3.2 1 1.8 1.7 1.4 2.7-.1.7-1.1 1.5-2.2 2.5-3.1.6-.6 1.5-.7 2.3-1.1.3.7.7 1.4.7 2.1 0 3.6 0 7.2-.2 10.7 0 .6-.8 1.2-1.3 1.8-.4-.6-1.1-1.1-1.1-1.7-.1-2.3 0-4.7 0-7 0-.3-.2-.7-.4-1-.2.2-.5.4-.7.6-.1.1-.2.3-.3.4l-3.1 3.4-3-3.7c-.3-.3-.7-.6-1-.9l-.3 1.4c-.1 2.3 0 4.7-.2 7 0 .5-.8.9-1.2 1.4-.4-.5-1.1-.9-1.1-1.4 0-2.1.1-4.1.2-6.1-.1 0 0 0 0 0zm-3.8 7.6c-.4-.4-1-.8-1.1-1.3-.3-2-1.8-1.9-3.2-1.8-1.7.2-3.9-1.1-4.7 1.8-.1.5-1.4.7-2.1 1 0-.6-.2-1.3 0-1.8 1.5-3.8 2.9-7.6 4.6-11.3.3-.6 1.3-1.2 1.9-1.3.5 0 1.4.7 1.7 1.3 1.6 3.9 3 7.9 4.4 11.9.1.4-.3 1-.4 1.5h-1.1z" fill="#0a0d0c"/><path d="M978.7 1101.4c0-3-.1-2.3-1.4-4.8l-3-5.5c-.3-.6-.2-1.3-.3-2 .9.3 2 .4 2.5 1 1 1.4 1.8 3 2.5 4.6.6 1.3 1 .9 1.5 0l2.5-4.3c.3-.5 1.1-1 1.7-1.1 1-.2 1.9-.1 1 1.4l-3.4 5.8c-.7 1.4-.8 3-1.3 4.4 0 1.3.9 2.9-1.3 2.7-.7 0-1-.9-1-2.2.3-.1-.3.1 0 0z" fill="#090d0b"/><path d="M1017.6 1097l.1-5.5c.1-.7.7-1.7 1.2-1.8 1.7-.4 1.3 1 1.3 1.9l-.1 8.2c-.1 1.7.5 2.2 2.1 2 1.1-.1 2.2-.1 3.2.1.5.1.9.8 1.3 1.2-.4.4-.8 1.1-1.2 1.1-2.2.1-4.5.1-6.7-.1-.4 0-1.1-.9-1.1-1.4-.3-1.9-.2-3.8-.1-5.7-.1 0-.1 0 0 0z" fill="#080b0a"/><path d="M999.7 1069.5c-6.2 0-12.3.7-18.5.6-.8 0-1.6-.7-2.4-1 .8-.4 1.6-1.2 2.4-1.2l36.9-.6c.2 0 .4-.1.5 0 .7.4 1.3.8 2 1.2-.7.3-1.3.9-2 .9-6.3.2-12.6.1-18.9.1 0 .3 0-.2 0 0zm-.5-9.1c5.9 0 11.8-.6 17.7-.5.8 0 1.5.7 2.3 1.1-.7.3-1.5 1-2.2 1l-29.5.3c-2.3 0-4.7.3-7 .3-.7 0-1.3-.7-2-1 .6-.4 1.3-1.1 1.9-1.1l18.8-.1c0-.2 0 .2 0 0z" fill="#121212"/><path d="M996.9 1051.8l9.7.1c.8 0 1.6.7 2.3 1.1-.7.3-1.5 1-2.2 1l-21.9.9-4 .3c-.8 0-1.5-.6-2.2-.9.6-.4 1.2-1.1 1.9-1.2l6.5-.6 10-.5c-.1-.1-.1-.1-.1-.2z" fill="#151515"/><path d="M989.8 1097.6l1.7-4.6h.5l1.9 4.6z" fill="#aae3cc"/><path d="M453.6 1803.3v-24c0-1.6-.4-2.7-1.8-3.7-13.9-11-19.6-25.4-15.5-42.6 4.2-17.6 15.9-28.1 33.6-31.3 22.9-4.1 44.9 12.8 47.4 36 1.5 13.8-3 25.3-12.8 35-.7.7-1.2 1.9-1.2 2.9l.4 52c0 1.6.4 2 1.9 1.9 2.9-.1 5.8-.1 8.7 0 1.1 0 2.8-.5 2.8 1.4 0 .4-1.8 1.1-2.7 1.1-2.7.1-5.5.2-8.2 0-2.4-.2-2.8.8-2.9 2.9-.3 4-.5 8-1.6 11.8-2.5 9.5-10.8 16-20.7 16.2-3.7.1-7.5-.3-11-1.3-10.8-3.2-14.7-11.6-15.8-21.9-.1-1-.1-2-.2-3-.2-4.4-.2-4.5-4.5-4.5l-77.2-.2-77.2.1-94.2-.6c-3.7 0-7.5.3-11.2.3-.9 0-1.9-.7-2.8-1.1.9-.5 1.8-1.3 2.8-1.4 3.1-.3 6.3-.4 9.5-.4 1.5 0 2-.4 2.2-2 1.5-14.5 4.5-28.8 10.9-42 1.7-3.4 3.7-6.7 5.7-10 .7-1.2.7-1.7-.5-2.5-13.6-9-20.3-22.1-22.3-37.8-.4-2.9-.8-4.8-4-6.2-4.5-1.9-5.7-6.3-4-11 1.7-4.6 4.9-8.1 8.7-11.1 4.2-3.3 7.6-7.1 10.7-11.5 14.7-20.3 35-32.3 59-38.3 7-1.8 14.2-2.5 21.4-3.7.7-.1 1.5-.3 2.2-.4-.4-.6-.8-1.1-1.2-1.7-2.1-2.4-2.3-5.1-.5-7.8 3.1-4.7 9.9-6.4 15.9-3.8 1.7.7 2.5 1.1 3.6-1 2-3.5 7.7-4.9 12.6-3.1 2 .7 3.9 2.2 5.5 3.6.9.8 1.1.6 1.8 0 3.8-3.2 8.3-4.9 13.3-4.7 3.6.2 6.7 1.5 8.1 5.2.5 1.4 1 .9 1.9.5 7.7-3.8 15.5-4.6 23.2-.3 7.1 3.9 7.6 12.7 1.2 17.8-1.5 1.2-2.7 2.6-4 4 1.6.9 3.1 1.9 4.7 2.7 10.6 5.4 20.2 12 27.7 21.3 1.3 1.6 2.7 2.3 4.6 2.9 11.3 3.2 19.8 9.6 23.2 21.2 3.2 10.8-.9 19.9-8.4 27.7-1.2 1.2-1.5 2-1 3.8 4 12.6 2 23.9-7.6 33.5-.3.3-.5 1.4-.3 1.6 10.6 12.6 15.4 27.6 18.2 43.4.5 2.8.8 5.6 1.1 8.4.1 1.3.6 1.6 1.8 1.6l18 .4c1.9.1 1.2-1.2 1.2-2v-24.5c-.1.2-.2.2-.2.2z" fill="#0c0b09"/><path d="M319.5 1790.7c-9.6-.4-19.4-.3-28.9-1.4-18.8-2.1-37.7-4.1-55.7-10.8-19.7-7.4-33.3-20-36.9-41.6l-.3-2.5c-.6-2.8-.1-4.7 2.9-6.3 2.8-1.4 5.4-3.8 7.1-6.5 3.4-5.3 8.4-7 14-7.1 8.3-.2 16.6.2 25 .5.6 0 1.4 1 1.6 1.7 2.1 6.3 4.5 12.5 8.9 17.7 15.2 18.2 39 22.9 59.9 11.9 10.4-5.4 18.7-13 22.9-24 1.6-4.3 3.7-5.2 7.6-4.9 4.9.4 9.8.3 14.7.4 1.4 0 2 .4 2.4 1.8.5 1.8 1.2 3.7 2 5.3.8 1.5.3 1.5-1 1.6-5.5.1-11 0-16.4.5-2.7.3-5.4 1.6-7.9 2.8-3.4 1.7-5.3 8-1.1 11.3.4.3.6 1.1.6 1.6-.4 3.8.6 5.8 4.3 6.7 3.3.8 6.7 1.1 10.1 1.2 6.5.1 13 0 19.5-.1 1.4 0 2.9-.6 4.3-1.2 2.3-1.1 3.4-3.3 2.9-5.8-.2-1.2 0-1.7.9-2.6 1.8-1.8 3-1.4 5-.3 9.6 5.3 19.5 5.8 29.3.5 1.9-1 1.8.4 2.2 1.4 3.5 10.2 1.2 25.6-11.9 33.6-6.7 4.1-14 6.2-21.4 7.8-22 4.5-44.1 7.2-66.6 6.8z" class="Bi"/><path d="M346.4 1829.5h-60.2c-7.7 0-15.5-.2-23.2-.3-1.7 0-1.9-.6-1.8-2.1.2-2.6.4-5.2.4-7.7 0-.8-.8-1.5-1.3-2.3-.4.7-1.1 1.3-1.2 2.1-.3 2.7-.4 5.5-.5 8.2 0 1.3-.5 1.7-1.8 1.6l-51.2-.2c-1.2 0-2 0-1.8-1.7 1.8-15.1 4.8-29.9 11.9-43.5 1.4-2.6 3-5 4.4-7.5.6-1 1-1.4 2.3-.7 12.9 7.2 27 10.6 41.4 13 3.3.6 3.3.5 2.6 3.7-.4 1.6-.7 3.2-1 4.9-.8 4.8.8 7.8 5.4 9.3 3 1 6.1 1.5 9.3 1.7 18.9 1.3 37.9 2.6 56.9 1.4 6.1-.4 11.4-2.4 14.3-8.4.8-1.6 1.7-1.4 2.6-.2.9 1.1 1.7 2.3 2.5 3.4 2 2.7 4.6 3.9 7.8 3.3 4.3-.8 8.7-1.6 12.9-2.6l24.4-6c1.3-.3 2.6-.7 3.8-1.2 3.2-1.5 4.7-4.2 3.5-7.6-.9-2.8-2.5-5.4-4.1-7.9-.6-1.1-.8-1.6.5-2.2 1-.4 2-.9 2.8-1.6 2-2 3.2-1 4.6.8 7.2 9.4 11.7 20.1 14.4 31.5 1.2 5.3 1.9 10.6 2.9 15.9.4 1.9.1 2.9-2.2 2.7-2.6-.2-5.3-.2-8 0-2 .2-2.3-.7-2.5-2.3-.6-4.9-1.4-9.9-2.1-14.8 0-.2 0-.6-.1-.7-.5-.6-1.1-1.1-1.7-1.7-.3.7-.8 1.4-.8 2 .5 4.3 1.2 8.6 1.9 12.8.7 4.6.8 4.6-3.9 4.6h-64.2c.1.2.1.2.1.3z" class="Bm"/><path d="M338.9 1701.8l54 1.1c8.7.2 17.3 1 25.5 4 1.7.6 3.4 1.4 5 2.3 5.8 3.3 7 5.7 5.2 12.2-6.2 21.5-26.9 25.5-42.1 15.3-.5-.3-.9-1-1-1.6-.8-2.7-2.5-4.9-5-6-3.8-1.6-5.7-4.6-6.6-8.1-1.2-4.5-3.8-6-8.3-5.9-7.4.2-14.8-.2-22.2-.4-2.6-.1-3.9.9-4.7 3.6-2.2 7.7-6.8 14.1-13.1 19.1-12.7 10.2-26.9 14.5-43.1 10.5-6.4-1.6-11.4-4.9-15.2-10.1-5.6-7.5-9-15.9-9.9-25.2-.1-1 .5-2.4 1.3-3.1 4.9-4.6 10.8-6.8 17.4-7.1l30.2-1.1c10.9-.2 21.8 0 32.7 0-.1.2-.1.3-.1.5z" class="Bd"/><path d="M399.5 1686.2c-19.7-2.7-39.5-2.7-59.3-2.6l-65.2.9c-17.2.6-34.4 1.8-51 7-5.1 1.6-10.1 3.7-15.1 5.6-.3 0-.5-.1-.5-.5 8.5-12.2 19.8-21.2 32.8-28.2 13.1-7 27.2-10.6 41.8-12.5 13.4-1.8 26.9-2.3 40.4-1.5 18.2 1.1 35.9 4.1 52.2 12.6 9.2 4.8 17.6 10.7 24.4 18.7-.1.2-.2.4-.5.5z" fill="#fdf49d"/><path d="M427.2 1708.5c-9.3-6.1-19.8-7.5-30.5-8l-46.2-1.1-46.5-.7c-11.5.2-23.1 1.2-34.6 2.2-5.4.5-9.8 3.8-13.5 7.5-3.5 3.4-7.6 4-12.2 3.8-8.7-.4-17.4-1.5-26.2.1-4.6.8-8.4 2.8-11.2 6.7-1.8 2.6-4.4 4.8-6.9 6.8-2.9 2.2-5.4 1.9-8.2-.4-2.2-1.8-3.1-4.6-1.4-7.4 2.1-3.4 4.6-6.7 7.5-9.5 9.7-9.5 22.1-13.6 34.9-16.6 12-2.9 24.3-4 36.6-4.5 15.7-.6 31.5-1 47.2-1.1l53 .2c12.5.3 25.2.6 37.4 3.9 8.7 2.3 15.8 7 20.1 15.2.4.8.6 1.7 1 2.5-.1.2-.2.3-.3.4z" fill="#6a7187"/><path d="M456.2 1815.5v-16.7c0-1.1-.1-1.8 1.6-1.3s3.6.7 5.4.7l34-.3c1.3 0 3.3-.6 3.7 0 .7 1 .5 2.7.4 4.1l-1 38.7c-1 18.1-18 22.6-29.6 18.5-8.7-3.1-13.4-9.9-13.9-20.2l-.9-23.4c.1-.1.2-.1.3-.1z" fill="#f84109"/><path d="M459.7 1751c-1.6-.5-3.1-1.1-4.8-1.4-.8-.1-1.8.3-2.4.8-.2.2.1 1.3.4 2l2.8 8.2c.1.4.2 1 0 1.2-2.5 2.8-1.9 6.2-2.2 9.5l-.4 1.9c-.6-.3-1.2-.6-1.7-1-15.7-12.6-18.5-36.7-6.2-53 9.7-12.8 25.9-18.3 41.4-14.1 15.3 4.2 26.5 17.4 28.2 33.4 1.2 11.5-2.2 21.5-9.9 30.1-.4.5-1 .8-1.5 1.2 0-.6-.2-1.3-.1-1.9.8-2.9.7-5.4-2.5-7-.3-.2-.5-1-.4-1.4l1.2-10.6c.1-.6-.3-1.5-.7-1.9-.3-.2-1.2.1-1.7.3s-1 .6-1.5.8c-1.5.7-2 .4-1.8-1.4 1-9.6-1.3-18.3-7.9-25.6-.7-.7-1.7-1.1-2.6-1.6-.4.9-.8 1.8-1.1 2.7-.2.5-.3 1.1-.4 1.6-.4-.4-.9-.8-1.2-1.3-2.1-3.5-4.6-6.6-8.3-8.4-.9-.4-2.2-.6-3-.3-.5.2-.4 1.7-.5 2.7l-1.2 11.6c0 .1-.9.3-1.2.2-1.2-.6-2.2-1.6-3.4-1.9-.6-.2-2.1.5-2.2 1-1 4.3-2 8.7-2.5 13.1-.4 3.4-.3 6.9-.4 10.4-.2-.1-.2 0-.3.1z" fill="#f74109"/><path d="M363.6 1805.1c-2.2.2-3.9-.7-5.2-2.4-1-1.3-1.9-2.8-3-3.9-2.1-2.1-4.7-1.9-6 .6-2.8 5.6-7.6 7.5-13.3 7.6-12.4.1-24.8 0-37.2-.3-8-.2-15.9-1.1-23.9-1.7-.9-.1-1.8-.3-2.7-.6-3.9-1.4-5.1-3.4-4.3-7.4.4-2 1-3.9 1.3-5.8.2-1.6 1-1.8 2.4-1.5 20 3.4 40.1 3.8 60.3 3.4 15.9-.3 31.6-2.1 47.1-5.3 7.1-1.5 14.2-3.5 21.3-5.2.6-.1 1.6 0 1.8.3 1.5 2.3 3.1 4.6 4.1 7.1 1.3 3.2.3 5.1-3.1 6-3.3.9-6.6 1.5-9.9 2.3l-26.4 6.5-3.3.3z" fill="#f1f2fb"/><path d="M475 1769c-1.5 0-3-.1-4.5 0-7.1.5-10.2-3.5-12.3-9.1-.7-1.9-1.2-4-1.8-6-.1-.3-.1-.6-.1-.9.4 0 .9-.1 1.2 0 1.3.7 2.6 1.6 3.9 2.2s2.7.1 2.1-1.5c-2.8-7-.8-13.6 1.2-20.2.1-.5.3-1 .4-1.4l.6-2.6c.8.7 1.5 1.4 2.3 2.2.2.2.2.5.4.6.8.6 1.5 1.2 2.3 1.8.3-.9.8-1.7 1-2.6l1.9-14.1c0-.1 1.2-.2 1.5 0 3.8 3 6.1 7 7.5 11.5.2.6.2 1.3.5 1.9.4.9 1.1 1.7 1.6 2.5.7-.9 1.7-1.8 1.9-2.8.3-1.6-.1-3.3-.1-5 0-.5.2-1.1.2-1.6.4.3.9.6 1.2 1 4.4 6.1 5.9 12.9 5.4 20.3-.1 1.9-.8 3.7-1.1 5.6-.1.6 0 1.4.4 1.7.3.2 1.2-.1 1.7-.3.4-.1.6-.6 1-.7 1-.4 2-.7 3-1 0 .9.2 1.8.1 2.6-.2 4.8-1 9.5-4.4 13.2-.8.9-2.1 1.6-3.3 1.7-5.3.4-10.6.6-16 .9l.3.1z" class="Bd"/><path d="M377 1647.7c-.6 3.4-1.6 5.8-4.2 7.7-1.6 1.2-2.9 2.9-4.5 4.2-.5.4-1.7.5-2.4.3-10.1-3.7-20.4-5.9-31.1-7.1-13.3-1.4-26.6-1.9-39.9-.9-1.8.1-5.6-2.5-6.1-4.3-.6-2.4.8-4 2.6-5.2 3.6-2.7 9.1-2.5 13.1.4 2.5 1.9 2.8 1.7 3.6-1.3.3-1.1.9-2.2 1.8-2.9 3.9-3.1 12.6-1.6 14.1 3.5.2.8 1 1.3 1.6 2 .6-.6 1.4-1.1 1.8-1.8 2.5-4.3 11.1-7.1 15.6-5 2.1.9 3.2 2.5 3.3 4.8 0 .8.5 1.6.7 2.4.8-.4 1.8-.6 2.5-1.2 5.9-5.2 18.3-5.7 24.2-.6 1.5 1.2 2.2 3.3 3.3 5z" class="Bj"/><path d="M479.2 1795.5h-18c-4.3-.1-4.9-.9-4.9-5.2l-.2-18.5c0-1.5.3-1.8 1.8-1.3 1.4.5 2.9.8 4.4.8 12.2.4 24.3.3 36.4-1.5 1.5-.2 1.8-.1 1.8 1.4.2 6.9.3 13.8.8 20.7.2 2.7-1.2 3.3-3.3 3.4-4.2 0-8.3 0-12.5-.1-2.2 0-4.3.3-6.3.3 0 .1 0-.1 0 0z" fill="#fbfbfb"/><path d="M361.3 1741.8l-15.6-1.4c-2.4-.3-4.7-1-5.2-3.8-.4-2.3 1.1-4.6 4-5.6 2.8-.9 5.8-1.9 8.7-1.9 7.2 0 14.4.4 21.7.9 2.7.2 5.1 1.5 6.8 3.7 1.9 2.4 1.6 4.7-1.3 5.5-4.3 1.3-8.7 1.9-13.1 2.6-2.1.3-4.3 0-6 0z" fill="#f6ae0b"/><path d="M363.9 1748.5l-16-1.1c-.7 0-1.3-.2-1.9-.4-1.5-.5-3-1.2-2.6-3.1.5-2.1 2.2-.8 3.3-.7 10.3.7 20.7 2.3 31-.2.5-.1 1.6.3 1.6.4-.1 1-.1 2.5-.7 2.9a8.5 8.5 0 0 1-4.1 1.5c-3.5.4-7 .5-10.6.7z" fill="#f1ab0b"/><path d="M261.5 1734c-.1.3-.3.5-.4.8-.2-.2-.5-.4-.7-.6-3.7-3.9-6.1-8.4-8-13.4-.5-1.4-.9-2.8-1.5-4.2-.5-1.3-.4-2 1.2-2.7 2.1-.8 2.8-.6 3.1 1.8.8 5.9 2.7 11.4 5.5 16.7.3.4.5 1 .8 1.6z" fill="#bfbfbf"/><path d="M372.1 1727.5c-.9-.9-1.7-1.3-2-2-1-1.8-1.8-3.7-2.6-5.6-.2-.5 0-1.2 0-1.8.8.2 2.1.2 2.4.7 1.3 2.4 2.3 4.9 3.4 7.5 0 .1-.6.6-1.2 1.2z" fill="#bdbdbd"/><path d="M208.9 1697.1c-.3.1-.6.2-1 .2.2-.2.3-.5.5-.7.2.1.4.3.5.5zm191.1-11.4c.1.2.2.3.3.5h-.8l.5-.5z" fill="#fdf49d"/><path d="M427.5 1708.2c0 .2 0 .4.1.5l-.3-.3.2-.2z" fill="#6a7187"/><path d="M459.9 1750.8a.9.9 0 0 0 .1.5l-.3-.3c.1-.1.1-.2.2-.2z" fill="#f74109"/><path d="M310 1725.2c-.1 5-3.5 8.3-8.6 8.2-4.3 0-8.1-4.1-8.1-8.8 0-4.8 4.3-9.1 8.8-9.1 4.8.2 8 4.1 7.9 9.7z" fill="#040404"/><path d="M394.7 1724.2c0-4.8 3-8.4 6.8-8.3 4 .1 7.3 4 7.2 8.7-.1 3.9-2.8 6.7-6.5 6.8-4 0-7.5-3.3-7.5-7.2z" class="Bo"/><path d="M461.9 1769.1s-9-.4-4.3-5.1c0 0 2 4 4.3 5.1zm34.8-1.5s2.3-2.5 3.1-4.9c0 0 4.7 4.1-3.1 4.9z" class="Bd"/><path d="M107.5 308.8l.2.1c1.8.6 3.3 1.8 4.5 3.3.2.2.2.4-.2.6l-.6.3-4.2 2.4c-.3.1-.3.1-.7-.1h-.1c-.5-.4-.9-.6-1.6-.7h-.1c-2.1-.4-3.8.3-5.2 1.8-1.7 1.8-2.2 4-1.6 6.4s2.8 3.9 5.2 3.6c2.1-.2 3.6-1.4 4.5-3.2.2-.4.3-.8.5-1.3l-5.7 1.5c-.6.2-.9-.2-.8-.7v-.3l.6-3.2v-.2c.1-.2.2-.5.6-.6l9.5-2.4c.1-1.5.4-2.9 1.1-4.4 1.4-3.4 3.7-5.5 7-7.1 2.9-1.3 5.8-1.7 8.8-.7 2.7 1 4.7 2.8 5.9 5.5 1.5 3.9 1.2 7.4-.8 10.9-1.4 2.5-3.5 4.3-6.1 5.6-.8.4-1.6.6-2.3.9-2.7.6-5.4.5-7.9-.8-1.8-.9-3.2-2.2-4.1-3.8-.2.8-.4 1.6-.7 2.3-1.4 3.4-3.7 5.8-7.2 7.2-2.8 1.1-5.6 1.3-8.5.1-2.6-1.1-4.4-3-5.4-5.6-1.2-3.1-1-6.3.3-9.3 1.4-3.3 3.7-5.7 7-7.2 2.6-1.5 5.3-1.9 8.1-.9h0zm15.1.6h0c-2.7 1.4-4 3.6-4 6.5.1 2.4 1.8 4.5 4.2 4.9 1.8.3 3.4-.2 4.8-1.4 2-1.8 2.8-4 2.3-6.6a12.59 12.59 0 0 0-.3-1c-1.3-2.7-4.3-3.7-7-2.4h0zM89 323.7c.1 0 .2 0 .2.2l.1.7c0 .1-.1.2-.2.3l-6.5 1.6c-.1 0-.2-.1-.1-.2l.2-.8c0-.1.1-.2.3-.3l6-1.5zm0-2.9c.1 0 .2 0 .2.1l-.1.8c0 .1-.1.2-.2.2l-14 3.6c-.1 0-.2 0-.1-.1l.4-1c0-.1.2-.2.3-.2l13.5-3.4zm.8-3.1c.1 0 .2.1.1.2l-.3.9c0 .1-.2.2-.3.3l-10.7 2.7c-.1 0-.2 0-.1-.1l.4-1c0-.1.2-.2.3-.2l10.6-2.8z" fill="#00acd7"/><g fill="#1a1918"><path d="M445.7 160.4c-.1 0-.2-.1-.2-.2l-1.6-4-.9 3.4-.6-.2 1.1-4.2c0-.2.2-.3.4-.2.1 0 .2.1.2.2l1.6 4 .9-3.4.6.2-1.1 4.2c0 .2-.2.3-.4.2m4.8 1.3c-.6-.2-1.1-.4-1.7-.8l.3-.4c.5.3 1 .6 1.5.7.7.2 1.2 0 1.3-.3s-.2-.6-1.1-1.3c-.9-.8-1.2-1.2-1-1.8.2-.8.9-.9 2-.6.5.1 1.1.4 1.5.6l-.2.5c-.4-.2-.9-.4-1.4-.6-.8-.2-1.1-.1-1.2.2-.1.4.1.6 1 1.4 1 .8 1.2 1.2 1.1 1.7-.3.8-1.1 1-2.1.7m5.7-3.3l.6.2-1.2 4.4-.6-.2 1.2-4.4zm5 4l-1.5-.4-.4 1.5 1.5.4c.5.1.9-.1 1-.5.1-.5-.1-.9-.6-1zm.2-2l-1.2-.3-.4 1.4 1.2.3c.5.1.9-.1 1-.5.2-.4-.1-.8-.6-.9h0zm-.7 4l-1.8-.5s-.1 0-.1-.1l-.1-.1v-.2l1-3.8c0-.2.2-.3.4-.2l1.5.4c.9.2 1.3.8 1.1 1.5-.1.4-.4.7-.8.8.5.3.7.8.6 1.3-.3.7-1 1.1-1.8.9"/><path d="M464.9 165.5c-.2 0-.3-.2-.2-.4l1.1-4.1.6.2-1 3.9 2.4.6-.1.5-2.8-.7zm6.8 1.9c-1.2-.3-1.8-1-1.6-1.9.1-.4.5-.8 1-.8-.3-.3-.4-.7-.3-1.1.2-.8 1-1 2.2-.7.4.1 1 .3 1.4.5l-.2.5c-.5-.2-.9-.4-1.4-.5-.8-.2-1.2-.1-1.4.4-.1.4.2.8.7 1l1 .3c.1 0 .2.2.2.3s-.2.2-.3.2l-1.1-.3c-.6-.2-1 0-1.1.5-.2.6.4 1 1.1 1.2.4.1 1 .2 1.4.2v.5l-1.6-.3m-32.8-12.7l.3 2.9-1.2-1.7.9-1.2zm1 3.7l-.6-4.4c0-.1-.1-.2-.2-.2h-.2c-.1 0-.1.1-.1.1l-2.9 3.8.6.2 1.2-1.6 1.6 2.3.2.2c.2 0 .3 0 .4-.2v-.2zm28.7-11.1c-1.4 5.3-6.9 8.5-12.2 7.1s-8.5-6.9-7.1-12.2 6.9-8.5 12.2-7.1c5.4 1.4 8.5 6.9 7.1 12.2"/></g><path d="M460.1 141.1l.9 6.9-3.1-4 2.2-2.9zm2.6 8.8l-1.5-10.3c0-.3-.2-.5-.5-.6s-.6 0-.7.2l-7.1 9 1.5.4 2.8-3.7 4.1 5.4c.2.2.3.3.5.4.4.1.8-.1.9-.5v-.3z" class="BY"/><linearGradient id="Z" gradientUnits="userSpaceOnUse" x1="111.973" y1="2796.363" x2="117.839" y2="2774.903" gradientTransform="matrix(1 0 0 -1 0 2992)"><stop offset="0" stop-color="#387eb8"/><stop offset="1" stop-color="#366994"/></linearGradient><path d="M124.6 199.5c-7-4-8.3-.8-8.3-.8l-1.8 3.2 6.7 3.9-.5.9-9.4-5.4s-4.2-3.1-8.3 4 0 9.1 0 9.1l2.3 1.3 1.9-3.3s2.1-4 6.1-1.7l6.6 3.8s3.7 2.2 5.8-1.5l3.5-6.1c0 .2 2.7-3.2-4.6-7.4zm-4.9 0a.78.78 0 0 1 .4.4c.1.1.2.3.2.5s.1.4 0 .5c0 .2-.1.4-.2.5a.78.78 0 0 1-.4.4c-.1.1-.3.2-.5.2s-.4.1-.5 0c-.2 0-.4-.1-.5-.2a.78.78 0 0 1-.4-.4c-.1-.1-.2-.3-.2-.5s-.1-.4 0-.5c0-.2.1-.4.2-.5a.78.78 0 0 1 .4-.4c.1-.1.3-.2.5-.2s.4-.1.5 0 .3.1.5.2h0z" fill="url(#Z)"/><linearGradient id="a" gradientUnits="userSpaceOnUse" x1="115.358" y1="2782.805" x2="122.037" y2="2760.418" gradientTransform="matrix(1 0 0 -1 0 2992)"><stop offset="0" stop-color="#ffe052"/><stop offset="1" stop-color="#ffc331"/></linearGradient><path d="M108.9 227.1c7 4 8.3.8 8.3.8l1.8-3.2-6.7-3.9.5-.9 9.4 5.4s4.2 3.1 8.3-4 0-9.1 0-9.1l-2.3-1.3-1.9 3.3s-2.1 4-6.1 1.7l-6.6-3.8s-3.7-2.2-5.8 1.5l-3.5 6.1c0-.2-2.7 3.2 4.6 7.4h0zm4.9 0a.78.78 0 0 1-.4-.4c-.1-.1-.2-.3-.2-.5s-.1-.4 0-.5c0-.2.1-.4.2-.5a.78.78 0 0 1 .4-.4c.1-.1.3-.2.5-.2s.4-.1.5 0c.2 0 .4.1.5.2a.78.78 0 0 1 .4.4c.1.1.2.3.2.5s.1.4 0 .5c0 .2-.1.4-.2.5a.78.78 0 0 1-.4.4c-.1.1-.3.2-.5.2s-.4.1-.5 0c-.1 0-.3-.1-.5-.2h0z" fill="url(#a)"/></svg>