<svg width="330" height="60" viewBox="0 0 330 60" fill="none" xmlns="http://www.w3.org/2000/svg">
<path fill-rule="evenodd" clip-rule="evenodd" d="M90.5469 52.5529V5.87158H95.5745V24.4889C97.403 20.7427 101.142 18.2636 106.1 18.2636C113.64 18.2636 118.392 23.2843 118.392 30.9863V52.5529H113.366V32.0609C113.366 26.4278 110.107 22.8765 104.877 22.8765C99.4416 22.8765 95.5745 26.7665 95.5745 32.3947V52.5529H90.5469Z" fill="#E0004D"/>
<path fill-rule="evenodd" clip-rule="evenodd" d="M137.334 48.9368C144.054 48.9368 147.793 45.9225 147.793 41.1674V35.1363C146.842 36.1427 143.852 36.812 138.891 37.21C132.644 37.7526 129.453 39.222 129.453 43.307C129.453 46.8598 132.442 48.9368 137.334 48.9368ZM138.689 32.5257C142.222 32.2527 144.596 31.8588 145.891 31.2504C147.176 30.6493 147.793 29.4471 147.793 27.5683C147.793 24.8229 145.413 22.4137 140.455 22.4137C136.719 22.4137 133.664 24.022 131.218 27.172L127.756 24.355C130.811 20.002 135.019 17.7886 140.455 17.7886C147.859 17.7886 152.817 21.8743 152.817 28.31V46.3221C152.817 48.8678 154.175 48.9368 155.667 48.9368H156.279V52.4856C155.53 52.9535 154.381 53.2232 152.817 53.2232C151.116 53.2232 149.964 52.6189 149.218 51.4126C148.877 50.8156 148.608 50.0708 148.472 49.269C146.023 52.1551 142.156 53.5562 136.79 53.5562C129.453 53.5562 124.424 49.5436 124.424 43.4426C124.424 36.5456 129.176 33.2616 138.689 32.5257Z" fill="#E0004D"/>
<path fill-rule="evenodd" clip-rule="evenodd" d="M162.527 5.87158H167.552V43.7146C167.552 47.4632 168.634 48.9367 171.829 48.9367C172.779 48.9367 173.592 48.8676 174.271 48.6662V53.2929C173.527 53.4919 172.714 53.5569 171.829 53.5569C169.585 53.5569 167.954 53.2231 165.85 52.0867C163.746 50.9454 162.527 48.135 162.527 44.0509V5.87158Z" fill="#E0004D"/>
<path fill-rule="evenodd" clip-rule="evenodd" d="M180.596 35.6773C180.596 39.4909 181.816 42.645 184.331 45.1833C186.842 47.6607 189.968 48.9368 193.769 48.9368C197.574 48.9368 200.7 47.6607 203.211 45.1833C205.726 42.6425 206.946 39.4909 206.946 35.6773C206.946 31.8588 205.726 28.7096 203.211 26.2289C200.7 23.6889 197.574 22.4137 193.769 22.4137C189.968 22.4137 186.842 23.6889 184.331 26.2289C181.816 28.7096 180.596 31.8588 180.596 35.6773ZM175.566 35.6773C175.566 30.5843 177.335 26.3702 180.866 22.9506C184.397 19.5333 188.676 17.7886 193.769 17.7886C198.864 17.7886 203.142 19.5333 206.679 22.9506C210.208 26.3702 211.975 30.5843 211.975 35.6773C211.975 40.767 210.208 45.0525 206.679 48.4689C203.142 51.8837 198.864 53.557 193.769 53.557C188.676 53.557 184.397 51.8837 180.866 48.4689C177.335 45.0525 175.566 40.767 175.566 35.6773Z" fill="#E0004D"/>
<path fill-rule="evenodd" clip-rule="evenodd" d="M243.541 45.1832C245.991 42.6424 247.212 39.4908 247.212 35.6771C247.212 31.8586 245.991 28.7095 243.541 26.2288C241.163 23.6888 238.104 22.4135 234.444 22.4135C230.911 22.4135 227.987 23.6888 225.611 26.2288C223.306 28.7095 222.148 31.8586 222.148 35.6771C222.148 39.4908 223.306 42.6424 225.611 45.1832C227.987 47.6606 230.911 48.9367 234.444 48.9367C238.104 48.9367 241.163 47.6606 243.541 45.1832ZM246.6 23.8188V5.87158H251.623V52.5529H246.6V47.5323C244.628 50.9454 240.622 53.5569 234.444 53.5569C229.623 53.5569 225.475 51.8836 222.148 48.4688C218.821 45.0516 217.125 40.7668 217.125 35.6771C217.125 30.5842 218.821 26.3693 222.148 22.9504C225.475 19.5332 229.623 17.7884 234.444 17.7884C240.622 17.7884 244.628 20.4064 246.6 23.8188Z" fill="#E0004D"/>
<path fill-rule="evenodd" clip-rule="evenodd" d="M262.679 35.6773C262.679 39.4909 263.897 42.6425 266.413 45.1833C268.925 47.6607 272.047 48.9368 275.855 48.9368C279.656 48.9368 282.782 47.6607 285.293 45.1833C287.804 42.6425 289.028 39.4909 289.028 35.6773C289.028 31.8588 287.804 28.7096 285.293 26.2289C282.782 23.6889 279.656 22.4137 275.855 22.4137C272.047 22.4137 268.925 23.6889 266.413 26.2289C263.897 28.7096 262.679 31.8588 262.679 35.6773ZM257.648 35.6773C257.648 30.5843 259.417 26.3702 262.948 22.9506C266.479 19.5333 270.761 17.7886 275.855 17.7886C280.949 17.7886 285.223 19.5333 288.756 22.9506C292.289 26.3702 294.053 30.5843 294.053 35.6773C294.053 40.767 292.289 45.0525 288.756 48.4689C285.223 51.8837 280.949 53.557 275.855 53.557C270.761 53.557 266.479 51.8837 262.948 48.4689C259.417 45.0525 257.648 40.767 257.648 35.6773Z" fill="#E0004D"/>
<mask id="mask0" mask-type="alpha" maskUnits="userSpaceOnUse" x="298" y="17" width="32" height="37">
<path d="M329.862 17.7871V53.5556H298.691V17.7871H329.862Z" fill="white"/>
</mask>
<g mask="url(#mask0)">
<path fill-rule="evenodd" clip-rule="evenodd" d="M329.862 22.876L326.808 26.3688C324.226 23.7524 320.9 22.413 316.893 22.413C313.089 22.413 309.966 23.6875 307.455 26.2274C304.937 28.7081 303.716 31.8581 303.716 35.6758C303.716 39.4894 304.937 42.641 307.455 45.1818C309.966 47.6593 313.089 48.9362 316.893 48.9362C320.9 48.9362 324.226 47.5919 326.808 44.9828L329.862 48.4675C326.537 51.8823 322.19 53.5556 316.893 53.5556C311.799 53.5556 307.525 51.8823 303.988 48.4675C300.459 45.0511 298.691 40.7655 298.691 35.6758C298.691 30.5829 300.459 26.3688 303.988 22.9491C307.525 19.5327 311.799 17.7871 316.893 17.7871C322.19 17.7871 326.537 19.4661 329.862 22.876Z" fill="#E0004D"/>
</g>
<mask id="mask1" mask-type="alpha" maskUnits="userSpaceOnUse" x="0" y="0" width="65" height="60">
<path d="M32.2708 59.4298H0V0.60498H64.5417V59.4298H32.2708Z" fill="white"/>
</mask>
<g mask="url(#mask1)">
<path fill-rule="evenodd" clip-rule="evenodd" d="M59.5184 37.7746C59.5184 47.9012 51.1822 54.9729 39.2424 54.9729C26.9864 54.9729 18.0958 47.7445 18.0958 37.7746V25.0755C21.514 24.5199 23.7873 23.2845 26.2607 20.8249C29.3593 17.7383 31.2414 13.2903 31.206 8.93403V0.60498H20.3716V5.04649H26.6948V8.93403C26.6948 15.5053 21.948 20.8444 15.2855 20.8444C8.61959 20.8444 4.43376 15.5053 4.43376 8.93403V5.04649H10.8352V0.60498H0V8.93403C0 17.3378 4.8843 24.0716 13.0665 25.1421V37.7746C13.0665 50.1187 24.3202 59.4241 39.2424 59.4298C53.9044 59.4298 64.5419 50.3218 64.5419 37.7746V25.0755H59.5184V37.7746Z" fill="#E0004D"/>
</g>
<path fill-rule="evenodd" clip-rule="evenodd" d="M62.1922 14.8743C59.2781 14.8743 56.9084 12.5366 56.9084 9.67093C56.9084 6.79629 59.2781 4.45694 62.1922 4.45694C65.0997 4.45694 67.4718 6.76867 67.4718 9.61001C67.4718 12.5131 65.0997 14.8743 62.1922 14.8743ZM62.1922 0C56.8162 0 52.4434 4.3148 52.4434 9.61488C52.4434 14.9475 56.8162 19.2809 62.1922 19.2809C67.5633 19.2809 71.941 14.9475 71.941 9.61488C71.941 4.3148 67.5633 0 62.1922 0Z" fill="#E0004D"/>
</svg>
