<svg width="129" height="129" viewBox="0 0 129 129" fill="none" xmlns="http://www.w3.org/2000/svg">
<g filter="url(#filter0_d)">
<rect x="33" y="14" width="63" height="63" rx="31.5" fill="#858CDD"/>
</g>
<rect x="25.5" y="6.5" width="78" height="78" rx="39" stroke="#858CDD" stroke-opacity="0.2"/>
<g clip-path="url(#clip0)">
<path d="M78.5703 40.7581C78.6701 40.2236 78.7206 39.6811 78.7212 39.1374C78.7151 34.0875 74.6165 29.9987 69.5667 30.0048C65.7224 30.0094 62.2917 32.418 60.9815 36.032C58.6356 35.0982 55.9769 36.2429 55.043 38.5888C54.9621 38.7918 54.896 39.0004 54.845 39.2128C51.0992 39.7731 48.5169 43.2637 49.0771 47.0095C49.5795 50.3689 52.4655 52.8543 55.8622 52.8529H61.5769C62.2082 52.8529 62.7199 52.3411 62.7199 51.7099C62.7199 51.0786 62.2082 50.5669 61.5769 50.5669H55.8622C53.3372 50.5669 51.2904 48.5201 51.2904 45.9951C51.2904 43.4701 53.3372 41.4233 55.8622 41.4233C56.4935 41.4233 57.0052 40.9115 57.0052 40.2803C57.0073 39.0178 58.0324 37.9961 59.2948 37.9981C59.8919 37.9992 60.4648 38.2337 60.8912 38.6516C61.3407 39.0946 62.0644 39.0894 62.5075 38.6398C62.6738 38.471 62.7836 38.2546 62.8216 38.0207C63.442 34.2882 66.9706 31.7655 70.7031 32.3859C74.4355 33.0063 76.9582 36.5349 76.3378 40.2674C76.3009 40.4899 76.2529 40.7105 76.1941 40.9283C76.0627 41.4054 76.2533 41.9128 76.6662 42.1855C78.7701 43.5815 79.344 46.4188 77.9479 48.5227C77.103 49.7962 75.6777 50.5632 74.1494 50.5668H70.7205C70.0893 50.5668 69.5776 51.0785 69.5776 51.7098C69.5776 52.341 70.0893 52.8527 70.7205 52.8527H74.1494C77.9368 52.8492 81.0042 49.7759 81.0006 45.9885C80.9987 43.9727 80.1099 42.0597 78.5703 40.7581Z" fill="white"/>
<path d="M72.6449 54.3294C72.202 53.9017 71.4998 53.9017 71.0569 54.3294L67.2909 58.0932V41.4221C67.2909 40.7908 66.7792 40.2791 66.1479 40.2791C65.5167 40.2791 65.0049 40.7908 65.0049 41.4221V58.0931L61.2412 54.3294C60.7871 53.8908 60.0636 53.9034 59.6251 54.3574C59.1972 54.8004 59.1972 55.5025 59.6251 55.9455L65.3398 61.6602C65.7855 62.1071 66.5093 62.108 66.9562 61.6622C66.9568 61.6616 66.9575 61.6609 66.9582 61.6602L72.673 55.9455C73.1116 55.4915 73.099 54.7679 72.6449 54.3294Z" fill="white"/>
</g>
<defs>
<filter id="filter0_d" x="0" y="0" width="129" height="129" filterUnits="userSpaceOnUse" color-interpolation-filters="sRGB">
<feFlood flood-opacity="0" result="BackgroundImageFix"/>
<feColorMatrix in="SourceAlpha" type="matrix" values="0 0 0 0 0 0 0 0 0 0 0 0 0 0 0 0 0 0 127 0"/>
<feOffset dy="19"/>
<feGaussianBlur stdDeviation="16.5"/>
<feColorMatrix type="matrix" values="0 0 0 0 0.521569 0 0 0 0 0.54902 0 0 0 0 0.866667 0 0 0 0.25 0"/>
<feBlend mode="normal" in2="BackgroundImageFix" result="effect1_dropShadow"/>
<feBlend mode="normal" in="SourceGraphic" in2="effect1_dropShadow" result="shape"/>
</filter>
<clipPath id="clip0">
<rect width="32" height="32" fill="white" transform="translate(49 30)"/>
</clipPath>
</defs>
</svg>
