<svg width="149" height="47" viewBox="0 0 149 47" fill="none" xmlns="http://www.w3.org/2000/svg">
<g clip-path="url(#clip0)">
<path d="M102.255 20.3805C103.756 20.3805 105.15 20.5885 106.33 21.1085C107.509 21.5245 108.581 22.2525 109.439 23.0845C110.296 23.9165 110.94 24.9565 111.369 26.2046C112.012 27.3486 112.226 28.7006 112.226 30.1566C112.226 31.6126 112.012 32.8606 111.69 34.1087C111.261 35.3567 110.725 36.2927 110.082 37.2287C109.331 38.0607 108.474 38.7887 107.402 39.2047C106.33 39.7247 105.15 39.9327 103.756 39.9327C102.899 39.9327 102.041 39.8287 101.183 39.6207C100.433 39.4127 99.7896 39.2047 99.2535 38.8927V46.1728H94.7506V21.4205C95.6083 21.2125 96.7876 20.9005 98.0742 20.6925C99.3607 20.4845 100.862 20.3805 102.255 20.3805ZM81.7779 20.2765C84.4582 20.2765 86.4953 21.1085 87.9962 22.6685C89.4972 24.2285 90.2477 26.6206 90.2477 29.8446V30.6766C90.2477 30.9886 90.2477 31.1966 90.1405 31.5086H77.4894C77.5966 32.9646 78.1327 34.2127 79.0976 35.0447C80.0625 35.8767 81.4563 36.2927 83.3861 36.2927C84.4582 36.2927 85.4231 36.1887 86.388 35.9807C87.2457 35.7727 87.9962 35.5647 88.5323 35.3567L89.1756 38.8927C88.9611 38.9967 88.6395 39.1007 88.1034 39.3087C87.6746 39.4127 87.1385 39.5167 86.6025 39.7247C86.0664 39.8287 85.4231 39.9327 84.7799 40.0367C84.1366 40.1407 83.4933 40.1407 82.85 40.1407C81.1346 40.1407 79.6337 39.9327 78.4543 39.4127C77.1678 38.8927 76.2029 38.2687 75.3452 37.3327C74.4875 36.5007 73.9514 35.4607 73.5226 34.2127C72.9865 32.9646 72.7721 31.7166 72.7721 30.2606C72.7721 28.5966 72.9865 27.1406 73.5226 25.8926C74.0586 24.6445 74.7019 23.6045 75.5596 22.7725C76.4173 21.9405 77.3822 21.3165 78.4543 20.9005C79.5265 20.4845 80.5986 20.2765 81.7779 20.2765ZM120.91 15.0764V20.7965H127.772V24.4365H120.91V32.0286C120.91 33.4847 121.125 34.6287 121.661 35.2527C122.197 35.8767 122.947 36.1887 124.234 36.1887C125.092 36.1887 125.735 36.0847 126.378 35.9807C127.021 35.7727 127.558 35.6687 127.879 35.4607L128.63 38.8927C128.094 39.1007 127.45 39.3087 126.593 39.5167C125.735 39.7247 124.77 39.8287 123.591 39.8287C122.197 39.8287 121.018 39.6207 120.16 39.3087C119.195 38.8927 118.552 38.4767 117.908 37.7487C117.372 37.0207 116.944 36.2927 116.729 35.2527C116.515 34.3167 116.407 33.1726 116.407 31.9246V15.8044L120.91 15.0764ZM140.745 20.3805C142.353 20.3805 143.639 20.5885 144.712 21.0045C145.784 21.4205 146.641 22.0445 147.285 22.7725C147.928 23.5005 148.357 24.4365 148.571 25.4766C148.786 26.5166 149 27.6606 149 29.0126V39.6207H144.497V29.7406C144.497 28.7006 144.39 27.8686 144.283 27.1406C144.175 26.4126 143.961 25.8926 143.639 25.3726C143.318 24.9566 142.889 24.6445 142.353 24.4365C141.817 24.2285 141.174 24.1245 140.423 24.1245C139.887 24.1245 139.244 24.1245 138.6 24.2285C137.957 24.3325 137.528 24.3325 137.207 24.4365V39.6207H132.704L132.811 21.4205C133.669 21.2125 134.848 20.9005 136.135 20.6925C137.528 20.4845 139.029 20.3805 140.745 20.3805ZM37.1776 11.0204L37.9281 14.5564L17.2361 39.5167H13.4837L37.1776 11.0204ZM38.6786 18.0925L40.1796 24.5405C40.3725 25.1958 40.2182 25.9352 39.7946 26.5314L39.6435 26.7246L29.8872 38.5807C29.4107 39.0429 28.7648 39.423 28.0247 39.5017L27.7429 39.5167H20.9886L38.6786 18.0925ZM58.5129 11.3324V27.8686C59.0489 27.2446 59.6922 26.6206 60.3355 25.9966C60.9787 25.3726 61.622 24.6445 62.2653 24.0205C62.9086 23.3965 63.4446 22.6685 64.0879 22.0445C64.7312 21.4205 65.16 20.9005 65.4817 20.4845H70.8423C69.5557 21.8365 68.2692 23.2925 66.8754 24.6445C65.4817 26.1006 63.8735 27.9726 62.4797 29.3246L71.2711 39.5167H66.0177L58.5129 30.7806V39.5167H54.0099V12.0604L58.5129 11.3324ZM33.2108 6.96433L35.4622 8.00434C35.5337 8.07368 35.6052 8.09679 35.6766 8.13531L35.7839 8.21235L10.3745 38.8927C10.3745 38.8147 10.3142 38.7367 10.2389 38.6587L10.1601 38.5807L8.55194 36.6047L33.2108 6.96433ZM101.827 24.1245C101.398 24.1245 100.969 24.1245 100.54 24.2285C100.111 24.2285 99.6824 24.3325 99.1463 24.4365V35.1487C99.5751 35.3567 100.111 35.6687 100.754 35.8767C101.398 36.0847 102.148 36.1887 102.792 36.1887C104.4 36.1887 105.579 35.6687 106.33 34.6287C107.294 33.4847 107.616 32.0286 107.616 30.2606C107.616 28.2846 107.187 26.8286 106.222 25.6846C105.365 24.6445 103.864 24.1245 101.827 24.1245ZM27.8501 4.4683L30.4232 5.71632L6.72933 34.3167L4.90672 32.1326L16.3784 18.3005L27.8501 4.4683ZM21.2708 1.35982L21.5246 1.45226L25.1698 3.22029L17.1289 12.9964C16.8073 12.2684 16.2712 11.6444 15.6279 11.1244C13.3765 9.25236 10.1601 9.66836 8.2303 11.8524C6.30048 14.0364 6.72933 17.2605 8.98079 19.0285C9.53216 19.4742 10.1623 19.7671 10.8037 19.9727L11.125 20.0685L3.08411 29.8446L0.61823 26.7246C0.135774 26.163 -0.086155 25.4329 0.0305991 24.7618L0.0821682 24.5405L3.62017 9.77237C3.72739 9.46036 3.8346 9.14836 4.04902 8.83635C4.30633 8.58675 4.56364 8.33715 4.87584 8.14079L5.12114 8.00434L19.166 1.45226C19.833 1.17493 20.5849 1.14411 21.2708 1.35982ZM81.9923 24.0205C81.3491 24.0205 80.7058 24.1245 80.1697 24.4365C79.6337 24.6445 79.2048 25.0606 78.8832 25.4766C78.5615 25.8926 78.2399 26.3086 78.0255 26.8286C77.8111 27.3486 77.7038 27.8686 77.5966 28.3886L85.852 28.2846C85.852 27.6606 85.7448 27.1406 85.6376 26.6206C85.4231 26.1006 85.2087 25.5806 84.8871 25.2686C84.5654 24.8525 84.1366 24.5405 83.7077 24.3325C83.2789 24.1245 82.6356 24.0205 81.9923 24.0205ZM13.6981 13.3084C14.7072 13.9936 14.8615 15.3237 14.1611 16.3448L14.0198 16.5324L13.863 16.69C12.9992 17.4893 11.7052 17.6275 10.6962 16.8445C9.73127 16.0124 9.51685 14.6604 10.3745 13.6204C11.2322 12.6844 12.626 12.4764 13.6981 13.3084Z" fill="#006BB8"/>
</g>
<defs>
<clipPath id="clip0">
<rect width="149" height="46" fill="white" transform="translate(0 0.172852)"/>
</clipPath>
</defs>
</svg>
