<svg xmlns="http://www.w3.org/2000/svg" xmlns:xlink="http://www.w3.org/1999/xlink" viewBox="0 0 249.03 52.8"><defs><style>.cls-1{fill:none;}.cls-2{fill:#4d4d4f;}.cls-3{clip-path:url(#clip-path);}.cls-4{fill:url(#linear-gradient);}.cls-5{clip-path:url(#clip-path-2);}.cls-6{fill:url(#linear-gradient-2);}.cls-7{clip-path:url(#clip-path-3);}.cls-8{fill:url(#linear-gradient-3);}.cls-9{clip-path:url(#clip-path-4);}.cls-10{fill:url(#linear-gradient-4);}.cls-11{clip-path:url(#clip-path-5);}.cls-12{fill:url(#linear-gradient-5);}.cls-13{clip-path:url(#clip-path-6);}.cls-14{fill:url(#linear-gradient-6);}.cls-15{clip-path:url(#clip-path-7);}.cls-16{fill:url(#linear-gradient-7);}.cls-17{clip-path:url(#clip-path-8);}.cls-18{fill:url(#linear-gradient-8);}</style><clipPath id="clip-path"><path class="cls-1" d="M74.28,24h2.91V18.47l-6-2.36A17.56,17.56,0,0,1,74.28,24"/></clipPath><linearGradient id="linear-gradient" x1="-948.1" y1="2615.5" x2="-947.99" y2="2615.5" gradientTransform="matrix(79.41, 0.02, 0.02, -79.25, 75311.95, 207305.38)" gradientUnits="userSpaceOnUse"><stop offset="0" stop-color="#a59e35"/><stop offset="0.3" stop-color="#a59e35"/><stop offset="0.41" stop-color="#b7bc4a"/><stop offset="0.65" stop-color="#c8dc61"/><stop offset="1" stop-color="#c8dc61"/></linearGradient><clipPath id="clip-path-2"><path class="cls-1" d="M57.37,36.16c-5.55-.46-10.09-4.59-10.09-10.24a10.75,10.75,0,0,1,10-10.63c6.48-.39,10.23,5,10.23,10.63,0,5.33-1.8,10.3-8.76,10.3-.43,0-.87,0-1.34-.06M17.56,25.82c0-5.86,4.1-11.2,10.15-10.76,5.65.42,11.25,5.48,10.68,11.31s-5,10.16-10.71,10.16S17.56,32,17.56,25.82m-3.1-9.71-2.44,1,3.83,19.55c3,2.7,7.35,4.42,13.29,3.56a23.86,23.86,0,0,0,13.7-6.9,23.91,23.91,0,0,0,13.7,6.9,18.86,18.86,0,0,0,6,0l.58-.11a14.65,14.65,0,0,0,9.11-6.19c1.6-2.33,2.19-5.91,2-9.83-.08-2-.26-5.2-2.05-7.64a9.88,9.88,0,0,0-3.71-3,18.05,18.05,0,0,0-7.14-1.6H24.19c-.83,0-6.42.16-9.73,4.32"/></clipPath><linearGradient id="linear-gradient-2" x1="-967.4" y1="2594.97" x2="-967.29" y2="2594.97" gradientTransform="matrix(0, 345.74, 591.36, 0, -1534508.48, 334480.73)" gradientUnits="userSpaceOnUse"><stop offset="0" stop-color="#c1ce31"/><stop offset="0.32" stop-color="#c3d030"/><stop offset="0.44" stop-color="#cad52f"/><stop offset="0.53" stop-color="#d6df2b"/><stop offset="0.54" stop-color="#d7e02b"/><stop offset="0.61" stop-color="#d2da2c"/><stop offset="0.71" stop-color="#c5c82f"/><stop offset="0.83" stop-color="#aeaa33"/><stop offset="0.87" stop-color="#a59e35"/><stop offset="0.93" stop-color="#a59e35"/><stop offset="1" stop-color="#a59e35"/></linearGradient><clipPath id="clip-path-3"><path class="cls-1" d="M38.39,26.37c-.59,6-5,10.16-10.71,10.16a10.32,10.32,0,0,1-2.75-.37c-1.18.3-2,.67-2.16,1.18-.26.9,2,2.31,4,3q1.13,0,2.34-.21a24.19,24.19,0,0,0,13.44-6.62A20.59,20.59,0,0,1,38.41,26c0,.11,0,.22,0,.33m-.58-4h0"/></clipPath><linearGradient id="linear-gradient-3" x1="-947.6" y1="2607.89" x2="-947.49" y2="2607.89" gradientTransform="matrix(108.83, -0.01, -0.01, -108.83, 103176.43, 283852.72)" gradientUnits="userSpaceOnUse"><stop offset="0" stop-color="#e3eba2"/><stop offset="0.01" stop-color="#e0e998"/><stop offset="0.04" stop-color="#dae682"/><stop offset="0.07" stop-color="#d6e372"/><stop offset="0.1" stop-color="#d2e166"/><stop offset="0.16" stop-color="#d1df5f"/><stop offset="0.3" stop-color="#d0df5d"/><stop offset="0.41" stop-color="#cedd5c"/><stop offset="0.47" stop-color="#c9d557"/><stop offset="0.51" stop-color="#c0c74e"/><stop offset="0.56" stop-color="#b2b342"/><stop offset="0.59" stop-color="#a49e35"/><stop offset="0.59" stop-color="#a39d35"/><stop offset="1" stop-color="#4f5123"/></linearGradient><clipPath id="clip-path-4"><path class="cls-1" d="M8.47,18.47V24h2.91a17.56,17.56,0,0,1,3.08-7.9Z"/></clipPath><linearGradient id="linear-gradient-4" x1="-947.85" y1="2622.29" x2="-947.74" y2="2622.29" gradientTransform="matrix(53.69, 0, 0, -70.85, 50902.24, 185806.41)" gradientUnits="userSpaceOnUse"><stop offset="0" stop-color="#6cad44"/><stop offset="0.02" stop-color="#6cad44"/><stop offset="0.23" stop-color="#5dab46"/><stop offset="0.33" stop-color="#47a547"/><stop offset="0.78" stop-color="#398f43"/><stop offset="1" stop-color="#2b783b"/></linearGradient><clipPath id="clip-path-5"><path class="cls-1" d="M41.53,18.17C43.41,21,48.36,27,48.36,27s-1.25-3.4,3.38-8.28,10.7-2.31,10.7-2.31C60.76,14.81,57,14,53.14,14,48.21,14,43,15.33,41.53,18.17"/></clipPath><linearGradient id="linear-gradient-5" x1="-983.44" y1="2596.5" x2="-983.33" y2="2596.5" gradientTransform="matrix(-95.6, 0, 0, 95.6, -93969.44, -248210.55)" gradientUnits="userSpaceOnUse"><stop offset="0" stop-color="#ceb730"/><stop offset="0.09" stop-color="#d0c12f"/><stop offset="0.32" stop-color="#d5d82c"/><stop offset="0.47" stop-color="#d7e02b"/><stop offset="0.56" stop-color="#d3db2b"/><stop offset="0.66" stop-color="#c6cc2b"/><stop offset="0.77" stop-color="#b1b32b"/><stop offset="0.9" stop-color="#94902b"/><stop offset="1" stop-color="#756c2b"/></linearGradient><clipPath id="clip-path-6"><path class="cls-1" d="M23.42,11.83c-2.78.19-8.06,1.19-9.89,3.72-1.67,2.33-2.22,5.58-2.29,8.4-.11,3.93.59,7.56,2.19,9.89,2.85,4.16,7.92,7.46,15.71,6.34A24.71,24.71,0,0,0,39.51,36.1c-3.8,2.15-13.48,1.58-17.74-1.46C18,32,15.59,22.41,20.8,17.72,27.9,11.34,39,15.33,39,15.33A20.93,20.93,0,0,0,27,11.8l-2,0c-.53,0-1.08,0-1.63.05"/></clipPath><linearGradient id="linear-gradient-6" x1="-962.57" y1="2600.17" x2="-962.46" y2="2600.17" gradientTransform="matrix(-0.02, 343.01, 325.89, 0.02, -847374.02, 330125.12)" gradientUnits="userSpaceOnUse"><stop offset="0" stop-color="#85b340"/><stop offset="0.09" stop-color="#79b042"/><stop offset="0.13" stop-color="#6cad44"/><stop offset="0.37" stop-color="#5dab46"/><stop offset="0.48" stop-color="#47a547"/><stop offset="0.83" stop-color="#398f43"/><stop offset="1" stop-color="#2b783b"/></linearGradient><clipPath id="clip-path-7"><path class="cls-1" d="M23.13,16.05s7.48-2.36,11.94,3.25,2.69,9.31,7.68,14.28C47,37.79,53.83,41.45,61,40.94a14.4,14.4,0,0,0,12-8.28,21.57,21.57,0,0,1-8.51,3.17A14.05,14.05,0,0,1,57.06,35c-7.9-3-9.87-11.68-14.33-17a13.23,13.23,0,0,0-10.39-4.55,18.22,18.22,0,0,0-9.21,2.56"/></clipPath><linearGradient id="linear-gradient-7" x1="-960.77" y1="2601.88" x2="-960.66" y2="2601.88" gradientTransform="matrix(446.64, 0, 0, -250.73, 429143.77, 652402.97)" gradientUnits="userSpaceOnUse"><stop offset="0" stop-color="#3fb1a6"/><stop offset="0.41" stop-color="#3fb1a6"/><stop offset="0.57" stop-color="#0d7082"/><stop offset="0.93" stop-color="#053855"/><stop offset="1" stop-color="#012c46"/></linearGradient><clipPath id="clip-path-8"><path class="cls-1" d="M22.91,16.16S30.26,14,33.43,20.41c2.77,5.63,3.25,9.61,8,15,4.26,4.85,12.45,6.16,19.59,5.57-10.26-.33-15.19-5.82-20.25-17.63-2.63-6.17-7.67-8.54-12.17-8.55a11.67,11.67,0,0,0-5.65,1.4"/></clipPath><linearGradient id="linear-gradient-8" x1="-960.31" y1="2602.42" x2="-960.2" y2="2602.42" gradientTransform="matrix(341.39, 0, 0, -235.88, 327869.32, 613878.96)" gradientUnits="userSpaceOnUse"><stop offset="0" stop-color="#bae2dc"/><stop offset="0.14" stop-color="#92d4ce"/><stop offset="0.36" stop-color="#6fc9c1"/><stop offset="0.61" stop-color="#4fafa8"/><stop offset="1" stop-color="#369c93"/></linearGradient></defs><title>Asset 1</title><g id="Layer_2" data-name="Layer 2"><g id="Layer_1-2" data-name="Layer 1"><path class="cls-2" d="M93.47,31.27a.79.79,0,0,0,.26.56.81.81,0,0,0,.56.26h1.9V35.9H92.6a2.23,2.23,0,0,1-1-.27,3.65,3.65,0,0,1-.94-.74,3.9,3.9,0,0,1-.69-1.09,3.29,3.29,0,0,1-.27-1.33V20.4a.78.78,0,0,0-.22-.52.64.64,0,0,0-.49-.25h-1.2V16.37H91a2.2,2.2,0,0,1,1,.24,2.7,2.7,0,0,1,.78.63,3.16,3.16,0,0,1,.47.81,2.37,2.37,0,0,1,.16.82Z"/><path class="cls-2" d="M109.9,31.66a6.35,6.35,0,0,1-1.07,2.18,6.2,6.2,0,0,1-1.57,1.43,6.34,6.34,0,0,1-1.84.78,8.26,8.26,0,0,1-1.88.23,9.67,9.67,0,0,1-2.85-.4,5.44,5.44,0,0,1-2.28-1.32,6.45,6.45,0,0,1-1.53-2.44,12,12,0,0,1-.48-4.9,7.75,7.75,0,0,1,.31-1.52,8.05,8.05,0,0,1,.71-1.65,5.41,5.41,0,0,1,1.23-1.49,6.29,6.29,0,0,1,1.91-1.09,7.73,7.73,0,0,1,2.7-.42,8.88,8.88,0,0,1,2.26.31,5.36,5.36,0,0,1,2.2,1.2A6.8,6.8,0,0,1,109.4,25a10.4,10.4,0,0,1,.66,4v.67h-9.92a7.76,7.76,0,0,0,.13,1,3.58,3.58,0,0,0,.45,1.17,2.86,2.86,0,0,0,1,1,3.55,3.55,0,0,0,1.81.39,3.08,3.08,0,0,0,1.5-.39,1.88,1.88,0,0,0,.94-1.18Zm-3.75-4.44a4.09,4.09,0,0,0-.38-1.45,3.06,3.06,0,0,0-.71-.94,2.38,2.38,0,0,0-.9-.51,3.61,3.61,0,0,0-1-.15,2.63,2.63,0,0,0-2.08.81,3.92,3.92,0,0,0-.89,2.24Z"/><path class="cls-2" d="M112.05,25.51a.9.9,0,0,0-.23-.55.67.67,0,0,0-.51-.27h-.9V21.43H114a1.17,1.17,0,0,1,.62.18,2.09,2.09,0,0,1,.55.44,2.57,2.57,0,0,1,.39.6,1.57,1.57,0,0,1,.15.65v.49a8,8,0,0,1,.49-.8,4.84,4.84,0,0,1,.86-.91,4.69,4.69,0,0,1,3.06-1,6,6,0,0,1,2,.31,4.47,4.47,0,0,1,1.6.93,4.68,4.68,0,0,1,1.06,1.5,5.25,5.25,0,0,1,.39,2.1v5.93a.84.84,0,0,0,.22.54.63.63,0,0,0,.49.28h.92V35.9h-3.07a1.73,1.73,0,0,1-.89-.26,2.86,2.86,0,0,1-.74-.65,3.33,3.33,0,0,1-.53-.89,2.37,2.37,0,0,1-.21-1v-6c0-.27,0-.57,0-.9a2.34,2.34,0,0,0-.28-.92,2.1,2.1,0,0,0-.75-.73,2.75,2.75,0,0,0-1.4-.3,2.94,2.94,0,0,0-2.14.84,3.37,3.37,0,0,0-.85,2.5v5.58a2.32,2.32,0,0,1-.21.94,3.94,3.94,0,0,1-.54.87,3.22,3.22,0,0,1-.78.65,1.72,1.72,0,0,1-.87.26h-3V32.64h.9a.71.71,0,0,0,.51-.25.79.79,0,0,0,.23-.52Z"/><path class="cls-2" d="M136.14,26.38v-.95a1.28,1.28,0,0,0-.57-1.06,3.22,3.22,0,0,0-1.91-.44,4.63,4.63,0,0,0-1.25.14,1.83,1.83,0,0,0-.7.34.86.86,0,0,0-.32.45,2,2,0,0,0-.06.48.94.94,0,0,0,.66.87,8.28,8.28,0,0,0,1.67.52q1,.22,2.19.45a8.92,8.92,0,0,1,2.19.71,4.76,4.76,0,0,1,1.68,1.28,3.23,3.23,0,0,1,.66,2.13,4.52,4.52,0,0,1-.66,2.56,4.84,4.84,0,0,1-1.65,1.51,6.94,6.94,0,0,1-2.08.72,12.38,12.38,0,0,1-1.94.19,15.84,15.84,0,0,1-2.33-.18,8.55,8.55,0,0,1-2.2-.61,4.57,4.57,0,0,1-1.65-1.2,2.83,2.83,0,0,1-.65-1.9V31h4.05v1.33c0,.39.28.66.83.82a7.51,7.51,0,0,0,2.06.24,3.81,3.81,0,0,0,1.21-.16,2.07,2.07,0,0,0,.73-.38,1.35,1.35,0,0,0,.37-.47,1.32,1.32,0,0,0,.11-.48,1,1,0,0,0-.67-.91,8.33,8.33,0,0,0-1.66-.53q-1-.23-2.16-.45a10.12,10.12,0,0,1-2.16-.69,4.7,4.7,0,0,1-1.67-1.27,3.28,3.28,0,0,1-.66-2.16,5.52,5.52,0,0,1,.27-1.65,4,4,0,0,1,.95-1.56,5.35,5.35,0,0,1,1.81-1.17,7.46,7.46,0,0,1,2.82-.46,16.68,16.68,0,0,1,2.15.15,6.68,6.68,0,0,1,2.09.61,4.34,4.34,0,0,1,1.58,1.3,3.73,3.73,0,0,1,.62,2.23v1Z"/><path class="cls-2" d="M150.66,27,154,32.64h1.66V35.9h-2.39a2.39,2.39,0,0,1-1-.21,3.37,3.37,0,0,1-.88-.54,6,6,0,0,1-.75-.76,6.49,6.49,0,0,1-.58-.86l-2.21-3.84-1.57,1.64v2a2.08,2.08,0,0,1-.22.88,3.5,3.5,0,0,1-.56.82,3.15,3.15,0,0,1-.76.6,1.82,1.82,0,0,1-.86.23h-3V32.64h.89a.76.76,0,0,0,.51-.22.68.68,0,0,0,.23-.49V20.32a.66.66,0,0,0-.23-.47.73.73,0,0,0-.48-.22h-.92V16.37h2.74a2.14,2.14,0,0,1,1,.24,3.81,3.81,0,0,1,.86.63,3.49,3.49,0,0,1,.62.86,2,2,0,0,1,.25,1v7.86L149,23.79l.68-.8a7.55,7.55,0,0,1,.73-.76,3.83,3.83,0,0,1,.83-.57,2.07,2.07,0,0,1,.94-.23h2.39v3.26h-1.63Z"/><path class="cls-2" d="M170.57,31.93a.69.69,0,0,0,.21.47.57.57,0,0,0,.45.24h1V35.9H169a1.66,1.66,0,0,1-.61-.14,2.25,2.25,0,0,1-.63-.38,2,2,0,0,1-.47-.58,1.49,1.49,0,0,1-.19-.75v-.38a4.89,4.89,0,0,1-1.88,1.92,5.37,5.37,0,0,1-2.67.69,8,8,0,0,1-2.72-.45,5.89,5.89,0,0,1-2.19-1.39,6.44,6.44,0,0,1-1.46-2.38,9.67,9.67,0,0,1-.53-3.4,8.5,8.5,0,0,1,.61-3.38,6.56,6.56,0,0,1,4-3.77,8.43,8.43,0,0,1,2.8-.46,5.33,5.33,0,0,1,1.15.13,7.26,7.26,0,0,1,1.14.38,6.44,6.44,0,0,1,1,.59,3.84,3.84,0,0,1,.77.72V21.56h3.48Zm-4.07-3.27a8.44,8.44,0,0,0-.14-1.45,4.5,4.5,0,0,0-.5-1.43,3,3,0,0,0-1.07-1.09,3.92,3.92,0,0,0-3.57,0,3,3,0,0,0-1.05,1.09,4.5,4.5,0,0,0-.5,1.43,8.44,8.44,0,0,0-.14,1.45,8.8,8.8,0,0,0,.14,1.49,4.53,4.53,0,0,0,.5,1.42,2.93,2.93,0,0,0,1.05,1.08,4,4,0,0,0,3.57,0,2.91,2.91,0,0,0,1.07-1.08,4.53,4.53,0,0,0,.5-1.42,8.8,8.8,0,0,0,.14-1.49"/><path class="cls-2" d="M173.74,25.43a.78.78,0,0,0-.22-.51.68.68,0,0,0-.49-.23h-.93V21.43H175a2.15,2.15,0,0,1,.8.16,2.63,2.63,0,0,1,.76.45,2.34,2.34,0,0,1,.56.66,1.38,1.38,0,0,1,.22.74v.49h.05c.2-.36.41-.71.63-1.06a4.33,4.33,0,0,1,.79-.92,3.63,3.63,0,0,1,1.07-.66,4.06,4.06,0,0,1,1.48-.24h.37l.37,0V25a2.89,2.89,0,0,0-.53-.05h-.56a4.29,4.29,0,0,0-1.79.31,2.63,2.63,0,0,0-1.06.82,2.76,2.76,0,0,0-.52,1.11,5.62,5.62,0,0,0-.14,1.21V35.9h-3.8Z"/><path class="cls-2" d="M188.11,21.43h2.36v2.72h-2.36v6.58c0,.15,0,.3,0,.48a1.08,1.08,0,0,0,.18.48,1.15,1.15,0,0,0,.48.4,2,2,0,0,0,.89.16h.71v3.81h-.3l-.35,0-.82,0h-1a3.28,3.28,0,0,1-2.62-1.2,5.2,5.2,0,0,1-1-3.48V24.15h-2V21.43h2V16.37h3.81Z"/><path class="cls-2" d="M191.37,33.61a2.25,2.25,0,0,1,3.13-2.05,2.71,2.71,0,0,1,.72.47,2.2,2.2,0,0,1,.49.71,2.11,2.11,0,0,1,.17.87,2.27,2.27,0,0,1-2.28,2.29,2.12,2.12,0,0,1-.87-.18,2.2,2.2,0,0,1-.71-.49,2.3,2.3,0,0,1-.47-.72,2.19,2.19,0,0,1-.18-.9"/><path class="cls-2" d="M209.37,29.83V31.3a4.14,4.14,0,0,1-.36,1.55,4.91,4.91,0,0,1-1.16,1.63,6.37,6.37,0,0,1-2,1.28,7.52,7.52,0,0,1-3,.52,7.11,7.11,0,0,1-3.34-.69,5.72,5.72,0,0,1-2-1.77,6.79,6.79,0,0,1-1-2.34,11.06,11.06,0,0,1-.29-2.41,12.62,12.62,0,0,1,.4-3.22,6.75,6.75,0,0,1,1.24-2.55A5.68,5.68,0,0,1,200,21.65a7.55,7.55,0,0,1,3.16-.6,10.07,10.07,0,0,1,1.9.2,7,7,0,0,1,2.07.74,4.78,4.78,0,0,1,1.66,1.48,4.12,4.12,0,0,1,.68,2.44v1.42h-4V26a1.54,1.54,0,0,0-.61-1.18,2.32,2.32,0,0,0-1.56-.53h-.19a2.53,2.53,0,0,0-1.48.4,3.16,3.16,0,0,0-.93,1,4.44,4.44,0,0,0-.47,1.34,7.85,7.85,0,0,0-.14,1.42c0,.39,0,.86.06,1.4a4.72,4.72,0,0,0,.34,1.53,3.33,3.33,0,0,0,.86,1.26,2.48,2.48,0,0,0,1.68.51,2.63,2.63,0,0,0,1-.19,2.72,2.72,0,0,0,.78-.48,2.39,2.39,0,0,0,.49-.62,1.54,1.54,0,0,0,.17-.66V29.83Z"/><path class="cls-2" d="M224.74,28.66a8.6,8.6,0,0,1-.62,3.4,6.63,6.63,0,0,1-1.63,2.38,6.43,6.43,0,0,1-2.35,1.39,8.94,8.94,0,0,1-5.6,0,6.55,6.55,0,0,1-2.36-1.39,6.76,6.76,0,0,1-1.63-2.38,8.79,8.79,0,0,1-.61-3.4,8.68,8.68,0,0,1,.61-3.38,6.81,6.81,0,0,1,1.63-2.37,6.88,6.88,0,0,1,2.36-1.4,8.75,8.75,0,0,1,5.6,0,6.56,6.56,0,0,1,4,3.77,8.5,8.5,0,0,1,.62,3.38m-3.92,0a8.44,8.44,0,0,0-.14-1.45,4.5,4.5,0,0,0-.5-1.43,3.07,3.07,0,0,0-1.06-1.09,3.94,3.94,0,0,0-3.58,0,3,3,0,0,0-1,1.09,4.28,4.28,0,0,0-.51,1.43,8.39,8.39,0,0,0-.13,1.45,8.75,8.75,0,0,0,.13,1.49,4.3,4.3,0,0,0,.51,1.42,2.91,2.91,0,0,0,1,1.08,4,4,0,0,0,3.58,0,3,3,0,0,0,1.06-1.08,4.53,4.53,0,0,0,.5-1.42,8.8,8.8,0,0,0,.14-1.49"/><path class="cls-2" d="M226.67,25.48a.78.78,0,0,0-.24-.53.73.73,0,0,0-.52-.26H225V21.43h3.32a1.53,1.53,0,0,1,.67.16,2.35,2.35,0,0,1,1.06,1,1.43,1.43,0,0,1,.17.65v.63c.13-.24.3-.52.5-.84a4,4,0,0,1,.84-.93,5,5,0,0,1,1.22-.75,4,4,0,0,1,1.66-.31,5.57,5.57,0,0,1,1.37.15,3.86,3.86,0,0,1,1.06.43,3.43,3.43,0,0,1,.85.72,11.56,11.56,0,0,1,.74,1l.49-.66a4.23,4.23,0,0,1,.76-.77,4.52,4.52,0,0,1,1.11-.62,3.85,3.85,0,0,1,1.51-.26,6.09,6.09,0,0,1,2,.31,4.34,4.34,0,0,1,1.59.93,4.39,4.39,0,0,1,1.06,1.5,5.08,5.08,0,0,1,.4,2.1v6a.72.72,0,0,0,.2.47.6.6,0,0,0,.45.24h1V35.9h-2.91a1.86,1.86,0,0,1-.92-.26,2.81,2.81,0,0,1-.82-.67,3.37,3.37,0,0,1-.57-.89,2.3,2.3,0,0,1-.22-.95v-6a3.17,3.17,0,0,0-.61-2.23,2,2,0,0,0-1.46-.62,2.25,2.25,0,0,0-2,.84,3.7,3.7,0,0,0-.57,2.12V35.9h-3.81V27.2c0-.32,0-.64,0-1a3,3,0,0,0-.24-.95,1.7,1.7,0,0,0-.69-.72,2.53,2.53,0,0,0-1.31-.28,2.65,2.65,0,0,0-1.13.21,1.93,1.93,0,0,0-.72.6,2.63,2.63,0,0,0-.4.9,5,5,0,0,0-.12,1.11v6.26a1.93,1.93,0,0,1-.26.93,3.34,3.34,0,0,1-1.58,1.41,2.3,2.3,0,0,1-1,.22H225V32.64h.9a.77.77,0,0,0,.49-.22.64.64,0,0,0,.24-.47Z"/><g class="cls-3"><rect class="cls-4" x="69.81" y="15.21" width="8.76" height="9.69" transform="translate(-1.52 33.25) rotate(-25.01)"/></g><g class="cls-5"><rect class="cls-6" x="9.79" y="6.04" width="66.88" height="40.72" transform="translate(-4.27 8.8) rotate(-11.07)"/></g><g class="cls-7"><rect class="cls-8" x="19.34" y="18.53" width="26.41" height="25.67" transform="translate(-11.33 20.53) rotate(-30.07)"/></g><g class="cls-9"><rect class="cls-10" x="8.47" y="16.11" width="5.99" height="7.9"/></g><g class="cls-11"><rect class="cls-12" x="44.7" y="9.55" width="14.58" height="21.77" transform="translate(27.98 70.87) rotate(-86)"/></g><g class="cls-13"><rect class="cls-14" x="5.87" y="7.27" width="38.91" height="38.11" transform="translate(-9.02 38.75) rotate(-66)"/></g><g class="cls-15"><rect class="cls-16" x="23.13" y="13.49" width="49.8" height="27.96"/></g><g class="cls-17"><rect class="cls-18" x="22.91" y="13.99" width="38.07" height="27.54"/></g></g></g></svg>