<svg width="116" height="116" viewBox="0 0 116 116" fill="none" xmlns="http://www.w3.org/2000/svg">
<g filter="url(#filter0_d)">
<rect x="33.2" y="14.2" width="49.6" height="49.6" rx="24.8" fill="#25C187"/>
</g>
<rect x="27.5" y="8.5" width="61" height="61" rx="30.5" stroke="#25C187" stroke-opacity="0.2"/>
<g clip-path="url(#clip0)">
<path d="M60.509 51.4H55.4912L54.8348 49.1418C54.2252 48.951 53.6339 48.7056 53.0687 48.4084L51.006 49.5421L47.4579 45.9941L48.5915 43.9313C48.2944 43.3662 48.049 42.7749 47.8583 42.1653L45.6001 41.5089V36.4911L47.8583 35.8347C48.049 35.2251 48.2944 34.6338 48.5917 34.0686L47.4579 32.0059L51.006 28.4578L53.0687 29.5914C53.6339 29.2943 54.2252 29.0489 54.8348 28.8582L55.4912 26.6H60.509L61.1654 28.8582C61.775 29.0489 62.3663 29.2943 62.9315 29.5916L64.9942 28.4578L68.5423 32.0059L67.4087 34.0686C67.7058 34.6338 67.9512 35.2251 68.1419 35.8347L70.4001 36.4911V41.5089L68.1419 42.1653C67.9512 42.7749 67.7058 43.3662 67.4085 43.9313L68.5423 45.9941L64.9942 49.5421L62.9315 48.4086C62.3663 48.7056 61.775 48.951 61.1654 49.1418L60.509 51.4ZM56.5822 49.9468H59.418L59.9953 47.9609L60.3896 47.8544C61.1518 47.6485 61.8846 47.3443 62.568 46.95L62.9224 46.7454L64.738 47.7433L66.7434 45.7379L65.7456 43.9222L65.9501 43.5679C66.3444 42.8846 66.6487 42.1516 66.8545 41.3895L66.961 40.9952L68.947 40.4179V37.582L66.961 37.0048L66.8545 36.6105C66.6487 35.8483 66.3444 35.1155 65.9501 34.4321L65.7456 34.0777L66.7434 32.2621L64.738 30.2568L62.9224 31.2545L62.568 31.05C61.8846 30.6557 61.1518 30.3514 60.3896 30.1456L59.9953 30.039L59.418 28.0531H56.5822L56.0049 30.039L55.6106 30.1456C54.8484 30.3514 54.1156 30.6557 53.4322 31.05L53.0778 31.2545L51.2622 30.2566L49.2568 32.2621L50.2546 34.0777L50.0501 34.4321C49.6558 35.1153 49.3515 35.8483 49.1457 36.6105L49.0392 37.0048L47.0532 37.582V40.4179L49.0392 40.9952L49.1457 41.3895C49.3515 42.1516 49.6558 42.8844 50.0501 43.5679L50.2546 43.9222L49.2568 45.7379L51.2622 47.7433L53.0778 46.7454L53.4322 46.95C54.1154 47.3443 54.8484 47.6485 55.6106 47.8544L56.0049 47.9609L56.5822 49.9468Z" fill="white"/>
<path d="M57.9999 42.3991C56.1256 42.3991 54.6006 40.8743 54.6006 38.9998C54.6006 37.1253 56.1254 35.6005 57.9999 35.6005C59.8744 35.6005 61.3992 37.1253 61.3992 38.9998C61.3992 40.8743 59.8742 42.3991 57.9999 42.3991ZM57.9999 37.0536C56.9267 37.0536 56.0537 37.9266 56.0537 38.9998C56.0537 40.073 56.9267 40.946 57.9999 40.946C59.0731 40.946 59.9461 40.073 59.9461 38.9998C59.9461 37.9266 59.0731 37.0536 57.9999 37.0536Z" fill="white"/>
<path d="M57.9999 45.3054C54.523 45.3054 51.6943 42.4767 51.6943 38.9998C51.6943 35.5229 54.523 32.6942 57.9999 32.6942C61.4768 32.6942 64.3055 35.5229 64.3055 38.9998C64.3055 42.4767 61.4768 45.3054 57.9999 45.3054ZM57.9999 34.1473C55.3243 34.1473 53.1475 36.3242 53.1475 38.9998C53.1475 41.6754 55.3243 43.8522 57.9999 43.8522C60.6755 43.8522 62.8524 41.6754 62.8524 38.9998C62.8524 36.3242 60.6755 34.1473 57.9999 34.1473Z" fill="white"/>
</g>
<defs>
<filter id="filter0_d" x="0.199951" y="0.199951" width="115.6" height="115.6" filterUnits="userSpaceOnUse" color-interpolation-filters="sRGB">
<feFlood flood-opacity="0" result="BackgroundImageFix"/>
<feColorMatrix in="SourceAlpha" type="matrix" values="0 0 0 0 0 0 0 0 0 0 0 0 0 0 0 0 0 0 127 0"/>
<feOffset dy="19"/>
<feGaussianBlur stdDeviation="16.5"/>
<feColorMatrix type="matrix" values="0 0 0 0 0.145098 0 0 0 0 0.756863 0 0 0 0 0.529412 0 0 0 0.2 0"/>
<feBlend mode="normal" in2="BackgroundImageFix" result="effect1_dropShadow"/>
<feBlend mode="normal" in="SourceGraphic" in2="effect1_dropShadow" result="shape"/>
</filter>
<clipPath id="clip0">
<rect width="24.8" height="24.8" fill="white" transform="translate(45.6001 26.6)"/>
</clipPath>
</defs>
</svg>
