<?xml version="1.0" encoding="utf-8"?>
<!-- Generator: Adobe Illustrator 22.1.0, SVG Export Plug-In . SVG Version: 6.00 Build 0)  -->
<svg version="1.1" id="Layer_1" xmlns="http://www.w3.org/2000/svg" xmlns:xlink="http://www.w3.org/1999/xlink" x="0px" y="0px"
	 viewBox="0 0 784 284" style="enable-background:new 0 0 784 284;" xml:space="preserve">
<style type="text/css">
	.st0{fill:#858CDD;}
	.st1{fill:#5B44BA;}
	.st2{fill:#F0F0F0;}
	.st3{fill:#FFFFFF;}
</style>
<title>Asset 3</title>
<g id="Layer_2_1_">
	<g id="Слой_1">
		<path d="M400,191.4v14.2h-57V78.2h16.6v113.3H400z"/>
		<path d="M434.7,205.6h-15.9v-96.5h15.9V205.6z M426.8,92c-2.7,0-5.4-0.9-7.4-2.8c-2-2.1-3.1-4.9-3-7.7c-0.1-2.8,0.9-5.6,3-7.5
			c2-1.9,4.6-3,7.4-3c2.7-0.1,5.3,1,7.2,2.9c2.1,1.9,3.3,4.7,3.1,7.5c0.2,5.6-4.1,10.3-9.6,10.5C427.2,92,427,92,426.8,92z"/>
		<path d="M478.3,109.1h24.4v13.6h-24.4v53.2c0,6.6,1.2,11.3,3.5,14c2.6,2.6,6.1,4,9.8,3.9c2,0,4-0.3,5.9-0.9c1.8-0.5,3.4-1.3,5-2.2
			l3.1,12.7c-4.9,2.9-10.4,4.4-16,4.4c-9.1,0-15.9-2.5-20.5-7.5c-4.4-5.1-6.6-13.6-6.6-25.4V83.1l15.9-2.8L478.3,109.1z"/>
		<path d="M522.8,111.8c4.6-1.4,9.3-2.5,14-3.3c4.6-0.9,9.2-1.5,13.9-1.5c3.9-0.1,7.9,0.5,11.6,1.7c3.5,1.1,6.7,3,9.4,5.5
			c3.2-2.1,6.7-3.8,10.3-5.1c3.9-1.4,8-2.1,12.2-2c4.1-0.1,8.2,0.6,12,2c3.7,1.2,6.9,3.4,9.4,6.4c2.9,3.7,5,7.9,6.1,12.5
			c1.5,5.2,2.2,11.6,2.2,19.3v58.3H608v-57c0-9.6-1.1-16.6-3.3-21c-2.2-4.4-6.4-6.6-12.5-6.6c-2.5,0-4.9,0.5-7.2,1.3
			c-2.4,0.9-4.6,2-6.6,3.5c1,3.1,1.8,6.3,2.2,9.6c0.5,4,0.8,8,0.7,12v58.3h-15.9v-57c0-9.6-1.1-16.6-3.3-21s-6.4-6.7-12.5-6.6
			c-3.7,0.1-7.4,0.7-10.9,1.8v82.8h-15.9V111.8z"/>
		<path d="M711.6,202.9c-1.9,0.7-3.9,1.3-5.9,1.8c-2.2,0.5-4.6,0.9-7.2,1.3c-2.5,0.5-5,0.9-7.6,1.1c-2.3,0.4-4.5,0.5-6.8,0.6
			c-4.7,0.1-9.3-0.6-13.8-1.8c-4-1-7.7-3.1-10.7-6.1c-3.2-3.4-5.5-7.5-6.8-11.9c-1.6-5.1-2.4-11.6-2.4-19.3v-59.4h15.9v58.8
			c0,9.4,1.4,16.1,4.2,20.1c3,3.8,7.4,5.7,13.3,5.7c2,0,3.9-0.1,5.9-0.2c2.1-0.3,4.1-0.7,6.1-1.3v-83.1h15.9V202.9z"/>
		<path d="M753.7,194.4c4.7,0,8.2-1.3,10.5-3.9c2.5-2.9,3.9-6.6,3.7-10.5c0.1-2.4-0.4-4.7-1.5-6.8c-1-1.9-2.3-3.7-3.9-5.1
			c-1.7-1.5-3.5-2.8-5.5-3.9c-2.1-1.2-4.2-2.5-6.3-3.9c-2.1-1.3-4.2-2.7-6.1-4.2c-2-1.7-3.8-3.6-5.3-5.7c-1.5-2.3-2.8-4.8-3.7-7.4
			c-0.9-3.2-1.3-6.5-1.3-9.8c0-8,2.5-14.4,7.4-19.3c5-4.9,11.8-7.4,20.3-7.4c3.4,0,6.9,0.5,10.2,1.5c2.7,0.7,5.4,1.7,7.9,2.9
			l-3.5,12.7c-2.1-1.2-4.3-2.1-6.7-2.8c-2.3-0.6-4.8-0.9-7.2-0.9c-3.5-0.2-6.9,1.1-9.4,3.5c-2.3,2.2-3.5,5.5-3.5,9.8
			c0,2.2,0.4,4.4,1.3,6.4c0.9,1.7,2,3.3,3.3,4.8c1.5,1.4,3.1,2.7,4.8,3.9c1.8,1.2,3.7,2.4,5.7,3.5c2.3,1.4,4.6,2.8,6.8,4.4
			c2.3,1.6,4.4,3.5,6.1,5.7c1.9,2.2,3.4,4.8,4.4,7.5c1.2,3.3,1.7,6.8,1.6,10.3c0,8.5-2.5,15.3-7.6,20.4c-4.9,5.1-12.2,7.7-21.8,7.7
			c-4.5,0.1-9-0.6-13.3-2c-3.1-1-6-2.2-8.9-3.7l3.3-13.1c2.4,1.2,4.9,2.3,7.4,3.3C746.6,193.8,750.2,194.4,753.7,194.4z"/>
		<path class="st0" d="M0,0h228v262.7c0,11.8-9.6,21.3-21.4,21.3H21.4C9.6,284,0,274.5,0,262.7c0,0,0,0,0,0V0z"/>
		<path class="st1" d="M36,14h35v100H36V14z"/>
		<path class="st2" d="M36,114h35v142H36V114z"/>
		<path class="st2" d="M93,256v-36h106v36H93z"/>
	</g>
</g>
<g id="Layer_2_2_">
	<g id="Слой_1_1_">
		<path class="st3" d="M400,587.4v14.2h-57V474.2h16.6v113.3H400z"/>
		<path class="st3" d="M434.7,601.6h-15.9v-96.5h15.9V601.6z M426.8,488c-2.7,0-5.4-0.9-7.4-2.8c-2-2.1-3.1-4.9-3-7.7
			c-0.1-2.8,0.9-5.6,3-7.5c2-1.9,4.6-3,7.4-3c2.7-0.1,5.3,1,7.2,2.9c2.1,1.9,3.3,4.7,3.1,7.5c0.2,5.6-4.1,10.3-9.6,10.5
			C427.2,488,427,488,426.8,488z"/>
		<path class="st3" d="M478.3,505.1h24.4v13.6h-24.4v53.2c0,6.6,1.2,11.3,3.5,14c2.6,2.6,6.1,4,9.8,3.9c2,0,4-0.3,5.9-0.9
			c1.8-0.5,3.4-1.3,5-2.2l3.1,12.7c-4.9,2.9-10.4,4.4-16,4.4c-9.1,0-15.9-2.5-20.5-7.5c-4.4-5.1-6.6-13.6-6.6-25.4v-91.6l15.9-2.8
			L478.3,505.1z"/>
		<path class="st3" d="M522.8,507.8c4.6-1.4,9.3-2.5,14-3.3c4.6-0.9,9.2-1.5,13.9-1.5c3.9-0.1,7.9,0.5,11.6,1.7
			c3.5,1.1,6.7,3,9.4,5.5c3.2-2.1,6.7-3.8,10.3-5.1c3.9-1.4,8-2.1,12.2-2c4.1-0.1,8.2,0.6,12,2c3.7,1.2,6.9,3.4,9.4,6.4
			c2.9,3.7,5,7.9,6.1,12.5c1.5,5.2,2.2,11.6,2.2,19.3v58.3H608v-57c0-9.6-1.1-16.6-3.3-21c-2.2-4.4-6.4-6.6-12.5-6.6
			c-2.5,0-4.9,0.5-7.2,1.3c-2.4,0.9-4.6,2-6.6,3.5c1,3.1,1.8,6.3,2.2,9.6c0.5,4,0.8,8,0.7,12v58.3h-15.9v-57c0-9.6-1.1-16.6-3.3-21
			s-6.4-6.7-12.5-6.6c-3.7,0.1-7.4,0.7-10.9,1.8v82.8h-15.9V507.8z"/>
		<path class="st3" d="M711.6,598.8c-1.9,0.7-3.9,1.3-5.9,1.8c-2.2,0.5-4.6,0.9-7.2,1.3c-2.5,0.5-5,0.9-7.6,1.1
			c-2.3,0.4-4.5,0.5-6.8,0.6c-4.7,0.1-9.3-0.6-13.8-1.8c-4-1-7.7-3.1-10.7-6.1c-3.2-3.4-5.5-7.5-6.8-12c-1.6-5.1-2.4-11.6-2.4-19.3
			v-59.4h15.9v58.8c0,9.4,1.4,16.1,4.2,20c3,3.8,7.4,5.7,13.3,5.7c2,0,3.9-0.1,5.9-0.2c2.1-0.3,4.1-0.7,6.1-1.3v-83.1h15.9V598.8z"
			/>
		<path class="st3" d="M753.7,590.4c4.7,0,8.2-1.3,10.5-3.9c2.5-2.9,3.9-6.6,3.7-10.5c0.1-2.4-0.4-4.7-1.5-6.8
			c-1-1.9-2.3-3.7-3.9-5.2c-1.7-1.5-3.5-2.8-5.5-3.9c-2.1-1.2-4.2-2.5-6.3-3.9c-2.1-1.3-4.2-2.7-6.1-4.2c-2-1.7-3.8-3.6-5.3-5.7
			c-1.5-2.3-2.8-4.8-3.7-7.4c-0.9-3.2-1.3-6.5-1.3-9.8c0-8,2.5-14.4,7.4-19.3c5-4.9,11.8-7.4,20.3-7.4c3.4,0,6.9,0.5,10.2,1.5
			c2.7,0.7,5.4,1.7,7.9,2.9l-3.5,12.7c-2.1-1.2-4.3-2.1-6.7-2.8c-2.3-0.6-4.8-0.9-7.2-0.9c-3.5-0.2-6.9,1.1-9.4,3.5
			c-2.3,2.2-3.5,5.5-3.5,9.8c0,2.2,0.4,4.4,1.3,6.4c0.9,1.7,2,3.3,3.3,4.8c1.5,1.4,3.1,2.7,4.8,3.9c1.8,1.2,3.7,2.4,5.7,3.5
			c2.3,1.4,4.6,2.8,6.8,4.4c2.3,1.6,4.4,3.5,6.1,5.7c1.9,2.2,3.4,4.8,4.4,7.5c1.2,3.3,1.7,6.8,1.6,10.3c0,8.5-2.5,15.3-7.6,20.4
			c-4.9,5.1-12.2,7.7-21.8,7.7c-4.5,0.1-9-0.6-13.3-2c-3.1-1-6-2.2-8.9-3.7l3.3-13.1c2.4,1.2,4.9,2.3,7.4,3.3
			C746.6,589.8,750.2,590.4,753.7,590.4z"/>
		<path class="st0" d="M0,396h228v262.7c0,11.8-9.6,21.3-21.4,21.3H21.4C9.6,680,0,670.5,0,658.7c0,0,0,0,0,0V396z"/>
		<path class="st1" d="M36,410h35v100H36V410z"/>
		<path class="st2" d="M36,510h35v142H36V510z"/>
		<path class="st2" d="M93,652v-36h106v36H93z"/>
	</g>
</g>
</svg>
