<svg width="113" height="46" viewBox="0 0 113 46" fill="none" xmlns="http://www.w3.org/2000/svg">
<rect width="113" height="46" rx="6" fill="#CA2C2C"/>
<path d="M52.6473 30.384V33H42.1353V16.368H45.1593V30.384H52.6473ZM55.4356 16.368H58.4596V33H55.4356V16.368ZM67.6754 33C66.4754 30.408 65.3154 27.696 64.1954 24.864C63.0914 22.032 62.0594 19.2 61.0994 16.368H64.4354C64.8194 17.488 65.2114 18.632 65.6114 19.8C66.0114 20.968 66.4114 22.12 66.8114 23.256C67.2114 24.376 67.6114 25.464 68.0114 26.52C68.4114 27.576 68.8034 28.544 69.1874 29.424C69.5554 28.544 69.9394 27.584 70.3394 26.544C70.7394 25.488 71.1394 24.392 71.5394 23.256C71.9554 22.12 72.3634 20.968 72.7634 19.8C73.1634 18.632 73.5474 17.488 73.9154 16.368H77.1554C76.1794 19.2 75.1394 22.032 74.0354 24.864C72.9314 27.696 71.7794 30.408 70.5794 33H67.6754ZM79.7862 33V16.368H90.4662V18.936H82.8102V23.04H89.6262V25.56H82.8102V30.432H91.0422V33H79.7862Z" fill="white"/>
<circle cx="27" cy="24" r="6" fill="white"/>
</svg>
