<svg width="111" height="44" viewBox="0 0 111 44" fill="none" xmlns="http://www.w3.org/2000/svg">
<path d="M56.6281 29.0056V31.151H48.5586V11.8428H50.9087V29.0056H56.6281Z" fill="#010101"/>
<path d="M61.54 31.1516H59.2932V16.525H61.54V31.1516ZM60.4159 13.9388C60.0309 13.945 59.6578 13.7957 59.3711 13.5206C59.2308 13.3663 59.1214 13.183 59.0495 12.9819C58.9777 12.7808 58.945 12.5661 58.9535 12.351C58.9434 12.1398 58.9754 11.9287 59.0474 11.7317C59.1194 11.5347 59.2298 11.3564 59.3711 11.2086C59.65 10.9164 60.0256 10.7541 60.4159 10.7571C60.6052 10.7532 60.7932 10.7906 60.9685 10.8672C61.1438 10.9438 61.3026 11.0579 61.4352 11.2026C61.5838 11.3458 61.7007 11.5226 61.7776 11.7202C61.8545 11.9178 61.8894 12.1312 61.8797 12.3449C61.8883 12.5544 61.8566 12.7635 61.7864 12.9592C61.7162 13.155 61.6091 13.3331 61.4718 13.4827C61.3345 13.6322 61.1699 13.7499 60.9882 13.8283C60.8065 13.9068 60.6117 13.9444 60.4159 13.9388Z" fill="black"/>
<path d="M67.7097 16.5245H71.1569V18.585H67.7097V26.6377C67.7097 27.6407 67.8748 28.3477 68.2052 28.7588C68.3844 28.9552 68.6004 29.1089 68.839 29.21C69.0776 29.311 69.3334 29.357 69.5897 29.3451C69.8733 29.347 70.1554 29.2999 70.425 29.2057C70.6734 29.1271 70.9113 29.0146 71.1328 28.8709L71.5759 30.7935C70.8886 31.2313 70.1036 31.4621 69.3037 31.4617C68.0154 31.4617 67.049 31.0809 66.4044 30.3193C65.7768 29.5395 65.4634 28.2583 65.4644 26.4756V12.5959L67.7111 12.1777L67.7097 16.5245Z" fill="black"/>
<path d="M74.0112 16.9417C74.6608 16.7279 75.3229 16.5603 75.9932 16.4402C76.6389 16.2971 77.296 16.2204 77.9554 16.2114C78.513 16.2038 79.0684 16.2886 79.6018 16.4629C80.1011 16.626 80.5574 16.9125 80.934 17.2992C81.3911 16.982 81.8809 16.7222 82.3936 16.525C82.9472 16.3162 83.531 16.2136 84.1179 16.222C84.6967 16.2118 85.2724 16.3144 85.8168 16.525C86.3377 16.7091 86.7994 17.0468 87.1489 17.4992C87.5587 18.058 87.8531 18.7035 88.0125 19.3931C88.222 20.1739 88.3263 21.1491 88.3254 22.3187V31.1501H86.0744V22.5141C86.0744 21.0657 85.9173 20.0052 85.603 19.3325C85.2887 18.6598 84.6988 18.3265 83.8334 18.3325C83.4857 18.3356 83.1411 18.4017 82.8141 18.528C82.4803 18.6592 82.1643 18.837 81.874 19.0567C82.0224 19.5274 82.1272 20.0125 82.1869 20.5051C82.2612 21.1079 82.2962 21.7153 82.2917 22.3232V31.1547H80.0449V22.5187C80.0449 21.0703 79.8883 20.0097 79.5749 19.337C79.2616 18.6643 78.6698 18.3295 77.7996 18.3325C77.2758 18.3446 76.7564 18.4385 76.2579 18.6113V31.1486H74.0112V16.9417Z" fill="black"/>
<path d="M100.739 30.7328C100.465 30.8417 100.186 30.9348 99.9028 31.0116C99.5904 31.0864 99.2511 31.1515 98.8849 31.2071C98.5306 31.2825 98.1729 31.3382 97.8132 31.3737C97.4938 31.4271 97.171 31.455 96.8477 31.4571C96.1855 31.4649 95.5257 31.371 94.8884 31.1783C94.3153 31.0233 93.7919 30.7056 93.3736 30.2586C92.9197 29.7473 92.588 29.1262 92.4067 28.4481C92.1801 27.6683 92.0669 26.6931 92.0669 25.5225V16.5244H94.3136V25.4391C94.3136 26.8694 94.5137 27.882 94.9139 28.4769C95.3329 29.0526 95.9601 29.3405 96.7953 29.3405C97.0785 29.3405 97.3517 29.3299 97.6306 29.3117C97.9226 29.2724 98.211 29.207 98.4928 29.1162V16.5244H100.739V30.7328Z" fill="black"/>
<path d="M106.707 29.4515C107.367 29.4515 107.864 29.2565 108.196 28.8667C108.556 28.4296 108.746 27.8612 108.726 27.2789C108.737 26.9217 108.665 26.5671 108.516 26.2471C108.379 25.9535 108.194 25.6891 107.968 25.4668C107.731 25.2369 107.468 25.0403 107.184 24.882C106.888 24.6972 106.593 24.5022 106.296 24.2972C105.994 24.1075 105.706 23.8933 105.434 23.6563C105.155 23.3966 104.901 23.1073 104.677 22.7927C104.461 22.4454 104.286 22.0715 104.154 21.6791C104.026 21.199 103.964 20.7012 103.972 20.2019C103.972 18.9898 104.32 18.0146 105.016 17.2763C105.73 16.5339 106.687 16.1622 107.889 16.1612C108.376 16.1588 108.86 16.2344 109.326 16.3854C109.715 16.4886 110.092 16.638 110.45 16.8309L109.953 18.7535C109.655 18.5731 109.338 18.4317 109.009 18.3323C108.676 18.2371 108.333 18.1902 107.989 18.1929C107.745 18.18 107.502 18.2202 107.273 18.3111C107.044 18.402 106.834 18.5417 106.657 18.7217C106.327 19.056 106.162 19.5484 106.162 20.1989C106.155 20.5345 106.217 20.8677 106.344 21.1746C106.469 21.4382 106.627 21.6819 106.814 21.8988C107.03 22.1083 107.256 22.3036 107.494 22.4836C107.754 22.6705 108.024 22.8467 108.304 23.0124C108.636 23.218 108.958 23.4415 109.269 23.6821C109.597 23.9197 109.888 24.2111 110.131 24.5456C110.405 24.8817 110.617 25.2691 110.758 25.688C110.926 26.1887 111.005 26.7184 110.991 27.2501C110.991 28.5318 110.634 29.5631 109.92 30.3439C109.224 31.1236 108.196 31.5135 106.837 31.5135C106.199 31.5244 105.564 31.422 104.957 31.2105C104.525 31.0625 104.105 30.876 103.703 30.6529L104.173 28.6742C104.512 28.8609 104.861 29.0283 105.217 29.1757C105.694 29.3652 106.199 29.4586 106.707 29.4515Z" fill="black"/>
<path d="M0 0H32.2779V39.8012C32.2764 40.6584 31.9569 41.4799 31.3896 42.0851C30.8223 42.6902 30.0536 43.0295 29.2526 43.0283H3.02676C2.63003 43.0291 2.23703 42.9463 1.87021 42.7845C1.50339 42.6228 1.16992 42.3853 0.888863 42.0856C0.607802 41.7859 0.384645 41.43 0.232133 41.038C0.0796219 40.646 0.000742952 40.2258 0 39.8012L0 0Z" fill="#858CDD"/>
<path d="M5.09668 2.12109H10.0516V17.2719H5.09668V2.12109Z" fill="#5B44BA"/>
<path d="M5.09668 17.2715H10.0516V38.7856H5.09668V17.2715Z" fill="white"/>
<path d="M13.166 38.7863V33.332H28.1724V38.7863H13.166Z" fill="white"/>
</svg>
