<svg xmlns="http://www.w3.org/2000/svg" fill="none" viewBox="0 0 656 435"><defs><style xmlns="http://www.w3.org/2000/svg">*{cursor:pointer;}</style></defs><rect width="560" height="339" x="48" y="28" fill="#fff" rx="8"/><g filter="url(#filter0_d)"><rect width="560" height="339" x="48" y="28" fill="#fff" rx="8"/></g><mask id="a" width="560" height="339" x="48" y="28" maskUnits="userSpaceOnUse"><rect width="560" height="339" x="48" y="28" fill="#fff" rx="8"/></mask><g mask="url(#a)"><path fill="#EBEBEB" d="M48 26h560v50H48z"/><g fill="#000" opacity=".5"><path d="M279.328 46.912h2.016V58h-2.016V46.912zM283.904 49.904c.373-.107.859-.208 1.456-.304a12.554 12.554 0 011.984-.144c.683 0 1.253.096 1.712.288.459.181.821.443 1.088.784.277.33.469.736.576 1.216.117.47.176.987.176 1.552V58h-1.936v-4.4c0-.448-.032-.827-.096-1.136-.053-.32-.149-.576-.288-.768a1.045 1.045 0 00-.544-.432c-.224-.096-.501-.144-.832-.144a6.46 6.46 0 00-.768.048c-.267.032-.464.059-.592.08V58h-1.936v-8.096zM295.359 56.608c.512 0 .886-.059 1.12-.176.235-.128.352-.341.352-.64 0-.277-.128-.507-.384-.688-.245-.181-.656-.379-1.232-.592a12.355 12.355 0 01-.976-.4 3.597 3.597 0 01-.752-.512 2.195 2.195 0 01-.512-.688c-.117-.277-.176-.613-.176-1.008 0-.768.283-1.37.848-1.808.566-.448 1.334-.672 2.304-.672.491 0 .96.048 1.408.144.448.085.784.17 1.008.256l-.352 1.568a4.354 4.354 0 00-.816-.256 4.63 4.63 0 00-1.152-.128c-.394 0-.714.07-.96.208a.64.64 0 00-.368.608c0 .139.022.261.064.368a.963.963 0 00.256.304c.118.085.272.176.464.272.192.085.427.176.704.272.459.17.848.341 1.168.512.32.16.582.347.784.56.214.203.368.437.464.704.096.267.144.587.144.96 0 .8-.298 1.408-.896 1.824-.586.405-1.429.608-2.528.608-.736 0-1.328-.064-1.776-.192a8.45 8.45 0 01-.944-.288l.336-1.616c.288.117.63.23 1.024.336.406.107.864.16 1.376.16zM300.48 47.424l1.936-.32v2.528h2.976v1.616h-2.976v3.408c0 .672.106 1.152.32 1.44.213.288.576.432 1.088.432.352 0 .661-.037.928-.112a6.18 6.18 0 00.656-.208l.32 1.536a6.591 6.591 0 01-.88.288c-.363.107-.79.16-1.28.16-.598 0-1.099-.08-1.504-.24-.395-.16-.71-.39-.944-.688-.235-.31-.4-.677-.496-1.104a6.971 6.971 0 01-.144-1.488v-7.248zM310.207 56.64c.598 0 1.051-.032 1.36-.096V54.4a4.313 4.313 0 00-1.136-.144 4.64 4.64 0 00-.656.048c-.213.032-.41.09-.592.176a1.07 1.07 0 00-.416.368.972.972 0 00-.16.576c0 .459.144.779.432.96.288.17.678.256 1.168.256zm-.16-7.216c.64 0 1.179.08 1.616.24.438.16.784.384 1.04.672.267.288.454.64.56 1.056.118.405.176.853.176 1.344v5.072c-.298.064-.752.139-1.36.224a12.89 12.89 0 01-2.032.144c-.501 0-.96-.048-1.376-.144a2.976 2.976 0 01-1.072-.464 2.294 2.294 0 01-.688-.832c-.16-.341-.24-.763-.24-1.264 0-.48.091-.885.272-1.216.192-.33.448-.597.768-.8.32-.213.688-.363 1.104-.448.427-.096.87-.144 1.328-.144.214 0 .438.016.672.048.235.021.486.064.752.128v-.32c0-.224-.026-.437-.08-.64a1.212 1.212 0 00-.288-.528 1.208 1.208 0 00-.528-.368c-.213-.085-.485-.128-.816-.128-.448 0-.858.032-1.232.096a5.437 5.437 0 00-.912.224l-.24-1.568c.246-.085.603-.17 1.072-.256.47-.085.971-.128 1.504-.128zM318.722 58.16c-.576-.01-1.056-.075-1.44-.192-.373-.117-.672-.283-.896-.496a1.908 1.908 0 01-.48-.816 4.506 4.506 0 01-.128-1.12v-9.632l1.936-.32v9.584c0 .235.016.432.048.592.043.16.112.299.208.416.096.107.224.192.384.256.171.053.384.096.64.128l-.272 1.6zM323.472 58.16c-.576-.01-1.056-.075-1.44-.192-.373-.117-.672-.283-.896-.496a1.908 1.908 0 01-.48-.816 4.506 4.506 0 01-.128-1.12v-9.632l1.936-.32v9.584c0 .235.016.432.048.592.043.16.112.299.208.416.096.107.224.192.384.256.171.053.384.096.64.128l-.272 1.6zM336.149 56.256V58h-7.008V46.912h2.016v9.344h4.992zM339.543 58h-1.936v-8.368h1.936V58zm.208-10.816c0 .363-.117.65-.352.864-.234.213-.512.32-.832.32-.33 0-.613-.107-.848-.32-.234-.213-.352-.501-.352-.864 0-.373.118-.667.352-.88.235-.213.518-.32.848-.32.32 0 .598.107.832.32.235.213.352.507.352.88zM341.917 47.424l1.936-.32v2.528h2.976v1.616h-2.976v3.408c0 .672.107 1.152.32 1.44.214.288.576.432 1.088.432.352 0 .662-.037.928-.112.278-.075.496-.144.656-.208l.32 1.536a6.543 6.543 0 01-.88.288c-.362.107-.789.16-1.28.16-.597 0-1.098-.08-1.504-.24a2.247 2.247 0 01-.944-.688c-.234-.31-.4-.677-.496-1.104a6.971 6.971 0 01-.144-1.488v-7.248zM353.469 53.6c0-.875-.112-1.504-.336-1.888-.214-.395-.619-.592-1.216-.592-.214 0-.448.016-.704.048-.256.032-.448.059-.576.08V58h-1.936v-8.096c.373-.107.858-.208 1.456-.304a12.306 12.306 0 011.92-.144c.576 0 1.045.075 1.408.224.373.15.682.347.928.592a3.996 3.996 0 011.056-.528c.224-.085.458-.155.704-.208.256-.053.512-.08.768-.08.65 0 1.184.096 1.6.288.426.181.757.443.992.784.245.33.41.736.496 1.216.096.47.144.987.144 1.552V58h-1.936v-4.4c0-.875-.107-1.504-.32-1.888-.214-.395-.624-.592-1.232-.592-.31 0-.603.053-.88.16a2.643 2.643 0 00-.624.288c.085.267.144.55.176.848.032.299.048.619.048.96V58h-1.936v-4.4zM369.409 57.744c-.374.096-.859.192-1.457.288-.597.107-1.253.16-1.968.16-.672 0-1.237-.096-1.696-.288a2.78 2.78 0 01-1.087-.8 3.22 3.22 0 01-.577-1.216 6.615 6.615 0 01-.175-1.568v-4.688h1.935v4.384c0 .896.129 1.536.385 1.92.266.384.725.576 1.376.576.234 0 .48-.01.736-.032.266-.021.464-.048.592-.08v-6.768h1.936v8.112zM373.969 56.608c.512 0 .885-.059 1.12-.176.234-.128.352-.341.352-.64 0-.277-.128-.507-.384-.688-.246-.181-.656-.379-1.232-.592a12.2 12.2 0 01-.976-.4 3.57 3.57 0 01-.752-.512 2.18 2.18 0 01-.512-.688c-.118-.277-.176-.613-.176-1.008 0-.768.282-1.37.848-1.808.565-.448 1.333-.672 2.304-.672.49 0 .96.048 1.408.144.448.085.784.17 1.008.256l-.352 1.568a4.402 4.402 0 00-.816-.256 4.642 4.642 0 00-1.152-.128c-.395 0-.715.07-.96.208a.639.639 0 00-.368.608c0 .139.021.261.064.368a.937.937 0 00.256.304c.117.085.272.176.464.272.192.085.426.176.704.272.458.17.848.341 1.168.512.32.16.581.347.784.56.213.203.368.437.464.704.096.267.144.587.144.96 0 .8-.299 1.408-.896 1.824-.587.405-1.43.608-2.528.608-.736 0-1.328-.064-1.776-.192a8.382 8.382 0 01-.944-.288l.336-1.616c.288.117.629.23 1.024.336.405.107.864.16 1.376.16z"/></g></g><circle cx="78" cy="53" r="10" fill="#CA2C2C"/><circle cx="108" cy="53" r="10" fill="#F0B740"/><circle cx="138" cy="53" r="10" fill="#109B67"/><g><text dy="0" style="white-space:pre" letter-spacing="0em"><tspan x="68" y="119.444" fill="#F2C94C" font-family="Ubuntu" font-size="16" font-weight="500">kubectl </tspan> <tspan x="127.531" y="119.444" fill="#858CDD" font-family="Ubuntu" font-size="16" font-weight="500">apply </tspan> <tspan x="171.922" y="119.444" fill="#CA2C2C" font-family="Ubuntu" font-size="16" font-weight="500">-f</tspan> <tspan x="68" y="146.444" fill="#666" font-family="Ubuntu" font-size="16" font-weight="500">https://litmuschaos.github.io/pages/litmus-operator-latest.yaml</tspan></text></g><defs><filter id="filter0_d" width="656" height="435" x="0" y="0" color-interpolation-filters="sRGB" filterUnits="userSpaceOnUse"><feFlood flood-opacity="0" result="BackgroundImageFix"/><feColorMatrix in="SourceAlpha" values="0 0 0 0 0 0 0 0 0 0 0 0 0 0 0 0 0 0 127 0"/><feOffset dy="20"/><feGaussianBlur stdDeviation="24"/><feColorMatrix values="0 0 0 0 0 0 0 0 0 0 0 0 0 0 0 0 0 0 0.08 0"/><feBlend in2="BackgroundImageFix" result="effect1_dropShadow"/><feBlend in="SourceGraphic" in2="effect1_dropShadow" result="shape"/></filter></defs></svg>