<svg width="1248" height="1086" viewBox="0 0 1248 1086" fill="none" xmlns="http://www.w3.org/2000/svg">
<g filter="url(#filter0_d)">
<rect x="76.6777" y="-308.849" width="1332" height="1224.65" rx="202" transform="rotate(-8.01669 76.6777 -308.849)" fill="#5B44BA"/>
<rect x="76.6777" y="-308.849" width="1332" height="1224.65" rx="202" transform="rotate(-8.01669 76.6777 -308.849)" fill="url(#paint0_linear)"/>
</g>
<rect x="15.4281" y="-357.928" width="1459.42" height="1341.72" rx="201.5" transform="rotate(-8.01669 15.4281 -357.928)" stroke="#5B44BA" stroke-opacity="0.2"/>
<g filter="url(#filter1_d)">
<g clip-path="url(#clip0)">
<rect x="323.584" y="234.459" width="1012.67" height="737" rx="10" transform="rotate(-8.01669 323.584 234.459)" fill="#FAFBFD"/>
<text transform="translate(382.398 243.344) rotate(-8.01669)" fill="black" xml:space="preserve" style="white-space: pre" font-family="Ubuntu Condensed" font-size="18.2844" letter-spacing="0em"><tspan x="0" y="17.2926">Litmus</tspan></text>
<rect x="482.357" y="212.098" width="0.703244" height="632.92" transform="rotate(-8.01669 482.357 212.098)" fill="black" fill-opacity="0.05"/>
<rect x="490.899" y="267.71" width="851.629" height="0.703244" transform="rotate(-8.01669 490.899 267.71)" fill="black" fill-opacity="0.05"/>
<path d="M349.918 244.954L372.202 241.816L375.831 267.582C375.994 268.735 375.19 269.803 374.036 269.965L355.931 272.515C354.777 272.677 353.71 271.874 353.547 270.72L349.918 244.954Z" fill="#858CDD"/>
<rect x="353.596" y="245.857" width="3.51622" height="9.84542" transform="rotate(-8.01669 353.596 245.857)" fill="#5B44BA"/>
<rect x="354.969" y="255.606" width="3.51622" height="14.0649" transform="rotate(-8.01669 354.969 255.606)" fill="#F0F0F0"/>
<rect x="362.502" y="268.749" width="3.51622" height="10.5487" transform="rotate(-98.0167 362.502 268.749)" fill="#F0F0F0"/>
<text transform="translate(536.604 289.68) rotate(-8.01669)" fill="black" fill-opacity="0.8" xml:space="preserve" style="white-space: pre" font-family="Ubuntu" font-size="30" font-weight="500" letter-spacing="0em"><tspan x="140.332" y="28.145">Richard Hill!</tspan></text>
<text transform="translate(536.604 289.68) rotate(-8.01669)" fill="black" fill-opacity="0.8" xml:space="preserve" style="white-space: pre" font-family="Ubuntu" font-size="30" letter-spacing="0em"><tspan x="0" y="28.145">Welcome, </tspan></text>
<rect x="364.061" y="335.286" width="0.703244" height="1.40649" transform="rotate(-8.01669 364.061 335.286)" fill="white"/>
<rect x="366.852" y="332.408" width="0.703244" height="1.40649" transform="rotate(-98.0167 366.852 332.408)" fill="white"/>
<rect x="371.025" y="334.306" width="0.703244" height="1.40649" transform="rotate(-8.01669 371.025 334.306)" fill="white"/>
<text transform="translate(528.072 229.096) rotate(-8.01669)" fill="black" xml:space="preserve" style="white-space: pre" font-family="Ubuntu" font-size="8.43893" letter-spacing="0em"><tspan x="0" y="8.63506">Home</tspan></text>
<text transform="translate(558.016 224.879) rotate(-8.01669)" fill="black" xml:space="preserve" style="white-space: pre" font-family="Ubuntu" font-size="8.43893" letter-spacing="0em"><tspan x="0" y="8.63506">/</tspan></text>
<text transform="translate(1103.59 140.229) rotate(-8.01669)" fill="black" xml:space="preserve" style="white-space: pre" font-family="Ubuntu" font-size="9.84542" font-weight="500" letter-spacing="0em"><tspan x="0" y="9.15757">Richard Hill</tspan></text>
<text transform="translate(1105.65 154.853) rotate(-8.01669)" fill="black" fill-opacity="0.4" xml:space="preserve" style="white-space: pre" font-family="Ubuntu" font-size="9.84542" letter-spacing="0em"><tspan x="0" y="9.15757">Flyunder-project-1</tspan></text>
<g clip-path="url(#clip1)">
<path d="M999.896 174.718C998.697 174.887 997.583 174.049 997.414 172.849C997.38 172.608 997.548 172.386 997.788 172.352C998.028 172.318 998.25 172.486 998.284 172.726C998.386 173.446 999.054 173.949 999.774 173.848C1000.49 173.746 1001 173.078 1000.9 172.358C1000.86 172.118 1001.03 171.895 1001.27 171.862C1001.51 171.828 1001.73 171.995 1001.77 172.236C1001.94 173.436 1001.1 174.549 999.896 174.718Z" fill="black"/>
<path d="M1004.44 172.303L994.864 173.651C994.304 173.73 993.784 173.339 993.706 172.779C993.664 172.482 993.753 172.182 993.952 171.957C993.965 171.942 993.979 171.928 993.993 171.916C994.741 171.052 995.078 169.914 994.918 168.785L994.69 167.166C994.375 164.926 995.941 162.847 998.181 162.532C998.273 162.519 998.374 162.506 998.469 162.509C998.712 162.515 998.904 162.717 998.898 162.959C998.892 163.201 998.685 163.394 998.447 163.387C998.4 163.386 998.349 163.396 998.303 163.402C996.544 163.65 995.313 165.283 995.561 167.043L995.789 168.662C995.986 170.064 995.559 171.478 994.617 172.539C994.609 172.547 994.603 172.554 994.594 172.562C994.581 172.584 994.57 172.616 994.576 172.656C994.587 172.735 994.663 172.792 994.741 172.781L1004.32 171.432C1004.4 171.421 1004.45 171.346 1004.44 171.267C1004.44 171.226 1004.42 171.199 1004.4 171.181C1004.39 171.176 1004.38 171.171 1004.37 171.165C1003.17 170.405 1002.37 169.165 1002.17 167.763L1002.08 167.131C1002.05 166.891 1002.22 166.668 1002.46 166.634C1002.7 166.6 1002.92 166.768 1002.95 167.008L1003.04 167.641C1003.2 168.771 1003.84 169.772 1004.8 170.396C1004.82 170.404 1004.83 170.413 1004.85 170.423C1005.1 170.584 1005.27 170.847 1005.31 171.144C1005.39 171.704 1005 172.224 1004.44 172.303Z" fill="black"/>
<circle cx="1002.4" cy="163.003" r="2.81298" transform="rotate(-8.01669 1002.4 163.003)" fill="#858CDD"/>
</g>
<g clip-path="url(#clip2)">
<path d="M1213.62 135.337C1213.52 135.259 1213.37 135.279 1213.29 135.383L1211.24 138.109L1208.51 136.056C1208.41 135.978 1208.26 135.999 1208.18 136.102C1208.11 136.206 1208.13 136.352 1208.23 136.43L1211.14 138.624C1211.19 138.663 1211.26 138.677 1211.32 138.669C1211.38 138.661 1211.43 138.63 1211.47 138.578L1213.67 135.665C1213.74 135.561 1213.72 135.415 1213.62 135.337Z" fill="black"/>
</g>
<text transform="translate(1105.76 649.836) rotate(-8.01669)" fill="black" fill-opacity="0.4" xml:space="preserve" style="white-space: pre" font-family="Ubuntu" font-size="9.84542" letter-spacing="0em"><tspan x="0" y="10.1576">Quick actions</tspan></text>
<path d="M1124.25 693.093L1122.28 691.611C1122.77 690.833 1123 689.938 1122.96 689.024L1124.07 688.869C1124.29 688.837 1124.45 688.628 1124.42 688.403C1124.39 688.178 1124.18 688.021 1123.95 688.052L1122.85 688.207C1122.65 687.29 1122.17 686.47 1121.47 685.841L1122.92 683.914C1123.11 683.977 1123.3 683.996 1123.5 683.968C1123.84 683.921 1124.13 683.748 1124.33 683.479C1124.53 683.211 1124.62 682.88 1124.57 682.547C1124.53 682.214 1124.35 681.92 1124.08 681.718C1123.82 681.515 1123.48 681.43 1123.15 681.477C1122.82 681.524 1122.52 681.697 1122.32 681.966C1122.12 682.234 1122.03 682.565 1122.08 682.898C1122.11 683.083 1122.17 683.257 1122.27 683.409L1120.81 685.345C1120.01 684.844 1119.09 684.625 1118.19 684.67L1118.03 683.568C1118 683.343 1117.79 683.186 1117.57 683.217C1117.34 683.249 1117.19 683.458 1117.22 683.683L1117.37 684.785C1116.5 684.99 1115.68 685.454 1115.04 686.158L1113.1 684.696C1113.15 684.523 1113.16 684.34 1113.14 684.156C1113.09 683.823 1112.92 683.529 1112.65 683.327C1112.38 683.125 1112.05 683.039 1111.72 683.086C1111.38 683.133 1111.09 683.306 1110.89 683.575C1110.68 683.843 1110.6 684.174 1110.65 684.507C1110.69 684.84 1110.87 685.134 1111.13 685.337C1111.4 685.539 1111.73 685.624 1112.07 685.577C1112.27 685.549 1112.45 685.475 1112.61 685.363L1114.54 686.817C1114.04 687.634 1113.82 688.563 1113.87 689.472L1112.73 689.633C1112.5 689.665 1112.35 689.873 1112.38 690.099C1112.41 690.324 1112.62 690.481 1112.84 690.449L1113.99 690.288C1114.2 691.151 1114.66 691.958 1115.36 692.587L1113.87 694.563C1113.69 694.511 1113.51 694.496 1113.33 694.522C1112.99 694.569 1112.7 694.742 1112.5 695.011C1112.3 695.279 1112.21 695.61 1112.26 695.943C1112.3 696.276 1112.48 696.57 1112.75 696.773C1113.01 696.975 1113.35 697.06 1113.68 697.013C1114.01 696.966 1114.31 696.793 1114.51 696.524C1114.71 696.256 1114.8 695.925 1114.75 695.592C1114.72 695.393 1114.65 695.207 1114.53 695.047L1116.01 693.083C1116.82 693.583 1117.74 693.803 1118.64 693.758L1118.79 694.874C1118.83 695.099 1119.03 695.256 1119.26 695.224C1119.49 695.192 1119.64 694.984 1119.61 694.759L1119.45 693.643C1120.33 693.438 1121.15 692.974 1121.79 692.27L1123.75 693.743C1123.57 694.244 1123.73 694.819 1124.18 695.154C1124.46 695.363 1124.79 695.439 1125.11 695.394C1125.43 695.349 1125.73 695.183 1125.94 694.906C1126.14 694.638 1126.23 694.306 1126.18 693.974C1126.14 693.641 1125.96 693.346 1125.69 693.144C1125.26 692.819 1124.68 692.815 1124.25 693.093ZM1122.98 682.462C1123.05 682.369 1123.15 682.309 1123.27 682.293C1123.38 682.277 1123.5 682.306 1123.59 682.376L1123.59 682.376C1123.68 682.446 1123.74 682.547 1123.76 682.662C1123.77 682.777 1123.74 682.891 1123.67 682.983C1123.6 683.076 1123.5 683.136 1123.39 683.152C1123.27 683.168 1123.16 683.139 1123.07 683.069C1122.97 682.999 1122.91 682.898 1122.9 682.783C1122.88 682.668 1122.91 682.554 1122.98 682.462ZM1112.24 684.593C1112.17 684.685 1112.07 684.745 1111.95 684.761C1111.84 684.777 1111.72 684.748 1111.63 684.678C1111.54 684.608 1111.48 684.507 1111.46 684.392C1111.45 684.277 1111.48 684.163 1111.55 684.071C1111.62 683.978 1111.72 683.918 1111.83 683.902C1111.95 683.886 1112.06 683.916 1112.15 683.985C1112.25 684.055 1112.31 684.156 1112.32 684.271C1112.34 684.386 1112.31 684.5 1112.24 684.593ZM1113.85 696.028C1113.78 696.121 1113.68 696.181 1113.56 696.197C1113.45 696.213 1113.33 696.184 1113.24 696.114C1113.15 696.044 1113.09 695.943 1113.07 695.828C1113.06 695.713 1113.09 695.599 1113.16 695.507C1113.23 695.414 1113.33 695.354 1113.44 695.338C1113.56 695.322 1113.67 695.352 1113.76 695.421C1113.86 695.491 1113.92 695.592 1113.93 695.707C1113.95 695.822 1113.92 695.936 1113.85 696.028ZM1117.89 685.525C1118.71 685.41 1119.57 685.564 1120.31 686.007L1119.04 687.692C1118.49 687.464 1117.85 687.554 1117.39 687.925L1115.7 686.657C1116.3 686.024 1117.08 685.64 1117.89 685.525ZM1119.07 689.709C1118.94 689.884 1118.75 689.998 1118.53 690.029C1118.31 690.059 1118.09 690.003 1117.92 689.871C1117.56 689.598 1117.48 689.081 1117.76 688.719C1117.89 688.538 1118.09 688.429 1118.3 688.4C1118.51 688.37 1118.73 688.42 1118.91 688.557C1119.27 688.83 1119.34 689.346 1119.07 689.709ZM1115.21 687.315L1116.89 688.584C1116.66 689.135 1116.75 689.773 1117.12 690.24L1115.85 691.925C1114.59 690.734 1114.32 688.809 1115.21 687.315ZM1116.51 692.421L1117.78 690.736C1118.05 690.848 1118.35 690.887 1118.64 690.845C1118.94 690.803 1119.21 690.685 1119.44 690.503L1121.13 691.771C1119.93 693.036 1118.01 693.307 1116.51 692.421ZM1121.62 691.113L1119.94 689.844C1120.16 689.293 1120.07 688.655 1119.7 688.188L1120.97 686.503C1121.59 687.081 1121.99 687.845 1122.11 688.694C1122.23 689.542 1122.05 690.387 1121.62 691.113ZM1125.28 694.41C1125.14 694.601 1124.87 694.64 1124.68 694.496C1124.48 694.352 1124.45 694.079 1124.59 693.888C1124.66 693.793 1124.77 693.736 1124.88 693.72C1124.99 693.705 1125.1 693.731 1125.2 693.803C1125.29 693.873 1125.35 693.974 1125.37 694.089C1125.38 694.203 1125.35 694.318 1125.28 694.41Z" fill="#858CDD"/>
<g clip-path="url(#clip3)">
<path d="M1129.07 729.271L1127.71 729.463C1127.52 729.489 1127.35 729.54 1127.18 729.611C1126.75 728.995 1126 728.637 1125.21 728.748L1122.8 729.088C1122 729.2 1121.38 729.752 1121.13 730.463C1120.96 730.44 1120.77 730.44 1120.59 730.466L1119.23 730.658C1118.1 730.817 1117.31 731.861 1117.47 732.986L1117.78 735.165C1117.87 735.84 1118.5 736.312 1119.18 736.217L1130.65 734.6C1131.33 734.505 1131.8 733.878 1131.71 733.203L1131.4 731.024C1131.24 729.899 1130.2 729.113 1129.07 729.271ZM1121.04 731.415L1121.56 735.049L1119.06 735.401C1118.84 735.432 1118.63 735.275 1118.6 735.05L1118.29 732.871C1118.19 732.196 1118.67 731.569 1119.34 731.474L1120.7 731.282C1120.81 731.267 1120.92 731.267 1121.03 731.28C1121.03 731.325 1121.04 731.37 1121.04 731.415ZM1127.23 734.25L1122.37 734.934L1121.86 731.3C1121.76 730.625 1122.24 729.999 1122.91 729.904L1125.32 729.565C1126 729.47 1126.62 729.941 1126.72 730.616L1127.23 734.25ZM1130.89 733.318C1130.92 733.543 1130.77 733.752 1130.54 733.784L1128.05 734.135L1127.53 730.501C1127.53 730.456 1127.52 730.411 1127.51 730.367C1127.61 730.325 1127.71 730.295 1127.82 730.279L1129.19 730.087C1129.86 729.992 1130.49 730.464 1130.58 731.139L1130.89 733.318Z" fill="#858CDD"/>
<path d="M1119.37 726.709C1118.37 726.85 1117.67 727.777 1117.81 728.777C1117.95 729.777 1118.88 730.475 1119.88 730.335C1120.88 730.194 1121.57 729.266 1121.43 728.266C1121.29 727.267 1120.36 726.568 1119.37 726.709ZM1119.76 729.519C1119.21 729.596 1118.7 729.212 1118.62 728.662C1118.55 728.112 1118.93 727.602 1119.48 727.525C1120.03 727.447 1120.54 727.832 1120.62 728.381C1120.69 728.931 1120.31 729.441 1119.76 729.519Z" fill="#858CDD"/>
<path d="M1123.29 723.86C1121.95 724.048 1121.02 725.287 1121.21 726.623C1121.4 727.958 1122.64 728.892 1123.97 728.704C1125.31 728.516 1126.24 727.276 1126.05 725.941C1125.86 724.605 1124.63 723.672 1123.29 723.86ZM1123.86 727.888C1122.97 728.012 1122.15 727.394 1122.02 726.508C1121.9 725.623 1122.52 724.801 1123.4 724.676C1124.29 724.551 1125.11 725.17 1125.24 726.056C1125.36 726.941 1124.74 727.763 1123.86 727.888Z" fill="#858CDD"/>
<path d="M1127.85 725.514C1126.85 725.655 1126.15 726.583 1126.29 727.582C1126.43 728.582 1127.36 729.281 1128.36 729.14C1129.36 728.999 1130.06 728.071 1129.92 727.072C1129.78 726.072 1128.85 725.373 1127.85 725.514ZM1128.24 728.324C1127.7 728.401 1127.18 728.017 1127.11 727.467C1127.03 726.918 1127.41 726.407 1127.96 726.33C1128.51 726.253 1129.02 726.637 1129.1 727.186C1129.18 727.736 1128.79 728.246 1128.24 728.324Z" fill="#858CDD"/>
</g>
<g clip-path="url(#clip4)">
<path d="M1126.51 769.266C1126.3 769.194 1126.07 769.31 1125.99 769.526L1125.59 770.731L1125.11 770.374C1124.93 770.237 1124.67 770.273 1124.54 770.455C1124.4 770.637 1124.44 770.895 1124.62 771.032L1125.55 771.733C1125.77 771.903 1126.1 771.801 1126.19 771.535L1126.77 769.788C1126.85 769.573 1126.73 769.339 1126.51 769.266Z" fill="#858CDD"/>
<path d="M1126.97 772.531C1126.76 772.459 1126.52 772.575 1126.45 772.79L1126.05 773.996L1125.57 773.638C1125.39 773.501 1125.13 773.538 1125 773.72C1124.86 773.901 1124.9 774.16 1125.08 774.297L1126.01 774.998C1126.23 775.167 1126.56 775.066 1126.65 774.8L1127.23 773.053C1127.31 772.837 1127.19 772.603 1126.97 772.531Z" fill="#858CDD"/>
<path d="M1131.22 768.56L1128.77 768.904C1128.55 768.936 1128.39 769.145 1128.42 769.37C1128.46 769.595 1128.66 769.752 1128.89 769.721L1131.34 769.376C1131.56 769.344 1131.72 769.136 1131.69 768.91C1131.66 768.685 1131.45 768.528 1131.22 768.56Z" fill="#858CDD"/>
<path d="M1131.45 770.192L1128.19 770.652C1127.96 770.684 1127.8 770.892 1127.84 771.118C1127.87 771.343 1128.08 771.5 1128.3 771.468L1131.57 771.008C1131.79 770.977 1131.95 770.768 1131.92 770.543C1131.88 770.318 1131.68 770.161 1131.45 770.192Z" fill="#858CDD"/>
<path d="M1131.68 771.824L1129.23 772.169C1129.01 772.2 1128.85 772.409 1128.88 772.634C1128.91 772.859 1129.12 773.016 1129.35 772.985L1131.8 772.64C1132.02 772.608 1132.18 772.4 1132.15 772.174C1132.12 771.949 1131.91 771.792 1131.68 771.824Z" fill="#858CDD"/>
<path d="M1131.91 773.456L1128.65 773.916C1128.42 773.947 1128.27 774.156 1128.3 774.381C1128.33 774.607 1128.54 774.763 1128.76 774.732L1132.03 774.272C1132.25 774.24 1132.41 774.032 1132.38 773.807C1132.35 773.581 1132.14 773.424 1131.91 773.456Z" fill="#858CDD"/>
<path d="M1131.58 765.18L1131.1 765.247C1130.87 764.796 1130.36 764.519 1129.83 764.593L1129.38 764.657C1129.06 763.753 1128.14 763.167 1127.15 763.306C1126.17 763.445 1125.44 764.263 1125.38 765.22L1124.94 765.283C1124.4 765.358 1124 765.763 1123.9 766.262L1123.42 766.329C1122.74 766.424 1122.27 767.051 1122.37 767.725L1123.63 776.729C1123.73 777.404 1124.36 777.876 1125.03 777.781L1133.19 776.632C1133.87 776.537 1134.34 775.91 1134.24 775.235L1132.98 766.231C1132.88 765.556 1132.25 765.085 1131.58 765.18ZM1124.7 766.565C1124.67 766.34 1124.83 766.131 1125.05 766.099L1125.87 765.984C1126.09 765.952 1126.25 765.744 1126.22 765.519C1126.12 764.844 1126.59 764.217 1127.27 764.122C1127.94 764.027 1128.57 764.499 1128.66 765.174C1128.7 765.399 1128.91 765.556 1129.13 765.524L1129.95 765.41C1130.17 765.378 1130.38 765.535 1130.41 765.76L1130.47 766.168L1124.76 766.973L1124.7 766.565ZM1133.43 775.35C1133.46 775.575 1133.3 775.784 1133.08 775.816L1124.92 776.965C1124.69 776.997 1124.48 776.839 1124.45 776.614L1123.18 767.611C1123.15 767.386 1123.31 767.177 1123.53 767.145L1123.94 767.088L1124 767.496C1124.03 767.721 1124.24 767.878 1124.46 767.846L1130.99 766.927C1131.22 766.895 1131.37 766.687 1131.34 766.461L1131.29 766.053L1131.69 765.996C1131.92 765.964 1132.13 766.121 1132.16 766.346L1133.43 775.35Z" fill="#858CDD"/>
<path d="M1136.34 766.405L1135.29 764.887C1135.1 764.608 1134.67 764.669 1134.56 764.99L1133.98 766.737C1133.96 766.798 1133.95 766.862 1133.96 766.926L1135.11 775.114C1135.21 775.788 1135.84 776.26 1136.51 776.165C1137.19 776.07 1137.66 775.444 1137.56 774.769L1136.41 766.581C1136.4 766.518 1136.38 766.457 1136.34 766.405ZM1136.75 774.884C1136.78 775.109 1136.62 775.317 1136.4 775.349C1136.17 775.381 1135.96 775.224 1135.93 774.999L1135.75 773.747L1136.57 773.632L1136.75 774.884ZM1136.45 772.816L1135.64 772.931L1134.79 766.907L1135.08 766.034L1135.61 766.792L1136.45 772.816Z" fill="#858CDD"/>
<path d="M1127.5 765.755C1127.72 765.723 1127.88 765.515 1127.85 765.29C1127.82 765.064 1127.61 764.907 1127.38 764.939C1127.16 764.971 1127 765.179 1127.03 765.405C1127.06 765.63 1127.27 765.787 1127.5 765.755Z" fill="#858CDD"/>
</g>
<g clip-path="url(#clip5)">
<path d="M1140.06 805.406L1136.34 802.602C1136.25 802.536 1136.14 802.508 1136.03 802.523L1130.32 803.327C1129.65 803.422 1129.17 804.049 1129.27 804.724L1130.89 816.203C1130.98 816.878 1131.61 817.35 1132.28 817.255L1140.44 816.105C1141.12 816.01 1141.59 815.384 1141.49 814.709L1140.22 805.678C1140.21 805.567 1140.15 805.469 1140.06 805.406ZM1136.64 803.858L1138.77 805.466L1137.31 805.672C1137.08 805.704 1136.88 805.547 1136.84 805.322L1136.64 803.858ZM1140.33 815.289L1132.17 816.439C1131.94 816.47 1131.73 816.313 1131.7 816.088L1130.09 804.609C1130.05 804.384 1130.21 804.175 1130.44 804.143L1135.74 803.396L1136.03 805.437C1136.12 806.111 1136.75 806.583 1137.42 806.488L1139.46 806.201L1140.68 814.824C1140.71 815.049 1140.55 815.258 1140.33 815.289Z" fill="#858CDD"/>
<path d="M1137.66 808.175L1132.76 808.864C1132.54 808.896 1132.38 809.105 1132.41 809.33C1132.45 809.555 1132.65 809.712 1132.88 809.68L1137.78 808.991C1138 808.959 1138.16 808.751 1138.13 808.525C1138.1 808.3 1137.89 808.143 1137.66 808.175Z" fill="#858CDD"/>
<path d="M1137.89 809.807L1132.99 810.496C1132.77 810.528 1132.61 810.737 1132.64 810.962C1132.68 811.187 1132.88 811.344 1133.11 811.313L1138.01 810.623C1138.23 810.591 1138.39 810.383 1138.36 810.157C1138.33 809.932 1138.12 809.775 1137.89 809.807Z" fill="#858CDD"/>
<path d="M1138.12 811.439L1133.22 812.129C1133 812.16 1132.84 812.369 1132.87 812.594C1132.91 812.819 1133.11 812.976 1133.34 812.945L1138.24 812.255C1138.46 812.223 1138.62 812.015 1138.59 811.79C1138.56 811.564 1138.35 811.407 1138.12 811.439Z" fill="#858CDD"/>
<path d="M1136.72 813.301L1133.45 813.761C1133.23 813.793 1133.07 814.001 1133.1 814.226C1133.14 814.452 1133.34 814.609 1133.57 814.577L1136.83 814.117C1137.06 814.085 1137.22 813.877 1137.18 813.652C1137.15 813.426 1136.94 813.269 1136.72 813.301Z" fill="#858CDD"/>
</g>
<text transform="translate(574.952 561.962) rotate(-8.01669)" fill="black" fill-opacity="0.7" xml:space="preserve" style="white-space: pre" font-family="Ubuntu" font-size="24" font-weight="bold" letter-spacing="0em"><tspan x="0" y="22.916">Resilience score</tspan></text>
<rect x="1068.8" y="533.6" width="225.741" height="99.8607" rx="2.10973" transform="rotate(-8.01669 1068.8 533.6)" fill="white" fill-opacity="0.6"/>
<rect x="1069.19" y="533.899" width="225.038" height="99.1574" rx="1.75811" transform="rotate(-8.01669 1069.19 533.899)" stroke="black" stroke-opacity="0.05" stroke-width="0.703244"/>
<text transform="translate(1121.18 547.528) rotate(-8.01669)" fill="black" xml:space="preserve" style="white-space: pre" font-family="Ubuntu" font-size="8.43893" letter-spacing="0px"><tspan x="0" y="9.81588">New workflow created. </tspan></text>
<text transform="translate(1121.18 547.528) rotate(-8.01669)" fill="#5B44BA" xml:space="preserve" style="white-space: pre" font-family="Ubuntu" font-size="8.43893" letter-spacing="0px" text-decoration="underline"><tspan x="90.7762" y="9.81588">PR 689</tspan></text>
<text transform="translate(1124.03 567.723) rotate(-8.01669)" fill="black" xml:space="preserve" style="white-space: pre" font-family="Ubuntu" font-size="8.43893" letter-spacing="0px"><tspan x="0" y="9.81588">You have signed up through GitHub</tspan></text>
<text transform="translate(1063.11 493.211) rotate(-8.01669)" fill="black" fill-opacity="0.7" xml:space="preserve" style="white-space: pre" font-family="Ubuntu" font-size="16.8779" font-weight="bold" letter-spacing="0em"><tspan x="0" y="15.7701">Recent activity</tspan></text>
<rect x="1084.87" y="652.778" width="0.703244" height="169.482" transform="rotate(-8.01669 1084.87 652.778)" fill="black" fill-opacity="0.05"/>
<rect x="1012.93" y="283.804" width="239.271" height="171.44" rx="2.23617" transform="rotate(-8.01669 1012.93 283.804)" fill="white"/>
<rect x="1013.35" y="284.121" width="238.525" height="170.695" rx="1.86348" transform="rotate(-8.01669 1013.35 284.121)" stroke="black" stroke-opacity="0.05" stroke-width="0.745391"/>
<mask id="mask0" mask-type="alpha" maskUnits="userSpaceOnUse" x="1062" y="323" width="180" height="181">
<circle cx="1152.03" cy="413.634" r="86.0927" transform="rotate(-8.01669 1152.03 413.634)" stroke="#EBEBEB" stroke-width="7.45391"/>
</mask>
<g mask="url(#mask0)">
<rect x="1045.1" y="330.461" width="187.839" height="71.5575" transform="rotate(-8.01669 1045.1 330.461)" fill="#EBEBEB"/>
</g>
<mask id="mask1" mask-type="alpha" maskUnits="userSpaceOnUse" x="1030" y="315" width="112" height="98">
<path d="M1138.26 315.834L1141.27 337.239L1099.5 404.095L1041.56 412.255L1030.13 331.063L1138.26 315.834Z" fill="#C4C4C4"/>
</mask>
<g mask="url(#mask1)">
<mask id="mask2" mask-type="alpha" maskUnits="userSpaceOnUse" x="1062" y="323" width="180" height="181">
<circle cx="1152.03" cy="413.634" r="86.0927" transform="rotate(-8.01669 1152.03 413.634)" stroke="#C4C4C4" stroke-width="7.45391"/>
</mask>
<g mask="url(#mask2)">
<rect x="1045.1" y="330.461" width="187.839" height="71.5575" transform="rotate(-8.01669 1045.1 330.461)" fill="#B8BAE1"/>
</g>
</g>
<text opacity="0.7" transform="translate(1048.63 302.111) rotate(-8.01669)" fill="black" xml:space="preserve" style="white-space: pre" font-family="Ubuntu" font-size="11.9263" font-weight="500" letter-spacing="0em"><tspan x="0" y="11.4306">Average Resilience Score</tspan></text>
<text transform="translate(1130.51 370.371) rotate(-8.01669)" fill="black" fill-opacity="0.4" xml:space="preserve" style="white-space: pre" font-family="Ubuntu" font-size="17.8894" font-weight="500" letter-spacing="0em"><tspan x="0" y="17.1459">50%</tspan></text>
<circle cx="1143.83" cy="352.688" r="11.1809" transform="rotate(-8.01669 1143.83 352.688)" fill="#858CDD"/>
<g clip-path="url(#clip6)">
<path d="M1141.87 352.156L1140.29 352.379C1140.14 352.4 1140.04 352.533 1140.06 352.68L1140.62 356.633C1140.64 356.78 1140.77 356.881 1140.92 356.86L1142.5 356.638C1142.65 356.617 1142.75 356.481 1142.73 356.336L1142.17 352.383C1142.15 352.237 1142.01 352.136 1141.87 352.156Z" fill="white"/>
<path d="M1144.1 348.887L1142.52 349.11C1142.37 349.13 1142.27 349.264 1142.29 349.409L1143.25 356.262C1143.27 356.409 1143.41 356.51 1143.55 356.489L1145.14 356.266C1145.28 356.246 1145.38 356.11 1145.36 355.965L1144.4 349.114C1144.38 348.967 1144.24 348.866 1144.1 348.887Z" fill="white"/>
<path d="M1147.03 350.623L1145.45 350.846C1145.3 350.867 1145.2 351.001 1145.22 351.147L1145.89 355.891C1145.91 356.038 1146.05 356.138 1146.19 356.118L1147.77 355.895C1147.92 355.875 1148.02 355.739 1148 355.594L1147.33 350.85C1147.31 350.704 1147.17 350.603 1147.03 350.623Z" fill="white"/>
</g>
<text transform="translate(1064.64 415.78) rotate(-8.01669)" fill="black" fill-opacity="0.6" xml:space="preserve" style="white-space: pre" font-family="Ubuntu" font-size="8.94469" letter-spacing="0em"><tspan x="0" y="9.32295">Based on tests result</tspan></text>
<rect x="758.711" y="319.608" width="238.114" height="171.145" rx="2.23232" transform="rotate(-8.01669 758.711 319.608)" fill="white"/>
<rect x="759.132" y="319.924" width="237.37" height="170.401" rx="1.86027" transform="rotate(-8.01669 759.132 319.924)" stroke="black" stroke-opacity="0.05" stroke-width="0.744107"/>
<text opacity="0.7" transform="translate(791.298 337.562) rotate(-8.01669)" fill="black" xml:space="preserve" style="white-space: pre" font-family="Ubuntu" font-size="11.9057" font-weight="500" letter-spacing="0em"><tspan x="0" y="11.423">Passed vs Failed</tspan></text>
<text opacity="0.6" transform="translate(806.501 418.832) rotate(-8.01669)" fill="#109B67" xml:space="preserve" style="white-space: pre" font-family="Ubuntu" font-size="17.8586" font-weight="500" letter-spacing="0em"><tspan x="0" y="17.1345">75%</tspan></text>
<text opacity="0.6" transform="translate(940.605 399.945) rotate(-8.01669)" fill="#CA2C2C" xml:space="preserve" style="white-space: pre" font-family="Ubuntu" font-size="17.8586" font-weight="500" letter-spacing="0em"><tspan x="0" y="17.1345">25%</tspan></text>
<text transform="translate(810.963 450.516) rotate(-8.01669)" fill="black" fill-opacity="0.6" xml:space="preserve" style="white-space: pre" font-family="Ubuntu" font-size="8.92929" letter-spacing="0em"><tspan x="0" y="9.31723">Statistics taken from all test results</tspan></text>
<path opacity="0.4" d="M926.699 354.562L967.962 348.751C969.183 348.579 970.312 349.429 970.484 350.65L974.323 377.913C974.495 379.134 973.645 380.263 972.424 380.435L931.162 386.246L926.699 354.562Z" fill="#CA2C2C"/>
<path opacity="0.4" d="M800.275 374.622C800.103 373.401 800.953 372.272 802.174 372.1L927.436 354.458L931.898 386.142L806.636 403.784C805.415 403.956 804.286 403.105 804.114 401.885L800.275 374.622Z" fill="#109B67"/>
<rect x="926.699" y="354.562" width="1.48821" height="31.9966" transform="rotate(-8.01669 926.699 354.562)" fill="white"/>
<rect x="335.647" y="320.113" width="160.34" height="35.8655" transform="rotate(-8.01669 335.647 320.113)" fill="#858CDD"/>
<text transform="translate(397.437 405.865) rotate(-8.01669)" fill="black" xml:space="preserve" style="white-space: pre" font-family="Ubuntu" font-size="11.2519" letter-spacing="0em"><tspan x="0" y="10.6801">My Hub</tspan></text>
<text transform="translate(410.207 486.448) rotate(-8.01669)" fill="black" xml:space="preserve" style="white-space: pre" font-family="Ubuntu" font-size="11.2519" letter-spacing="0em"><tspan x="0" y="10.6801">Community</tspan></text>
<g clip-path="url(#clip7)">
<path d="M397.268 497.905C397.427 497.395 397.47 496.866 397.394 496.331C397.125 494.421 395.389 493.07 393.478 493.246C392.833 491.765 391.277 490.888 389.669 491.115C387.689 491.393 386.304 493.222 386.581 495.191C386.657 495.726 386.844 496.222 387.138 496.668L387.039 498.394C387.026 498.614 387.241 498.776 387.449 498.703L389.1 498.128C389.554 498.27 390.023 498.319 390.498 498.275C391.394 500.333 393.934 501.07 395.785 499.85C397.697 499.956 397.548 499.95 397.591 499.944C397.785 499.917 397.904 499.719 397.84 499.536L397.268 497.905ZM389.198 497.51C389.133 497.487 389.061 497.487 388.996 497.51L387.682 497.968L387.761 496.599C387.765 496.529 387.745 496.461 387.705 496.404C387.432 496.015 387.26 495.578 387.193 495.104C386.964 493.473 388.113 491.958 389.755 491.727C391.039 491.546 392.287 492.221 392.85 493.359C391.013 493.862 389.841 495.749 390.296 497.67C389.922 497.686 389.555 497.633 389.198 497.51ZM396.65 498.01L397.104 499.304L395.715 499.227C395.645 499.223 395.577 499.243 395.52 499.283C395.131 499.556 394.694 499.728 394.221 499.795C392.589 500.024 391.075 498.884 390.846 497.253C390.616 495.622 391.756 494.108 393.387 493.878C395.03 493.647 396.553 494.786 396.782 496.417C396.849 496.891 396.804 497.358 396.649 497.807C396.627 497.873 396.627 497.945 396.65 498.01Z" fill="#7D7E8C"/>
</g>
<path d="M380.652 414.278L380.099 410.352L380.711 410.266L380.625 409.653L376.341 410.257L376.427 410.869L377.039 410.783L377.592 414.709L375.237 419.61C375.088 419.918 375.122 420.282 375.324 420.558C375.526 420.835 375.862 420.977 376.201 420.929L383.707 419.872C384.046 419.824 384.33 419.595 384.448 419.273C384.566 418.952 384.498 418.593 384.27 418.337L380.652 414.278ZM378.23 414.808L377.651 410.697L379.487 410.438L380.066 414.55L381.019 415.619C380.862 415.611 380.696 415.615 380.532 415.638C379.855 415.733 379.244 416.15 379.218 416.168C379.077 416.266 378.613 416.532 378.17 416.595C377.896 416.633 377.606 416.6 377.389 416.559L378.23 414.808ZM383.868 419.061C383.849 419.113 383.786 419.237 383.621 419.26L376.115 420.317C375.95 420.341 375.856 420.239 375.823 420.194C375.79 420.149 375.721 420.028 375.794 419.877L377.113 417.133C377.384 417.196 377.825 417.268 378.256 417.207C378.933 417.112 379.544 416.695 379.569 416.677C379.711 416.579 380.175 416.312 380.618 416.25C381.037 416.191 381.494 416.3 381.67 416.349L383.808 418.749C383.92 418.873 383.887 419.008 383.868 419.061Z" fill="#7D7E8C"/>
<path d="M380.441 417.211L381.053 417.125L381.14 417.737L380.528 417.823L380.441 417.211Z" fill="#7D7E8C"/>
<path d="M379.39 418.608L380.002 418.521L380.088 419.134L379.476 419.22L379.39 418.608Z" fill="#7D7E8C"/>
<path d="M378.079 418.168L378.691 418.082L378.778 418.694L378.166 418.78L378.079 418.168Z" fill="#7D7E8C"/>
<path d="M378.873 414.936L379.485 414.849L379.571 415.461L378.959 415.548L378.873 414.936Z" fill="#7D7E8C"/>
<text transform="translate(403.125 446.255) rotate(-8.01669)" fill="black" xml:space="preserve" style="white-space: pre" font-family="Ubuntu" font-size="11.2519" letter-spacing="0em"><tspan x="0" y="10.6801">Settings</tspan></text>
<g clip-path="url(#clip8)">
<path d="M389.386 451.771L385.829 452.272C385.779 452.19 385.713 452.115 385.631 452.054L384.99 451.571C384.823 451.445 384.617 451.392 384.411 451.421C384.204 451.45 384.021 451.558 383.895 451.725L383.412 452.367C383.351 452.448 383.308 452.538 383.282 452.631L379.553 453.156C379.384 453.18 379.266 453.336 379.29 453.505C379.314 453.675 379.47 453.792 379.64 453.769L383.369 453.243C383.419 453.326 383.485 453.4 383.566 453.462L384.208 453.945C384.375 454.07 384.58 454.123 384.787 454.094C384.994 454.065 385.177 453.957 385.303 453.79L385.786 453.149C385.847 453.067 385.89 452.978 385.915 452.885L389.472 452.384C389.642 452.36 389.759 452.203 389.736 452.034C389.712 451.865 389.555 451.747 389.386 451.771ZM385.292 452.777L384.808 453.418C384.782 453.453 384.744 453.476 384.701 453.482C384.658 453.488 384.615 453.477 384.58 453.45L383.938 452.967C383.867 452.913 383.852 452.811 383.906 452.739L384.389 452.097C384.416 452.063 384.454 452.04 384.497 452.034C384.54 452.028 384.583 452.039 384.618 452.065L385.259 452.548C385.331 452.602 385.346 452.705 385.292 452.777Z" fill="#7D7E8C"/>
<path d="M389.786 454.609L383.811 455.451C383.76 455.367 383.693 455.294 383.613 455.233L382.971 454.75C382.804 454.624 382.599 454.571 382.392 454.6C382.185 454.629 382.002 454.737 381.876 454.904L381.393 455.546C381.332 455.627 381.289 455.717 381.264 455.81L379.953 455.994C379.784 456.018 379.666 456.175 379.69 456.344C379.714 456.513 379.87 456.631 380.039 456.607L381.35 456.422C381.4 456.505 381.466 456.579 381.547 456.64L382.189 457.124C382.356 457.249 382.561 457.302 382.768 457.273C382.975 457.244 383.158 457.136 383.284 456.969L383.767 456.328C383.827 456.247 383.871 456.158 383.897 456.064L389.872 455.222C390.041 455.198 390.159 455.042 390.135 454.873C390.111 454.704 389.955 454.586 389.786 454.609ZM383.273 455.956L382.79 456.597C382.763 456.632 382.725 456.654 382.682 456.661C382.639 456.667 382.596 456.656 382.561 456.629L381.92 456.146C381.848 456.092 381.833 455.99 381.887 455.918L382.371 455.276C382.397 455.241 382.435 455.219 382.478 455.213C382.521 455.207 382.564 455.218 382.599 455.244L383.24 455.727C383.275 455.753 383.298 455.792 383.304 455.835C383.31 455.878 383.299 455.921 383.273 455.956Z" fill="#7D7E8C"/>
<path d="M390.174 457.367L388.659 457.58C388.609 457.498 388.543 457.423 388.462 457.362L387.82 456.879C387.653 456.753 387.448 456.7 387.241 456.729C387.034 456.758 386.851 456.866 386.725 457.033L386.242 457.674C386.181 457.756 386.138 457.846 386.113 457.939L380.341 458.751C380.172 458.775 380.054 458.932 380.078 459.101C380.102 459.27 380.258 459.388 380.428 459.364L386.199 458.551C386.249 458.634 386.315 458.708 386.397 458.769L387.038 459.252C387.205 459.378 387.411 459.431 387.617 459.402C387.824 459.373 388.007 459.265 388.133 459.098L388.616 458.457C388.677 458.375 388.72 458.286 388.746 458.193L390.261 457.979C390.43 457.955 390.548 457.799 390.524 457.63C390.5 457.461 390.343 457.343 390.174 457.367ZM388.122 458.085L387.639 458.726C387.612 458.761 387.574 458.783 387.531 458.789C387.488 458.796 387.445 458.784 387.41 458.758L386.769 458.275C386.697 458.221 386.682 458.118 386.736 458.047L387.22 457.405C387.246 457.37 387.284 457.348 387.327 457.342C387.37 457.336 387.413 457.347 387.448 457.373L388.09 457.856C388.161 457.91 388.176 458.013 388.122 458.085Z" fill="#7D7E8C"/>
</g>
<text transform="translate(391.749 365.476) rotate(-8.01669)" fill="black" xml:space="preserve" style="white-space: pre" font-family="Ubuntu" font-size="11.2519" letter-spacing="0em"><tspan x="0" y="10.6801">Workflows</tspan></text>
<circle cx="369.656" cy="372.493" r="1.75811" transform="rotate(-8.01669 369.656 372.493)" fill="#7D7E8C"/>
<circle cx="377.601" cy="378.476" r="1.75811" transform="rotate(-8.01669 377.601 378.476)" fill="#7D7E8C"/>
<rect x="368.651" y="377.961" width="3.51622" height="3.51622" transform="rotate(-8.01669 368.651 377.961)" fill="#7D7E8C"/>
<rect x="374.928" y="372.106" width="2.81298" height="2.81298" transform="rotate(-53.0167 374.928 372.106)" fill="#7D7E8C"/>
<text transform="translate(386.06 325.086) rotate(-8.01669)" fill="white" xml:space="preserve" style="white-space: pre" font-family="Ubuntu" font-size="11.2519" letter-spacing="0em"><tspan x="0" y="10.6801">Home</tspan></text>
<g clip-path="url(#clip9)">
<path d="M372.918 333.415L372.067 332.774L367.386 329.248C367.219 329.123 366.983 329.156 366.858 329.323L363.332 334.004L362.691 334.856C362.569 335.024 362.606 335.26 362.775 335.382C362.939 335.501 363.168 335.469 363.293 335.309L363.386 335.184L364.048 339.879C364.077 340.085 364.267 340.229 364.473 340.2L372.681 339.044C372.887 339.015 373.03 338.824 373.001 338.618L372.34 333.923L372.465 334.017C372.633 334.139 372.869 334.102 372.991 333.933C373.11 333.769 373.078 333.54 372.918 333.415ZM369.591 338.718L367.353 339.033L366.932 336.049L369.171 335.733L369.591 338.718ZM372.203 338.35L370.337 338.613L369.865 335.255C369.836 335.049 369.645 334.906 369.439 334.935L366.454 335.355C366.248 335.384 366.105 335.575 366.134 335.781L366.607 339.138L364.741 339.401L364.027 334.333L367.233 330.076L371.489 333.282L372.203 338.35Z" fill="white"/>
</g>
<rect x="386.191" y="327.639" width="61" height="9" transform="rotate(-8.01669 386.191 327.639)" fill="#B8BAE1"/>
<path d="M1104.13 140.686L1164.54 132.179L1165.79 141.091L1105.39 149.598L1104.13 140.686Z" fill="#B8BAE1"/>
<rect x="391.769" y="367.248" width="60" height="10" transform="rotate(-8.01669 391.769 367.248)" fill="#EBEBEB"/>
<rect x="1119.31" y="549.566" width="143" height="11" transform="rotate(-8.01669 1119.31 549.566)" fill="#EBEBEB"/>
<rect x="1122.09" y="569.371" width="143" height="11" transform="rotate(-8.01669 1122.09 569.371)" fill="#EBEBEB"/>
<rect x="1104.4" y="651.643" width="62" height="11" transform="rotate(-8.01669 1104.4 651.643)" fill="#EBEBEB"/>
<rect x="1139.97" y="681.978" width="110" height="11" transform="rotate(-8.01669 1139.97 681.978)" fill="#EBEBEB"/>
<rect x="1145.41" y="720.597" width="110" height="11" transform="rotate(-8.01669 1145.41 720.597)" fill="#EBEBEB"/>
<rect x="1151.27" y="762.186" width="110" height="11" transform="rotate(-8.01669 1151.27 762.186)" fill="#EBEBEB"/>
<rect x="1156.99" y="802.786" width="110" height="11" transform="rotate(-8.01669 1156.99 802.786)" fill="#EBEBEB"/>
<rect x="1126.84" y="603.039" width="143" height="11" transform="rotate(-8.01669 1126.84 603.039)" fill="#EBEBEB"/>
<rect x="1124.47" y="586.205" width="143" height="11" transform="rotate(-8.01669 1124.47 586.205)" fill="#B8BAE1"/>
<rect x="1224.1" y="476.235" width="36" height="11" transform="rotate(-8.01669 1224.1 476.235)" fill="#B8BAE1"/>
<rect x="1089.81" y="591.086" width="24" height="11" transform="rotate(-8.01669 1089.81 591.086)" fill="#EBEBEB"/>
<rect x="1087.44" y="574.252" width="24" height="11" transform="rotate(-8.01669 1087.44 574.252)" fill="#EBEBEB"/>
<rect x="1084.65" y="554.448" width="24" height="11" transform="rotate(-8.01669 1084.65 554.448)" fill="#EBEBEB"/>
<rect x="1106.23" y="155.54" width="82" height="10" transform="rotate(-8.01669 1106.23 155.54)" fill="#EBEBEB"/>
<rect x="528.087" y="230.905" width="60" height="10" transform="rotate(-8.01669 528.087 230.905)" fill="#EBEBEB"/>
<rect x="397.348" y="406.857" width="60" height="12" transform="rotate(-8.01669 397.348 406.857)" fill="#EBEBEB"/>
<rect x="403.066" y="447.456" width="60" height="12" transform="rotate(-8.01669 403.066 447.456)" fill="#EBEBEB"/>
<rect x="408.784" y="488.056" width="60" height="12" transform="rotate(-8.01669 408.784 488.056)" fill="#EBEBEB"/>
<g filter="url(#filter2_d)">
<rect x="461.378" y="352.395" width="267.979" height="192.01" rx="2.50448" transform="rotate(-8.01669 461.378 352.395)" fill="white"/>
<rect x="461.849" y="352.75" width="267.144" height="191.175" rx="2.08706" transform="rotate(-8.01669 461.849 352.75)" stroke="black" stroke-opacity="0.05" stroke-width="0.834825"/>
<text transform="translate(689.375 402.905) rotate(-8.01669)" fill="black" fill-opacity="0.2" xml:space="preserve" style="white-space: pre" font-family="Ubuntu" font-size="10.0179" letter-spacing="0em"><tspan x="0" y="10.2217">24</tspan></text>
<text transform="translate(498.355 375.509) rotate(-8.01669)" fill="black" fill-opacity="0.9" xml:space="preserve" style="white-space: pre" font-family="Ubuntu" font-size="13.3572" font-weight="500" letter-spacing="0em"><tspan x="0" y="12.4622">Number of total Workflows</tspan></text>
<circle cx="523.802" cy="427.488" r="17.9487" transform="rotate(-8.01669 523.802 427.488)" fill="#858CDD"/>
<circle cx="519.087" cy="423.937" r="2.08706" transform="rotate(-8.01669 519.087 423.937)" fill="white"/>
<circle cx="528.518" cy="431.04" r="2.08706" transform="rotate(-8.01669 528.518 431.04)" fill="white"/>
<rect x="517.893" y="430.428" width="4.17413" height="4.17413" transform="rotate(-8.01669 517.893 430.428)" fill="white"/>
<rect x="525.345" y="423.477" width="3.3393" height="3.3393" transform="rotate(-53.0167 525.345 423.477)" fill="white"/>
<rect x="519.197" y="427.715" width="0.834825" height="1.66965" transform="rotate(-8.01669 519.197 427.715)" fill="white"/>
<rect x="522.51" y="424.298" width="0.834825" height="1.66965" transform="rotate(-98.0167 522.51 424.298)" fill="white"/>
<rect x="527.464" y="426.551" width="0.834825" height="1.66965" transform="rotate(-8.01669 527.464 426.551)" fill="white"/>
<rect x="561.042" y="443.479" width="144.425" height="1.66965" rx="0.834825" transform="rotate(-8.01669 561.042 443.479)" fill="#EBEBEB"/>
<rect x="559.06" y="443.634" width="49.8584" height="1.67382" rx="0.834825" transform="rotate(-8.01669 559.06 443.634)" fill="#B8BAE1"/>
</g>
<circle cx="367.509" cy="334.814" r="7.5" transform="rotate(-8.01669 367.509 334.814)" fill="#B8BAE1"/>
<circle cx="1003.67" cy="169.479" r="10.5" transform="rotate(-8.01669 1003.67 169.479)" fill="#EBEBEB"/>
<circle cx="373.227" cy="375.414" r="7.5" transform="rotate(-8.01669 373.227 375.414)" fill="#EBEBEB"/>
<circle cx="1076.67" cy="157.178" r="16.5" transform="rotate(-8.01669 1076.67 157.178)" fill="#EBEBEB"/>
<circle cx="378.805" cy="415.023" r="7.5" transform="rotate(-8.01669 378.805 415.023)" fill="#EBEBEB"/>
<circle cx="384.523" cy="455.622" r="7.5" transform="rotate(-8.01669 384.523 455.622)" fill="#EBEBEB"/>
<circle cx="391.231" cy="496.082" r="7.5" transform="rotate(-8.01669 391.231 496.082)" fill="#EBEBEB"/>
<rect x="512.06" y="473.461" width="135" height="16" transform="rotate(-8.01669 512.06 473.461)" fill="#EBEBEB"/>
<rect x="516.941" y="503.119" width="202" height="10" transform="rotate(-8.01669 516.941 503.119)" fill="#EBEBEB"/>
<rect x="810.634" y="451.657" width="144" height="8" transform="rotate(-8.01669 810.634 451.657)" fill="#EBEBEB"/>
<rect x="1064.13" y="415.955" width="91" height="9" transform="rotate(-8.01669 1064.13 415.955)" fill="#EBEBEB"/>
<rect x="553.622" y="405.045" width="114" height="8" transform="rotate(-8.01669 553.622 405.045)" fill="#B8BAE1"/>
<rect x="556.272" y="423.859" width="50" height="8" transform="rotate(-8.01669 556.272 423.859)" fill="#EBEBEB"/>
<rect x="689.953" y="405.032" width="11" height="8" transform="rotate(-8.01669 689.953 405.032)" fill="#EBEBEB"/>
</g>
</g>
<g filter="url(#filter3_d)">
<rect x="511" y="656.361" width="526.041" height="322.994" rx="2.3519" transform="rotate(-8.01669 511 656.361)" fill="white"/>
<rect x="511.443" y="656.694" width="525.257" height="322.21" rx="1.95991" transform="rotate(-8.01669 511.443 656.694)" stroke="black" stroke-opacity="0.05" stroke-width="0.783965"/>
<rect x="549.268" y="703.223" width="135.626" height="1.56793" rx="0.783965" transform="rotate(-8.01669 549.268 703.223)" fill="#EBEBEB"/>
<rect x="549.268" y="703.223" width="79.9645" height="1.56793" rx="0.783965" transform="rotate(-8.01669 549.268 703.223)" fill="#B8BAE1"/>
<rect x="714.621" y="679.935" width="135.626" height="1.56793" rx="0.783965" transform="rotate(-8.01669 714.621 679.935)" fill="#EBEBEB"/>
<rect x="714.621" y="679.935" width="29.7907" height="1.56793" rx="0.783965" transform="rotate(-8.01669 714.621 679.935)" fill="#B8BAE1"/>
<rect x="-0.166743" y="0.221409" width="0.391983" height="189.328" transform="matrix(-0.990227 0.139462 0.139462 0.990227 553.726 731.863)" stroke="black" stroke-opacity="0.05" stroke-width="0.391983"/>
<rect x="-0.166743" y="0.221409" width="0.391983" height="189.328" transform="matrix(-0.990227 0.139462 0.139462 0.990227 609.621 723.991)" stroke="black" stroke-opacity="0.05" stroke-width="0.391983"/>
<rect x="-0.166743" y="0.221409" width="0.391983" height="189.328" transform="matrix(-0.990227 0.139462 0.139462 0.990227 781.96 699.719)" stroke="black" stroke-opacity="0.05" stroke-width="0.391983"/>
<rect x="-0.166743" y="0.221409" width="0.391983" height="189.328" transform="matrix(-0.990227 0.139462 0.139462 0.990227 954.299 675.447)" stroke="black" stroke-opacity="0.05" stroke-width="0.391983"/>
<rect x="-0.166743" y="0.221409" width="0.391983" height="189.328" transform="matrix(-0.990227 0.139462 0.139462 0.990227 667.067 715.9)" stroke="black" stroke-opacity="0.05" stroke-width="0.391983"/>
<rect x="-0.166743" y="0.221409" width="0.391983" height="189.328" transform="matrix(-0.990227 0.139462 0.139462 0.990227 839.407 691.628)" stroke="black" stroke-opacity="0.05" stroke-width="0.391983"/>
<rect x="-0.166743" y="0.221409" width="0.391983" height="189.328" transform="matrix(-0.990227 0.139462 0.139462 0.990227 1011.75 667.356)" stroke="black" stroke-opacity="0.05" stroke-width="0.391983"/>
<rect x="-0.166743" y="0.221409" width="0.391983" height="189.328" transform="matrix(-0.990227 0.139462 0.139462 0.990227 724.514 707.81)" stroke="black" stroke-opacity="0.05" stroke-width="0.391983"/>
<rect x="-0.166743" y="0.221409" width="0.391983" height="189.328" transform="matrix(-0.990227 0.139462 0.139462 0.990227 896.853 683.538)" stroke="black" stroke-opacity="0.05" stroke-width="0.391983"/>
<rect x="896.705" y="626.915" width="108.31" height="27.5611" rx="1.23711" transform="rotate(-8.01669 896.705 626.915)" stroke="black" stroke-opacity="0.1" stroke-width="2.22957"/>
<rect x="664.554" y="712.321" width="3.91983" height="0.783965" transform="rotate(-8.01669 664.554 712.321)" fill="black" fill-opacity="0.2"/>
<rect x="666.653" y="715.984" width="3.13586" height="0.783965" transform="rotate(-98.0167 666.653 715.984)" fill="black" fill-opacity="0.2"/>
<rect x="836.894" y="688.049" width="3.91983" height="0.783965" transform="rotate(-8.01669 836.894 688.049)" fill="black" fill-opacity="0.2"/>
<rect x="838.993" y="691.712" width="3.13586" height="0.783965" transform="rotate(-98.0167 838.993 691.712)" fill="black" fill-opacity="0.2"/>
<rect x="951.787" y="671.868" width="3.91983" height="0.783965" transform="rotate(-8.01669 951.787 671.868)" fill="black" fill-opacity="0.2"/>
<rect x="953.886" y="675.531" width="3.13586" height="0.783965" transform="rotate(-98.0167 953.886 675.531)" fill="black" fill-opacity="0.2"/>
<rect x="722.11" y="705.007" width="3.91983" height="0.783965" transform="rotate(-8.01669 722.11 705.007)" fill="black" fill-opacity="0.2"/>
<rect x="724.209" y="708.67" width="3.13586" height="0.783965" transform="rotate(-98.0167 724.209 708.67)" fill="black" fill-opacity="0.2"/>
<rect x="894.34" y="679.958" width="3.91983" height="0.783965" transform="rotate(-8.01669 894.34 679.958)" fill="black" fill-opacity="0.2"/>
<rect x="896.439" y="683.621" width="3.13586" height="0.783965" transform="rotate(-98.0167 896.439 683.621)" fill="black" fill-opacity="0.2"/>
<rect x="1007.68" y="663.996" width="3.91983" height="0.783965" transform="rotate(-8.01669 1007.68 663.996)" fill="black" fill-opacity="0.2"/>
<rect x="1011.33" y="667.44" width="3.13586" height="0.783965" transform="rotate(-98.0167 1011.33 667.44)" fill="black" fill-opacity="0.2"/>
<rect x="607.108" y="720.412" width="3.91983" height="0.783965" transform="rotate(-8.01669 607.108 720.412)" fill="black" fill-opacity="0.2"/>
<rect x="609.208" y="724.075" width="3.13586" height="0.783965" transform="rotate(-98.0167 609.208 724.075)" fill="black" fill-opacity="0.2"/>
<rect x="779.447" y="696.14" width="3.91983" height="0.783965" transform="rotate(-8.01669 779.447 696.14)" fill="black" fill-opacity="0.2"/>
<rect x="781.547" y="699.802" width="3.13586" height="0.783965" transform="rotate(-98.0167 781.547 699.802)" fill="black" fill-opacity="0.2"/>
<rect width="3.91983" height="0.783965" transform="matrix(-0.990227 0.139462 0.139462 0.990227 556.648 727.518)" fill="black" fill-opacity="0.2"/>
<rect width="3.13586" height="0.783965" transform="matrix(-0.139461 -0.990227 -0.990227 0.139461 554.089 731.837)" fill="black" fill-opacity="0.2"/>
<rect width="3.91983" height="0.783965" transform="matrix(0.990227 -0.139462 -0.139462 -0.990227 691.669 904.844)" fill="black" fill-opacity="0.2"/>
<rect width="3.13586" height="0.783965" transform="matrix(0.139461 0.990227 0.990227 -0.139461 692.675 900.744)" fill="black" fill-opacity="0.2"/>
<rect width="3.91983" height="0.783965" transform="matrix(0.990227 -0.139462 -0.139462 -0.990227 864.009 880.573)" fill="black" fill-opacity="0.2"/>
<rect width="3.13586" height="0.783965" transform="matrix(0.139461 0.990227 0.990227 -0.139461 865.015 876.472)" fill="black" fill-opacity="0.2"/>
<rect width="3.91983" height="0.783965" transform="matrix(0.990227 -0.139462 -0.139462 -0.990227 978.902 864.391)" fill="black" fill-opacity="0.2"/>
<rect width="3.13586" height="0.783965" transform="matrix(0.139461 0.990227 0.990227 -0.139461 979.908 860.291)" fill="black" fill-opacity="0.2"/>
<rect width="3.91983" height="0.783965" transform="matrix(0.990227 -0.139462 -0.139462 -0.990227 749.006 895.978)" fill="black" fill-opacity="0.2"/>
<rect width="3.13586" height="0.783965" transform="matrix(0.139461 0.990227 0.990227 -0.139461 750.012 891.877)" fill="black" fill-opacity="0.2"/>
<rect width="3.91983" height="0.783965" transform="matrix(0.990227 -0.139462 -0.139462 -0.990227 921.455 872.482)" fill="black" fill-opacity="0.2"/>
<rect width="3.13586" height="0.783965" transform="matrix(0.139461 0.990227 0.990227 -0.139461 922.461 868.382)" fill="black" fill-opacity="0.2"/>
<rect width="3.91983" height="0.783965" transform="matrix(0.990227 -0.139462 -0.139462 -0.990227 1034.8 856.519)" fill="black" fill-opacity="0.2"/>
<rect width="3.13586" height="0.783965" transform="matrix(0.139461 0.990227 0.990227 -0.139461 1037.35 852.2)" fill="black" fill-opacity="0.2"/>
<rect width="3.91983" height="0.783965" transform="matrix(0.990227 -0.139462 -0.139462 -0.990227 634.223 912.935)" fill="black" fill-opacity="0.2"/>
<rect width="3.13586" height="0.783965" transform="matrix(0.139461 0.990227 0.990227 -0.139461 635.229 908.835)" fill="black" fill-opacity="0.2"/>
<rect x="1032.99" y="815.604" width="3.91983" height="0.783965" transform="rotate(81.9833 1032.99 815.604)" fill="black" fill-opacity="0.2"/>
<rect x="1029.33" y="817.704" width="3.13586" height="0.783965" transform="rotate(-8.01669 1029.33 817.704)" fill="black" fill-opacity="0.2"/>
<rect x="1027.85" y="779.118" width="3.91983" height="0.783965" transform="rotate(81.9833 1027.85 779.118)" fill="black" fill-opacity="0.2"/>
<rect x="1024.19" y="781.218" width="3.13586" height="0.783965" transform="rotate(-8.01669 1024.19 781.218)" fill="black" fill-opacity="0.2"/>
<rect x="1022.71" y="742.632" width="3.91983" height="0.783965" transform="rotate(81.9833 1022.71 742.632)" fill="black" fill-opacity="0.2"/>
<rect x="1019.05" y="744.732" width="3.13586" height="0.783965" transform="rotate(-8.01669 1019.05 744.732)" fill="black" fill-opacity="0.2"/>
<rect x="1017.58" y="706.146" width="3.91983" height="0.783965" transform="rotate(81.9833 1017.58 706.146)" fill="black" fill-opacity="0.2"/>
<rect x="1013.91" y="708.245" width="3.13586" height="0.783965" transform="rotate(-8.01669 1013.91 708.245)" fill="black" fill-opacity="0.2"/>
<rect width="3.91983" height="0.783965" transform="matrix(0.139461 0.990227 0.990227 -0.139461 574.196 880.22)" fill="black" fill-opacity="0.2"/>
<rect width="3.13586" height="0.783965" transform="matrix(-0.990227 0.139461 0.139461 0.990227 578.296 881.227)" fill="black" fill-opacity="0.2"/>
<rect width="3.91983" height="0.783965" transform="matrix(0.139461 0.990227 0.990227 -0.139461 569.058 843.734)" fill="black" fill-opacity="0.2"/>
<rect width="3.13586" height="0.783965" transform="matrix(-0.990227 0.139461 0.139461 0.990227 573.158 844.74)" fill="black" fill-opacity="0.2"/>
<rect width="3.91983" height="0.783965" transform="matrix(0.139461 0.990227 0.990227 -0.139461 563.919 807.248)" fill="black" fill-opacity="0.2"/>
<rect width="3.13586" height="0.783965" transform="matrix(-0.990227 0.139461 0.139461 0.990227 568.02 808.254)" fill="black" fill-opacity="0.2"/>
<rect width="3.91983" height="0.783965" transform="matrix(0.139461 0.990227 0.990227 -0.139461 558.78 770.762)" fill="black" fill-opacity="0.2"/>
<rect width="3.13586" height="0.783965" transform="matrix(-0.990227 0.139461 0.139461 0.990227 562.88 771.768)" fill="black" fill-opacity="0.2"/>
<rect width="3.91983" height="0.783965" transform="matrix(0.990227 -0.139462 -0.139462 -0.990227 806.562 888.663)" fill="black" fill-opacity="0.2"/>
<rect width="3.13586" height="0.783965" transform="matrix(0.139461 0.990227 0.990227 -0.139461 807.568 884.563)" fill="black" fill-opacity="0.2"/>
<rect x="582.21" y="920.26" width="3.91983" height="0.783965" transform="rotate(171.983 582.21 920.26)" fill="black" fill-opacity="0.2"/>
<rect x="578.558" y="916.816" width="3.13586" height="0.783965" transform="rotate(81.9833 578.558 916.816)" fill="black" fill-opacity="0.2"/>
<rect x="555.096" y="727.737" width="457.052" height="0.783965" transform="rotate(-8.01669 555.096 727.737)" fill="black" fill-opacity="0.05"/>
<rect x="566.466" y="808.473" width="457.052" height="0.783965" transform="rotate(-8.01669 566.466 808.473)" fill="black" fill-opacity="0.05"/>
<rect x="561.328" y="771.986" width="457.052" height="0.783965" transform="rotate(-8.01669 561.328 771.986)" fill="black" fill-opacity="0.05"/>
<rect x="571.604" y="844.959" width="457.052" height="0.783965" transform="rotate(-8.01669 571.604 844.959)" fill="black" fill-opacity="0.05"/>
<rect x="576.744" y="881.445" width="457.052" height="0.783965" transform="rotate(-8.01669 576.744 881.445)" fill="black" fill-opacity="0.05"/>
<path d="M576.94 894.085C632.058 886.322 630.199 807.423 708.449 803.879C729.233 802.937 748.498 799.546 766.416 794.735C832.82 776.903 880.718 739.563 918.851 735.113C967.272 729.461 958.216 756.862 1022.65 747.787" stroke="#109B67" stroke-width="2.3519"/>
<path d="M560.442 776.945C601.198 771.205 614.573 800.651 683.311 777.046C769.233 747.54 823.285 722.522 861.201 734.587C899.117 746.652 908.339 792.347 949.555 788.283C990.771 784.219 1001.51 775.704 1026.09 772.241" stroke="#F6B92B" stroke-width="2.3519"/>
<path d="M567.975 830.427C616.106 823.649 630.026 796.966 759.886 780.076C922.21 758.964 978.241 693.872 1014.34 688.788" stroke="#CA2C2C" stroke-width="2.3519"/>
<path d="M561.557 796.101C603.866 790.142 671.826 847.156 744.967 836.855C912.218 813.3 815.5 866.028 1034.95 835.122" stroke="#858CDD" stroke-width="2.3519"/>
<rect x="545.51" y="679.48" width="62.4279" height="12.2626" transform="rotate(-8.01669 545.51 679.48)" fill="#EBEBEB"/>
<rect x="711.094" y="656.16" width="62.4279" height="12.2626" transform="rotate(-8.01669 711.094 656.16)" fill="#EBEBEB"/>
<rect x="639.341" y="666.266" width="41.247" height="12.2626" transform="rotate(-8.01669 639.341 666.266)" fill="#EBEBEB"/>
<rect x="804.924" y="642.945" width="41.247" height="12.2626" transform="rotate(-8.01669 804.924 642.945)" fill="#EBEBEB"/>
</g>
<g filter="url(#filter4_d)">
<rect x="326.887" y="637.941" width="105" height="103" rx="2.14549" transform="rotate(-8.01669 326.887 637.941)" fill="white"/>
<rect x="327.291" y="638.245" width="104.285" height="102.285" rx="1.78791" transform="rotate(-8.01669 327.291 638.245)" stroke="black" stroke-opacity="0.05" stroke-width="0.715163"/>
<path d="M401.878 654.576C401.024 653.682 399.813 653.214 398.571 653.174L373.863 653.454C373.21 653.45 372.59 653.677 372.068 653.937C371.546 654.198 370.959 654.49 370.503 654.883L355.448 674.517C354.7 675.468 354.411 676.684 354.71 677.937L360.656 702.109C361.02 703.33 361.842 704.323 362.955 704.922L385.319 715.296C386.497 715.698 387.87 715.674 389.012 715.187L410.932 704.253C412.172 703.8 413.018 702.718 413.241 701.37L418.408 677.264C418.599 676.014 418.3 674.761 417.609 673.703L401.878 654.576Z" fill="#326DE6"/>
<path d="M409.993 676.51C409.927 676.543 409.862 676.576 409.829 676.51C409.796 676.445 409.664 676.51 409.533 676.576C409.237 676.641 408.974 676.773 408.711 676.904C408.579 676.97 408.448 677.035 408.284 677.035L408.218 677.068C407.461 677.363 406.607 677.626 405.785 677.79C405.555 677.822 405.259 677.724 405.095 677.56C405.161 677.527 405.095 677.56 405.095 677.56L404.504 677.691C403.817 675.656 402.703 673.752 401.359 672.046C399.949 670.372 398.243 668.927 396.372 667.811L396.571 667.22L396.538 667.155C396.44 666.958 396.375 666.662 396.441 666.466C396.771 665.645 397.166 664.956 397.627 664.234C397.726 664.103 397.825 663.972 397.924 663.84C398.122 663.578 398.253 663.348 398.451 663.086C398.484 662.987 398.55 662.954 398.583 662.856C398.616 662.757 398.55 662.79 398.517 662.725C398.88 661.97 398.619 661.117 397.864 660.755C397.535 660.591 397.043 660.591 396.714 660.755C396.385 660.919 396.121 661.215 395.957 661.543L395.923 661.641C395.89 661.74 395.857 661.838 395.792 661.871C395.693 662.166 395.593 662.462 395.56 662.724C395.56 662.888 395.461 663.019 395.428 663.118C395.229 663.873 394.899 664.693 394.504 665.382C394.405 665.513 394.306 665.645 394.175 665.71C394.109 665.743 393.977 665.809 393.879 665.776L393.813 665.809L393.451 666.399C392.662 666.137 391.809 665.907 391.02 665.644C387.637 664.954 384.022 665.282 380.767 666.496L380.439 666.003L380.472 666.069C380.209 666.036 380.045 665.872 379.881 665.708C379.521 664.986 379.161 664.264 378.9 663.41L378.867 663.345C378.802 663.213 378.802 663.049 378.736 662.918C378.671 662.623 378.54 662.36 378.475 662.065L378.279 661.671C378.017 660.982 377.163 660.588 376.473 660.85C376.045 660.981 375.749 661.375 375.584 661.867C375.452 662.261 375.484 662.655 375.648 662.983L375.811 663.311C375.942 663.574 376.139 663.804 376.336 664.033C376.467 664.132 376.532 664.263 376.598 664.395L376.631 664.46C377.122 665.117 377.483 665.839 377.875 666.626C377.908 666.856 377.94 667.086 377.808 667.316L377.874 667.447L378.07 668.005C377.379 668.431 376.721 668.923 375.997 669.448C373.233 671.647 371.224 674.699 370.199 678.079L369.673 678.013L369.608 678.046C369.542 678.079 369.509 678.177 369.377 678.243C369.246 678.308 369.081 678.308 368.917 678.308C368.096 678.144 367.242 677.914 366.52 677.619C366.388 677.52 366.224 677.52 366.126 677.487C365.83 677.389 365.6 677.257 365.305 677.159C365.206 677.126 365.14 677.159 365.042 677.126C364.943 677.093 364.943 677.093 364.943 677.093C364.582 677.028 364.188 677.06 363.859 677.224C363.464 677.421 363.201 677.716 363.167 678.143C363.067 678.931 363.592 679.653 364.347 679.85C364.413 679.817 364.446 679.883 364.446 679.883C364.446 679.883 364.643 679.948 364.708 679.916C364.971 679.948 365.3 679.949 365.628 679.949C365.793 679.949 365.957 679.949 366.121 679.949C366.975 680.014 367.83 680.08 368.618 680.343C368.815 680.409 369.077 680.606 369.11 680.835L369.077 680.77L369.668 680.967C369.668 681.131 369.635 681.229 369.634 681.393C369.2 685.627 370.244 689.861 372.702 693.307L372.241 693.701C372.274 693.766 372.208 693.799 372.208 693.799C372.24 694.029 372.109 694.259 371.977 694.488C371.351 695.046 370.693 695.538 369.937 695.998C369.805 696.063 369.674 696.129 369.575 696.26C369.312 696.391 369.082 696.588 368.818 696.719C368.753 696.752 368.72 696.851 368.588 696.916C368.522 696.949 368.522 696.949 368.489 697.047C367.831 697.54 367.698 698.426 368.19 699.082C368.616 699.607 369.405 699.706 369.964 699.345C370.095 699.279 370.161 699.247 370.26 699.115C370.326 699.083 370.326 699.083 370.293 699.017C370.26 698.951 370.49 698.918 370.556 698.886C370.786 698.689 370.984 698.426 371.149 698.262C371.247 698.131 371.346 698 371.478 697.934L371.544 697.901C372.136 697.278 372.696 696.753 373.419 696.228L373.485 696.195C373.683 696.097 373.913 696.064 374.11 696.13C374.175 696.097 374.208 696.162 374.208 696.162L374.767 695.801C377.26 698.329 380.444 700.102 383.992 700.791C384.813 700.956 385.535 701.087 386.357 701.087L386.257 701.711C386.29 701.776 386.356 701.744 386.356 701.744C386.585 701.875 386.716 702.137 386.749 702.367C386.813 703.155 386.746 704.008 386.646 704.796L386.679 704.861C386.678 705.026 386.645 705.124 386.579 705.321C386.513 705.518 386.513 705.846 386.446 706.207C386.413 706.305 386.446 706.371 386.413 706.469C386.413 706.469 386.446 706.535 386.38 706.568C386.378 707.388 387.034 708.045 387.79 708.078C387.954 708.078 388.185 708.045 388.316 707.979C388.842 707.717 389.139 707.159 389.173 706.568C389.173 706.568 389.14 706.503 389.206 706.47C389.173 706.404 389.206 706.306 389.239 706.207C389.174 705.912 389.207 705.649 389.142 705.354L389.077 704.895C388.914 704.074 388.916 703.254 388.917 702.433C388.951 702.171 389.083 701.941 389.247 701.777C389.313 701.744 389.313 701.744 389.28 701.678L389.281 701.022C391.483 700.826 393.554 700.202 395.528 699.218C396.712 698.628 397.83 697.906 398.85 696.987C399.508 696.495 400.101 695.872 400.661 695.347L401.153 695.675C401.219 695.642 401.219 695.642 401.251 695.708C401.481 695.675 401.744 695.708 401.974 695.839C402.63 696.331 403.287 696.824 403.844 697.447L403.877 697.513L404.205 697.841C404.401 698.071 404.598 698.301 404.828 698.432C404.926 698.465 404.959 698.531 405.058 698.563C405.058 698.563 405.09 698.629 405.156 698.596C405.649 698.925 406.273 699.023 406.799 698.761C406.996 698.662 407.095 698.531 407.26 698.367C407.457 698.104 407.589 697.711 407.491 697.35C407.394 696.989 407.23 696.66 406.935 696.398C406.902 696.332 406.836 696.365 406.836 696.365C406.803 696.299 406.705 696.266 406.606 696.234C406.344 696.037 406.114 695.905 405.818 695.807C405.687 695.708 405.589 695.676 405.392 695.61L405.326 695.479C404.571 695.117 403.915 694.625 403.324 694.1C403.16 693.936 403.029 693.673 403.063 693.411C403.03 693.345 403.096 693.312 403.096 693.312L402.636 692.885C404.976 689.177 405.97 684.747 405.287 680.415L405.846 680.218C405.912 680.185 405.879 680.12 405.879 680.12C405.945 679.923 406.11 679.759 406.307 679.66L406.373 679.627C407.162 679.398 407.984 679.234 408.773 679.168L408.838 679.136C409.003 679.136 409.167 679.136 409.298 679.07C409.627 679.07 409.89 679.103 410.186 679.037C410.251 679.005 410.35 679.037 410.482 678.972C410.547 678.939 410.547 678.939 410.646 678.972C410.81 678.972 410.876 678.939 411.007 678.873C411.599 678.578 411.929 677.922 411.865 677.298C411.439 676.609 410.651 676.346 409.993 676.51ZM389.969 683.957L388.619 685.696L386.417 685.728L385.007 684.054L385.471 681.855L387.445 680.871L389.48 681.823L389.969 683.957ZM398.562 674.342C399.579 675.557 400.332 676.902 400.888 678.347L393.755 679.691C393.098 679.855 392.474 679.428 392.311 678.772C392.279 678.542 392.279 678.378 392.345 678.181L395.052 671.257C396.365 672.077 397.546 673.128 398.562 674.342ZM391.867 669.812L388.373 676.31C388.043 676.802 387.353 677.064 386.795 676.769C386.598 676.703 386.466 676.605 386.368 676.408L382.667 669.975C385.725 668.859 388.912 668.827 391.867 669.812ZM378.292 672.403L379.477 671.484L382.422 678.212C382.717 678.803 382.42 679.525 381.828 679.82C381.63 679.919 381.466 679.919 381.236 679.951L373.845 678.801C374.737 676.307 376.252 674.076 378.292 672.403ZM373.149 682.182L380.177 684.086C380.834 684.25 381.227 684.874 381.062 685.53C381.028 685.793 380.93 685.924 380.699 686.121L375.236 691.141C373.663 688.483 372.913 685.332 373.149 682.182ZM377.564 693.833L383.519 689.469C384.045 689.207 384.735 689.272 385.063 689.765C385.227 689.929 385.358 690.191 385.324 690.454L385.837 697.74C382.782 697.378 379.794 695.999 377.564 693.833ZM396.555 694.525C395.732 695.182 394.877 695.772 393.89 696.264C392.509 696.953 390.931 697.412 389.419 697.675L389.728 690.225C389.86 689.667 390.321 689.273 390.912 689.306C391.175 689.339 391.372 689.405 391.668 689.503L397.673 693.639C397.312 693.902 396.95 694.164 396.555 694.525ZM401.731 684.812C401.53 686.879 400.836 688.947 399.749 690.719L394.106 685.828C393.712 685.368 393.714 684.712 394.076 684.286C394.24 684.121 394.405 683.957 394.602 683.859L401.736 681.694C401.866 682.777 401.897 683.827 401.731 684.812Z" fill="white"/>
</g>
<defs>
<filter id="filter0_d" x="0.849609" y="-530.44" width="1611.43" height="1520.11" filterUnits="userSpaceOnUse" color-interpolation-filters="sRGB">
<feFlood flood-opacity="0" result="BackgroundImageFix"/>
<feColorMatrix in="SourceAlpha" type="matrix" values="0 0 0 0 0 0 0 0 0 0 0 0 0 0 0 0 0 0 127 0"/>
<feOffset dx="-15" dy="25"/>
<feGaussianBlur stdDeviation="43.5"/>
<feColorMatrix type="matrix" values="0 0 0 0 0.415686 0 0 0 0 0.368627 0 0 0 0 0.780392 0 0 0 0.25 0"/>
<feBlend mode="normal" in2="BackgroundImageFix" result="effect1_dropShadow"/>
<feBlend mode="normal" in="SourceGraphic" in2="effect1_dropShadow" result="shape"/>
</filter>
<filter id="filter1_d" x="220.584" y="51.2307" width="1249.56" height="1015.03" filterUnits="userSpaceOnUse" color-interpolation-filters="sRGB">
<feFlood flood-opacity="0" result="BackgroundImageFix"/>
<feColorMatrix in="SourceAlpha" type="matrix" values="0 0 0 0 0 0 0 0 0 0 0 0 0 0 0 0 0 0 127 0"/>
<feOffset dx="-31" dy="30"/>
<feGaussianBlur stdDeviation="36"/>
<feColorMatrix type="matrix" values="0 0 0 0 0 0 0 0 0 0 0 0 0 0 0 0 0 0 0.1 0"/>
<feBlend mode="normal" in2="BackgroundImageFix" result="effect1_dropShadow"/>
<feBlend mode="normal" in="SourceGraphic" in2="effect1_dropShadow" result="shape"/>
</filter>
<filter id="filter2_d" x="351.703" y="249.347" width="467.489" height="402.857" filterUnits="userSpaceOnUse" color-interpolation-filters="sRGB">
<feFlood flood-opacity="0" result="BackgroundImageFix"/>
<feColorMatrix in="SourceAlpha" type="matrix" values="0 0 0 0 0 0 0 0 0 0 0 0 0 0 0 0 0 0 127 0"/>
<feOffset dx="-22" dy="22"/>
<feGaussianBlur stdDeviation="44"/>
<feColorMatrix type="matrix" values="0 0 0 0 0.683681 0 0 0 0 0.68872 0 0 0 0 0.745833 0 0 0 0.45 0"/>
<feBlend mode="normal" in2="BackgroundImageFix" result="effect1_dropShadow"/>
<feBlend mode="normal" in="SourceGraphic" in2="effect1_dropShadow" result="shape"/>
</filter>
<filter id="filter3_d" x="401.305" y="517.303" width="741.336" height="568.59" filterUnits="userSpaceOnUse" color-interpolation-filters="sRGB">
<feFlood flood-opacity="0" result="BackgroundImageFix"/>
<feColorMatrix in="SourceAlpha" type="matrix" values="0 0 0 0 0 0 0 0 0 0 0 0 0 0 0 0 0 0 127 0"/>
<feOffset dx="-22" dy="22"/>
<feGaussianBlur stdDeviation="44"/>
<feColorMatrix type="matrix" values="0 0 0 0 0.683681 0 0 0 0 0.68872 0 0 0 0 0.745833 0 0 0 0.45 0"/>
<feBlend mode="normal" in2="BackgroundImageFix" result="effect1_dropShadow"/>
<feBlend mode="normal" in="SourceGraphic" in2="effect1_dropShadow" result="shape"/>
</filter>
<filter id="filter4_d" x="270.165" y="607.575" width="191.782" height="190.081" filterUnits="userSpaceOnUse" color-interpolation-filters="sRGB">
<feFlood flood-opacity="0" result="BackgroundImageFix"/>
<feColorMatrix in="SourceAlpha" type="matrix" values="0 0 0 0 0 0 0 0 0 0 0 0 0 0 0 0 0 0 127 0"/>
<feOffset dx="-20" dy="21"/>
<feGaussianBlur stdDeviation="18.5"/>
<feColorMatrix type="matrix" values="0 0 0 0 0 0 0 0 0 0 0 0 0 0 0 0 0 0 0.15 0"/>
<feBlend mode="normal" in2="BackgroundImageFix" result="effect1_dropShadow"/>
<feBlend mode="normal" in="SourceGraphic" in2="effect1_dropShadow" result="shape"/>
</filter>
<linearGradient id="paint0_linear" x1="76.6777" y1="-263.908" x2="870.561" y2="543.051" gradientUnits="userSpaceOnUse">
<stop stop-color="#858CDD"/>
<stop offset="1" stop-color="#858CDD" stop-opacity="0"/>
</linearGradient>
<clipPath id="clip0">
<rect x="323.584" y="234.459" width="1012.67" height="737" rx="10" transform="rotate(-8.01669 323.584 234.459)" fill="white"/>
</clipPath>
<clipPath id="clip1">
<rect width="14.0649" height="14.0649" fill="white" transform="translate(991.561 161.688) rotate(-8.01669)"/>
</clipPath>
<clipPath id="clip2">
<rect width="5.62595" height="5.62595" fill="white" transform="translate(1207.93 134.767) rotate(-8.01669)"/>
</clipPath>
<clipPath id="clip3">
<rect width="14.0649" height="14.0649" fill="white" transform="translate(1116.16 723.651) rotate(-8.01669)"/>
</clipPath>
<clipPath id="clip4">
<rect width="14.0649" height="14.0649" fill="white" transform="translate(1121.85 764.041) rotate(-8.01669)"/>
</clipPath>
<clipPath id="clip5">
<rect width="14.0649" height="14.0649" fill="white" transform="translate(1127.44 803.734) rotate(-8.01669)"/>
</clipPath>
<clipPath id="clip6">
<rect width="7.45391" height="7.45391" fill="white" transform="translate(1139.62 349.517) rotate(-8.01669)"/>
</clipPath>
<clipPath id="clip7">
<rect width="10.5487" height="10.5487" fill="white" transform="translate(386.03 491.274) rotate(-8.01669)"/>
</clipPath>
<clipPath id="clip8">
<rect width="10.5487" height="10.5487" fill="white" transform="translate(378.948 451.08) rotate(-8.01669)"/>
</clipPath>
<clipPath id="clip9">
<rect width="10.5487" height="10.5487" fill="white" transform="translate(361.883 329.912) rotate(-8.01669)"/>
</clipPath>
</defs>
</svg>
