<svg xmlns="http://www.w3.org/2000/svg" fill="none" viewBox="0 0 320 367"><defs/><g filter="url(#filter0_d)" transform="rotate(-18.227 96 -103.804)"><rect width="307.553" height="362.999" x="96" y="-103.804" fill="#5B44BA" rx="117"/><rect width="307.553" height="362.999" x="96" y="-103.804" fill="url(#paint0_linear)" rx="117"/></g><g filter="url(#filter1_d)"><rect width="337.05" height="397.995" x="79.67" y="-123.666" stroke="#695CC5" stroke-opacity=".12" rx="116.5" transform="rotate(-18.227 79.67 -123.666)"/></g><g filter="url(#filter2_d)"><rect width="62.05" height="60.868" x="132" y="115.159" fill="#fff" rx="2.145" transform="rotate(-21.915 132 115.159)"/><rect width="61.335" height="60.153" x="132.465" y="115.358" stroke="#000" stroke-opacity=".05" stroke-width=".715" rx="1.788" transform="rotate(-21.915 132.465 115.358)"/><g><path fill="#326DE6" d="M183.408 116.623c-.448-.593-1.14-.957-1.88-1.067l-14.791-1.543c-.391-.047-.777.045-1.107.165-.33.119-.701.254-1.001.457l-10.36 10.697a2.379 2.379 0 00-.678 1.993l1.882 14.864a2.83 2.83 0 001.18 1.84l12.653 7.751c.676.322 1.499.402 2.215.19l13.862-5.02c.773-.185 1.353-.773 1.58-1.564l4.757-14.054a3.066 3.066 0 00-.23-2.185l-8.082-12.524z"/><path fill="#fff" d="M186.742 130.299c-.042.015-.083.03-.098-.012-.015-.041-.098-.011-.182.019-.181.019-.347.079-.514.139-.083.03-.166.06-.264.049l-.042.015a8.967 8.967 0 01-1.505.263.532.532 0 01-.396-.185c.042-.015 0 0 0 0l-.363.038c-.269-1.265-.803-2.48-1.489-3.593a11.944 11.944 0 00-2.688-2.877l.159-.34-.015-.041c-.045-.125-.064-.306-.01-.419.254-.468.538-.852.864-1.252l.204-.215c.136-.143.231-.271.368-.414.026-.057.068-.072.094-.129.027-.056-.015-.041-.03-.083.269-.426.172-.954-.254-1.222a.847.847 0 00-.688-.08 1.058 1.058 0 00-.507.418l-.027.057c-.026.057-.053.113-.094.128-.08.17-.16.34-.198.494-.011.098-.08.17-.106.227a5.815 5.815 0 01-.709 1.289.628.628 0 01-.22.174c-.041.015-.125.045-.181.019l-.042.015-.257.328c-.453-.212-.948-.409-1.401-.62-1.975-.647-4.159-.701-6.189-.201l-.162-.317.015.042c-.155-.038-.241-.148-.328-.257-.166-.457-.331-.913-.428-1.442l-.015-.041c-.03-.083-.019-.181-.049-.264-.018-.181-.078-.347-.097-.528l-.09-.25c-.109-.43-.592-.724-1.023-.615-.264.049-.469.264-.602.546a.874.874 0 00-.039.672l.075.207c.06.167.162.318.264.468a.553.553 0 01.132.235l.015.041c.248.427.414.883.594 1.381.003.14.007.279-.088.408l.03.083.079.347c-.443.207-.87.456-1.339.72-1.805 1.123-3.218 2.808-4.064 4.758l-.31-.076-.042.015c-.041.015-.068.072-.151.102a.624.624 0 01-.28.007 8.12 8.12 0 01-1.385-.578c-.072-.068-.17-.079-.227-.106-.17-.079-.298-.173-.468-.253-.056-.026-.098-.011-.155-.038l-.056-.026a1.064 1.064 0 00-.658.003c-.249.091-.427.249-.477.502a.948.948 0 00.587 1.102c.042-.015.057.026.057.026s.113.053.155.038c.155.038.351.061.548.083l.294.035c.506.098 1.013.197 1.466.408.113.053.256.189.26.329l-.015-.042.339.159c-.011.098-.038.154-.049.253-.553 2.501-.222 5.104 1.009 7.335l-.303.203c.015.042-.026.057-.026.057.003.139-.091.268-.186.396-.413.29-.84.539-1.324.761-.083.03-.167.06-.235.132-.166.06-.318.162-.484.222-.042.015-.068.072-.151.102-.042.015-.042.015-.068.071a.861.861 0 00-.32 1.196c.218.344.683.457 1.042.28.083-.03.125-.045.193-.117.042-.015.042-.015.027-.056-.015-.042.124-.045.166-.061.151-.101.288-.245.397-.331.069-.072.137-.144.22-.174l.042-.015a7.873 7.873 0 011.237-.87l.042-.015a.496.496 0 01.377.004c.042-.015.057.026.057.026l.359-.177c1.316 1.684 3.097 2.964 5.17 3.622.479.155.902.283 1.393.34l-.102.366c.015.042.056.027.056.027.129.094.189.26.192.4-.016.475-.115.981-.229 1.445l.015.041a.77.77 0 01-.092.268c-.053.113-.076.309-.14.521-.027.056-.012.098-.039.154 0 0 .015.042-.026.057a.907.907 0 00.739 1 .83.83 0 00.321-.022c.333-.121.549-.434.61-.785 0 0-.015-.041.026-.056-.015-.042.012-.098.038-.155-.018-.181.02-.336.001-.517l-.007-.279c-.04-.502.018-.992.075-1.483a.689.689 0 01.243-.369c.041-.015.041-.015.026-.057l.046-.392a10.43 10.43 0 003.86-.646 8.881 8.881 0 002.141-1.104c.427-.249.825-.581 1.196-.856l.271.231c.042-.015.042-.015.057.026a.684.684 0 01.423.129c.358.339.716.679 1.006 1.091l.015.041.174.219c.102.151.203.302.332.397.056.026.071.067.128.094 0 0 .015.041.056.026.272.231.638.333.971.212.125-.045.193-.116.303-.203.136-.143.242-.37.209-.592a1.138 1.138 0 00-.267-.608c-.015-.041-.057-.026-.057-.026-.015-.042-.071-.068-.128-.095a1.57 1.57 0 00-.442-.309.77.77 0 00-.241-.148l-.03-.083a5.202 5.202 0 01-1.102-.963.523.523 0 01-.108-.43c-.015-.041.026-.056.026-.056l-.245-.287c1.656-2.055 2.556-4.635 2.448-7.273l.348-.079c.042-.015.027-.056.027-.056a.503.503 0 01.287-.245l.042-.015c.488-.083.99-.124 1.466-.109l.042-.015a.62.62 0 00.279-.007c.197.023.352.061.533.042.042-.015.098.011.182-.019.041-.015.041-.015.098.012a.404.404 0 00.223-.034.962.962 0 00.621-.883 1.041 1.041 0 00-1.064-.6zm-12.487 3.066l-.928.946-1.318-.133-.727-1.098.429-1.283 1.248-.452 1.151.71.145 1.31zm5.803-5.154a8.419 8.419 0 011.113 2.555l-4.357.31c-.405.053-.748-.245-.8-.649a.718.718 0 01.061-.351l2.098-3.952a8.976 8.976 0 011.885 2.087zm-3.689-3.172l-2.539 3.643c-.231.272-.662.381-.976.166a.404.404 0 01-.23-.246l-1.767-4.102c1.905-.455 3.813-.254 5.512.539zm-8.296.61l.772-.468 1.295 4.227c.136.373-.092.784-.466.92-.125.045-.223.034-.363.037l-4.34-1.199c.706-1.429 1.767-2.658 3.102-3.517zm-3.752 5.49l4.071 1.625a.708.708 0 01.428.925c-.038.155-.106.226-.257.328l-3.614 2.623a9.278 9.278 0 01-.628-5.501zm1.834 7.272l3.862-2.197c.333-.121.741-.034.902.283.087.11.147.276.109.431l-.198 4.391c-1.801-.428-3.492-1.459-4.675-2.908zm11.306 1.728a8.963 8.963 0 01-1.714.855c-.873.317-1.849.482-2.771.534l.701-4.432c.118-.325.42-.528.772-.468.154.038.268.091.437.17l3.305 2.889a7.235 7.235 0 00-.73.452zm3.767-5.449a8.446 8.446 0 01-1.594 3.394l-3.035-3.314a.718.718 0 01.088-.925c.11-.086.22-.173.345-.218l4.415-.801c.002.657-.052 1.287-.219 1.864z"/></g></g><defs><filter id="filter0_d" width="579.661" height="614.983" x="-6" y="-262" color-interpolation-filters="sRGB" filterUnits="userSpaceOnUse"><feFlood flood-opacity="0" result="BackgroundImageFix"/><feColorMatrix in="SourceAlpha" values="0 0 0 0 0 0 0 0 0 0 0 0 0 0 0 0 0 0 127 0"/><feOffset dx="-15" dy="25"/><feGaussianBlur stdDeviation="43.5"/><feColorMatrix values="0 0 0 0 0.415686 0 0 0 0 0.368627 0 0 0 0 0.780392 0 0 0 0.25 0"/><feBlend in2="BackgroundImageFix" result="effect1_dropShadow"/><feBlend in="SourceGraphic" in2="effect1_dropShadow" result="shape"/></filter><filter id="filter1_d" width="619.887" height="658.711" x="-22.961" y="-291.72" color-interpolation-filters="sRGB" filterUnits="userSpaceOnUse"><feFlood flood-opacity="0" result="BackgroundImageFix"/><feColorMatrix in="SourceAlpha" values="0 0 0 0 0 0 0 0 0 0 0 0 0 0 0 0 0 0 127 0"/><feOffset dx="-15" dy="25"/><feGaussianBlur stdDeviation="43.5"/><feColorMatrix values="0 0 0 0 0.415686 0 0 0 0 0.368627 0 0 0 0 0.780392 0 0 0 0.25 0"/><feBlend in2="BackgroundImageFix" result="effect1_dropShadow"/><feBlend in="SourceGraphic" in2="effect1_dropShadow" result="shape"/></filter><filter id="filter2_d" width="110.284" height="109.629" x="116" y="86" color-interpolation-filters="sRGB" filterUnits="userSpaceOnUse"><feFlood flood-opacity="0" result="BackgroundImageFix"/><feColorMatrix in="SourceAlpha" values="0 0 0 0 0 0 0 0 0 0 0 0 0 0 0 0 0 0 127 0"/><feOffset dx="-1" dy="9"/><feGaussianBlur stdDeviation="7.5"/><feColorMatrix values="0 0 0 0 0 0 0 0 0 0 0 0 0 0 0 0 0 0 0.08 0"/><feBlend in2="BackgroundImageFix" result="effect1_dropShadow"/><feBlend in="SourceGraphic" in2="effect1_dropShadow" result="shape"/></filter><linearGradient id="paint0_linear" x1="96" x2="325.076" y1="-90.483" y2="90.901" gradientUnits="userSpaceOnUse"><stop stop-color="#858CDD"/><stop offset="1" stop-color="#858CDD" stop-opacity="0"/></linearGradient></defs></svg>