<svg width="290" height="64" viewBox="0 0 290 64" fill="none" xmlns="http://www.w3.org/2000/svg">
<g clip-path="url(#clip0)">
<path d="M215.648 19.7221C214.109 18.296 212.261 17.231 210.156 16.5555C208.057 15.8821 204.846 15.5547 200.338 15.5547H193.008V47.1155H203.662C207.871 47.1155 211.143 46.4356 213.387 45.0954C215.635 43.753 217.391 41.8657 218.607 39.4888C219.811 37.137 220.422 34.5991 220.422 31.9481C220.422 29.3221 220.01 26.9659 219.199 24.9436C218.381 22.9051 217.186 21.1482 215.648 19.7221ZM215.149 31.6206C215.149 33.4057 214.857 34.9929 214.281 36.3396C213.712 37.6689 212.874 38.8078 211.789 39.726C210.71 40.6386 209.423 41.2641 207.962 41.5861C206.427 41.9244 203.904 42.0963 200.463 42.0963H198.156V20.6555H199.133C202.473 20.6555 205.061 20.8219 206.827 21.1515C208.514 21.4659 210.001 22.099 211.246 23.0356C212.482 23.9646 213.449 25.1884 214.122 26.6722C214.804 28.1766 215.149 29.8421 215.149 31.6206Z" fill="#042A2B"/>
<path d="M260.142 15.5084H255.204V23.4859H251.459V27.9607H255.204V42.5519C255.204 44.0952 255.591 45.2648 256.353 46.0307C257.12 46.8018 258.268 47.1921 259.765 47.1921C260.481 47.1921 261.476 47.0856 262.808 46.8686L263.489 46.7569V42.4945H260.761C260.462 42.4945 260.269 42.4799 260.159 42.4716C260.15 42.3912 260.142 42.2786 260.142 42.121V27.9607H264.445V23.4859H260.142V15.5084Z" fill="#042A2B"/>
<path d="M102.789 15.5409L91.4018 38.2795L79.9352 15.5409H77.7915L73.2167 47.1925H78.4011L80.9607 28.617L90.3344 47.1925H92.4759L101.727 28.785L104.284 47.1925H109.552L104.933 15.5409H102.789Z" fill="#042A2B"/>
<path d="M131.077 26.0117C129.083 24.2983 126.724 23.4314 124.04 23.4314C120.718 23.4314 117.863 24.6033 115.555 26.9134C113.25 29.2195 112.081 32.029 112.081 35.2634C112.081 38.4957 113.242 41.3155 115.53 43.6461C117.826 45.9859 120.63 47.1722 123.864 47.1722C126.516 47.1722 128.935 46.2674 131.077 44.4782V47.1932L135.843 47.1722V23.4871H131.077V26.0117ZM129.155 30.1642C130.554 31.5746 131.234 33.2798 131.234 35.378C131.234 37.4732 130.543 39.1702 129.123 40.5663C127.702 41.9634 126.059 42.642 124.099 42.642C122.119 42.642 120.466 41.9358 119.047 40.4814C117.619 39.0198 116.925 37.3442 116.925 35.3596C116.925 33.3719 117.608 31.6944 119.013 30.2317C120.405 28.7824 122.063 28.0772 124.079 28.0772C126.101 28.0772 127.761 28.7599 129.155 30.1642Z" fill="#042A2B"/>
<path d="M183.914 26.0117C181.92 24.2983 179.561 23.4314 176.877 23.4314C173.555 23.4314 170.7 24.6033 168.392 26.9134C166.087 29.2195 164.918 32.029 164.918 35.2634C164.918 38.4957 166.079 41.3155 168.367 43.6461C170.664 45.9859 173.467 47.1722 176.702 47.1722C179.353 47.1722 181.773 46.2674 183.914 44.4782V47.1932L188.68 47.1722V23.4871H183.914V26.0117ZM181.992 30.1642C183.391 31.5746 184.071 33.2798 184.071 35.378C184.071 37.4732 183.381 39.1702 181.96 40.5663C180.539 41.9634 178.896 42.642 176.936 42.642C174.956 42.642 173.303 41.9358 171.884 40.4814C170.456 39.0198 169.762 37.3442 169.762 35.3596C169.762 33.3719 170.445 31.6944 171.85 30.2317C173.243 28.7824 174.9 28.0772 176.916 28.0772C178.938 28.0772 180.599 28.7599 181.992 30.1642Z" fill="#042A2B"/>
<path d="M242.594 26.0117C240.6 24.2983 238.24 23.4314 235.557 23.4314C232.234 23.4314 229.379 24.6033 227.071 26.9134C224.766 29.2195 223.598 32.029 223.598 35.2634C223.598 38.4957 224.758 41.3155 227.047 43.6461C229.343 45.9859 232.147 47.1722 235.381 47.1722C238.033 47.1722 240.452 46.2674 242.594 44.4782V47.1932L247.359 47.1722V23.4871H242.594V26.0117ZM240.671 30.1642C242.07 31.5746 242.75 33.2798 242.75 35.378C242.75 37.4732 242.06 39.1702 240.639 40.5663C239.219 41.9634 237.575 42.642 235.615 42.642C233.635 42.642 231.983 41.9358 230.564 40.4814C229.136 39.0198 228.441 37.3442 228.441 35.3596C228.441 33.3719 229.124 31.6944 230.529 30.2317C231.922 28.7824 233.579 28.0772 235.596 28.0772C237.617 28.0772 239.278 28.7599 240.671 30.1642Z" fill="#042A2B"/>
<path d="M285.236 26.0117C283.242 24.2983 280.882 23.4314 278.198 23.4314C274.876 23.4314 272.021 24.6033 269.713 26.9134C267.408 29.2195 266.24 32.029 266.24 35.2634C266.24 38.4957 267.4 41.3155 269.688 43.6461C271.985 45.9859 274.789 47.1722 278.023 47.1722C280.675 47.1722 283.094 46.2674 285.236 44.4782V47.1932L290.001 47.1722V23.4871H285.236V26.0117ZM283.313 30.1642C284.712 31.5746 285.392 33.2798 285.392 35.378C285.392 37.4732 284.702 39.1702 283.281 40.5663C281.861 41.9634 280.217 42.642 278.257 42.642C276.277 42.642 274.625 41.9358 273.206 40.4814C271.777 39.0198 271.083 37.3442 271.083 35.3596C271.083 33.3719 271.766 31.6944 273.171 30.2317C274.564 28.7824 276.221 28.0772 278.237 28.0772C280.259 28.0772 281.92 28.7599 283.313 30.1642Z" fill="#042A2B"/>
<path d="M151.931 38.4372L145.107 23.4856H139.795L149.246 44.4213L144.615 54.8277H149.926L163.881 23.4856H158.526L151.931 38.4372Z" fill="#042A2B"/>
<path d="M11.1541 23.0014V53.2586C11.1541 54.0294 11.5731 54.6232 12.2529 55.0074L27.2829 63.6756C27.9591 64.0577 28.7911 64.1304 29.4674 63.7482L44.4944 55.0337C45.176 54.6485 45.5962 54.0315 45.5962 53.2586V22.9747L28.3751 33.0513L11.1541 23.0014Z" fill="#042A2B"/>
<path d="M6.06302 50.0926V20.8847C6.06302 20.4383 6.17765 19.8743 7.06567 19.4422L27.7488 7.34179C28.1367 7.12457 28.6124 7.12458 29.0002 7.34179L50.0697 19.6662C50.4643 19.8872 50.6936 20.0319 50.6858 20.5401L50.6857 50.0926C50.6857 50.7056 51.3741 50.9943 51.9195 50.6971L56.1547 48.2248C56.5565 48.0058 56.7488 47.6759 56.7488 47.2243V16.9917C56.7488 16.4591 56.5676 16.2767 56.1781 16.0544L29.0074 0.168067C28.6159 -0.0554473 28.1327 -0.0560596 27.7407 0.166462L0.621586 16.0385C0.230535 16.2604 0 16.639 0 17.0828V47.2243C0 47.6599 0.18679 47.9849 0.566338 48.2097L4.84305 50.7055C5.3888 51.0287 6.06302 50.7189 6.06302 50.0926Z" fill="#042A2B"/>
<path d="M40.6479 20.1657L28.3748 13.0034L16.1016 20.1657L28.3748 27.3279L40.6479 20.1657Z" fill="#042A2B"/>
</g>
<defs>
<clipPath id="clip0">
<rect width="290" height="64" fill="white"/>
</clipPath>
</defs>
</svg>
