<svg width="290" height="64" viewBox="0 0 290 64" fill="none" xmlns="http://www.w3.org/2000/svg">
<g clip-path="url(#clip0)">
<path d="M215.648 19.7221C214.109 18.296 212.261 17.231 210.156 16.5555C208.057 15.8821 204.846 15.5547 200.338 15.5547H193.008V47.1155H203.662C207.871 47.1155 211.143 46.4356 213.387 45.0954C215.635 43.753 217.391 41.8657 218.607 39.4888C219.811 37.137 220.422 34.5991 220.422 31.9481C220.422 29.3221 220.011 26.9659 219.199 24.9436C218.381 22.9051 217.186 21.1482 215.648 19.7221ZM215.149 31.6206C215.149 33.4057 214.857 34.9929 214.281 36.3396C213.712 37.6689 212.874 38.8078 211.789 39.726C210.71 40.6386 209.423 41.2641 207.962 41.5861C206.427 41.9244 203.904 42.0963 200.463 42.0963H198.156V20.6555H199.133C202.473 20.6555 205.061 20.8219 206.827 21.1515C208.514 21.4659 210.001 22.099 211.246 23.0356C212.482 23.9646 213.449 25.1884 214.122 26.6722C214.804 28.1766 215.149 29.8421 215.149 31.6206Z" fill="#042A2B"/>
<path d="M260.142 15.5088H255.204V23.4862H251.459V27.961H255.204V42.5523C255.204 44.0955 255.591 45.2652 256.354 46.0311C257.12 46.8022 258.269 47.1924 259.765 47.1924C260.481 47.1924 261.476 47.086 262.808 46.869L263.489 46.7573V42.4949H260.761C260.463 42.4949 260.269 42.4803 260.159 42.472C260.15 42.3916 260.142 42.2789 260.142 42.1214V27.961H264.445V23.4862H260.142V15.5088Z" fill="#042A2B"/>
<path d="M102.789 15.541L91.4019 38.2796L79.9352 15.541H77.7916L73.2168 47.1926H78.4012L80.9607 28.6171L90.3345 47.1926H92.4759L101.727 28.7851L104.284 47.1926H109.552L104.933 15.541H102.789Z" fill="#042A2B"/>
<path d="M131.078 26.012C129.084 24.2986 126.724 23.4316 124.041 23.4316C120.718 23.4316 117.864 24.6036 115.556 26.9137C113.251 29.2197 112.082 32.0293 112.082 35.2636C112.082 38.496 113.243 41.3158 115.531 43.6463C117.827 45.9861 120.631 47.1724 123.865 47.1724C126.517 47.1724 128.936 46.2676 131.078 44.4785V47.1935L135.843 47.1724V23.4873H131.078V26.012ZM129.156 30.1644C130.554 31.5748 131.234 33.28 131.234 35.3783C131.234 37.4734 130.544 39.1705 129.123 40.5665C127.703 41.9637 126.06 42.6423 124.099 42.6423C122.12 42.6423 120.467 41.936 119.048 40.4816C117.62 39.02 116.926 37.3445 116.926 35.3599C116.926 33.3722 117.609 31.6946 119.014 30.232C120.406 28.7827 122.063 28.0774 124.08 28.0774C126.102 28.0774 127.762 28.7601 129.156 30.1644Z" fill="#042A2B"/>
<path d="M183.914 26.012C181.92 24.2986 179.56 23.4316 176.877 23.4316C173.554 23.4316 170.7 24.6036 168.392 26.9137C166.087 29.2197 164.918 32.0293 164.918 35.2636C164.918 38.496 166.078 41.3158 168.367 43.6463C170.663 45.9861 173.467 47.1724 176.701 47.1724C179.353 47.1724 181.772 46.2676 183.914 44.4785V47.1935L188.679 47.1724V23.4873H183.914V26.012ZM181.992 30.1644C183.39 31.5748 184.07 33.28 184.07 35.3783C184.07 37.4734 183.38 39.1705 181.959 40.5665C180.539 41.9637 178.896 42.6423 176.935 42.6423C174.955 42.6423 173.303 41.936 171.884 40.4816C170.456 39.02 169.762 37.3445 169.762 35.3599C169.762 33.3722 170.445 31.6946 171.85 30.232C173.242 28.7827 174.899 28.0774 176.916 28.0774C178.938 28.0774 180.598 28.7601 181.992 30.1644Z" fill="#042A2B"/>
<path d="M242.594 26.012C240.6 24.2986 238.24 23.4316 235.557 23.4316C232.234 23.4316 229.379 24.6036 227.071 26.9137C224.766 29.2197 223.598 32.0293 223.598 35.2636C223.598 38.496 224.758 41.3158 227.047 43.6463C229.343 45.9861 232.147 47.1724 235.381 47.1724C238.033 47.1724 240.452 46.2676 242.594 44.4785V47.1935L247.359 47.1724V23.4873H242.594V26.012ZM240.671 30.1644C242.07 31.5748 242.75 33.28 242.75 35.3783C242.75 37.4734 242.06 39.1705 240.639 40.5665C239.219 41.9637 237.575 42.6423 235.615 42.6423C233.635 42.6423 231.983 41.936 230.564 40.4816C229.136 39.02 228.441 37.3445 228.441 35.3599C228.441 33.3722 229.124 31.6946 230.529 30.232C231.922 28.7827 233.579 28.0774 235.596 28.0774C237.617 28.0774 239.278 28.7601 240.671 30.1644Z" fill="#042A2B"/>
<path d="M285.236 26.012C283.242 24.2986 280.883 23.4316 278.199 23.4316C274.877 23.4316 272.022 24.6036 269.714 26.9137C267.409 29.2197 266.24 32.0293 266.24 35.2636C266.24 38.496 267.401 41.3158 269.689 43.6463C271.985 45.9861 274.789 47.1724 278.023 47.1724C280.675 47.1724 283.094 46.2676 285.236 44.4785V47.1935L290.002 47.1724V23.4873H285.236V26.012ZM283.314 30.1644C284.713 31.5748 285.393 33.28 285.393 35.3783C285.393 37.4734 284.702 39.1705 283.282 40.5665C281.861 41.9637 280.218 42.6423 278.258 42.6423C276.278 42.6423 274.625 41.936 273.206 40.4816C271.778 39.02 271.084 37.3445 271.084 35.3599C271.084 33.3722 271.767 31.6946 273.172 30.232C274.564 28.7827 276.222 28.0774 278.238 28.0774C280.26 28.0774 281.92 28.7601 283.314 30.1644Z" fill="#042A2B"/>
<path d="M151.931 38.438L145.107 23.4863H139.795L149.246 44.422L144.615 54.8284H149.927L163.882 23.4863H158.526L151.931 38.438Z" fill="#042A2B"/>
<path d="M11.1543 23.0013V53.2585C11.1543 54.0293 11.5734 54.6231 12.2531 55.0073L27.2831 63.6754C27.9594 64.0576 28.7913 64.1302 29.4676 63.7481L44.4946 55.0336C45.1762 54.6484 45.5964 54.0314 45.5964 53.2585V22.9746L28.3754 33.0512L11.1543 23.0013Z" fill="#042A2B"/>
<path d="M6.06302 50.0926V20.8847C6.06302 20.4383 6.17765 19.8743 7.06567 19.4422L27.7488 7.34179C28.1367 7.12457 28.6124 7.12458 29.0002 7.34179L50.0697 19.6662C50.4643 19.8872 50.6936 20.0319 50.6858 20.5401L50.6857 50.0926C50.6857 50.7056 51.3741 50.9943 51.9195 50.6971L56.1547 48.2248C56.5565 48.0058 56.7488 47.6759 56.7488 47.2243V16.9917C56.7488 16.4591 56.5676 16.2767 56.1781 16.0544L29.0074 0.168067C28.6159 -0.0554473 28.1327 -0.0560596 27.7407 0.166462L0.621586 16.0385C0.230535 16.2604 0 16.639 0 17.0828V47.2243C0 47.6599 0.18679 47.9849 0.566338 48.2097L4.84305 50.7055C5.3888 51.0287 6.06302 50.7189 6.06302 50.0926Z" fill="#042A2B"/>
<path d="M40.6478 20.1652L28.3747 13.0029L16.1016 20.1652L28.3747 27.3274L40.6478 20.1652Z" fill="#042A2B"/>
</g>
<defs>
<clipPath id="clip0">
<rect width="290" height="64" fill="white"/>
</clipPath>
</defs>
</svg>
