<?xml version="1.0" encoding="UTF-8"?>
<svg xmlns="http://www.w3.org/2000/svg" xmlns:xlink="http://www.w3.org/1999/xlink" width="77pt" height="14pt" viewBox="0 0 77 14" version="1.1">
<g id="surface1">
<path style=" stroke:none;fill-rule:nonzero;fill:rgb(0%,40.392157%,77.254902%);fill-opacity:1;" d="M 0 0.0195312 L 0 11.402344 L 5.277344 11.402344 L 5.277344 4.570312 L 8.289062 4.570312 L 8.289062 11.402344 L 13.566406 11.402344 L 13.566406 0.0195312 Z M 0 0.0195312 "/>
<path style=" stroke:none;fill-rule:nonzero;fill:rgb(0.392157%,0.392157%,0.392157%);fill-opacity:1;" d="M 19.59375 0.0195312 L 21.871094 0.0195312 L 27.128906 7.054688 L 27.128906 0.0195312 L 29.566406 0.0195312 L 29.566406 11.398438 L 27.46875 11.398438 L 22.03125 4.214844 L 22.03125 11.398438 L 19.59375 11.398438 Z M 30.75 7.121094 C 30.75 9.769531 32.660156 11.59375 35.242188 11.59375 C 36.796875 11.59375 37.949219 10.980469 38.75 9.976562 L 37.355469 8.734375 C 36.683594 9.367188 36.089844 9.625 35.273438 9.625 C 34.179688 9.625 33.414062 9.042969 33.171875 7.929688 L 39.152344 7.929688 C 39.171875 7.703125 39.183594 7.476562 39.183594 7.285156 C 39.183594 4.828125 37.871094 2.585938 35.003906 2.585938 C 32.5 2.585938 30.753906 4.621094 30.753906 7.085938 L 30.753906 7.121094 M 33.140625 6.394531 C 33.332031 5.28125 33.988281 4.554688 35 4.554688 C 36.023438 4.554688 36.667969 5.292969 36.8125 6.394531 Z M 40.707031 8.945312 C 40.707031 10.945312 41.714844 11.542969 43.203125 11.542969 C 44.019531 11.542969 44.617188 11.351562 45.128906 11.042969 L 45.128906 9.070312 C 44.777344 9.269531 44.375 9.382812 43.925781 9.382812 C 43.382812 9.382812 43.140625 9.105469 43.140625 8.542969 L 43.140625 4.84375 L 45.160156 4.84375 L 45.160156 2.746094 L 43.140625 2.746094 L 43.140625 0.535156 L 40.707031 0.535156 L 40.707031 2.746094 L 39.679688 2.746094 L 39.679688 4.84375 L 40.707031 4.84375 L 40.707031 8.945312 M 57.960938 13.980469 L 60.394531 13.980469 L 60.394531 10.269531 C 60.972656 10.960938 61.773438 11.5625 63.070312 11.5625 C 65.109375 11.5625 66.984375 9.980469 66.984375 7.085938 L 66.984375 7.058594 C 66.984375 4.167969 65.078125 2.585938 63.070312 2.585938 C 61.804688 2.585938 60.988281 3.179688 60.394531 3.988281 L 60.394531 2.746094 L 57.960938 2.746094 Z M 64.542969 7.085938 C 64.542969 8.539062 63.582031 9.480469 62.445312 9.480469 C 61.308594 9.480469 60.363281 8.523438 60.363281 7.085938 L 60.363281 7.058594 C 60.363281 5.621094 61.308594 4.667969 62.445312 4.667969 C 63.582031 4.667969 64.542969 5.621094 64.542969 7.058594 L 64.542969 7.085938 M 67.976562 13.980469 L 70.410156 13.980469 L 70.410156 10.269531 C 70.988281 10.960938 71.789062 11.5625 73.089844 11.5625 C 75.125 11.5625 77 9.980469 77 7.085938 L 77 7.058594 C 77 4.167969 75.09375 2.585938 73.089844 2.585938 C 71.824219 2.585938 71.003906 3.179688 70.410156 3.988281 L 70.410156 2.746094 L 67.976562 2.746094 Z M 74.566406 7.085938 C 74.566406 8.539062 73.601562 9.480469 72.460938 9.480469 C 71.328125 9.480469 70.378906 8.523438 70.378906 7.085938 L 70.378906 7.058594 C 70.378906 5.621094 71.328125 4.667969 72.460938 4.667969 C 73.601562 4.667969 74.566406 5.621094 74.566406 7.058594 L 74.566406 7.085938 M 45.753906 11.398438 L 48.269531 11.398438 L 49.296875 8.863281 L 53.746094 8.863281 L 54.777344 11.398438 L 57.351562 11.398438 L 52.660156 0.0195312 L 50.441406 0.0195312 Z M 50.027344 6.671875 L 51.519531 3.003906 L 53.011719 6.671875 Z M 50.027344 6.671875 "/>
</g>
</svg>
