<svg width="206" height="40" viewBox="0 0 206 40" fill="none" xmlns="http://www.w3.org/2000/svg">
<path d="M0 0.653076V32.3765H14.0907V13.3359H22.132V32.3765H36.2227V0.653076H0Z" fill="#0067C5"/>
<path d="M52.3149 0.653076H58.3955L72.434 20.2594V0.653076H78.9422V32.365H73.3414L58.8231 12.345V32.365H52.3149V0.653076ZM82.1024 20.4445C82.1024 27.8254 87.2026 32.9093 94.0967 32.9093C98.2477 32.9093 101.325 31.2002 103.463 28.4024L99.7392 24.9405C97.9453 26.7041 96.3599 27.4226 94.1801 27.4226C91.2598 27.4226 89.2155 25.8005 88.5689 22.6979H104.537C104.589 22.0665 104.62 21.4351 104.62 20.9017C104.62 14.0542 101.116 7.80541 93.4604 7.80541C86.775 7.80541 82.1128 13.4772 82.1128 20.3465V20.4445H82.1024ZM88.4854 18.4196C88.9965 15.317 90.7487 13.2921 93.45 13.2921C96.1826 13.2921 97.9035 15.3496 98.2894 18.4196H88.4854ZM108.688 25.5284C108.688 31.1022 111.379 32.7678 115.353 32.7678C117.532 32.7678 119.128 32.2344 120.494 31.3743V25.8767C119.556 26.4319 118.482 26.7476 117.282 26.7476C115.832 26.7476 115.186 25.9747 115.186 24.4071V14.0977H120.578V8.25175H115.186V2.09007H108.688V8.25175H105.945V14.0977H108.688V25.5284ZM154.756 39.5609H161.254V29.2188C162.798 31.1457 164.936 32.8222 168.398 32.8222C173.843 32.8222 178.849 28.4133 178.849 20.3465V20.2703C178.849 12.2144 173.759 7.80541 168.398 7.80541C165.019 7.80541 162.839 9.46013 161.254 11.7136V8.25175H154.756V39.5609ZM172.33 20.3465C172.33 24.3962 169.765 27.0198 166.73 27.0198C163.695 27.0198 161.171 24.3527 161.171 20.3465V20.2703C161.171 16.2641 163.695 13.6078 166.73 13.6078C169.765 13.6078 172.33 16.2641 172.33 20.2703V20.3465ZM181.498 39.5609H187.996V29.2188C189.54 31.1457 191.678 32.8222 195.151 32.8222C200.585 32.8222 205.591 28.4133 205.591 20.3465V20.2703C205.591 12.2144 200.501 7.80541 195.151 7.80541C191.772 7.80541 189.581 9.46013 187.996 11.7136V8.25175H181.498V39.5609ZM199.093 20.3465C199.093 24.3962 196.517 27.0198 193.472 27.0198C190.447 27.0198 187.913 24.3527 187.913 20.3465V20.2703C187.913 16.2641 190.447 13.6078 193.472 13.6078C196.517 13.6078 199.093 16.2641 199.093 20.2703V20.3465ZM122.163 32.365H128.88L131.623 25.2998H143.503L146.256 32.365H153.129L140.603 0.653076H134.679L122.163 32.365ZM133.573 19.1925L137.558 8.97024L141.542 19.1925H133.573Z" fill="#010101"/>
</svg>
