<?xml version="1.0" encoding="UTF-8"?>
<svg xmlns="http://www.w3.org/2000/svg" xmlns:xlink="http://www.w3.org/1999/xlink" width="61pt" height="17pt" viewBox="0 0 61 17" version="1.1">
<g id="surface1">
<path style=" stroke:none;fill-rule:nonzero;fill:rgb(0%,78.039216%,75.294118%);fill-opacity:1;" d="M 3.4375 1.664062 C 7.160156 -1.136719 12.390625 -0.3125 15.242188 3.460938 C 15.789062 4.1875 15.671875 5.269531 14.902344 5.753906 C 14.128906 6.238281 13.140625 6.09375 12.605469 5.382812 C 11.230469 3.566406 8.898438 2.824219 6.769531 3.539062 C 4.644531 4.253906 3.238281 6.261719 3.285156 8.519531 C 3.332031 10.777344 4.726562 12.777344 6.882812 13.46875 C 9.039062 14.160156 11.324219 13.417969 12.621094 11.589844 C 13.199219 10.773438 14.054688 10.617188 14.867188 11.089844 C 15.679688 11.558594 15.75 12.75 15.25 13.488281 C 13.691406 15.683594 11.273438 16.988281 8.570312 17 C 5.867188 17.011719 3.332031 15.769531 1.6875 13.59375 C -1.160156 9.824219 -0.289062 4.460938 3.4375 1.664062 Z M 14.460938 6.859375 C 14.992188 6.601562 15.625 6.652344 16.117188 6.988281 C 16.609375 7.328125 16.890625 7.902344 16.855469 8.496094 C 16.816406 9.09375 16.46875 9.621094 15.933594 9.882812 C 15.402344 10.140625 14.769531 10.089844 14.277344 9.753906 C 13.785156 9.414062 13.503906 8.839844 13.539062 8.246094 C 13.578125 7.648438 13.929688 7.121094 14.460938 6.859375 Z M 14.460938 6.859375 "/>
<path style=" stroke:none;fill-rule:nonzero;fill:rgb(20.392157%,23.137255%,31.764706%);fill-opacity:1;" d="M 35.070312 13.089844 L 33.273438 13.089844 L 30.660156 9.484375 L 30.636719 10.640625 L 30.636719 13.089844 L 29.222656 13.089844 L 29.222656 1.917969 L 30.636719 1.917969 L 30.636719 8.796875 L 33.027344 5.445312 L 34.84375 5.445312 L 34.84375 5.507812 L 32.253906 9.085938 L 35.070312 13.027344 Z M 38.773438 13.214844 C 38.160156 13.214844 37.648438 13.019531 37.242188 12.636719 C 36.839844 12.25 36.632812 11.714844 36.621094 11.03125 L 36.621094 6.753906 L 35.296875 6.753906 L 35.296875 5.445312 L 36.621094 5.445312 L 36.621094 3.367188 L 38.035156 3.367188 L 38.035156 5.445312 L 39.882812 5.445312 L 39.882812 6.753906 L 38.035156 6.753906 L 38.035156 10.5625 C 38.035156 11.070312 38.132812 11.417969 38.328125 11.597656 C 38.523438 11.78125 38.742188 11.871094 38.988281 11.871094 C 39.101562 11.871094 39.210938 11.859375 39.320312 11.832031 C 39.429688 11.808594 39.527344 11.773438 39.621094 11.730469 L 40.066406 13.011719 C 39.695312 13.144531 39.265625 13.214844 38.773438 13.214844 Z M 51.652344 13.214844 C 51.035156 13.214844 50.527344 13.019531 50.121094 12.636719 C 49.714844 12.25 49.507812 11.714844 49.496094 11.03125 L 49.496094 6.753906 L 48.175781 6.753906 L 48.175781 5.445312 L 49.496094 5.445312 L 49.496094 3.367188 L 50.914062 3.367188 L 50.914062 5.445312 L 52.757812 5.445312 L 52.757812 6.753906 L 50.914062 6.753906 L 50.914062 10.5625 C 50.914062 11.070312 51.011719 11.417969 51.203125 11.597656 C 51.398438 11.78125 51.621094 11.871094 51.867188 11.871094 C 51.980469 11.871094 52.089844 11.859375 52.195312 11.832031 C 52.304688 11.808594 52.40625 11.773438 52.496094 11.730469 L 52.941406 13.011719 C 52.574219 13.144531 52.144531 13.214844 51.652344 13.214844 Z M 57.003906 13.289062 C 54.796875 13.289062 53.003906 11.472656 53.003906 9.234375 C 53.003906 6.996094 54.796875 5.179688 57.003906 5.179688 C 59.210938 5.179688 61 6.996094 61 9.234375 C 61 11.472656 59.210938 13.289062 57.003906 13.289062 Z M 57.003906 11.847656 C 58.425781 11.847656 59.582031 10.679688 59.582031 9.234375 C 59.582031 7.789062 58.425781 6.617188 57.003906 6.617188 C 55.578125 6.617188 54.425781 7.789062 54.425781 9.234375 C 54.425781 10.679688 55.578125 11.847656 57.003906 11.847656 Z M 24.503906 13.289062 C 22.296875 13.289062 20.507812 11.472656 20.507812 9.234375 C 20.507812 6.996094 22.296875 5.179688 24.503906 5.179688 C 26.710938 5.179688 28.5 6.996094 28.5 9.234375 C 28.5 11.472656 26.710938 13.289062 24.503906 13.289062 Z M 24.503906 11.847656 C 25.929688 11.847656 27.082031 10.679688 27.082031 9.234375 C 27.082031 7.789062 25.929688 6.617188 24.503906 6.617188 C 23.082031 6.617188 21.925781 7.789062 21.925781 9.234375 C 21.925781 10.679688 23.082031 11.847656 24.503906 11.847656 Z M 44.195312 13.339844 C 43.046875 13.339844 42.101562 12.957031 41.359375 12.1875 C 40.613281 11.421875 40.234375 10.378906 40.234375 9.210938 C 40.234375 8.050781 40.597656 7.085938 41.320312 6.3125 C 42.042969 5.542969 42.964844 5.15625 44.089844 5.15625 C 45.25 5.15625 46.070312 5.539062 46.855469 6.25 C 47.640625 6.960938 48.148438 8.289062 48.054688 9.652344 L 41.734375 9.652344 C 41.753906 10.398438 42.007812 10.820312 42.5 11.277344 C 42.988281 11.730469 43.570312 11.960938 44.25 11.960938 C 45.183594 11.960938 45.96875 11.480469 46.359375 10.59375 L 47.898438 10.59375 C 47.691406 11.5 46.929688 12.414062 46.304688 12.792969 C 45.679688 13.175781 44.980469 13.339844 44.195312 13.339844 Z M 41.800781 8.328125 L 46.578125 8.328125 C 46.460938 7.8125 46.175781 7.339844 45.722656 6.980469 C 45.265625 6.621094 44.871094 6.4375 44.195312 6.4375 C 43.636719 6.4375 43.085938 6.644531 42.683594 6.980469 C 42.28125 7.316406 41.929688 7.765625 41.800781 8.328125 Z M 41.800781 8.328125 "/>
</g>
</svg>
