<svg width="40" height="40" viewBox="0 0 40 40" fill="none" xmlns="http://www.w3.org/2000/svg">
<path d="M4.68945 7.11328H7.03503V9.45703H4.68945V7.11328Z" fill="white"/>
<path d="M9.38086 7.11328H11.7264V9.45703H9.38086V7.11328Z" fill="white"/>
<path d="M14.0723 7.11328H16.4178V9.45703H14.0723V7.11328Z" fill="white"/>
<path d="M0 2.42188V37.7307H40V2.42188H0ZM37.6562 4.76562V11.8045H2.34375V4.76562H37.6562ZM2.34375 35.387V14.1483H37.6562V35.387H2.34375Z" fill="white"/>
<path d="M14.6602 17.7627L9.14844 24.7671L14.6602 31.7715L16.502 30.3222L12.1309 24.7671L16.502 19.212L14.6602 17.7627Z" fill="white"/>
<path d="M23.498 19.212L27.8691 24.7671L23.498 30.3222L25.3398 31.7715L30.8516 24.7671L25.3398 17.7627L23.498 19.212Z" fill="white"/>
<path d="M18.8281 17.7324H21.1719V31.8035H18.8281V17.7324Z" fill="white"/>
</svg>
