<svg width="307" height="890" viewBox="0 0 307 890" fill="none" xmlns="http://www.w3.org/2000/svg">
<text fill="#042A2B" xml:space="preserve" style="white-space: pre" font-family="Ubuntu" font-size="18" font-weight="500" letter-spacing="0em"><tspan x="26" y="105.187">Declarative chaos</tspan></text>
<text fill="#042A2B" xml:space="preserve" style="white-space: pre" font-family="Ubuntu" font-size="18" font-weight="500" letter-spacing="0em"><tspan x="26" y="530.187">Create your own</tspan></text>
<text opacity="0.7" fill="#545454" xml:space="preserve" style="white-space: pre" font-family="Ubuntu" font-size="14" letter-spacing="0em"><tspan x="27" y="131.701">Litmus provides chaos CRDs to manage </tspan><tspan x="27" y="152.701">chaos. Using chaos API, orchestration, </tspan><tspan x="27" y="173.701">scheduling and complex workflow </tspan><tspan x="27" y="194.701">management can be done declaratively.&#10;</tspan></text>
<text opacity="0.7" fill="#545454" xml:space="preserve" style="white-space: pre" font-family="Ubuntu" font-size="14" letter-spacing="0em"><tspan x="27" y="556.701">SDK is available in GO, Python and Ansible. </tspan><tspan x="27" y="577.701">A basic experiment structure is created </tspan><tspan x="27" y="598.701">quickly using SDK and developers and SREs </tspan><tspan x="27" y="619.701">just need to add the chaos logic into to </tspan><tspan x="27" y="640.701">make a new experiment.</tspan></text>
<g filter="url(#filter0_d)">
<rect x="33.2" y="14.2" width="49.6" height="49.6" rx="24.8" fill="#858CDD"/>
</g>
<rect x="27.5" y="8.5" width="61" height="61" rx="30.5" stroke="#858CDD" stroke-opacity="0.2"/>
<g clip-path="url(#clip0)">
<path d="M68.5616 46.3757V42.8451H58.7265V40.8728H65.3068C67.5348 40.8728 69.3474 39.0601 69.3474 36.8322C69.3474 34.8415 67.8901 33.1744 65.9861 32.8494C65.5941 30.6899 63.7145 29.0788 61.4561 29.0788C60.9454 29.0788 60.4368 29.1645 59.9558 29.3301C58.9108 27.6518 57.0528 26.6 55.0472 26.6C51.8615 26.6 49.2697 29.1918 49.2697 32.3775C49.2697 32.5975 49.2822 32.8174 49.307 33.0355C47.7333 33.6052 46.6525 35.1028 46.6525 36.8322C46.6525 39.0603 48.4652 40.8728 50.6931 40.8728H57.2734V42.8451H47.4383V46.3757C46.3769 46.6898 45.6 47.6731 45.6 48.8351C45.6 50.2494 46.7506 51.4 48.1649 51.4C49.579 51.4 50.7296 50.2494 50.7296 48.8351C50.7296 47.6731 49.9527 46.6898 48.8915 46.3757V44.2982H57.2734V46.3757C56.212 46.6898 55.4351 47.6731 55.4351 48.8351C55.4351 50.2494 56.5856 51.4 58 51.4C59.4143 51.4 60.5649 50.2494 60.5649 48.8351C60.5649 47.6731 59.788 46.6898 58.7265 46.3757V44.2982H67.1085V46.3757C66.0472 46.6898 65.2703 47.6731 65.2703 48.8351C65.2703 50.2494 66.4209 51.4 67.8351 51.4C69.2494 51.4 70.4 50.2494 70.4 48.8351C70.4 47.6731 69.6231 46.6898 68.5616 46.3757ZM48.1057 36.8322C48.1057 35.5655 49.0108 34.4928 50.2581 34.2819L51.0259 34.1521L50.8433 33.3952C50.7633 33.0632 50.7226 32.7207 50.7226 32.3777C50.7228 29.9931 52.6628 28.0531 55.0472 28.0531C56.7272 28.0531 58.2687 29.0391 58.9744 30.5648L59.2972 31.2628L59.9757 30.9011C60.4349 30.656 60.9331 30.5319 61.4561 30.5319C63.1506 30.5319 64.5339 31.8573 64.6051 33.5492L64.6342 34.2402L65.3258 34.2453C66.742 34.2556 67.8943 35.416 67.8943 36.8322C67.8943 38.259 66.7335 39.4196 65.3068 39.4196H50.6931C49.2663 39.4198 48.1057 38.259 48.1057 36.8322ZM49.2765 48.8351C49.2765 49.4481 48.7779 49.9468 48.1649 49.9468C47.5519 49.9468 47.0531 49.4481 47.0531 48.8351C47.0531 48.222 47.5519 47.7235 48.1649 47.7235C48.7779 47.7235 49.2765 48.222 49.2765 48.8351ZM59.1118 48.8351C59.1118 49.4481 58.613 49.9468 58 49.9468C57.3869 49.9468 56.8882 49.4481 56.8882 48.8351C56.8882 48.222 57.3869 47.7235 58 47.7235C58.613 47.7235 59.1118 48.222 59.1118 48.8351ZM67.8351 49.9468C67.222 49.9468 66.7235 49.4481 66.7235 48.8351C66.7235 48.222 67.222 47.7235 67.8351 47.7235C68.4481 47.7235 68.9468 48.222 68.9468 48.8351C68.9468 49.4481 68.4481 49.9468 67.8351 49.9468Z" fill="white"/>
</g>
<g filter="url(#filter1_d)">
<rect x="33.2" y="439.2" width="49.6" height="49.6" rx="24.8" fill="#25C187"/>
</g>
<rect x="27.5" y="433.5" width="61" height="61" rx="30.5" stroke="#25C187" stroke-opacity="0.2"/>
<g clip-path="url(#clip1)">
<path d="M60.5089 476.4H55.4911L54.8347 474.142C54.2251 473.951 53.6338 473.706 53.0686 473.408L51.0059 474.542L47.4578 470.994L48.5914 468.931C48.2943 468.366 48.0489 467.775 47.8582 467.165L45.6 466.509V461.491L47.8582 460.835C48.0489 460.225 48.2943 459.634 48.5916 459.069L47.4578 457.006L51.0059 453.458L53.0686 454.591C53.6338 454.294 54.2251 454.049 54.8347 453.858L55.4911 451.6H60.5089L61.1653 453.858C61.7749 454.049 62.3662 454.294 62.9313 454.592L64.9941 453.458L68.5421 457.006L67.4086 459.069C67.7056 459.634 67.951 460.225 68.1418 460.835L70.4 461.491V466.509L68.1418 467.165C67.951 467.775 67.7056 468.366 67.4084 468.931L68.5421 470.994L64.9941 474.542L62.9313 473.409C62.3662 473.706 61.7749 473.951 61.1653 474.142L60.5089 476.4ZM56.582 474.947H59.4179L59.9952 472.961L60.3895 472.854C61.1516 472.649 61.8844 472.344 62.5679 471.95L62.9222 471.745L64.7379 472.743L66.7433 470.738L65.7454 468.922L65.95 468.568C66.3443 467.885 66.6485 467.152 66.8544 466.389L66.9609 465.995L68.9468 465.418V462.582L66.9609 462.005L66.8544 461.61C66.6485 460.848 66.3443 460.116 65.95 459.432L65.7454 459.078L66.7433 457.262L64.7379 455.257L62.9222 456.255L62.5679 456.05C61.8844 455.656 61.1516 455.351 60.3895 455.146L59.9952 455.039L59.4179 453.053H56.582L56.0048 455.039L55.6105 455.146C54.8483 455.351 54.1155 455.656 53.4321 456.05L53.0777 456.255L51.2621 455.257L49.2566 457.262L50.2545 459.078L50.05 459.432C49.6557 460.115 49.3514 460.848 49.1456 461.61L49.039 462.005L47.0531 462.582V465.418L49.039 465.995L49.1456 466.389C49.3514 467.152 49.6557 467.884 50.05 468.568L50.2545 468.922L49.2566 470.738L51.2621 472.743L53.0777 471.745L53.4321 471.95C54.1153 472.344 54.8483 472.649 55.6105 472.854L56.0048 472.961L56.582 474.947Z" fill="white"/>
<path d="M57.9998 467.399C56.1255 467.399 54.6005 465.874 54.6005 464C54.6005 462.125 56.1253 460.601 57.9998 460.601C59.8743 460.601 61.3991 462.125 61.3991 464C61.3991 465.874 59.8741 467.399 57.9998 467.399ZM57.9998 462.054C56.9266 462.054 56.0536 462.927 56.0536 464C56.0536 465.073 56.9266 465.946 57.9998 465.946C59.073 465.946 59.946 465.073 59.946 464C59.946 462.927 59.073 462.054 57.9998 462.054Z" fill="white"/>
<path d="M57.9998 470.305C54.5229 470.305 51.6942 467.477 51.6942 464C51.6942 460.523 54.5229 457.694 57.9998 457.694C61.4767 457.694 64.3054 460.523 64.3054 464C64.3054 467.477 61.4767 470.305 57.9998 470.305ZM57.9998 459.147C55.3242 459.147 53.1473 461.324 53.1473 464C53.1473 466.675 55.3242 468.852 57.9998 468.852C60.6754 468.852 62.8522 466.675 62.8522 464C62.8522 461.324 60.6754 459.147 57.9998 459.147Z" fill="white"/>
</g>
<text fill="#042A2B" xml:space="preserve" style="white-space: pre" font-family="Ubuntu" font-size="18" font-weight="500" letter-spacing="0em"><tspan x="27" y="774.187">Chaos Workflows</tspan></text>
<text opacity="0.7" fill="#545454" xml:space="preserve" style="white-space: pre" font-family="Ubuntu" font-size="14" letter-spacing="0em"><tspan x="27" y="800.701">Simple to complex chaos workflows are </tspan><tspan x="27" y="821.701">easy to construct. Use GitOps and the chaos </tspan><tspan x="27" y="842.701">workflows to scale your chaos engineering </tspan><tspan x="27" y="863.701">efforts and increase the resilience of your </tspan><tspan x="27" y="884.701">Kubernetes platform.</tspan></text>
<rect x="27.5" y="677.5" width="61" height="61" rx="30.5" stroke="#F0B740" stroke-opacity="0.2"/>
<g filter="url(#filter2_d)">
<rect x="33.2" y="683.2" width="49.6" height="49.6" rx="24.8" fill="#F0B740"/>
</g>
<g clip-path="url(#clip2)">
<path d="M58.0002 701.455C57.9958 701.455 57.9915 701.455 57.9871 701.455C54.3536 701.462 51.4013 704.423 51.4063 708.057C51.4085 709.67 51.9992 711.222 53.0696 712.426C53.7839 713.23 54.177 714.246 54.177 715.288V720.402H61.823V715.308C61.823 714.256 62.2188 713.23 62.9374 712.418C64.0055 711.212 64.5937 709.66 64.5937 708.048C64.5937 706.285 63.9063 704.627 62.6579 703.381C61.4128 702.139 59.7591 701.455 58.0002 701.455ZM55.6275 718.952V717.01H60.3725V718.952H55.6275ZM57.9886 708.786C57.5881 708.786 57.2623 708.46 57.2623 708.06C57.2623 707.659 57.5881 707.333 57.9886 707.333C58.3892 707.333 58.715 707.659 58.715 708.06C58.715 708.46 58.3892 708.786 57.9886 708.786ZM61.8517 711.456C60.8977 712.533 60.3725 713.901 60.3725 715.308V715.56H58.7137V710.112C59.5585 709.813 60.1653 709.006 60.1653 708.06C60.1653 706.86 59.1888 705.883 57.9885 705.883C56.7881 705.883 55.8118 706.86 55.8118 708.06C55.8118 709.006 56.4186 709.812 57.2632 710.112V715.56H55.6275V715.288C55.6275 713.891 55.1042 712.532 54.1538 711.463C53.319 710.523 52.8584 709.313 52.8567 708.055C52.8528 705.221 55.1556 702.91 57.99 702.905C59.3672 702.902 60.6597 703.436 61.6332 704.408C62.607 705.38 63.1433 706.673 63.1433 708.048C63.1433 709.306 62.6846 710.516 61.8517 711.456Z" fill="white"/>
<path d="M57.2635 695.648H58.714V699.519H57.2635V695.648Z" fill="white"/>
<path d="M52.418 696.953L54.3532 700.304L53.097 701.03L51.162 697.678L52.418 696.953Z" fill="white"/>
<path d="M47.6182 701.23L50.9698 703.165L50.2446 704.421L46.8929 702.486L47.6182 701.23Z" fill="white"/>
<path d="M45.6 707.335H49.4702V708.785H45.6V707.335Z" fill="white"/>
<path d="M47.6292 714.887L46.9039 713.631L50.2556 711.695L50.9808 712.951L47.6292 714.887Z" fill="white"/>
<path d="M68.3825 714.867L65.0309 712.932L65.7561 711.676L69.1078 713.611L68.3825 714.867Z" fill="white"/>
<path d="M66.5297 707.312H70.3999V708.762H66.5297V707.312Z" fill="white"/>
<path d="M68.3706 701.21L69.0957 702.466L65.744 704.401L65.0188 703.145L68.3706 701.21Z" fill="white"/>
<path d="M62.8833 701.018L61.6273 700.293L63.5625 696.941L64.8185 697.667L62.8833 701.018Z" fill="white"/>
</g>
<text fill="#042A2B" xml:space="preserve" style="white-space: pre" font-family="Ubuntu" font-size="18" font-weight="500" letter-spacing="0em"><tspan x="26" y="328.187">Ready experiments</tspan></text>
<text opacity="0.7" fill="#545454" xml:space="preserve" style="white-space: pre" font-family="Ubuntu" font-size="14" letter-spacing="0em"><tspan x="26" y="354.701">Most of the generic chaos experiments are </tspan><tspan x="26" y="375.701">readily available for you to get started with </tspan><tspan x="26" y="396.701">your initial chaos engineering needs.</tspan></text>
<rect x="27.5" y="231.5" width="61" height="61" rx="30.5" stroke="#109B67" stroke-opacity="0.2"/>
<g filter="url(#filter3_d)">
<rect x="33.2" y="237.2" width="49.6" height="49.6" rx="24.8" fill="#109B67"/>
</g>
<g clip-path="url(#clip3)">
<path d="M48.5078 254.01H49.9621V255.463H48.5078V254.01Z" fill="white"/>
<path d="M51.4166 254.01H52.8709V255.463H51.4166V254.01Z" fill="white"/>
<path d="M54.3251 254.01H55.7793V255.463H54.3251V254.01Z" fill="white"/>
<path d="M45.6 251.102V272.993H70.4V251.102H45.6ZM68.9468 252.555V256.919H47.0531V252.555H68.9468ZM47.0531 271.54V258.372H68.9468V271.54H47.0531Z" fill="white"/>
<path d="M54.6888 260.613L51.2715 264.956L54.6888 269.299L55.8307 268.4L53.1206 264.956L55.8307 261.512L54.6888 260.613Z" fill="white"/>
<path d="M60.1693 261.512L62.8794 264.956L60.1693 268.4L61.3112 269.299L64.7285 264.956L61.3112 260.613L60.1693 261.512Z" fill="white"/>
<path d="M57.2734 260.594H58.7266V269.318H57.2734V260.594Z" fill="white"/>
</g>
<defs>
<filter id="filter0_d" x="0.200012" y="0.199951" width="115.6" height="115.6" filterUnits="userSpaceOnUse" color-interpolation-filters="sRGB">
<feFlood flood-opacity="0" result="BackgroundImageFix"/>
<feColorMatrix in="SourceAlpha" type="matrix" values="0 0 0 0 0 0 0 0 0 0 0 0 0 0 0 0 0 0 127 0"/>
<feOffset dy="19"/>
<feGaussianBlur stdDeviation="16.5"/>
<feColorMatrix type="matrix" values="0 0 0 0 0.521569 0 0 0 0 0.54902 0 0 0 0 0.866667 0 0 0 0.25 0"/>
<feBlend mode="normal" in2="BackgroundImageFix" result="effect1_dropShadow"/>
<feBlend mode="normal" in="SourceGraphic" in2="effect1_dropShadow" result="shape"/>
</filter>
<filter id="filter1_d" x="0.200012" y="425.2" width="115.6" height="115.6" filterUnits="userSpaceOnUse" color-interpolation-filters="sRGB">
<feFlood flood-opacity="0" result="BackgroundImageFix"/>
<feColorMatrix in="SourceAlpha" type="matrix" values="0 0 0 0 0 0 0 0 0 0 0 0 0 0 0 0 0 0 127 0"/>
<feOffset dy="19"/>
<feGaussianBlur stdDeviation="16.5"/>
<feColorMatrix type="matrix" values="0 0 0 0 0.145098 0 0 0 0 0.756863 0 0 0 0 0.529412 0 0 0 0.2 0"/>
<feBlend mode="normal" in2="BackgroundImageFix" result="effect1_dropShadow"/>
<feBlend mode="normal" in="SourceGraphic" in2="effect1_dropShadow" result="shape"/>
</filter>
<filter id="filter2_d" x="0.200012" y="669.2" width="115.6" height="115.6" filterUnits="userSpaceOnUse" color-interpolation-filters="sRGB">
<feFlood flood-opacity="0" result="BackgroundImageFix"/>
<feColorMatrix in="SourceAlpha" type="matrix" values="0 0 0 0 0 0 0 0 0 0 0 0 0 0 0 0 0 0 127 0"/>
<feOffset dy="19"/>
<feGaussianBlur stdDeviation="16.5"/>
<feColorMatrix type="matrix" values="0 0 0 0 0.941176 0 0 0 0 0.717647 0 0 0 0 0.25098 0 0 0 0.2 0"/>
<feBlend mode="normal" in2="BackgroundImageFix" result="effect1_dropShadow"/>
<feBlend mode="normal" in="SourceGraphic" in2="effect1_dropShadow" result="shape"/>
</filter>
<filter id="filter3_d" x="0.200012" y="223.2" width="115.6" height="115.6" filterUnits="userSpaceOnUse" color-interpolation-filters="sRGB">
<feFlood flood-opacity="0" result="BackgroundImageFix"/>
<feColorMatrix in="SourceAlpha" type="matrix" values="0 0 0 0 0 0 0 0 0 0 0 0 0 0 0 0 0 0 127 0"/>
<feOffset dy="19"/>
<feGaussianBlur stdDeviation="16.5"/>
<feColorMatrix type="matrix" values="0 0 0 0 0.0627451 0 0 0 0 0.607843 0 0 0 0 0.403922 0 0 0 0.25 0"/>
<feBlend mode="normal" in2="BackgroundImageFix" result="effect1_dropShadow"/>
<feBlend mode="normal" in="SourceGraphic" in2="effect1_dropShadow" result="shape"/>
</filter>
<clipPath id="clip0">
<rect width="24.8" height="24.8" fill="white" transform="translate(45.6 26.6)"/>
</clipPath>
<clipPath id="clip1">
<rect width="24.8" height="24.8" fill="white" transform="translate(45.6 451.6)"/>
</clipPath>
<clipPath id="clip2">
<rect width="24.8" height="24.8" fill="white" transform="translate(45.6 695.6)"/>
</clipPath>
<clipPath id="clip3">
<rect width="24.8" height="24.8" fill="white" transform="translate(45.6 249.6)"/>
</clipPath>
</defs>
</svg>
