<svg width="60" height="560" viewBox="0 0 60 560" fill="none" xmlns="http://www.w3.org/2000/svg">
<rect width="560" height="9.99998" transform="matrix(-4.37114e-08 -1 -1 4.37114e-08 35 560)" fill="url(#paint0_linear)"/>
<g filter="url(#filter0_d)">
<circle cx="30" cy="90" r="18.5" stroke="#109B67" stroke-opacity="0.2"/>
</g>
<g filter="url(#filter1_d)">
<circle cx="30" cy="90" r="15" fill="url(#paint1_linear)"/>
</g>
<path d="M26.8931 87.216C27.5118 86.9707 28.1305 86.656 28.7491 86.272C29.3785 85.888 29.9331 85.4347 30.4131 84.912H31.7731V96H29.8371V87.504C29.5491 87.728 29.1865 87.9467 28.7491 88.16C28.3118 88.3733 27.8905 88.5493 27.4851 88.688L26.8931 87.216Z" fill="white"/>
<g filter="url(#filter2_d)">
<circle cx="30" cy="265" r="18.5" stroke="#109B67" stroke-opacity="0.2"/>
</g>
<g filter="url(#filter3_d)">
<circle cx="30" cy="265" r="15" fill="url(#paint2_linear)"/>
</g>
<path d="M33.1491 261.792C33.1491 262.176 33.0691 262.555 32.9091 262.928C32.7491 263.291 32.5411 263.648 32.2851 264C32.0398 264.341 31.7571 264.677 31.4371 265.008C31.1171 265.328 30.7971 265.643 30.4771 265.952C30.3065 266.112 30.1145 266.304 29.9011 266.528C29.6878 266.752 29.4851 266.976 29.2931 267.2C29.1011 267.424 28.9358 267.643 28.7971 267.856C28.6585 268.059 28.5838 268.229 28.5731 268.368H33.5011V270H26.4451C26.4345 269.915 26.4291 269.813 26.4291 269.696C26.4291 269.568 26.4291 269.472 26.4291 269.408C26.4291 268.896 26.5091 268.427 26.6691 268C26.8398 267.563 27.0585 267.157 27.3251 266.784C27.5918 266.411 27.8905 266.059 28.2211 265.728C28.5518 265.397 28.8825 265.072 29.2131 264.752C29.4691 264.507 29.7145 264.267 29.9491 264.032C30.1838 263.797 30.3865 263.568 30.5571 263.344C30.7385 263.109 30.8825 262.875 30.9891 262.64C31.0958 262.395 31.1491 262.144 31.1491 261.888C31.1491 261.333 30.9891 260.939 30.6691 260.704C30.3491 260.469 29.9598 260.352 29.5011 260.352C29.2025 260.352 28.9251 260.395 28.6691 260.48C28.4131 260.565 28.1838 260.667 27.9811 260.784C27.7891 260.901 27.6185 261.024 27.4691 261.152C27.3198 261.269 27.2078 261.365 27.1331 261.44L26.1731 260.08C26.6211 259.653 27.1438 259.312 27.7411 259.056C28.3491 258.789 28.9998 258.656 29.6931 258.656C30.8771 258.656 31.7465 258.939 32.3011 259.504C32.8665 260.059 33.1491 260.821 33.1491 261.792Z" fill="white"/>
<g filter="url(#filter4_d)">
<circle cx="30" cy="440" r="18.5" stroke="#109B67" stroke-opacity="0.2"/>
</g>
<g filter="url(#filter5_d)">
<ellipse cx="30" cy="439.5" rx="15" ry="14.5" fill="url(#paint3_linear)"/>
</g>
<path d="M29.2291 445.24C28.9411 445.24 28.6425 445.219 28.3331 445.176C28.0345 445.144 27.7465 445.096 27.4691 445.032C27.2025 444.979 26.9571 444.92 26.7331 444.856C26.5091 444.781 26.3385 444.712 26.2211 444.648L26.6051 443C26.8291 443.107 27.1545 443.229 27.5811 443.368C28.0078 443.496 28.5358 443.56 29.1651 443.56C30.0078 443.56 30.6158 443.4 30.9891 443.08C31.3625 442.749 31.5491 442.312 31.5491 441.768C31.5491 441.416 31.4745 441.123 31.3251 440.888C31.1865 440.653 30.9891 440.467 30.7331 440.328C30.4878 440.179 30.1998 440.077 29.8691 440.024C29.5491 439.96 29.2078 439.928 28.8451 439.928H28.1891V438.36H28.9891C29.2345 438.36 29.4798 438.339 29.7251 438.296C29.9811 438.243 30.2105 438.157 30.4131 438.04C30.6158 437.912 30.7811 437.747 30.9091 437.544C31.0371 437.341 31.1011 437.08 31.1011 436.76C31.1011 436.504 31.0531 436.285 30.9571 436.104C30.8611 435.923 30.7331 435.773 30.5731 435.656C30.4238 435.539 30.2478 435.453 30.0451 435.4C29.8425 435.347 29.6291 435.32 29.4051 435.32C28.9251 435.32 28.4985 435.395 28.1251 435.544C27.7518 435.683 27.4211 435.843 27.1331 436.024L26.4291 434.584C26.5785 434.488 26.7598 434.387 26.9731 434.28C27.1865 434.173 27.4211 434.072 27.6771 433.976C27.9438 433.88 28.2265 433.805 28.5251 433.752C28.8238 433.688 29.1385 433.656 29.4691 433.656C30.0878 433.656 30.6211 433.731 31.0691 433.88C31.5171 434.029 31.8851 434.243 32.1731 434.52C32.4718 434.787 32.6905 435.107 32.8291 435.48C32.9785 435.843 33.0531 436.243 33.0531 436.68C33.0531 437.192 32.9091 437.651 32.6211 438.056C32.3438 438.461 31.9811 438.771 31.5331 438.984C32.1091 439.187 32.5838 439.523 32.9571 439.992C33.3411 440.461 33.5331 441.064 33.5331 441.8C33.5331 442.291 33.4478 442.749 33.2771 443.176C33.1065 443.592 32.8451 443.955 32.4931 444.264C32.1411 444.563 31.6931 444.803 31.1491 444.984C30.6158 445.155 29.9758 445.24 29.2291 445.24Z" fill="white"/>
<defs>
<filter id="filter0_d" x="0" y="69" width="60" height="60" filterUnits="userSpaceOnUse" color-interpolation-filters="sRGB">
<feFlood flood-opacity="0" result="BackgroundImageFix"/>
<feColorMatrix in="SourceAlpha" type="matrix" values="0 0 0 0 0 0 0 0 0 0 0 0 0 0 0 0 0 0 127 0"/>
<feOffset dy="9"/>
<feGaussianBlur stdDeviation="5.5"/>
<feColorMatrix type="matrix" values="0 0 0 0 0.356863 0 0 0 0 0.266667 0 0 0 0 0.729412 0 0 0 0.15 0"/>
<feBlend mode="normal" in2="BackgroundImageFix" result="effect1_dropShadow"/>
<feBlend mode="normal" in="SourceGraphic" in2="effect1_dropShadow" result="shape"/>
</filter>
<filter id="filter1_d" x="4" y="73" width="52" height="52" filterUnits="userSpaceOnUse" color-interpolation-filters="sRGB">
<feFlood flood-opacity="0" result="BackgroundImageFix"/>
<feColorMatrix in="SourceAlpha" type="matrix" values="0 0 0 0 0 0 0 0 0 0 0 0 0 0 0 0 0 0 127 0"/>
<feOffset dy="9"/>
<feGaussianBlur stdDeviation="5.5"/>
<feColorMatrix type="matrix" values="0 0 0 0 0.0627451 0 0 0 0 0.607843 0 0 0 0 0.403922 0 0 0 0.37 0"/>
<feBlend mode="normal" in2="BackgroundImageFix" result="effect1_dropShadow"/>
<feBlend mode="normal" in="SourceGraphic" in2="effect1_dropShadow" result="shape"/>
</filter>
<filter id="filter2_d" x="0" y="244" width="60" height="60" filterUnits="userSpaceOnUse" color-interpolation-filters="sRGB">
<feFlood flood-opacity="0" result="BackgroundImageFix"/>
<feColorMatrix in="SourceAlpha" type="matrix" values="0 0 0 0 0 0 0 0 0 0 0 0 0 0 0 0 0 0 127 0"/>
<feOffset dy="9"/>
<feGaussianBlur stdDeviation="5.5"/>
<feColorMatrix type="matrix" values="0 0 0 0 0.356863 0 0 0 0 0.266667 0 0 0 0 0.729412 0 0 0 0.15 0"/>
<feBlend mode="normal" in2="BackgroundImageFix" result="effect1_dropShadow"/>
<feBlend mode="normal" in="SourceGraphic" in2="effect1_dropShadow" result="shape"/>
</filter>
<filter id="filter3_d" x="4" y="248" width="52" height="52" filterUnits="userSpaceOnUse" color-interpolation-filters="sRGB">
<feFlood flood-opacity="0" result="BackgroundImageFix"/>
<feColorMatrix in="SourceAlpha" type="matrix" values="0 0 0 0 0 0 0 0 0 0 0 0 0 0 0 0 0 0 127 0"/>
<feOffset dy="9"/>
<feGaussianBlur stdDeviation="5.5"/>
<feColorMatrix type="matrix" values="0 0 0 0 0.0627451 0 0 0 0 0.607843 0 0 0 0 0.403922 0 0 0 0.37 0"/>
<feBlend mode="normal" in2="BackgroundImageFix" result="effect1_dropShadow"/>
<feBlend mode="normal" in="SourceGraphic" in2="effect1_dropShadow" result="shape"/>
</filter>
<filter id="filter4_d" x="0" y="419" width="60" height="60" filterUnits="userSpaceOnUse" color-interpolation-filters="sRGB">
<feFlood flood-opacity="0" result="BackgroundImageFix"/>
<feColorMatrix in="SourceAlpha" type="matrix" values="0 0 0 0 0 0 0 0 0 0 0 0 0 0 0 0 0 0 127 0"/>
<feOffset dy="9"/>
<feGaussianBlur stdDeviation="5.5"/>
<feColorMatrix type="matrix" values="0 0 0 0 0.356863 0 0 0 0 0.266667 0 0 0 0 0.729412 0 0 0 0.15 0"/>
<feBlend mode="normal" in2="BackgroundImageFix" result="effect1_dropShadow"/>
<feBlend mode="normal" in="SourceGraphic" in2="effect1_dropShadow" result="shape"/>
</filter>
<filter id="filter5_d" x="4" y="423" width="52" height="51" filterUnits="userSpaceOnUse" color-interpolation-filters="sRGB">
<feFlood flood-opacity="0" result="BackgroundImageFix"/>
<feColorMatrix in="SourceAlpha" type="matrix" values="0 0 0 0 0 0 0 0 0 0 0 0 0 0 0 0 0 0 127 0"/>
<feOffset dy="9"/>
<feGaussianBlur stdDeviation="5.5"/>
<feColorMatrix type="matrix" values="0 0 0 0 0.0627451 0 0 0 0 0.607843 0 0 0 0 0.403922 0 0 0 0.37 0"/>
<feBlend mode="normal" in2="BackgroundImageFix" result="effect1_dropShadow"/>
<feBlend mode="normal" in="SourceGraphic" in2="effect1_dropShadow" result="shape"/>
</filter>
<linearGradient id="paint0_linear" x1="39.375" y1="-16.0044" x2="554.088" y2="-14.218" gradientUnits="userSpaceOnUse">
<stop stop-color="#EBEBEB" stop-opacity="0"/>
<stop offset="0.114583" stop-color="#E2E2E2"/>
<stop offset="0.880208" stop-color="#E7E7E7"/>
<stop offset="1" stop-color="#EBEBEB" stop-opacity="0"/>
</linearGradient>
<linearGradient id="paint1_linear" x1="30" y1="75" x2="30" y2="105" gradientUnits="userSpaceOnUse">
<stop stop-color="#25C187"/>
<stop offset="1" stop-color="#109B67"/>
</linearGradient>
<linearGradient id="paint2_linear" x1="30" y1="250" x2="30" y2="280" gradientUnits="userSpaceOnUse">
<stop stop-color="#25C187"/>
<stop offset="1" stop-color="#109B67"/>
</linearGradient>
<linearGradient id="paint3_linear" x1="30" y1="425" x2="30" y2="454" gradientUnits="userSpaceOnUse">
<stop stop-color="#25C187"/>
<stop offset="1" stop-color="#109B67"/>
</linearGradient>
</defs>
</svg>
