<svg width="116" height="116" viewBox="0 0 116 116" fill="none" xmlns="http://www.w3.org/2000/svg">
<g filter="url(#filter0_d)">
<rect x="33.2" y="14.2" width="49.6" height="49.6" rx="24.8" fill="#858CDD"/>
</g>
<rect x="27.5" y="8.5" width="61" height="61" rx="30.5" stroke="#858CDD" stroke-opacity="0.2"/>
<g clip-path="url(#clip0)">
<path d="M68.5617 46.3758V42.8452H58.7267V40.8729H65.307C67.5349 40.8729 69.3475 39.0603 69.3475 36.8323C69.3475 34.8417 67.8902 33.1745 65.9862 32.8495C65.5942 30.69 63.7146 29.0789 61.4562 29.0789C60.9455 29.0789 60.4369 29.1646 59.956 29.3302C58.9109 27.6519 57.0529 26.6001 55.0473 26.6001C51.8616 26.6001 49.2698 29.1919 49.2698 32.3776C49.2698 32.5976 49.2823 32.8175 49.3071 33.0357C47.7334 33.6054 46.6527 35.103 46.6527 36.8323C46.6527 39.0605 48.4653 40.8729 50.6932 40.8729H57.2735V42.8452H47.4385V46.3758C46.377 46.6899 45.6001 47.6732 45.6001 48.8352C45.6001 50.2495 46.7507 51.4001 48.165 51.4001C49.5792 51.4001 50.7297 50.2495 50.7297 48.8352C50.7297 47.6732 49.9529 46.6899 48.8916 46.3758V44.2983H57.2735V46.3758C56.2121 46.6899 55.4352 47.6732 55.4352 48.8352C55.4352 50.2495 56.5858 51.4001 58.0001 51.4001C59.4144 51.4001 60.565 50.2495 60.565 48.8352C60.565 47.6732 59.7881 46.6899 58.7267 46.3758V44.2983H67.1086V46.3758C66.0473 46.6899 65.2705 47.6732 65.2705 48.8352C65.2705 50.2495 66.421 51.4001 67.8352 51.4001C69.2495 51.4001 70.4001 50.2495 70.4001 48.8352C70.4001 47.6732 69.6232 46.6899 68.5617 46.3758ZM48.1058 36.8323C48.1058 35.5656 49.011 34.493 50.2582 34.282L51.026 34.1522L50.8435 33.3953C50.7634 33.0633 50.7227 32.7208 50.7227 32.3778C50.7229 29.9932 52.6629 28.0532 55.0473 28.0532C56.7273 28.0532 58.2688 29.0392 58.9745 30.565L59.2973 31.263L59.9758 30.9012C60.435 30.6562 60.9332 30.532 61.4562 30.532C63.1507 30.532 64.5341 31.8575 64.6052 33.5494L64.6343 34.2404L65.3259 34.2455C66.7421 34.2557 67.8944 35.4161 67.8944 36.8323C67.8944 38.2592 66.7336 39.4198 65.307 39.4198H50.6932C49.2664 39.42 48.1058 38.2592 48.1058 36.8323V36.8323ZM49.2766 48.8352C49.2766 49.4482 48.7781 49.947 48.165 49.947C47.552 49.947 47.0532 49.4482 47.0532 48.8352C47.0532 48.2221 47.552 47.7236 48.165 47.7236C48.7781 47.7236 49.2766 48.2221 49.2766 48.8352ZM59.1119 48.8352C59.1119 49.4482 58.6131 49.947 58.0001 49.947C57.3871 49.947 56.8883 49.4482 56.8883 48.8352C56.8883 48.2221 57.3871 47.7236 58.0001 47.7236C58.6131 47.7236 59.1119 48.2221 59.1119 48.8352ZM67.8352 49.947C67.2221 49.947 66.7236 49.4482 66.7236 48.8352C66.7236 48.2221 67.2221 47.7236 67.8352 47.7236C68.4482 47.7236 68.947 48.2221 68.947 48.8352C68.947 49.4482 68.4482 49.947 67.8352 49.947Z" fill="white"/>
</g>
<defs>
<filter id="filter0_d" x="0.199951" y="0.199951" width="115.6" height="115.6" filterUnits="userSpaceOnUse" color-interpolation-filters="sRGB">
<feFlood flood-opacity="0" result="BackgroundImageFix"/>
<feColorMatrix in="SourceAlpha" type="matrix" values="0 0 0 0 0 0 0 0 0 0 0 0 0 0 0 0 0 0 127 0"/>
<feOffset dy="19"/>
<feGaussianBlur stdDeviation="16.5"/>
<feColorMatrix type="matrix" values="0 0 0 0 0.521569 0 0 0 0 0.54902 0 0 0 0 0.866667 0 0 0 0.25 0"/>
<feBlend mode="normal" in2="BackgroundImageFix" result="effect1_dropShadow"/>
<feBlend mode="normal" in="SourceGraphic" in2="effect1_dropShadow" result="shape"/>
</filter>
<clipPath id="clip0">
<rect width="24.8" height="24.8" fill="white" transform="translate(45.6001 26.6001)"/>
</clipPath>
</defs>
</svg>
