<svg width="116" height="116" viewBox="0 0 116 116" fill="none" xmlns="http://www.w3.org/2000/svg">
<rect x="27.5" y="8.5" width="61" height="61" rx="30.5" stroke="#F0B740" stroke-opacity="0.2"/>
<g filter="url(#filter0_d)">
<rect x="33.2" y="14.2" width="49.6" height="49.6" rx="24.8" fill="#F0B740"/>
</g>
<g clip-path="url(#clip0)">
<path d="M58.0002 32.4546C57.9958 32.4546 57.9915 32.4546 57.9871 32.4546C54.3536 32.4616 51.4013 35.4235 51.4063 39.0574C51.4085 40.67 51.9992 42.2216 53.0696 43.4263C53.7839 44.2298 54.177 45.2461 54.177 46.2878V51.402H61.823V46.3085C61.823 45.2561 62.2188 44.2296 62.9374 43.4181C64.0055 42.2123 64.5937 40.6604 64.5937 39.0483C64.5937 37.2847 63.9063 35.6272 62.6579 34.3815C61.4128 33.1386 59.7591 32.4546 58.0002 32.4546V32.4546ZM55.6275 49.9517V48.0102H60.3725V49.9517H55.6275ZM57.9886 39.7861C57.5881 39.7861 57.2623 39.4602 57.2623 39.0597C57.2623 38.6591 57.5881 38.3333 57.9886 38.3333C58.3892 38.3333 58.715 38.6591 58.715 39.0597C58.715 39.4602 58.3892 39.7861 57.9886 39.7861ZM61.8517 42.4564C60.8977 43.5333 60.3725 44.9013 60.3725 46.3085V46.5597H58.7137V41.1118C59.5585 40.8125 60.1653 40.0057 60.1653 39.0597C60.1653 37.8595 59.1888 36.883 57.9885 36.883C56.7881 36.883 55.8118 37.8595 55.8118 39.0597C55.8118 40.0057 56.4186 40.8123 57.2632 41.1118V46.5597H55.6275V46.2878C55.6275 44.8905 55.1042 43.532 54.1538 42.4626C53.319 41.5234 52.8584 40.3132 52.8567 39.0553C52.8528 36.2208 55.1556 33.9104 57.99 33.9051C59.3672 33.9022 60.6597 34.4362 61.6332 35.408C62.607 36.3797 63.1433 37.6726 63.1433 39.0483C63.1433 40.3058 62.6846 41.5162 61.8517 42.4564V42.4564Z" fill="white"/>
<path d="M57.2637 26.6484H58.7141V30.5187H57.2637V26.6484Z" fill="white"/>
<path d="M52.4181 27.9526L54.3533 31.3043L53.0971 32.0295L51.1621 28.6779L52.4181 27.9526Z" fill="white"/>
<path d="M47.6183 32.23L50.97 34.165L50.2447 35.4212L46.8931 33.4859L47.6183 32.23Z" fill="white"/>
<path d="M45.6001 38.3345H49.4704V39.7849H45.6001V38.3345Z" fill="white"/>
<path d="M47.6293 45.8865L46.9041 44.6305L50.2557 42.6953L50.9809 43.9515L47.6293 45.8865Z" fill="white"/>
<path d="M68.3827 45.8669L65.031 43.9316L65.7562 42.6757L69.1079 44.6107L68.3827 45.8669Z" fill="white"/>
<path d="M66.5298 38.312H70.4001V39.7623H66.5298V38.312Z" fill="white"/>
<path d="M68.3706 32.2098L69.0957 33.4658L65.744 35.401L65.0188 34.1449L68.3706 32.2098Z" fill="white"/>
<path d="M62.8834 32.0182L61.6274 31.2931L63.5627 27.9413L64.8186 28.6665L62.8834 32.0182Z" fill="white"/>
</g>
<defs>
<filter id="filter0_d" x="0.199951" y="0.199951" width="115.6" height="115.6" filterUnits="userSpaceOnUse" color-interpolation-filters="sRGB">
<feFlood flood-opacity="0" result="BackgroundImageFix"/>
<feColorMatrix in="SourceAlpha" type="matrix" values="0 0 0 0 0 0 0 0 0 0 0 0 0 0 0 0 0 0 127 0"/>
<feOffset dy="19"/>
<feGaussianBlur stdDeviation="16.5"/>
<feColorMatrix type="matrix" values="0 0 0 0 0.941176 0 0 0 0 0.717647 0 0 0 0 0.25098 0 0 0 0.2 0"/>
<feBlend mode="normal" in2="BackgroundImageFix" result="effect1_dropShadow"/>
<feBlend mode="normal" in="SourceGraphic" in2="effect1_dropShadow" result="shape"/>
</filter>
<clipPath id="clip0">
<rect width="24.8" height="24.8" fill="white" transform="translate(45.6001 26.6)"/>
</clipPath>
</defs>
</svg>
