<svg width="23" height="16" viewBox="0 0 23 16" fill="none" xmlns="http://www.w3.org/2000/svg">
<path d="M22.1196 3.33437C22.1196 3.33437 21.9049 1.82187 21.2434 1.15156C20.4101 0.275 19.4738 0.275 19.0357 0.223437C15.969 0 11.3559 0 11.3559 0H11.3473C11.3473 0 6.73423 0 3.65027 0.223437C3.22076 0.275 2.28438 0.275 1.44254 1.15156C0.789672 1.82187 0.574914 3.33437 0.574914 3.33437C0.574914 3.33437 0.351562 5.12188 0.351562 6.90078V8.56797C0.351562 10.3469 0.574914 12.1258 0.574914 12.1258C0.574914 12.1258 0.789672 13.6383 1.45113 14.3086C2.28438 15.1852 3.38395 15.1594 3.87363 15.2453C5.63466 15.4172 11.3473 15.4688 11.3473 15.4688C11.3473 15.4688 15.9689 15.4602 19.0443 15.2367C19.4738 15.1852 20.4101 15.1852 21.252 14.3086C21.9135 13.6383 22.1282 12.1258 22.1282 12.1258C22.1282 12.1258 22.3516 10.3469 22.3516 8.56797V6.90078C22.343 5.12188 22.1196 3.33437 22.1196 3.33437ZM9.07946 10.5875V4.40859L15.0239 7.51094L9.07946 10.5875Z" fill="url(#paint0_linear)"/>
<defs>
<linearGradient id="paint0_linear" x1="11.3472" y1="0" x2="11.3472" y2="15.4734" gradientUnits="userSpaceOnUse">
<stop stop-color="#E52D27"/>
<stop offset="1" stop-color="#BF171D"/>
</linearGradient>
</defs>
</svg>
