<svg width="316" height="1545" viewBox="0 0 316 1545" fill="none" xmlns="http://www.w3.org/2000/svg">
<rect x="27" width="10" height="337" fill="url(#paint0_linear)"/>
<path d="M300.005 1143C303.005 1094 286.415 1094 273.005 1094" stroke="#F3E2C0" stroke-width="10"/>
<path d="M32.0015 1034C29.0008 1094 47.1517 1094 60.5616 1094H278.002" stroke="#F3E2C0" stroke-width="10"/>
<path d="M300 429C303.501 373.5 286.41 375 273 375" stroke="#D5D8F3" stroke-width="10"/>
<path d="M32.0049 315C29.5044 375 47.1551 375 60.565 375H278.005" stroke="#D5D8F3" stroke-width="10"/>
<rect x="295" y="403" width="10" height="295" fill="url(#paint1_linear)"/>
<rect x="295" y="1120" width="10" height="332" fill="url(#paint2_linear)"/>
<path d="M31.9958 791.002C27.9959 727.002 46.1206 731.002 59.5305 731.002" stroke="#ABDAC9" stroke-width="10"/>
<path d="M300.003 676C303.002 731 285.388 731 271.978 731H52.5377" stroke="#ABDAC9" stroke-width="10"/>
<rect x="27" y="760" width="10" height="297" fill="url(#paint3_linear)"/>
<path d="M29.9958 1545C29.9958 1485 46.1206 1485 59.5306 1485" stroke="url(#paint4_linear)" stroke-width="10"/>
<path d="M299.999 1440C301.499 1486.5 285.384 1485 271.974 1485H55.5343" stroke="#B7E6D6" stroke-width="10"/>
<text fill="#042A2B" xml:space="preserve" style="white-space: pre" font-family="Ubuntu" font-size="18" font-weight="500" letter-spacing="0em"><tspan x="50" y="117.187">Easy to write chaos </tspan><tspan x="50" y="140.187">experiments</tspan></text>
<text fill="#545454" xml:space="preserve" style="white-space: pre" font-family="Ubuntu" font-size="14" letter-spacing="0em"><tspan x="51" y="167.201">SDK is available in GO, Python and </tspan><tspan x="51" y="191.201">Ansible. A basic experiment structure is </tspan><tspan x="51" y="215.201">created quickly using SDK and </tspan><tspan x="51" y="239.201">developers and SREs just need to add </tspan><tspan x="51" y="263.201">the chaos logic into to make a new </tspan><tspan x="51" y="287.201">experiment. Your chaos logic is turned </tspan><tspan x="51" y="311.201">into a well orchestrated chaos </tspan><tspan x="51" y="335.201">experiment quickly and easily. </tspan></text>
<g filter="url(#filter0_d)">
<rect x="57.2" y="26.2" width="49.6" height="49.6" rx="24.8" fill="#858CDD"/>
</g>
<rect x="51.5" y="20.5" width="61" height="61" rx="30.5" stroke="#858CDD" stroke-opacity="0.2"/>
<g clip-path="url(#clip0)">
<path d="M84.2598 47.936L83.3857 44.6736C83.5884 41.2968 83.5967 41.4637 83.5436 41.2656C83.3033 40.3687 82.378 39.8345 81.481 40.0748L76.9846 41.2796C76.0876 41.52 75.5535 42.4452 75.7938 43.3422C75.8468 43.54 75.7711 43.3923 77.6343 46.2143L78.5085 49.4771C75.2722 51.6479 73.7392 55.6587 74.7625 59.4779C76.0732 64.3694 81.119 67.2826 86.0105 65.9719C90.902 64.6612 93.8152 59.6155 92.5046 54.7239C91.4811 50.9047 88.148 48.1978 84.2598 47.936ZM80.0069 50.6852C80.3888 50.4696 80.5548 50.019 80.4256 49.6171C80.4243 49.6116 80.4235 49.6061 80.4221 49.6006C79.2586 45.2586 79.3452 45.5124 79.2348 45.3424C79.2066 45.2987 79.1137 45.1584 77.6726 42.9757L81.7332 41.8877C81.5525 44.8971 81.5474 44.773 81.5793 44.9377C81.5939 45.0137 82.6575 48.9742 82.6703 49.0181C82.7602 49.4295 83.1285 49.7357 83.5664 49.7314C87.5476 49.692 90.8108 52.821 90.9934 56.761L84.4356 58.5181C84.1619 56.8031 82.4629 55.7139 80.8014 56.1591C79.1374 56.605 78.2139 58.3995 78.8335 60.0192L77.0897 60.4865C75.2814 56.99 76.5331 52.6453 80.0069 50.6852ZM80.4942 59.26C80.3374 58.6745 80.6861 58.0706 81.2715 57.9137C81.857 57.7568 82.4609 58.1055 82.6178 58.691C82.7746 59.2765 82.426 59.8804 81.8405 60.0373C81.2551 60.1941 80.6511 59.8455 80.4942 59.26ZM85.5403 64.2173C82.7976 64.9523 79.9946 64.0314 78.1963 62.0706L80.1744 61.5406C81.5351 62.2739 83.223 61.8225 84.0352 60.5061L90.8271 58.6862C90.2501 61.2834 88.2831 63.4824 85.5403 64.2173Z" fill="white"/>
<path d="M86.1453 55.4052C86.6613 55.2669 86.9686 54.7346 86.8303 54.2187C86.6921 53.7028 86.1598 53.3954 85.6439 53.5337C85.1279 53.6719 84.8206 54.2042 84.9589 54.7202C85.0971 55.2361 85.6294 55.5434 86.1453 55.4052Z" fill="white"/>
<path d="M80.2826 53.649C80.5032 54.0871 81.0277 54.2875 81.4989 54.0615C81.948 53.835 82.1318 53.3052 81.9114 52.8453C81.6622 52.3502 81.06 52.2003 80.6177 52.4761C80.2052 52.7406 80.084 53.2346 80.2826 53.649Z" fill="white"/>
<path d="M79.5459 37.7995C79.7711 38.2469 80.3009 38.4331 80.7621 38.212C81.2113 37.9855 81.395 37.4556 81.1747 36.9957C80.9294 36.5087 80.3357 36.3468 79.8804 36.6267C79.4575 36.9019 79.3525 37.3958 79.5459 37.7995Z" fill="white"/>
<path d="M75.5365 37.8082C75.7631 38.2583 76.2931 38.4412 76.7528 38.2208C77.2046 37.9928 77.3844 37.4617 77.1653 37.0045C76.9189 36.515 76.3245 36.3567 75.8711 36.6355C75.4545 36.9065 75.3401 37.3983 75.5365 37.8082Z" fill="white"/>
</g>
<text fill="#042A2B" xml:space="preserve" style="white-space: pre" font-family="Ubuntu" font-size="18" font-weight="500" letter-spacing="0em"><tspan x="26" y="514.187">Declarative chaos </tspan><tspan x="26" y="537.187">management</tspan></text>
<text fill="#6F6F6F" xml:space="preserve" style="white-space: pre" font-family="Ubuntu" font-size="14" letter-spacing="0em"><tspan x="27" y="564.201">Chaos management is 100% declarative. </tspan><tspan x="27" y="588.201">Done cloud-native way. Litmus provides </tspan><tspan x="27" y="612.201">CRDs and a chaos operator to manage </tspan><tspan x="27" y="636.201">the life cycle of chaos. This capability also </tspan><tspan x="27" y="660.201">helps in scaling the chaos to chaos </tspan><tspan x="27" y="684.201">workflows.  </tspan></text>
<g filter="url(#filter1_d)">
<rect x="33.2" y="423.2" width="49.6" height="49.6" rx="24.8" fill="#109B67"/>
</g>
<rect x="27.5" y="417.5" width="61" height="61" rx="30.5" stroke="#109B67" stroke-opacity="0.2"/>
<g clip-path="url(#clip1)">
<path d="M61.4525 460.8H55.3475V458.827C54.5975 458.607 53.8747 458.307 53.1875 457.929L51.7902 459.327L47.4736 455.01L48.8707 453.613C48.4932 452.925 48.1927 452.202 47.9731 451.453H46V445.347H47.9729C48.1927 444.598 48.4932 443.875 48.8707 443.187L47.4736 441.79L51.7904 437.473L53.1877 438.871C53.8747 438.493 54.5975 438.193 55.3475 437.973V436H61.4525V437.973C62.2025 438.193 62.9253 438.493 63.6125 438.871L65.0098 437.473L69.3266 441.79L67.9293 443.187C68.3068 443.874 68.6073 444.597 68.8271 445.347H70.8V451.453H68.8271C68.6073 452.202 68.3068 452.925 67.9293 453.612L69.3266 455.01L65.0098 459.326L63.6125 457.929C62.9253 458.307 62.2025 458.607 61.4525 458.827V460.8ZM56.8006 459.347H59.9994V457.692L60.5593 457.561C61.5445 457.328 62.4822 456.939 63.3469 456.402L63.8364 456.098L65.0096 457.272L67.2714 455.01L66.0982 453.837L66.402 453.347C66.9386 452.482 67.3284 451.544 67.5604 450.559L67.6924 449.999H69.3469V446.801H67.6924L67.5606 446.241C67.3284 445.256 66.9386 444.318 66.402 443.453L66.0983 442.964L67.2716 441.79L65.0098 439.529L63.8364 440.702L63.3469 440.398C62.4824 439.862 61.5445 439.472 60.5593 439.24L59.9994 439.108V437.453H56.8006V439.108L56.2407 439.239C55.2555 439.472 54.3176 439.861 53.4531 440.398L52.9636 440.702L51.7902 439.528L49.5284 441.79L50.7017 442.963L50.398 443.453C49.8614 444.318 49.4716 445.256 49.2394 446.241L49.1076 446.801H47.4531V449.999H49.1076L49.2394 450.559C49.4716 451.544 49.8614 452.482 50.398 453.347L50.7017 453.836L49.5284 455.01L51.7902 457.271L52.9636 456.098L53.4531 456.402C54.3176 456.938 55.2555 457.328 56.2407 457.56L56.8006 457.692V459.347Z" fill="white"/>
<path d="M55.0887 452.743L51.6714 448.4L55.0887 444.057L56.2306 444.956L53.5205 448.4L56.2306 451.844L55.0887 452.743Z" fill="white"/>
<path d="M61.7112 452.743L60.5693 451.844L63.2794 448.4L60.5693 444.956L61.7112 444.057L65.1285 448.4L61.7112 452.743Z" fill="white"/>
<path d="M57.6735 444.038H59.1266V452.762H57.6735V444.038Z" fill="white"/>
</g>
<text fill="#042A2B" xml:space="preserve" style="white-space: pre" font-family="Ubuntu" font-size="18" font-weight="500" letter-spacing="0em"><tspan x="51" y="863.187">Application specific </tspan><tspan x="51" y="886.187">experiments</tspan></text>
<text fill="#6F6F6F" xml:space="preserve" style="white-space: pre" font-family="Ubuntu" font-size="14" letter-spacing="0em"><tspan x="51" y="913.201">Litmus provides not only the ability to </tspan><tspan x="51" y="937.201">introduce chaos into infrastructure and </tspan><tspan x="51" y="961.201">Kubernetes resources but also into </tspan><tspan x="51" y="985.201">application itself.  These application </tspan><tspan x="51" y="1009.2">specific experiments help in identifyin </tspan><tspan x="51" y="1033.2">the weaknesses related to faults related </tspan><tspan x="51" y="1057.2">to applications that run on Kubernetes.</tspan></text>
<g filter="url(#filter2_d)">
<rect x="57.2012" y="772.2" width="49.6" height="49.6" rx="24.8" fill="#F0B740"/>
</g>
<rect x="51.5" y="766.5" width="61" height="61" rx="30.5" stroke="#F0B740" stroke-opacity="0.2"/>
<g clip-path="url(#clip2)">
<path d="M80.298 787.507C76.0013 787.507 72.5056 791.003 72.5056 795.3C72.5056 799.596 76.0013 803.092 80.298 803.092C84.5946 803.092 88.0902 799.596 88.0902 795.3C88.0902 791.003 84.5946 787.507 80.298 787.507ZM80.298 801.639C76.8024 801.639 73.9586 798.795 73.9586 795.3C73.9586 791.804 76.8024 788.96 80.298 788.96C83.7934 788.96 86.6373 791.804 86.6373 795.3C86.6373 798.795 83.7934 801.639 80.298 801.639Z" fill="white"/>
<path d="M94.4 805.975L89.377 800.952C90.4026 799.311 90.9963 797.373 90.9963 795.3C90.9963 789.401 86.1972 784.601 80.2982 784.601C74.3993 784.601 69.6 789.401 69.6 795.3C69.6 801.199 74.3993 805.998 80.2982 805.998C82.372 805.998 84.3093 805.404 85.9505 804.379L90.9734 809.401L94.4 805.975ZM71.0529 795.3C71.0529 790.202 75.2004 786.054 80.2982 786.054C85.3961 786.054 89.5434 790.202 89.5434 795.3C89.5434 800.397 85.3961 804.545 80.2982 804.545C75.2004 804.545 71.0529 800.397 71.0529 795.3ZM88.5141 802.144L92.3452 805.975L90.9734 807.347L87.1423 803.515C87.6397 803.1 88.0989 802.641 88.5141 802.144Z" fill="white"/>
<path d="M79.4066 796.554L77.139 794.287L76.1116 795.314L79.4066 798.609L84.485 793.531L83.4576 792.503L79.4066 796.554Z" fill="white"/>
</g>
<text fill="#042A2B" xml:space="preserve" style="white-space: pre" font-family="Ubuntu" font-size="18" font-weight="500" letter-spacing="0em"><tspan x="27" y="1232.19">Chaos Portal for chaos </tspan><tspan x="27" y="1255.19">at scale</tspan></text>
<text fill="#6F6F6F" xml:space="preserve" style="white-space: pre" font-family="Ubuntu" font-size="14" letter-spacing="0em"><tspan x="27" y="1282.2">Litmus Portal provides capabilities to </tspan><tspan x="27" y="1306.2">orchestrate complex chaos workflows, </tspan><tspan x="27" y="1330.2">monitor chaos events and metrics </tspan><tspan x="27" y="1354.2">around chaos experiments. Workflows </tspan><tspan x="27" y="1378.2">running on multiple Kubernetes clusters </tspan><tspan x="27" y="1402.2">can be managed from this portal. </tspan><tspan x="27" y="1426.2">Multiple team members can share the </tspan><tspan x="27" y="1450.2">workflows management together.</tspan></text>
<g filter="url(#filter3_d)">
<rect x="33.2012" y="1141.2" width="49.6" height="49.6" rx="24.8" fill="#25C187"/>
</g>
<rect x="27.5" y="1135.5" width="61" height="61" rx="30.5" stroke="#25C187" stroke-opacity="0.2"/>
<g clip-path="url(#clip3)">
<path d="M47.342 1175.49H54.0722V1177.16H47.342V1175.49Z" fill="white"/>
<path d="M66.6281 1172.14V1168.8H59.085V1167.13H65.9216C68.3008 1167.13 70.2363 1165.19 70.2363 1162.82C70.2363 1160.71 68.7051 1158.94 66.6966 1158.57C66.2595 1156.3 64.268 1154.6 61.8788 1154.6C61.3537 1154.6 60.8308 1154.69 60.3344 1154.85C59.2185 1153.1 57.2613 1152 55.1498 1152C51.7651 1152 49.0115 1154.75 49.0115 1158.14C49.0115 1158.35 49.0228 1158.57 49.045 1158.78C47.3936 1159.4 46.2637 1160.99 46.2637 1162.82C46.2637 1165.19 48.1992 1167.13 50.5784 1167.13H57.415V1168.8H49.8719V1172.14H44V1180.5H57.4137V1172.14H51.5418V1170.47H64.9582V1172.14H59.0863V1180.5H72.5V1172.14H66.6281ZM47.9337 1162.82C47.9337 1161.52 48.8589 1160.42 50.1335 1160.21L51.0158 1160.06L50.806 1159.19C50.7234 1158.85 50.6814 1158.49 50.6814 1158.14C50.6814 1155.67 52.686 1153.67 55.1498 1153.67C56.8856 1153.67 58.4785 1154.69 59.2076 1156.27L59.5785 1157.07L60.3583 1156.65C60.8299 1156.4 61.3413 1156.27 61.8788 1156.27C63.6192 1156.27 65.0397 1157.63 65.1128 1159.37L65.1463 1160.17L65.9412 1160.17C67.3887 1160.18 68.5663 1161.37 68.5663 1162.82C68.5663 1164.27 67.38 1165.46 65.9216 1165.46H50.5784C49.12 1165.46 47.9337 1164.27 47.9337 1162.82ZM55.7438 1178.83H45.6699V1173.81H55.7438V1178.83ZM70.8301 1178.83H60.7562V1173.81H70.8301V1178.83Z" fill="white"/>
<path d="M62.4282 1175.49H69.1584V1177.16H62.4282V1175.49Z" fill="white"/>
</g>
<defs>
<filter id="filter0_d" x="24.2" y="12.2" width="115.6" height="115.6" filterUnits="userSpaceOnUse" color-interpolation-filters="sRGB">
<feFlood flood-opacity="0" result="BackgroundImageFix"/>
<feColorMatrix in="SourceAlpha" type="matrix" values="0 0 0 0 0 0 0 0 0 0 0 0 0 0 0 0 0 0 127 0"/>
<feOffset dy="19"/>
<feGaussianBlur stdDeviation="16.5"/>
<feColorMatrix type="matrix" values="0 0 0 0 0.521569 0 0 0 0 0.54902 0 0 0 0 0.866667 0 0 0 0.25 0"/>
<feBlend mode="normal" in2="BackgroundImageFix" result="effect1_dropShadow"/>
<feBlend mode="normal" in="SourceGraphic" in2="effect1_dropShadow" result="shape"/>
</filter>
<filter id="filter1_d" x="0.199951" y="409.2" width="115.6" height="115.6" filterUnits="userSpaceOnUse" color-interpolation-filters="sRGB">
<feFlood flood-opacity="0" result="BackgroundImageFix"/>
<feColorMatrix in="SourceAlpha" type="matrix" values="0 0 0 0 0 0 0 0 0 0 0 0 0 0 0 0 0 0 127 0"/>
<feOffset dy="19"/>
<feGaussianBlur stdDeviation="16.5"/>
<feColorMatrix type="matrix" values="0 0 0 0 0.521569 0 0 0 0 0.54902 0 0 0 0 0.866667 0 0 0 0.25 0"/>
<feBlend mode="normal" in2="BackgroundImageFix" result="effect1_dropShadow"/>
<feBlend mode="normal" in="SourceGraphic" in2="effect1_dropShadow" result="shape"/>
</filter>
<filter id="filter2_d" x="24.2012" y="758.2" width="115.6" height="115.6" filterUnits="userSpaceOnUse" color-interpolation-filters="sRGB">
<feFlood flood-opacity="0" result="BackgroundImageFix"/>
<feColorMatrix in="SourceAlpha" type="matrix" values="0 0 0 0 0 0 0 0 0 0 0 0 0 0 0 0 0 0 127 0"/>
<feOffset dy="19"/>
<feGaussianBlur stdDeviation="16.5"/>
<feColorMatrix type="matrix" values="0 0 0 0 0.941176 0 0 0 0 0.717647 0 0 0 0 0.25098 0 0 0 0.25 0"/>
<feBlend mode="normal" in2="BackgroundImageFix" result="effect1_dropShadow"/>
<feBlend mode="normal" in="SourceGraphic" in2="effect1_dropShadow" result="shape"/>
</filter>
<filter id="filter3_d" x="0.201172" y="1127.2" width="115.6" height="115.6" filterUnits="userSpaceOnUse" color-interpolation-filters="sRGB">
<feFlood flood-opacity="0" result="BackgroundImageFix"/>
<feColorMatrix in="SourceAlpha" type="matrix" values="0 0 0 0 0 0 0 0 0 0 0 0 0 0 0 0 0 0 127 0"/>
<feOffset dy="19"/>
<feGaussianBlur stdDeviation="16.5"/>
<feColorMatrix type="matrix" values="0 0 0 0 0.145098 0 0 0 0 0.756863 0 0 0 0 0.529412 0 0 0 0.25 0"/>
<feBlend mode="normal" in2="BackgroundImageFix" result="effect1_dropShadow"/>
<feBlend mode="normal" in="SourceGraphic" in2="effect1_dropShadow" result="shape"/>
</filter>
<linearGradient id="paint0_linear" x1="32" y1="0" x2="32" y2="337" gradientUnits="userSpaceOnUse">
<stop stop-color="#F9FAFC"/>
<stop offset="1" stop-color="#D5D8F3"/>
</linearGradient>
<linearGradient id="paint1_linear" x1="300" y1="403" x2="300" y2="449.5" gradientUnits="userSpaceOnUse">
<stop stop-color="#D5D8F3"/>
<stop offset="1" stop-color="#ABDAC9"/>
</linearGradient>
<linearGradient id="paint2_linear" x1="300" y1="1120" x2="300" y2="1452" gradientUnits="userSpaceOnUse">
<stop stop-color="#F3E2C0"/>
<stop offset="0.286458" stop-color="#B7E6D6"/>
</linearGradient>
<linearGradient id="paint3_linear" x1="32" y1="760" x2="32" y2="1057" gradientUnits="userSpaceOnUse">
<stop stop-color="#ABDAC9"/>
<stop offset="0.265625" stop-color="#F3E2C0"/>
</linearGradient>
<linearGradient id="paint4_linear" x1="44.7632" y1="1545" x2="44.7632" y2="1485" gradientUnits="userSpaceOnUse">
<stop offset="0.338542" stop-color="#B7E6D6" stop-opacity="0"/>
<stop offset="1" stop-color="#B7E6D6"/>
</linearGradient>
<clipPath id="clip0">
<rect width="31" height="31" fill="white" transform="translate(63.0161 40.0398) rotate(-15)"/>
</clipPath>
<clipPath id="clip1">
<rect width="24.8" height="24.8" fill="white" transform="translate(46 436)"/>
</clipPath>
<clipPath id="clip2">
<rect width="24.8" height="24.8" fill="white" transform="translate(69.6 784.601)"/>
</clipPath>
<clipPath id="clip3">
<rect width="28.5" height="28.5" fill="white" transform="translate(44 1152)"/>
</clipPath>
</defs>
</svg>
