<svg width="33" height="23" viewBox="0 0 33 23" fill="none" xmlns="http://www.w3.org/2000/svg">
<path d="M8.376 0.247997C3.192 5.216 0.744 9.752 0.744 14C0.744 19.256 3.552 23 7.584 23C11.184 23 14.064 19.976 14.064 16.376C14.064 12.848 11.184 9.896 7.728 9.896C8.376 7.592 9.888 5.144 12.12 3.128L8.376 0.247997ZM27.096 0.247997C21.912 5.216 19.464 9.752 19.464 14C19.464 19.256 22.272 23 26.304 23C29.904 23 32.784 19.976 32.784 16.376C32.784 12.848 29.904 9.896 26.448 9.896C27.096 7.592 28.608 5.144 30.84 3.128L27.096 0.247997Z" fill="#5B44BA"/>
</svg>
