<svg width="40" height="41" viewBox="0 0 40 41" fill="none" xmlns="http://www.w3.org/2000/svg">
<g clip-path="url(#clip0)">
<path d="M17.2559 4.68848C10.3256 4.68848 4.6875 10.3266 4.6875 17.2568C4.6875 24.1871 10.3256 29.8252 17.2559 29.8252C24.1858 29.8252 29.8239 24.1871 29.8239 17.2568C29.8239 10.3266 24.1858 4.68848 17.2559 4.68848ZM17.2559 27.4814C11.6177 27.4814 7.03094 22.8947 7.03094 17.2568C7.03094 11.6187 11.6177 7.03192 17.2559 7.03192C22.8937 7.03192 27.4805 11.6187 27.4805 17.2568C27.4805 22.8947 22.8937 27.4814 17.2559 27.4814Z" fill="white"/>
<path d="M40 34.4752L31.8985 26.374C33.5526 23.7269 34.5102 20.6019 34.5102 17.2572C34.5102 7.74274 26.7697 0.00195312 17.2552 0.00195312C7.74078 0.00195312 0 7.74274 0 17.2572C0 26.7717 7.74078 34.5125 17.2552 34.5125C20.6 34.5125 23.7247 33.5548 26.3718 31.9008L34.4733 40.002L40 34.4752ZM2.34344 17.2572C2.34344 9.03485 9.0329 2.3454 17.2552 2.3454C25.4776 2.3454 32.1667 9.03485 32.1667 17.2572C32.1667 25.4796 25.4776 32.169 17.2552 32.169C9.0329 32.169 2.34344 25.4796 2.34344 17.2572ZM30.5066 28.296L36.6858 34.4752L34.4733 36.6877L28.2941 30.5085C29.0964 29.839 29.837 29.0983 30.5066 28.296Z" fill="white"/>
<path d="M15.8166 19.2809L12.1591 15.6234L10.502 17.2805L15.8166 22.5951L24.0075 14.4042L22.3504 12.7471L15.8166 19.2809Z" fill="white"/>
</g>
<defs>
<clipPath id="clip0">
<rect width="40" height="40" fill="white" transform="translate(0 0.00195312)"/>
</clipPath>
</defs>
</svg>
