<svg width="40" height="40" viewBox="0 0 40 40" fill="none" xmlns="http://www.w3.org/2000/svg">
<g clip-path="url(#clip0)">
<path d="M4.68945 32.9648H14.1353V35.3086H4.68945V32.9648Z" fill="white"/>
<path d="M31.7587 28.2736V23.5825H21.1719V21.235H30.7672C34.1064 21.235 36.8228 18.5184 36.8228 15.1794C36.8228 12.2205 34.6738 9.73846 31.8549 9.22302C31.2415 6.02814 28.4464 3.65265 25.0931 3.65265C24.3561 3.65265 23.6221 3.77228 22.9254 4.00269C21.3593 1.53992 18.6124 0 15.6488 0C10.8984 0 7.03369 3.86475 7.03369 8.61511C7.03369 8.91632 7.04956 9.21753 7.08069 9.51691C4.76288 10.3909 3.17719 12.6151 3.17719 15.1794C3.17719 18.5184 5.89355 21.235 9.23279 21.235H18.8281V23.5825H8.24127V28.2736H0V40H18.8263V28.2736H10.585V25.9262H29.415V28.2736H21.1737V40H40V28.2736H31.7587ZM5.52094 15.1794C5.52094 13.3621 6.81946 11.8237 8.6084 11.521L9.8468 11.3116L9.55231 10.0909C9.43634 9.60938 9.37744 9.11285 9.37744 8.61511C9.37744 5.15686 12.1909 2.34375 15.6488 2.34375C18.085 2.34375 20.3207 3.7735 21.344 5.98633L21.8646 7.11212L22.959 6.52832C23.6209 6.17554 24.3387 5.9964 25.0931 5.9964C27.5357 5.9964 29.5294 7.9071 29.632 10.3458L29.679 11.4606L30.7947 11.4685C32.8262 11.4832 34.4791 13.1479 34.4791 15.1794C34.4791 17.2263 32.814 18.8913 30.7672 18.8913H9.23279C7.18597 18.8913 5.52094 17.226 5.52094 15.1794ZM16.4825 37.6562H2.34375V30.6174H16.4825V37.6562ZM37.6562 37.6562H23.5175V30.6174H37.6562V37.6562Z" fill="white"/>
<path d="M25.8633 32.9648H35.3091V35.3086H25.8633V32.9648Z" fill="white"/>
</g>
<defs>
<clipPath id="clip0">
<rect width="40" height="40" fill="white"/>
</clipPath>
</defs>
</svg>
