<svg width="40" height="40" viewBox="0 0 40 40" fill="none" xmlns="http://www.w3.org/2000/svg">
<g clip-path="url(#clip0)">
<path d="M20.0006 9.44336C19.9936 9.44336 19.9866 9.44336 19.9796 9.44336C14.119 9.45465 9.35731 14.2319 9.36524 20.0931C9.36891 22.6941 10.3217 25.1965 12.048 27.1396C13.2001 28.4357 13.8342 30.0748 13.8342 31.7551V40.0037H26.1664V31.7883C26.1664 30.0909 26.8048 28.4354 27.9639 27.1265C29.6866 25.1816 30.6354 22.6785 30.6354 20.0784C30.6354 17.2339 29.5267 14.5605 27.5131 12.5513C25.5048 10.5466 22.8375 9.44336 20.0006 9.44336ZM16.1737 37.6645V34.5331H23.8269V37.6645H16.1737ZM19.982 21.2683C19.3359 21.2683 18.8104 20.7428 18.8104 20.0967C18.8104 19.4507 19.3359 18.9252 19.982 18.9252C20.6281 18.9252 21.1536 19.4507 21.1536 20.0967C21.1536 20.7428 20.6281 21.2683 19.982 21.2683ZM26.2128 25.5753C24.6741 27.3123 23.8269 29.5187 23.8269 31.7883V32.1936H21.1514V23.4067C22.514 22.9239 23.4927 21.6226 23.4927 20.0967C23.4927 18.161 21.9177 16.586 19.9817 16.586C18.0457 16.586 16.471 18.161 16.471 20.0967C16.471 21.6226 17.4497 22.9236 18.812 23.4067V32.1936H16.1737V31.7551C16.1737 29.5013 15.3296 27.3102 13.7967 25.5853C12.4503 24.0704 11.7075 22.1185 11.7047 20.0897C11.6983 15.5179 15.4126 11.7914 19.9841 11.7828C22.2055 11.7783 24.2902 12.6395 25.8603 14.2068C27.431 15.7742 28.2959 17.8595 28.2959 20.0784C28.2959 22.1066 27.5562 24.0588 26.2128 25.5753Z" fill="white"/>
<path d="M18.8125 0.078125H21.152V6.3205H18.8125V0.078125Z" fill="white"/>
<path d="M10.9965 2.18164L14.1178 7.58752L12.0917 8.75726L8.9707 3.35138L10.9965 2.18164Z" fill="white"/>
<path d="M3.25568 9.08105L8.66156 12.2021L7.49182 14.2281L2.08594 11.1068L3.25568 9.08105Z" fill="white"/>
<path d="M0 18.9268H6.24237V21.2662H0V18.9268Z" fill="white"/>
<path d="M3.27325 31.1071L2.10352 29.0813L7.5094 25.96L8.67914 27.986L3.27325 31.1071Z" fill="white"/>
<path d="M36.7457 31.0758L31.3398 27.9545L32.5096 25.9287L37.9155 29.0497L36.7457 31.0758Z" fill="white"/>
<path d="M33.7578 18.8896H40.0002V21.2288H33.7578V18.8896Z" fill="white"/>
<path d="M36.7265 9.04883L37.8959 11.0746L32.4901 14.1959L31.3203 12.1699L36.7265 9.04883Z" fill="white"/>
<path d="M27.8754 8.73969L25.8496 7.57025L28.9709 2.16406L30.9967 3.3338L27.8754 8.73969Z" fill="white"/>
</g>
<defs>
<clipPath id="clip0">
<rect width="40" height="40" fill="white"/>
</clipPath>
</defs>
</svg>
