<svg width="40" height="40" viewBox="0 0 40 40" fill="none" xmlns="http://www.w3.org/2000/svg">
<path d="M24.0466 40H15.9534L14.8947 36.3577C13.9114 36.0501 12.9578 35.6543 12.0462 35.1749L8.71918 37.0035L2.99652 31.2808L4.82483 27.9538C4.3457 27.0422 3.94989 26.0886 3.64227 25.1053L0 24.0466V15.9534L3.64227 14.8947C3.94989 13.9114 4.3457 12.9578 4.82513 12.0462L2.99652 8.71918L8.71918 2.99652L12.0462 4.82483C12.9578 4.3457 13.9114 3.94989 14.8947 3.64227L15.9534 0H24.0466L25.1053 3.64227C26.0886 3.94989 27.0422 4.3457 27.9538 4.82513L31.2808 2.99652L37.0035 8.71918L35.1752 12.0462C35.6543 12.9578 36.0501 13.9114 36.3577 14.8947L40 15.9534V24.0466L36.3577 25.1053C36.0501 26.0886 35.6543 27.0422 35.1749 27.9538L37.0035 31.2808L31.2808 37.0035L27.9538 35.1752C27.0422 35.6543 26.0886 36.0501 25.1053 36.3577L24.0466 40ZM17.713 37.6562H22.287L23.2181 34.4531L23.8541 34.2813C25.0833 33.9493 26.2653 33.4586 27.3676 32.8226L27.9391 32.4927L30.8676 34.1022L34.1022 30.8676L32.4927 27.9391L32.8226 27.3676C33.4586 26.2656 33.9493 25.0833 34.2813 23.8541L34.4531 23.2181L37.6562 22.287V17.713L34.4531 16.7819L34.2813 16.1459C33.9493 14.9167 33.4586 13.7347 32.8226 12.6324L32.4927 12.0609L34.1022 9.13239L30.8676 5.89813L27.9391 7.50732L27.3676 7.17743C26.2653 6.54144 25.0833 6.05072 23.8541 5.71869L23.2181 5.54688L22.287 2.34375H17.713L16.7819 5.54688L16.1459 5.71869C14.9167 6.05072 13.7347 6.54144 12.6324 7.17743L12.0609 7.50732L9.13239 5.89783L5.89783 9.13239L7.50732 12.0609L7.17743 12.6324C6.54144 13.7344 6.05072 14.9167 5.71869 16.1459L5.54688 16.7819L2.34375 17.713V22.287L5.54688 23.2181L5.71869 23.8541C6.05072 25.0833 6.54144 26.2653 7.17743 27.3676L7.50732 27.9391L5.89783 30.8676L9.13239 34.1022L12.0609 32.4927L12.6324 32.8226C13.7344 33.4586 14.9167 33.9493 16.1459 34.2813L16.7819 34.4531L17.713 37.6562Z" fill="white"/>
<path d="M20.0004 25.4832C16.9773 25.4832 14.5176 23.0237 14.5176 20.0004C14.5176 16.977 16.977 14.5176 20.0004 14.5176C23.0237 14.5176 25.4832 16.977 25.4832 20.0004C25.4832 23.0237 23.0234 25.4832 20.0004 25.4832ZM20.0004 16.8613C18.2694 16.8613 16.8613 18.2694 16.8613 20.0004C16.8613 21.7313 18.2694 23.1394 20.0004 23.1394C21.7313 23.1394 23.1394 21.7313 23.1394 20.0004C23.1394 18.2694 21.7313 16.8613 20.0004 16.8613Z" fill="white"/>
<path d="M20.0004 30.1707C14.3925 30.1707 9.83008 25.6083 9.83008 20.0004C9.83008 14.3925 14.3925 9.83008 20.0004 9.83008C25.6083 9.83008 30.1707 14.3925 30.1707 20.0004C30.1707 25.6083 25.6083 30.1707 20.0004 30.1707ZM20.0004 12.1738C15.6849 12.1738 12.1738 15.6849 12.1738 20.0004C12.1738 24.3159 15.6849 27.8269 20.0004 27.8269C24.3159 27.8269 27.8269 24.3159 27.8269 20.0004C27.8269 15.6849 24.3159 12.1738 20.0004 12.1738Z" fill="white"/>
</svg>
