<svg width="32" height="32" viewBox="0 0 32 32" fill="none" xmlns="http://www.w3.org/2000/svg">
<g clip-path="url(#clip0)">
<path d="M29.5696 10.7582C29.6693 10.2237 29.7198 9.68116 29.7205 9.13743C29.7144 4.08757 25.6158 -0.00120464 20.5659 0.00488962C16.7217 0.00951054 13.291 2.41808 11.9808 6.03211C9.6349 5.09828 6.97613 6.24293 6.04224 8.58882C5.9614 8.79187 5.89524 9.00041 5.84427 9.21291C2.09852 9.77311 -0.483841 13.2638 0.0763616 17.0095C0.578769 20.3689 3.46477 22.8543 6.86148 22.8529H12.5762C13.2075 22.8529 13.7192 22.3412 13.7192 21.7099C13.7192 21.0787 13.2075 20.567 12.5762 20.567H6.86148C4.33651 20.567 2.28965 18.5201 2.28965 15.9951C2.28965 13.4702 4.33651 11.4233 6.86148 11.4233C7.49274 11.4233 8.00445 10.9116 8.00445 10.2803C8.00653 9.01789 9.03164 7.99613 10.2941 7.99821C10.8911 7.99921 11.4641 8.23374 11.8904 8.65164C12.34 9.09471 13.0637 9.08942 13.5068 8.63985C13.6731 8.47102 13.7829 8.2547 13.8209 8.02071C14.4413 4.28828 17.9699 1.76553 21.7023 2.38594C25.4348 3.00634 27.9575 6.53499 27.3371 10.2674C27.3001 10.49 27.2521 10.7106 27.1934 10.9283C27.062 11.4054 27.2525 11.9129 27.6655 12.1856C29.7694 13.5816 30.3432 16.4189 28.9472 18.5228C28.1022 19.7962 26.6769 20.5632 25.1487 20.5668H21.7198C21.0886 20.5668 20.5768 21.0786 20.5768 21.7098C20.5768 22.3411 21.0886 22.8528 21.7198 22.8528H25.1487C28.9361 22.8492 32.0035 19.776 31.9999 15.9886C31.998 13.9727 31.1092 12.0597 29.5696 10.7582Z" fill="white"/>
<path d="M23.6454 24.3296C23.2025 23.9019 22.5003 23.9019 22.0574 24.3296L18.2914 28.0934V11.4223C18.2914 10.791 17.7797 10.2793 17.1484 10.2793C16.5171 10.2793 16.0054 10.791 16.0054 11.4223V28.0933L12.2417 24.3296C11.7876 23.8911 11.0641 23.9036 10.6255 24.3576C10.1977 24.8006 10.1977 25.5027 10.6255 25.9457L16.3403 31.6604C16.786 32.1073 17.5098 32.1083 17.9567 31.6624C17.9573 31.6618 17.958 31.6611 17.9587 31.6604L23.6735 25.9457C24.1121 25.4917 24.0995 24.7682 23.6454 24.3296Z" fill="white"/>
</g>
<defs>
<clipPath id="clip0">
<rect width="32" height="32" fill="white"/>
</clipPath>
</defs>
</svg>
