<svg width="22" height="22" viewBox="0 0 22 22" fill="none" xmlns="http://www.w3.org/2000/svg">
<path d="M11.0012 9.45395e-07C4.92303 -0.00252373 0 5.05187 0 11.2903C0 16.2235 3.07966 20.417 7.36856 21.9571C7.94615 22.106 7.85767 21.6844 7.85767 21.3966V19.44C4.5224 19.8414 4.38722 17.5742 4.16356 17.1955C3.71132 16.4028 2.64216 16.2008 2.96168 15.8221C3.72115 15.4207 4.49536 15.9231 5.39247 17.2839C6.04134 18.2711 7.30712 18.1044 7.94861 17.9403C8.08871 17.347 8.38856 16.8168 8.80148 16.4053C5.34577 15.7691 3.90549 13.6029 3.90549 11.0278C3.90549 9.77806 4.30611 8.62933 5.09262 7.70278C4.59122 6.17535 5.13931 4.86757 5.21305 4.67317C6.64105 4.54189 8.12557 5.72343 8.24109 5.81685C9.05217 5.59215 9.97877 5.47349 11.016 5.47349C12.0581 5.47349 12.9872 5.5972 13.8056 5.82442C14.0833 5.6073 15.4597 4.59238 16.787 4.71609C16.8582 4.91049 17.394 6.18797 16.9221 7.6952C17.7185 8.62428 18.124 9.78311 18.124 11.0353C18.124 13.6156 16.6739 15.7843 13.2084 16.4104C13.5052 16.7102 13.7409 17.0678 13.9017 17.4623C14.0624 17.8568 14.1451 18.2802 14.1448 18.7078V21.5481C14.1645 21.7753 14.1448 22 14.5135 22C18.8663 20.4928 22 16.269 22 11.2929C22 5.05187 17.0745 9.45395e-07 11.0012 9.45395e-07Z" fill="#042A2B"/>
</svg>
