<svg width="20" height="20" viewBox="0 0 20 20" fill="none" xmlns="http://www.w3.org/2000/svg">
<path d="M10 0.416992C4.475 0.416992 0 4.81699 0 10.2437C0 14.5862 2.865 18.2687 6.8375 19.567C7.3375 19.6595 7.52083 19.3553 7.52083 19.0945C7.52083 18.8612 7.5125 18.2428 7.50833 17.4237C4.72667 18.0162 4.14 16.1053 4.14 16.1053C3.685 14.9712 3.0275 14.6678 3.0275 14.6678C2.12167 14.0587 3.0975 14.0712 3.0975 14.0712C4.10167 14.1395 4.62917 15.0837 4.62917 15.0837C5.52083 16.5862 6.97 16.152 7.54167 15.9012C7.63167 15.2653 7.88917 14.8328 8.175 14.587C5.95417 14.3412 3.62 13.4962 3.62 9.73116C3.62 8.65866 4.0075 7.78199 4.64917 7.09449C4.53667 6.84616 4.19917 5.84699 4.73667 4.49366C4.73667 4.49366 5.57417 4.23033 7.48667 5.50116C8.28667 5.28283 9.13667 5.17449 9.98667 5.16949C10.8367 5.17449 11.6867 5.28283 12.4867 5.50116C14.3867 4.23033 15.2242 4.49366 15.2242 4.49366C15.7617 5.84699 15.4242 6.84616 15.3242 7.09449C15.9617 7.78199 16.3492 8.65866 16.3492 9.73116C16.3492 13.5062 14.0117 14.337 11.7867 14.5787C12.1367 14.8737 12.4617 15.4762 12.4617 16.397C12.4617 17.712 12.4492 18.7687 12.4492 19.0878C12.4492 19.3453 12.6242 19.6528 13.1367 19.5545C17.1375 18.2645 20 14.5795 20 10.2437C20 4.81699 15.5225 0.416992 10 0.416992Z" fill="#5B44BA"/>
</svg>
