<svg width="23" height="23" viewBox="0 0 23 23" fill="none" xmlns="http://www.w3.org/2000/svg">
<path d="M10.2073 16.1623C10.2073 16.5007 10.3417 16.8253 10.581 17.0646C10.8203 17.3038 11.1448 17.4383 11.4832 17.4383C11.8216 17.4383 12.1462 17.3038 12.3854 17.0646C12.6247 16.8253 12.7591 16.5007 12.7591 16.1623C12.7591 15.824 12.6247 15.4994 12.3854 15.2601C12.1462 15.0209 11.8216 14.8864 11.4832 14.8864C11.1448 14.8864 10.8203 15.0209 10.581 15.2601C10.3417 15.4994 10.2073 15.824 10.2073 16.1623ZM12.1212 13.1852C12.2381 13.1852 12.3338 13.0895 12.3338 12.9726V5.7424C12.3338 5.62544 12.2381 5.52974 12.1212 5.52974H10.8453C10.7283 5.52974 10.6326 5.62544 10.6326 5.7424V12.9726C10.6326 13.0895 10.7283 13.1852 10.8453 13.1852H12.1212ZM22.7538 8.18789H21.1775C21.1084 8.18789 21.0446 8.21979 21.0047 8.27561L18.1738 12.1778L16.8474 10.349C16.8277 10.3216 16.8018 10.2993 16.7717 10.284C16.7416 10.2688 16.7083 10.261 16.6746 10.2613H15.0983C14.9255 10.2613 14.8245 10.458 14.9255 10.5988L17.8282 14.6047C17.868 14.659 17.92 14.7033 17.98 14.7338C18.0401 14.7643 18.1065 14.7802 18.1738 14.7802C18.2411 14.7802 18.3075 14.7643 18.3676 14.7338C18.4276 14.7033 18.4796 14.659 18.5194 14.6047L22.9266 8.52548C23.0276 8.3846 22.9266 8.18789 22.7538 8.18789ZM21.5842 16.3218H19.8777C19.7315 16.3218 19.5959 16.3989 19.5162 16.5212C19.1389 17.1206 18.6948 17.6753 18.1924 18.1746C17.3289 19.0387 16.3061 19.7275 15.1807 20.2027C14.014 20.6948 12.7601 20.947 11.4939 20.9444C10.2153 20.9444 8.97394 20.6945 7.80701 20.2027C6.68159 19.7275 5.65886 19.0387 4.79533 18.1746C3.929 17.3133 3.23915 16.2912 2.7645 15.1655C2.27009 14.0013 2.02022 12.7599 2.02022 11.484C2.02022 10.2081 2.27009 8.96673 2.7645 7.80246C3.24031 6.67541 3.92345 5.66265 4.79533 4.79344C5.6672 3.92422 6.67996 3.24108 7.80701 2.76527C8.97376 2.2732 10.2276 2.02098 11.4939 2.02364C12.7724 2.02364 14.0138 2.27351 15.1807 2.76527C16.3078 3.24108 17.3205 3.92422 18.1924 4.79344C18.6975 5.29848 19.1387 5.85138 19.5162 6.44681C19.5933 6.57174 19.7315 6.64617 19.8777 6.64617H21.5842C21.7437 6.64617 21.8447 6.4787 21.7756 6.33782C19.9043 2.61907 16.0739 0.0539535 11.6347 0.000790449C5.28709 -0.0736378 0.0133164 5.11773 2.56597e-05 11.4627C-0.0132651 17.8131 5.13823 22.9672 11.4939 22.9672C15.9915 22.9672 19.883 20.3888 21.7729 16.6302C21.7892 16.5978 21.797 16.5619 21.7955 16.5257C21.794 16.4895 21.7833 16.4543 21.7644 16.4235C21.7455 16.3926 21.719 16.367 21.6875 16.3493C21.656 16.3315 21.6204 16.322 21.5842 16.3218Z" fill="#39B708"/>
</svg>
