<svg width="57" height="82" viewBox="0 0 57 82" fill="none" xmlns="http://www.w3.org/2000/svg">
<path fill-rule="evenodd" clip-rule="evenodd" d="M27.6988 5.4883C26.082 8.29094 24.7556 10.5931 24.7511 10.6042C24.7466 10.6153 27.0225 10.6244 29.8087 10.6244H34.8744L37.7601 5.62007C39.3472 2.86768 40.6739 0.565518 40.7081 0.504152L40.7705 0.392578H35.7044H30.6383L27.6988 5.4883ZM0.620422 33.1028V55.5811L5.59593 55.5749L10.5714 55.5688L10.5776 33.0966L10.5837 10.6244H5.60206H0.620422V33.1028ZM33.1474 13.9943C32.7736 14.0548 32.4668 14.2627 32.3164 14.5573C32.264 14.6602 29.7531 21.7647 29.7531 21.8103C29.7531 21.8239 30.0955 21.833 30.605 21.833H31.457L31.6978 21.1251L31.9386 20.4172L33.3835 20.4169L34.8283 20.4167L35.0643 21.1249L35.3004 21.833H36.1653C36.6409 21.833 37.0301 21.8245 37.0301 21.8141C37.0301 21.7535 34.5815 14.6099 34.5316 14.5249C34.3986 14.2984 34.1729 14.1243 33.9044 14.041C33.7222 13.9845 33.3497 13.9615 33.1474 13.9943ZM38.8738 14.0291C38.502 14.1224 38.2719 14.3177 38.1462 14.647L38.0924 14.788L38.0857 18.3105L38.0791 21.833H38.8244H39.5698L39.5706 19.1163C39.5712 16.7816 39.5761 16.406 39.6055 16.4448C39.6244 16.4696 40.2637 17.583 41.0263 18.9189C42.0744 20.7549 42.4443 21.3826 42.5414 21.4899C42.7866 21.7608 43.0441 21.8778 43.4403 21.8984C44.1385 21.9347 44.6066 21.6222 44.699 21.058C44.7127 20.9746 44.7221 19.5234 44.7222 17.4924L44.7223 14.0676H43.9654H43.2085L43.2023 16.7714L43.1961 19.4753L41.843 17.0828C41.0988 15.7669 40.4485 14.6288 40.3978 14.5536C40.222 14.2929 39.966 14.1101 39.6643 14.0298C39.503 13.9869 39.0438 13.9865 38.8738 14.0291ZM16.0536 17.9503V21.833H16.8961H17.7386L17.739 20.96C17.7394 19.9895 17.7492 19.9049 17.8944 19.6169C17.9401 19.5263 18.0288 19.3824 18.0916 19.2973C18.2501 19.0822 19.0348 18.1395 19.046 18.1506C19.051 18.1557 19.4173 18.9835 19.8599 19.9903L20.6648 21.8208L21.5704 21.8272C22.0685 21.8307 22.476 21.8279 22.476 21.8209C22.476 21.8139 21.9912 20.6902 21.3986 19.3237C20.806 17.9572 20.3162 16.8218 20.3101 16.8005C20.3032 16.776 20.6989 16.2667 21.3823 15.4208L22.4655 14.0798L21.5029 14.0734C20.9359 14.0696 20.5291 14.0764 20.5131 14.0897C20.4981 14.1022 19.8704 14.9027 19.1183 15.8687L17.7508 17.625L17.7446 15.8463L17.7383 14.0676H16.896H16.0536V17.9503ZM23.5805 17.6145L23.5871 21.1615L23.6458 21.3073C23.7242 21.5018 23.9061 21.6838 24.1007 21.7621L24.2464 21.8208L26.5358 21.8274L28.8251 21.834V21.1376V20.4411H27.0669H25.3087V17.2544V14.0676H24.4413H23.5739L23.5805 17.6145ZM46.3584 17.9503V21.833H47.2253H48.0922V17.9503V14.0676H47.2253H46.3584V17.9503ZM49.7284 17.9503V21.833H50.569H51.4097L51.4191 20.9234C51.4274 20.1307 51.4343 19.9965 51.4726 19.8795C51.5325 19.6963 51.6587 19.453 51.7714 19.3033C51.963 19.0489 52.7165 18.1484 52.7306 18.157C52.7385 18.1619 53.1075 18.9911 53.5505 19.9995L54.3559 21.833L55.2644 21.833L56.173 21.833L56.1026 21.6682C56.0639 21.5776 55.5701 20.4381 55.0053 19.136C54.1244 17.1053 53.9831 16.7632 54.0111 16.7307C54.0411 16.6959 56.0786 14.168 56.1329 14.0981C56.1519 14.0738 55.9581 14.0676 55.1819 14.0676H54.2072L52.8164 15.8535L51.4255 17.6395L51.4193 15.8535L51.413 14.0676H50.5707H49.7284V17.9503ZM33.9632 17.4513C34.2532 18.3655 34.4905 19.1265 34.4905 19.1424C34.4905 19.1642 34.2221 19.1713 33.3916 19.1713C32.529 19.1713 32.2926 19.1647 32.2923 19.1408C32.2914 19.0717 33.4046 15.7331 33.4196 15.7599C33.4286 15.776 33.6732 16.5371 33.9632 17.4513ZM17.0426 24.0525C16.9394 24.0789 16.8714 24.1261 16.8262 24.2026C16.7962 24.2535 16.0048 26.4585 16.0048 26.4913C16.0048 26.4954 16.1275 26.4957 16.2776 26.4919L16.5503 26.485L16.6216 26.2708L16.693 26.0566L17.1466 26.0632L17.6003 26.0698L17.6715 26.2835L17.7427 26.4972H18.0092C18.1559 26.4972 18.2758 26.4886 18.2758 26.4781C18.2758 26.43 17.5202 24.2441 17.485 24.1903C17.4106 24.0768 17.2017 24.0117 17.0426 24.0525ZM19.7217 24.2686L19.7288 24.4826L20.0768 24.4893L20.4248 24.4961V25.4966V26.4972H20.6934H20.962V25.4966V24.4961L21.31 24.4893L21.658 24.4826V24.275V24.0674L20.6863 24.061L19.7147 24.0547L19.7217 24.2686ZM23.3796 24.0735C23.3797 24.0836 23.572 24.405 23.8069 24.7878L24.234 25.4838L24.2341 25.9905L24.2342 26.4972H24.5151H24.7959V25.9893V25.4814L25.2232 24.7767C25.4583 24.3891 25.6506 24.0682 25.6506 24.0636C25.6506 24.059 25.5208 24.0552 25.3622 24.0552H25.0739L24.8067 24.5309C24.6597 24.7926 24.5325 25.0068 24.524 25.0071C24.5155 25.0074 24.4012 24.8235 24.27 24.5986C23.9158 23.9912 23.9878 24.0552 23.6587 24.0552C23.5052 24.0552 23.3796 24.0635 23.3796 24.0735ZM27.6638 24.0813C27.6228 24.0932 27.5624 24.1316 27.5295 24.1665L27.4698 24.2301L27.463 25.3636L27.4562 26.4972H27.7255H27.9949V26.0698V25.6425L28.2207 25.642C28.67 25.6411 28.9062 25.5759 29.0829 25.4043C29.2092 25.2817 29.2708 25.1295 29.2839 24.9078C29.3107 24.4553 29.0777 24.1494 28.6542 24.0812C28.4643 24.0506 27.7693 24.0507 27.6638 24.0813ZM31.2109 24.0707C31.2015 24.0801 31.1938 24.6299 31.1938 25.2925V26.4972H31.4749H31.756L31.7496 25.2823L31.7433 24.0674L31.4856 24.0605C31.3439 24.0568 31.2203 24.0614 31.2109 24.0707ZM33.7335 25.2762V26.4972H33.9874H34.2413L34.2508 26.198C34.2586 25.951 34.2694 25.8819 34.3126 25.8012C34.3691 25.6955 34.6295 25.3739 34.6585 25.3739C34.6683 25.3739 34.7861 25.6239 34.9204 25.9294L35.1646 26.485L35.4532 26.4919C35.6803 26.4973 35.739 26.4921 35.7291 26.4675C35.7221 26.4502 35.6041 26.1779 35.4668 25.8623C35.3295 25.5467 35.181 25.2045 35.1368 25.1019L35.0563 24.9153L35.3961 24.4948C35.583 24.2635 35.7359 24.07 35.7359 24.0647C35.7359 24.0595 35.6004 24.0552 35.4347 24.0552H35.1336L34.7082 24.6044C34.4743 24.9065 34.2747 25.1537 34.2646 25.1539C34.2545 25.154 34.2463 24.9069 34.2463 24.6047V24.0552H33.9899H33.7335V25.2762ZM28.6194 24.5166C28.7876 24.593 28.8555 24.8482 28.7607 25.0479C28.6949 25.1865 28.582 25.2274 28.2645 25.2274H27.9949V24.8489V24.4704L28.2574 24.4709C28.4599 24.4713 28.5426 24.4818 28.6194 24.5166ZM17.331 25.1541L17.4899 25.6547L17.1591 25.6615C16.9772 25.6653 16.8237 25.6637 16.8181 25.6581C16.8124 25.6524 16.8826 25.4164 16.974 25.1334C17.0653 24.8505 17.1473 24.6268 17.1561 24.6363C17.1649 24.6458 17.2436 24.8788 17.331 25.1541ZM20.8399 27.9884C20.5591 28.0304 20.3509 28.136 20.1719 28.3274C19.9752 28.5378 19.864 28.86 19.864 29.22C19.864 30.0034 20.3642 30.4911 21.1207 30.445C21.6257 30.4143 21.9757 30.1752 22.1336 29.7531C22.2739 29.378 22.2516 28.875 22.0796 28.5373C21.939 28.2613 21.6074 28.0372 21.2668 27.988C21.074 27.9601 21.0288 27.9602 20.8399 27.9884ZM24.3645 27.9892C24.3219 28.0015 24.2587 28.0453 24.224 28.0865L24.161 28.1615V29.2951V30.4288H24.393H24.6249V29.5804V28.732L25.0638 29.499C25.3052 29.9208 25.5327 30.2973 25.5694 30.3355C25.7563 30.5306 26.1438 30.4569 26.2114 30.2135C26.2267 30.1585 26.2364 29.7085 26.2365 29.0551L26.2366 27.9868H25.9928H25.7489L25.7425 28.8215L25.736 29.6562L25.3592 28.9863C24.8519 28.0848 24.84 28.0666 24.7159 28.0103C24.6054 27.9601 24.4889 27.9531 24.3645 27.9892ZM28.8053 27.9885C28.3264 28.0725 28.0781 28.4472 28.1946 28.9099C28.2158 28.994 28.2565 29.0575 28.348 29.1489C28.4873 29.2883 28.6093 29.3381 29.0287 29.4267C29.1608 29.4546 29.3068 29.4933 29.3531 29.5127C29.5312 29.5871 29.5473 29.8635 29.3794 29.9658C29.2292 30.0574 28.8644 30.0227 28.4411 29.8766C28.3413 29.8422 28.2547 29.8189 28.2486 29.825C28.2232 29.8504 28.1634 30.2407 28.182 30.2591C28.2145 30.2911 28.5998 30.3962 28.807 30.4295C29.0577 30.4698 29.3843 30.4491 29.562 30.3816C29.7292 30.3181 29.8857 30.1731 29.955 30.0174C30.0278 29.8541 30.0259 29.5754 29.951 29.4207C29.8452 29.2021 29.7008 29.1222 29.2123 29.0122C28.8104 28.9217 28.7588 28.9012 28.7141 28.8148C28.6402 28.6719 28.6926 28.5089 28.8338 28.4418C28.9929 28.3664 29.3327 28.4098 29.74 28.5577C29.8335 28.5916 29.9129 28.6166 29.9163 28.6131C29.928 28.6015 29.9973 28.2529 29.9973 28.206C29.9973 28.1701 29.9606 28.1489 29.8324 28.1108C29.4242 27.9896 29.0516 27.9452 28.8053 27.9885ZM43.4169 27.9802C43.3367 28.0006 43.2565 28.0637 43.2191 28.136C43.1996 28.1738 43.0141 28.6859 42.807 29.274C42.6 29.8621 42.4229 30.3629 42.4136 30.3869C42.3978 30.4273 42.4162 30.4299 42.6723 30.4235L42.9479 30.4165L43.0191 30.2029L43.0903 29.9892H43.5476H44.005L44.0752 30.209L44.1454 30.4288H44.4199H44.6944L44.5766 30.0808C44.1066 28.693 43.9309 28.1853 43.9 28.1253C43.8378 28.0046 43.6009 27.9335 43.4169 27.9802ZM46.6862 28.0086C46.5029 28.0919 46.505 28.077 46.505 29.3275V30.4288H46.7366H46.9683L46.9747 29.5802L46.9811 28.7316L47.4203 29.5008C47.6618 29.9239 47.8881 30.2994 47.9231 30.3352C48.0855 30.5013 48.4464 30.471 48.5436 30.283C48.5751 30.2221 48.5806 30.0456 48.5806 29.0991V27.9868H48.349H48.1173L48.1109 28.8315L48.1044 29.6761L47.6715 28.9097C47.4333 28.4882 47.2081 28.1143 47.1709 28.0788C47.0409 27.9548 46.8619 27.9289 46.6862 28.0086ZM54.9053 27.9883C54.6273 28.0296 54.4315 28.159 54.328 28.3696C54.2363 28.5565 54.2286 28.8457 54.3113 29.0002C54.4284 29.2189 54.5815 29.3026 55.0694 29.4145C55.2708 29.4607 55.4522 29.5166 55.4885 29.5435C55.6325 29.6504 55.6048 29.8931 55.4388 29.9789C55.3063 30.0474 54.9558 30.0159 54.6162 29.9049C54.464 29.8552 54.3358 29.818 54.3314 29.8224C54.3095 29.8444 54.2478 30.2449 54.264 30.2601C54.2972 30.2914 54.6167 30.3804 54.828 30.4173C55.4198 30.5205 55.8425 30.3932 56.0099 30.0614C56.1528 29.7781 56.1158 29.4546 55.9187 29.2653C55.7919 29.1435 55.6549 29.0899 55.2361 28.9985C54.8485 28.9139 54.771 28.862 54.771 28.6867C54.771 28.3835 55.1077 28.3242 55.7118 28.5213C56.0017 28.6158 56.0046 28.6163 56.0167 28.5643C56.0234 28.5354 56.0441 28.4366 56.0629 28.3447L56.0969 28.1776L56.0182 28.1447C55.8784 28.0863 55.5578 28.011 55.3449 27.9866C55.1133 27.96 55.0951 27.9601 54.9053 27.9883ZM16.1625 28.0173C16.1561 28.0341 16.1537 28.5808 16.1572 29.2322L16.1635 30.4165L16.4236 30.4235L16.6836 30.4304L16.6922 30.1182C16.6997 29.8463 16.7079 29.7939 16.7565 29.7118C16.8421 29.5669 17.0868 29.2788 17.1068 29.2993C17.1166 29.3094 17.2333 29.5649 17.3661 29.8671L17.6076 30.4165L17.8958 30.4235C18.1226 30.4289 18.1814 30.4237 18.1716 30.399C18.1647 30.3818 18.0097 30.0234 17.8271 29.6026L17.495 28.8375L17.8345 28.4183L18.174 27.999L17.8905 27.9921C17.7347 27.9883 17.5945 27.99 17.5789 27.996C17.5634 28.0019 17.3595 28.2523 17.1257 28.5523L16.7008 29.0979L16.6942 28.5423L16.6876 27.9868H16.4309C16.2481 27.9868 16.1708 27.9956 16.1625 28.0173ZM31.9312 28.9086C31.9393 29.9146 31.9369 29.8963 32.0911 30.1195C32.2695 30.3779 32.6876 30.5122 33.1286 30.4529C33.5792 30.3922 33.8546 30.1527 33.9267 29.7588C33.9424 29.6733 33.9533 29.2808 33.9533 28.8004V27.9868H33.6861H33.4189L33.4113 28.8476L33.4038 29.7084L33.3444 29.8122C33.2666 29.948 33.134 30.0136 32.9373 30.0136C32.7335 30.0136 32.5915 29.9394 32.5186 29.7948C32.4648 29.688 32.4637 29.6687 32.4637 28.8363V27.9868H32.1937H31.9237L31.9312 28.9086ZM35.9068 29.0881C35.9068 30.312 35.9072 30.3154 36.065 30.3902C36.1331 30.4225 36.2592 30.4288 36.8446 30.4288H37.5429V30.209V29.9892H37.0057H36.4685V28.988V27.9868H36.1877H35.9068V29.0881ZM38.9756 28.0031C38.9666 28.012 38.9593 28.1054 38.9593 28.2106V28.4019H39.3134H39.6675V29.4161V30.4304L39.9422 30.4235L40.2169 30.4165L40.2233 29.4092L40.2296 28.4019H40.5713H40.9129V28.1944V27.9868H39.9524C39.4241 27.9868 38.9845 27.9941 38.9756 28.0031ZM50.4609 28.1944V28.4019H50.815H51.1691V29.4153V30.4288H51.4377H51.7063V29.4153V28.4019H52.0604H52.4145V28.1944V27.9868H51.4377H50.4609V28.1944ZM21.3166 28.4323C21.584 28.5712 21.7102 28.9184 21.6663 29.3946C21.6257 29.8343 21.3475 30.1005 20.9795 30.0516C20.6586 30.0091 20.4827 29.8016 20.4222 29.3943C20.3539 28.9353 20.5208 28.5232 20.8213 28.4086C20.9254 28.369 21.2218 28.3831 21.3166 28.4323ZM43.8295 29.3848L43.8881 29.5741H43.5482C43.3613 29.5741 43.2083 29.571 43.2083 29.5673C43.2083 29.5561 43.5243 28.6128 43.5414 28.5729C43.5557 28.5396 43.6526 28.8128 43.8295 29.3848ZM12.1953 33.8352C12.1953 33.842 18.5764 44.5451 26.3754 57.62L40.5556 81.3926H45.6287H50.7019L50.4513 80.9713C50.2309 80.6008 42.0381 66.8651 27.0047 41.6618L22.3363 33.8353L17.2658 33.8291C14.4771 33.8258 12.1953 33.8285 12.1953 33.8352Z" fill="#102238"/>
</svg>
