<svg width="428" height="90" viewBox="0 0 428 90" fill="none" xmlns="http://www.w3.org/2000/svg">
<path fill-rule="evenodd" clip-rule="evenodd" d="M307.534 23H303.868C303.067 23 302.4 23.6844 302.4 24.5043V42.0093H290.601V24.5043C290.601 23.6844 290.001 23 289.135 23H285.467C284.667 23 284 23.6844 284 24.5043V66.4947C284 67.3166 284.667 68 285.467 68H289.135C290.001 68 290.601 67.3166 290.601 66.4947V48.7797H302.4V66.4947C302.4 67.3166 303.067 68 303.868 68H307.534C308.401 68 309 67.3166 309 66.4947V24.5043C309 23.6844 308.401 23 307.534 23Z" fill="#443D4E"/>
<path fill-rule="evenodd" clip-rule="evenodd" d="M218 62.7339C218 61.913 217.323 61.2286 216.511 61.2286L199.701 61.2296V48.8847H216.511C217.323 48.8847 217.999 48.27 217.999 47.3804V43.6196C217.999 42.7977 217.322 42.1143 216.51 42.1143H199.701V29.7704H216.51C217.322 29.7704 217.999 29.1548 217.999 28.2661V24.5053C217.999 23.6834 217.322 23 216.51 23H198.215C198.214 23 198.213 23 198.212 23H194.49C193.676 23 193 23.6834 193 24.5043V66.4947C193 67.3156 193.676 68 194.49 68H196.103H196.105H216.511C217.323 68 218 67.3843 218 66.4947V62.7339Z" fill="#443D4E"/>
<path fill-rule="evenodd" clip-rule="evenodd" d="M340 62.7339C340 61.913 339.323 61.2286 338.511 61.2286L321.701 61.2296V48.8847H338.51C339.322 48.8847 339.999 48.27 339.999 47.3804V43.6196C339.999 42.7977 339.322 42.1143 338.51 42.1143H321.701V29.7704H338.51C339.322 29.7704 339.999 29.1548 339.999 28.2661V24.5053C339.999 23.6834 339.322 23 338.51 23H320.215C320.214 23 320.213 23 320.212 23H316.49C315.676 23 315 23.6834 315 24.5043V66.4947C315 67.3156 315.676 68 316.49 68H318.103H318.105H338.511C339.323 68 340 67.3843 340 66.4947V62.7339Z" fill="#443D4E"/>
<path fill-rule="evenodd" clip-rule="evenodd" d="M404 62.7339C404 61.913 403.323 61.2286 402.511 61.2286L385.701 61.2296V48.8847H402.511C403.323 48.8847 403.999 48.27 403.999 47.3804V43.6196C403.999 42.7977 403.322 42.1143 402.51 42.1143H385.701V29.7704H402.51C403.322 29.7704 403.999 29.1548 403.999 28.2661V24.5053C403.999 23.6834 403.322 23 402.51 23H384.215C384.214 23 384.213 23 384.212 23H380.49C379.677 23 379 23.6834 379 24.5043V66.4947C379 67.3156 379.677 68 380.49 68H382.103H382.105H402.511C403.323 68 404 67.3843 404 66.4947V62.7339Z" fill="#443D4E"/>
<path fill-rule="evenodd" clip-rule="evenodd" d="M229.467 34.772V37.3579C229.467 39.3318 231.334 40.4878 233.467 41.3729L242.333 45.1832C245.666 46.6813 248 49.3336 248 53.4168V58.2476C248 62.2626 239.732 69 235.332 69C232.333 69 227.8 66.8224 224.268 64.8486C223.467 64.4411 222.934 63.4869 223.401 62.3991L224.535 60.085C225.001 59.1327 226 58.928 226.867 59.4047C229.733 60.9019 233.533 62.7392 235.332 62.7392C237.333 62.7392 241.533 59.2692 241.533 57.2953V54.3019C241.533 51.9878 239.8 50.6953 237.4 49.743L229.133 46.2037C225.934 44.843 223 42.0533 223 38.243V33.8196C223 29.3963 231.733 23 235.934 23C238.733 23 243.266 25.1093 246.267 26.743C247.2 27.2196 247.466 28.3084 247.065 29.1243L245.999 31.4383C245.666 32.2542 244.6 32.5271 243.667 32.1177C241.4 31.0299 237.6 29.2608 235.934 29.2608C234 29.2608 229.467 32.5271 229.467 34.772Z" fill="#443D4E"/>
<path fill-rule="evenodd" clip-rule="evenodd" d="M359.452 28.8818H352.795V43.9279H359.52C362.335 43.9279 365.629 38.9358 365.629 36.2679C365.629 33.6697 362.197 28.8818 359.452 28.8818ZM359.177 49.8087H352.795V66.4966C352.795 67.3853 352.177 68 351.215 68H347.579C346.755 68 346 67.3853 346 66.4966V26.1461C346 24.574 347.854 23 349.363 23H360.345C365.354 23 372 30.7851 372 35.9137C372 39.3338 368.992 44.4739 365.767 46.4583C368.374 47.8252 371.943 51.4505 371.943 54.8018V66.4966C371.943 67.3166 371.258 68 370.433 68H366.659C365.835 68 365.149 67.3166 365.149 66.4966V55.827C365.149 53.433 361.787 49.8087 359.177 49.8087Z" fill="#443D4E"/>
<path fill-rule="evenodd" clip-rule="evenodd" d="M267.088 28.8818H260.611V43.9279H267.154C269.893 43.9279 272.715 38.9358 272.715 36.2679C272.715 33.6697 269.758 28.8818 267.088 28.8818ZM266.821 49.8087H260.611V66.4966C260.611 67.3853 260.009 68 259.075 68H255.536C254.734 68 254 67.3853 254 66.4966V26.1461C254 24.574 255.803 23 257.272 23H267.956C272.829 23 279 31.0275 279 36.1562C279 39.5762 276.527 44.1761 273.669 46.8363C272.265 48.144 270.034 49.8087 266.821 49.8087Z" fill="#443D4E"/>
<path fill-rule="evenodd" clip-rule="evenodd" d="M142.484 69C138.136 69 130 63.2366 130 58.2632V24.8841C130 24.0555 130.722 23.3699 131.517 23.3699H135.002C135.854 23.3699 136.512 24.0555 136.512 24.8841V57.3689C136.512 59.7871 140.441 62.718 142.484 62.718C144.526 62.718 148.482 59.4162 148.482 56.9981V24.5142C148.482 23.6847 149.074 23 149.87 23H153.483C154.278 23 155 23.6847 155 24.5142V57.8933C155 62.718 146.827 69 142.484 69Z" fill="#443D4E"/>
<path fill-rule="evenodd" clip-rule="evenodd" d="M174.157 62.1191H167.763V47.0726H174.225C177.026 47.0726 180.306 51.8024 180.306 54.4694C180.306 57.0686 176.89 62.1191 174.157 62.1191ZM167.763 28.8809H174.157C176.89 28.8809 180.306 32.7984 180.306 35.3976C180.306 38.0646 177.026 42.4202 174.225 42.4202H167.763V28.8809ZM180.751 44.7473C183.864 42.6951 187 38.708 187 35.3976C187 30.2688 180.032 23 175.046 23H164.347C162.845 23 161 24.5731 161 26.1452V42.633V64.8538V66.4966C161 67.3862 161.751 68 162.571 68H164.347H166.191H175.277C180.263 68 187 59.5991 187 54.4694C187 51.1609 183.864 46.8225 180.751 44.7473Z" fill="#443D4E"/>
<path fill-rule="evenodd" clip-rule="evenodd" d="M108.909 45.7491L123.626 28.5057C124.156 27.8843 124.138 26.9651 123.473 26.3838L120.659 23.9259C120.045 23.3885 119.091 23.4591 118.561 24.0805L105.692 39.1591V24.5053C105.692 23.6844 105.083 23 104.205 23H100.487C99.6755 23 99 23.6844 99 24.5053V66.4966C99 67.3166 99.6755 68 100.487 68H104.205C105.083 68 105.692 67.3166 105.692 66.4966V52.3392L118.561 67.4187C119.091 68.0391 120.045 68.1098 120.659 67.5733L123.473 65.1154C124.138 64.5332 124.156 63.614 123.626 62.9935L108.909 45.7491Z" fill="#443D4E"/>
<path fill-rule="evenodd" clip-rule="evenodd" d="M420.51 26.4249H418.67V28.8591H420.51C421.104 28.8591 421.755 28.378 421.755 27.6699C421.755 26.9061 421.104 26.4249 420.51 26.4249ZM421.641 32.4533L419.859 29.7364H418.67V32.4533H417.708V25.576H420.51C421.67 25.576 422.745 26.3966 422.745 27.6699C422.745 29.1985 421.387 29.7081 420.991 29.7081L422.83 32.4533H421.641ZM420 23.9056C417.17 23.9056 414.906 26.1423 414.906 29.0009C414.906 31.802 417.17 34.0944 420 34.0944C422.83 34.0944 425.094 31.802 425.094 29.0009C425.094 26.1423 422.83 23.9056 420 23.9056ZM420 35C416.689 35 414 32.3115 414 29.0009C414 25.6611 416.689 23 420 23C423.34 23 426 25.6611 426 29.0009C426 32.3115 423.34 35 420 35Z" fill="#443D4E"/>
<path fill-rule="evenodd" clip-rule="evenodd" d="M65 71.6465L46 60.647V82.647L65 71.6465Z" fill="#00A971"/>
<path fill-rule="evenodd" clip-rule="evenodd" d="M65 19.647L46 8.64697V30.647L65 19.647Z" fill="#00A971"/>
<path fill-rule="evenodd" clip-rule="evenodd" d="M19.6782 45.6474L37 35.5556V3.64697L1 24.6199V66.675L37 87.647V55.7393L19.6782 45.6474Z" fill="#00A971"/>
<path fill-rule="evenodd" clip-rule="evenodd" d="M37 45.647L74 66.647V24.647L37 45.647Z" fill="#00A971"/>
</svg>
