<?xml version="1.0" standalone="no"?>
<!DOCTYPE svg PUBLIC "-//W3C//DTD SVG 1.0//EN" "http://www.w3.org/TR/2001/REC-SVG-20010904/DTD/svg10.dtd">
<svg xmlns="http://www.w3.org/2000/svg" xmlns:xlink="http://www.w3.org/1999/xlink" id="body_1" width="135" height="39">

<g transform="matrix(0.3375 0 0 0.3391305 0 0)">
    <path transform="matrix(1 0 0 1.001405 0 3.820055E-06)"  d="M46.183 0.274C 46.167 0.631 45.761 0.911 45.496 0.748C 45.419 0.7 45.309 0.739 45.25 0.833C 45.191 0.928 45.074 0.962 44.988 0.91C 44.903 0.857 44.833 0.898 44.833 1C 44.833 1.102 44.758 1.14 44.667 1.083C 44.569 1.023 44.5 1.193 44.5 1.49C 44.5 1.974 44.466 2 43.833 2C 43.467 2 43.167 2.063 43.167 2.139C 43.167 2.215 43.054 2.278 42.917 2.278C 42.779 2.278 42.667 2.215 42.667 2.139C 42.667 2.063 42.594 2 42.505 2C 42.416 2 42.392 2.126 42.451 2.279C 42.532 2.49 42.49 2.532 42.279 2.451C 42.126 2.392 42 2.416 42 2.505C 42 2.594 42.063 2.667 42.139 2.667C 42.215 2.667 42.278 2.779 42.278 2.917C 42.278 3.093 42.099 3.167 41.67 3.167C 41.289 3.167 40.927 3.293 40.698 3.506C 40.406 3.779 40.333 3.795 40.333 3.59C 40.333 3.449 40.254 3.333 40.157 3.333C 40.06 3.333 40.029 3.412 40.088 3.507C 40.147 3.603 40.105 3.79 39.994 3.924C 39.883 4.057 39.858 4.168 39.938 4.169C 40.418 4.178 39.469 4.495 38.958 4.497C 38.548 4.499 38.348 4.572 38.375 4.708C 38.398 4.823 38.339 4.903 38.243 4.887C 38.148 4.87 37.923 5.076 37.743 5.345C 37.395 5.864 37.394 5.865 36.5 5.896C 35.832 5.92 35.524 6.127 35.611 6.495C 35.725 6.98 35.405 7.167 34.387 7.209C 33.723 7.236 33.401 7.314 33.448 7.437C 33.487 7.54 33.406 7.667 33.268 7.72C 33.129 7.773 33.042 7.953 33.074 8.119C 33.122 8.366 33.03 8.416 32.565 8.394C 32.254 8.38 31.959 8.432 31.911 8.51C 31.862 8.588 31.694 8.611 31.536 8.56C 31.369 8.507 31.319 8.527 31.417 8.609C 31.508 8.687 31.608 8.86 31.637 8.995C 31.677 9.177 31.6 9.158 31.342 8.924C 31.064 8.673 30.95 8.65 30.788 8.814C 30.626 8.977 30.653 8.994 30.917 8.895C 31.199 8.79 31.219 8.81 31.046 9.023C 30.899 9.204 30.892 9.326 31.022 9.455C 31.151 9.585 31.138 9.633 30.976 9.625C 30.03 9.58 29.273 9.687 29.5 9.833C 29.747 9.993 29.556 10.088 29.125 10.02C 29.056 10.009 29 10.225 29 10.5C 29 10.983 28.599 11.153 27.785 11.017C 27.712 11.005 27.506 11.074 27.327 11.17C 27.096 11.293 27 11.292 27 11.166C 27 11.055 26.911 11.069 26.766 11.202C 26.638 11.32 26.59 11.438 26.659 11.464C 26.728 11.49 26.75 11.697 26.706 11.922C 26.627 12.339 26.441 12.383 24.795 12.378C 24.637 12.378 24.555 12.454 24.613 12.547C 24.67 12.641 24.605 12.8 24.467 12.9C 24.224 13.078 24.167 13.187 24.167 13.471C 24.167 13.547 23.941 13.576 23.665 13.535C 23.039 13.443 22.667 13.738 22.667 14.326C 22.667 14.822 22.638 14.832 21.175 14.826C 20.676 14.824 20.317 14.872 20.378 14.933C 20.438 14.994 20.384 15.193 20.257 15.374C 20.129 15.556 20.061 15.799 20.105 15.913C 20.179 16.105 18.673 16.422 17.795 16.399C 17.582 16.393 17.552 16.445 17.682 16.601C 18.024 17.014 17.561 17.5 16.827 17.5C 16.435 17.5 16.167 17.579 16.167 17.694C 16.167 17.801 16.118 17.84 16.058 17.78C 15.998 17.721 15.843 17.802 15.712 17.961C 15.566 18.14 15.522 18.155 15.598 18C 15.668 17.855 15.657 17.808 15.571 17.887C 15.488 17.962 15.42 18.149 15.419 18.303C 15.417 18.513 15.239 18.596 14.708 18.635C 14.319 18.663 14 18.757 14 18.843C 14 18.929 13.887 19 13.75 19C 13.612 19 13.519 19.056 13.542 19.125C 13.632 19.395 12.825 19.981 12.233 20.075C 11.482 20.194 11.233 20.38 11.097 20.924C 11.011 21.262 10.891 21.333 10.403 21.333C 10.077 21.333 9.666 21.411 9.489 21.506C 9.267 21.625 9.167 21.625 9.167 21.506C 9.167 21.411 9.087 21.333 8.99 21.333C 8.893 21.333 8.859 21.406 8.914 21.495C 8.969 21.584 8.898 21.834 8.756 22.05C 8.615 22.266 8.534 22.478 8.577 22.521C 8.62 22.564 8.376 22.617 8.036 22.638C 7.692 22.66 7.324 22.8 7.208 22.954C 7.094 23.106 7 23.182 7 23.123C 7 23.064 6.816 23.199 6.591 23.424C 6.31 23.705 5.996 23.833 5.591 23.833C 5.266 23.833 5 23.908 5 24C 5 24.092 4.887 24.167 4.75 24.167C 4.583 24.167 4.5 24.333 4.5 24.667C 4.5 25.194 4.42 25.22 2.708 25.234C 2.502 25.235 2.333 25.3 2.333 25.378C 2.333 25.456 2.266 25.478 2.184 25.427C 2.102 25.376 2.045 25.576 2.059 25.87C 2.075 26.231 2.002 26.417 1.833 26.442C 1.696 26.462 1.227 26.526 0.792 26.583L0.792 26.583L0 26.687L0 57.502L0 88.317L1.032 88.367C 2.041 88.416 2.066 88.428 2.203 88.958C 2.28 89.256 2.453 89.509 2.588 89.521C 2.723 89.532 2.908 89.56 3 89.583C 3.092 89.606 3.467 89.634 3.833 89.646C 4.461 89.665 4.5 89.696 4.5 90.177C 4.5 90.457 4.57 90.643 4.655 90.59C 4.74 90.538 4.857 90.571 4.915 90.664C 4.973 90.757 5.162 90.833 5.335 90.833C 5.848 90.833 6.448 91.175 6.673 91.596C 6.789 91.812 6.939 91.955 7.006 91.913C 7.074 91.871 7.222 91.949 7.335 92.085C 7.448 92.222 7.799 92.333 8.114 92.333C 8.429 92.333 8.646 92.399 8.596 92.479C 8.374 92.839 9.256 93.434 10.076 93.476C 11.102 93.529 11.141 93.556 11.099 94.166C 11.08 94.441 11.144 94.67 11.24 94.675C 12.522 94.737 13.692 95.256 13.545 95.698C 13.504 95.823 13.987 96.005 14.558 96.08C 15.071 96.148 15.51 96.349 15.429 96.48C 15.391 96.542 15.51 96.778 15.694 97.005C 15.878 97.231 15.974 97.304 15.907 97.167C 15.807 96.964 15.827 96.956 16.009 97.125C 16.132 97.24 16.513 97.333 16.855 97.333C 17.443 97.333 17.686 97.554 17.654 98.057C 17.634 98.354 18.243 98.611 19.052 98.648C 20.077 98.694 20.167 98.743 20.167 99.257C 20.167 99.556 20.285 99.692 20.625 99.782C 21.29 99.959 21.273 99.956 22 99.979C 22.618 99.998 22.667 100.035 22.667 100.48C 22.667 101.016 22.919 101.278 23.417 101.256C 23.884 101.236 24.333 101.47 24.333 101.735C 24.333 102.107 24.731 102.321 25.681 102.46C 26.522 102.583 26.583 102.623 26.577 103.046C 26.572 103.357 26.677 103.537 26.91 103.617C 27.402 103.786 27.428 103.79 28.25 103.813C 28.965 103.832 29 103.856 29 104.325C 29 104.805 29.623 105.162 30.465 105.166C 30.583 105.166 30.978 105.471 31.342 105.842C 31.706 106.213 32.072 106.475 32.155 106.424C 32.393 106.277 33.167 106.634 33.167 106.892C 33.167 107.295 33.582 107.496 34.638 107.607C 35.199 107.665 35.629 107.759 35.595 107.815C 35.395 108.14 35.971 108.918 36.429 108.94C 36.697 108.954 37.029 108.973 37.167 108.983C 37.304 108.993 37.567 109.227 37.75 109.504C 37.972 109.838 38.306 110.063 38.75 110.176C 39.691 110.415 40.18 110.64 39.792 110.655C 39.631 110.662 39.5 110.746 39.5 110.843C 39.5 110.94 39.57 110.976 39.656 110.923C 39.742 110.87 40.096 110.986 40.442 111.181C 40.789 111.376 41.263 111.568 41.495 111.608C 41.939 111.685 42.333 112.08 42.333 112.449C 42.333 112.569 42.408 112.676 42.5 112.688C 42.592 112.699 42.742 112.727 42.833 112.75C 42.925 112.773 43.337 112.801 43.75 112.813C 44.455 112.832 44.5 112.861 44.5 113.3C 44.5 113.77 45.134 114.167 45.887 114.167C 46.061 114.167 46.173 114.308 46.183 114.542C 46.199 114.901 46.205 114.9 46.333 114.5C 46.461 114.1 46.467 114.099 46.483 114.458L46.483 114.458L46.5 114.833L49.75 114.833C 52.889 114.833 53 114.822 53 114.5C 53 114.245 53.118 114.162 53.5 114.146C 53.775 114.134 54.071 114.116 54.158 114.104C 54.428 114.069 54.726 113.688 54.785 113.304C 54.858 112.828 54.792 112.859 55.804 112.813C 56.288 112.791 56.723 112.71 56.77 112.634C 56.818 112.557 56.926 112.538 57.012 112.59C 57.097 112.643 57.168 112.551 57.169 112.385C 57.174 111.866 57.449 111.614 57.994 111.63C 58.316 111.639 58.556 111.549 58.614 111.396C 58.667 111.259 58.806 111.185 58.924 111.23C 59.042 111.275 59.18 111.205 59.231 111.073C 59.282 110.941 59.456 110.832 59.62 110.831C 59.864 110.829 59.874 110.801 59.675 110.676C 59.416 110.511 60.116 110.252 60.708 110.292C 60.869 110.304 61 110.253 61 110.181C 61 109.826 62.035 109 62.479 109C 62.929 109 63.846 108.448 63.81 108.199C 63.751 107.784 63.893 107.666 64.458 107.657C 65.225 107.646 66.259 107.31 66.225 107.083C 66.161 106.663 66.504 106.378 67.004 106.436C 67.449 106.488 67.542 106.428 67.692 105.998C 67.788 105.724 67.929 105.539 68.006 105.587C 68.083 105.635 68.208 105.564 68.283 105.429C 68.363 105.287 68.716 105.167 69.13 105.143C 69.521 105.12 69.946 104.985 70.075 104.842C 70.312 104.58 70.333 104.52 70.333 104.099C 70.333 103.935 70.622 103.837 71.292 103.773C 72.662 103.643 72.665 103.642 72.688 103.306C 72.699 103.138 72.718 102.906 72.729 102.792C 72.741 102.677 72.975 102.563 73.25 102.539C 74.197 102.454 75.203 102.126 74.97 101.978C 74.79 101.864 74.79 101.838 74.968 101.836C 75.088 101.834 75.14 101.758 75.083 101.666C 74.959 101.465 75.798 101.118 76.116 101.239C 76.379 101.341 77.055 100.724 76.92 100.505C 76.818 100.34 77.113 100.112 77.5 100.057C 79.22 99.811 79.15 99.843 79.26 99.256C 79.368 98.681 79.652 98.579 81.375 98.494C 81.535 98.486 81.676 98.371 81.688 98.24C 81.699 98.108 81.727 97.925 81.75 97.833C 81.773 97.742 81.801 97.592 81.813 97.5C 81.824 97.408 82.156 97.333 82.55 97.333C 82.944 97.333 83.357 97.243 83.467 97.133C 83.577 97.023 83.667 96.986 83.667 97.05C 83.667 97.114 83.804 97.035 83.971 96.875C 84.139 96.715 84.243 96.49 84.203 96.375C 84.164 96.26 84.233 96.159 84.357 96.15C 85.672 96.054 85.706 96.035 85.795 95.372C 85.87 94.808 85.752 94.866 86.935 94.808C 88.03 94.753 88.219 94.642 88.308 94C 88.381 93.474 88.281 93.526 89.313 93.479C 89.859 93.454 90.233 93.355 90.284 93.22C 90.331 93.1 90.435 93.043 90.517 93.094C 90.644 93.172 90.738 92.843 90.693 92.479C 90.686 92.422 91.029 92.336 91.455 92.288C 91.929 92.234 92.315 92.084 92.448 91.902C 92.568 91.737 92.667 91.658 92.667 91.725C 92.667 91.792 92.771 91.75 92.899 91.632C 93.027 91.513 93.101 91.366 93.063 91.303C 92.961 91.135 93.219 91.016 93.935 90.903C 94.375 90.833 94.734 90.623 95.08 90.236C 95.471 89.797 95.733 89.661 96.25 89.627C 96.95 89.581 97.335 89.253 97.379 88.665C 97.399 88.401 97.532 88.329 98.035 88.313C 99.152 88.276 99.232 88.255 99.577 87.917C 99.834 87.664 99.929 87.324 99.968 86.516C 100.012 85.624 100.085 85.398 100.419 85.135L100.419 85.135L100.817 84.822L100.829 78.889C 100.836 75.626 100.888 72.879 100.946 72.785C 101.007 72.688 100.969 72.666 100.859 72.734C 100.619 72.882 100.605 72.628 100.84 72.393C 101.127 72.106 100.57 71.735 100.25 72C 99.788 72.384 99.947 71.338 100.417 70.902L100.417 70.902L100.833 70.516L100.833 57.541C 100.833 47.39 100.879 44.519 101.042 44.346C 101.214 44.164 101.179 44.163 100.833 44.34C 100.46 44.532 100.439 44.527 100.633 44.292C 100.781 44.113 100.793 43.995 100.672 43.92C 100.574 43.86 100.545 43.729 100.606 43.629C 100.675 43.519 100.64 43.497 100.518 43.572C 100.363 43.668 100.366 43.759 100.531 43.973C 100.72 44.219 100.707 44.218 100.409 43.966C 99.952 43.578 99.9 42.828 100.322 42.718C 100.499 42.672 100.685 42.525 100.737 42.392C 100.797 42.233 100.758 42.19 100.623 42.266C 100.462 42.357 100.462 42.333 100.625 42.158C 100.919 41.841 100.927 29.994 100.633 29.7C 100.478 29.544 100.484 29.5 100.661 29.5C 100.786 29.5 100.839 29.45 100.779 29.39C 100.718 29.329 100.531 29.405 100.362 29.557C 100.101 29.793 100.056 29.797 100.056 29.584C 100.056 29.446 100.137 29.332 100.236 29.331C 100.35 29.329 100.344 29.282 100.218 29.202C 100.109 29.132 100.001 28.717 99.978 28.278C 99.955 27.839 99.875 27.442 99.799 27.395C 99.723 27.349 99.705 27.24 99.758 27.154C 99.811 27.068 99.738 26.953 99.595 26.898C 99.452 26.843 99.377 26.731 99.427 26.649C 99.478 26.567 99.44 26.5 99.343 26.5C 99.246 26.5 99.167 26.579 99.167 26.677C 99.167 26.774 99.087 26.804 98.99 26.744C 98.892 26.684 98.574 26.601 98.281 26.559C 97.441 26.441 97.333 26.37 97.333 25.933C 97.333 25.503 97.18 25.414 96.167 25.253C 95.784 25.192 95.376 24.942 94.981 24.527C 94.536 24.06 94.242 23.894 93.861 23.894C 93.536 23.894 93.193 23.743 92.938 23.489C 92.221 22.774 92.025 22.667 91.437 22.667C 90.931 22.667 90.846 22.605 90.75 22.167C 90.69 21.892 90.552 21.661 90.445 21.654C 90.338 21.647 90.1 21.602 89.917 21.554C 89.733 21.506 89.302 21.429 88.958 21.383C 88.514 21.323 88.333 21.216 88.333 21.014C 88.333 20.433 87.937 20.17 86.899 20.063C 85.897 19.959 85.88 19.949 85.733 19.354C 85.593 18.79 85.537 18.747 84.871 18.699C 84.48 18.67 84.2 18.581 84.249 18.501C 84.438 18.196 83.24 17.5 82.526 17.5C 82.031 17.5 81.827 17.429 81.813 17.25C 81.779 16.851 81.753 16.769 81.542 16.417C 81.433 16.233 81.341 16.175 81.338 16.288C 81.335 16.438 81.22 16.449 80.906 16.329C 80.671 16.24 80.221 16.167 79.906 16.167C 79.352 16.167 79.209 15.956 79.314 15.292C 79.324 15.223 79.254 15.167 79.157 15.167C 79.06 15.167 79.027 15.092 79.083 15C 79.148 14.896 78.811 14.833 78.186 14.833C 77.61 14.833 77.136 14.752 77.067 14.641C 76.989 14.514 77.029 14.49 77.183 14.57C 77.311 14.637 77.285 14.584 77.125 14.452C 76.965 14.321 76.833 14.13 76.833 14.029C 76.833 13.746 76.176 13.459 75.725 13.545C 75.342 13.619 74.864 13.145 74.965 12.792C 74.984 12.723 74.869 12.661 74.708 12.655C 74.459 12.645 74.465 12.622 74.75 12.5C 74.986 12.398 75.008 12.353 74.825 12.345C 74.683 12.339 74.485 12.415 74.385 12.515C 74.255 12.645 74.173 12.645 74.092 12.515C 74.031 12.415 73.722 12.333 73.407 12.333C 73.028 12.333 72.833 12.255 72.833 12.102C 72.833 11.439 72.1 11.039 70.833 11.012C 70.331 11.002 70.247 10.941 70.226 10.58C 70.188 9.93 69.871 9.668 69.156 9.696C 68.804 9.709 68.412 9.634 68.284 9.528C 68.157 9.423 68.01 9.378 67.959 9.43C 67.907 9.482 67.814 9.293 67.753 9.012C 67.636 8.482 67.097 8.197 66.584 8.393C 66.361 8.479 66.289 8.325 66.348 7.89C 66.356 7.829 66.242 7.712 66.095 7.63C 65.947 7.547 65.87 7.409 65.923 7.323C 65.976 7.237 65.94 7.167 65.843 7.167C 65.746 7.167 65.667 7.24 65.667 7.329C 65.667 7.435 65.517 7.435 65.239 7.329C 65.004 7.24 64.592 7.167 64.322 7.167C 63.865 7.167 63.73 6.977 63.815 6.455C 63.842 6.29 63.049 5.957 62.469 5.891C 62.107 5.849 60.963 5 61.269 5C 61.664 5 60.742 4.511 60.27 4.47C 59.934 4.441 59.668 4.348 59.678 4.265C 59.695 4.123 59.278 3.813 59.087 3.827C 59.039 3.83 58.843 3.676 58.65 3.484C 58.409 3.242 58.153 3.155 57.824 3.204C 57.358 3.272 56.993 2.669 57.147 2.083C 57.171 1.992 57.099 2.007 56.986 2.117C 56.847 2.254 56.687 2.267 56.481 2.157C 56.316 2.068 56.121 2.005 56.048 2.017C 55.29 2.144 54.89 1.972 54.696 1.435C 54.516 0.938 54.402 0.856 53.746 0.758C 53.157 0.67 53 0.578 53 0.323C 53 0.014 52.855 0 49.75 0L49.75 0L46.5 0L46.483 0.375C 46.467 0.735 46.461 0.733 46.333 0.333C 46.212 -0.044 46.198 -0.05 46.183 0.274M50.489 29.341C 50.908 29.529 51.512 29.826 51.833 30.001C 52.154 30.176 52.867 30.538 53.417 30.804C 53.967 31.07 54.557 31.445 54.728 31.637C 54.899 31.829 55.4 32.106 55.84 32.252C 56.281 32.399 56.741 32.639 56.862 32.786C 56.984 32.933 57.484 33.231 57.974 33.449C 58.464 33.666 59.139 34.058 59.474 34.321C 59.809 34.584 60.271 34.855 60.5 34.924C 60.729 34.992 61.142 35.217 61.417 35.424C 61.692 35.631 62.217 35.924 62.583 36.076C 62.95 36.227 63.438 36.525 63.667 36.739C 63.896 36.952 64.383 37.22 64.75 37.333C 65.117 37.447 65.604 37.714 65.833 37.926C 66.063 38.138 66.616 38.468 67.063 38.659C 67.51 38.85 68.098 39.193 68.368 39.42C 68.638 39.647 69.059 39.882 69.305 39.942C 69.55 40.002 69.974 40.237 70.249 40.465C 70.523 40.693 71.078 41.022 71.482 41.195C 71.886 41.368 72.471 41.733 72.781 42.005C 73.091 42.277 73.424 42.5 73.522 42.5C 73.619 42.5 73.916 42.655 74.183 42.845L74.183 42.845L74.667 43.189L74.667 56.811C 74.667 66.224 74.612 70.488 74.489 70.611C 74.192 70.908 72.82 70.521 72.338 70.005C 72.078 69.727 71.588 69.474 71.063 69.348C 70.449 69.201 70.16 69.035 70.034 68.759C 69.926 68.521 69.575 68.277 69.12 68.121C 68.713 67.983 68.059 67.637 67.665 67.352C 67.272 67.067 66.819 66.833 66.66 66.833C 66.5 66.833 66.015 66.54 65.581 66.181C 65.147 65.823 64.54 65.482 64.234 65.425C 63.927 65.367 63.617 65.218 63.546 65.094C 63.366 64.78 62.354 64.221 61.731 64.091C 61.415 64.026 61.143 63.831 61.034 63.592C 60.919 63.34 60.572 63.105 60.053 62.929C 59.611 62.78 58.955 62.434 58.595 62.162C 58.235 61.89 57.811 61.667 57.653 61.667C 57.494 61.667 57.052 61.406 56.671 61.087C 56.289 60.767 55.695 60.431 55.352 60.338C 55.009 60.246 54.551 59.982 54.334 59.751C 54.118 59.52 53.542 59.206 53.055 59.053C 52.557 58.896 52.132 58.653 52.082 58.497C 51.714 57.336 47.791 57.321 47.423 58.479C 47.356 58.69 46.998 58.884 46.326 59.072C 45.646 59.263 45.244 59.482 45.06 59.762C 44.891 60.02 44.518 60.241 44.057 60.357C 43.654 60.459 43.082 60.768 42.787 61.045C 42.492 61.322 42.009 61.615 41.714 61.697C 41.418 61.779 40.957 62.032 40.687 62.258C 40.418 62.485 39.871 62.783 39.474 62.921C 39.076 63.059 38.6 63.348 38.417 63.564C 38.233 63.78 37.7 64.082 37.232 64.234C 36.764 64.386 36.21 64.693 36 64.917C 35.79 65.14 35.263 65.44 34.829 65.585C 34.395 65.729 33.899 66.003 33.728 66.193C 33.557 66.383 33.042 66.706 32.583 66.909C 32.125 67.113 31.65 67.4 31.529 67.547C 31.407 67.695 30.936 67.939 30.481 68.09C 30.024 68.241 29.542 68.535 29.404 68.746C 29.258 68.968 28.834 69.217 28.383 69.343C 27.958 69.462 27.363 69.777 27.059 70.044C 26.63 70.42 26.328 70.535 25.712 70.556L25.712 70.556L24.917 70.583L24.874 56.887L24.831 43.191L25.316 42.845C 25.583 42.655 25.875 42.5 25.966 42.5C 26.056 42.5 26.493 42.2 26.937 41.833C 27.381 41.467 27.831 41.167 27.937 41.167C 28.043 41.167 28.494 40.917 28.94 40.611C 29.385 40.305 29.955 40.004 30.205 39.942C 30.456 39.879 30.906 39.616 31.205 39.357C 31.505 39.097 32.11 38.749 32.55 38.583C 32.989 38.418 33.418 38.153 33.503 37.995C 33.587 37.838 34.05 37.58 34.532 37.422C 35.014 37.264 35.649 36.924 35.943 36.666C 36.237 36.407 36.652 36.143 36.864 36.079C 37.076 36.014 37.493 35.78 37.789 35.558C 38.085 35.335 38.648 35.041 39.038 34.903C 39.429 34.765 39.974 34.44 40.249 34.179C 40.525 33.919 41.05 33.615 41.417 33.504C 41.783 33.393 42.233 33.131 42.417 32.922C 42.6 32.714 43.135 32.418 43.605 32.265C 44.076 32.111 44.601 31.829 44.772 31.636C 44.943 31.443 45.486 31.106 45.978 30.886C 46.47 30.666 47.108 30.315 47.395 30.105C 47.682 29.894 48.232 29.633 48.618 29.523C 49.004 29.414 49.364 29.251 49.42 29.162C 49.556 28.941 49.619 28.951 50.489 29.341M50.636 58.324C 50.938 58.411 51.437 58.703 51.745 58.973C 52.053 59.244 52.592 59.557 52.944 59.67C 53.296 59.782 53.733 60.007 53.917 60.168C 54.1 60.33 54.587 60.629 55 60.833C 55.413 61.037 55.9 61.34 56.083 61.505C 56.267 61.671 56.754 61.936 57.167 62.095C 57.579 62.254 58.105 62.557 58.336 62.768C 58.566 62.98 59.081 63.269 59.479 63.409C 59.878 63.55 60.453 63.883 60.756 64.15C 61.06 64.417 61.558 64.687 61.863 64.752C 62.167 64.816 62.604 65.044 62.833 65.259C 63.063 65.473 63.55 65.774 63.917 65.927C 64.283 66.08 64.825 66.418 65.121 66.678C 65.417 66.938 65.925 67.2 66.251 67.261C 66.576 67.322 67.042 67.584 67.287 67.844C 67.532 68.104 68.066 68.414 68.474 68.533C 68.882 68.652 69.41 68.956 69.649 69.209C 69.894 69.467 70.467 69.779 70.966 69.924C 71.452 70.065 71.893 70.295 71.947 70.436C 72.001 70.576 72.391 70.856 72.814 71.056C 73.74 71.496 73.839 71.96 73.083 72.311C 72.808 72.438 72.396 72.714 72.167 72.925C 71.938 73.135 71.412 73.44 71 73.603C 70.587 73.765 70.051 74.108 69.808 74.365C 69.565 74.623 69.243 74.833 69.093 74.833C 68.735 74.833 67.5 75.466 67.5 75.65C 67.5 75.728 67.141 75.947 66.702 76.136C 66.263 76.324 65.767 76.63 65.599 76.816C 65.431 77.001 64.937 77.272 64.5 77.417C 64.063 77.562 63.566 77.838 63.395 78.031C 63.223 78.224 62.675 78.564 62.176 78.786C 61.678 79.009 61.053 79.373 60.789 79.595C 60.524 79.818 60.211 80 60.093 80C 59.975 80 59.437 80.3 58.897 80.666C 58.358 81.033 57.826 81.333 57.714 81.333C 57.603 81.333 57.265 81.545 56.964 81.805C 56.663 82.064 56.079 82.407 55.667 82.568C 55.254 82.728 54.729 83.032 54.5 83.243C 54.271 83.455 53.708 83.815 53.25 84.044C 52.792 84.273 52.001 84.675 51.494 84.938C 49.847 85.792 49.848 85.792 48.768 85.36C 48.227 85.144 47.492 84.755 47.133 84.495C 46.774 84.235 46.271 83.976 46.014 83.92C 45.757 83.863 45.337 83.598 45.08 83.33C 44.823 83.062 44.259 82.725 43.826 82.581C 43.393 82.437 42.904 82.17 42.738 81.987C 42.573 81.804 42.099 81.505 41.686 81.322C 41.273 81.14 40.706 80.816 40.426 80.603C 40.146 80.391 39.57 80.064 39.147 79.877C 38.723 79.691 38.326 79.456 38.265 79.357C 38.203 79.258 37.82 79.029 37.414 78.849C 37.008 78.67 36.392 78.302 36.046 78.032C 35.7 77.762 35.182 77.464 34.895 77.37C 34.609 77.275 34.054 76.966 33.662 76.682C 33.27 76.399 32.867 76.166 32.767 76.165C 32.666 76.164 32.247 75.896 31.837 75.57C 31.426 75.243 30.883 74.935 30.631 74.884C 30.378 74.834 29.964 74.6 29.711 74.365C 29.457 74.13 28.908 73.807 28.489 73.648C 28.071 73.488 27.482 73.128 27.18 72.846C 26.878 72.564 26.552 72.333 26.454 72.333C 26.23 72.333 25.667 71.831 25.667 71.632C 25.667 71.549 26.069 71.304 26.561 71.086C 27.053 70.869 27.499 70.576 27.553 70.436C 27.607 70.295 28.065 70.06 28.572 69.913C 29.111 69.756 29.622 69.481 29.805 69.248C 29.977 69.029 30.509 68.702 30.986 68.521C 31.464 68.339 32.039 68.007 32.263 67.782C 32.488 67.558 32.903 67.328 33.186 67.271C 33.468 67.215 33.978 66.948 34.318 66.679C 34.657 66.41 35.252 66.063 35.639 65.908C 36.026 65.754 36.434 65.498 36.546 65.339C 36.658 65.181 37.132 64.926 37.598 64.771C 38.065 64.617 38.66 64.268 38.921 63.996C 39.182 63.723 39.497 63.5 39.621 63.5C 39.95 63.5 41.167 62.852 41.167 62.677C 41.167 62.595 41.523 62.395 41.958 62.233C 42.394 62.071 43.017 61.733 43.343 61.481C 43.669 61.229 44.252 60.896 44.639 60.742C 45.026 60.587 45.434 60.335 45.546 60.182C 45.658 60.03 46.087 59.796 46.5 59.663C 46.913 59.53 47.513 59.184 47.835 58.894C 48.595 58.209 49.554 58.014 50.636 58.324" stroke="none" fill="#84C454" fill-rule="nonzero" />
    <path transform="matrix(1 0 0 1.001405 0 3.820055E-06)"  d="M53 0.333C 53 0.517 53.075 0.667 53.167 0.667C 53.258 0.667 53.333 0.517 53.333 0.333C 53.333 0.15 53.258 0 53.167 0C 53.075 0 53 0.15 53 0.333M44.59 0.822C 44.538 0.907 44.571 1.024 44.664 1.082C 44.757 1.139 44.833 1.102 44.833 1C 44.833 0.898 44.903 0.857 44.988 0.91C 45.074 0.962 45.191 0.929 45.248 0.836C 45.306 0.743 45.203 0.667 45.02 0.667C 44.836 0.667 44.643 0.736 44.59 0.822M42.099 2.141C 42.042 2.234 42.076 2.36 42.175 2.422C 42.431 2.58 42.597 2.363 42.383 2.149C 42.263 2.03 42.17 2.027 42.099 2.141M57.178 2.615C 57.216 3.048 57.477 3.415 57.488 3.052C 57.495 2.851 57.425 2.64 57.333 2.583C 57.242 2.527 57.172 2.541 57.178 2.615M59.333 3.458C 59.333 3.567 59.221 3.613 59.083 3.56C 58.946 3.508 58.833 3.547 58.833 3.649C 58.833 3.75 58.89 3.821 58.958 3.807C 59.193 3.757 59.665 4.035 59.58 4.173C 59.533 4.248 59.558 4.35 59.636 4.398C 59.862 4.538 59.806 3.948 59.559 3.588C 59.435 3.407 59.333 3.348 59.333 3.458M39.768 3.93C 39.629 4.293 39.638 4.333 39.861 4.333C 39.968 4.333 40.006 4.284 39.946 4.224C 39.886 4.163 39.92 4.013 40.022 3.89C 40.139 3.75 40.145 3.667 40.038 3.667C 39.945 3.667 39.823 3.785 39.768 3.93M33.088 7.301C 32.982 7.407 33.151 7.667 33.325 7.667C 33.402 7.667 33.503 7.567 33.55 7.444C 33.629 7.238 33.264 7.125 33.088 7.301M31.66 8.591C 31.493 8.793 31.418 8.803 31.315 8.638C 31.244 8.521 31.143 8.468 31.091 8.52C 31.04 8.571 31.167 8.756 31.374 8.93C 31.581 9.104 31.694 9.178 31.625 9.095C 31.556 9.012 31.624 8.806 31.775 8.639C 31.927 8.471 32.012 8.333 31.963 8.333C 31.914 8.333 31.778 8.449 31.66 8.591M67.725 8.911C 67.784 9.067 67.833 9.275 67.833 9.375C 67.833 9.474 67.883 9.506 67.943 9.446C 68.003 9.386 68.156 9.422 68.283 9.528C 68.457 9.672 68.562 9.672 68.707 9.526C 68.853 9.38 68.847 9.333 68.68 9.333C 68.509 9.333 68.503 9.28 68.654 9.098C 68.804 8.918 68.803 8.834 68.649 8.739C 68.522 8.661 68.492 8.686 68.567 8.808C 68.719 9.052 68.415 9.055 67.964 8.814C 67.666 8.655 67.632 8.669 67.725 8.911M72.111 11.167C 72.309 11.247 72.551 11.448 72.647 11.614C 72.744 11.781 72.825 11.828 72.828 11.72C 72.836 11.429 72.351 10.998 72.03 11.011C 71.822 11.018 71.843 11.059 72.111 11.167M24.103 12.469C 23.9 12.796 24.335 13.089 24.57 12.783C 24.711 12.599 24.834 12.552 24.887 12.662C 24.942 12.773 24.961 12.767 24.937 12.644C 24.893 12.416 24.223 12.275 24.103 12.469M74.75 12.509C 74.454 12.628 74.45 12.645 74.718 12.655C 74.884 12.661 74.984 12.725 74.94 12.796C 74.895 12.868 74.999 13.111 75.171 13.338C 75.396 13.637 75.471 13.671 75.44 13.463C 75.417 13.305 75.352 13.129 75.294 13.072C 75.237 13.014 75.227 12.87 75.273 12.751C 75.386 12.455 75.153 12.347 74.75 12.509M22.382 13.761C 21.725 14.049 21.373 14.614 21.676 14.893C 21.832 15.037 21.854 15.033 21.767 14.878C 21.62 14.619 21.943 14 22.224 14C 22.341 14 22.582 13.89 22.76 13.755C 23.155 13.456 23.076 13.457 22.382 13.761M77.258 13.987C 77.195 14.089 77.074 14.129 76.988 14.076C 76.715 13.907 76.823 14.205 77.125 14.452C 77.303 14.599 77.32 14.645 77.167 14.571C 76.963 14.473 76.956 14.493 77.126 14.677C 77.302 14.866 77.382 14.856 77.62 14.618C 77.881 14.357 77.882 14.311 77.639 14.067C 77.455 13.884 77.337 13.859 77.258 13.987M22.258 14.491C 21.976 14.803 21.978 14.814 22.316 14.789C 22.532 14.773 22.667 14.648 22.667 14.465C 22.667 14.088 22.62 14.091 22.258 14.491M20.154 14.865C 20.079 15.179 20.004 15.713 20.043 15.657C 20.071 15.616 20.189 15.459 20.305 15.307C 20.448 15.119 20.46 14.995 20.341 14.922C 20.245 14.862 20.161 14.837 20.154 14.865M17.667 16.383C 17.667 16.455 17.948 16.464 18.292 16.402C 19.164 16.244 19.202 16.144 18.368 16.202C 17.982 16.228 17.667 16.31 17.667 16.383M17.503 17.042C 17.505 17.345 17.536 17.369 17.667 17.167C 17.875 16.844 17.875 16.667 17.667 16.667C 17.575 16.667 17.501 16.835 17.503 17.042M15.727 17.749C 15.675 17.886 15.564 17.956 15.481 17.905C 15.399 17.854 15.281 17.948 15.219 18.114C 15.158 18.281 15.027 18.472 14.929 18.539C 14.82 18.614 14.86 18.663 15.032 18.664C 15.187 18.666 15.445 18.446 15.604 18.176C 15.764 17.906 15.967 17.73 16.056 17.785C 16.146 17.84 16.165 17.799 16.099 17.692C 15.94 17.435 15.842 17.45 15.727 17.749M83.5 17.636C 83.5 17.673 83.688 17.85 83.918 18.031C 84.148 18.212 84.294 18.429 84.242 18.513C 84.19 18.598 84.228 18.667 84.327 18.667C 84.486 18.667 84.418 17.986 84.224 17.636C 84.158 17.518 83.5 17.519 83.5 17.636M85.77 19.458C 85.912 20.05 85.891 20.034 86.443 19.971L86.443 19.971L86.917 19.917L86.466 19.458C 86.218 19.206 85.935 19 85.838 19C 85.729 19 85.703 19.177 85.77 19.458M11.093 20.437C 10.949 21.011 11.039 21.076 11.278 20.571C 11.383 20.349 11.409 20.13 11.335 20.085C 11.262 20.039 11.153 20.198 11.093 20.437M87.5 20.111C 87.729 20.155 88.017 20.316 88.14 20.47C 88.344 20.726 88.358 20.722 88.305 20.417C 88.261 20.164 88.106 20.077 87.665 20.058C 87.289 20.041 87.231 20.06 87.5 20.111M8.653 21.342C 8.645 21.383 8.604 21.642 8.562 21.917L8.562 21.917L8.484 22.417L8.761 22.028C 8.965 21.741 8.989 21.589 8.853 21.453C 8.75 21.35 8.66 21.3 8.653 21.342M89.538 21.426C 89.7 21.589 90.667 21.696 90.666 21.552C 90.666 21.477 90.39 21.397 90.053 21.373C 89.716 21.349 89.484 21.373 89.538 21.426M6.147 22.966C 5.966 23.207 5.968 23.218 6.166 23.042C 6.561 22.689 6.699 22.811 6.383 23.233C 6.218 23.453 6.027 23.598 5.958 23.556C 5.89 23.515 5.833 23.56 5.833 23.657C 5.833 23.952 6.16 23.855 6.581 23.434C 6.8 23.215 7.013 23.068 7.053 23.108C 7.093 23.148 7.163 23.084 7.208 22.966C 7.337 22.628 6.401 22.629 6.147 22.966M92.167 22.858C 92.167 22.987 92.84 23.253 93.036 23.202C 93.101 23.185 93.116 23.27 93.07 23.392C 93.023 23.514 93.095 23.704 93.229 23.816C 93.542 24.076 93.494 23.31 93.172 22.923C 92.968 22.677 92.167 22.626 92.167 22.858M49.42 29.162C 49.364 29.251 49.004 29.414 48.618 29.523C 48.232 29.633 47.682 29.894 47.395 30.105C 47.108 30.315 46.47 30.666 45.978 30.886C 45.486 31.106 44.943 31.443 44.772 31.636C 44.601 31.829 44.076 32.111 43.605 32.265C 43.135 32.418 42.6 32.714 42.417 32.922C 42.233 33.131 41.783 33.393 41.417 33.504C 41.05 33.615 40.525 33.919 40.249 34.179C 39.974 34.44 39.429 34.765 39.038 34.903C 38.648 35.041 38.085 35.335 37.789 35.558C 37.493 35.78 37.076 36.014 36.864 36.079C 36.652 36.143 36.237 36.407 35.943 36.666C 35.649 36.924 35.014 37.264 34.532 37.422C 34.05 37.58 33.587 37.838 33.503 37.995C 33.418 38.153 32.989 38.418 32.55 38.583C 32.11 38.749 31.505 39.097 31.205 39.357C 30.906 39.616 30.456 39.879 30.205 39.942C 29.955 40.004 29.385 40.305 28.94 40.611C 28.494 40.917 28.043 41.167 27.937 41.167C 27.831 41.167 27.381 41.467 26.937 41.833C 26.493 42.2 26.056 42.5 25.966 42.5C 25.875 42.5 25.583 42.655 25.316 42.845L25.316 42.845L24.831 43.191L24.874 56.887L24.917 70.583L25.712 70.556C 26.328 70.535 26.63 70.42 27.059 70.044C 27.363 69.777 27.958 69.462 28.383 69.343C 28.834 69.217 29.258 68.968 29.404 68.746C 29.542 68.535 30.024 68.241 30.481 68.09C 30.936 67.939 31.407 67.695 31.529 67.547C 31.65 67.4 32.125 67.113 32.583 66.909C 33.042 66.706 33.557 66.383 33.728 66.193C 33.899 66.003 34.395 65.729 34.829 65.585C 35.263 65.44 35.79 65.14 36 64.917C 36.21 64.693 36.764 64.386 37.232 64.234C 37.7 64.082 38.233 63.78 38.417 63.564C 38.6 63.348 39.076 63.059 39.474 62.921C 39.871 62.783 40.418 62.485 40.687 62.258C 40.957 62.032 41.418 61.779 41.714 61.697C 42.009 61.615 42.492 61.322 42.787 61.045C 43.082 60.768 43.654 60.459 44.057 60.357C 44.518 60.241 44.891 60.02 45.06 59.762C 45.244 59.482 45.646 59.263 46.326 59.072C 46.998 58.884 47.356 58.69 47.423 58.479C 47.791 57.321 51.714 57.336 52.082 58.497C 52.132 58.653 52.557 58.896 53.055 59.053C 53.542 59.206 54.118 59.52 54.334 59.751C 54.551 59.982 55.009 60.246 55.352 60.338C 55.695 60.431 56.289 60.767 56.671 61.087C 57.052 61.406 57.494 61.667 57.653 61.667C 57.811 61.667 58.235 61.89 58.595 62.162C 58.955 62.434 59.611 62.78 60.053 62.929C 60.572 63.105 60.919 63.34 61.034 63.592C 61.143 63.831 61.415 64.026 61.731 64.091C 62.354 64.221 63.366 64.78 63.546 65.094C 63.617 65.218 63.927 65.367 64.234 65.425C 64.54 65.482 65.147 65.823 65.581 66.181C 66.015 66.54 66.5 66.833 66.66 66.833C 66.819 66.833 67.272 67.067 67.665 67.352C 68.059 67.637 68.713 67.983 69.12 68.121C 69.575 68.277 69.926 68.521 70.034 68.759C 70.16 69.035 70.449 69.201 71.063 69.348C 71.588 69.474 72.078 69.727 72.338 70.005C 72.82 70.521 74.192 70.908 74.489 70.611C 74.612 70.488 74.667 66.224 74.667 56.811L74.667 56.811L74.667 43.189L74.183 42.845C 73.916 42.655 73.619 42.5 73.522 42.5C 73.424 42.5 73.091 42.277 72.781 42.005C 72.471 41.733 71.886 41.368 71.482 41.195C 71.078 41.022 70.523 40.693 70.249 40.465C 69.974 40.237 69.55 40.002 69.305 39.942C 69.059 39.882 68.638 39.647 68.368 39.42C 68.098 39.193 67.51 38.85 67.063 38.659C 66.616 38.468 66.063 38.138 65.833 37.926C 65.604 37.714 65.117 37.447 64.75 37.333C 64.383 37.22 63.896 36.952 63.667 36.739C 63.438 36.525 62.95 36.227 62.583 36.076C 62.217 35.924 61.692 35.631 61.417 35.424C 61.142 35.217 60.729 34.992 60.5 34.924C 60.271 34.855 59.809 34.584 59.474 34.321C 59.139 34.058 58.464 33.666 57.974 33.449C 57.484 33.231 56.984 32.933 56.862 32.786C 56.741 32.639 56.281 32.399 55.84 32.252C 55.4 32.106 54.899 31.829 54.728 31.637C 54.557 31.445 53.967 31.07 53.417 30.804C 52.867 30.538 52.154 30.176 51.833 30.001C 50.299 29.162 49.575 28.911 49.42 29.162M100.333 29.343C 100.333 29.44 100.271 29.481 100.194 29.434C 100.118 29.387 100.056 29.458 100.056 29.591C 100.056 29.793 100.108 29.787 100.361 29.558C 100.709 29.243 100.736 29.167 100.5 29.167C 100.408 29.167 100.333 29.246 100.333 29.343M100.837 35.581C 100.831 39.094 100.76 41.974 100.676 42.057C 100.594 42.14 100.566 42.311 100.614 42.437C 100.665 42.569 100.596 42.667 100.452 42.667C 100.315 42.667 100.159 42.779 100.106 42.917C 100.006 43.179 100.189 43.256 100.403 43.042C 100.472 42.973 100.615 42.913 100.722 42.909C 100.829 42.905 100.898 42.811 100.875 42.701C 100.852 42.59 100.906 42.5 100.996 42.5C 101.208 42.5 101.215 29.843 101.003 29.502C 100.906 29.348 100.844 31.63 100.837 35.581M51.039 30.562C 51.106 30.665 51.163 30.88 51.164 31.038C 51.167 31.336 51.377 31.419 52.664 31.634C 53.21 31.725 53.464 31.864 53.607 32.152C 53.855 32.65 54.137 32.828 54.682 32.831C 54.973 32.833 55.172 32.962 55.295 33.232C 55.509 33.702 56.362 34.167 57.009 34.167C 57.368 34.167 57.505 34.275 57.642 34.667C 57.738 34.942 57.895 35.176 57.991 35.188C 58.088 35.199 58.223 35.221 58.292 35.237C 58.36 35.253 58.776 35.324 59.215 35.394C 59.925 35.508 60.024 35.577 60.111 36.013C 60.214 36.527 60.306 36.574 61.664 36.8C 62.21 36.891 62.464 37.031 62.607 37.318C 62.859 37.823 63.137 37.994 63.712 37.997C 64.028 37.999 64.228 38.119 64.346 38.377C 64.577 38.884 65.399 39.333 66.097 39.333C 66.606 39.333 66.701 39.408 66.653 39.771C 66.621 40.011 67.612 40.484 68.361 40.587C 69.057 40.683 69.167 40.75 69.167 41.079C 69.167 41.602 69.433 41.775 70.496 41.942C 71.21 42.054 71.45 42.171 71.605 42.482C 71.848 42.969 72.135 43.161 72.625 43.164L72.625 43.164L73 43.167L72.987 56.375C 72.98 63.64 72.936 69.49 72.89 69.375C 72.842 69.258 72.518 69.167 72.149 69.167C 71.553 69.167 71.482 69.12 71.392 68.669C 71.284 68.129 70.635 67.836 69.542 67.834C 69.083 67.833 69 67.773 69 67.437C 69 66.87 68.685 66.681 67.539 66.561C 66.56 66.459 66.526 66.439 66.427 65.913C 66.327 65.379 66.017 65.175 65.299 65.169C 65.143 65.168 64.831 64.998 64.607 64.792C 63.831 64.08 63.678 64 63.086 64C 62.56 64 62.48 63.943 62.392 63.502C 62.284 62.962 61.635 62.669 60.542 62.668C 60.083 62.667 60 62.606 60 62.27C 60 61.703 59.685 61.514 58.539 61.394C 57.56 61.292 57.526 61.272 57.427 60.746C 57.322 60.186 57.026 60.011 56.167 59.999C 55.902 59.995 55.568 59.781 55.252 59.413C 54.849 58.945 54.634 58.833 54.134 58.833C 53.595 58.833 53.481 58.761 53.247 58.267C 52.957 57.656 52.629 57.506 51.573 57.502C 50.963 57.5 50.867 57.441 50.617 56.917C 50.192 56.025 49.046 56.087 48.691 57.02C 48.548 57.395 48.403 57.463 47.562 57.55C 46.603 57.649 46.014 58.056 46.004 58.625C 46.001 58.752 45.768 58.833 45.406 58.833C 44.955 58.833 44.663 58.974 44.197 59.415C 43.762 59.828 43.429 59.998 43.054 59.999C 42.421 60 42 60.372 42 60.929C 42 61.282 41.92 61.336 41.375 61.353C 40.123 61.393 39.781 61.544 39.631 62.125C 39.503 62.617 39.432 62.667 38.853 62.667C 37.807 62.667 37.218 62.951 37.106 63.51C 37.018 63.951 36.944 64 36.361 64C 35.84 64 35.603 64.114 35.148 64.582C 34.769 64.973 34.43 65.164 34.114 65.165C 33.385 65.168 33 65.45 33 65.982C 33 66.436 32.963 66.456 31.975 66.56C 30.848 66.677 30.546 66.843 30.468 67.385C 30.44 67.584 30.304 67.761 30.167 67.779C 28.295 68.025 28.374 67.994 28.091 68.591C 27.873 69.05 27.721 69.167 27.339 69.167C 27.076 69.167 26.742 69.212 26.597 69.268C 26.358 69.36 26.333 68.147 26.333 56.278L26.333 56.278L26.333 43.188L26.863 43.136C 27.249 43.097 27.466 42.949 27.668 42.583C 27.82 42.308 28.013 42.078 28.097 42.071C 29.661 41.944 30.16 41.698 30.164 41.052C 30.166 40.743 30.288 40.671 30.958 40.581C 32.128 40.425 32.625 40.19 32.739 39.736C 32.821 39.409 32.946 39.333 33.406 39.333C 34.131 39.333 34.957 38.861 35.079 38.377C 35.154 38.075 35.29 38 35.759 38C 36.205 38 36.482 37.862 36.924 37.42C 37.344 37 37.72 36.804 38.288 36.709C 38.983 36.592 39.09 36.517 39.225 36.046C 39.361 35.572 39.462 35.501 40.147 35.402C 40.953 35.285 41.844 34.912 41.812 34.705C 41.75 34.295 41.888 34.167 42.391 34.167C 43.139 34.167 43.987 33.722 44.173 33.232C 44.288 32.931 44.45 32.833 44.835 32.833C 45.191 32.833 45.513 32.664 45.907 32.271C 46.305 31.873 46.703 31.666 47.27 31.562C 47.979 31.433 48.089 31.354 48.224 30.884C 48.336 30.493 48.492 30.332 48.813 30.279C 49.479 30.169 50.901 30.35 51.039 30.562M100.097 43.478C 100.048 43.557 100.154 43.755 100.333 43.917C 100.512 44.079 100.615 44.282 100.562 44.368C 100.509 44.454 100.623 44.426 100.816 44.306C 101.242 44.039 101.251 43.94 100.875 43.645C 100.617 43.443 100.607 43.447 100.79 43.682C 100.904 43.828 100.948 43.996 100.889 44.056C 100.713 44.231 100.345 43.83 100.444 43.571C 100.542 43.316 100.246 43.237 100.097 43.478M100.833 57.508L100.833 70.516L100.417 70.902C 99.796 71.478 100.263 71.709 100.93 71.156C 101.218 70.917 101.289 44.5 101.002 44.5C 100.89 44.5 100.833 48.851 100.833 57.508M100.498 72.085C 100.331 72.287 100.341 72.333 100.555 72.333C 100.789 72.333 100.818 73.007 100.823 78.573L100.823 78.573L100.828 84.813L100.414 85.139C 99.91 85.535 99.903 85.588 100.348 85.622C 100.584 85.64 100.666 85.573 100.605 85.413C 100.555 85.283 100.598 85.126 100.7 85.063C 100.808 84.996 100.838 85.024 100.773 85.129C 100.712 85.229 100.73 85.353 100.813 85.404C 100.897 85.456 101.007 85.389 101.058 85.256C 101.236 84.793 101.183 72.833 101.004 72.833C 100.91 72.833 100.833 72.754 100.833 72.657C 100.833 72.56 100.908 72.527 101 72.583C 101.092 72.64 101.167 72.607 101.167 72.51C 101.167 72.413 101.087 72.333 100.99 72.333C 100.893 72.333 100.857 72.264 100.91 72.178C 101.077 71.908 100.714 71.826 100.498 72.085M99.497 87.921C 99.381 88.06 99.334 88.223 99.393 88.282C 99.452 88.341 99.5 88.297 99.5 88.185C 99.5 88.072 99.587 88.034 99.692 88.099C 99.806 88.17 99.84 88.145 99.775 88.04C 99.714 87.942 99.759 87.824 99.874 87.777C 100.004 87.725 100.012 87.688 99.895 87.68C 99.792 87.673 99.613 87.781 99.497 87.921M2.015 88.76C 1.995 89.223 2.391 89.734 2.681 89.619C 2.857 89.55 2.844 89.523 2.63 89.513C 2.455 89.505 2.282 89.289 2.186 88.958C 2.082 88.596 2.025 88.53 2.015 88.76M97.21 89.118C 97.096 89.361 97.034 89.59 97.072 89.627C 97.172 89.727 97.531 89.008 97.469 88.83C 97.44 88.746 97.324 88.876 97.21 89.118M4.603 90.635C 4.489 90.819 4.861 91 5.353 91C 5.531 91 5.929 91.252 6.237 91.559C 6.802 92.124 7.731 92.563 7.324 92.072C 7.217 91.943 7.074 91.871 7.006 91.913C 6.939 91.955 6.789 91.812 6.673 91.596C 6.452 91.183 5.85 90.833 5.359 90.833C 5.198 90.833 4.985 90.752 4.885 90.652C 4.77 90.536 4.668 90.53 4.603 90.635M93.123 91.1C 93.068 91.154 93.068 91.317 93.123 91.46C 93.189 91.633 93.157 91.68 93.028 91.601C 92.902 91.523 92.833 91.608 92.833 91.842C 92.833 92.202 92.835 92.202 93.154 91.81C 93.33 91.594 93.405 91.392 93.32 91.361C 93.234 91.33 93.207 91.236 93.259 91.152C 93.365 90.981 93.275 90.947 93.123 91.1M8.559 93.042C 8.591 93.248 8.746 93.442 8.905 93.473C 9.177 93.526 9.178 93.505 8.911 93.098C 8.564 92.569 8.485 92.556 8.559 93.042M85.813 95.167C 85.774 95.783 85.751 95.845 85.5 96.004C 85.362 96.09 85.311 96.163 85.386 96.164C 85.605 96.168 86.629 95.338 86.73 95.075C 86.798 94.897 86.691 94.833 86.328 94.833C 85.951 94.833 85.828 94.913 85.813 95.167M14.799 96.261C 15.004 96.405 15.134 96.585 15.087 96.661C 15.04 96.736 15.12 96.844 15.265 96.899C 15.671 97.055 15.725 97.021 15.5 96.75C 15.386 96.612 15.358 96.497 15.438 96.494C 15.626 96.486 14.802 96.014 14.588 96.006C 14.499 96.003 14.594 96.118 14.799 96.261M83.98 96.782C 83.969 96.856 83.972 96.982 83.987 97.062C 84.002 97.142 83.898 97.163 83.757 97.109C 83.616 97.055 83.5 97.083 83.5 97.172C 83.5 97.415 83.932 97.366 84.154 97.098C 84.288 96.937 84.294 96.829 84.175 96.755C 84.079 96.696 83.991 96.708 83.98 96.782M81.84 97.417C 81.696 98.162 81.698 98.202 81.861 98.039C 81.954 97.946 81.995 97.73 81.952 97.559C 81.908 97.389 81.858 97.325 81.84 97.417M80.976 98.515C 80.878 98.575 80.995 98.625 81.235 98.625C 81.476 98.625 81.703 98.575 81.741 98.515C 81.778 98.454 81.662 98.405 81.481 98.405C 81.301 98.405 81.074 98.454 80.976 98.515M20.028 99.167C 20 99.682 20.241 100.118 20.406 99.851C 20.468 99.75 20.445 99.667 20.354 99.667C 20.263 99.667 20.158 99.46 20.119 99.208C 20.053 98.771 20.049 98.769 20.028 99.167M21.507 100.107C 21.491 100.561 22.116 101.083 22.398 100.849C 22.797 100.517 22.742 100 22.308 100C 21.97 100 21.965 100.018 22.225 100.305C 22.484 100.592 22.447 100.833 22.144 100.833C 22.071 100.833 21.899 100.627 21.762 100.375C 21.625 100.123 21.51 100.002 21.507 100.107M77.019 100.215C 76.931 100.302 76.896 100.47 76.941 100.586C 76.986 100.703 76.851 100.919 76.641 101.066C 76.431 101.213 76.334 101.333 76.426 101.333C 76.517 101.333 76.749 101.223 76.941 101.089C 77.133 100.955 77.326 100.882 77.371 100.927C 77.522 101.077 77.84 100.545 77.746 100.299C 77.64 100.022 77.256 99.978 77.019 100.215M24.062 101.875C 24.095 102.173 24.169 102.398 24.227 102.375C 24.286 102.352 24.403 102.333 24.487 102.333C 24.572 102.333 24.529 102.108 24.392 101.833C 24.071 101.191 23.988 101.202 24.062 101.875M75.083 101.5C 75.027 101.592 75.041 101.668 75.115 101.669C 75.189 101.671 75.15 101.735 75.028 101.813C 74.844 101.929 74.845 101.969 75.035 102.042C 75.185 102.099 75.275 101.993 75.297 101.731C 75.332 101.31 75.253 101.225 75.083 101.5M30.667 105.336C 30.889 105.482 30.889 105.518 30.667 105.664C 30.485 105.784 30.476 105.829 30.635 105.831C 30.765 105.832 30.802 105.918 30.728 106.042C 30.645 106.18 30.699 106.172 30.888 106.018C 31.137 105.816 31.161 105.82 31.073 106.05C 30.999 106.243 31.065 106.308 31.319 106.289C 31.51 106.274 31.667 106.249 31.667 106.232C 31.667 106.121 30.672 105.167 30.558 105.169C 30.48 105.171 30.529 105.246 30.667 105.336M68.272 105.42C 68.215 105.567 68.101 105.646 68.017 105.594C 67.934 105.543 67.785 105.744 67.685 106.042C 67.517 106.545 67.523 106.56 67.759 106.251C 67.979 105.963 68.037 105.952 68.189 106.167C 68.336 106.376 68.35 106.369 68.271 106.125C 68.209 105.934 68.265 105.833 68.432 105.833C 68.582 105.833 68.637 105.912 68.567 106.026C 68.499 106.136 68.521 106.173 68.618 106.113C 68.843 105.974 68.801 105.295 68.562 105.215C 68.459 105.181 68.328 105.273 68.272 105.42M33.025 107.325C 33.097 107.54 33.325 107.578 33.346 107.379C 33.353 107.313 33.268 107.228 33.158 107.192C 33.048 107.155 32.988 107.215 33.025 107.325M35.547 108.375C 35.561 108.627 35.631 108.833 35.703 108.833C 35.863 108.833 35.853 108.684 35.666 108.25C 35.542 107.962 35.525 107.979 35.547 108.375M63.354 108.674L62.958 109.004L63.34 108.946C 63.55 108.914 63.741 108.763 63.763 108.61C 63.812 108.275 63.838 108.271 63.354 108.674M38.167 110.19C 38.167 110.269 38.354 110.333 38.583 110.333C 38.813 110.333 39 110.305 39 110.269C 39 110.234 38.813 110.17 38.583 110.126C 38.354 110.082 38.167 110.111 38.167 110.19M39.833 111.142C 39.833 111.308 39.928 111.444 40.045 111.444C 40.161 111.444 40.479 111.501 40.753 111.569C 41.342 111.717 41.292 111.652 40.458 111.187C 39.871 110.86 39.833 110.857 39.833 111.142M59.314 110.958C 59.303 111.027 59.305 111.145 59.318 111.221C 59.331 111.297 59.171 111.307 58.963 111.244C 58.669 111.155 58.627 111.175 58.775 111.331C 58.88 111.442 59.117 111.485 59.301 111.427C 59.71 111.297 59.926 110.833 59.578 110.833C 59.443 110.833 59.324 110.89 59.314 110.958M42.071 112.284C 42.097 112.531 42.203 112.762 42.305 112.796C 42.441 112.841 42.443 112.72 42.313 112.346C 42.092 111.714 42.008 111.692 42.071 112.284M44.56 113.949C 44.623 114.012 44.842 114.087 45.046 114.116C 45.34 114.157 45.365 114.134 45.167 114.003C 44.884 113.817 44.383 113.772 44.56 113.949M53 114.5C 53 114.683 53.075 114.833 53.167 114.833C 53.258 114.833 53.333 114.683 53.333 114.5C 53.333 114.317 53.258 114.167 53.167 114.167C 53.075 114.167 53 114.317 53 114.5" stroke="none" fill="#32893D" fill-rule="nonzero" />
    <path transform="matrix(1 0 0 1.001405 0 3.820055E-06)"  d="M48.835 58.29C 48.607 58.332 48.157 58.604 47.835 58.894C 47.513 59.184 46.913 59.53 46.5 59.663C 46.087 59.796 45.658 60.03 45.546 60.182C 45.434 60.335 45.026 60.587 44.639 60.742C 44.252 60.896 43.669 61.229 43.343 61.481C 43.017 61.733 42.394 62.071 41.958 62.233C 41.523 62.395 41.167 62.595 41.167 62.677C 41.167 62.852 39.95 63.5 39.621 63.5C 39.497 63.5 39.182 63.723 38.921 63.996C 38.66 64.268 38.065 64.617 37.598 64.771C 37.132 64.926 36.658 65.181 36.546 65.339C 36.434 65.498 36.026 65.754 35.639 65.908C 35.252 66.063 34.657 66.41 34.318 66.679C 33.978 66.948 33.468 67.215 33.186 67.271C 32.903 67.328 32.488 67.558 32.263 67.782C 32.039 68.007 31.464 68.339 30.986 68.521C 30.509 68.702 29.977 69.029 29.805 69.248C 29.622 69.481 29.111 69.756 28.572 69.913C 28.065 70.06 27.607 70.295 27.553 70.436C 27.499 70.576 27.053 70.869 26.561 71.086C 26.069 71.304 25.667 71.549 25.667 71.632C 25.667 71.831 26.23 72.333 26.454 72.333C 26.552 72.333 26.878 72.564 27.18 72.846C 27.482 73.128 28.071 73.488 28.489 73.648C 28.908 73.807 29.457 74.13 29.711 74.365C 29.964 74.6 30.378 74.834 30.631 74.884C 30.883 74.935 31.426 75.243 31.837 75.57C 32.247 75.896 32.666 76.164 32.767 76.165C 32.867 76.166 33.27 76.399 33.662 76.682C 34.054 76.966 34.609 77.275 34.895 77.37C 35.182 77.464 35.7 77.762 36.046 78.032C 36.392 78.302 37.008 78.67 37.414 78.849C 37.82 79.029 38.203 79.258 38.265 79.357C 38.326 79.456 38.723 79.691 39.147 79.877C 39.57 80.064 40.146 80.391 40.426 80.603C 40.706 80.816 41.273 81.14 41.686 81.322C 42.099 81.505 42.573 81.804 42.738 81.987C 42.904 82.17 43.393 82.437 43.826 82.581C 44.259 82.725 44.823 83.062 45.08 83.33C 45.337 83.598 45.757 83.863 46.014 83.92C 46.271 83.976 46.774 84.235 47.133 84.495C 47.492 84.755 48.227 85.144 48.768 85.36C 49.848 85.792 49.847 85.792 51.494 84.938C 52.001 84.675 52.792 84.273 53.25 84.044C 53.708 83.815 54.271 83.455 54.5 83.243C 54.729 83.032 55.254 82.728 55.667 82.568C 56.079 82.407 56.663 82.064 56.964 81.805C 57.265 81.545 57.603 81.333 57.714 81.333C 57.826 81.333 58.358 81.033 58.897 80.666C 59.437 80.3 59.975 80 60.093 80C 60.211 80 60.524 79.818 60.789 79.595C 61.053 79.373 61.678 79.009 62.176 78.786C 62.675 78.564 63.223 78.224 63.395 78.031C 63.566 77.838 64.063 77.562 64.5 77.417C 64.937 77.272 65.431 77.001 65.599 76.816C 65.767 76.63 66.263 76.324 66.702 76.136C 67.141 75.947 67.5 75.728 67.5 75.65C 67.5 75.466 68.735 74.833 69.093 74.833C 69.243 74.833 69.565 74.623 69.808 74.365C 70.051 74.108 70.587 73.765 71 73.603C 71.412 73.44 71.938 73.135 72.167 72.925C 72.396 72.714 72.808 72.438 73.083 72.311C 73.839 71.96 73.74 71.496 72.814 71.056C 72.391 70.856 72.001 70.576 71.947 70.436C 71.893 70.295 71.452 70.065 70.966 69.924C 70.467 69.779 69.894 69.467 69.649 69.209C 69.41 68.956 68.882 68.652 68.474 68.533C 68.066 68.414 67.532 68.104 67.287 67.844C 67.042 67.584 66.576 67.322 66.251 67.261C 65.925 67.2 65.417 66.938 65.121 66.678C 64.825 66.418 64.283 66.08 63.917 65.927C 63.55 65.774 63.063 65.473 62.833 65.259C 62.604 65.044 62.167 64.816 61.863 64.752C 61.558 64.687 61.06 64.417 60.756 64.15C 60.453 63.883 59.878 63.55 59.479 63.409C 59.081 63.269 58.566 62.98 58.336 62.768C 58.105 62.557 57.579 62.254 57.167 62.095C 56.754 61.936 56.267 61.671 56.083 61.505C 55.9 61.34 55.413 61.037 55 60.833C 54.587 60.629 54.1 60.33 53.917 60.168C 53.733 60.007 53.296 59.782 52.944 59.67C 52.592 59.557 52.053 59.244 51.745 58.973C 50.934 58.261 50.072 58.059 48.835 58.29" stroke="none" fill="#F9FAF8" fill-rule="nonzero" />
    <path transform="matrix(1 0 0 1.001405 0 3.820055E-06)"  d="M22.373 14.111C 22.257 14.158 22.079 14.358 21.975 14.556C 21.8 14.894 21.816 14.891 22.227 14.513C 22.469 14.29 22.667 14.084 22.667 14.054C 22.667 13.993 22.664 13.994 22.373 14.111M48.813 30.279C 48.492 30.332 48.336 30.493 48.224 30.884C 48.089 31.354 47.979 31.433 47.27 31.562C 46.703 31.666 46.305 31.873 45.907 32.271C 45.513 32.664 45.191 32.833 44.835 32.833C 44.45 32.833 44.288 32.931 44.173 33.232C 43.987 33.722 43.139 34.167 42.391 34.167C 41.888 34.167 41.75 34.295 41.812 34.705C 41.844 34.912 40.953 35.285 40.147 35.402C 39.462 35.501 39.361 35.572 39.225 36.046C 39.09 36.517 38.983 36.592 38.288 36.709C 37.72 36.804 37.344 37 36.924 37.42C 36.482 37.862 36.205 38 35.759 38C 35.29 38 35.154 38.075 35.079 38.377C 34.957 38.861 34.131 39.333 33.406 39.333C 32.946 39.333 32.821 39.409 32.739 39.736C 32.625 40.19 32.128 40.425 30.958 40.581C 30.288 40.671 30.166 40.743 30.164 41.052C 30.16 41.698 29.661 41.944 28.097 42.071C 28.013 42.078 27.82 42.308 27.668 42.583C 27.466 42.949 27.249 43.097 26.863 43.136L26.863 43.136L26.333 43.188L26.333 56.278C 26.333 68.147 26.358 69.36 26.597 69.268C 26.742 69.212 27.076 69.167 27.339 69.167C 27.721 69.167 27.873 69.05 28.091 68.591C 28.374 67.994 28.295 68.025 30.167 67.779C 30.304 67.761 30.44 67.584 30.468 67.385C 30.546 66.843 30.848 66.677 31.975 66.56C 32.963 66.456 33 66.436 33 65.982C 33 65.45 33.385 65.168 34.114 65.165C 34.43 65.164 34.769 64.973 35.148 64.582C 35.603 64.114 35.84 64 36.361 64C 36.944 64 37.018 63.951 37.106 63.51C 37.218 62.951 37.807 62.667 38.853 62.667C 39.432 62.667 39.503 62.617 39.631 62.125C 39.781 61.544 40.123 61.393 41.375 61.353C 41.92 61.336 42 61.282 42 60.929C 42 60.372 42.421 60 43.054 59.999C 43.429 59.998 43.762 59.828 44.197 59.415C 44.663 58.974 44.955 58.833 45.406 58.833C 45.768 58.833 46.001 58.752 46.004 58.625C 46.014 58.056 46.603 57.649 47.562 57.55C 48.403 57.463 48.548 57.395 48.691 57.02C 49.046 56.087 50.192 56.025 50.617 56.917C 50.867 57.441 50.963 57.5 51.573 57.502C 52.629 57.506 52.957 57.656 53.247 58.267C 53.481 58.761 53.595 58.833 54.134 58.833C 54.634 58.833 54.849 58.945 55.252 59.413C 55.568 59.781 55.902 59.995 56.167 59.999C 57.026 60.011 57.322 60.186 57.427 60.746C 57.526 61.272 57.56 61.292 58.539 61.394C 59.685 61.514 60 61.703 60 62.27C 60 62.606 60.083 62.667 60.542 62.668C 61.635 62.669 62.284 62.962 62.392 63.502C 62.48 63.943 62.56 64 63.086 64C 63.678 64 63.831 64.08 64.607 64.792C 64.831 64.998 65.143 65.168 65.299 65.169C 66.017 65.175 66.327 65.379 66.427 65.913C 66.526 66.439 66.56 66.459 67.539 66.561C 68.685 66.681 69 66.87 69 67.437C 69 67.773 69.083 67.833 69.542 67.834C 70.635 67.836 71.284 68.129 71.392 68.669C 71.482 69.12 71.553 69.167 72.149 69.167C 72.518 69.167 72.842 69.258 72.89 69.375C 72.936 69.49 72.98 63.64 72.987 56.375L72.987 56.375L73 43.167L72.625 43.164C 72.135 43.161 71.848 42.969 71.605 42.482C 71.45 42.171 71.21 42.054 70.496 41.942C 69.433 41.775 69.167 41.602 69.167 41.079C 69.167 40.75 69.057 40.683 68.361 40.587C 67.612 40.484 66.621 40.011 66.653 39.771C 66.701 39.408 66.606 39.333 66.097 39.333C 65.399 39.333 64.577 38.884 64.346 38.377C 64.228 38.119 64.028 37.999 63.712 37.997C 63.137 37.994 62.859 37.823 62.607 37.318C 62.464 37.031 62.21 36.891 61.664 36.8C 60.306 36.574 60.214 36.527 60.111 36.013C 60.024 35.577 59.925 35.508 59.215 35.394C 58.776 35.324 58.36 35.253 58.292 35.237C 58.223 35.221 58.088 35.199 57.991 35.188C 57.895 35.176 57.738 34.942 57.642 34.667C 57.505 34.275 57.368 34.167 57.009 34.167C 56.362 34.167 55.509 33.702 55.295 33.232C 55.172 32.962 54.973 32.833 54.682 32.831C 54.137 32.828 53.855 32.65 53.607 32.152C 53.464 31.864 53.21 31.725 52.664 31.634C 51.377 31.419 51.167 31.336 51.164 31.038C 51.159 30.414 50.09 30.069 48.813 30.279M21.87 100.194C 21.906 100.301 22.118 100.504 22.342 100.645L22.342 100.645L22.75 100.901L22.346 100.451C 21.91 99.964 21.768 99.888 21.87 100.194" stroke="none" fill="#2C7C3C" fill-rule="nonzero" />
    <path transform="matrix(1 0 0 1.001405 0 3.820055E-06)"  d="M68.26 8.651C 68.198 8.751 68.224 8.833 68.318 8.833C 68.412 8.833 68.601 9.04 68.738 9.292C 68.875 9.544 68.989 9.675 68.992 9.583C 69.003 9.263 68.375 8.464 68.26 8.651M22.39 13.79C 22.449 13.886 22.391 14.006 22.26 14.056C 22.129 14.107 21.938 14.321 21.835 14.532C 21.663 14.887 21.667 14.893 21.894 14.612C 22.029 14.444 22.27 14.211 22.428 14.095C 22.656 13.929 22.671 13.856 22.499 13.75C 22.363 13.666 22.322 13.681 22.39 13.79M131.113 18.776C 131.051 18.838 131 19.139 131 19.444C 131 19.981 130.978 20 130.333 20L130.333 20L129.667 20L129.667 57.135C 129.667 86.725 129.709 94.328 129.877 94.557C 130.155 94.937 149.652 94.914 150.033 94.533C 150.204 94.363 150.26 92.569 150.299 86.113L150.299 86.113L150.348 77.909L150.998 77.971C 151.613 78.03 151.651 78.067 151.699 78.642C 151.745 79.19 151.802 79.255 152.277 79.301C 152.733 79.345 152.824 79.436 152.949 79.968C 153.075 80.503 153.164 80.59 153.63 80.636C 154.116 80.683 154.167 80.74 154.167 81.243C 154.167 81.829 154.377 82 155.097 82C 155.446 82 155.5 82.077 155.5 82.583C 155.5 83.153 155.516 83.167 156.167 83.167L156.167 83.167L156.833 83.167L156.833 83.833C 156.833 84.2 156.908 84.5 157 84.5C 157.092 84.5 157.167 84.607 157.167 84.739C 157.167 84.87 157.382 85.131 157.645 85.318C 157.923 85.516 158.167 85.876 158.227 86.177C 158.302 86.551 158.468 86.746 158.826 86.882C 159.177 87.014 159.354 87.217 159.432 87.576C 159.557 88.153 159.755 88.327 160.292 88.331C 160.591 88.333 160.667 88.428 160.667 88.8C 160.667 89.392 160.941 89.667 161.533 89.667C 161.953 89.667 162 89.724 162 90.232C 162 90.802 162.211 91 162.818 91C 163.014 91 163.158 91.201 163.262 91.625C 163.396 92.167 163.488 92.257 163.949 92.301C 164.412 92.346 164.487 92.422 164.532 92.885C 164.578 93.366 164.641 93.421 165.199 93.468C 165.777 93.516 165.817 93.556 165.866 94.134L165.866 94.134L165.917 94.75L177.417 94.75L188.917 94.75L188.917 91.583L188.917 88.417L188.292 88.365C 187.701 88.316 187.667 88.282 187.667 87.74C 187.667 87.196 187.637 87.167 187.083 87.167C 186.555 87.167 186.5 87.123 186.5 86.696C 186.5 86.029 185.964 85.013 185.488 84.776C 185.26 84.663 185.058 84.395 185.026 84.162C 184.946 83.593 184.697 83.333 184.23 83.333C 183.907 83.333 183.833 83.247 183.833 82.867C 183.833 82.277 183.559 82 182.977 82C 182.569 82 182.515 81.933 182.468 81.375C 182.421 80.804 182.37 80.745 181.875 80.698C 181.462 80.658 181.333 80.567 181.333 80.312C 181.333 79.703 181.016 79.333 180.494 79.333C 180.043 79.333 180 79.284 180 78.765C 180 78.231 179.959 78.189 179.333 78.083C 178.708 77.978 178.667 77.936 178.667 77.402C 178.667 76.865 178.635 76.833 178.093 76.833C 177.551 76.833 177.517 76.799 177.468 76.208C 177.42 75.619 177.381 75.58 176.801 75.532C 176.223 75.484 176.183 75.444 176.134 74.866C 176.087 74.29 176.045 74.247 175.479 74.2C 174.897 74.151 174.872 74.121 174.791 73.41C 174.69 72.514 174.275 71.833 173.829 71.833C 173.582 71.833 173.499 71.72 173.497 71.375C 173.494 70.772 173.352 70.583 172.75 70.386C 172.385 70.267 172.227 70.093 172.166 69.742C 172.102 69.378 171.955 69.226 171.556 69.111C 171.135 68.99 171.009 68.848 170.924 68.397C 170.828 67.888 170.763 67.833 170.253 67.833C 169.719 67.833 169.684 67.798 169.635 67.208C 169.586 66.619 169.548 66.58 168.968 66.532C 168.39 66.484 168.349 66.444 168.301 65.866C 168.254 65.298 168.204 65.245 167.667 65.182L167.667 65.182L167.083 65.113L167.583 65.015C 168.01 64.931 168.106 64.813 168.24 64.208C 168.331 63.801 168.493 63.5 168.623 63.5C 168.747 63.5 168.977 63.275 169.133 63.001C 169.289 62.727 169.473 62.502 169.542 62.501C 169.61 62.5 169.667 62.242 169.667 61.927C 169.667 61.385 169.701 61.351 170.292 61.302C 170.881 61.253 170.92 61.215 170.968 60.634C 171.016 60.056 171.056 60.016 171.634 59.968C 172.215 59.92 172.253 59.881 172.302 59.292C 172.351 58.701 172.385 58.667 172.927 58.667C 173.484 58.667 173.5 58.649 173.5 58L173.5 58L173.5 57.333L174.167 57.333C 174.817 57.333 174.833 57.319 174.833 56.75C 174.833 56.243 174.887 56.167 175.238 56.167C 175.752 56.167 176.167 55.757 176.167 55.249C 176.167 54.926 176.265 54.845 176.708 54.802C 177.18 54.757 177.27 54.67 177.404 54.125C 177.522 53.647 177.642 53.5 177.913 53.5C 178.392 53.5 178.667 53.191 178.667 52.654C 178.667 52.291 178.761 52.19 179.171 52.108C 179.679 52.006 179.727 51.942 179.901 51.143C 179.964 50.855 180.141 50.668 180.413 50.599C 180.67 50.535 180.868 50.337 180.932 50.081C 180.989 49.853 181.103 49.667 181.185 49.667C 181.266 49.667 181.333 49.367 181.333 49C 181.333 48.349 181.347 48.333 181.917 48.333C 182.47 48.333 182.5 48.304 182.5 47.76C 182.5 47.218 182.534 47.184 183.125 47.135C 183.714 47.086 183.753 47.048 183.801 46.468C 183.849 45.89 183.89 45.849 184.468 45.801C 185.048 45.753 185.086 45.714 185.135 45.125C 185.184 44.535 185.218 44.5 185.757 44.5C 186.498 44.5 186.571 44.213 186.461 41.721C 186.362 39.486 186.341 39.454 184.916 39.363L184.916 39.363L183.833 39.295L183.833 38.751C 183.833 37.986 183.981 37.997 174.188 38.02C 164.448 38.042 164.605 38.03 164.531 38.792C 164.481 39.315 164.453 39.334 163.698 39.35C 162.402 39.378 162.09 39.524 162.031 40.132C 161.986 40.591 161.914 40.667 161.523 40.667C 160.944 40.667 160.667 40.944 160.667 41.523C 160.667 41.916 160.591 41.986 160.125 42.031C 159.653 42.077 159.564 42.164 159.429 42.708C 159.324 43.134 159.181 43.333 158.983 43.333C 158.582 43.333 158.167 43.782 158.163 44.22C 158.161 44.464 157.984 44.665 157.624 44.833C 157.216 45.023 157.053 45.236 156.941 45.72C 156.786 46.396 156.147 47.167 155.742 47.167C 155.576 47.167 155.5 47.351 155.5 47.75C 155.5 48.256 155.446 48.333 155.097 48.333C 154.373 48.333 154.167 48.504 154.167 49.101C 154.167 49.634 154.133 49.667 153.598 49.667C 153.064 49.667 153.022 49.708 152.917 50.333C 152.811 50.959 152.769 51 152.235 51C 151.683 51 151.667 51.019 151.667 51.667C 151.667 52.333 151.667 52.333 151.001 52.333L151.001 52.333L150.335 52.333L150.292 36.208L150.25 20.083L149.634 20.032C 149.056 19.984 149.016 19.944 148.968 19.366L148.968 19.366L148.917 18.75L140.071 18.707C 135.206 18.683 131.174 18.714 131.113 18.776M260.875 18.787C 259.955 18.902 259.997 17.012 260.041 57.115L260.041 57.115L260.083 94.75L269.708 94.793L279.333 94.836L279.333 94.168C 279.333 93.516 279.347 93.5 279.917 93.5C 280.259 93.5 280.5 93.417 280.5 93.3C 280.5 93.144 280.544 93.144 280.7 93.3C 280.81 93.41 281.147 93.5 281.45 93.5C 281.949 93.5 282 93.546 282 93.994C 282 94.69 282.383 94.833 284.239 94.833L284.239 94.833L285.833 94.833L285.833 95.399C 285.833 96.193 285.567 96.167 293.585 96.167C 301.443 96.167 301.333 96.18 301.333 95.244C 301.333 94.849 301.354 94.844 303.208 94.797L303.208 94.797L305.083 94.75L305.135 94.125L305.187 93.5L306.427 93.5L307.667 93.5L307.667 92.917C 307.667 92.345 307.68 92.333 308.375 92.314C 309.707 92.277 310.037 92.133 310.25 91.5C 310.401 91.051 310.558 90.897 310.93 90.832C 311.303 90.767 311.433 90.638 311.499 90.27C 311.564 89.903 311.718 89.749 312.167 89.605C 312.749 89.417 312.75 89.414 312.799 88.301L312.799 88.301L312.848 87.186L313.466 87.135C 314.048 87.086 314.086 87.048 314.135 86.458C 314.179 85.927 314.246 85.833 314.581 85.833C 315.261 85.833 315.5 85.419 315.5 84.238C 315.5 83.239 315.525 83.166 315.875 83.164C 316.673 83.159 316.725 83.006 316.802 80.429L316.802 80.429L316.875 78L317.439 78L318.002 78L317.959 66.542L317.917 55.083L317.375 54.924L316.833 54.764L316.833 53.31C 316.833 51.446 316.673 51 316.004 51L316.004 51L315.5 51L315.497 49.958C 315.494 48.724 315.42 48.579 314.708 48.424C 314.226 48.32 314.167 48.245 314.167 47.737C 314.167 47.183 314.148 47.167 313.5 47.167L313.5 47.167L312.833 47.167L312.833 45.934C 312.833 44.645 312.748 44.5 311.986 44.5C 311.782 44.5 311.667 44.384 311.667 44.18C 311.667 43.59 311.471 43.343 310.92 43.24C 310.486 43.158 310.342 43.028 310.222 42.61C 310.073 42.088 310.061 42.083 308.869 42.034L308.869 42.034L307.667 41.985L307.667 41.326C 307.667 40.668 307.665 40.667 307 40.667C 306.369 40.667 306.333 40.64 306.333 40.163C 306.333 39.491 305.888 39.333 303.989 39.333L303.989 39.333L302.5 39.333L302.5 38.772C 302.5 37.999 302.55 38.004 293.917 38.004C 285.614 38.005 285.833 37.984 285.833 38.769L285.833 38.769L285.833 39.333L284.601 39.333C 283.29 39.333 283.167 39.412 283.167 40.25C 283.167 40.62 283.1 40.643 281.918 40.695L281.918 40.695L280.668 40.75L280.626 30.417L280.583 20.083L279.968 20.032C 279.39 19.984 279.349 19.944 279.301 19.366L279.301 19.366L279.25 18.75L270.333 18.734C 265.429 18.726 261.173 18.749 260.875 18.787M327.278 18.778C 327.217 18.839 327.167 19.134 327.167 19.434C 327.167 19.944 327.126 19.983 326.542 20.032L326.542 20.032L325.917 20.083L325.875 56.792L325.833 93.5L326.5 93.5L327.167 93.5L327.167 94.167L327.167 94.833L336.732 94.833C 347.239 94.833 346.5 94.908 346.5 93.843C 346.5 93.543 346.705 93.163 347.083 92.761L347.083 92.761L347.667 92.143L347.667 56.738C 347.667 33.246 347.611 21.333 347.5 21.333C 347.408 21.333 347.333 21.223 347.333 21.087C 347.333 20.952 347.149 20.721 346.925 20.573C 346.638 20.385 346.484 20.092 346.409 19.589C 346.308 18.92 346.26 18.865 345.692 18.771C 344.857 18.633 327.416 18.639 327.278 18.778M195.001 38.124C 194.366 38.2 194.173 38.391 194.169 38.948C 194.167 39.236 194.054 39.323 193.627 39.364C 192.832 39.441 192.852 38.914 192.861 59.583C 192.871 80.847 192.852 80.337 193.625 80.537L193.625 80.537L194.167 80.676L194.167 82.266C 194.167 84.117 194.31 84.5 195.006 84.5L195.006 84.5L195.5 84.5L195.5 85.748L195.5 86.996L196.167 87.103C 196.792 87.203 196.833 87.244 196.833 87.771C 196.833 88.299 196.868 88.333 197.4 88.333L197.4 88.333L197.966 88.333L198.083 89.501C 198.22 90.862 198.172 90.815 199.568 90.946L199.568 90.946L200.649 91.047L200.7 91.648C 200.747 92.211 200.79 92.253 201.365 92.301C 201.922 92.347 201.985 92.402 202.032 92.884L202.032 92.884L202.083 93.417L203.292 93.466C 204.488 93.514 204.5 93.519 204.5 93.974C 204.5 94.736 204.747 94.833 206.689 94.833L206.689 94.833L208.479 94.833L208.531 95.372C 208.605 96.137 209.035 96.179 216.281 96.127L216.281 96.127L222.417 96.083L222.468 95.464L222.52 94.844L224.468 94.797L226.417 94.75L226.468 94.132L226.519 93.514L227.718 93.465L228.917 93.417L228.968 92.892C 229.014 92.414 229.077 92.361 229.67 92.304L229.67 92.304L230.321 92.242L230.369 93.496L230.417 94.75L239.778 94.793C 248.132 94.831 249.168 94.808 249.404 94.572C 249.643 94.334 249.664 91.71 249.625 66.863L249.625 66.863L249.583 39.417L248.968 39.366C 248.412 39.319 248.348 39.264 248.302 38.784C 248.228 38.032 248.074 38.019 239.417 38.022C 230.599 38.025 230.437 38.039 230.365 38.782C 230.318 39.264 230.256 39.319 229.698 39.366L229.698 39.366L229.083 39.417L229.041 55.542L228.998 71.667L228.43 71.667L227.862 71.667L227.745 72.917C 227.646 73.966 227.579 74.167 227.327 74.167C 226.71 74.167 226.5 74.362 226.5 74.934C 226.5 75.422 226.444 75.5 226.095 75.5C 225.58 75.5 225.167 75.91 225.167 76.421C 225.167 76.799 225.107 76.821 223.958 76.868L223.958 76.868L222.75 76.917L222.698 77.458L222.646 78L221.357 78L220.069 78L219.909 77.458C 219.751 76.919 219.745 76.916 218.552 76.868L218.552 76.868L217.353 76.819L217.302 76.285C 217.259 75.847 217.154 75.722 216.721 75.594C 216.306 75.472 216.171 75.323 216.092 74.902C 215.99 74.362 215.741 74.167 215.153 74.167C 214.859 74.167 214.833 74.032 214.833 72.512C 214.833 70.708 214.674 70.333 213.906 70.333L213.906 70.333L213.502 70.333L213.459 54.875L213.417 39.417L212.892 39.366C 212.445 39.322 212.352 39.233 212.264 38.764C 212.166 38.241 212.114 38.207 211.288 38.108C 210.344 37.994 195.957 38.008 195.001 38.124M359.917 38.145C 359.507 38.232 359.408 38.345 359.366 38.769C 359.316 39.279 359.299 39.288 358.212 39.39C 357.604 39.447 357.047 39.588 356.973 39.705C 356.899 39.821 356.837 51.973 356.836 66.708L356.836 66.708L356.833 93.5L357.417 93.5C 357.923 93.5 358 93.554 358 93.903C 358 94.898 357.322 94.833 367.75 94.833C 376.302 94.833 377.308 94.806 377.399 94.57C 377.454 94.425 377.5 93.873 377.5 93.344C 377.5 92.401 377.511 92.378 378.042 92.226L378.042 92.226L378.583 92.071L378.667 76.66L378.75 61.25L379.275 61.199C 379.88 61.14 379.994 60.879 379.998 59.549L379.998 59.549L380 58.681L381.208 58.632L382.417 58.583L382.468 57.96L382.52 57.337L390.218 57.293L397.917 57.25L397.968 56.718C 398.015 56.236 398.078 56.181 398.635 56.134C 399.215 56.086 399.253 56.047 399.302 55.458C 399.342 54.969 399.423 54.833 399.677 54.833C 399.992 54.833 400 54.649 400 47.75C 400 40.851 399.992 40.667 399.677 40.667C 399.423 40.667 399.342 40.531 399.302 40.042C 399.253 39.453 399.215 39.414 398.635 39.366C 398.078 39.319 398.015 39.264 397.968 38.782C 397.9 38.077 397.501 38.027 392 38.035C 385.987 38.044 385.46 38.103 385.257 38.792L385.257 38.792L385.098 39.333L382.871 39.333C 380.378 39.333 380 39.444 380 40.173C 380 40.666 379.999 40.667 378.989 40.667C 378.433 40.667 377.833 40.744 377.656 40.839C 377.433 40.958 377.333 40.958 377.333 40.839C 377.333 40.744 377.075 40.667 376.76 40.667C 376.218 40.667 376.184 40.633 376.135 40.042C 376.086 39.453 376.048 39.414 375.468 39.366C 374.912 39.319 374.848 39.264 374.802 38.784C 374.755 38.309 374.681 38.242 374.083 38.137C 373.259 37.991 360.606 37.999 359.917 38.145M292.364 56.708L292.417 57.25L293.625 57.299L294.833 57.348L294.836 58.216C 294.839 59.546 294.956 59.81 295.595 59.93L295.595 59.93L296.153 60.034L296.201 61.226L296.25 62.417L296.875 62.468L297.5 62.52L297.5 67.083L297.5 71.647L296.875 71.698L296.25 71.75L296.201 72.949L296.152 74.147L295.535 74.199C 294.952 74.247 294.914 74.285 294.865 74.875C 294.816 75.466 294.782 75.5 294.242 75.5C 293.705 75.5 293.664 75.54 293.565 76.16L293.565 76.16L293.46 76.82L292.271 76.868L291.083 76.917L291.031 77.458L290.979 78L289.091 78L287.204 78L287.094 77.417L286.985 76.833L285.753 76.833L284.52 76.833L284.468 76.208C 284.42 75.619 284.381 75.58 283.801 75.532C 283.223 75.484 283.183 75.444 283.134 74.866C 283.088 74.305 283.034 74.245 282.542 74.198C 282.007 74.146 282 74.134 281.998 73.281C 281.994 71.899 281.884 71.667 281.231 71.667L281.231 71.667L280.667 71.667L280.667 67.083L280.667 62.5L281.231 62.5C 281.882 62.5 281.994 62.267 281.998 60.899C 282 60.083 282.022 60.042 282.542 59.894C 282.99 59.766 283.092 59.647 283.136 59.203C 283.181 58.734 283.249 58.667 283.671 58.667C 284.183 58.667 284.5 58.292 284.5 57.688C 284.5 57.422 284.628 57.343 285.125 57.302C 285.696 57.255 285.755 57.203 285.802 56.708L285.802 56.708L285.854 56.167L289.083 56.167L292.312 56.167L292.364 56.708L68.26 8.651zM21.595 100.279C 21.545 100.41 21.572 100.475 21.655 100.424C 21.739 100.372 21.957 100.521 22.14 100.754C 22.323 100.987 22.502 101.119 22.536 101.047C 22.571 100.975 22.394 100.72 22.143 100.479C 21.789 100.14 21.666 100.095 21.595 100.279M77.235 100.871C 77.06 101.076 77.029 101.158 77.167 101.053C 77.304 100.948 77.473 100.855 77.542 100.848C 77.683 100.831 77.73 100.674 77.624 100.568C 77.585 100.53 77.41 100.666 77.235 100.871" stroke="none" fill="#040404" fill-rule="nonzero" />
</g>
</svg>