<svg width="210" height="65" viewBox="0 0 210 65" fill="none" xmlns="http://www.w3.org/2000/svg">
<path d="M107.007 43.1986V46.4019H91.7148V17.5726H96.1688V43.1986H107.007Z" fill="black"/>
<path d="M116.31 46.4019H112.054V24.5615H116.31V46.4019ZM114.182 20.6927C113.423 20.6927 112.763 20.4847 112.203 20.0687C111.675 19.6249 111.411 19.0425 111.411 18.3214C111.411 17.6004 111.675 17.0318 112.203 16.6158C112.763 16.1721 113.423 15.9502 114.182 15.9502C114.941 15.9502 115.584 16.1721 116.112 16.6158C116.673 17.0318 116.953 17.6004 116.953 18.3214C116.953 19.0425 116.673 19.6249 116.112 20.0687C115.584 20.4847 114.941 20.6927 114.182 20.6927Z" fill="black"/>
<path d="M127.999 24.5615H134.531V27.64H127.999V39.6626C127.999 41.1602 128.312 42.2141 128.939 42.8242C129.599 43.4066 130.473 43.6978 131.562 43.6978C132.123 43.6978 132.65 43.6285 133.145 43.4898C133.673 43.3512 134.119 43.1847 134.482 42.9906L135.323 45.8611C133.97 46.5267 132.535 46.8595 131.017 46.8595C128.576 46.8595 126.745 46.2909 125.524 45.1538C124.336 43.989 123.743 42.0754 123.743 39.413V18.6958L127.999 18.0718V24.5615Z" fill="black"/>
<path d="M139.94 25.1855C141.094 24.8805 142.348 24.6309 143.701 24.4367C145.053 24.2149 146.291 24.1039 147.412 24.1039C148.567 24.1039 149.606 24.2287 150.53 24.4783C151.487 24.7279 152.328 25.1439 153.054 25.7263C153.912 25.2549 154.835 24.8666 155.825 24.5615C156.815 24.2565 157.904 24.1039 159.091 24.1039C160.279 24.1039 161.351 24.2565 162.308 24.5615C163.298 24.8389 164.139 25.3242 164.832 26.0176C165.525 26.7109 166.069 27.6538 166.465 28.8464C166.861 30.0112 167.059 31.4672 167.059 33.2145V46.4019H162.803V33.5057C162.803 31.3424 162.506 29.7616 161.912 28.7632C161.318 27.7648 160.197 27.2656 158.547 27.2656C157.92 27.2656 157.277 27.3626 156.617 27.5568C155.99 27.7509 155.396 28.0144 154.835 28.3472C155.099 28.9851 155.297 29.7061 155.429 30.5104C155.561 31.3147 155.627 32.216 155.627 33.2145V46.4019H151.371V33.5057C151.371 31.3424 151.074 29.7616 150.481 28.7632C149.887 27.7648 148.765 27.2656 147.115 27.2656C146.258 27.2656 145.284 27.4042 144.196 27.6816V46.4019H139.94V25.1855Z" fill="black"/>
<path d="M190.578 45.7779C190.149 45.9165 189.621 46.0552 188.994 46.1939C188.4 46.3048 187.757 46.4019 187.064 46.4851C186.404 46.596 185.728 46.6792 185.035 46.7347C184.375 46.8179 183.765 46.8595 183.204 46.8595C181.852 46.8595 180.614 46.7208 179.493 46.4435C178.371 46.1939 177.414 45.7363 176.622 45.0706C175.83 44.405 175.22 43.5037 174.791 42.3666C174.362 41.2018 174.148 39.7458 174.148 37.9985V24.5615H178.404V37.8737C178.404 40.0092 178.783 41.5207 179.542 42.4082C180.334 43.2679 181.522 43.6978 183.105 43.6978C183.633 43.6978 184.161 43.684 184.689 43.6562C185.217 43.6008 185.761 43.5037 186.322 43.365V24.5615H190.578V45.7779Z" fill="black"/>
<path d="M201.884 43.8642C203.138 43.8642 204.078 43.573 204.705 42.9906C205.365 42.3805 205.695 41.5901 205.695 40.6194C205.695 40.0092 205.563 39.4962 205.299 39.0802C205.035 38.6364 204.689 38.2481 204.26 37.9153C203.831 37.5825 203.336 37.2913 202.775 37.0417C202.214 36.7644 201.653 36.4732 201.093 36.1681C200.532 35.8908 199.987 35.5718 199.46 35.2113C198.932 34.823 198.453 34.3931 198.024 33.9217C197.628 33.4225 197.299 32.8678 197.035 32.2576C196.804 31.6198 196.688 30.8848 196.688 30.0528C196.688 28.2501 197.348 26.7941 198.668 25.6847C200.02 24.5754 201.835 24.0207 204.111 24.0207C205.068 24.0207 205.975 24.1317 206.833 24.3535C207.691 24.5477 208.4 24.7695 208.961 25.0191L208.021 27.8896C207.427 27.6122 206.833 27.4042 206.239 27.2656C205.646 27.1269 205.002 27.0576 204.309 27.0576C203.254 27.0576 202.412 27.321 201.785 27.848C201.159 28.3472 200.845 29.0821 200.845 30.0528C200.845 30.6075 200.961 31.0928 201.192 31.5088C201.423 31.8971 201.719 32.2576 202.082 32.5905C202.478 32.8955 202.907 33.1867 203.369 33.4641C203.864 33.7414 204.375 34.0049 204.903 34.2545C205.53 34.5595 206.14 34.8924 206.734 35.2529C207.361 35.6134 207.906 36.0433 208.367 36.5425C208.862 37.014 209.258 37.5825 209.555 38.2481C209.852 38.886 210.001 39.6626 210.001 40.5778C210.001 42.4914 209.324 44.0306 207.971 45.1954C206.652 46.3603 204.705 46.9427 202.132 46.9427C200.812 46.9427 199.624 46.7901 198.569 46.4851C197.513 46.18 196.721 45.9027 196.193 45.6531L197.084 42.6994C197.579 42.9213 198.239 43.1709 199.064 43.4482C199.921 43.7256 200.862 43.8642 201.884 43.8642Z" fill="black"/>
<path d="M0 0.000976562H58V59.2019C58 61.8529 55.5655 64.002 52.5625 64.002H5.4375C2.43445 64.002 0 61.8529 0 59.2019V0.000976562Z" fill="#858CDD"/>
<path d="M9.0625 3.19922H18.125V25.5996H9.0625V3.19922Z" fill="#5B44BA"/>
<path d="M9.0625 25.6016H18.125V57.6021H9.0625V25.6016Z" fill="#F0F0F0"/>
<path d="M23.5625 57.6025L23.5625 49.6024L50.75 49.6024L50.75 57.6025L23.5625 57.6025Z" fill="#F0F0F0"/>
</svg>
