<svg width="33" height="45" viewBox="0 0 33 45" fill="none" xmlns="http://www.w3.org/2000/svg">
<path d="M19.3826 18.5973L18.2688 14.4404C18.5271 10.1377 18.5376 10.3503 18.47 10.098C18.1637 8.95505 16.9847 8.27441 15.8419 8.58064L10.1125 10.1158C8.96964 10.422 8.28898 11.601 8.59523 12.7439C8.66278 12.996 8.56627 12.8078 10.9404 16.4036L12.0543 20.5609C7.93062 23.3271 5.97725 28.4375 7.28119 33.3039C8.95123 39.5366 15.3806 43.2486 21.6133 41.5786C27.846 39.9085 31.558 33.4792 29.888 27.2464C28.5839 22.38 24.3369 18.9309 19.3826 18.5973ZM13.9635 22.1003C14.4502 21.8257 14.6617 21.2514 14.4971 20.7394C14.4953 20.7323 14.4944 20.7253 14.4925 20.7183C13.0101 15.1857 13.1204 15.5091 12.9797 15.2926C12.9438 15.2369 12.8254 15.0581 10.9892 12.277L16.1632 10.8906C15.933 14.7252 15.9264 14.5671 15.9671 14.7769C15.9856 14.8737 17.3409 19.9201 17.3572 19.9761C17.4718 20.5004 17.9411 20.8905 18.499 20.885C23.5719 20.8348 27.7298 24.8217 27.9625 29.842L19.6066 32.081C19.2578 29.8957 17.093 28.5078 14.9759 29.0751C12.8556 29.6433 11.6789 31.9298 12.4684 33.9937L10.2464 34.589C7.94229 30.1338 9.53718 24.5979 13.9635 22.1003ZM14.5845 33.0263C14.3846 32.2802 14.829 31.5107 15.5749 31.3108C16.3209 31.111 17.0904 31.5552 17.2903 32.3013C17.4902 33.0473 17.0459 33.8168 16.2999 34.0167C15.554 34.2166 14.7844 33.7723 14.5845 33.0263ZM21.0142 39.3429C17.5194 40.2793 13.9478 39.106 11.6565 36.6075L14.177 35.9322C15.9107 36.8666 18.0614 36.2914 19.0964 34.614L27.7506 32.2951C27.0154 35.6045 24.509 38.4065 21.0142 39.3429Z" fill="white"/>
<path d="M21.7844 28.114C22.4418 27.9378 22.8334 27.2596 22.6572 26.6022C22.4811 25.9448 21.8029 25.5532 21.1454 25.7293C20.488 25.9055 20.0965 26.5837 20.2726 27.2411C20.4488 27.8986 21.127 28.2901 21.7844 28.114Z" fill="white"/>
<path d="M14.3139 25.8765C14.5949 26.4348 15.2632 26.69 15.8636 26.4021C16.4359 26.1135 16.6701 25.4384 16.3892 24.8524C16.0716 24.2215 15.3044 24.0306 14.7409 24.382C14.2152 24.719 14.0608 25.3484 14.3139 25.8765Z" fill="white"/>
<path d="M13.3762 5.68167C13.6632 6.25171 14.3382 6.48904 14.9259 6.20728C15.4981 5.91865 15.7323 5.24354 15.4515 4.65754C15.1391 4.03689 14.3825 3.83066 13.8024 4.1873C13.2635 4.53791 13.1297 5.16729 13.3762 5.68167Z" fill="white"/>
<path d="M8.26685 5.69236C8.55557 6.26586 9.23083 6.49881 9.81659 6.21798C10.3923 5.92753 10.6214 5.25084 10.3422 4.66824C10.0282 4.04456 9.27089 3.84279 8.69308 4.198C8.16226 4.54343 8.01659 5.17006 8.26685 5.69236Z" fill="white"/>
</svg>
