<svg width="160" height="47" viewBox="0 0 160 47" fill="none" xmlns="http://www.w3.org/2000/svg">
<path d="M8.98254 4.96046C18.7103 -2.68229 32.3782 -0.433169 39.8297 9.86377C41.2588 11.8464 40.9526 14.7991 38.9417 16.1208C36.9206 17.4426 34.3381 17.0482 32.9397 15.1082C29.3466 10.1516 23.2527 8.1263 17.6896 10.077C12.1367 12.0276 8.46196 17.5065 8.58445 23.6676C8.70694 29.8287 12.351 35.2863 17.9856 37.173C23.6202 39.0597 29.5916 37.0345 32.9805 32.0459C34.4912 29.8181 36.7267 29.3917 38.8498 30.6815C40.973 31.9606 41.1567 35.2117 39.8502 37.2263C35.7773 43.2169 29.4589 46.7771 22.3953 46.8091C15.3316 46.8411 8.70694 43.4514 4.40956 37.5141C-3.03174 27.2279 -0.755454 12.5926 8.98254 4.96046ZM37.7882 19.1374C39.1765 18.4339 40.8301 18.5725 42.1162 19.4892C43.4024 20.4165 44.1373 21.9835 44.0455 23.6037C43.9434 25.2346 43.0349 26.6736 41.6365 27.3878C40.2483 28.0913 38.5946 27.9527 37.3085 27.036C36.0223 26.1086 35.2874 24.5417 35.3792 22.9215C35.4813 21.2906 36.4 19.8516 37.7882 19.1374Z" fill="#00C7C0"/>
<path d="M91.6431 36.1384H86.9476L80.1188 26.2999L80.0575 29.4551V36.1384H76.3624V5.65308H80.0575V24.4239L86.3045 15.2783H91.051V15.4489L84.2834 25.2127L91.6431 35.9678V36.1384ZM101.32 36.4795C99.7172 36.4795 98.3801 35.9465 97.3185 34.9019C96.2671 33.8466 95.7261 32.3863 95.6955 30.521V18.8492H92.2351V15.2783H95.6955V9.60764H99.3906V15.2783H104.219V18.8492H99.3906V29.2419C99.3906 30.6276 99.6458 31.5762 100.156 32.0666C100.667 32.5675 101.238 32.8127 101.881 32.8127C102.177 32.8127 102.463 32.7807 102.749 32.7061C103.035 32.6422 103.29 32.5462 103.535 32.429L104.699 35.9252C103.729 36.2876 102.606 36.4795 101.32 36.4795ZM134.974 36.4795C133.361 36.4795 132.034 35.9465 130.973 34.9019C129.911 33.8466 129.37 32.3863 129.34 30.521V18.8492H125.889V15.2783H129.34V9.60764H133.045V15.2783H137.863V18.8492H133.045V29.2419C133.045 30.6276 133.3 31.5762 133.8 32.0666C134.311 32.5675 134.892 32.8127 135.536 32.8127C135.832 32.8127 136.117 32.7807 136.393 32.7061C136.679 32.6422 136.944 32.5462 137.179 32.429L138.343 35.9252C137.383 36.2876 136.26 36.4795 134.974 36.4795ZM148.958 36.682C143.191 36.682 138.506 31.7255 138.506 25.6177C138.506 19.51 143.191 14.5535 148.958 14.5535C154.726 14.5535 159.401 19.51 159.401 25.6177C159.401 31.7255 154.726 36.682 148.958 36.682ZM148.958 32.7487C152.674 32.7487 155.695 29.5616 155.695 25.6177C155.695 21.6738 152.674 18.4761 148.958 18.4761C145.233 18.4761 142.221 21.6738 142.221 25.6177C142.221 29.5616 145.233 32.7487 148.958 32.7487ZM64.0317 36.682C58.2644 36.682 53.5894 31.7255 53.5894 25.6177C53.5894 19.51 58.2644 14.5535 64.0317 14.5535C69.7989 14.5535 74.474 19.51 74.474 25.6177C74.474 31.7255 69.7989 36.682 64.0317 36.682ZM64.0317 32.7487C67.7574 32.7487 70.7687 29.5616 70.7687 25.6177C70.7687 21.6738 67.7574 18.4761 64.0317 18.4761C60.3161 18.4761 57.2947 21.6738 57.2947 25.6177C57.2947 29.5616 60.3161 32.7487 64.0317 32.7487ZM115.488 36.8206C112.487 36.8206 110.017 35.776 108.077 33.6761C106.128 31.5869 105.137 28.7409 105.137 25.5538C105.137 22.388 106.087 19.7552 107.975 17.6447C109.864 15.5448 112.273 14.4895 115.212 14.4895C118.244 14.4895 120.388 15.5341 122.439 17.4741C124.491 19.4141 125.818 23.0382 125.573 26.7583H109.057C109.108 28.7942 109.772 29.9454 111.058 31.1925C112.334 32.429 113.855 33.0579 115.631 33.0579C118.07 33.0579 120.122 31.7468 121.143 29.3271H125.165C124.624 31.8001 122.633 34.2943 121 35.3283C119.367 36.3729 117.54 36.8206 115.488 36.8206ZM109.231 23.1448H121.715C121.408 21.7378 120.663 20.448 119.479 19.4674C118.285 18.4867 117.254 17.9858 115.488 17.9858C114.028 17.9858 112.589 18.5507 111.538 19.4674C110.486 20.3841 109.568 21.6099 109.231 23.1448Z" fill="#343B51"/>
</svg>
