<svg width="23" height="22" viewBox="0 0 23 22" fill="none" xmlns="http://www.w3.org/2000/svg">
<path d="M4.68306 13.9085C4.68306 15.1871 3.65046 16.2206 2.37278 16.2206C1.0951 16.2206 0.0625 15.1871 0.0625 13.9085C0.0625 12.63 1.0951 11.5967 2.37287 11.5967H4.68298V13.9086L4.68306 13.9085ZM5.83825 13.9085C5.83825 12.63 6.87085 11.5967 8.14853 11.5967C9.42621 11.5967 10.4588 12.63 10.4588 13.9086V19.6884C10.4588 20.967 9.42621 22.0005 8.14845 22.0005C6.87094 22.0005 5.83825 20.967 5.83825 19.6884V13.9086V13.9085Z" fill="#E01E5A"/>
<path d="M8.14844 4.62388C6.87076 4.62388 5.83807 3.59054 5.83807 2.31194C5.83807 1.03334 6.87085 0 8.14844 0C9.42603 0 10.4587 1.03334 10.4587 2.31194V4.62397H8.14835L8.14844 4.62388ZM8.14844 5.7974C9.42612 5.7974 10.4587 6.83074 10.4587 8.10934C10.4587 9.38794 9.42612 10.4213 8.14835 10.4213H2.35529C1.07752 10.4213 0.0449219 9.38794 0.0449219 8.10925C0.0449219 6.83083 1.07752 5.7974 2.3552 5.7974H8.14835H8.14844Z" fill="#36C5F0"/>
<path d="M17.4066 8.10934C17.4066 6.83074 18.4392 5.79731 19.7168 5.79731C20.9945 5.79731 22.0272 6.83074 22.0272 8.10934C22.0272 9.38794 20.9945 10.4213 19.7168 10.4213H17.4066V8.10925V8.10934ZM16.2514 8.10934C16.2514 9.38794 15.2187 10.4213 13.9411 10.4213C12.6635 10.4213 11.6309 9.38794 11.6309 8.10925V2.31203C11.6309 1.03334 12.6635 0 13.9411 0C15.2187 0 16.2513 1.03334 16.2513 2.31194V8.10925L16.2514 8.10934Z" fill="#2EB67D"/>
<path d="M13.9411 17.3766C15.2187 17.3766 16.2514 18.4099 16.2514 19.6884C16.2514 20.967 15.2187 22.0005 13.9411 22.0005C12.6635 22.0005 11.6309 20.967 11.6309 19.6884V17.3766H13.9411H13.9411ZM13.9411 16.2206C12.6635 16.2206 11.6309 15.1871 11.6309 13.9085C11.6309 12.63 12.6635 11.5967 13.9411 11.5967H19.7343C21.012 11.5967 22.0447 12.63 22.0447 13.9086C22.0447 15.1871 21.012 16.2206 19.7343 16.2206H13.9411H13.9411Z" fill="#ECB22E"/>
</svg>
