<svg width="52" height="74" viewBox="0 0 52 74" fill="none" xmlns="http://www.w3.org/2000/svg">
<path d="M20.4866 5.00085L45.4776 58.6417C45.4776 58.6417 44.5209 74.7694 30.1576 65.7792L5.1666 12.1384C5.1666 12.1384 5.18359 10.5915 2.00057 10.8026L20.8945 2C20.589 2.42997 20.3923 2.92759 20.3213 3.45022C20.2502 3.97286 20.307 4.50494 20.4866 5.00085Z" stroke="black" stroke-width="2.25" stroke-linecap="round" stroke-linejoin="round"/>
<path d="M33.3454 32.6017C33.3454 32.6017 26.8845 32.1651 25.3615 36.3214C25.3615 36.3214 21.4999 41.3002 17.0726 37.6395L30.1791 65.7714C30.1791 65.7714 43.4053 75.4058 45.4991 58.6339L33.3454 32.6017Z" fill="#858CDD" stroke="black" stroke-width="2.25" stroke-linecap="round" stroke-linejoin="round"/>
<g style="mix-blend-mode:multiply">
<path d="M43.6442 61.7478C43.6442 61.7478 29.1039 65.1262 19.2283 40.2711L31.1226 66.7294C31.1226 66.7294 43.2235 70.6178 43.6442 61.7478Z" fill="#858CDD"/>
</g>
</svg>
