<svg width="66" height="89" viewBox="0 0 66 89" fill="none" xmlns="http://www.w3.org/2000/svg">
<path d="M39.5592 7.94406L5.66041 68.2506C5.66041 68.2506 6.95815 86.3823 26.441 76.275L60.3398 15.9685C60.3398 15.9685 60.3168 14.2294 64.6344 14.4668L39.0059 4.57031C39.4202 5.05371 39.6871 5.61316 39.7834 6.20075C39.8798 6.78833 39.8029 7.38652 39.5592 7.94406Z" stroke="black" stroke-width="2.25" stroke-linecap="round" stroke-linejoin="round"/>
<path d="M22.1157 38.975C22.1157 38.975 30.8796 38.4841 32.9455 43.1569C32.9455 43.1569 38.1835 48.7543 44.1888 44.6387L26.4106 76.2666C26.4106 76.2666 8.47007 87.0982 5.62999 68.2421L22.1157 38.975Z" fill="#66D4A9" stroke="black" stroke-width="2.25" stroke-linecap="round" stroke-linejoin="round"/>
<g style="mix-blend-mode:multiply">
<path d="M8.1467 71.7426C8.1467 71.7426 27.8698 75.5409 41.2654 47.5972L25.1315 77.3433C25.1315 77.3433 8.71738 81.7149 8.1467 71.7426Z" fill="#66D4A9"/>
</g>
</svg>
