<svg width="44" height="64" viewBox="0 0 44 64" fill="none" xmlns="http://www.w3.org/2000/svg">
<path d="M25.91 4.17533L4.60989 51.8754C4.60989 51.8754 5.68093 66.0978 18.2299 57.9602L39.53 10.2602C39.53 10.2602 39.4933 8.89499 42.3052 9.03657L25.5078 1.53223C25.7835 1.90746 25.964 2.34394 26.0341 2.80427C26.1041 3.2646 26.0616 3.73506 25.91 4.17533Z" stroke="black" stroke-width="2.25" stroke-linecap="round" stroke-linejoin="round"/>
<path d="M14.9504 28.7184C14.9504 28.7184 20.6459 28.2422 22.0484 31.8895C22.0484 31.8895 25.5262 36.2299 29.3818 32.9364L18.2109 57.9526C18.2109 57.9526 6.6744 66.6428 4.59087 51.8678L14.9504 28.7184Z" fill="#F0B740" stroke="black" stroke-width="2.25" stroke-linecap="round" stroke-linejoin="round"/>
<g style="mix-blend-mode:multiply">
<path d="M6.26976 54.5912C6.26976 54.5912 19.1489 57.3688 27.5145 35.2905L17.3899 58.8123C17.3899 58.8123 6.76574 62.4148 6.26976 54.5912Z" fill="#F0B740"/>
</g>
</svg>
