<svg width="23" height="22" viewBox="0 0 23 22" fill="none" xmlns="http://www.w3.org/2000/svg">
<path d="M11.334 0C5.25943 0 0.333984 4.92545 0.333984 11C0.333984 17.0746 5.25943 22 11.334 22C17.4085 22 22.334 17.0746 22.334 11C22.334 4.92545 17.4085 0 11.334 0ZM16.6204 8.29174C16.6277 8.40714 16.6277 8.52746 16.6277 8.64531C16.6277 12.2498 13.8826 16.4018 8.86635 16.4018C7.31948 16.4018 5.88555 15.9525 4.67751 15.179C4.89849 15.2036 5.10965 15.2134 5.33555 15.2134C6.61233 15.2134 7.78599 14.7812 8.72148 14.0496C7.52327 14.025 6.51657 13.2393 6.17282 12.1589C6.59269 12.2203 6.97081 12.2203 7.40296 12.1098C6.78599 11.9845 6.23145 11.6494 5.83353 11.1615C5.43562 10.6736 5.21888 10.0631 5.22014 9.43348V9.39911C5.58108 9.6029 6.00586 9.72812 6.45028 9.74531C6.07668 9.49633 5.77029 9.159 5.55828 8.76324C5.34626 8.36749 5.23518 7.92553 5.23488 7.47656C5.23488 6.9683 5.36747 6.50424 5.60564 6.10156C6.29044 6.94458 7.14497 7.63405 8.1137 8.12518C9.08242 8.61631 10.1436 8.8981 11.2284 8.95223C10.8429 7.09844 12.2277 5.59821 13.8925 5.59821C14.6782 5.59821 15.3853 5.92723 15.8838 6.45759C16.5001 6.34219 17.0893 6.11138 17.6148 5.80201C17.411 6.43304 16.9838 6.96585 16.4166 7.30223C16.9666 7.2433 17.4969 7.09107 17.988 6.87746C17.6172 7.42254 17.1532 7.90625 16.6204 8.29174Z" fill="#55ACEE"/>
</svg>
