<svg width="130" height="105" viewBox="0 0 130 105" fill="none" xmlns="http://www.w3.org/2000/svg">
<g clip-path="url(#clip0)">
<path d="M92.1413 6.22087C91.6334 8.15467 89.669 9.30414 87.758 8.79026C85.8471 8.27638 84.7112 6.28848 85.219 4.35468C85.7402 2.40735 87.7046 1.2714 89.6156 1.78528C91.5265 2.29916 92.6624 4.28706 92.1413 6.22087Z" fill="#5291CA"/>
<path d="M87.4775 19.1759C87.1301 20.4606 85.8338 21.2314 84.5509 20.8798C83.2814 20.5417 82.533 19.2164 82.8671 17.9318C83.2146 16.6471 84.5242 15.8762 85.7937 16.2143C87.0633 16.5659 87.825 17.8912 87.4775 19.1759Z" fill="#5291CA"/>
<path d="M84.0028 29.345C83.7757 30.2375 82.8803 30.7514 81.9983 30.5215C81.1297 30.2781 80.6219 29.3721 80.8491 28.4931C81.0896 27.6141 81.985 27.0867 82.8536 27.3165C83.7222 27.56 84.2434 28.466 84.0028 29.345Z" fill="#5291CA"/>
<path d="M81.3303 37.2697C81.1699 37.8512 80.5819 38.2028 80.0073 38.0405C79.4326 37.8917 79.0986 37.2967 79.2589 36.7152C79.4059 36.1337 79.9939 35.7821 80.5685 35.9444C81.1432 36.0932 81.4906 36.6882 81.3303 37.2697Z" fill="#5291CA"/>
<path d="M103.434 11.9815C102.445 13.7125 100.253 14.3075 98.5425 13.3068C96.832 12.3061 96.244 10.0883 97.2329 8.35732C98.2218 6.62636 100.413 6.03134 102.124 7.03205C103.834 8.03276 104.436 10.2506 103.434 11.9815Z" fill="#5291CA"/>
<path d="M95.6158 23.2733C94.961 24.4228 93.5044 24.815 92.3551 24.1524C91.2192 23.4897 90.8317 22.0157 91.4865 20.8527C92.1413 19.7032 93.5979 19.3111 94.7472 19.9737C95.8831 20.6363 96.2706 22.1104 95.6158 23.2733Z" fill="#5291CA"/>
<path d="M89.6688 32.1851C89.2145 32.983 88.2122 33.2535 87.4238 32.7937C86.6487 32.3339 86.3814 31.3197 86.8358 30.5353C87.2768 29.7375 88.279 29.467 89.0675 29.9268C89.8425 30.3866 90.1098 31.3873 89.6688 32.1851Z" fill="#5291CA"/>
<path d="M85.0448 39.1357C84.7508 39.6631 84.096 39.8389 83.5749 39.5414C83.067 39.2304 82.88 38.5678 83.1873 38.0539C83.4813 37.5265 84.1361 37.3507 84.6573 37.6482C85.1651 37.9592 85.3522 38.6219 85.0448 39.1357Z" fill="#5291CA"/>
<path d="M113.389 21.0286C111.705 22.7325 108.966 22.7325 107.282 21.0286C105.598 19.3246 105.598 16.5524 107.282 14.8485C108.966 13.1446 111.705 13.1446 113.389 14.8485C115.086 16.5524 115.086 19.3246 113.389 21.0286Z" fill="#0B3B77"/>
<path d="M102.739 29.6698C101.63 30.7787 99.8522 30.7787 98.743 29.6698C97.6472 28.5473 97.6472 26.7488 98.743 25.6264C99.8522 24.5175 101.63 24.5175 102.739 25.6264C103.834 26.7488 103.834 28.5473 102.739 29.6698Z" fill="#0B3B77"/>
<path d="M94.3997 36.4043C93.7582 37.0534 92.7292 37.0534 92.0878 36.4043C91.4463 35.7552 91.4463 34.7139 92.0878 34.0648C92.7292 33.4292 93.7582 33.4292 94.3997 34.0648C95.0411 34.7139 95.0411 35.7552 94.3997 36.4043Z" fill="#0B3B77"/>
<path d="M88.1589 41.9219C87.7447 42.3411 87.0631 42.3411 86.6488 41.9219C86.2212 41.4891 86.2212 40.7994 86.6488 40.3802C87.0631 39.9475 87.7447 39.9475 88.1589 40.3802C88.5866 40.7994 88.5866 41.4891 88.1589 41.9219Z" fill="#0B3B77"/>
<path d="M120.458 32.3471C118.12 33.7129 115.126 32.9016 113.777 30.535C112.414 28.1685 113.229 25.1393 115.567 23.7599C117.906 22.3941 120.899 23.219 122.249 25.5855C123.612 27.9521 122.81 30.9813 120.458 32.3471Z" fill="#0B3B77"/>
<path d="M107.777 37.5947C106.334 38.4466 104.463 37.9328 103.621 36.4587C102.792 34.9982 103.287 33.1185 104.743 32.2666C106.187 31.4146 108.057 31.915 108.899 33.389C109.728 34.863 109.233 36.7427 107.777 37.5947Z" fill="#0B3B77"/>
<path d="M98.315 42.4764C97.1257 43.1796 95.6022 42.7604 94.9073 41.5569C94.2258 40.3533 94.6267 38.7981 95.8294 38.1085C97.0188 37.4053 98.5422 37.8245 99.2371 39.028C99.932 40.2316 99.5177 41.7868 98.315 42.4764Z" fill="#0B3B77"/>
<path d="M90.4573 45.411C89.9495 45.722 89.2813 45.5327 88.9873 45.0188C88.6933 44.4914 88.867 43.8287 89.3882 43.5312C89.896 43.2337 90.5508 43.4095 90.8582 43.9234C91.1522 44.4508 90.9785 45.1134 90.4573 45.411Z" fill="#0B3B77"/>
<path d="M124.186 44.9376C121.407 45.6949 118.547 44.018 117.812 41.2052C117.064 38.4059 118.707 35.512 121.487 34.7547C124.267 33.9974 127.126 35.6742 127.875 38.4871C128.61 41.2999 126.966 44.1803 124.186 44.9376Z" fill="#0B3B77"/>
<path d="M110.582 46.6143C108.818 47.0876 107.028 46.0328 106.547 44.2613C106.092 42.4897 107.121 40.6641 108.885 40.1908C110.636 39.7175 112.427 40.7723 112.908 42.5438C113.375 44.3154 112.333 46.141 110.582 46.6143Z" fill="#0B3B77"/>
<path d="M100.159 48.7371C98.7693 49.1158 97.3261 48.2773 96.9519 46.8709C96.5777 45.451 97.4062 44.004 98.8094 43.6254C100.199 43.2467 101.642 44.0852 102.017 45.4916C102.377 46.9115 101.549 48.3585 100.159 48.7371Z" fill="#0B3B77"/>
<path d="M91.9274 49.9274C91.0588 50.1573 90.1768 49.6435 89.9362 48.7645C89.709 47.8854 90.2168 46.9929 91.0855 46.763C91.9541 46.5331 92.8361 47.047 93.0766 47.926C93.3038 48.7915 92.7826 49.6975 91.9274 49.9274Z" fill="#0B3B77"/>
<path d="M124.481 58.082C121.434 58.082 118.975 55.5802 118.975 52.4969C118.975 49.4136 121.434 46.9119 124.481 46.9119C127.528 46.9119 130 49.4136 130 52.4969C130 55.5802 127.528 58.082 124.481 58.082Z" fill="#6873AB"/>
<path d="M110.917 56.351C108.805 56.351 107.095 54.62 107.095 52.4969C107.095 50.3603 108.805 48.6428 110.917 48.6428C113.015 48.6428 114.726 50.3603 114.726 52.4969C114.726 54.62 113.015 56.351 110.917 56.351Z" fill="#6873AB"/>
<path d="M100.307 55.2827C98.7831 55.2827 97.5403 54.0386 97.5403 52.4969C97.5403 50.9553 98.7831 49.7112 100.307 49.7112C101.83 49.7112 103.073 50.9553 103.073 52.4969C103.073 54.0386 101.83 55.2827 100.307 55.2827Z" fill="#6873AB"/>
<path d="M92.0477 54.3225C91.0455 54.3225 90.2437 53.5111 90.2437 52.4969C90.2437 51.4826 91.0455 50.6577 92.0477 50.6577C93.05 50.6577 93.8518 51.4826 93.8518 52.4969C93.8518 53.5111 93.05 54.3225 92.0477 54.3225Z" fill="#6873AB"/>
<path d="M115.688 81.017C113.456 79.7188 112.694 76.8248 113.977 74.58C115.273 72.3216 118.12 71.5508 120.338 72.8625C122.57 74.1608 123.331 77.0412 122.049 79.286C120.752 81.5444 117.906 82.3152 115.688 81.017Z" fill="#6873AB"/>
<path d="M104.529 73.106C102.872 72.1324 102.311 69.9957 103.26 68.3188C104.222 66.642 106.333 66.0605 107.99 67.0342C109.647 67.9943 110.222 70.1445 109.26 71.8213C108.298 73.4982 106.186 74.0662 104.529 73.106Z" fill="#6873AB"/>
<path d="M95.8696 66.804C94.7203 66.1414 94.3194 64.6403 94.9876 63.4773C95.6558 62.3143 97.1257 61.9222 98.275 62.5848C99.4376 63.261 99.8252 64.7485 99.157 65.9115C98.5022 67.088 97.0188 67.4802 95.8696 66.804Z" fill="#6873AB"/>
<path d="M89.3882 61.4629C88.867 61.1653 88.6933 60.5027 88.9873 59.9753C89.2947 59.4614 89.9495 59.2721 90.4573 59.5831C90.9785 59.8807 91.1522 60.5433 90.8582 61.0707C90.5642 61.5846 89.896 61.7739 89.3882 61.4629Z" fill="#6873AB"/>
<path d="M107.229 90.1993C105.518 88.4683 105.518 85.6555 107.229 83.9246C108.953 82.1801 111.732 82.1801 113.443 83.9246C115.153 85.6555 115.153 88.4683 113.443 90.1993C111.732 91.9303 108.953 91.9303 107.229 90.1993Z" fill="#B71670"/>
<path d="M98.529 79.5836C97.2996 78.353 97.2996 76.338 98.529 75.1074C99.7451 73.8633 101.736 73.8633 102.952 75.1074C104.182 76.338 104.182 78.353 102.952 79.5836C101.736 80.8277 99.7451 80.8277 98.529 79.5836Z" fill="#B71670"/>
<path d="M91.6869 71.3347C90.8316 70.4557 90.8316 69.0493 91.6869 68.1838C92.5421 67.3183 93.9319 67.3183 94.8006 68.1838C95.6558 69.0493 95.6558 70.4557 94.8006 71.3347C93.9319 72.2001 92.5421 72.2001 91.6869 71.3347Z" fill="#B71670"/>
<path d="M86.6488 64.6136C86.2212 64.1944 86.2212 63.5048 86.6488 63.0855C87.0631 62.6528 87.7447 62.6528 88.1589 63.0855C88.5866 63.5048 88.5866 64.1944 88.1589 64.6136C87.7447 65.0464 87.0631 65.0464 86.6488 64.6136Z" fill="#B71670"/>
<path d="M96.7648 96.9066C95.6422 94.9187 96.3104 92.3628 98.2748 91.2133C100.253 90.0638 102.765 90.7535 103.901 92.7414C105.037 94.7293 104.355 97.2717 102.391 98.4347C100.426 99.5841 97.9007 98.8945 96.7648 96.9066Z" fill="#B71670"/>
<path d="M91.0056 84.4117C90.2038 82.9918 90.6849 81.1797 92.088 80.3683C93.4912 79.5434 95.2685 80.0302 96.0837 81.4501C96.8989 82.87 96.4178 84.6821 95.0146 85.4935C93.6115 86.3184 91.8207 85.8316 91.0056 84.4117Z" fill="#B71670"/>
<path d="M86.8358 74.4583C86.3814 73.674 86.6487 72.6598 87.4238 72.2C88.2122 71.7402 89.2145 72.0107 89.6688 72.8085C90.1098 73.5929 89.8425 74.6071 89.0675 75.0669C88.279 75.5267 87.2768 75.2562 86.8358 74.4583Z" fill="#B71670"/>
<path d="M83.1873 66.9394C82.88 66.4256 83.067 65.7494 83.5749 65.4519C84.096 65.1544 84.7508 65.3302 85.0448 65.8576C85.3522 66.3715 85.1651 67.0341 84.6573 67.3451C84.1361 67.6427 83.4813 67.4668 83.1873 66.9394Z" fill="#B71670"/>
<path d="M85.219 100.639C84.7112 98.7053 85.8471 96.7174 87.758 96.2035C89.669 95.6896 91.6334 96.8256 92.1413 98.7729C92.6624 100.707 91.5265 102.695 89.6156 103.208C87.7046 103.736 85.7402 102.586 85.219 100.639Z" fill="#D4585A"/>
<path d="M82.8671 87.0617C82.533 85.777 83.2814 84.4517 84.5509 84.1137C85.8205 83.7621 87.1301 84.5329 87.4775 85.8176C87.8116 87.1023 87.0633 88.4275 85.7937 88.7656C84.5108 89.1172 83.2146 88.3464 82.8671 87.0617Z" fill="#D4585A"/>
<path d="M80.8491 76.5002C80.6219 75.6212 81.1297 74.7151 81.9983 74.4717C82.8803 74.2418 83.7757 74.7557 84.0028 75.6482C84.2434 76.5272 83.7222 77.4333 82.8536 77.6767C81.985 77.9066 81.0762 77.3792 80.8491 76.5002Z" fill="#D4585A"/>
<path d="M79.2451 68.2782C79.0981 67.6967 79.4456 67.1017 80.0202 66.953C80.5815 66.7907 81.1695 67.1423 81.3298 67.7238C81.4768 68.3053 81.1428 68.9003 80.5681 69.049C79.9935 69.2113 79.4055 68.8597 79.2451 68.2782Z" fill="#D4585A"/>
<path d="M72.604 101.369C72.604 99.3679 74.2076 97.7451 76.1854 97.7451C78.1632 97.7451 79.7668 99.3679 79.7668 101.369C79.7668 103.371 78.1632 105.007 76.1854 105.007C74.2076 105.007 72.604 103.371 72.604 101.369Z" fill="#D4585A"/>
<path d="M73.8066 87.63C73.8066 86.3048 74.8624 85.2229 76.1853 85.2229C77.5083 85.2229 78.5774 86.3048 78.5774 87.63C78.5774 88.9688 77.5083 90.0507 76.1853 90.0507C74.8624 90.0507 73.8066 88.9688 73.8066 87.63Z" fill="#D4585A"/>
<path d="M74.5549 76.906C74.5549 75.9864 75.2899 75.2427 76.1853 75.2427C77.0806 75.2427 77.8156 75.9864 77.8156 76.906C77.8156 77.8256 77.0806 78.5558 76.1853 78.5558C75.2899 78.5558 74.5549 77.8256 74.5549 76.906Z" fill="#D4585A"/>
<path d="M75.1162 68.5489C75.1162 67.9404 75.5973 67.467 76.1853 67.467C76.7733 67.467 77.2677 67.9404 77.2677 68.5489C77.2677 69.1574 76.7733 69.6307 76.1853 69.6307C75.5973 69.6307 75.1162 69.1574 75.1162 68.5489Z" fill="#D4585A"/>
<path d="M60.2158 98.7729C60.737 96.8256 62.7014 95.6896 64.6124 96.2035C66.5234 96.7174 67.6593 98.7053 67.1514 100.639C66.6303 102.586 64.6658 103.736 62.7549 103.208C60.8439 102.695 59.708 100.707 60.2158 98.7729Z" fill="#F89C2C"/>
<path d="M64.8929 85.8176C65.2404 84.5329 66.55 83.7621 67.8195 84.1137C69.0891 84.4517 69.8374 85.777 69.5033 87.0617C69.1559 88.3464 67.8596 89.1172 66.5767 88.7791C65.3072 88.4276 64.5455 87.1023 64.8929 85.8176Z" fill="#F89C2C"/>
<path d="M68.3673 75.6482C68.5945 74.7557 69.4898 74.2418 70.3718 74.4717C71.2405 74.7151 71.7483 75.6212 71.5211 76.5002C71.2806 77.3792 70.3986 77.9066 69.5166 77.6632C68.6479 77.4333 68.1268 76.5272 68.3673 75.6482Z" fill="#F89C2C"/>
<path d="M71.214 67.7643C71.3342 67.2775 71.8287 66.98 72.3098 67.1152C72.7908 67.2504 73.0848 67.7508 72.9512 68.2376C72.8309 68.7245 72.3231 69.0085 71.842 68.8868C71.361 68.7515 71.0803 68.2512 71.214 67.7643Z" fill="#F89C2C"/>
<path d="M49.3109 93.2284C50.1795 91.7139 52.1039 91.1865 53.614 92.0655C55.1107 92.9445 55.6318 94.8918 54.7632 96.4199C53.8946 97.9345 51.9702 98.4619 50.4602 97.5829C48.9501 96.7039 48.4423 94.7566 49.3109 93.2284Z" fill="#F89C2C"/>
<path d="M57.1291 81.9371C57.6636 80.9905 58.8664 80.6659 59.8018 81.2068C60.7372 81.7613 61.058 82.9784 60.5234 83.925C59.9755 84.8716 58.7728 85.1961 57.8374 84.6417C56.9153 84.1008 56.5812 82.8837 57.1291 81.9371Z" fill="#F89C2C"/>
<path d="M62.8754 72.9032C63.2763 72.2135 64.1583 71.9701 64.8398 72.3758C65.5347 72.7815 65.7619 73.674 65.3744 74.3637C64.9735 75.0534 64.0915 75.2968 63.4099 74.8911C62.715 74.4854 62.4878 73.6064 62.8754 72.9032Z" fill="#F89C2C"/>
<path d="M67.5121 65.9656C67.7393 65.5464 68.2738 65.4111 68.6881 65.641C69.089 65.8844 69.236 66.4118 68.9954 66.8311C68.7683 67.2503 68.2337 67.3855 67.8194 67.1556C67.4185 66.9122 67.2715 66.3713 67.5121 65.9656Z" fill="#F89C2C"/>
<path d="M39.9969 84.9928C41.1195 83.8569 42.9503 83.8569 44.0728 84.9928C45.1953 86.1288 45.1953 87.9814 44.0728 89.1174C42.9503 90.2533 41.1195 90.2533 39.9969 89.1174C38.8744 87.9814 38.8744 86.1288 39.9969 84.9928Z" fill="#FDC51B"/>
<path d="M50.434 76.1352C51.0888 75.4725 52.1579 75.4725 52.826 76.1352C53.4809 76.7978 53.4809 77.8932 52.826 78.5558C52.1579 79.2184 51.0888 79.2184 50.434 78.5558C49.7792 77.8932 49.7792 76.7978 50.434 76.1352Z" fill="#FDC51B"/>
<path d="M58.3183 68.9274C58.7593 68.4676 59.4943 68.4676 59.9487 68.9274C60.403 69.3871 60.403 70.1309 59.9487 70.5907C59.4943 71.037 58.7593 71.037 58.3183 70.5907C57.8639 70.1309 57.8639 69.3871 58.3183 68.9274Z" fill="#FDC51B"/>
<path d="M32.9676 74.4853C34.304 73.7145 36.0012 74.1743 36.7762 75.5266C37.538 76.8654 37.0836 78.5963 35.7472 79.3807C34.4109 80.165 32.7137 79.6917 31.9387 78.3394C31.1769 77.0006 31.6313 75.2696 32.9676 74.4853Z" fill="#FDC51B"/>
<path d="M45.4225 68.8596C46.0774 68.481 46.9193 68.7109 47.3068 69.3735C47.681 70.0361 47.4538 70.8881 46.799 71.2667C46.1442 71.6589 45.3023 71.429 44.9281 70.7664C44.5405 70.0902 44.7677 69.2518 45.4225 68.8596Z" fill="#FDC51B"/>
<path d="M54.7101 63.6807C55.2713 63.3562 55.9796 63.5455 56.3137 64.1135C56.6344 64.6679 56.4339 65.3982 55.886 65.7227C55.3248 66.0473 54.6032 65.858 54.2824 65.29C53.9617 64.722 54.1622 64.0053 54.7101 63.6807Z" fill="#FDC51B"/>
<path d="M30.1879 37.3912C31.5242 37.7563 32.3127 39.1492 31.9652 40.5015C31.6044 41.8538 30.228 42.6652 28.8782 42.3001C27.5419 41.9349 26.7401 40.5421 27.1009 39.1897C27.4617 37.8239 28.8381 37.026 30.1879 37.3912Z" fill="#83C562"/>
<path d="M35.6136 25.856C36.8163 26.5592 37.2306 28.1144 36.5357 29.3315C35.8408 30.5486 34.304 30.9678 33.1012 30.2646C31.8985 29.5614 31.4843 28.0062 32.1792 26.7891C32.8741 25.5721 34.4109 25.1528 35.6136 25.856Z" fill="#83C562"/>
<path d="M46.8386 33.6594C47.5201 34.0651 47.7607 34.9576 47.3598 35.6608C46.9589 36.3505 46.0769 36.5939 45.3954 36.1882C44.7004 35.7825 44.4599 34.89 44.8608 34.2003C45.2617 33.4971 46.1437 33.2672 46.8386 33.6594Z" fill="#83C562"/>
<path d="M55.8728 39.2846C56.4207 39.6092 56.5944 40.3124 56.287 40.8668C55.9663 41.4213 55.2714 41.6106 54.7235 41.2996C54.1756 40.975 53.9885 40.2718 54.3092 39.7173C54.6166 39.1629 55.3249 38.9736 55.8728 39.2846Z" fill="#83C562"/>
<path d="M43.9126 16.0384C44.9549 17.0797 44.9549 18.7836 43.9126 19.8384C42.8702 20.8932 41.1864 20.8932 40.1441 19.8384C39.1151 18.7836 39.1151 17.0797 40.1441 16.0384C41.1864 14.9836 42.8702 14.9836 43.9126 16.0384Z" fill="#10B180"/>
<path d="M52.8393 26.4242C53.5075 27.1004 53.5075 28.1957 52.8393 28.8719C52.1712 29.5481 51.0887 29.5481 50.4206 28.8719C49.7657 28.1957 49.7657 27.1004 50.4206 26.4242C51.0887 25.7616 52.1712 25.7616 52.8393 26.4242Z" fill="#10B180"/>
<path d="M60.0422 34.3084C60.55 34.8223 60.55 35.6472 60.0422 36.161C59.5344 36.6749 58.7192 36.6749 58.2114 36.161C57.7036 35.6472 57.7036 34.8223 58.2114 34.3084C58.7192 33.808 59.5344 33.808 60.0422 34.3084Z" fill="#10B180"/>
<path d="M54.7632 8.57393C55.6318 10.102 55.124 12.0494 53.614 12.9284C52.1039 13.8074 50.1795 13.2935 49.3109 11.7654C48.4423 10.2373 48.9501 8.28995 50.4602 7.41094C51.9702 6.53194 53.8946 7.04582 54.7632 8.57393Z" fill="#10B180"/>
<path d="M60.5367 21.0691C61.0713 22.0157 60.7505 23.2463 59.8151 23.7872C58.8663 24.3417 57.6636 24.0171 57.1157 23.057C56.5678 22.1104 56.8885 20.8798 57.8373 20.3388C58.7728 19.7844 59.9888 20.1089 60.5367 21.0691Z" fill="#10B180"/>
<path d="M65.3608 30.6435C65.7483 31.3331 65.5212 32.2121 64.8396 32.6043C64.1581 33.01 63.2895 32.7666 62.8886 32.0769C62.501 31.3872 62.7282 30.5082 63.4097 30.1161C64.0913 29.7104 64.9599 29.9538 65.3608 30.6435Z" fill="#10B180"/>
<path d="M68.929 38.2031C69.1428 38.5817 69.0226 39.0686 68.6484 39.2849C68.2742 39.5013 67.7931 39.3661 67.5793 38.9874C67.3655 38.6088 67.4858 38.1219 67.8599 37.9191C68.2341 37.6892 68.7152 37.8244 68.929 38.2031Z" fill="#10B180"/>
<path d="M66.9378 4.40879C67.4189 6.22088 66.3498 8.08708 64.5591 8.57391C62.7684 9.06074 60.9242 7.97889 60.4431 6.16679C59.962 4.35469 61.0178 2.4885 62.8085 2.00167C64.6125 1.51484 66.4433 2.59669 66.9378 4.40879Z" fill="#10B180"/>
<path d="M69.1831 18.0131C69.4637 19.122 68.8223 20.2579 67.7265 20.5555C66.6307 20.853 65.5081 20.2039 65.2141 19.095C64.9201 17.9861 65.575 16.8501 66.6708 16.5526C67.7532 16.2551 68.8891 16.9042 69.1831 18.0131Z" fill="#10B180"/>
<path d="M71.5211 28.4931C71.7483 29.3721 71.2405 30.2781 70.3718 30.5215C69.4898 30.7514 68.5945 30.2375 68.3673 29.345C68.1268 28.466 68.6479 27.56 69.5166 27.3165C70.3986 27.0867 71.2939 27.6141 71.5211 28.4931Z" fill="#10B180"/>
<path d="M72.9377 36.7559C73.058 37.2427 72.7773 37.7296 72.3096 37.8513C71.8419 37.9865 71.3474 37.7025 71.2272 37.2292C71.1069 36.7424 71.3742 36.2556 71.8552 36.1338C72.323 35.9986 72.804 36.2826 72.9377 36.7559Z" fill="#10B180"/>
<path d="M79.7668 3.62429C79.7668 5.62571 78.1632 7.24849 76.1854 7.24849C74.2076 7.24849 72.604 5.62571 72.604 3.62429C72.604 1.62287 74.2076 -0.0134277 76.1854 -0.0134277C78.1632 -0.0134277 79.7668 1.62287 79.7668 3.62429Z" fill="#5291CA"/>
<path d="M78.5773 17.3502C78.5773 18.689 77.5083 19.7709 76.1853 19.7709C74.8757 19.7709 73.7932 18.689 73.7932 17.3502C73.7932 16.025 74.8757 14.9431 76.1853 14.9431C77.5083 14.9431 78.5773 16.025 78.5773 17.3502Z" fill="#5291CA"/>
<path d="M77.8156 28.0876C77.8156 29.0071 77.0806 29.7374 76.1853 29.7374C75.2899 29.7374 74.5549 29.0071 74.5549 28.0876C74.5549 27.1815 75.2899 26.4377 76.1853 26.4377C77.0806 26.4377 77.8156 27.1815 77.8156 28.0876Z" fill="#5291CA"/>
<path d="M77.2677 36.4449C77.2677 37.0534 76.7733 37.5267 76.1853 37.5267C75.5973 37.5267 75.1162 37.0534 75.1162 36.4449C75.1162 35.8499 75.5973 35.363 76.1853 35.363C76.7733 35.363 77.2677 35.8499 77.2677 36.4449Z" fill="#5291CA"/>
<path d="M121.487 70.2393C118.708 69.482 117.064 66.588 117.799 63.7887C118.547 60.9624 121.407 59.2991 124.187 60.0564C126.966 60.8001 128.61 63.6941 127.875 66.5069C127.127 69.3197 124.267 70.9966 121.487 70.2393Z" fill="#6873AB"/>
<path d="M108.819 65.0465C106.935 64.5326 105.812 62.5718 106.32 60.665C106.828 58.7582 108.752 57.6358 110.637 58.1497C112.534 58.6501 113.643 60.6109 113.136 62.5177C112.628 64.4244 110.703 65.5468 108.819 65.0465Z" fill="#6873AB"/>
<path d="M98.8229 61.3139C97.4464 60.9487 96.6313 59.5288 97.0055 58.1359C97.3796 56.7566 98.7828 55.9317 100.146 56.3103C101.509 56.6754 102.324 58.0954 101.963 59.4882C101.589 60.8676 100.186 61.6925 98.8229 61.3139Z" fill="#6873AB"/>
<path d="M91.0855 58.244C90.2168 58.0141 89.6957 57.1081 89.9228 56.2156C90.1634 55.3366 91.0587 54.8227 91.9274 55.0526C92.8094 55.296 93.3172 56.1885 93.09 57.0811C92.8495 57.9601 91.9541 58.4875 91.0855 58.244Z" fill="#6873AB"/>
<path d="M39.7296 53.0649C39.7296 57.1219 40.4913 58.0279 43.3912 57.7575C45.2087 57.5817 46.4381 56.5539 47.0395 54.8094C47.6943 52.9297 47.3335 51.2393 45.9837 49.8329C44.8078 48.6023 43.3779 48.2913 41.7742 48.8863C39.5158 49.7247 39.6094 51.6045 39.7296 53.0649ZM39.7296 61.1923C39.7296 63.6806 39.6895 66.0201 39.7564 68.3731C39.7964 69.6172 39.449 70.1311 38.0993 70.1041C35.2128 70.05 35.2128 70.1311 35.2128 67.2237C35.2128 60.6514 35.186 54.0792 35.2529 47.5069C35.2529 46.655 34.5847 45.3838 36.0146 44.9916C37.391 44.5995 38.2196 45.3027 38.5403 46.8173C40.3978 45.2621 42.3221 44.2749 44.6474 44.5048C46.398 44.6806 47.9348 45.3973 49.2177 46.6415C52.1176 49.4272 52.7457 54.1062 50.7144 57.7575C48.6698 61.4628 45.1819 62.5987 39.7296 61.1923Z" fill="#34155A"/>
<path d="M6.68169 53.3081C8.07149 50.617 9.31429 48.2099 10.5571 45.8163C10.8645 45.2213 11.0783 44.4505 11.8934 44.4775C12.7086 44.5045 12.9091 45.2618 13.2164 45.8704C14.4592 48.2504 15.702 50.644 17.0785 53.3081C17.8803 50.8198 18.5886 48.6561 19.2968 46.4924C19.7244 45.1807 22.3704 44.3017 23.5063 45.059C24.0141 45.3971 23.8003 45.8028 23.6667 46.1949C22.1165 51.0362 20.5797 55.864 19.0295 60.6917C18.8558 61.2191 18.7222 61.8141 18.0273 61.8818C17.2789 61.9494 16.9849 61.3814 16.7043 60.8134C15.1541 57.8113 13.5906 54.7956 11.8801 51.496C10.2631 54.6063 8.79312 57.4867 7.28304 60.3401C6.93559 61.0298 6.7485 62.0035 5.69279 61.8682C4.75734 61.733 4.78407 60.7999 4.57026 60.1373C3.10027 55.5935 1.71047 51.0362 0.187032 46.533C-0.267327 45.1807 0.106851 45.0184 1.34965 44.8967C3.31409 44.7344 4.38317 45.2889 4.79744 47.385C5.18498 49.2917 5.96006 51.1038 6.68169 53.3081Z" fill="#34155A"/>
<path d="M79.9939 53.1322C79.9538 50.6575 77.8958 48.5209 75.5973 48.5749C73.2721 48.6426 71.2943 50.8604 71.3744 53.308C71.468 55.7287 73.4324 57.7707 75.6775 57.7707C77.9894 57.7707 80.034 55.5799 79.9939 53.1322ZM75.771 61.8817C71.1606 61.9223 67.2986 57.9465 67.2986 53.1728C67.3119 48.4668 71.0671 44.5315 75.5973 44.4639C80.1676 44.4098 84.0698 48.4262 84.0698 53.1863C84.0564 57.8789 80.2879 61.8276 75.771 61.8817Z" fill="#34155A"/>
<path d="M58.492 46.9798C60.4163 44.9919 62.3941 44.0588 64.8263 44.6267C65.6281 44.8161 66.8842 45.0054 66.3363 46.1549C65.8419 47.1691 66.1626 49.1435 64.0111 48.8324C60.8707 48.3862 59.8417 49.2787 59.8417 52.3755C59.8417 54.8502 59.7882 57.3249 59.855 59.8132C59.8951 61.0438 59.4274 61.4089 58.2514 61.4225C55.2847 61.463 55.2847 61.5036 55.2847 58.4203C55.2847 54.7691 55.2446 51.1043 55.3115 47.4531C55.3248 46.5876 54.6834 45.3164 56.14 44.9648C57.4897 44.6403 58.3717 45.2353 58.492 46.9798Z" fill="#34155A"/>
<path d="M31.2038 53.0918C31.2038 55.3095 31.1637 57.5544 31.2305 59.7722C31.2573 60.9487 30.9098 61.5302 29.667 61.4085C29.1191 61.3544 28.5712 61.3814 28.0233 61.4085C27.1146 61.449 26.6736 61.111 26.6736 60.1238C26.7003 55.4853 26.7003 50.8334 26.6869 46.195C26.6736 45.343 26.9943 44.9238 27.8629 44.9373C28.5311 44.9643 29.1993 44.9779 29.8675 44.9373C30.9365 44.8697 31.2439 45.4106 31.2172 46.3978C31.1771 48.6291 31.2038 50.8604 31.2038 53.0918Z" fill="#34155A"/>
</g>
<defs>
<clipPath id="clip0">
<rect width="130" height="105" fill="white"/>
</clipPath>
</defs>
</svg>
