<?xml version="1.0" encoding="UTF-8"?>
<svg width="10px" height="12px" viewBox="0 0 10 12" version="1.1" xmlns="http://www.w3.org/2000/svg" xmlns:xlink="http://www.w3.org/1999/xlink">
    <!-- Generator: Sketch 54.1 (76490) - https://sketchapp.com -->
    <title>Copy Icon</title>
    <desc>Created with Sketch.</desc>
    <g id="Copy-Icon" stroke="none" stroke-width="1" fill="none" fill-rule="evenodd">
        <g id="copy" transform="translate(0.000000, -0.000000)" fill="#FFFFFF" fill-rule="nonzero">
            <path d="M6.98487837,2 L1.01512163,2 C0.45496384,2 0,2.42938694 0,2.95805411 L0,11.0419459 C0,11.5706131 0.45496384,12 1.01512163,12 L6.98487837,12 C7.54503616,12 8,11.5706131 8,11.0419459 L8,2.95805411 C7.99737015,2.42938694 7.54240631,2 6.98487837,2 Z M7.28731098,11.0394639 C7.28731098,11.1983122 7.15055884,11.3273765 6.98224852,11.3273765 L1.01249178,11.3273765 C0.84418146,11.3273765 0.707429323,11.1983122 0.707429323,11.0394639 L0.707429323,2.95805411 C0.707429323,2.79920576 0.84418146,2.67014147 1.01249178,2.67014147 L6.98224852,2.67014147 C7.15055884,2.67014147 7.28731098,2.79920576 7.28731098,2.95805411 L7.28731098,11.0394639 Z" id="Shape"></path>
            <path d="M8.98487837,-4.54747351e-13 L3.01512163,-4.54747351e-13 C2.45496384,-4.54747351e-13 2,0.429386945 2,0.958054108 C2,1.14420452 2.15779093,1.29312484 2.35502959,1.29312484 C2.55226824,1.29312484 2.71005917,1.14420452 2.71005917,0.958054108 C2.71005917,0.799205758 2.84681131,0.670141474 3.01512163,0.670141474 L8.98487837,0.670141474 C9.15318869,0.670141474 9.28994083,0.799205758 9.28994083,0.958054108 L9.28994083,9.04194589 C9.28994083,9.20079424 9.15318869,9.32985853 8.98487837,9.32985853 C8.78763971,9.32985853 8.62984878,9.47877885 8.62984878,9.66492926 C8.62984878,9.85107967 8.78763971,10 8.98487837,10 C9.54503616,10 10,9.57061306 10,9.04194589 L10,0.958054108 C10,0.429386945 9.54503616,-4.54747351e-13 8.98487837,-4.54747351e-13 Z" id="Path"></path>
        </g>
    </g>
</svg>