<svg id="Layer_1" data-name="Layer 1" xmlns="http://www.w3.org/2000/svg" viewBox="0 0 480 850"><defs><style>.cls-1{fill:#52b8ba;}.cls-2{fill:#fff;}.cls-3{fill:#fdbf5e;}.cls-4{fill:#898989;}.cls-5{fill:none;stroke:#fff;stroke-miterlimit:10;stroke-width:2px;}.cls-6{fill:#fbfbfb;}</style></defs><title>course final</title><rect class="cls-1" y="140" width="240" height="236.67"/><rect class="cls-2" x="240" y="140" width="240" height="236.67"/><rect class="cls-2" y="376.67" width="240" height="236.67"/><rect class="cls-3" x="240" y="376.67" width="240" height="236.67"/><rect class="cls-3" y="613.33" width="240" height="236.67"/><rect class="cls-1" x="240" y="613.33" width="240" height="236.67"/><path class="cls-2" d="M320.21,793.75l4.48-21,4.88-.64-4,18.49a3.15,3.15,0,0,0,1.88.66,3.09,3.09,0,0,0,1.84-.61,6.32,6.32,0,0,0,1.55-1.67,12.81,12.81,0,0,0,1.25-2.47,23,23,0,0,0,.93-3,28.85,28.85,0,0,0,.57-3.33,30.26,30.26,0,0,0,.19-3.39,10.28,10.28,0,0,0-.35-2.86,5.22,5.22,0,0,0-1-1.93,3.79,3.79,0,0,0-1.52-1.09,5.32,5.32,0,0,0-2-.35,10.34,10.34,0,0,0-3.41.55,7.94,7.94,0,0,0-2.74,1.59,7.34,7.34,0,0,0-1.82,2.52,8.2,8.2,0,0,0-.66,3.37,5.8,5.8,0,0,0,.07,1,4.41,4.41,0,0,0,.15.63,2.24,2.24,0,0,0,.15.36.48.48,0,0,1,.07.22,4.28,4.28,0,0,1-2.59-.69,2.76,2.76,0,0,1-.93-2.37,5.83,5.83,0,0,1,.44-2.21,7.81,7.81,0,0,1,1.25-2.05,10.41,10.41,0,0,1,1.93-1.78,13.48,13.48,0,0,1,2.49-1.41,15.06,15.06,0,0,1,2.92-.93,15.69,15.69,0,0,1,3.24-.33,10.68,10.68,0,0,1,2.87.36,8.16,8.16,0,0,1,2.25,1,7,7,0,0,1,1.68,1.51,8.09,8.09,0,0,1,1.14,1.93,10.42,10.42,0,0,1,.65,2.25,14.27,14.27,0,0,1,.21,2.46,21.53,21.53,0,0,1-.34,3.78,23.72,23.72,0,0,1-.94,3.64,20.07,20.07,0,0,1-1.45,3.24,14.12,14.12,0,0,1-1.86,2.62,8.54,8.54,0,0,1-2.17,1.75,4.86,4.86,0,0,1-2.37.64,5.06,5.06,0,0,1-2-.42,7.84,7.84,0,0,1-2.06-1.34l-.27,1.32Z"/><path class="cls-2" d="M356.75,781.23a8.1,8.1,0,0,1-2.5,1.72,13.07,13.07,0,0,1-3.35,1,15.53,15.53,0,0,1-.88,4.12,11,11,0,0,1-1.73,3.13,7.51,7.51,0,0,1-2.4,2,6.22,6.22,0,0,1-2.87.69,7.61,7.61,0,0,1-2.12-.28,4.27,4.27,0,0,1-1.67-.9,4.15,4.15,0,0,1-1.09-1.61,6.52,6.52,0,0,1-.39-2.41,13.81,13.81,0,0,1,.2-2.2,15.81,15.81,0,0,1,.64-2.54,15.19,15.19,0,0,1,1.14-2.55,9.83,9.83,0,0,1,1.71-2.23,8.2,8.2,0,0,1,2.33-1.59,7.17,7.17,0,0,1,3-.6q4.24,0,4.24,5.27v0a.41.41,0,0,0,.15,0h.2a5.17,5.17,0,0,0,1.25-.17,10.6,10.6,0,0,0,1.34-.44,11.3,11.3,0,0,0,1.32-.64q.64-.36,1.18-.73Zm-8.58,2.83a1,1,0,0,1-.7-.51,2,2,0,0,1-.18-.88,2.08,2.08,0,0,1,.28-1.13,1.68,1.68,0,0,1,.75-.65,6,6,0,0,0-.11-.89,1.94,1.94,0,0,0-.23-.6.82.82,0,0,0-.36-.33,1.38,1.38,0,0,0-.56-.1,1.76,1.76,0,0,0-1.14.46,5.41,5.41,0,0,0-1,1.21,11.1,11.1,0,0,0-.9,1.73,17.15,17.15,0,0,0-.7,2,18,18,0,0,0-.45,2,11.63,11.63,0,0,0-.16,1.83,8.11,8.11,0,0,0,.09,1.34,2.05,2.05,0,0,0,.29.81,1,1,0,0,0,.52.41,2.37,2.37,0,0,0,.79.11,1.84,1.84,0,0,0,1.2-.53,5.49,5.49,0,0,0,1.12-1.45,11.47,11.47,0,0,0,.91-2.17A16.17,16.17,0,0,0,348.17,784.06Z"/><path class="cls-2" d="M365.72,787.84a18.92,18.92,0,0,1-1.59,2.26,11.87,11.87,0,0,1-2,1.95,9.9,9.9,0,0,1-2.48,1.38,8.24,8.24,0,0,1-3,.52,7.13,7.13,0,0,1-2.12-.3,4.22,4.22,0,0,1-1.63-.93,4.09,4.09,0,0,1-1-1.62,7,7,0,0,1-.36-2.39,14.57,14.57,0,0,1,.19-2.2,16.15,16.15,0,0,1,.62-2.55,15.2,15.2,0,0,1,1.11-2.56,9.63,9.63,0,0,1,1.67-2.24,8.05,8.05,0,0,1,2.29-1.59,7,7,0,0,1,3-.6,5.23,5.23,0,0,1,1.8.27,3.06,3.06,0,0,1,1.13.69,2.3,2.3,0,0,1,.58,1A3.84,3.84,0,0,1,364,780a3.61,3.61,0,0,1-.14,1.05,2.31,2.31,0,0,1-.38.75,1.49,1.49,0,0,1-.56.45,1.62,1.62,0,0,1-.68.15,2.13,2.13,0,0,1-1.16-.39,5.56,5.56,0,0,0,.4-1.95,1.88,1.88,0,0,0-.23-1,.76.76,0,0,0-.69-.37,1.54,1.54,0,0,0-1,.47,5.66,5.66,0,0,0-1,1.24,11.7,11.7,0,0,0-.88,1.77,19.26,19.26,0,0,0-.7,2.08,19.65,19.65,0,0,0-.47,2.15,12.85,12.85,0,0,0-.17,2,5.13,5.13,0,0,0,.15,1.38,2,2,0,0,0,.45.85,1.61,1.61,0,0,0,.74.43,4,4,0,0,0,1,.12,5.76,5.76,0,0,0,1.78-.26,6.23,6.23,0,0,0,1.49-.71,8.28,8.28,0,0,0,1.31-1.06q.62-.61,1.25-1.3Z"/><path class="cls-2" d="M382.3,787.84a13.42,13.42,0,0,1-1.52,3.29,7.68,7.68,0,0,1-1.65,1.84,4.26,4.26,0,0,1-1.59.8,5.9,5.9,0,0,1-1.31.18,4.41,4.41,0,0,1-3.11-1,3.61,3.61,0,0,1-1-2.78,8.7,8.7,0,0,1,.19-1.72l.27-1.29a3.78,3.78,0,0,0,.1-.63c0-.21,0-.4,0-.58a2.27,2.27,0,0,0-.26-1.16,1,1,0,0,0-.93-.43,2.33,2.33,0,0,0-1.15.33,9.25,9.25,0,0,0-1.28.89l-1.72,8.15h-4.75l4.78-22.43,4.88-.66-2.46,11.61,6.36-5h3.27l-6.6,4.59a4.3,4.3,0,0,1,1.09-.14,3.88,3.88,0,0,1,1.6.31,3.13,3.13,0,0,1,1.13.84,3.45,3.45,0,0,1,.67,1.23,5,5,0,0,1,.22,1.49c0,.2,0,.41,0,.62a3.76,3.76,0,0,1-.1.64l-.37,1.64a4.21,4.21,0,0,0-.12.53,3.51,3.51,0,0,0,0,.53,1.44,1.44,0,0,0,.26.86,1.2,1.2,0,0,0,1,.36,2,2,0,0,0,.93-.21,2.39,2.39,0,0,0,.72-.6,4.57,4.57,0,0,0,.59-.93q.27-.54.52-1.18Z"/><path class="cls-2" d="M393.94,787.84a18.92,18.92,0,0,1-1.59,2.26,11.87,11.87,0,0,1-2,1.95,9.9,9.9,0,0,1-2.48,1.38,8.24,8.24,0,0,1-3,.52,7.13,7.13,0,0,1-2.12-.3,4.22,4.22,0,0,1-1.63-.93,4.09,4.09,0,0,1-1-1.62,7,7,0,0,1-.36-2.39,14.43,14.43,0,0,1,.19-2.19,16.76,16.76,0,0,1,.61-2.54,14.34,14.34,0,0,1,1.11-2.56,10.06,10.06,0,0,1,1.67-2.25,7.77,7.77,0,0,1,2.3-1.6,7.17,7.17,0,0,1,3-.6,5.23,5.23,0,0,1,1.81.27,2.92,2.92,0,0,1,1.11.7,2.3,2.3,0,0,1,.56,1,4.53,4.53,0,0,1,.15,1.18,5.79,5.79,0,0,1-.63,2.67,7.11,7.11,0,0,1-1.68,2.15,8.67,8.67,0,0,1-2.42,1.48,9,9,0,0,1-2.85.66c0,.25,0,.48-.06.7s0,.43,0,.62a5.13,5.13,0,0,0,.15,1.38,2,2,0,0,0,.45.85,1.61,1.61,0,0,0,.74.43,4,4,0,0,0,1,.12,5.76,5.76,0,0,0,1.78-.26,6.23,6.23,0,0,0,1.49-.71,8.28,8.28,0,0,0,1.31-1.06q.62-.61,1.25-1.3Zm-9-2.33a4.43,4.43,0,0,0,1.8-.53,5.5,5.5,0,0,0,1.53-1.22,6,6,0,0,0,1.05-1.71,5.18,5.18,0,0,0,.39-2,2.3,2.3,0,0,0-.18-1,.65.65,0,0,0-.64-.37,1.76,1.76,0,0,0-1.23.6,6.93,6.93,0,0,0-1.13,1.57,13.44,13.44,0,0,0-.94,2.18A19.34,19.34,0,0,0,384.94,785.51Z"/><path class="cls-2" d="M390.8,793.75l3.49-16.49H399l-.42,2,.89-.76a7,7,0,0,1,.94-.65,5.74,5.74,0,0,1,1-.46,3.57,3.57,0,0,1,1.13-.18,2.17,2.17,0,0,1,1.71.76,2.28,2.28,0,0,1,.43.79,3,3,0,0,1,.14.93,2.65,2.65,0,0,1-.14.86,2.21,2.21,0,0,1-.44.77,2.34,2.34,0,0,1-.75.55,2.37,2.37,0,0,1-1,.22,1.32,1.32,0,0,1-.72-.16,1.07,1.07,0,0,1-.38-.4,1.87,1.87,0,0,1-.18-.52c0-.19-.08-.36-.12-.52a1.42,1.42,0,0,0-.17-.4.38.38,0,0,0-.35-.16,2.23,2.23,0,0,0-1.27.35,9.41,9.41,0,0,0-1.13.91l-2.64,12.53Z"/><path class="cls-1" d="M371.11,686.86h12.72v13h6.43a27.9,27.9,0,0,0,8.84-1.48,22.64,22.64,0,0,0,4.3-1.94,16,16,0,0,1-3-8.22c-.37-4,.43-9.14,3.12-12.25l1.34-1.55,1.59,1.28c4,3.22,7.39,7.73,8,12.86,4.83-1.42,10.51-1.09,14.76,1.37l1.75,1-.92,1.8c-3.6,7-11.13,9.21-18.5,8.82-11,27.44-35,40.43-64.08,40.43-15,0-28.81-5.62-36.66-18.95l-.13-.22-1.14-2.33a36.91,36.91,0,0,1-2.94-18.72l.18-1.92h10.88v-13h12.72V674.13h25.45V661.41h15.27v25.45"/><path class="cls-2" d="M412.33,691.67c.85-6.63-4.11-11.84-7.19-14.31-3.55,4.1-4.1,14.85,1.47,19.37-3.11,2.76-9.65,5.26-16.35,5.26H308.72a34.37,34.37,0,0,0,3.38,18.95l.93,1.7a31.46,31.46,0,0,0,1.92,2.88q5,.32,9.27.23h0a45.46,45.46,0,0,0,13.53-2,1,1,0,0,1,.64,1.85c-.46.16-.93.31-1.43.45h0a42.54,42.54,0,0,1-9.35,1.52c.22,0-.23,0-.23,0l-.42,0c-1.47.08-3.06.1-4.69.1-1.78,0-3.53,0-5.49-.13l-.05,0c6.79,7.64,17.42,12.22,30.74,12.22,28.18,0,52.09-12.49,62.68-40.54,7.51.77,14.73-1.14,18-7.55-5.23-3-12-2.06-15.83-.11"/><path class="cls-2" d="M412.33,691.67c.85-6.63-4.11-11.84-7.19-14.31-3.55,4.1-4.1,14.85,1.47,19.37-3.11,2.76-9.65,5.26-16.35,5.26H313.54c-.33,10.71,3.64,18.84,10.67,23.75h0a45.46,45.46,0,0,0,13.53-2,1,1,0,0,1,.64,1.85c-.46.16-.93.31-1.43.45h0a44.73,44.73,0,0,1-9.6,1.59l-.09-.09c9.59,4.92,23.5,4.9,39.45-1.22,17.88-6.87,34.52-20,46.13-34.92l-.51.24"/><path class="cls-2" d="M308.87,710.48a32.6,32.6,0,0,0,3.23,10.45l.93,1.7a31.4,31.4,0,0,0,1.92,2.88q5,.32,9.27.23a45.46,45.46,0,0,0,13.53-2,1,1,0,0,1,.64,1.85c-.46.16-.93.31-1.43.45h0a44.74,44.74,0,0,1-9.58,1.56l-.48,0c-1.47.08-3,.13-4.67.13-1.78,0-3.6,0-5.55-.13,6.79,7.64,17.48,12.23,30.8,12.23,24.13,0,45.12-9.16,57.31-29.39H308.87"/><path class="cls-2" d="M314.28,710.48a24.49,24.49,0,0,0,9.94,15.26,45.46,45.46,0,0,0,13.53-2,1,1,0,0,1,.64,1.85c-.46.16-.93.31-1.43.45h0a45.41,45.41,0,0,1-9.65,1.56c9.59,4.92,23.46,4.85,39.4-1.28A104.14,104.14,0,0,0,394,710.48h-79.7"/><path class="cls-2" d="M319.78,689h11v11h-11Zm.92.92h.87v9.19h-.87Zm1.64,0h.91v9.19h-.9V689.9Zm1.67,0h.91v9.19H324Zm1.67,0h.9v9.19h-.9Zm1.67,0h.9v9.19h-.9V689.9Zm1.67,0h.87v9.19H329Zm3.49-13.64h11v11h-11v-11Zm.92.92h.87v9.19h-.87Zm1.64,0h.9v9.19h-.9v-9.19Zm1.67,0h.9v9.19h-.9Zm1.67,0h.9v9.19h-.9Zm1.67,0H341v9.19h-.91Zm1.67,0h.87v9.19h-.87Z"/><path class="cls-2" d="M332.51,689h11v11h-11V689Zm.92.92h.87v9.19h-.87Zm1.64,0h.9v9.19h-.9V689.9Zm1.67,0h.9v9.19h-.9Zm1.67,0h.9v9.19h-.9Zm1.67,0H341v9.19h-.91Zm1.67,0h.87v9.19h-.87Z"/><path class="cls-2" d="M345.23,689h11v11h-11Zm.92.92H347v9.19h-.87Zm1.64,0h.9v9.19h-.9Zm1.67,0h.9v9.19h-.9Zm1.67,0h.9v9.19h-.9Zm1.67,0h.91v9.19h-.91Zm1.67,0h.87v9.19h-.87Z"/><path class="cls-2" d="M345.23,676.26h11v11h-11Zm.92.92H347v9.19h-.87Zm1.64,0h.9v9.19h-.9Zm1.67,0h.9v9.19h-.9Zm1.67,0h.9v9.19h-.9Zm1.67,0h.91v9.19h-.91Zm1.67,0h.87v9.19h-.87ZM358,689h11v11H358Zm.92.92h.87v9.19h-.87Zm1.64,0h.9v9.19h-.9Zm1.67,0h.9v9.19h-.9Zm1.67,0h.91v9.19h-.91Zm1.67,0h.91v9.19h-.91Zm1.67,0h.87v9.19h-.87Z"/><path class="cls-2" d="M358,676.26h11v11H358Zm.92.92h.87v9.19h-.87Zm1.64,0h.9v9.19h-.9Zm1.67,0h.9v9.19h-.9Zm1.67,0h.91v9.19h-.91Zm1.67,0h.91v9.19h-.91Zm1.67,0h.87v9.19h-.87Z"/><path class="cls-2" d="M358,663.53h11v11H358Zm.92.92h.87v9.19h-.87v-9.19Zm1.64,0h.9v9.19h-.9v-9.19Zm1.67,0h.9v9.19h-.9v-9.19Zm1.67,0h.91v9.19h-.91v-9.19Zm1.67,0h.91v9.19h-.91v-9.19Zm1.67,0h.87v9.19h-.87v-9.19Z"/><path class="cls-2" d="M370.68,689h11v11h-11Zm.92.92h.87v9.19h-.87V689.9Zm1.64,0h.91v9.19h-.9V689.9Zm1.67,0h.91v9.19h-.91Zm1.67,0h.91v9.19h-.91Zm1.67,0h.9v9.19h-.9Zm1.67,0h.87v9.19h-.87Z"/><path class="cls-2" d="M342.85,717.89a3,3,0,1,1,.08,6.09h-.08a3,3,0,0,1,0-6.09"/><path class="cls-1" d="M342.85,718.75a2.17,2.17,0,0,1,.79.15.89.89,0,1,0,1.22,1.2,2.18,2.18,0,1,1-2-1.34M289,711.58H430.56c-3.08-.78-9.75-1.84-8.65-5.88-5.6,6.48-19.12,4.55-22.53,1.35-3.8,5.51-25.91,3.41-27.45-.88-4.76,5.59-19.51,5.59-24.28,0-1.54,4.29-23.65,6.39-27.45.88-3.41,3.2-16.92,5.13-22.53-1.35,1.1,4-5.57,5.09-8.65,5.88"/><path class="cls-2" d="M350.93,739.81c-7.53-3.58-11.67-8.44-14-13.74a46.68,46.68,0,0,1-10.07,1.53q-2.21.12-4.65.12-2.81,0-5.92-.17c6.91,6.91,15.41,12.22,31.15,12.32q1.74,0,3.46-.07"/><path class="cls-2" d="M339.76,731a26.41,26.41,0,0,1-2.8-4.9,46.64,46.64,0,0,1-10.07,1.53c2.69,1.46,6.53,2.81,12.87,3.37"/><path class="cls-2" d="M373.83,510.34h-1.12a12.36,12.36,0,0,0-5.95,0h-1.12c-.34-.86-1.16-.54-1.76-.64-12.46-2.06-22.21-8.26-29.08-18.91,4.52,0,9,0,13.55-.07a16.81,16.81,0,0,0,9-2.41,20.92,20.92,0,0,1-2.81-2.91c-1.15-1.77-2.36-2.56-4.49-1.62a7.79,7.79,0,0,1-2.94.23c-5.26.05-10.52.08-15.78.11L330,480.53c-.64-1.68-.55-3.58-1.55-5.16V461.62c.71-.56.53-1.43.73-2.15.65-2.28,1-4.64,2.29-6.71,5.88.2,11.77-.28,17.63.28a8.54,8.54,0,0,1,6.89,4.07l.3.41.06.1a1.08,1.08,0,0,0,.16.22l.23.62.33.57a.51.51,0,0,1,.1.31l-1.08.53c-.63-1-1.21-2-1.89-2.9-.79-1.08-1.5-1.16-1.93.31-.1.34-.26.66-.39,1l-.31.56-1.12,4.64s-.08.08-.08.11a1.53,1.53,0,0,0,.07.26l-.13,1.11c-1,1.38-.93,5.38,0,6.7a34.35,34.35,0,0,0,2.2,7.84c6.36,14.71,25,14,32.07,4.57,6.18-8.19,6.69-17.24,2.91-26.36a19,19,0,0,0-25.91-9.9c-1.06.51-1.6.86-.31,1.79a11.34,11.34,0,0,1,2.87,3.14c.6.94,1.17,1.07,2.26.72,5.67-1.82,10.75.42,12.88,5.93a24.23,24.23,0,0,1-.28,18.81c-1.82,4.25-5.38,6.12-10,5.69-.81-1.07-1.91-.83-3-.67a2.9,2.9,0,0,1-1.9-1l.13-1a4.66,4.66,0,0,0,1.38-1.94c2.25-4.31,2.16-9,1.83-13.62-.74-10.47-8-20.12-21-19.6-3.83.15-7.67,0-11.5,0a4.4,4.4,0,0,1,.31-.67,41.64,41.64,0,0,1,27.34-18c.79-.15,1.75.1,2.34-.72h9.3c.21.56.72.37,1.11.43,21.12,3.1,36.26,20.44,36.23,41.47s-15.21,38.12-36.29,41.21C374.76,509.84,374.08,509.6,373.83,510.34Z"/><path class="cls-2" d="M366.76,510.34a12.36,12.36,0,0,1,5.95,0Z"/><path class="cls-3" d="M369,483.89c4.66.44,8.22-1.43,10-5.69a24.23,24.23,0,0,0,.28-18.81c-2.14-5.51-7.21-7.76-12.88-5.93-1.1.35-1.67.22-2.26-.72a11.34,11.34,0,0,0-2.87-3.14c-1.29-.94-.75-1.28.31-1.79a19,19,0,0,1,25.91,9.9c3.79,9.12,3.27,18.17-2.91,26.36-7.09,9.39-25.71,10.14-32.07-4.57a34.35,34.35,0,0,1-2.2-7.84l0-6.7.13-1.11v-.38l1.12-4.64a.47.47,0,0,0,.31-.56c.13-.33.29-.65.39-1,.43-1.47,1.14-1.39,1.93-.31.68.93,1.26,1.93,1.89,2.9,1.27,3.35,1.38,6.86,1.46,10.39a13.71,13.71,0,0,0,6.55,12,2.9,2.9,0,0,0,1.9,1A5.4,5.4,0,0,0,369,483.89Z"/><path class="cls-3" d="M331.48,452.76a21.23,21.23,0,0,1,3.42-6.75c3.83,0,7.67.19,11.5,0,13.07-.52,20.3,9.12,21,19.6.33,4.62.42,9.3-1.83,13.62a4.66,4.66,0,0,1-1.38,1.94c-.09-.22-.12-.51-.28-.66-4-3.65-5.15-8.32-5.06-13.54a14.81,14.81,0,0,0-1.71-7.66.51.51,0,0,0-.1-.31l-.33-.57-.23-.62a.22.22,0,0,0-.16-.22l-.06-.1-.3-.41a8.54,8.54,0,0,0-6.89-4.07C343.26,452.48,337.36,453,331.48,452.76Z"/><path class="cls-3" d="M334.81,490.79a22.13,22.13,0,0,1-3.43-6.67c5.26,0,10.52-.06,15.78-.11a7.79,7.79,0,0,0,2.94-.23c2.13-.94,3.35-.15,4.49,1.62a20.92,20.92,0,0,0,2.81,2.91,16.81,16.81,0,0,1-9,2.41C343.85,490.78,339.33,490.77,334.81,490.79Z"/><path class="cls-2" d="M357.18,459.34a14.81,14.81,0,0,1,1.71,7.66c-.09,5.22,1.05,9.89,5.06,13.54.16.14.19.43.28.66l-.13,1a13.71,13.71,0,0,1-6.55-12c-.08-3.53-.18-7-1.46-10.39Z"/><path class="cls-2" d="M350.32,465l0,6.7C349.38,470.34,349.37,466.35,350.32,465Z"/><path class="cls-2" d="M369,483.89a5.4,5.4,0,0,1-3-.67C367.09,483.06,368.19,482.83,369,483.89Z"/><path class="cls-2" d="M356,457.11l.3.41Z"/><path class="cls-2" d="M356.36,457.62a.22.22,0,0,1,.16.22A1.08,1.08,0,0,1,356.36,457.62Z"/><path class="cls-2" d="M351.89,458.27a.47.47,0,0,1-.31.56Z"/><path class="cls-2" d="M356.75,458.46l.33.57Z"/><path class="cls-2" d="M350.45,463.48v.38a1.53,1.53,0,0,1-.07-.26S350.43,463.52,350.45,463.48Z"/><path class="cls-2" d="M327.06,558.79l4.48-21,4.88-.64-4,18.49a3.15,3.15,0,0,0,1.88.66,3.09,3.09,0,0,0,1.84-.61,6.33,6.33,0,0,0,1.55-1.67,12.75,12.75,0,0,0,1.25-2.47,22.8,22.8,0,0,0,.93-3,28.85,28.85,0,0,0,.57-3.33,30.26,30.26,0,0,0,.19-3.39,10.28,10.28,0,0,0-.35-2.86,5.22,5.22,0,0,0-1-1.93,3.78,3.78,0,0,0-1.52-1.09,5.33,5.33,0,0,0-2-.35,10.34,10.34,0,0,0-3.41.55,7.94,7.94,0,0,0-2.74,1.59,7.34,7.34,0,0,0-1.82,2.52,8.17,8.17,0,0,0-.66,3.37,5.81,5.81,0,0,0,.07,1,4.41,4.41,0,0,0,.15.63,2.33,2.33,0,0,0,.15.36.48.48,0,0,1,.07.22,4.28,4.28,0,0,1-2.59-.69,2.76,2.76,0,0,1-.93-2.37,5.81,5.81,0,0,1,.44-2.21,7.78,7.78,0,0,1,1.25-2.05,10.37,10.37,0,0,1,1.93-1.78,13.48,13.48,0,0,1,2.49-1.41,15.07,15.07,0,0,1,2.92-.93,15.71,15.71,0,0,1,3.24-.33,10.68,10.68,0,0,1,2.87.36,8.14,8.14,0,0,1,2.25,1,7,7,0,0,1,1.68,1.51,8.09,8.09,0,0,1,1.14,1.93,10.42,10.42,0,0,1,.65,2.25,14.27,14.27,0,0,1,.21,2.46,21.53,21.53,0,0,1-.34,3.78,23.72,23.72,0,0,1-.94,3.64,20.07,20.07,0,0,1-1.45,3.24,14.16,14.16,0,0,1-1.86,2.62,8.57,8.57,0,0,1-2.17,1.75,4.86,4.86,0,0,1-2.38.64,5.05,5.05,0,0,1-2-.42,7.85,7.85,0,0,1-2.06-1.34l-.27,1.32Z"/><path class="cls-2" d="M358.84,552.88a18.92,18.92,0,0,1-1.59,2.26,11.9,11.9,0,0,1-2,1.95,9.88,9.88,0,0,1-2.48,1.38,8.24,8.24,0,0,1-3,.52,7.13,7.13,0,0,1-2.13-.3,4.2,4.2,0,0,1-1.63-.93,4.08,4.08,0,0,1-1-1.62,7,7,0,0,1-.36-2.39,14.42,14.42,0,0,1,.19-2.19,16.77,16.77,0,0,1,.61-2.54,14.27,14.27,0,0,1,1.11-2.56,10.09,10.09,0,0,1,1.67-2.25,7.77,7.77,0,0,1,2.3-1.6,7.17,7.17,0,0,1,3-.6,5.21,5.21,0,0,1,1.81.27,2.91,2.91,0,0,1,1.11.7,2.32,2.32,0,0,1,.56,1,4.57,4.57,0,0,1,.15,1.18,5.79,5.79,0,0,1-.63,2.67,7.11,7.11,0,0,1-1.68,2.15,8.67,8.67,0,0,1-2.42,1.48,9,9,0,0,1-2.85.66c0,.25,0,.48-.06.7s0,.43,0,.62a5.13,5.13,0,0,0,.15,1.38,2,2,0,0,0,.45.85,1.6,1.6,0,0,0,.74.43,4,4,0,0,0,1,.12,5.76,5.76,0,0,0,1.78-.26,6.23,6.23,0,0,0,1.49-.71,8.23,8.23,0,0,0,1.31-1.06q.62-.61,1.25-1.3Zm-9-2.33a4.43,4.43,0,0,0,1.8-.53,5.48,5.48,0,0,0,1.53-1.22,6,6,0,0,0,1.06-1.71,5.18,5.18,0,0,0,.39-2,2.31,2.31,0,0,0-.18-1,.65.65,0,0,0-.64-.37,1.76,1.76,0,0,0-1.23.6,6.9,6.9,0,0,0-1.13,1.57,13.44,13.44,0,0,0-.94,2.18A19.17,19.17,0,0,0,349.84,550.54Z"/><path class="cls-2" d="M359.2,542.3h4.75l-2.37,11.21q-.08.37-.13.67a3.44,3.44,0,0,0,0,.52,1.15,1.15,0,0,0,.27.8,1.1,1.1,0,0,0,.86.3,2.51,2.51,0,0,0,1.54-.56,6.22,6.22,0,0,0,1.37-1.49,13.13,13.13,0,0,0,1.14-2.1,20.55,20.55,0,0,0,.88-2.4,21,21,0,0,0,.56-2.39,12.3,12.3,0,0,0,.2-2.07.31.31,0,0,1-.17.15,1.68,1.68,0,0,1-.3.1l-.32.06-.26,0a.9.9,0,0,1-.52-.15,1.33,1.33,0,0,1-.38-.39,1.79,1.79,0,0,1-.23-.54,2.51,2.51,0,0,1-.07-.59,1.77,1.77,0,0,1,.49-1.28,2.08,2.08,0,0,1,1.55-.51,1.76,1.76,0,0,1,1.63.88,2.86,2.86,0,0,1,.35.92,5.28,5.28,0,0,1,.11,1.06,20.9,20.9,0,0,1-.23,2.91,21.31,21.31,0,0,1-.72,3.2,20.32,20.32,0,0,1-1.24,3.12,12,12,0,0,1-1.8,2.67,8.48,8.48,0,0,1-2.4,1.88,6.42,6.42,0,0,1-3,.71,4.31,4.31,0,0,1-3-1,3.7,3.7,0,0,1-1.09-2.92c0-.18,0-.42,0-.7a7,7,0,0,1,.13-.89Z"/><path class="cls-2" d="M384.07,537.16a5.25,5.25,0,0,0-1.47,1.41,14.92,14.92,0,0,0-1.36,2.24,24.72,24.72,0,0,0-1.18,2.79q-.54,1.51-.93,3.06a29.31,29.31,0,0,0-.61,3.06,19.6,19.6,0,0,0-.22,2.78,9.83,9.83,0,0,0,.11,1.54,4.93,4.93,0,0,0,.34,1.21,2,2,0,0,0,.59.79,1.38,1.38,0,0,0,.88.28,2.71,2.71,0,0,0,1.67-.64,8,8,0,0,0,1.6-1.76,15.81,15.81,0,0,0,1.43-2.58,23.88,23.88,0,0,0,1.14-3.14,28.43,28.43,0,0,0,.77-3.42,21.57,21.57,0,0,0,.28-3.41,16.51,16.51,0,0,0-.17-2.52,4.63,4.63,0,0,0-.64-1.81,2.86,2.86,0,0,0-1.29-1.09,5.31,5.31,0,0,0-2.13-.36,11.14,11.14,0,0,0-3.61.59,9.4,9.4,0,0,0-3,1.69,8.12,8.12,0,0,0-2.08,2.67,7.88,7.88,0,0,0-.77,3.53,4.21,4.21,0,0,0,.06.78,4.9,4.9,0,0,0,.11.48,2.14,2.14,0,0,0,.11.3.48.48,0,0,1,.06.21,4.16,4.16,0,0,1-2.46-.63,2.45,2.45,0,0,1-.88-2.14,5.46,5.46,0,0,1,.5-2.27,8.2,8.2,0,0,1,1.4-2.12,11.9,11.9,0,0,1,2.13-1.85,14.71,14.71,0,0,1,2.71-1.46,17.58,17.58,0,0,1,3.14-1,16.47,16.47,0,0,1,3.4-.35,9.42,9.42,0,0,1,3.66.63,6.13,6.13,0,0,1,2.41,1.75,7,7,0,0,1,1.33,2.67,13.27,13.27,0,0,1,.41,3.39,22.33,22.33,0,0,1-1.23,7.11,20.9,20.9,0,0,1-1.61,3.53,13.28,13.28,0,0,1-2.33,3,10.83,10.83,0,0,1-3.09,2.08,9.39,9.39,0,0,1-3.9.78,7.6,7.6,0,0,1-2.38-.35,4.64,4.64,0,0,1-1.87-1.14,5.24,5.24,0,0,1-1.22-2.05,9.5,9.5,0,0,1-.44-3.07,20.52,20.52,0,0,1,.25-3,25.45,25.45,0,0,1,.75-3.38,24.7,24.7,0,0,1,1.25-3.36,14.56,14.56,0,0,1,1.74-2.92,8.61,8.61,0,0,1,2.23-2,5,5,0,0,1,2.72-.77,7.53,7.53,0,0,1,.84,0A3.69,3.69,0,0,1,384.07,537.16Z"/><path class="cls-2" d="M388,567l5.51-26h4.75l-.53,2.48a6.61,6.61,0,0,1,1.66-1,5.5,5.5,0,0,1,2.19-.4,4.67,4.67,0,0,1,1.58.27,3.12,3.12,0,0,1,1.28.87,4.33,4.33,0,0,1,.85,1.6,8.25,8.25,0,0,1,.31,2.46,20.75,20.75,0,0,1-.15,2.41,16.48,16.48,0,0,1-.52,2.59,14.29,14.29,0,0,1-1,2.5,8.32,8.32,0,0,1-1.51,2.12,7,7,0,0,1-2.13,1.47,6.83,6.83,0,0,1-2.83.55,5.48,5.48,0,0,1-1.1-.1,3.41,3.41,0,0,1-.8-.26,2,2,0,0,1-.55-.38,2.74,2.74,0,0,1-.36-.44l-1.71,8Zm7.21-11.68a1.2,1.2,0,0,0,.39.52,1.35,1.35,0,0,0,.86.24,2.76,2.76,0,0,0,1.55-.44,4.42,4.42,0,0,0,1.19-1.18,7.49,7.49,0,0,0,.87-1.67,14.65,14.65,0,0,0,.58-1.92A17,17,0,0,0,401,549a15.94,15.94,0,0,0,.11-1.73,5.08,5.08,0,0,0-.18-1.5,2.25,2.25,0,0,0-.43-.82,1.1,1.1,0,0,0-.54-.35,2.23,2.23,0,0,0-.51-.07,2.15,2.15,0,0,0-1.18.41,3.57,3.57,0,0,0-1.09,1.22Z"/><path class="cls-2" d="M415.33,541.29q.1,2.14.18,3.71c.06,1,.12,2,.17,2.72s.1,1.42.14,2,.08,1,.12,1.42.06.79.08,1.13,0,.69,0,1.05a5.76,5.76,0,0,1-.3,1.92,5,5,0,0,1-.8,1.47,5.15,5.15,0,0,1-1.18,1.07,6.78,6.78,0,0,1-1.4.72,7.63,7.63,0,0,1-1.49.39,8.93,8.93,0,0,1-1.43.12,5.54,5.54,0,0,1-2.15-.38,4.5,4.5,0,0,1-1.51-1,3.86,3.86,0,0,1-.88-1.35,4.26,4.26,0,0,1-.28-1.51,3.6,3.6,0,0,1,.15-1.07,3.86,3.86,0,0,1,.39-.88,3.22,3.22,0,0,1,.56-.67,2.73,2.73,0,0,1,.65-.44,40.29,40.29,0,0,0,2.33-4.9q1-2.42,1.72-4.87Zm-8.94,12.79a2.73,2.73,0,0,0,.46,1.73,1.88,1.88,0,0,0,1.55.57,3.67,3.67,0,0,0,1.06-.15,2.35,2.35,0,0,0,.92-.52,2.54,2.54,0,0,0,.64-.94,3.76,3.76,0,0,0,.24-1.45c0-.28,0-.55,0-.81s0-.54-.06-.84-.05-.62-.09-1L411,549.4q-.07-.73-.15-1.68t-.18-2.22a28.09,28.09,0,0,1-1.17,3.13q-.68,1.51-1.5,3.11a1.76,1.76,0,0,1,.54.45,1.08,1.08,0,0,1,.22.69,1.86,1.86,0,0,1-.1.6,1.6,1.6,0,0,1-.29.52,1.45,1.45,0,0,1-.46.37,1.28,1.28,0,0,1-.6.14,1.66,1.66,0,0,1-.52-.08A.63.63,0,0,1,406.39,554.07Z"/><path class="cls-2" d="M76.74,305.16a5.25,5.25,0,0,0-1.47,1.41,14.92,14.92,0,0,0-1.36,2.24,24.72,24.72,0,0,0-1.18,2.79q-.54,1.51-.93,3.06a29.57,29.57,0,0,0-.61,3.06,19.46,19.46,0,0,0-.22,2.78,9.7,9.7,0,0,0,.11,1.54,4.85,4.85,0,0,0,.34,1.21A2,2,0,0,0,72,324a1.38,1.38,0,0,0,.88.28,2.71,2.71,0,0,0,1.67-.64,8,8,0,0,0,1.6-1.76,15.89,15.89,0,0,0,1.43-2.58,24.17,24.17,0,0,0,1.14-3.14,28.43,28.43,0,0,0,.77-3.42,21.57,21.57,0,0,0,.28-3.41,16.63,16.63,0,0,0-.17-2.52A4.65,4.65,0,0,0,79,305a2.86,2.86,0,0,0-1.29-1.09,5.29,5.29,0,0,0-2.12-.36,11.13,11.13,0,0,0-3.61.59,9.4,9.4,0,0,0-3,1.69,8.15,8.15,0,0,0-2.09,2.67,7.9,7.9,0,0,0-.77,3.53,4.3,4.3,0,0,0,.06.78c0,.2.08.36.11.48a1.82,1.82,0,0,0,.11.3.48.48,0,0,1,.06.21,4.17,4.17,0,0,1-2.46-.63,2.46,2.46,0,0,1-.88-2.14,5.46,5.46,0,0,1,.5-2.27,8.2,8.2,0,0,1,1.4-2.12,11.93,11.93,0,0,1,2.13-1.85,14.75,14.75,0,0,1,2.71-1.46,17.56,17.56,0,0,1,3.14-1,16.49,16.49,0,0,1,3.4-.35,9.42,9.42,0,0,1,3.66.63,6.11,6.11,0,0,1,2.41,1.75,7,7,0,0,1,1.33,2.67,13.22,13.22,0,0,1,.41,3.39,22.33,22.33,0,0,1-1.23,7.11,20.83,20.83,0,0,1-1.61,3.53,13.25,13.25,0,0,1-2.33,3,10.84,10.84,0,0,1-3.09,2.08A9.39,9.39,0,0,1,72,327a7.6,7.6,0,0,1-2.38-.35,4.65,4.65,0,0,1-1.87-1.14,5.26,5.26,0,0,1-1.22-2.05,9.45,9.45,0,0,1-.44-3.07,20.39,20.39,0,0,1,.25-3,25.75,25.75,0,0,1,.75-3.38,24.84,24.84,0,0,1,1.25-3.36,14.56,14.56,0,0,1,1.74-2.92,8.59,8.59,0,0,1,2.23-2,5,5,0,0,1,2.72-.77,7.53,7.53,0,0,1,.84,0A3.7,3.7,0,0,1,76.74,305.16Z"/><path class="cls-2" d="M80.7,335l5.51-26H91l-.53,2.48a6.67,6.67,0,0,1,1.66-1,5.51,5.51,0,0,1,2.19-.4,4.68,4.68,0,0,1,1.58.27,3.1,3.1,0,0,1,1.28.87,4.33,4.33,0,0,1,.85,1.6,8.29,8.29,0,0,1,.31,2.46,20.75,20.75,0,0,1-.15,2.41,16.59,16.59,0,0,1-.52,2.59,14.29,14.29,0,0,1-1,2.5A8.32,8.32,0,0,1,95.15,325,7,7,0,0,1,93,326.43a6.83,6.83,0,0,1-2.83.55,5.46,5.46,0,0,1-1.1-.1,3.38,3.38,0,0,1-.8-.26,2,2,0,0,1-.55-.38,2.64,2.64,0,0,1-.36-.44l-1.71,8Zm7.21-11.68a1.19,1.19,0,0,0,.39.52,1.35,1.35,0,0,0,.86.24,2.76,2.76,0,0,0,1.55-.44,4.43,4.43,0,0,0,1.19-1.18,7.49,7.49,0,0,0,.87-1.67,14.65,14.65,0,0,0,.58-1.92,17,17,0,0,0,.33-1.94,16.18,16.18,0,0,0,.1-1.73,5.08,5.08,0,0,0-.18-1.5,2.24,2.24,0,0,0-.43-.82,1.09,1.09,0,0,0-.54-.35,2.23,2.23,0,0,0-.52-.07,2.16,2.16,0,0,0-1.18.41,3.57,3.57,0,0,0-1.09,1.22Z"/><path class="cls-2" d="M112.15,320.88a18.92,18.92,0,0,1-1.59,2.26,11.91,11.91,0,0,1-2,1.95,9.87,9.87,0,0,1-2.48,1.38,8.23,8.23,0,0,1-3,.52,7.13,7.13,0,0,1-2.12-.3,4.21,4.21,0,0,1-1.63-.93,4.09,4.09,0,0,1-1-1.62,7,7,0,0,1-.36-2.39,14.42,14.42,0,0,1,.19-2.19,16.77,16.77,0,0,1,.61-2.54,14.34,14.34,0,0,1,1.11-2.56,10.06,10.06,0,0,1,1.67-2.25,7.8,7.8,0,0,1,2.3-1.6,7.17,7.17,0,0,1,3-.6,5.22,5.22,0,0,1,1.81.27,2.92,2.92,0,0,1,1.11.7,2.31,2.31,0,0,1,.56,1,4.57,4.57,0,0,1,.15,1.18,5.8,5.8,0,0,1-.63,2.67,7.11,7.11,0,0,1-1.68,2.15,8.66,8.66,0,0,1-2.42,1.48,9,9,0,0,1-2.85.66c0,.25,0,.48-.06.7s0,.43,0,.62a5.18,5.18,0,0,0,.15,1.38,2,2,0,0,0,.45.85,1.6,1.6,0,0,0,.74.43,4,4,0,0,0,1,.12A5.76,5.76,0,0,0,107,324a6.25,6.25,0,0,0,1.49-.71,8.32,8.32,0,0,0,1.31-1.06q.62-.61,1.25-1.3Zm-9-2.33A4.43,4.43,0,0,0,105,318a5.5,5.5,0,0,0,1.53-1.22,6,6,0,0,0,1.06-1.71,5.19,5.19,0,0,0,.39-2,2.31,2.31,0,0,0-.18-1,.65.65,0,0,0-.64-.37,1.76,1.76,0,0,0-1.23.6,6.9,6.9,0,0,0-1.14,1.57,13.44,13.44,0,0,0-.94,2.18A19.34,19.34,0,0,0,103.15,318.54Z"/><path class="cls-2" d="M109,326.79l3.49-16.49h4.75L116.9,312a6.07,6.07,0,0,1,1.05-1,4.91,4.91,0,0,1,1-.55,4.35,4.35,0,0,1,.94-.26,5.78,5.78,0,0,1,.83-.06,4.9,4.9,0,0,1,1.47.21,2.91,2.91,0,0,1,1.93,1.82,4.67,4.67,0,0,1,.27,1.69,9.1,9.1,0,0,1-.12,1.43q-.12.76-.3,1.56c-.12.53-.24,1.06-.38,1.59s-.26,1-.38,1.51-.22.93-.3,1.34a5.82,5.82,0,0,0-.12,1.09,1.65,1.65,0,0,0,.28,1,1.21,1.21,0,0,0,1,.39,2,2,0,0,0,1.1-.21,4.46,4.46,0,0,1-.45,1.54,3.64,3.64,0,0,1-.82,1.05,3,3,0,0,1-1.09.61,4.15,4.15,0,0,1-1.26.19,3.6,3.6,0,0,1-1.59-.31,2.76,2.76,0,0,1-1-.84,3.28,3.28,0,0,1-.55-1.19,5.85,5.85,0,0,1-.16-1.38,9.71,9.71,0,0,1,.23-2q.23-1.12.51-2.29t.51-2.27a9.22,9.22,0,0,0,.23-1.88q0-1.69-1.19-1.69a1.54,1.54,0,0,0-.84.24,2.77,2.77,0,0,0-.71.65,4.91,4.91,0,0,0-.58,1,9.27,9.27,0,0,0-.45,1.18l-2.24,10.58Z"/><path class="cls-2" d="M140.44,321.19a10.19,10.19,0,0,1-1.68,2.59,10.76,10.76,0,0,1-2.3,1.95,10.87,10.87,0,0,1-2.73,1.23,10.43,10.43,0,0,1-2.95.43,7.19,7.19,0,0,1-2.75-.47,5,5,0,0,1-3-3.13,6.82,6.82,0,0,1-.35-2.21,8.94,8.94,0,0,1,.42-2.66,9.9,9.9,0,0,1,1.2-2.54,8.78,8.78,0,0,1,1.92-2.08,6.9,6.9,0,0,1,2.57-1.26,4.64,4.64,0,0,1-1.54-1.81,5.13,5.13,0,0,1-.47-2.15,6.43,6.43,0,0,1,.54-2.54,7.71,7.71,0,0,1,1.5-2.28,7.53,7.53,0,0,1,2.29-1.64A6.69,6.69,0,0,1,136,302a6.27,6.27,0,0,1,1.84.27,4.52,4.52,0,0,1,1.51.78,3.55,3.55,0,0,1,1,1.29,4.16,4.16,0,0,1,.36,1.79,4.64,4.64,0,0,1-.19,1.37,3.61,3.61,0,0,1-.53,1.09,2.6,2.6,0,0,1-.78.72,1.85,1.85,0,0,1-.94.26,1.88,1.88,0,0,1-1.55-.88,1.3,1.3,0,0,0,.56-.4,3.43,3.43,0,0,0,.47-.71,4.08,4.08,0,0,0,.31-.87,3.81,3.81,0,0,0,.11-.9,2.05,2.05,0,0,0-.16-.85,1.64,1.64,0,0,0-.41-.57,1.53,1.53,0,0,0-.58-.31,2.36,2.36,0,0,0-.67-.1,2.45,2.45,0,0,0-1.36.4A3.76,3.76,0,0,0,134,305.4a5.33,5.33,0,0,0-.69,1.49,6,6,0,0,0-.25,1.71,5.47,5.47,0,0,0,.19,1.42,4.13,4.13,0,0,0,.59,1.28,4,4,0,0,0,1,1,4.88,4.88,0,0,0,1.52.69,5.77,5.77,0,0,0-1.67.64,7.44,7.44,0,0,0-1.43,1.07,8.34,8.34,0,0,0-1.17,1.38,9.87,9.87,0,0,0-.88,1.57,9.11,9.11,0,0,0-.56,1.63,6.9,6.9,0,0,0-.19,1.58,4.66,4.66,0,0,0,.18,1.3,2.93,2.93,0,0,0,.55,1.06,2.53,2.53,0,0,0,1,.71,3.6,3.6,0,0,0,1.43.26,7.13,7.13,0,0,0,1.63-.21,7.8,7.8,0,0,0,3.28-1.69,5.39,5.39,0,0,0,1.19-1.46Z"/><path class="cls-2" d="M142.16,326.79l4.48-21,4.88-.64L150,312.47h.19A3.71,3.71,0,0,0,152,312a5.36,5.36,0,0,0,1.51-1.26,6.35,6.35,0,0,0,1-1.72,5.07,5.07,0,0,0,.38-1.88,3.71,3.71,0,0,0-.24-1.33,3.09,3.09,0,0,0-.76-1.13,3.72,3.72,0,0,0-1.34-.8,6,6,0,0,0-2-.3,9,9,0,0,0-2,.22,8.48,8.48,0,0,0-1.9.66,8.71,8.71,0,0,0-1.71,1.1,6.94,6.94,0,0,0-1.39,1.55,7.91,7.91,0,0,0-.93,2,8.34,8.34,0,0,0-.35,2.47,5.81,5.81,0,0,0,.07,1,3.72,3.72,0,0,0,.16.63,2.65,2.65,0,0,0,.16.36.48.48,0,0,1,.07.22,4.34,4.34,0,0,1-2.6-.68,2.72,2.72,0,0,1-.93-2.35,5.77,5.77,0,0,1,.45-2.23,8,8,0,0,1,1.26-2.06,10.59,10.59,0,0,1,1.93-1.79,13.67,13.67,0,0,1,2.45-1.41,14.66,14.66,0,0,1,2.82-.93,14.13,14.13,0,0,1,3.05-.33,9.93,9.93,0,0,1,3.14.44,6.6,6.6,0,0,1,2.18,1.17,4.61,4.61,0,0,1,1.28,1.67,4.83,4.83,0,0,1,.42,2,5.47,5.47,0,0,1-.21,1.48,5.61,5.61,0,0,1-.63,1.42,6.79,6.79,0,0,1-2.46,2.34,4.62,4.62,0,0,1,1.8.7,4.35,4.35,0,0,1,1.21,1.22,5.07,5.07,0,0,1,.68,1.59,7.73,7.73,0,0,1,.21,1.8,12.29,12.29,0,0,1-.15,1.8,13.2,13.2,0,0,1-.49,2.07,12.23,12.23,0,0,1-.88,2.07,7.48,7.48,0,0,1-1.35,1.8,6.39,6.39,0,0,1-1.87,1.27,5.92,5.92,0,0,1-2.46.48,6.75,6.75,0,0,1-1.11-.1,3.13,3.13,0,0,1-1.05-.37,2.32,2.32,0,0,1-.79-.75,2.19,2.19,0,0,1-.31-1.23,4.39,4.39,0,0,1,.1-.89,6.24,6.24,0,0,1,.32-1,4.29,4.29,0,0,0,1.14.94,2.38,2.38,0,0,0,1.08.26,2.16,2.16,0,0,0,1.52-.57,4.28,4.28,0,0,0,1-1.45,7.9,7.9,0,0,0,.56-1.92,12.51,12.51,0,0,0,.17-2,8.27,8.27,0,0,0-.15-1.62,3.9,3.9,0,0,0-.52-1.34,2.68,2.68,0,0,0-1-.91,3,3,0,0,0-1.5-.34l-.63,0a6.71,6.71,0,0,0-.88.1l-2.71,12.63Z"/><path class="cls-2" d="M177.47,306.5a4.07,4.07,0,0,1-.18,1.26,3.15,3.15,0,0,1-.51,1,2.23,2.23,0,0,1-.79.64,2.31,2.31,0,0,1-1,.22,2.4,2.4,0,0,1-1.14-.27,2.57,2.57,0,0,1-.88-.77,3.24,3.24,0,0,0,1-1.2,3.57,3.57,0,0,0,.37-1.6,2.26,2.26,0,0,0-.63-1.68,2.35,2.35,0,0,0-1.72-.62,2.91,2.91,0,0,0-1.22.25,2.77,2.77,0,0,0-.95.69,3.13,3.13,0,0,0-.61,1.05,4,4,0,0,0-.22,1.34,4.22,4.22,0,0,0,.53,2.06,11.15,11.15,0,0,0,1.34,1.9q.8.93,1.74,1.89a20,20,0,0,1,1.74,2,11.33,11.33,0,0,1,1.34,2.35,7.16,7.16,0,0,1,.53,2.79,6.72,6.72,0,0,1-.68,3,7.29,7.29,0,0,1-1.88,2.38,9,9,0,0,1-2.82,1.58,10.44,10.44,0,0,1-3.5.57,9.34,9.34,0,0,1-2.86-.41,6.39,6.39,0,0,1-2.19-1.18,5.3,5.3,0,0,1-1.41-1.83,5.47,5.47,0,0,1-.5-2.37,5.81,5.81,0,0,1,.35-2,5.27,5.27,0,0,1,1-1.65,4.52,4.52,0,0,1,1.45-1.1,4.09,4.09,0,0,1,1.79-.4,3.2,3.2,0,0,1,1.95.58,2.48,2.48,0,0,1,1,1.59,4.75,4.75,0,0,0-1.56.24,3.45,3.45,0,0,0-1.18.68,3,3,0,0,0-.75,1.05,3.5,3.5,0,0,0-.27,1.39,2.92,2.92,0,0,0,3.12,3.14,4.09,4.09,0,0,0,1.61-.31,3.85,3.85,0,0,0,1.27-.86,4,4,0,0,0,.84-1.3,4.37,4.37,0,0,0,.31-1.64,5.07,5.07,0,0,0-.3-1.73,8.11,8.11,0,0,0-.8-1.61,15.61,15.61,0,0,0-1.13-1.54q-.63-.76-1.29-1.52T166.45,313a14.77,14.77,0,0,1-1.13-1.59,8.42,8.42,0,0,1-.8-1.68,5.64,5.64,0,0,1-.3-1.84,5.28,5.28,0,0,1,.55-2.41,5.81,5.81,0,0,1,1.55-1.91,7.46,7.46,0,0,1,2.34-1.26,9.1,9.1,0,0,1,2.95-.46,8.22,8.22,0,0,1,2.42.33,5.55,5.55,0,0,1,1.84.93,4.2,4.2,0,0,1,1.18,1.46A4.25,4.25,0,0,1,177.47,306.5Z"/><path class="cls-1" d="M327.1,230.46l17.38,3.7a18.45,18.45,0,0,0-1-2c-5.15-7.25-5.29-15.09-2.67-23.22,1.09-3.39,2.5-6.68,3.41-10.11.86-3.2,1.26-6.53,1.84-9.69,1.49.57,3.12,2.87,4,6.81.62,2.82.93,5.7,1.51,9.42.86-1.48,1.37-2.23,1.75-3.05a38.08,38.08,0,0,0,3.31-15.56c.1-4.88,1.67-9.19,6.57-12.61-2,4.59-.42,8.22,1.12,11.63,3.36,7.44,4.82,15.24,5.39,23.28a1.62,1.62,0,0,0,.51,1c1.49-8.45,1.37-17.33,6.79-24.71-.92,6.86,2.19,12.44,5.09,18.2,4.82,9.56,5.66,19.22-.62,28.64a20.69,20.69,0,0,0-.94,1.88l19.16-3.79A36.4,36.4,0,0,1,392,243.5a4.24,4.24,0,0,1-2.83,1.07q-26.09.09-52.17,0a3.5,3.5,0,0,1-2.55-1c-2.81-4.06-5.45-8.24-8.15-12.39Z"/><path class="cls-1" d="M335.48,250.62h55.45c0,2.76.13,5.49-.11,8.18,0,.52-1.51,1.3-2.32,1.31-7.21.1-14.43.06-21.65.06-9.44,0-18.89-.06-28.33,0-2.27,0-3.29-.55-3.08-3C335.63,255.13,335.48,253,335.48,250.62Z"/><path class="cls-1" d="M346.6,265.63h32.88c1.14,4.3-4.36,11.9-13.56,13C354.55,280.06,346.51,272.66,346.6,265.63Z"/><path class="cls-1" d="M292.49,326.79l4.48-21,4.88-.64-2.33,11a4.12,4.12,0,0,0,1.59-.45,6.19,6.19,0,0,0,1.39-1,7.55,7.55,0,0,0,1.16-1.39,10.11,10.11,0,0,0,.88-1.67,10.22,10.22,0,0,0,.56-1.8,8.91,8.91,0,0,0,.19-1.81,6.27,6.27,0,0,0-.23-1.73,4.15,4.15,0,0,0-.72-1.43,3.38,3.38,0,0,0-1.27-1,4.47,4.47,0,0,0-1.86-.36,11,11,0,0,0-3.6.55,7.34,7.34,0,0,0-2.68,1.58,6.78,6.78,0,0,0-1.68,2.52,9.23,9.23,0,0,0-.58,3.37,5.91,5.91,0,0,0,.07,1,4.26,4.26,0,0,0,.15.63,2.25,2.25,0,0,0,.15.36.47.47,0,0,1,.07.22,6.2,6.2,0,0,1-1.51-.17,2.76,2.76,0,0,1-1.1-.54,2.33,2.33,0,0,1-.68-1,4.29,4.29,0,0,1-.23-1.51,5.24,5.24,0,0,1,.47-2.16,8,8,0,0,1,1.3-2,11.46,11.46,0,0,1,1.95-1.76,14.39,14.39,0,0,1,5.07-2.31,12.08,12.08,0,0,1,2.78-.33,10.14,10.14,0,0,1,3.49.54,7.09,7.09,0,0,1,2.42,1.44,5.59,5.59,0,0,1,1.41,2.07,6.71,6.71,0,0,1,.45,2.44,8.21,8.21,0,0,1-.65,3.16,8.91,8.91,0,0,1-1.88,2.84,9.55,9.55,0,0,1-7,2.84h-.18l-2,9.4Z"/><path class="cls-1" d="M306.28,326.79l3.49-16.49h4.75l-.42,2,.89-.76a7.12,7.12,0,0,1,.94-.65,5.71,5.71,0,0,1,1-.46,3.56,3.56,0,0,1,1.13-.18,2.17,2.17,0,0,1,1.71.76,2.28,2.28,0,0,1,.44.79,3.06,3.06,0,0,1,.14.93,2.68,2.68,0,0,1-.14.86,2.24,2.24,0,0,1-.44.77,2.34,2.34,0,0,1-1.8.77,1.32,1.32,0,0,1-.72-.16,1.07,1.07,0,0,1-.38-.4,1.87,1.87,0,0,1-.19-.52c0-.19-.08-.36-.12-.52a1.42,1.42,0,0,0-.17-.4.38.38,0,0,0-.35-.16,2.23,2.23,0,0,0-1.27.35,9.48,9.48,0,0,0-1.13.91L311,326.79Z"/><path class="cls-1" d="M337.71,314.26a8.09,8.09,0,0,1-2.5,1.72,13.06,13.06,0,0,1-3.35,1,15.49,15.49,0,0,1-.88,4.12,11,11,0,0,1-1.73,3.13,7.52,7.52,0,0,1-2.4,2,6.21,6.21,0,0,1-2.87.69,7.6,7.6,0,0,1-2.12-.28,4.27,4.27,0,0,1-1.68-.9,4.14,4.14,0,0,1-1.09-1.61,6.5,6.5,0,0,1-.39-2.41,13.7,13.7,0,0,1,.2-2.2,15.7,15.7,0,0,1,.64-2.54,15.19,15.19,0,0,1,1.14-2.55,9.8,9.8,0,0,1,1.71-2.23,8.19,8.19,0,0,1,2.33-1.59,7.17,7.17,0,0,1,3-.6q4.23,0,4.23,5.27v0a.42.42,0,0,0,.15,0h.2a5.18,5.18,0,0,0,1.25-.17,10.59,10.59,0,0,0,1.34-.44,11.23,11.23,0,0,0,1.32-.64,13.63,13.63,0,0,0,1.18-.73Zm-8.58,2.83a1,1,0,0,1-.7-.51,2,2,0,0,1-.18-.88,2.08,2.08,0,0,1,.28-1.13,1.68,1.68,0,0,1,.75-.65,5.84,5.84,0,0,0-.11-.89,1.92,1.92,0,0,0-.23-.6.81.81,0,0,0-.36-.33,1.38,1.38,0,0,0-.56-.1,1.76,1.76,0,0,0-1.14.46,5.39,5.39,0,0,0-1,1.21,11.1,11.1,0,0,0-.9,1.73,17.15,17.15,0,0,0-.7,2,18.24,18.24,0,0,0-.45,2,11.64,11.64,0,0,0-.16,1.83,8.09,8.09,0,0,0,.09,1.34,2.05,2.05,0,0,0,.29.81,1,1,0,0,0,.52.41,2.38,2.38,0,0,0,.79.11,1.84,1.84,0,0,0,1.2-.53,5.49,5.49,0,0,0,1.12-1.45,11.47,11.47,0,0,0,.91-2.17A16.08,16.08,0,0,0,329.13,317.1Z"/><path class="cls-1" d="M359.08,320.88a14.44,14.44,0,0,1-1.49,3.24A7.7,7.7,0,0,1,356,326a4.29,4.29,0,0,1-1.59.83,6,6,0,0,1-1.44.19,4.69,4.69,0,0,1-1.84-.31,3.19,3.19,0,0,1-1.19-.84,3.25,3.25,0,0,1-.65-1.19,4.76,4.76,0,0,1-.2-1.38,9.71,9.71,0,0,1,.23-2q.23-1.12.51-2.29t.51-2.27a9.22,9.22,0,0,0,.23-1.88q0-1.69-1.19-1.69a1.54,1.54,0,0,0-.84.24,2.77,2.77,0,0,0-.71.65,4.91,4.91,0,0,0-.58,1,9.41,9.41,0,0,0-.45,1.18l-2.24,10.58h-4.75l2.42-11.38a3.37,3.37,0,0,0,.1-.82,3.07,3.07,0,0,0,0-.55,1.43,1.43,0,0,0-.17-.46,1,1,0,0,0-.31-.32.85.85,0,0,0-.48-.12,1.73,1.73,0,0,0-.89.24,2.7,2.7,0,0,0-.74.66,4.81,4.81,0,0,0-.59,1,9.73,9.73,0,0,0-.45,1.19l-2.24,10.58h-4.75l3.49-16.49h4.75l-.36,1.71a5.93,5.93,0,0,1,1.06-1,5.28,5.28,0,0,1,1-.56,4.75,4.75,0,0,1,1-.27,6.4,6.4,0,0,1,.92-.07,4.62,4.62,0,0,1,1.21.15,2.84,2.84,0,0,1,1,.49,2.89,2.89,0,0,1,.74.88,4,4,0,0,1,.44,1.31,7.1,7.1,0,0,1,1.22-1.47,5.53,5.53,0,0,1,1.22-.85,4.36,4.36,0,0,1,1.14-.39,5.77,5.77,0,0,1,1-.1,4.82,4.82,0,0,1,1.46.21,2.92,2.92,0,0,1,1.92,1.82,4.7,4.7,0,0,1,.27,1.69,9.1,9.1,0,0,1-.12,1.43q-.12.76-.29,1.56c-.11.53-.24,1.06-.38,1.59s-.27,1-.38,1.51-.21.93-.29,1.34a5.82,5.82,0,0,0-.12,1.09,1.65,1.65,0,0,0,.28,1,1.21,1.21,0,0,0,1,.39,2,2,0,0,0,.93-.21,2.38,2.38,0,0,0,.72-.6,4.53,4.53,0,0,0,.59-.93q.27-.54.52-1.18Z"/><path class="cls-1" d="M370.71,320.88a18.8,18.8,0,0,1-1.59,2.26,11.86,11.86,0,0,1-2,1.95,9.93,9.93,0,0,1-2.48,1.38,8.24,8.24,0,0,1-3,.52,7.13,7.13,0,0,1-2.13-.3,4.2,4.2,0,0,1-1.63-.93,4.08,4.08,0,0,1-1-1.62,7,7,0,0,1-.36-2.39,14.42,14.42,0,0,1,.19-2.19,16.77,16.77,0,0,1,.61-2.54,14.27,14.27,0,0,1,1.11-2.56,10.09,10.09,0,0,1,1.67-2.25,7.77,7.77,0,0,1,2.3-1.6,7.16,7.16,0,0,1,3-.6,5.22,5.22,0,0,1,1.81.27,2.92,2.92,0,0,1,1.11.7,2.31,2.31,0,0,1,.56,1,4.49,4.49,0,0,1,.15,1.18,5.78,5.78,0,0,1-.63,2.67,7.09,7.09,0,0,1-1.68,2.15,8.67,8.67,0,0,1-2.42,1.48,9,9,0,0,1-2.85.66c0,.25,0,.48-.06.7s0,.43,0,.62a5.09,5.09,0,0,0,.15,1.38,2,2,0,0,0,.45.85,1.61,1.61,0,0,0,.74.43,4,4,0,0,0,1,.12,5.76,5.76,0,0,0,1.78-.26,6.21,6.21,0,0,0,1.49-.71,8.23,8.23,0,0,0,1.31-1.06q.62-.61,1.25-1.3Zm-9-2.33a4.44,4.44,0,0,0,1.8-.53A5.48,5.48,0,0,0,365,316.8a6,6,0,0,0,1.05-1.71,5.16,5.16,0,0,0,.39-2,2.28,2.28,0,0,0-.18-1,.65.65,0,0,0-.64-.37,1.76,1.76,0,0,0-1.23.6,6.9,6.9,0,0,0-1.13,1.57,13.44,13.44,0,0,0-.94,2.18A19.17,19.17,0,0,0,361.71,318.54Z"/><path class="cls-1" d="M379,320.88a13.39,13.39,0,0,1-1,2.32,9.55,9.55,0,0,1-1.19,1.66,6.47,6.47,0,0,1-1.27,1.1,6.54,6.54,0,0,1-1.26.64,5.85,5.85,0,0,1-1.17.31,7.14,7.14,0,0,1-1,.08,4.16,4.16,0,0,1-1.38-.22,2.88,2.88,0,0,1-1.12-.71,3.42,3.42,0,0,1-.75-1.22,5.18,5.18,0,0,1-.27-1.79,8.39,8.39,0,0,1,.06-1q.06-.54.19-1.17l2-9.26h-1.09l.27-1.32h1.08l1-4.56,4.88-.66-1.13,5.22h2l-.26,1.32h-2l-2.11,9.89a2.82,2.82,0,0,0-.1.54c0,.18,0,.35,0,.52a1.19,1.19,0,0,0,.32,1,1.59,1.59,0,0,0,1,.27,2.15,2.15,0,0,0,.94-.22,3,3,0,0,0,.85-.6,4.34,4.34,0,0,0,.69-.93,5.86,5.86,0,0,0,.5-1.17Z"/><path class="cls-1" d="M394.92,320.88a14.48,14.48,0,0,1-1.49,3.24,7.74,7.74,0,0,1-1.61,1.84,4.31,4.31,0,0,1-1.59.83,6,6,0,0,1-1.44.19,4.68,4.68,0,0,1-1.84-.31,3.17,3.17,0,0,1-1.19-.84,3.22,3.22,0,0,1-.65-1.19,4.73,4.73,0,0,1-.2-1.38,9.7,9.7,0,0,1,.23-2q.23-1.12.51-2.29t.51-2.27a9.34,9.34,0,0,0,.23-1.88q0-1.69-1.19-1.69a1.54,1.54,0,0,0-.84.24,2.73,2.73,0,0,0-.71.65,4.91,4.91,0,0,0-.58,1,9.42,9.42,0,0,0-.45,1.18l-2.24,10.58h-4.75l4.78-22.43,4.88-.66L383.52,312a6,6,0,0,1,1.05-1,4.9,4.9,0,0,1,1-.55,4.35,4.35,0,0,1,.94-.26,5.8,5.8,0,0,1,.83-.06,4.89,4.89,0,0,1,1.46.21,2.92,2.92,0,0,1,1.93,1.82,4.72,4.72,0,0,1,.27,1.69,9.22,9.22,0,0,1-.12,1.43q-.12.76-.3,1.56c-.12.53-.25,1.06-.38,1.59s-.26,1-.38,1.51-.22.93-.3,1.34a5.66,5.66,0,0,0-.12,1.09,1.65,1.65,0,0,0,.28,1,1.21,1.21,0,0,0,1,.39,2,2,0,0,0,.93-.21,2.39,2.39,0,0,0,.72-.6,4.57,4.57,0,0,0,.59-.93q.27-.54.52-1.18Z"/><path class="cls-1" d="M406.56,320.88a19,19,0,0,1-1.59,2.26,11.87,11.87,0,0,1-2,1.95,9.87,9.87,0,0,1-2.48,1.38,8.23,8.23,0,0,1-3,.52,7.13,7.13,0,0,1-2.12-.3,4.21,4.21,0,0,1-1.63-.93,4.09,4.09,0,0,1-1-1.62,7,7,0,0,1-.36-2.39,14.43,14.43,0,0,1,.19-2.19,16.76,16.76,0,0,1,.61-2.54,14.27,14.27,0,0,1,1.11-2.56,10.06,10.06,0,0,1,1.67-2.25,7.77,7.77,0,0,1,2.3-1.6,7.17,7.17,0,0,1,3-.6,5.23,5.23,0,0,1,1.81.27,2.91,2.91,0,0,1,1.11.7,2.29,2.29,0,0,1,.56,1,4.57,4.57,0,0,1,.15,1.18,5.8,5.8,0,0,1-.63,2.67,7.12,7.12,0,0,1-1.68,2.15,8.67,8.67,0,0,1-2.42,1.48,9,9,0,0,1-2.85.66c0,.25,0,.48-.06.7s0,.43,0,.62a5.18,5.18,0,0,0,.15,1.38,2,2,0,0,0,.45.85,1.6,1.6,0,0,0,.74.43,4,4,0,0,0,1,.12,5.76,5.76,0,0,0,1.78-.26,6.25,6.25,0,0,0,1.49-.71,8.32,8.32,0,0,0,1.31-1.06q.62-.61,1.25-1.3Zm-9-2.33a4.42,4.42,0,0,0,1.8-.53,5.51,5.51,0,0,0,1.53-1.22,6,6,0,0,0,1.05-1.71,5.19,5.19,0,0,0,.39-2,2.31,2.31,0,0,0-.18-1,.65.65,0,0,0-.64-.37,1.76,1.76,0,0,0-1.23.6,7,7,0,0,0-1.13,1.57,13.44,13.44,0,0,0-.94,2.18A19.18,19.18,0,0,0,397.55,318.54Z"/><path class="cls-1" d="M422.71,320.88a14.75,14.75,0,0,1-1,2.32,9.91,9.91,0,0,1-1.13,1.66,6.42,6.42,0,0,1-1.2,1.1,5.87,5.87,0,0,1-1.19.64,5.29,5.29,0,0,1-1.11.31,6.61,6.61,0,0,1-1,.08,3.16,3.16,0,0,1-2.25-.78,3.64,3.64,0,0,1-1-2.34,8.08,8.08,0,0,1-1.27,1.63,6,6,0,0,1-1.27,1,4.11,4.11,0,0,1-1.22.44,6.59,6.59,0,0,1-1.11.1,4.16,4.16,0,0,1-1.38-.22,2.88,2.88,0,0,1-1.12-.71,3.42,3.42,0,0,1-.75-1.22,5.18,5.18,0,0,1-.27-1.79,8.39,8.39,0,0,1,.06-1q.06-.54.19-1.17l2.24-10.58h4.75l-2.37,11.21a5.27,5.27,0,0,0-.1.93,2,2,0,0,0,.21,1,.8.8,0,0,0,.77.39,1.81,1.81,0,0,0,.88-.22,2.56,2.56,0,0,0,.73-.6,4,4,0,0,0,.58-.93,9,9,0,0,0,.44-1.17l2.24-10.58h4.75l-2.37,11.21a3.39,3.39,0,0,0-.11.54,4.36,4.36,0,0,0,0,.52,1.17,1.17,0,0,0,.33,1,1.63,1.63,0,0,0,1,.27,1.86,1.86,0,0,0,.89-.22,2.65,2.65,0,0,0,.75-.6,4.08,4.08,0,0,0,.6-.93,7.16,7.16,0,0,0,.43-1.17Z"/><path class="cls-1" d="M430.19,309.29q.1,2.14.18,3.71c.06,1,.12,2,.17,2.72s.1,1.42.14,2,.08,1,.12,1.42.06.79.08,1.13,0,.69,0,1.05a5.76,5.76,0,0,1-.3,1.92,5,5,0,0,1-.8,1.47,5.15,5.15,0,0,1-1.18,1.07,6.78,6.78,0,0,1-1.4.72,7.63,7.63,0,0,1-1.49.39,8.93,8.93,0,0,1-1.43.12,5.54,5.54,0,0,1-2.15-.38,4.5,4.5,0,0,1-1.51-1,3.86,3.86,0,0,1-.88-1.35,4.26,4.26,0,0,1-.28-1.51,3.6,3.6,0,0,1,.15-1.07,3.86,3.86,0,0,1,.39-.88,3.22,3.22,0,0,1,.56-.67,2.73,2.73,0,0,1,.65-.44,40.29,40.29,0,0,0,2.33-4.9q1-2.42,1.72-4.87Zm-8.94,12.79a2.73,2.73,0,0,0,.46,1.73,1.88,1.88,0,0,0,1.55.57,3.67,3.67,0,0,0,1.06-.15,2.35,2.35,0,0,0,.92-.52,2.54,2.54,0,0,0,.64-.94,3.76,3.76,0,0,0,.24-1.45c0-.28,0-.55,0-.81s0-.54-.06-.84-.05-.62-.09-1l-.13-1.27q-.07-.73-.15-1.68t-.18-2.22a28.09,28.09,0,0,1-1.17,3.13q-.68,1.51-1.5,3.11a1.76,1.76,0,0,1,.54.45,1.08,1.08,0,0,1,.22.69,1.86,1.86,0,0,1-.1.6,1.6,1.6,0,0,1-.29.52,1.45,1.45,0,0,1-.46.37,1.28,1.28,0,0,1-.6.14,1.66,1.66,0,0,1-.52-.08A.63.63,0,0,1,421.26,322.07Z"/><path class="cls-3" d="M58.87,558.79l4.77-22.43a7.37,7.37,0,0,0-3.4,2.75A8,8,0,0,0,59,543.59a5.81,5.81,0,0,0,.07,1,4.41,4.41,0,0,0,.15.63,2.33,2.33,0,0,0,.15.36.48.48,0,0,1,.07.22,6.2,6.2,0,0,1-1.51-.17,2.75,2.75,0,0,1-1.1-.54,2.33,2.33,0,0,1-.68-1,4.29,4.29,0,0,1-.23-1.51,5.24,5.24,0,0,1,.47-2.16,8,8,0,0,1,1.3-2,11.47,11.47,0,0,1,1.95-1.76,14.37,14.37,0,0,1,5.07-2.31,12.07,12.07,0,0,1,2.78-.33l.68,0,.64,0-2.14,10.1.93-1.24,1.13-1.51L70,539.81l1.23-1.66,1.14-1.53.94-1.26q.4-.54.88-1.15h3.46L68.5,544.78l.6,0,.55,0a6.33,6.33,0,0,1,2,.27,3.14,3.14,0,0,1,1.26.74,2.58,2.58,0,0,1,.65,1.12,5,5,0,0,1,.19,1.4,10,10,0,0,1-.25,2.17q-.25,1.14-.55,2.25t-.56,2.13a7.61,7.61,0,0,0-.25,1.8,2.64,2.64,0,0,0,.35,1.36,1.82,1.82,0,0,0,.94.81,15.8,15.8,0,0,1-1.87.44,9,9,0,0,1-1.4.13,3.57,3.57,0,0,1-1.3-.2,2.07,2.07,0,0,1-.78-.52,1.71,1.71,0,0,1-.39-.71,3,3,0,0,1-.1-.78,8.18,8.18,0,0,1,.27-1.94q.27-1.1.6-2.29t.6-2.34a9.28,9.28,0,0,0,.27-2.11,3.69,3.69,0,0,0-.1-.91,2,2,0,0,0-.33-.71,1.44,1.44,0,0,0-.61-.46,2.42,2.42,0,0,0-.93-.16l-.51,0a3.55,3.55,0,0,0-.59.1l-2.64,12.43Z"/><path class="cls-3" d="M92.87,552.88a14.84,14.84,0,0,1-1,2.32,9.86,9.86,0,0,1-1.14,1.66,6.38,6.38,0,0,1-1.2,1.1,5.92,5.92,0,0,1-1.19.64,5.3,5.3,0,0,1-1.11.31,6.61,6.61,0,0,1-1,.08A3.17,3.17,0,0,1,84,558.2a3.64,3.64,0,0,1-1-2.34,8.15,8.15,0,0,1-1.27,1.63,6.06,6.06,0,0,1-1.27,1,4.11,4.11,0,0,1-1.22.44,6.58,6.58,0,0,1-1.11.1,4.16,4.16,0,0,1-1.38-.22A2.88,2.88,0,0,1,75.6,558a3.4,3.4,0,0,1-.75-1.22,5.18,5.18,0,0,1-.27-1.79,8.39,8.39,0,0,1,.06-1q.06-.54.19-1.17l2.24-10.58h4.75l-2.37,11.21a5.1,5.1,0,0,0-.1.93,2,2,0,0,0,.21,1,.8.8,0,0,0,.77.39,1.81,1.81,0,0,0,.88-.22A2.55,2.55,0,0,0,82,555a4,4,0,0,0,.58-.93,9.26,9.26,0,0,0,.44-1.17l2.24-10.58H90L87.6,553.51a3.19,3.19,0,0,0-.11.54,4.16,4.16,0,0,0,0,.52,1.17,1.17,0,0,0,.33,1,1.63,1.63,0,0,0,1,.27,1.86,1.86,0,0,0,.89-.22,2.63,2.63,0,0,0,.75-.6A4,4,0,0,0,91,554a7.35,7.35,0,0,0,.43-1.17Z"/><path class="cls-3" d="M94.25,536.36l4.88-.66-1.58,7.42a9.35,9.35,0,0,1,.89-.49,5.4,5.4,0,0,1,.72-.28,3,3,0,0,1,.59-.12l.51,0a4.2,4.2,0,0,1,1.59.29,2.93,2.93,0,0,1,1.23,1,4.85,4.85,0,0,1,.8,1.75,10.57,10.57,0,0,1,.28,2.64,14.94,14.94,0,0,1-.79,4.61,13,13,0,0,1-1.11,2.42,9.09,9.09,0,0,1-1.69,2.09,7.82,7.82,0,0,1-2.35,1.47,8.15,8.15,0,0,1-3.11.55,4.8,4.8,0,0,1-3.45-1.11,4.1,4.1,0,0,1-1.16-3.11,9.3,9.3,0,0,1,0-.94,5.75,5.75,0,0,1,.18-.94Zm1.06,17.15a3.39,3.39,0,0,0-.1.76q0,1.53,1.74,1.53a1.73,1.73,0,0,0,1-.36,4.06,4.06,0,0,0,.93-1,8,8,0,0,0,.78-1.42,12.94,12.94,0,0,0,.6-1.71,14.7,14.7,0,0,0,.39-1.83,12.33,12.33,0,0,0,.14-1.8,6.61,6.61,0,0,0-.1-1.17,4,4,0,0,0-.32-1,2,2,0,0,0-.55-.72,1.21,1.21,0,0,0-.78-.27l-.45,0a3.75,3.75,0,0,0-.56.1,3.3,3.3,0,0,0-.54.19,1.07,1.07,0,0,0-.39.29Z"/><path class="cls-3" d="M118.38,552.88a18.8,18.8,0,0,1-1.59,2.26,11.87,11.87,0,0,1-2,1.95,9.89,9.89,0,0,1-2.48,1.38,8.25,8.25,0,0,1-3,.52,7.13,7.13,0,0,1-2.13-.3,4.21,4.21,0,0,1-1.63-.93,4.07,4.07,0,0,1-1-1.62,7,7,0,0,1-.36-2.39,14.43,14.43,0,0,1,.19-2.19A16.77,16.77,0,0,1,105,549a14.34,14.34,0,0,1,1.11-2.56,10.07,10.07,0,0,1,1.68-2.25,7.77,7.77,0,0,1,2.3-1.6,7.16,7.16,0,0,1,3-.6,5.22,5.22,0,0,1,1.81.27,2.92,2.92,0,0,1,1.11.7,2.32,2.32,0,0,1,.56,1,4.53,4.53,0,0,1,.15,1.18,5.78,5.78,0,0,1-.63,2.67A7.09,7.09,0,0,1,114.4,550a8.67,8.67,0,0,1-2.42,1.48,9,9,0,0,1-2.85.66c0,.25,0,.48-.06.7s0,.43,0,.62a5.09,5.09,0,0,0,.15,1.38,2,2,0,0,0,.45.85,1.6,1.6,0,0,0,.74.43,4,4,0,0,0,1,.12,5.76,5.76,0,0,0,1.78-.26,6.2,6.2,0,0,0,1.49-.71,8.23,8.23,0,0,0,1.31-1.06q.62-.61,1.25-1.3Zm-9-2.33a4.44,4.44,0,0,0,1.8-.53,5.48,5.48,0,0,0,1.53-1.22,6,6,0,0,0,1.05-1.71,5.16,5.16,0,0,0,.39-2,2.3,2.3,0,0,0-.18-1,.65.65,0,0,0-.64-.37,1.76,1.76,0,0,0-1.23.6,6.9,6.9,0,0,0-1.13,1.57,13.36,13.36,0,0,0-.94,2.18A19.34,19.34,0,0,0,109.38,550.54Z"/><path class="cls-3" d="M115.24,558.79l3.49-16.49h4.75l-.42,2,.89-.76a7.12,7.12,0,0,1,.94-.65,5.71,5.71,0,0,1,1-.46,3.56,3.56,0,0,1,1.13-.18,2.17,2.17,0,0,1,1.71.76,2.28,2.28,0,0,1,.44.79,3.06,3.06,0,0,1,.14.93,2.68,2.68,0,0,1-.14.86,2.24,2.24,0,0,1-.44.77,2.34,2.34,0,0,1-1.8.77,1.32,1.32,0,0,1-.72-.16,1.07,1.07,0,0,1-.38-.4,1.87,1.87,0,0,1-.19-.52c0-.19-.08-.36-.12-.52a1.42,1.42,0,0,0-.17-.4A.38.38,0,0,0,125,545a2.23,2.23,0,0,0-1.27.35,9.48,9.48,0,0,0-1.13.91L120,558.79Z"/><path class="cls-3" d="M146.18,552.88a14.4,14.4,0,0,1-1.49,3.24,7.72,7.72,0,0,1-1.61,1.84,4.31,4.31,0,0,1-1.59.83A6,6,0,0,1,140,559a4.68,4.68,0,0,1-1.84-.31,3.18,3.18,0,0,1-1.19-.84,3.23,3.23,0,0,1-.65-1.19,4.73,4.73,0,0,1-.2-1.38,9.78,9.78,0,0,1,.23-2q.23-1.12.51-2.29t.51-2.27a9.28,9.28,0,0,0,.23-1.88q0-1.69-1.19-1.69a1.54,1.54,0,0,0-.84.24,2.78,2.78,0,0,0-.71.65,4.91,4.91,0,0,0-.58,1,9.42,9.42,0,0,0-.45,1.18l-2.24,10.58h-4.75l3.49-16.49h4.75l-.35,1.71a6,6,0,0,1,1.05-1,4.9,4.9,0,0,1,1-.55,4.36,4.36,0,0,1,.94-.26,5.77,5.77,0,0,1,.83-.06,4.9,4.9,0,0,1,1.47.21,3,3,0,0,1,1.17.66,3,3,0,0,1,.77,1.16,4.7,4.7,0,0,1,.27,1.69,9.1,9.1,0,0,1-.12,1.43q-.12.76-.3,1.56c-.12.53-.24,1.06-.38,1.59s-.26,1-.38,1.51-.22.93-.3,1.34a5.74,5.74,0,0,0-.12,1.09,1.65,1.65,0,0,0,.28,1,1.21,1.21,0,0,0,1,.39,2,2,0,0,0,.93-.21,2.38,2.38,0,0,0,.72-.6,4.53,4.53,0,0,0,.59-.93q.27-.54.52-1.18Z"/><path class="cls-3" d="M157.82,552.88a18.8,18.8,0,0,1-1.59,2.26,11.87,11.87,0,0,1-2,1.95,9.89,9.89,0,0,1-2.48,1.38,8.25,8.25,0,0,1-3,.52,7.13,7.13,0,0,1-2.13-.3,4.21,4.21,0,0,1-1.63-.93,4.07,4.07,0,0,1-1-1.62,7,7,0,0,1-.36-2.39,14.43,14.43,0,0,1,.19-2.19,16.77,16.77,0,0,1,.61-2.54,14.34,14.34,0,0,1,1.11-2.56,10.07,10.07,0,0,1,1.68-2.25,7.77,7.77,0,0,1,2.3-1.6,7.16,7.16,0,0,1,3-.6,5.22,5.22,0,0,1,1.81.27,2.92,2.92,0,0,1,1.11.7,2.32,2.32,0,0,1,.56,1,4.53,4.53,0,0,1,.15,1.18,5.78,5.78,0,0,1-.63,2.67,7.09,7.09,0,0,1-1.68,2.15,8.67,8.67,0,0,1-2.42,1.48,9,9,0,0,1-2.85.66c0,.25,0,.48-.06.7s0,.43,0,.62a5.09,5.09,0,0,0,.15,1.38,2,2,0,0,0,.45.85,1.6,1.6,0,0,0,.74.43,4,4,0,0,0,1,.12,5.76,5.76,0,0,0,1.78-.26,6.2,6.2,0,0,0,1.49-.71,8.23,8.23,0,0,0,1.31-1.06q.62-.61,1.25-1.3Zm-9-2.33a4.44,4.44,0,0,0,1.8-.53,5.48,5.48,0,0,0,1.53-1.22,6,6,0,0,0,1.05-1.71,5.16,5.16,0,0,0,.39-2,2.3,2.3,0,0,0-.18-1,.65.65,0,0,0-.64-.37,1.76,1.76,0,0,0-1.23.6,6.9,6.9,0,0,0-1.13,1.57,13.36,13.36,0,0,0-.94,2.18A19.34,19.34,0,0,0,148.82,550.54Z"/><path class="cls-3" d="M166.13,552.88a13.54,13.54,0,0,1-1,2.32,9.66,9.66,0,0,1-1.19,1.66,6.45,6.45,0,0,1-2.54,1.74,5.86,5.86,0,0,1-1.17.31,7.12,7.12,0,0,1-1,.08,4.16,4.16,0,0,1-1.38-.22,2.88,2.88,0,0,1-1.12-.71,3.39,3.39,0,0,1-.75-1.22,5.16,5.16,0,0,1-.27-1.79,8.39,8.39,0,0,1,.06-1q.06-.54.19-1.17l2-9.26h-1.1l.27-1.32h1.08l1-4.56,4.88-.66-1.13,5.22h2l-.26,1.32h-2l-2.11,9.89a2.82,2.82,0,0,0-.1.54c0,.18,0,.35,0,.52a1.19,1.19,0,0,0,.32,1,1.59,1.59,0,0,0,1,.27,2.16,2.16,0,0,0,.94-.22,3,3,0,0,0,.84-.6,4.31,4.31,0,0,0,.69-.93,5.8,5.8,0,0,0,.5-1.17Z"/><path class="cls-3" d="M177.77,552.88a18.92,18.92,0,0,1-1.59,2.26,11.91,11.91,0,0,1-2,1.95,9.87,9.87,0,0,1-2.48,1.38,8.23,8.23,0,0,1-3,.52,7.13,7.13,0,0,1-2.12-.3,4.21,4.21,0,0,1-1.63-.93,4.09,4.09,0,0,1-1-1.62,7,7,0,0,1-.36-2.39,14.42,14.42,0,0,1,.19-2.19,16.77,16.77,0,0,1,.61-2.54,14.34,14.34,0,0,1,1.11-2.56,10.06,10.06,0,0,1,1.67-2.25,7.8,7.8,0,0,1,2.3-1.6,7.17,7.17,0,0,1,3-.6,5.22,5.22,0,0,1,1.81.27,2.92,2.92,0,0,1,1.11.7,2.31,2.31,0,0,1,.56,1,4.57,4.57,0,0,1,.15,1.18,5.8,5.8,0,0,1-.63,2.67,7.11,7.11,0,0,1-1.68,2.15,8.66,8.66,0,0,1-2.42,1.48,9,9,0,0,1-2.85.66c0,.25,0,.48-.06.7s0,.43,0,.62a5.18,5.18,0,0,0,.15,1.38,2,2,0,0,0,.45.85,1.6,1.6,0,0,0,.74.43,4,4,0,0,0,1,.12,5.76,5.76,0,0,0,1.78-.26,6.25,6.25,0,0,0,1.49-.71,8.32,8.32,0,0,0,1.31-1.06q.62-.61,1.25-1.3Zm-9-2.33a4.43,4.43,0,0,0,1.8-.53,5.5,5.5,0,0,0,1.53-1.22,6,6,0,0,0,1.06-1.71,5.19,5.19,0,0,0,.39-2,2.31,2.31,0,0,0-.18-1,.65.65,0,0,0-.64-.37,1.76,1.76,0,0,0-1.23.6,6.9,6.9,0,0,0-1.14,1.57,13.44,13.44,0,0,0-.94,2.18A19.34,19.34,0,0,0,168.76,550.54Z"/><path class="cls-3" d="M185.51,541.29q.1,2.14.19,3.71t.17,2.72q.08,1.15.14,2t.12,1.42c0,.41.06.79.08,1.13s0,.69,0,1.05a5.76,5.76,0,0,1-.3,1.92,5,5,0,0,1-.8,1.47,5.15,5.15,0,0,1-1.18,1.07,6.78,6.78,0,0,1-1.4.72,7.65,7.65,0,0,1-1.49.39,8.93,8.93,0,0,1-1.43.12,5.54,5.54,0,0,1-2.15-.38,4.51,4.51,0,0,1-1.5-1,3.84,3.84,0,0,1-.88-1.35,4.24,4.24,0,0,1-.28-1.51,3.57,3.57,0,0,1,.15-1.07,3.77,3.77,0,0,1,.39-.88,3.19,3.19,0,0,1,.56-.67,2.73,2.73,0,0,1,.65-.44,40.14,40.14,0,0,0,2.33-4.9q1-2.42,1.72-4.87Zm-8.94,12.79a2.73,2.73,0,0,0,.46,1.73,1.88,1.88,0,0,0,1.55.57,3.67,3.67,0,0,0,1.06-.15,2.35,2.35,0,0,0,.92-.52,2.55,2.55,0,0,0,.64-.94,3.76,3.76,0,0,0,.24-1.45c0-.28,0-.55,0-.81s0-.54-.06-.84-.05-.62-.09-1l-.13-1.27q-.07-.73-.15-1.68t-.18-2.22a27.9,27.9,0,0,1-1.18,3.13q-.68,1.51-1.5,3.11a1.76,1.76,0,0,1,.54.45,1.08,1.08,0,0,1,.22.69,1.86,1.86,0,0,1-.1.6,1.62,1.62,0,0,1-.29.52,1.46,1.46,0,0,1-.46.37,1.29,1.29,0,0,1-.6.14,1.65,1.65,0,0,1-.51-.08A.63.63,0,0,1,176.57,554.07Z"/><path class="cls-3" d="M121,510.29c-5.31,0-10.63,0-15.94,0a6.51,6.51,0,0,1-5.49-2.56C92.84,499.3,86,490.89,79.25,482.45a5.76,5.76,0,0,1-1.2-5.17c2.4-10.26,4.79-20.52,7.09-30.81A7.26,7.26,0,0,1,89.46,441c9.49-4.42,18.93-9,28.35-13.53a6.63,6.63,0,0,1,6.23-.05c9.74,4.7,19.51,9.32,29.27,14a5.62,5.62,0,0,1,3.21,4q3.75,16.19,7.49,32.38a5.67,5.67,0,0,1-1.46,4.92C156,490.85,149.37,499,142.85,507.2a7.65,7.65,0,0,1-6.69,3.13C131.13,510.19,126.08,510.29,121,510.29ZM97.62,470.38c.25,3-.18,3.6-2.74,4-1.07.19-2.17.18-3.24.36-1.29.22-2.55.73-2.21,2.32s1.73,1.55,3,1.2,2.3-.83,3.46-1.22a2.58,2.58,0,0,1,3.56,1.63A22.25,22.25,0,0,0,107.68,489c1.49,1,1.58,2.27.8,3.7-.62,1.13-1.41,2.17-2,3.3s-.88,2.48.62,3.12,2.16-.42,2.61-1.59.81-2.61,1.4-3.83,1.5-2.06,3.23-1.49a21.54,21.54,0,0,0,13.46,0c1.67-.53,2.49.22,3.08,1.43s.9,2.56,1.4,3.83,1.3,2.29,2.76,1.57,1.12-1.91.52-3-1.48-2.28-2.12-3.48a2.34,2.34,0,0,1,.82-3.47,22,22,0,0,0,8.31-10.35,2.55,2.55,0,0,1,3.56-1.68c1.16.39,2.28.89,3.45,1.24s2.64.34,3-1.24-.9-2.11-2.24-2.29-2.59-.2-3.84-.48c-1.5-.34-2.46-1.05-2.22-3,.41-3.29-.43-6.47-1.38-9.62-.55-1.81-2.54-3.16-1.88-5.28s2.89-2.53,4.45-3.67c1.14-.83,1.76-1.91.78-3.09s-2.11-.58-3,.26-1.81,1.85-2.77,2.72c-1.25,1.13-2.39,1.36-3.85,0A21.21,21.21,0,0,0,124.75,447a2.43,2.43,0,0,1-2.37-2.89c.06-1.29.31-2.56.43-3.84s-.28-2.63-1.82-2.65-1.94,1.26-1.84,2.62.41,2.7.4,4-.42,2.46-2.14,2.67a21.74,21.74,0,0,0-12.32,5.88,2.15,2.15,0,0,1-3.21.08c-1.09-.91-2-2-3.09-3s-2.07-1.41-3-.26-.36,2.3.8,3.08c1,.65,2,1.17,2.93,1.86,1.48,1.1,2.21,2.25,1,4.23A22,22,0,0,0,97.62,470.38Z"/><path class="cls-2" d="M97.62,470.38a22,22,0,0,1,2.88-11.54c1.19-2,.46-3.13-1-4.23-.93-.69-2-1.21-2.93-1.86-1.16-.78-1.8-1.88-.8-3.08s2.1-.6,3,.26,2,2.05,3.09,3a2.15,2.15,0,0,0,3.21-.08,21.74,21.74,0,0,1,12.32-5.88c1.72-.21,2.13-1.33,2.14-2.67s-.3-2.7-.4-4,.27-2.64,1.84-2.62,1.94,1.28,1.82,2.65-.37,2.56-.43,3.84a2.43,2.43,0,0,0,2.37,2.89,21.21,21.21,0,0,1,11.78,5.65c1.45,1.35,2.6,1.12,3.85,0,1-.87,1.81-1.84,2.77-2.72s2.08-1.42,3-.26.37,2.25-.78,3.09c-1.56,1.14-3.8,1.57-4.45,3.67s1.34,3.47,1.88,5.28c1,3.15,1.79,6.33,1.38,9.62-.24,1.92.73,2.63,2.22,3,1.25.28,2.56.31,3.84.48s2.55.73,2.24,2.29-1.68,1.61-3,1.24-2.3-.85-3.45-1.24a2.55,2.55,0,0,0-3.56,1.68,22,22,0,0,1-8.31,10.35,2.34,2.34,0,0,0-.82,3.47c.63,1.2,1.46,2.29,2.12,3.48s.81,2.36-.52,3-2.27-.33-2.76-1.57-.81-2.61-1.4-3.83-1.41-2-3.08-1.43a21.54,21.54,0,0,1-13.46,0c-1.74-.56-2.61.21-3.23,1.49s-.9,2.56-1.4,3.83-1.25,2.16-2.61,1.59-1.26-1.95-.62-3.12,1.41-2.17,2-3.3c.78-1.42.68-2.71-.8-3.7a22.25,22.25,0,0,1-8.25-10.29,2.58,2.58,0,0,0-3.56-1.63c-1.16.39-2.28.89-3.46,1.22s-2.63.4-3-1.2.92-2.11,2.21-2.32c1.07-.18,2.17-.17,3.24-.36C97.44,474,97.87,473.38,97.62,470.38Zm32,4.37c-2-.1-2.64.68-2,2.31,1,2.54,2.06,5,3.06,7.56.32.8.71.82,1.35.34a19.28,19.28,0,0,0,6.05-7.57c.4-.88.16-1.23-.73-1.37C134.69,475.59,132.07,475.15,129.61,474.75Zm-11-21.46c.33-1.51,0-1.89-1.52-1.55a19.87,19.87,0,0,0-8.14,4c-.69.55-1,.94,0,1.6,2.16,1.4,4.2,3,6.34,4.43,1.71,1.15,2.81.59,3-1.5C118.38,457.89,118.47,455.51,118.58,453.29Zm15.35,3.34a18.49,18.49,0,0,0-10.64-5.1c.16,3.13.24,6.18.5,9.21.14,1.59,1.35,2,2.83,1C129,460.15,131.38,458.43,133.93,456.63Zm5.74,13.53a23.36,23.36,0,0,0-2.09-8.59c-.61-1.29-1.08-1.19-2-.3-1.7,1.65-3.53,3.17-5.29,4.76-1.6,1.45-1.31,2.67.8,3.31s4.33,1.13,6.43,1.87C139.27,471.83,139.94,471.46,139.67,470.16Zm-18.14,18.39c.87-.13,2.28-.38,3.69-.55s1.43-.88.92-1.83c-1.22-2.28-2.43-4.57-3.79-6.76-.87-1.4-1.92-1.31-2.84.11-.7,1.08-1.28,2.25-1.92,3.37C114.75,487.86,115.15,488.52,121.53,488.55Zm-19.22-19.11c.65.49-1,2.41,1.05,2a63.5,63.5,0,0,0,8.23-2.35c1.33-.46,1.47-1.6.47-2.57-1.94-1.87-4-3.6-5.94-5.46-.91-.87-1.27-.5-1.73.41A21.55,21.55,0,0,0,102.31,469.44Zm10.49,5.27-8.25,1.38c-.81.14-.92.59-.59,1.3a19.5,19.5,0,0,0,6.08,7.53c.64.49,1,.41,1.32-.39,1-2.52,2.09-5,3.06-7.54C115,475.54,114.26,474.82,112.8,474.7ZM121,467a3,3,0,0,0-3.13,2.69,3.72,3.72,0,0,0,3,3.45c1.44,0,3-1.68,3.12-3.35A3,3,0,0,0,121,467Z"/><path class="cls-3" d="M129.61,474.75c2.47.4,5.08.84,7.7,1.26.89.14,1.13.5.73,1.37a19.28,19.28,0,0,1-6.05,7.57c-.64.48-1,.46-1.35-.34-1-2.52-2.1-5-3.06-7.56C127,475.43,127.65,474.65,129.61,474.75Z"/><path class="cls-3" d="M118.58,453.29c-.11,2.23-.19,4.6-.36,7-.15,2.08-1.25,2.65-3,1.5-2.14-1.44-4.18-3-6.34-4.43-1-.66-.7-1,0-1.6a19.87,19.87,0,0,1,8.14-4C118.56,451.4,118.91,451.78,118.58,453.29Z"/><path class="cls-3" d="M133.93,456.63c-2.54,1.8-4.9,3.52-7.31,5.14-1.47,1-2.69.56-2.83-1-.26-3-.34-6.07-.5-9.21A18.49,18.49,0,0,1,133.93,456.63Z"/><path class="cls-3" d="M139.67,470.16c.27,1.3-.4,1.67-2.15,1-2.1-.74-4.29-1.23-6.43-1.87s-2.4-1.86-.8-3.31c1.76-1.59,3.59-3.11,5.29-4.76.92-.89,1.4-1,2,.3A23.36,23.36,0,0,1,139.67,470.16Z"/><path class="cls-3" d="M121.53,488.55c-6.39,0-6.78-.69-3.94-5.66.64-1.12,1.22-2.28,1.92-3.37.92-1.43,2-1.51,2.84-.11,1.36,2.19,2.57,4.48,3.79,6.76.5.94.38,1.68-.92,1.83S122.41,488.42,121.53,488.55Z"/><path class="cls-3" d="M102.31,469.44a21.55,21.55,0,0,1,2.08-8c.46-.91.82-1.28,1.73-.41,1.94,1.86,4,3.59,5.94,5.46,1,1,.87,2.11-.47,2.57a63.5,63.5,0,0,1-8.23,2.35C101.34,471.84,103,469.93,102.31,469.44Z"/><path class="cls-3" d="M112.8,474.7c1.46.12,2.18.84,1.62,2.29-1,2.53-2.07,5-3.06,7.54-.31.8-.68.87-1.32.39a19.5,19.5,0,0,1-6.08-7.53c-.33-.72-.22-1.16.59-1.3Z"/><path class="cls-3" d="M121,467a3,3,0,0,1,3,2.79c-.07,1.67-1.68,3.4-3.12,3.35a3.72,3.72,0,0,1-3-3.45A3,3,0,0,1,121,467Z"/><path class="cls-2" d="M95.53,195H118.2c7.88,0,15.76-.15,23.63,0,10.05.25,16.69,6.88,16.82,16.87q.24,19.08,0,38.17c-.11,10.09-6.51,16.85-16.61,17.05q-20.9.42-41.81,0c-10.14-.2-16.49-6.89-16.59-17-.12-12.72-.06-25.45,0-38.17a61.69,61.69,0,0,1,.79-6.57c5.82,4.25,9.87,8,9.25,15.49-.76,9.23-.25,18.57-.15,27.86.07,6.85,2.3,9.23,9,9.31q18.48.21,37,0c6.73-.07,9.65-3,9.64-9.64q0-17-.42-33.93c-.18-7.7-3-10.37-10.9-10.44-8.68-.08-17.41-.5-26,.13C104.7,204.74,99.82,202.26,95.53,195Z"/><path class="cls-2" d="M112.18,222.41H98.91l2.38-3.95L79.13,196.24l-3.89,2.59V185.61h13.2c-3.22,3.23-2.19,5.52.77,8.27,6.2,5.77,11.92,12,18,18.33l4.92-3.22Z"/><path class="cls-2" d="M133.88,233.45c10.62,0,10.62,0,10.62,10.69,0,10.3,0,10.3-11,10.29-10,0-10,0-10-11.3C123.46,233.45,123.46,233.45,133.88,233.45Z"/><path class="cls-2" d="M144.49,218.29c0,10.55,0,10.55-10.82,10.55-10.22,0-10.22,0-10.21-11.16,0-9.92,0-9.92,10.82-9.91C144.49,207.77,144.49,207.77,144.49,218.29Z"/><path class="cls-2" d="M108.25,254.43c-10.55,0-10.55,0-10.54-10.81,0-10.18,0-10.18,10.56-10.18s10.56,0,10.56,10.8C118.83,254.43,118.83,254.43,108.25,254.43Z"/><path class="cls-1" d="M77.63,56a11.2,11.2,0,0,1-2.33,3.68,13.71,13.71,0,0,1-3.18,2.48,14.1,14.1,0,0,1-3.49,1.4,13.94,13.94,0,0,1-7.42-.13,6.69,6.69,0,0,1-2.93-1.83,8,8,0,0,1-1.74-3.28A18,18,0,0,1,56,53.45a31.34,31.34,0,0,1,.18-3.2,33.12,33.12,0,0,1,.58-3.58,35.81,35.81,0,0,1,1-3.72,25.87,25.87,0,0,1,1.5-3.6,21.1,21.1,0,0,1,2-3.24,14,14,0,0,1,2.6-2.62,11.89,11.89,0,0,1,3.21-1.75A11.31,11.31,0,0,1,71,31.09a11.61,11.61,0,0,1,2.8.33,6.72,6.72,0,0,1,2.29,1,4.86,4.86,0,0,1,1.53,1.78,5.72,5.72,0,0,1,.56,2.63A7.5,7.5,0,0,1,78,38.43a3.54,3.54,0,0,1-.53,1.26,2.52,2.52,0,0,1-.94.83,3,3,0,0,1-1.4.29A4.31,4.31,0,0,1,74,40.63a2.65,2.65,0,0,1-1.27-.92,2.46,2.46,0,0,0,.74-.6,4.69,4.69,0,0,0,.63-.95A5.94,5.94,0,0,0,74.5,37a4.86,4.86,0,0,0,.17-1.26,3.62,3.62,0,0,0-.14-1,2.12,2.12,0,0,0-.45-.84,2.29,2.29,0,0,0-.82-.58A3,3,0,0,0,72,33.11a3.72,3.72,0,0,0-2.32.88,10.08,10.08,0,0,0-2.12,2.38,20.62,20.62,0,0,0-1.83,3.5,32.65,32.65,0,0,0-1.42,4.22,40,40,0,0,0-.92,4.58,32,32,0,0,0-.34,4.53,15.48,15.48,0,0,0,.22,2.72,5.63,5.63,0,0,0,.8,2.11,3.91,3.91,0,0,0,1.58,1.38,5.8,5.8,0,0,0,2.57.49A10,10,0,0,0,73,58.76a10.74,10.74,0,0,0,3.67-3.17Z"/><path class="cls-1" d="M88.81,55.64a17.56,17.56,0,0,1-1.35,3,12.55,12.55,0,0,1-1.55,2.16,8.46,8.46,0,0,1-3.31,2.27,7.48,7.48,0,0,1-1.52.4,9.06,9.06,0,0,1-1.29.11A5.42,5.42,0,0,1,78,63.3a3.77,3.77,0,0,1-1.46-.92,4.42,4.42,0,0,1-1-1.6,6.75,6.75,0,0,1-.36-2.33,11,11,0,0,1,.08-1.29q.08-.7.25-1.52l4.6-21.54,6.36-.86L81.55,56.46a3.68,3.68,0,0,0-.14.7q0,.35,0,.68a1.55,1.55,0,0,0,.42,1.25,2.06,2.06,0,0,0,1.32.35,2.84,2.84,0,0,0,1.23-.28,3.94,3.94,0,0,0,1.1-.79,5.59,5.59,0,0,0,.9-1.21A7.63,7.63,0,0,0,87,55.64Z"/><path class="cls-1" d="M110.18,47a10.58,10.58,0,0,1-3.25,2.25,17.06,17.06,0,0,1-4.37,1.32A20.24,20.24,0,0,1,101.42,56,14.37,14.37,0,0,1,99.16,60,9.75,9.75,0,0,1,96,62.61a8.09,8.09,0,0,1-3.74.9,9.93,9.93,0,0,1-2.76-.37A5.59,5.59,0,0,1,87.35,62a5.43,5.43,0,0,1-1.43-2.1,8.5,8.5,0,0,1-.51-3.14,18,18,0,0,1,.26-2.87,20.75,20.75,0,0,1,.84-3.31A19.75,19.75,0,0,1,88,47.23a12.76,12.76,0,0,1,2.22-2.91,10.65,10.65,0,0,1,3-2.07,9.35,9.35,0,0,1,3.93-.79q5.52,0,5.52,6.87v0a.53.53,0,0,0,.2,0h.26a6.63,6.63,0,0,0,1.63-.22,13.41,13.41,0,0,0,1.75-.58,15.14,15.14,0,0,0,1.72-.83q.84-.47,1.53-1ZM99,50.7a1.29,1.29,0,0,1-.91-.66,2.57,2.57,0,0,1-.24-1.14,2.71,2.71,0,0,1,.37-1.48,2.21,2.21,0,0,1,1-.85A7.73,7.73,0,0,0,99,45.4a2.5,2.5,0,0,0-.29-.78,1.06,1.06,0,0,0-.47-.43,1.79,1.79,0,0,0-.72-.13,2.29,2.29,0,0,0-1.49.6,7.05,7.05,0,0,0-1.35,1.58,14.41,14.41,0,0,0-1.17,2.26,22.11,22.11,0,0,0-.91,2.61A23.73,23.73,0,0,0,92,53.78a15.24,15.24,0,0,0-.21,2.38,10.61,10.61,0,0,0,.12,1.74A2.69,2.69,0,0,0,92.31,59a1.34,1.34,0,0,0,.68.54,3.15,3.15,0,0,0,1,.15A2.39,2.39,0,0,0,95.58,59,7.13,7.13,0,0,0,97,57.06a14.92,14.92,0,0,0,1.19-2.83A21.06,21.06,0,0,0,99,50.7Z"/><path class="cls-1" d="M127.42,55.64a19.36,19.36,0,0,1-1.32,3,12.77,12.77,0,0,1-1.48,2.16,8.33,8.33,0,0,1-1.56,1.43,7.75,7.75,0,0,1-1.55.84,6.77,6.77,0,0,1-1.45.4,8.44,8.44,0,0,1-1.26.11,4.13,4.13,0,0,1-2.94-1,4.75,4.75,0,0,1-1.32-3.05,10.67,10.67,0,0,1-1.66,2.12,7.85,7.85,0,0,1-1.66,1.24,5.31,5.31,0,0,1-1.6.58,8.41,8.41,0,0,1-1.45.14,5.42,5.42,0,0,1-1.81-.29,3.77,3.77,0,0,1-1.46-.92,4.42,4.42,0,0,1-1-1.6,6.75,6.75,0,0,1-.36-2.33,11,11,0,0,1,.08-1.29q.08-.7.25-1.52l2.92-13.79H113l-3.09,14.61a6.66,6.66,0,0,0-.13,1.22,2.64,2.64,0,0,0,.27,1.25,1,1,0,0,0,1,.51,2.39,2.39,0,0,0,1.16-.28,3.35,3.35,0,0,0,1-.79,5.28,5.28,0,0,0,.76-1.21,12.11,12.11,0,0,0,.58-1.52l2.92-13.79h6.19l-3.09,14.61a4.34,4.34,0,0,0-.15.7,5.79,5.79,0,0,0,0,.68,1.53,1.53,0,0,0,.43,1.25,2.11,2.11,0,0,0,1.33.35,2.44,2.44,0,0,0,1.17-.28,3.42,3.42,0,0,0,1-.79,5.26,5.26,0,0,0,.78-1.21,9.49,9.49,0,0,0,.57-1.52Z"/><path class="cls-1" d="M140.7,34.1l6.36-.86-4.93,23.22a4.45,4.45,0,0,0-.15.66,4.33,4.33,0,0,0,0,.6,2,2,0,0,0,.38,1.23,1.65,1.65,0,0,0,1.39.49,3.28,3.28,0,0,0,.88-.08,4.14,4.14,0,0,0,.5-.19,5.1,5.1,0,0,1-.51,2,4.44,4.44,0,0,1-1.08,1.38,4.33,4.33,0,0,1-1.47.81,5.41,5.41,0,0,1-1.66.26,5.91,5.91,0,0,1-1.55-.2,4,4,0,0,1-1.32-.63,3.76,3.76,0,0,1-1-1.11,5.08,5.08,0,0,1-.6-1.63,13.15,13.15,0,0,1-1.11,1.33,8,8,0,0,1-1.36,1.14,6.75,6.75,0,0,1-1.66.8,6.33,6.33,0,0,1-2,.29,6.5,6.5,0,0,1-2.14-.36,4.66,4.66,0,0,1-1.83-1.18,6,6,0,0,1-1.28-2.14,9.48,9.48,0,0,1-.48-3.23,18.3,18.3,0,0,1,.29-3.15,19.85,19.85,0,0,1,.9-3.36A19,19,0,0,1,126.78,47a12.9,12.9,0,0,1,2.14-2.73,9.82,9.82,0,0,1,2.78-1.89,8.2,8.2,0,0,1,3.42-.7,4.43,4.43,0,0,1,2.66.63,1.89,1.89,0,0,1,.83,1.55V44Zm-4.6,21.54,2.1-9.85a3.35,3.35,0,0,0-.14-.44,1.85,1.85,0,0,0-.28-.49,1.42,1.42,0,0,0-.51-.4,1.9,1.9,0,0,0-.83-.16,2.86,2.86,0,0,0-1.71.59,6.35,6.35,0,0,0-1.48,1.56,12.42,12.42,0,0,0-1.2,2.21,21.57,21.57,0,0,0-1.45,5.13,15.65,15.65,0,0,0-.19,2.28,6.13,6.13,0,0,0,.23,1.91,2.57,2.57,0,0,0,.56,1,1.29,1.29,0,0,0,.7.39,4.13,4.13,0,0,0,.67.06,2.4,2.4,0,0,0,.92-.2,3.6,3.6,0,0,0,.94-.59,4.62,4.62,0,0,0,.85-1,5.4,5.4,0,0,0,.64-1.35Z"/><path class="cls-1" d="M183.32,31.18l-7,32.16h-5.94l-5-21.33-4.91,21.33H156.4l6.47-29.46a8.66,8.66,0,0,0-4.47,3.25,9.33,9.33,0,0,0-1.49,5.35,9.82,9.82,0,0,0,.3,2.53,5.26,5.26,0,0,0,.85,1.86A6.14,6.14,0,0,1,154,45.76a4.41,4.41,0,0,1-1.31-3.54,9.35,9.35,0,0,1,.47-3,10.9,10.9,0,0,1,1.32-2.69,11.73,11.73,0,0,1,2-2.3,13.31,13.31,0,0,1,2.65-1.78,14.21,14.21,0,0,1,3.11-1.16,14.42,14.42,0,0,1,3.46-.41,9.86,9.86,0,0,1,1.75.14,11.15,11.15,0,0,1,1.65.45l5.19,23,4.81-23.35Z"/><path class="cls-1" d="M204.58,55.64a19.36,19.36,0,0,1-1.32,3,12.83,12.83,0,0,1-1.48,2.16,8.33,8.33,0,0,1-1.56,1.43,7.75,7.75,0,0,1-1.55.84,6.78,6.78,0,0,1-1.45.4,8.44,8.44,0,0,1-1.26.11,4.12,4.12,0,0,1-2.91-1,4.59,4.59,0,0,1-1.31-3,16.62,16.62,0,0,1-1.15,1.44,8.64,8.64,0,0,1-1.41,1.26,7.13,7.13,0,0,1-1.73.9,6.14,6.14,0,0,1-2.11.35,6.5,6.5,0,0,1-2.14-.36,4.66,4.66,0,0,1-1.83-1.18,6,6,0,0,1-1.28-2.14,9.48,9.48,0,0,1-.48-3.23,18.3,18.3,0,0,1,.29-3.15,19.85,19.85,0,0,1,.9-3.36A19,19,0,0,1,182.32,47a12.9,12.9,0,0,1,2.14-2.73,9.82,9.82,0,0,1,2.78-1.89,8.2,8.2,0,0,1,3.42-.7,4.43,4.43,0,0,1,2.66.63,1.89,1.89,0,0,1,.83,1.55v.31l.46-2.29h6.19l-3.09,14.61a4.23,4.23,0,0,0-.15.7,5.59,5.59,0,0,0,0,.68q0,1.85,1.76,1.85a2.2,2.2,0,0,0,1.17-.33,3.79,3.79,0,0,0,1-.87,5.93,5.93,0,0,0,.78-1.29,11.29,11.29,0,0,0,.57-1.56Zm-10.83-9.7a1.74,1.74,0,0,0-.08-.47,1.69,1.69,0,0,0-.28-.54,1.6,1.6,0,0,0-.54-.44,1.83,1.83,0,0,0-.86-.18,2.86,2.86,0,0,0-1.71.59,6.35,6.35,0,0,0-1.48,1.56,12.42,12.42,0,0,0-1.2,2.21,21.57,21.57,0,0,0-1.45,5.13,15.65,15.65,0,0,0-.19,2.28,6.13,6.13,0,0,0,.23,1.91,2.57,2.57,0,0,0,.56,1,1.29,1.29,0,0,0,.7.39,4.13,4.13,0,0,0,.67.06,2.47,2.47,0,0,0,1-.24,3.66,3.66,0,0,0,1-.71,5.23,5.23,0,0,0,.9-1.19,5.85,5.85,0,0,0,.62-1.66Z"/><path class="cls-1" d="M215.08,55.64a17.56,17.56,0,0,1-1.35,3,12.55,12.55,0,0,1-1.55,2.16,8.46,8.46,0,0,1-3.31,2.27,7.48,7.48,0,0,1-1.52.4,9.06,9.06,0,0,1-1.29.11,5.42,5.42,0,0,1-1.81-.29,3.77,3.77,0,0,1-1.46-.92,4.42,4.42,0,0,1-1-1.6,6.75,6.75,0,0,1-.36-2.33,11,11,0,0,1,.08-1.29q.08-.7.25-1.52l2.58-12.07h-1.43l.36-1.72h1.41L206,35.9l6.36-.86-1.47,6.8h2.58l-.34,1.72h-2.58l-2.75,12.89a3.68,3.68,0,0,0-.14.7q0,.35,0,.68a1.55,1.55,0,0,0,.42,1.25,2.06,2.06,0,0,0,1.32.35,2.84,2.84,0,0,0,1.23-.28,3.94,3.94,0,0,0,1.1-.79,5.59,5.59,0,0,0,.9-1.21,7.63,7.63,0,0,0,.65-1.52Z"/><path class="cls-1" d="M225.57,55.64a17.56,17.56,0,0,1-1.35,3,12.55,12.55,0,0,1-1.55,2.16,8.46,8.46,0,0,1-3.31,2.27,7.48,7.48,0,0,1-1.52.4,9.06,9.06,0,0,1-1.29.11,5.42,5.42,0,0,1-1.81-.29,3.77,3.77,0,0,1-1.46-.92,4.42,4.42,0,0,1-1-1.6,6.75,6.75,0,0,1-.36-2.33,11,11,0,0,1,.08-1.29q.08-.7.25-1.52l2.92-13.79h6.19l-3.09,14.61a3.68,3.68,0,0,0-.14.7q0,.35,0,.68a1.55,1.55,0,0,0,.42,1.25,2.06,2.06,0,0,0,1.32.35,2.84,2.84,0,0,0,1.23-.28,3.94,3.94,0,0,0,1.1-.79,5.59,5.59,0,0,0,.9-1.21,7.63,7.63,0,0,0,.65-1.52Zm-2.67-19.5a3.31,3.31,0,0,1-1,2.4,3.57,3.57,0,0,1-1.09.71,3.51,3.51,0,0,1-2.67,0,3.44,3.44,0,0,1-1.08-.71,3.25,3.25,0,0,1-.72-1.07,3.53,3.53,0,0,1,0-2.67,3.5,3.5,0,0,1,.72-1.09,3.43,3.43,0,0,1,1.08-.75,3.4,3.4,0,0,1,2.67,0,3.57,3.57,0,0,1,1.84,1.84A3.26,3.26,0,0,1,222.91,36.13Z"/><path class="cls-1" d="M225.7,41.84h6.19L228.8,56.46q-.11.48-.17.87a4.33,4.33,0,0,0-.06.68,1.51,1.51,0,0,0,.35,1,1.44,1.44,0,0,0,1.12.39,3.28,3.28,0,0,0,2-.73,8.16,8.16,0,0,0,1.78-1.94A17.13,17.13,0,0,0,235.33,54a26.59,26.59,0,0,0,1.14-3.13,27.4,27.4,0,0,0,.74-3.12,16.1,16.1,0,0,0,.26-2.7.41.41,0,0,1-.22.19,2.09,2.09,0,0,1-.39.14,2.87,2.87,0,0,1-.42.07l-.34,0a1.16,1.16,0,0,1-.67-.2,1.72,1.72,0,0,1-.49-.51,2.35,2.35,0,0,1-.29-.7,3.26,3.26,0,0,1-.09-.77,2.3,2.3,0,0,1,.64-1.67,2.71,2.71,0,0,1,2-.66,2.3,2.3,0,0,1,2.12,1.15,3.76,3.76,0,0,1,.45,1.2,7,7,0,0,1,.14,1.39,27.2,27.2,0,0,1-.29,3.79,27.65,27.65,0,0,1-.93,4.17,26.45,26.45,0,0,1-1.62,4.06,15.61,15.61,0,0,1-2.34,3.49,11.08,11.08,0,0,1-3.13,2.45,8.37,8.37,0,0,1-3.95.92,5.62,5.62,0,0,1-3.85-1.25,4.82,4.82,0,0,1-1.42-3.81c0-.24,0-.54,0-.91a9.23,9.23,0,0,1,.17-1.17Z"/><path class="cls-1" d="M253.09,57.23a9.38,9.38,0,0,1-1,3.09,6.47,6.47,0,0,1-1.7,2,6,6,0,0,1-2.18,1,10.42,10.42,0,0,1-2.5.29,9.07,9.07,0,0,1-2.74-.39,5.38,5.38,0,0,1-2.1-1.21,5.47,5.47,0,0,1-1.35-2.11,8.92,8.92,0,0,1-.48-3.12,18.81,18.81,0,0,1,.25-2.86,22,22,0,0,1,.8-3.32,18.77,18.77,0,0,1,1.45-3.34,13.1,13.1,0,0,1,2.18-2.93,10.09,10.09,0,0,1,3-2.08,9.35,9.35,0,0,1,3.93-.79,6.74,6.74,0,0,1,2.36.35,3.81,3.81,0,0,1,1.45.91,3,3,0,0,1,.73,1.31,6,6,0,0,1,.2,1.54,7.54,7.54,0,0,1-.82,3.47,9.28,9.28,0,0,1-2.19,2.8,11.35,11.35,0,0,1-3.16,1.93,11.69,11.69,0,0,1-3.72.86c0,.24-.05.46-.07.68s0,.42,0,.62a6,6,0,0,0,.21,1.72,3,3,0,0,0,.57,1.1,1.94,1.94,0,0,0,.84.58,3.16,3.16,0,0,0,1,.17,4.91,4.91,0,0,0,1.31-.19,8.21,8.21,0,0,0,1.34-.5A11.1,11.1,0,0,0,252,58.1,8.55,8.55,0,0,0,253.09,57.23Zm-7.35-4.64a5.27,5.27,0,0,0,2.37-.66,7.49,7.49,0,0,0,2-1.6,7.69,7.69,0,0,0,1.39-2.24,6.82,6.82,0,0,0,.51-2.6,3,3,0,0,0-.23-1.28.85.85,0,0,0-.84-.48,2.27,2.27,0,0,0-1.61.81,9.11,9.11,0,0,0-1.47,2.09,20.68,20.68,0,0,0-1.24,2.85A26,26,0,0,0,245.74,52.59Z"/><path class="cls-1" d="M285.17,56a11.2,11.2,0,0,1-2.33,3.68,13.71,13.71,0,0,1-3.18,2.48,14.1,14.1,0,0,1-3.49,1.4,13.94,13.94,0,0,1-7.42-.13,6.69,6.69,0,0,1-2.93-1.83,8,8,0,0,1-1.74-3.28,18,18,0,0,1-.58-4.91,31.34,31.34,0,0,1,.18-3.2,33.12,33.12,0,0,1,.58-3.58,35.81,35.81,0,0,1,1-3.72,25.87,25.87,0,0,1,1.5-3.6,21.1,21.1,0,0,1,2-3.24,14,14,0,0,1,2.6-2.62,11.89,11.89,0,0,1,3.21-1.75,11.31,11.31,0,0,1,3.88-.64,11.61,11.61,0,0,1,2.8.33,6.72,6.72,0,0,1,2.29,1,4.86,4.86,0,0,1,1.53,1.78,5.72,5.72,0,0,1,.56,2.63,7.5,7.5,0,0,1-.16,1.58,3.54,3.54,0,0,1-.53,1.26,2.52,2.52,0,0,1-.94.83,3,3,0,0,1-1.4.29,4.31,4.31,0,0,1-1.17-.19,2.65,2.65,0,0,1-1.27-.92,2.46,2.46,0,0,0,.74-.6,4.69,4.69,0,0,0,.63-.95A5.94,5.94,0,0,0,282,37a4.86,4.86,0,0,0,.17-1.26,3.62,3.62,0,0,0-.14-1,2.12,2.12,0,0,0-.45-.84,2.29,2.29,0,0,0-.82-.58,3,3,0,0,0-1.22-.22,3.72,3.72,0,0,0-2.32.88,10.08,10.08,0,0,0-2.12,2.38,20.62,20.62,0,0,0-1.83,3.5,32.65,32.65,0,0,0-1.42,4.22,40,40,0,0,0-.92,4.58,32,32,0,0,0-.34,4.53,15.48,15.48,0,0,0,.22,2.72,5.63,5.63,0,0,0,.8,2.11,3.91,3.91,0,0,0,1.58,1.38,5.8,5.8,0,0,0,2.57.49,10,10,0,0,0,4.7-1.13,10.74,10.74,0,0,0,3.67-3.17Z"/><path class="cls-1" d="M307.23,47A10.58,10.58,0,0,1,304,49.25a17.06,17.06,0,0,1-4.37,1.32A20.24,20.24,0,0,1,298.46,56,14.37,14.37,0,0,1,296.21,60a9.75,9.75,0,0,1-3.13,2.58,8.09,8.09,0,0,1-3.74.9,9.93,9.93,0,0,1-2.76-.37A5.59,5.59,0,0,1,284.4,62a5.43,5.43,0,0,1-1.43-2.1,8.5,8.5,0,0,1-.51-3.14,18,18,0,0,1,.26-2.87,20.75,20.75,0,0,1,.84-3.31A19.75,19.75,0,0,1,285,47.23a12.76,12.76,0,0,1,2.22-2.91,10.65,10.65,0,0,1,3-2.07,9.35,9.35,0,0,1,3.93-.79q5.52,0,5.52,6.87v0a.53.53,0,0,0,.2,0h.26a6.63,6.63,0,0,0,1.63-.22,13.41,13.41,0,0,0,1.75-.58,15.14,15.14,0,0,0,1.72-.83q.84-.47,1.53-1ZM296,50.7a1.29,1.29,0,0,1-.91-.66,2.57,2.57,0,0,1-.24-1.14,2.71,2.71,0,0,1,.37-1.48,2.21,2.21,0,0,1,1-.85,7.73,7.73,0,0,0-.15-1.17,2.5,2.5,0,0,0-.29-.78,1.06,1.06,0,0,0-.47-.43,1.79,1.79,0,0,0-.72-.13,2.29,2.29,0,0,0-1.49.6,7.05,7.05,0,0,0-1.35,1.58,14.41,14.41,0,0,0-1.17,2.26,22.11,22.11,0,0,0-.91,2.61,23.73,23.73,0,0,0-.59,2.66,15.24,15.24,0,0,0-.21,2.38A10.61,10.61,0,0,0,289,57.9a2.69,2.69,0,0,0,.38,1.06,1.34,1.34,0,0,0,.68.54,3.15,3.15,0,0,0,1,.15,2.39,2.39,0,0,0,1.56-.69,7.13,7.13,0,0,0,1.46-1.89,14.92,14.92,0,0,0,1.19-2.83A21.06,21.06,0,0,0,296,50.7Z"/><path class="cls-1" d="M324.46,55.64a19.36,19.36,0,0,1-1.32,3,12.77,12.77,0,0,1-1.48,2.16,8.33,8.33,0,0,1-1.56,1.43,7.75,7.75,0,0,1-1.55.84,6.77,6.77,0,0,1-1.45.4,8.44,8.44,0,0,1-1.26.11,4.13,4.13,0,0,1-2.94-1,4.75,4.75,0,0,1-1.32-3.05,10.67,10.67,0,0,1-1.66,2.12,7.85,7.85,0,0,1-1.66,1.24,5.31,5.31,0,0,1-1.6.58,8.41,8.41,0,0,1-1.45.14,5.42,5.42,0,0,1-1.81-.29,3.77,3.77,0,0,1-1.46-.92,4.42,4.42,0,0,1-1-1.6,6.75,6.75,0,0,1-.36-2.33,11,11,0,0,1,.08-1.29q.08-.7.25-1.52l2.92-13.79h6.19L307,56.46a6.66,6.66,0,0,0-.13,1.22,2.64,2.64,0,0,0,.27,1.25,1,1,0,0,0,1,.51,2.39,2.39,0,0,0,1.16-.28,3.35,3.35,0,0,0,1-.79,5.28,5.28,0,0,0,.76-1.21,12.11,12.11,0,0,0,.58-1.52l2.92-13.79h6.19L317.6,56.46a4.34,4.34,0,0,0-.15.7,5.79,5.79,0,0,0,0,.68,1.53,1.53,0,0,0,.43,1.25,2.11,2.11,0,0,0,1.33.35,2.44,2.44,0,0,0,1.17-.28,3.42,3.42,0,0,0,1-.79,5.26,5.26,0,0,0,.78-1.21,9.49,9.49,0,0,0,.57-1.52Z"/><path class="cls-1" d="M320,63.34l4.56-21.5h6.19l-.55,2.67q.57-.5,1.16-1a8.93,8.93,0,0,1,1.23-.85,7.33,7.33,0,0,1,1.33-.6,4.61,4.61,0,0,1,1.47-.23,2.84,2.84,0,0,1,2.23,1,3,3,0,0,1,.57,1,4,4,0,0,1,.19,1.22,3.47,3.47,0,0,1-.19,1.12,2.91,2.91,0,0,1-.58,1,3,3,0,0,1-1,.72,3.12,3.12,0,0,1-1.37.28,1.73,1.73,0,0,1-.93-.21,1.41,1.41,0,0,1-.49-.52,2.45,2.45,0,0,1-.24-.68q-.07-.37-.16-.68a1.84,1.84,0,0,0-.22-.52.5.5,0,0,0-.45-.21,2.91,2.91,0,0,0-1.66.45A12.44,12.44,0,0,0,329.67,47l-3.44,16.33Z"/><path class="cls-1" d="M355.07,55.64a21.77,21.77,0,0,1-3.37,3.22A33.41,33.41,0,0,1,348.5,61a6.89,6.89,0,0,1-1.5,1.21,9.12,9.12,0,0,1-1.72.8,10.26,10.26,0,0,1-1.8.44,11.77,11.77,0,0,1-1.73.14,7.28,7.28,0,0,1-2.8-.49,5.89,5.89,0,0,1-2-1.28,5,5,0,0,1-1.14-1.76,5.56,5.56,0,0,1-.37-2,4.68,4.68,0,0,1,.2-1.4,4.93,4.93,0,0,1,.51-1.14,4,4,0,0,1,.72-.87,3.59,3.59,0,0,1,.85-.58,52.23,52.23,0,0,0,3-6.39Q342,44.55,343,41.36l6.36-.84q.13,2.79.24,4.84t.22,3.55q.1,1.5.19,2.55t.16,1.86c0,.54.08,1,.11,1.47s0,.9,0,1.38q0,.48,0,.88a3.73,3.73,0,0,1-.14.76q.94-.55,1.71-1.08a14.29,14.29,0,0,0,1.38-1.08Zm-17.32,1.55a3.56,3.56,0,0,0,.6,2.26,2.46,2.46,0,0,0,2,.75,4.85,4.85,0,0,0,1.39-.2,3.08,3.08,0,0,0,1.2-.67,3.36,3.36,0,0,0,.84-1.23,4.94,4.94,0,0,0,.31-1.89c0-.36,0-.72,0-1.06s0-.71-.07-1.09-.07-.82-.12-1.29-.11-1-.17-1.66-.13-1.36-.2-2.18-.15-1.79-.23-2.9a36.7,36.7,0,0,1-1.53,4.07q-.88,2-2,4.05a2.29,2.29,0,0,1,.7.59,1.4,1.4,0,0,1,.28.9,2.44,2.44,0,0,1-.13.78,2.09,2.09,0,0,1-.38.68,1.91,1.91,0,0,1-.6.48,1.69,1.69,0,0,1-.79.18,2.1,2.1,0,0,1-.67-.11A.82.82,0,0,1,337.75,57.19Z"/><path class="cls-1" d="M365.77,57.23a9.38,9.38,0,0,1-1,3.09,6.47,6.47,0,0,1-1.7,2,6,6,0,0,1-2.18,1,10.42,10.42,0,0,1-2.5.29,9.07,9.07,0,0,1-2.74-.39A5.38,5.38,0,0,1,353.5,62a5.47,5.47,0,0,1-1.35-2.11,8.92,8.92,0,0,1-.48-3.12,18.81,18.81,0,0,1,.25-2.86,22,22,0,0,1,.8-3.32,18.77,18.77,0,0,1,1.45-3.34,13.1,13.1,0,0,1,2.18-2.93,10.09,10.09,0,0,1,3-2.08,9.35,9.35,0,0,1,3.93-.79,6.74,6.74,0,0,1,2.36.35,3.81,3.81,0,0,1,1.45.91,3,3,0,0,1,.73,1.31,6,6,0,0,1,.2,1.54,7.54,7.54,0,0,1-.82,3.47,9.28,9.28,0,0,1-2.19,2.8,11.35,11.35,0,0,1-3.16,1.93,11.69,11.69,0,0,1-3.72.86c0,.24-.05.46-.07.68s0,.42,0,.62a6,6,0,0,0,.21,1.72,3,3,0,0,0,.57,1.1,1.94,1.94,0,0,0,.84.58,3.16,3.16,0,0,0,1,.17,4.91,4.91,0,0,0,1.31-.19,8.21,8.21,0,0,0,1.34-.5,11.1,11.1,0,0,0,1.29-.72A8.55,8.55,0,0,0,365.77,57.23Zm-7.35-4.64a5.27,5.27,0,0,0,2.37-.66,7.49,7.49,0,0,0,2-1.6,7.69,7.69,0,0,0,1.39-2.24,6.82,6.82,0,0,0,.51-2.6,3,3,0,0,0-.23-1.28.85.85,0,0,0-.84-.48,2.27,2.27,0,0,0-1.61.81,9.11,9.11,0,0,0-1.47,2.09,20.68,20.68,0,0,0-1.24,2.85A26,26,0,0,0,358.42,52.59Z"/><path class="cls-3" d="M376.27,63.34l5.67-26.83h-4.07l.5-2q.88,0,2-.08a14.17,14.17,0,0,0,2.44-.43,23.09,23.09,0,0,0,3-1,26.4,26.4,0,0,0,3.57-1.84l-6.84,32.16Z"/><path class="cls-3" d="M397.78,63.78a9.35,9.35,0,0,1-4.2-.84,6.88,6.88,0,0,1-2.67-2.29,9.38,9.38,0,0,1-1.4-3.41,20.57,20.57,0,0,1-.41-4.21,34.68,34.68,0,0,1,.47-5.76A29.73,29.73,0,0,1,391,42a23.66,23.66,0,0,1,2.19-4.51A16.72,16.72,0,0,1,396.07,34a12.65,12.65,0,0,1,3.56-2.29,10.43,10.43,0,0,1,4.11-.82,8.48,8.48,0,0,1,3.68.75,6.89,6.89,0,0,1,2.58,2.1A9.17,9.17,0,0,1,411.52,37a16.94,16.94,0,0,1,.49,4.24q0,1.57-.18,3.37t-.56,3.67a36.08,36.08,0,0,1-1,3.77,26.53,26.53,0,0,1-1.44,3.61,21,21,0,0,1-1.93,3.21,13.3,13.3,0,0,1-2.47,2.58,11.27,11.27,0,0,1-3,1.72A10.26,10.26,0,0,1,397.78,63.78Zm5.9-30.36a3.08,3.08,0,0,0-2,.87,9.88,9.88,0,0,0-1.9,2.37,22.54,22.54,0,0,0-1.68,3.52,34.55,34.55,0,0,0-1.33,4.31,45.63,45.63,0,0,0-.88,4.75,36.92,36.92,0,0,0-.33,4.85q0,1.22.12,2.37a9.36,9.36,0,0,0,.42,2.06,3.66,3.66,0,0,0,.85,1.45,1.93,1.93,0,0,0,1.43.55,3.14,3.14,0,0,0,2-.85,9.1,9.1,0,0,0,1.87-2.33,21,21,0,0,0,1.6-3.48,35.14,35.14,0,0,0,1.24-4.33,46.22,46.22,0,0,0,.8-4.83,44.46,44.46,0,0,0,.28-5,18.66,18.66,0,0,0-.15-2.39,10.11,10.11,0,0,0-.45-2,3.84,3.84,0,0,0-.78-1.37A1.49,1.49,0,0,0,403.68,33.42Z"/><path class="cls-3" d="M411.8,63.34l5.67-26.83H413.4l.5-2q.88,0,2-.08a14.17,14.17,0,0,0,2.44-.43,23.09,23.09,0,0,0,3-1,26.4,26.4,0,0,0,3.57-1.84L418,63.34Z"/><path class="cls-4" d="M66.84,82.59A5.34,5.34,0,0,0,60,84.77,5.34,5.34,0,0,0,62,92.07a5.28,5.28,0,0,0,2.69.71,5.43,5.43,0,0,0,2.14-.45,6.2,6.2,0,0,0,1.86-1.22l1.15,1.25A7.73,7.73,0,0,1,67.39,94,7.28,7.28,0,0,1,61,93.63a7,7,0,0,1-3.55-6.15,6.83,6.83,0,0,1,1-3.56A7,7,0,0,1,61,81.37a7.38,7.38,0,0,1,3.67-.93,7.48,7.48,0,0,1,2.8.54,7,7,0,0,1,2.35,1.54l-1.13,1.37A5.73,5.73,0,0,0,66.84,82.59Z"/><path class="cls-4" d="M78.68,84.56a4.85,4.85,0,0,1,1.9,1.87,5.45,5.45,0,0,1,.68,2.74,5.51,5.51,0,0,1-.68,2.75,4.83,4.83,0,0,1-1.9,1.88,6.13,6.13,0,0,1-5.59,0,4.85,4.85,0,0,1-1.9-1.87,5.89,5.89,0,0,1,0-5.51,4.85,4.85,0,0,1,1.9-1.87,6.13,6.13,0,0,1,5.59,0ZM74.06,86a3.29,3.29,0,0,0-1.25,1.32,4,4,0,0,0-.45,1.91,4.13,4.13,0,0,0,.45,1.94,3.19,3.19,0,0,0,1.25,1.32,3.59,3.59,0,0,0,1.83.47,3.55,3.55,0,0,0,1.81-.47A3.21,3.21,0,0,0,79,91.14a4.13,4.13,0,0,0,.45-1.94A4,4,0,0,0,79,87.29,3.3,3.3,0,0,0,77.71,86a3.5,3.5,0,0,0-1.81-.48A3.53,3.53,0,0,0,74.06,86Z"/><path class="cls-4" d="M99.75,85a4.15,4.15,0,0,1,1,3v6.48H98.92v-6a2.88,2.88,0,0,0-.72-2.08,2.63,2.63,0,0,0-2-.75,3,3,0,0,0-2.34,1,3.89,3.89,0,0,0-.85,2.6v5.17H91.15v-6a2.9,2.9,0,0,0-.71-2.08,2.62,2.62,0,0,0-2-.75,3,3,0,0,0-2.35,1,3.86,3.86,0,0,0-.86,2.6v5.17H83.38V84h1.84v2.2a4,4,0,0,1,3.9-2.26,4,4,0,0,1,2.41.69,3.41,3.41,0,0,1,1.3,1.94,4,4,0,0,1,4.08-2.63A3.71,3.71,0,0,1,99.75,85Z"/><path class="cls-4" d="M111.5,85.33a5.89,5.89,0,0,1,1.25,4q0,.4,0,.59h-8.28a3.57,3.57,0,0,0,1.18,2.24A3.49,3.49,0,0,0,108,93a4.44,4.44,0,0,0,1.73-.34,4.17,4.17,0,0,0,1.4-1l1,1A5.31,5.31,0,0,1,110.27,94a6.2,6.2,0,0,1-2.42.46,5.56,5.56,0,0,1-2.74-.66A4.66,4.66,0,0,1,103.25,92a6,6,0,0,1,0-5.5,4.83,4.83,0,0,1,1.85-1.88,5.34,5.34,0,0,1,2.71-.68A4.62,4.62,0,0,1,111.5,85.33Zm-.42,3.16a3,3,0,0,0-3.25-3.07,3.32,3.32,0,0,0-2.31.83,3.49,3.49,0,0,0-1.1,2.24Z"/><path class="cls-4" d="M118,96.77a1.3,1.3,0,0,0,1.15-.51,2.61,2.61,0,0,0,.4-1.57V84h1.86v11a3.65,3.65,0,0,1-.78,2.51,2.8,2.8,0,0,1-2.21.88,4.93,4.93,0,0,1-1.8-.36l.44-1.41A3.59,3.59,0,0,0,118,96.77Zm3.28-16.66a1.27,1.27,0,0,1,0,1.7,1.17,1.17,0,0,1-1.64,0,1.27,1.27,0,0,1,0-1.7,1.17,1.17,0,0,1,1.64,0Z"/><path class="cls-4" d="M131.44,84.56a4.85,4.85,0,0,1,1.9,1.87,5.45,5.45,0,0,1,.68,2.74,5.51,5.51,0,0,1-.68,2.75,4.83,4.83,0,0,1-1.9,1.88,6.13,6.13,0,0,1-5.59,0,4.85,4.85,0,0,1-1.9-1.87,5.89,5.89,0,0,1,0-5.51,4.85,4.85,0,0,1,1.9-1.87,6.13,6.13,0,0,1,5.59,0ZM126.82,86a3.29,3.29,0,0,0-1.25,1.32,4,4,0,0,0-.45,1.91,4.13,4.13,0,0,0,.45,1.94,3.19,3.19,0,0,0,1.25,1.32,3.59,3.59,0,0,0,1.83.47,3.55,3.55,0,0,0,1.81-.47,3.21,3.21,0,0,0,1.25-1.32,4.13,4.13,0,0,0,.45-1.94,4,4,0,0,0-.45-1.91A3.3,3.3,0,0,0,130.47,86a3.5,3.5,0,0,0-1.81-.48A3.53,3.53,0,0,0,126.82,86Z"/><path class="cls-4" d="M137.88,80.11a1.28,1.28,0,0,1,0,1.7,1.17,1.17,0,0,1-1.64,0,1.27,1.27,0,0,1,0-1.7,1.17,1.17,0,0,1,1.64,0ZM136.15,84H138V94.43h-1.84Z"/><path class="cls-4" d="M149.84,85a4.09,4.09,0,0,1,1,3v6.48H149v-6a2.58,2.58,0,0,0-2.79-2.81,3.16,3.16,0,0,0-2.29.9,3.54,3.54,0,0,0-1,2.29v5.61h-1.84V84H143v2.22a4,4,0,0,1,4-2.28A3.85,3.85,0,0,1,149.84,85Z"/><path class="cls-4" d="M167.73,84V94.43h-1.86V92.21A3.94,3.94,0,0,1,162,94.49a3.76,3.76,0,0,1-2.85-1.08,4.14,4.14,0,0,1-1-3V84H160v6a2.84,2.84,0,0,0,.72,2.07,2.65,2.65,0,0,0,2,.74,2.94,2.94,0,0,0,2.33-1,3.9,3.9,0,0,0,.86-2.61V84Z"/><path class="cls-4" d="M175.15,85.63a5.15,5.15,0,0,0-1.5-.24,2.56,2.56,0,0,0-1.34.31,1,1,0,0,0-.51.94,1,1,0,0,0,.57,1,8.2,8.2,0,0,0,1.71.66,13.46,13.46,0,0,1,1.78.63,3.18,3.18,0,0,1,1.18.93,2.89,2.89,0,0,1-.63,3.88,4.79,4.79,0,0,1-2.78.77,7,7,0,0,1-2.27-.38A5.15,5.15,0,0,1,169.51,93l.69-1.35a4.91,4.91,0,0,0,1.61,1,5.37,5.37,0,0,0,1.87.36,2.8,2.8,0,0,0,1.47-.34,1.12,1.12,0,0,0,.55-1,1.17,1.17,0,0,0-.58-1.07,8,8,0,0,0-1.77-.71,11.84,11.84,0,0,1-1.71-.6,3,3,0,0,1-1.13-.9A2.43,2.43,0,0,1,170,86.8a2.49,2.49,0,0,1,1.07-2.2,4.63,4.63,0,0,1,2.67-.73,6.68,6.68,0,0,1,1.87.27,5.61,5.61,0,0,1,1.59.72l-.67,1.41A6.29,6.29,0,0,0,175.15,85.63Z"/><path class="cls-4" d="M190.65,94.43V93A4.3,4.3,0,0,1,187,94.51a4.18,4.18,0,0,1-1.91-.42,3.06,3.06,0,0,1-1.27-1.15,3.09,3.09,0,0,1-.45-1.64,2.69,2.69,0,0,1,1-2.23,4.66,4.66,0,0,1,2.9-.84h3.33v-.5A2.17,2.17,0,0,0,190,86a2.92,2.92,0,0,0-2-.6,5.7,5.7,0,0,0-3.23,1.13L184,85.28A9.58,9.58,0,0,1,186,84.22a7.13,7.13,0,0,1,2.29-.33,4.38,4.38,0,0,1,3,1,3.48,3.48,0,0,1,1.09,2.68l0,6.9Zm-1.1-2.07a2.46,2.46,0,0,0,1.08-1.65V89.66h-3.07a3.58,3.58,0,0,0-1.85.38,1.3,1.3,0,0,0-.6,1.19,1.54,1.54,0,0,0,.61,1.29,2.61,2.61,0,0,0,1.64.48A3.75,3.75,0,0,0,189.55,92.36Z"/><path class="cls-4" d="M204,85a4.09,4.09,0,0,1,1,3v6.48h-1.84v-6a2.58,2.58,0,0,0-2.79-2.81,3.16,3.16,0,0,0-2.29.9,3.54,3.54,0,0,0-1,2.29v5.61h-1.84V84h1.84v2.22a4,4,0,0,1,4-2.28A3.85,3.85,0,0,1,204,85Z"/><path class="cls-4" d="M217.68,79.73v14.7h-1.84V92.35A4.16,4.16,0,0,1,214.24,94a4.65,4.65,0,0,1-2.33.56,5,5,0,0,1-2.63-.68,4.69,4.69,0,0,1-1.77-1.9,5.94,5.94,0,0,1-.63-2.78,5.78,5.78,0,0,1,.63-2.74,4.66,4.66,0,0,1,1.77-1.87,5,5,0,0,1,2.61-.67,4.82,4.82,0,0,1,2.36.55,3.94,3.94,0,0,1,1.58,1.6v-6.3Zm-3.56,12.74a3.34,3.34,0,0,0,1.26-1.33,4,4,0,0,0,.46-1.92,4.06,4.06,0,0,0-.46-1.94A3.35,3.35,0,0,0,214.12,86a3.52,3.52,0,0,0-1.83-.48,3.47,3.47,0,0,0-1.83.49,3.41,3.41,0,0,0-1.26,1.34,4.29,4.29,0,0,0,0,3.84,3.33,3.33,0,0,0,1.26,1.33,3.77,3.77,0,0,0,3.67,0Z"/><path class="cls-4" d="M225.76,79.73h1.84v14.7h-1.84Z"/><path class="cls-4" d="M238.74,85.33a5.89,5.89,0,0,1,1.25,4q0,.4,0,.59h-8.28a3.57,3.57,0,0,0,1.18,2.24,3.49,3.49,0,0,0,2.37.83,4.44,4.44,0,0,0,1.73-.34,4.17,4.17,0,0,0,1.4-1l1,1A5.31,5.31,0,0,1,237.51,94a6.2,6.2,0,0,1-2.42.46,5.56,5.56,0,0,1-2.74-.66A4.66,4.66,0,0,1,230.49,92a6,6,0,0,1,0-5.5,4.83,4.83,0,0,1,1.85-1.88,5.34,5.34,0,0,1,2.71-.68A4.62,4.62,0,0,1,238.74,85.33Zm-.42,3.16a3,3,0,0,0-3.25-3.07,3.32,3.32,0,0,0-2.31.83,3.49,3.49,0,0,0-1.1,2.24Z"/><path class="cls-4" d="M248.45,94.43V93a4.3,4.3,0,0,1-3.67,1.54,4.18,4.18,0,0,1-1.91-.42,3.06,3.06,0,0,1-1.27-1.15,3.09,3.09,0,0,1-.45-1.64,2.69,2.69,0,0,1,1-2.23,4.66,4.66,0,0,1,2.9-.84h3.33v-.5a2.17,2.17,0,0,0-.68-1.71,2.92,2.92,0,0,0-2-.6,5.7,5.7,0,0,0-3.23,1.13l-.77-1.27a9.58,9.58,0,0,1,2.09-1.06,7.13,7.13,0,0,1,2.29-.33,4.38,4.38,0,0,1,3,1,3.48,3.48,0,0,1,1.09,2.68l0,6.9Zm-1.1-2.07a2.46,2.46,0,0,0,1.08-1.65V89.66h-3.07a3.58,3.58,0,0,0-1.85.38,1.3,1.3,0,0,0-.6,1.19,1.54,1.54,0,0,0,.61,1.29,2.61,2.61,0,0,0,1.64.48A3.75,3.75,0,0,0,247.35,92.36Z"/><path class="cls-4" d="M256.42,84.5a4.36,4.36,0,0,1,2.26-.6v1.78a3.37,3.37,0,0,0-3.73,3.23v5.53h-1.84V84h1.84v2.26A3.79,3.79,0,0,1,256.42,84.5Z"/><path class="cls-4" d="M268.94,85a4.09,4.09,0,0,1,1,3v6.48h-1.84v-6a2.58,2.58,0,0,0-2.79-2.81,3.16,3.16,0,0,0-2.29.9,3.54,3.54,0,0,0-1,2.29v5.61h-1.84V84h1.84v2.22a4,4,0,0,1,4-2.28A3.85,3.85,0,0,1,268.94,85Z"/><path class="cls-4" d="M278.56,92.69a1,1,0,0,1,.31.79,1.3,1.3,0,0,1-.09.46c-.06.16-.12.31-.19.46l-1.07,2.26h-1l.79-2.24a.94.94,0,0,1-.42-.39,1.09,1.09,0,0,1-.14-.54,1.06,1.06,0,0,1,.31-.78,1.09,1.09,0,0,1,1.51,0Z"/><path class="cls-4" d="M294.26,82.59a5.34,5.34,0,0,0-6.8,2.18,5.34,5.34,0,0,0,1.94,7.3,5.28,5.28,0,0,0,2.69.71,5.43,5.43,0,0,0,2.14-.45,6.2,6.2,0,0,0,1.86-1.22l1.15,1.25A7.73,7.73,0,0,1,294.81,94a7.28,7.28,0,0,1-6.44-.36,7,7,0,0,1-3.55-6.15,6.83,6.83,0,0,1,1-3.56,7,7,0,0,1,2.63-2.55,7.38,7.38,0,0,1,3.67-.93,7.48,7.48,0,0,1,2.8.54,7,7,0,0,1,2.35,1.54l-1.13,1.37A5.73,5.73,0,0,0,294.26,82.59Z"/><path class="cls-4" d="M306.1,84.56a4.85,4.85,0,0,1,1.9,1.87,5.45,5.45,0,0,1,.68,2.74,5.51,5.51,0,0,1-.68,2.75,4.83,4.83,0,0,1-1.9,1.88,6.13,6.13,0,0,1-5.59,0,4.85,4.85,0,0,1-1.9-1.87,5.89,5.89,0,0,1,0-5.51,4.85,4.85,0,0,1,1.9-1.87,6.13,6.13,0,0,1,5.59,0ZM301.48,86a3.29,3.29,0,0,0-1.25,1.32,4,4,0,0,0-.45,1.91,4.13,4.13,0,0,0,.45,1.94,3.19,3.19,0,0,0,1.25,1.32,3.59,3.59,0,0,0,1.83.47,3.55,3.55,0,0,0,1.81-.47,3.21,3.21,0,0,0,1.25-1.32,4.13,4.13,0,0,0,.45-1.94,4,4,0,0,0-.45-1.91A3.3,3.3,0,0,0,305.13,86a3.5,3.5,0,0,0-1.81-.48A3.53,3.53,0,0,0,301.48,86Z"/><path class="cls-4" d="M327.17,85a4.15,4.15,0,0,1,1,3v6.48h-1.86v-6a2.88,2.88,0,0,0-.72-2.08,2.63,2.63,0,0,0-2-.75,3,3,0,0,0-2.34,1,3.89,3.89,0,0,0-.85,2.6v5.17h-1.86v-6a2.9,2.9,0,0,0-.71-2.08,2.62,2.62,0,0,0-2-.75,3,3,0,0,0-2.35,1,3.86,3.86,0,0,0-.86,2.6v5.17H310.8V84h1.84v2.2a4,4,0,0,1,3.9-2.26,4,4,0,0,1,2.41.69,3.41,3.41,0,0,1,1.3,1.94,4,4,0,0,1,4.08-2.63A3.71,3.71,0,0,1,327.17,85Z"/><path class="cls-4" d="M332.77,80.11a1.28,1.28,0,0,1,0,1.7,1.17,1.17,0,0,1-1.64,0,1.27,1.27,0,0,1,0-1.7,1.17,1.17,0,0,1,1.64,0ZM331,84h1.84V94.43H331Z"/><path class="cls-4" d="M344.73,85a4.09,4.09,0,0,1,1,3v6.48h-1.84v-6a2.58,2.58,0,0,0-2.79-2.81,3.16,3.16,0,0,0-2.29.9,3.54,3.54,0,0,0-1,2.29v5.61H336V84h1.84v2.22a4,4,0,0,1,4-2.28A3.85,3.85,0,0,1,344.73,85Z"/><path class="cls-4" d="M357.88,84v9.41a5.11,5.11,0,0,1-.66,2.64,4.4,4.4,0,0,1-1.87,1.73,6.21,6.21,0,0,1-2.81.6,7.17,7.17,0,0,1-4.32-1.47l.81-1.35a5.59,5.59,0,0,0,1.61.94,5.24,5.24,0,0,0,1.82.31,3.64,3.64,0,0,0,2.59-.91,3.18,3.18,0,0,0,1-2.44V92a3.9,3.9,0,0,1-1.51,1.48,4.43,4.43,0,0,1-2.18.53,4.77,4.77,0,0,1-2.49-.64,4.39,4.39,0,0,1-1.67-1.79,5.65,5.65,0,0,1-.59-2.63,5.49,5.49,0,0,1,.59-2.6,4.36,4.36,0,0,1,1.67-1.76,4.82,4.82,0,0,1,2.49-.63,4.5,4.5,0,0,1,2.19.51,3.85,3.85,0,0,1,1.5,1.47V84ZM354.41,92a3.18,3.18,0,0,0,1.18-1.26,3.8,3.8,0,0,0,.43-1.81,3.85,3.85,0,0,0-.43-1.83,3.18,3.18,0,0,0-1.18-1.26,3.26,3.26,0,0,0-1.72-.46,3.31,3.31,0,0,0-1.73.46,3.23,3.23,0,0,0-1.2,1.26,3.78,3.78,0,0,0-.44,1.83,3.62,3.62,0,0,0,1,2.54,3.17,3.17,0,0,0,2.42,1A3.26,3.26,0,0,0,354.41,92Z"/><path class="cls-4" d="M369.82,85.63a5.15,5.15,0,0,0-1.5-.24,2.56,2.56,0,0,0-1.34.31,1,1,0,0,0-.51.94,1,1,0,0,0,.57,1,8.2,8.2,0,0,0,1.71.66,13.46,13.46,0,0,1,1.78.63,3.18,3.18,0,0,1,1.18.93,2.89,2.89,0,0,1-.63,3.88,4.79,4.79,0,0,1-2.78.77,7,7,0,0,1-2.27-.38A5.15,5.15,0,0,1,364.18,93l.69-1.35a4.91,4.91,0,0,0,1.61,1,5.37,5.37,0,0,0,1.87.36,2.8,2.8,0,0,0,1.47-.34,1.12,1.12,0,0,0,.55-1,1.17,1.17,0,0,0-.58-1.07,8,8,0,0,0-1.77-.71,11.84,11.84,0,0,1-1.71-.6,3,3,0,0,1-1.13-.9,2.43,2.43,0,0,1-.47-1.55,2.49,2.49,0,0,1,1.07-2.2,4.63,4.63,0,0,1,2.67-.73,6.68,6.68,0,0,1,1.87.27,5.61,5.61,0,0,1,1.59.72l-.67,1.41A6.29,6.29,0,0,0,369.82,85.63Z"/><path class="cls-4" d="M381.33,84.56a4.85,4.85,0,0,1,1.9,1.87,5.45,5.45,0,0,1,.68,2.74,5.51,5.51,0,0,1-.68,2.75,4.83,4.83,0,0,1-1.9,1.88,6.13,6.13,0,0,1-5.59,0,4.85,4.85,0,0,1-1.9-1.87,5.89,5.89,0,0,1,0-5.51,4.85,4.85,0,0,1,1.9-1.87,6.13,6.13,0,0,1,5.59,0ZM376.71,86a3.29,3.29,0,0,0-1.25,1.32A4,4,0,0,0,375,89.2a4.13,4.13,0,0,0,.45,1.94,3.19,3.19,0,0,0,1.25,1.32,3.59,3.59,0,0,0,1.83.47,3.55,3.55,0,0,0,1.81-.47,3.21,3.21,0,0,0,1.25-1.32,4.13,4.13,0,0,0,.45-1.94,4,4,0,0,0-.45-1.91A3.3,3.3,0,0,0,380.36,86a3.5,3.5,0,0,0-1.81-.48A3.53,3.53,0,0,0,376.71,86Z"/><path class="cls-4" d="M393.18,84.56a4.85,4.85,0,0,1,1.9,1.87,5.45,5.45,0,0,1,.68,2.74,5.51,5.51,0,0,1-.68,2.75,4.83,4.83,0,0,1-1.9,1.88,6.13,6.13,0,0,1-5.59,0,4.85,4.85,0,0,1-1.9-1.87,5.89,5.89,0,0,1,0-5.51,4.85,4.85,0,0,1,1.9-1.87,6.13,6.13,0,0,1,5.59,0ZM388.56,86a3.29,3.29,0,0,0-1.25,1.32,4,4,0,0,0-.45,1.91,4.13,4.13,0,0,0,.45,1.94,3.19,3.19,0,0,0,1.25,1.32,3.59,3.59,0,0,0,1.83.47,3.55,3.55,0,0,0,1.81-.47,3.21,3.21,0,0,0,1.25-1.32,4.13,4.13,0,0,0,.45-1.94,4,4,0,0,0-.45-1.91A3.3,3.3,0,0,0,392.21,86a3.5,3.5,0,0,0-1.81-.48A3.53,3.53,0,0,0,388.56,86Z"/><path class="cls-4" d="M406.6,85a4.09,4.09,0,0,1,1,3v6.48h-1.84v-6A2.58,2.58,0,0,0,403,85.63a3.16,3.16,0,0,0-2.29.9,3.54,3.54,0,0,0-1,2.29v5.61h-1.84V84h1.84v2.22a4,4,0,0,1,4-2.28A3.85,3.85,0,0,1,406.6,85Z"/><path class="cls-4" d="M416.24,92.65a1.12,1.12,0,0,1,.31.81,1.15,1.15,0,0,1-.31.82,1,1,0,0,1-.76.33,1,1,0,0,1-.77-.33,1.13,1.13,0,0,1-.32-.82,1.1,1.1,0,0,1,.32-.81,1.05,1.05,0,0,1,.77-.32A1,1,0,0,1,416.24,92.65Z"/><path class="cls-4" d="M419.89,92.65a1.12,1.12,0,0,1,.31.81,1.15,1.15,0,0,1-.31.82,1,1,0,0,1-.76.33,1,1,0,0,1-.77-.33,1.13,1.13,0,0,1-.32-.82,1.1,1.1,0,0,1,.32-.81,1.05,1.05,0,0,1,.77-.32A1,1,0,0,1,419.89,92.65Z"/><path class="cls-4" d="M423.53,92.65a1.12,1.12,0,0,1,.31.81,1.15,1.15,0,0,1-.31.82,1,1,0,0,1-.76.33,1,1,0,0,1-.77-.33,1.13,1.13,0,0,1-.32-.82,1.1,1.1,0,0,1,.32-.81,1.05,1.05,0,0,1,.77-.32A1,1,0,0,1,423.53,92.65Z"/><path class="cls-4" d="M427.18,92.65a1.12,1.12,0,0,1,.31.81,1.15,1.15,0,0,1-.31.82,1,1,0,0,1-.76.33,1,1,0,0,1-.77-.33,1.13,1.13,0,0,1-.32-.82,1.1,1.1,0,0,1,.32-.81,1.05,1.05,0,0,1,.77-.32A1,1,0,0,1,427.18,92.65Z"/><path class="cls-2" d="M92.83,781.2l-2.39,11a24.93,24.93,0,0,1-1.26,4.21,11.41,11.41,0,0,1-1.7,2.94A6.16,6.16,0,0,1,85.29,801a6.56,6.56,0,0,1-2.74.56,7,7,0,0,1-2.17-.32,4.91,4.91,0,0,1-1.67-.91A4.12,4.12,0,0,1,77.64,799a4.23,4.23,0,0,1-.38-1.81,4.58,4.58,0,0,1,1.27-3.21,4.3,4.3,0,0,1,3.12-1.31,3.14,3.14,0,0,1,2,.61,2,2,0,0,1,.76,1.64,2.05,2.05,0,0,1-.35,1.24,2,2,0,0,0-.8-.62,2.57,2.57,0,0,0-1.06-.22,2.34,2.34,0,0,0-.9.17,2,2,0,0,0-.7.48,2.15,2.15,0,0,0-.45.74,2.93,2.93,0,0,0,0,1.9,2.27,2.27,0,0,0,.44.75,2,2,0,0,0,.67.49,2,2,0,0,0,.85.18,2.43,2.43,0,0,0,1.94-1,7.38,7.38,0,0,0,1.26-3L87,788.74h-.13a6.24,6.24,0,0,1-2.14,1.89,6.1,6.1,0,0,1-5.36.08,5.65,5.65,0,0,1-2-1.66,7.88,7.88,0,0,1-1.27-2.6,12.15,12.15,0,0,1-.45-3.41,14.36,14.36,0,0,1,.41-3.48,13.41,13.41,0,0,1,1.18-3.1,12.41,12.41,0,0,1,1.84-2.6,11.61,11.61,0,0,1,2.41-2,11.36,11.36,0,0,1,6.08-1.72,9.29,9.29,0,0,1,2.5.31,5.7,5.7,0,0,1,1.9.89,3.93,3.93,0,0,1,1.2,1.42,4.48,4.48,0,0,1,.23,3.15,3,3,0,0,1-.51,1,2.26,2.26,0,0,1-1.79.85,2.6,2.6,0,0,1-1.15-.26,2.45,2.45,0,0,1-.91-.76,2.36,2.36,0,0,0,.54-.52,3.89,3.89,0,0,0,.45-.73,4.65,4.65,0,0,0,.3-.85,3.67,3.67,0,0,0,.11-.89,2,2,0,0,0-.57-1.52,2.27,2.27,0,0,0-1.62-.53,4.35,4.35,0,0,0-1.91.45,7,7,0,0,0-1.78,1.25,10.45,10.45,0,0,0-1.55,1.9,13.88,13.88,0,0,0-1.24,2.41,15.6,15.6,0,0,0-1.09,5.73,7.36,7.36,0,0,0,.77,3.75,2.48,2.48,0,0,0,2.25,1.28,3.82,3.82,0,0,0,3.12-1.84A15.46,15.46,0,0,0,89,781.17Z"/><path class="cls-2" d="M109,780.39l-.58,1.14a10.84,10.84,0,0,1-.72,1.21,9.18,9.18,0,0,1-.91,1.13,4.47,4.47,0,0,1-1.16.88,16.41,16.41,0,0,1-.81,4.24,11.1,11.1,0,0,1-1.68,3.22,7.42,7.42,0,0,1-2.37,2,6.06,6.06,0,0,1-2.89.72,7.52,7.52,0,0,1-2.09-.28,4.23,4.23,0,0,1-1.66-.89,4.11,4.11,0,0,1-1.08-1.59,6.44,6.44,0,0,1-.39-2.38,14.16,14.16,0,0,1,.19-2.18,16,16,0,0,1,.61-2.51,14.78,14.78,0,0,1,1.1-2.53,9.55,9.55,0,0,1,1.66-2.21,7.85,7.85,0,0,1,2.29-1.57,7.13,7.13,0,0,1,3-.6q3.86,0,4.14,4.4a2,2,0,0,0,.77-.37,4.52,4.52,0,0,0,.65-.61,6.24,6.24,0,0,0,.53-.69l.37-.59Zm-6.13,4.86q-.78-.29-.78-1.47a1.71,1.71,0,0,1,.92-1.71,3.17,3.17,0,0,0-.36-1.46,1,1,0,0,0-.88-.41,1.73,1.73,0,0,0-1.12.45,5.23,5.23,0,0,0-1,1.2,10.5,10.5,0,0,0-.87,1.71,18.1,18.1,0,0,0-1.1,4,12.17,12.17,0,0,0-.15,1.81,8.06,8.06,0,0,0,.09,1.32,2,2,0,0,0,.29.8,1,1,0,0,0,.52.41,2.38,2.38,0,0,0,.78.11,1.76,1.76,0,0,0,1.17-.53,5.39,5.39,0,0,0,1.08-1.43,11.44,11.44,0,0,0,.87-2.15A17,17,0,0,0,102.88,785.25Z"/><path class="cls-2" d="M122.38,773a7.27,7.27,0,0,0-3.36,2.67,7.78,7.78,0,0,0-1.2,4.44,5.78,5.78,0,0,0,.07,1,4.55,4.55,0,0,0,.15.63,2.16,2.16,0,0,0,.15.37.48.48,0,0,1,.07.22,6.07,6.07,0,0,1-1.5-.17,2.66,2.66,0,0,1-1.09-.54,2.36,2.36,0,0,1-.67-1,4.19,4.19,0,0,1-.23-1.48,5.19,5.19,0,0,1,.47-2.14,8,8,0,0,1,1.29-2,11.58,11.58,0,0,1,1.93-1.75,13.88,13.88,0,0,1,2.37-1.39,14.14,14.14,0,0,1,2.64-.91,11.89,11.89,0,0,1,2.75-.33l.68,0,.63.06-5,23.42a8.67,8.67,0,0,1,1.7.58q.85.39,1.73.86l1.78,1q.9.48,1.83.89a12.83,12.83,0,0,0,1.91.66,8,8,0,0,0,2,.25,8.28,8.28,0,0,0,1.35-.11,6.16,6.16,0,0,0,1.39-.41,12.12,12.12,0,0,1-.44,2.13,6.6,6.6,0,0,1-.72,1.62,3.31,3.31,0,0,1-1,1,2.27,2.27,0,0,1-1.23.36,5.21,5.21,0,0,1-2.29-.55,15.47,15.47,0,0,1-2.27-1.37q-1.14-.82-2.3-1.79a29.15,29.15,0,0,0-2.39-1.78,14.94,14.94,0,0,0-2.54-1.37,7.08,7.08,0,0,0-2.76-.55h-.37l-.38,0Z"/><path class="cls-2" d="M144.73,789a14.63,14.63,0,0,1-1,2.29,9.67,9.67,0,0,1-1.12,1.64,6.34,6.34,0,0,1-1.19,1.08,5.86,5.86,0,0,1-1.18.64,5.12,5.12,0,0,1-1.1.3,6.34,6.34,0,0,1-1,.08,3.13,3.13,0,0,1-2.21-.76,3.48,3.48,0,0,1-1-2.24,12.68,12.68,0,0,1-.88,1.09,6.55,6.55,0,0,1-1.07,1,5.45,5.45,0,0,1-1.32.69,4.68,4.68,0,0,1-1.6.26,4.92,4.92,0,0,1-1.63-.27,3.52,3.52,0,0,1-1.39-.89,4.49,4.49,0,0,1-1-1.62,7.2,7.2,0,0,1-.37-2.45,14,14,0,0,1,.22-2.39,15.13,15.13,0,0,1,.68-2.55,14.57,14.57,0,0,1,1.16-2.45,9.83,9.83,0,0,1,1.63-2.07,7.44,7.44,0,0,1,2.11-1.43,6.23,6.23,0,0,1,2.6-.53,3.36,3.36,0,0,1,2,.48,1.43,1.43,0,0,1,.63,1.18v.24l.35-1.74h4.7l-2.34,11.09a3.27,3.27,0,0,0-.11.53,4.24,4.24,0,0,0,0,.52q0,1.4,1.34,1.4a1.67,1.67,0,0,0,.88-.25,2.85,2.85,0,0,0,.74-.66,4.5,4.5,0,0,0,.59-1,8.56,8.56,0,0,0,.43-1.19Zm-8.22-7.36a1.33,1.33,0,0,0-.06-.36,1.28,1.28,0,0,0-.21-.41,1.23,1.23,0,0,0-.41-.33,1.39,1.39,0,0,0-.65-.13,2.17,2.17,0,0,0-1.3.45,4.83,4.83,0,0,0-1.12,1.19,9.52,9.52,0,0,0-.91,1.68,16.29,16.29,0,0,0-1.1,3.9,11.88,11.88,0,0,0-.14,1.73,4.65,4.65,0,0,0,.18,1.45,1.94,1.94,0,0,0,.42.76,1,1,0,0,0,.53.29,3.09,3.09,0,0,0,.51,0,1.88,1.88,0,0,0,.77-.18,2.81,2.81,0,0,0,.78-.54,4,4,0,0,0,.68-.9A4.44,4.44,0,0,0,135,789Z"/><path class="cls-2" d="M160.46,789a14.27,14.27,0,0,1-1.47,3.2,7.67,7.67,0,0,1-1.59,1.82,4.26,4.26,0,0,1-1.58.82,6,6,0,0,1-1.43.19,4.67,4.67,0,0,1-1.82-.31,3.13,3.13,0,0,1-1.18-.83,3.19,3.19,0,0,1-.65-1.18,4.69,4.69,0,0,1-.2-1.36,9.64,9.64,0,0,1,.23-1.94q.23-1.11.5-2.27t.5-2.25A9.19,9.19,0,0,0,152,783q0-1.67-1.18-1.67a1.53,1.53,0,0,0-.83.24,2.74,2.74,0,0,0-.7.64,4.85,4.85,0,0,0-.57,1,9.37,9.37,0,0,0-.45,1.17l-2.21,10.47h-4.7l3.46-16.32h4.7l-.35,1.69a6,6,0,0,1,1-.95,5,5,0,0,1,1-.55,4.37,4.37,0,0,1,.93-.25,5.8,5.8,0,0,1,.82-.06,4.89,4.89,0,0,1,1.45.21,2.88,2.88,0,0,1,1.91,1.8,4.64,4.64,0,0,1,.27,1.67,9,9,0,0,1-.12,1.41q-.12.76-.29,1.55t-.37,1.57q-.2.78-.37,1.5t-.29,1.33a5.69,5.69,0,0,0-.12,1.08,1.63,1.63,0,0,0,.28,1,1.2,1.2,0,0,0,1,.38,2,2,0,0,0,.92-.21,2.34,2.34,0,0,0,.72-.59,4.58,4.58,0,0,0,.58-.92c.18-.36.35-.75.52-1.17Z"/><path class="cls-2" d="M166.18,793.22a7.55,7.55,0,0,1-.78.71,5.36,5.36,0,0,1-.9.57,5.08,5.08,0,0,1-1,.39,4.77,4.77,0,0,1-1.19.14,4.92,4.92,0,0,1-1.63-.27,3.52,3.52,0,0,1-1.39-.89,4.49,4.49,0,0,1-1-1.62,7.2,7.2,0,0,1-.37-2.45,14,14,0,0,1,.22-2.39,15.13,15.13,0,0,1,.68-2.55,14.57,14.57,0,0,1,1.16-2.45,9.83,9.83,0,0,1,1.63-2.07,7.44,7.44,0,0,1,2.11-1.43,6.23,6.23,0,0,1,2.6-.53,3.36,3.36,0,0,1,2,.48,1.43,1.43,0,0,1,.63,1.18v.06l.32-1.56H174l-4,18.93a8.53,8.53,0,0,1-1,2.84,6,6,0,0,1-1.5,1.69,4.65,4.65,0,0,1-1.72.81,7.6,7.6,0,0,1-1.7.21,4.11,4.11,0,0,1-1.43-.25,3.91,3.91,0,0,1-1.23-.72,3.59,3.59,0,0,1-.86-1.11,3.14,3.14,0,0,1-.33-1.44,3.89,3.89,0,0,1,.44-1.93,4,4,0,0,1,1.2-1.32,7.6,7.6,0,0,1,1.79-.92q1-.37,2.21-.72Zm-.53,2.41a12.46,12.46,0,0,0-1.43.57,5.4,5.4,0,0,0-1.16.72,3.16,3.16,0,0,0-.77.92A2.43,2.43,0,0,0,162,799a.85.85,0,0,0,.1.38,1.09,1.09,0,0,0,.27.34,1.63,1.63,0,0,0,.41.25,1.31,1.31,0,0,0,.53.1,1.36,1.36,0,0,0,.53-.12,1.51,1.51,0,0,0,.53-.41,3.3,3.3,0,0,0,.48-.79,6.27,6.27,0,0,0,.38-1.23Zm3-14.1a2.32,2.32,0,0,0-.1-.35,1.29,1.29,0,0,0-.21-.37,1.12,1.12,0,0,0-.39-.29,1.44,1.44,0,0,0-.63-.12,2.17,2.17,0,0,0-1.3.45,4.83,4.83,0,0,0-1.12,1.19,9.52,9.52,0,0,0-.91,1.68,16.29,16.29,0,0,0-1.1,3.9,11.88,11.88,0,0,0-.14,1.73,4.65,4.65,0,0,0,.18,1.45,1.94,1.94,0,0,0,.42.76,1,1,0,0,0,.53.29,3.09,3.09,0,0,0,.51,0,1.88,1.88,0,0,0,.71-.15,2.83,2.83,0,0,0,.74-.45,3.36,3.36,0,0,0,.67-.76,4.28,4.28,0,0,0,.49-1.08Z"/><path class="cls-5" d="M173.38,742H77.44c-.57-8.34-.83-16.66.75-24.94,2.63-13.77,10-23.61,23.54-28.17a76.89,76.89,0,0,1,42.87-2.17c12.92,3,21.65,10.8,25.3,23.9a98.4,98.4,0,0,1,3.4,22.57C173.43,736.1,173.9,739,173.38,742Zm-41.68-6.43c0-.3,0-.59-.08-.88-.25-1.45-.41-2.41,1.83-2.23,3.28.25,5.43-3.72,3.81-6.59a9.39,9.39,0,0,0-3.73-3.46c-1.1-.62-2-1.18-2.08-2.7a2.93,2.93,0,0,0-1.85-2.24,9.07,9.07,0,0,0-9,.26c-1.57.85-1.48,3-2.65,3.75-1.36.92-2.9,1.54-3.83,3-2,3.14-1,6.3,2.48,7.7.72.29.65.69.61,1.23a10.9,10.9,0,0,0,.69,4.88c1.17,3,3.43,3.64,5.79,1.49.81-.74,1.11-.58,1.75.11a3.24,3.24,0,0,0,4,1C131.5,740,131.93,739.07,131.7,735.55Z"/><path class="cls-2" d="M178,702.55a9.29,9.29,0,0,1-6,8.59c-.65.25-.89.22-1.11-.51-.57-1.86-1.22-3.7-1.9-5.52a1.33,1.33,0,0,1,.34-1.56,3.67,3.67,0,0,0-3.26-5.8,2,2,0,0,1-2.34-1,14.06,14.06,0,0,0-1.95-2c-.75-.66-.9-1,.15-1.58A10.83,10.83,0,0,1,178,702.55Z"/><path class="cls-2" d="M88.3,695.61a28.86,28.86,0,0,0-4.09,4.6c-.6.88-1.14.49-1.81.26-2.13-.73-3.56-.4-4.63,1-1.49,2-1.19,4,1,5.47,1,.67,1.16,1.22.67,2.26a12.27,12.27,0,0,0-.95,2.86c-.24,1.22-.78,1.11-1.7.7-6.88-3.07-7.73-11.28-1.68-16.42A10.82,10.82,0,0,1,88.3,695.61Z"/><path class="cls-2" d="M115.41,727.55a4.83,4.83,0,0,1,3.11-4.16,1,1,0,0,1,1.13.11,9.32,9.32,0,0,0,10.1.12,1.57,1.57,0,0,1,2.05-.06,10.41,10.41,0,0,1,3.11,2.49,2.6,2.6,0,0,1,.16,3.35c-.85,1.15-2.07,2-3.48,1.36-4.09-2-8.05-1.8-12.25-.25C117.18,731.32,115.41,729.75,115.41,727.55Z"/><path class="cls-6" d="M125.27,733.66a13.44,13.44,0,0,0,.11-1.88c-.1-1.37.4-1.7,1.66-1.36,2.64.71,2.76.8,2.9,3.62,0,.78.07,1.57,0,2.36a2.37,2.37,0,0,1-2.22,2.6,2.88,2.88,0,0,1-2.48-2.35,5,5,0,0,1-.08-.78c0-.73,0-1.47,0-2.2Z"/><path class="cls-6" d="M124.42,731.6a25.47,25.47,0,0,0-.22,4.7c.05,1.5-1.13,2.07-2.23,2.47s-1.66-.41-2.11-1.22a8.08,8.08,0,0,1-.81-5c0-.2.06-.54.17-.57a41.61,41.61,0,0,1,4.92-1.48C124.73,730.34,124.25,731.22,124.42,731.6Z"/><path class="cls-2" d="M142.3,720a14.72,14.72,0,0,1-9.94-3.19,12.43,12.43,0,0,1-2.62-16.59c4.13-6.52,13.81-9,20.57-5.32A13.83,13.83,0,0,1,157,708.72c-.71,5.24-5,9.56-10.84,10.81A15.35,15.35,0,0,1,142.3,720Zm4.78-18.88a4.51,4.51,0,0,0-4.42-4.75,4.8,4.8,0,0,0,0,9.55A4.55,4.55,0,0,0,147.08,701.09Z"/><path class="cls-2" d="M105.17,694.74c10,0,16.37,7.95,13.81,17-1.57,5.54-5.79,8.31-11.15,9.5-7.72,1.71-16.28-2.25-17.54-11.53-.84-6.18,3.29-11.82,9.11-13.89A16.25,16.25,0,0,1,105.17,694.74Zm1,12.87a4.61,4.61,0,0,0,4.51-4.74,4.48,4.48,0,1,0-8.94-.07A4.62,4.62,0,0,0,106.2,707.62Z"/><path class="cls-3" d="M147.08,701.09a4.55,4.55,0,0,1-4.4,4.8,4.8,4.8,0,0,1,0-9.55A4.51,4.51,0,0,1,147.08,701.09Zm-4.26,1.26a1.09,1.09,0,0,0-1,1.23c0,.67.38,1.13,1.12,1.08s.87-.53.9-1.11A1.08,1.08,0,0,0,142.83,702.35Z"/><path class="cls-3" d="M106.2,707.62a4.62,4.62,0,0,1-4.44-4.81,4.48,4.48,0,1,1,8.94.07A4.61,4.61,0,0,1,106.2,707.62Zm1.15-2.5a.91.91,0,0,0-1.08-.89,1,1,0,0,0-.89,1.15c0,.69.33,1.21,1,1.19S107.39,706,107.36,705.11Z"/><path class="cls-2" d="M142.83,702.35a1.08,1.08,0,0,1,1,1.21c0,.57-.24,1.06-.9,1.11s-1.08-.41-1.12-1.08A1.09,1.09,0,0,1,142.83,702.35Z"/><path class="cls-2" d="M107.36,705.11c0,.88-.23,1.44-.94,1.45s-1-.51-1-1.19a1,1,0,0,1,.89-1.15A.91.91,0,0,1,107.36,705.11Z"/></svg>