<svg id="Layer_1" data-name="Layer 1" xmlns="http://www.w3.org/2000/svg" viewBox="0 0 1280 679"><defs><style>.cls-1{fill:#52b8ba;}.cls-2{fill:#fff;}.cls-3{fill:#fdbf5e;}.cls-4{fill:#898989;}.cls-5{fill:none;stroke:#fff;stroke-miterlimit:10;stroke-width:2px;}.cls-6{fill:#fbfbfb;}</style></defs><title>course final</title><rect class="cls-1" y="151" width="426.67" height="264.22"/><rect class="cls-2" x="426.67" y="151" width="426.67" height="264.22"/><rect class="cls-3" x="853.33" y="151" width="426.67" height="264.22"/><rect class="cls-2" y="415.22" width="426.67" height="263.78"/><rect class="cls-3" x="426.67" y="415.22" width="426.67" height="263.78"/><rect class="cls-1" x="853.33" y="415.22" width="426.67" height="263.78"/><path class="cls-2" d="M1048.54,609.7l4.48-21,4.88-.64-4,18.49a3.15,3.15,0,0,0,1.88.66,3.09,3.09,0,0,0,1.84-.61,6.32,6.32,0,0,0,1.55-1.67,12.8,12.8,0,0,0,1.25-2.47,23,23,0,0,0,.93-3,28.9,28.9,0,0,0,.57-3.33,30.24,30.24,0,0,0,.19-3.39,10.29,10.29,0,0,0-.35-2.86,5.21,5.21,0,0,0-1-1.93,3.78,3.78,0,0,0-1.52-1.09,5.34,5.34,0,0,0-2-.35,10.34,10.34,0,0,0-3.41.55,8,8,0,0,0-2.74,1.59,7.35,7.35,0,0,0-1.82,2.52,8.2,8.2,0,0,0-.66,3.37,5.79,5.79,0,0,0,.07,1,4.43,4.43,0,0,0,.15.63,2.22,2.22,0,0,0,.15.36.48.48,0,0,1,.07.23,4.28,4.28,0,0,1-2.59-.69,2.76,2.76,0,0,1-.93-2.37,5.83,5.83,0,0,1,.44-2.21,7.82,7.82,0,0,1,1.25-2.05,10.48,10.48,0,0,1,1.93-1.78,13.48,13.48,0,0,1,2.49-1.41,15.06,15.06,0,0,1,2.92-.93,15.63,15.63,0,0,1,3.24-.33,10.68,10.68,0,0,1,2.87.35,8.16,8.16,0,0,1,2.25,1,7,7,0,0,1,1.68,1.51,8.11,8.11,0,0,1,1.14,1.93,10.4,10.4,0,0,1,.65,2.25,14.25,14.25,0,0,1,.21,2.46,21.55,21.55,0,0,1-.34,3.78,23.74,23.74,0,0,1-.94,3.64,20,20,0,0,1-1.45,3.24,14.08,14.08,0,0,1-1.86,2.62,8.54,8.54,0,0,1-2.17,1.75,4.85,4.85,0,0,1-2.37.64,5.06,5.06,0,0,1-2-.42,7.86,7.86,0,0,1-2.06-1.34l-.27,1.32Z"/><path class="cls-2" d="M1085.08,597.17a8.09,8.09,0,0,1-2.5,1.72,13.1,13.1,0,0,1-3.35,1,15.54,15.54,0,0,1-.88,4.12,11,11,0,0,1-1.73,3.12,7.48,7.48,0,0,1-2.4,2,6.2,6.2,0,0,1-2.87.69,7.57,7.57,0,0,1-2.12-.28,4.28,4.28,0,0,1-1.67-.9,4.16,4.16,0,0,1-1.09-1.61,6.52,6.52,0,0,1-.39-2.41,13.83,13.83,0,0,1,.2-2.2,15.83,15.83,0,0,1,.64-2.54,15.15,15.15,0,0,1,1.14-2.55,9.81,9.81,0,0,1,1.71-2.23,8.18,8.18,0,0,1,2.33-1.59,7.17,7.17,0,0,1,3-.6q4.24,0,4.24,5.27v0a.41.41,0,0,0,.15,0h.2a5.12,5.12,0,0,0,1.25-.17,10.45,10.45,0,0,0,1.34-.44,11.45,11.45,0,0,0,1.32-.64q.64-.36,1.18-.73ZM1076.5,600a1,1,0,0,1-.7-.51,2,2,0,0,1-.18-.88,2.08,2.08,0,0,1,.28-1.13,1.69,1.69,0,0,1,.75-.65,6,6,0,0,0-.11-.89,1.93,1.93,0,0,0-.23-.6.82.82,0,0,0-.36-.33,1.38,1.38,0,0,0-.56-.1,1.76,1.76,0,0,0-1.14.46,5.42,5.42,0,0,0-1,1.22,11.05,11.05,0,0,0-.9,1.73,17.13,17.13,0,0,0-.7,2,18.08,18.08,0,0,0-.45,2,11.65,11.65,0,0,0-.16,1.83,8.1,8.1,0,0,0,.09,1.34,2.07,2.07,0,0,0,.29.81,1,1,0,0,0,.52.41,2.4,2.4,0,0,0,.79.11,1.84,1.84,0,0,0,1.2-.53,5.51,5.51,0,0,0,1.12-1.45,11.52,11.52,0,0,0,.91-2.17A16.19,16.19,0,0,0,1076.5,600Z"/><path class="cls-2" d="M1094,603.79a18.91,18.91,0,0,1-1.59,2.25,11.87,11.87,0,0,1-2,1.95,10,10,0,0,1-2.48,1.38,8.26,8.26,0,0,1-3,.52,7.09,7.09,0,0,1-2.12-.3,4.2,4.2,0,0,1-1.63-.93,4.07,4.07,0,0,1-1-1.62,7,7,0,0,1-.36-2.39,14.57,14.57,0,0,1,.19-2.2,16.12,16.12,0,0,1,.62-2.55,15.25,15.25,0,0,1,1.11-2.56,9.6,9.6,0,0,1,1.67-2.24,8,8,0,0,1,2.29-1.59,7,7,0,0,1,3-.6,5.21,5.21,0,0,1,1.8.27,3.05,3.05,0,0,1,1.13.69,2.31,2.31,0,0,1,.58,1,3.85,3.85,0,0,1,.16,1.09,3.61,3.61,0,0,1-.14,1.05,2.3,2.3,0,0,1-.38.75,1.48,1.48,0,0,1-.56.45,1.63,1.63,0,0,1-.68.15,2.13,2.13,0,0,1-1.16-.39,5.56,5.56,0,0,0,.4-1.95,1.87,1.87,0,0,0-.23-1,.75.75,0,0,0-.69-.37,1.54,1.54,0,0,0-1,.47,5.68,5.68,0,0,0-1,1.24,11.74,11.74,0,0,0-.88,1.77,19.27,19.27,0,0,0-.7,2.08,19.68,19.68,0,0,0-.47,2.15,12.86,12.86,0,0,0-.17,2,5.13,5.13,0,0,0,.15,1.38,2,2,0,0,0,.45.85,1.6,1.6,0,0,0,.74.43,4,4,0,0,0,1,.12,5.76,5.76,0,0,0,1.78-.26,6.23,6.23,0,0,0,1.49-.71,8.33,8.33,0,0,0,1.31-1.06q.62-.61,1.25-1.3Z"/><path class="cls-2" d="M1110.63,603.79a13.44,13.44,0,0,1-1.52,3.29,7.72,7.72,0,0,1-1.65,1.84,4.26,4.26,0,0,1-1.59.8,6,6,0,0,1-1.31.18,4.41,4.41,0,0,1-3.11-1,3.61,3.61,0,0,1-1-2.78,8.72,8.72,0,0,1,.19-1.72l.27-1.29a3.78,3.78,0,0,0,.1-.63c0-.2,0-.4,0-.58a2.26,2.26,0,0,0-.26-1.16,1,1,0,0,0-.93-.43,2.34,2.34,0,0,0-1.15.33,9.27,9.27,0,0,0-1.28.89l-1.72,8.15h-4.75l4.78-22.43,4.88-.66-2.46,11.61,6.36-5h3.27l-6.6,4.59a4.25,4.25,0,0,1,1.09-.14,3.9,3.9,0,0,1,1.6.31,3.15,3.15,0,0,1,1.13.84,3.45,3.45,0,0,1,.67,1.23,5,5,0,0,1,.22,1.49q0,.31,0,.62a3.78,3.78,0,0,1-.1.64l-.37,1.64a4.26,4.26,0,0,0-.12.53,3.5,3.5,0,0,0,0,.53,1.45,1.45,0,0,0,.26.86,1.2,1.2,0,0,0,1,.36,2,2,0,0,0,.93-.21,2.38,2.38,0,0,0,.72-.6,4.62,4.62,0,0,0,.59-.93q.27-.54.52-1.18Z"/><path class="cls-2" d="M1122.27,603.79a18.91,18.91,0,0,1-1.59,2.25,11.87,11.87,0,0,1-2,1.95,10,10,0,0,1-2.48,1.38,8.26,8.26,0,0,1-3,.52,7.09,7.09,0,0,1-2.12-.3,4.2,4.2,0,0,1-1.63-.93,4.07,4.07,0,0,1-1-1.62,7,7,0,0,1-.36-2.39,14.42,14.42,0,0,1,.19-2.19,16.77,16.77,0,0,1,.61-2.54,14.4,14.4,0,0,1,1.11-2.56,10.09,10.09,0,0,1,1.67-2.25,7.75,7.75,0,0,1,2.3-1.59,7.17,7.17,0,0,1,3-.6,5.2,5.2,0,0,1,1.81.27,2.91,2.91,0,0,1,1.11.7,2.31,2.31,0,0,1,.56,1,4.53,4.53,0,0,1,.15,1.18,5.78,5.78,0,0,1-.63,2.67,7.1,7.1,0,0,1-1.68,2.15,8.69,8.69,0,0,1-2.42,1.48,9,9,0,0,1-2.85.66q0,.37-.06.7c0,.22,0,.43,0,.62a5.13,5.13,0,0,0,.15,1.38,2,2,0,0,0,.45.85,1.6,1.6,0,0,0,.74.43,4,4,0,0,0,1,.12,5.76,5.76,0,0,0,1.78-.26,6.23,6.23,0,0,0,1.49-.71,8.33,8.33,0,0,0,1.31-1.06q.62-.61,1.25-1.3Zm-9-2.33a4.4,4.4,0,0,0,1.8-.53,5.49,5.49,0,0,0,1.53-1.22,6,6,0,0,0,1.05-1.71,5.18,5.18,0,0,0,.39-2,2.3,2.3,0,0,0-.18-1,.65.65,0,0,0-.64-.37,1.76,1.76,0,0,0-1.23.6,6.93,6.93,0,0,0-1.13,1.57,13.48,13.48,0,0,0-.94,2.18A19.39,19.39,0,0,0,1113.27,601.45Z"/><path class="cls-2" d="M1119.13,609.7l3.49-16.49h4.75l-.42,2,.89-.76a6.87,6.87,0,0,1,.94-.65,5.67,5.67,0,0,1,1-.46,3.54,3.54,0,0,1,1.13-.18,2.17,2.17,0,0,1,1.71.76,2.27,2.27,0,0,1,.43.79,3,3,0,0,1,.14.93,2.66,2.66,0,0,1-.14.86,2.22,2.22,0,0,1-.44.77,2.34,2.34,0,0,1-.75.55,2.38,2.38,0,0,1-1,.22,1.32,1.32,0,0,1-.72-.16,1.08,1.08,0,0,1-.38-.4,1.88,1.88,0,0,1-.18-.52q-.06-.28-.12-.52a1.41,1.41,0,0,0-.17-.4.38.38,0,0,0-.35-.16,2.23,2.23,0,0,0-1.27.35,9.6,9.6,0,0,0-1.13.91l-2.64,12.53Z"/><path class="cls-1" d="M1100.14,498.11h12.72v13h6.43a27.9,27.9,0,0,0,8.84-1.48,22.64,22.64,0,0,0,4.3-1.94,16,16,0,0,1-3-8.22c-.37-4,.43-9.14,3.12-12.25l1.34-1.55,1.59,1.28c4,3.22,7.39,7.73,8,12.86,4.83-1.42,10.51-1.09,14.76,1.37l1.75,1-.92,1.8c-3.6,7-11.13,9.21-18.5,8.82-11,27.44-35,40.43-64.08,40.43-15,0-28.81-5.62-36.66-18.95l-.13-.22-1.14-2.33a36.91,36.91,0,0,1-2.94-18.72l.18-1.92h10.88v-13h12.72V485.39h25.45V472.66h15.27v25.45"/><path class="cls-2" d="M1141.36,502.92c.85-6.63-4.11-11.84-7.19-14.31-3.55,4.1-4.1,14.85,1.47,19.37-3.11,2.76-9.65,5.26-16.35,5.26h-81.55a34.37,34.37,0,0,0,3.38,18.95l.93,1.7a31.46,31.46,0,0,0,1.92,2.88q5,.32,9.27.23h0a45.46,45.46,0,0,0,13.53-2,1,1,0,0,1,.64,1.85c-.46.16-.93.31-1.43.45h0a42.54,42.54,0,0,1-9.35,1.52c.22,0-.23,0-.23,0l-.42,0c-1.47.08-3.06.1-4.69.1-1.78,0-3.53,0-5.49-.13l-.05,0c6.79,7.64,17.42,12.22,30.74,12.22,28.18,0,52.09-12.49,62.68-40.54,7.51.77,14.73-1.14,18-7.55-5.23-3-12-2.06-15.83-.11"/><path class="cls-2" d="M1141.36,502.92c.85-6.63-4.11-11.84-7.19-14.31-3.55,4.1-4.1,14.85,1.47,19.37-3.11,2.76-9.65,5.26-16.35,5.26h-76.72c-.33,10.71,3.64,18.84,10.67,23.75h0a45.46,45.46,0,0,0,13.53-2,1,1,0,0,1,.64,1.85c-.46.16-.93.31-1.43.45h0a44.73,44.73,0,0,1-9.6,1.59l-.09-.09c9.59,4.92,23.5,4.9,39.45-1.22,17.88-6.87,34.52-20,46.13-34.92l-.51.24"/><path class="cls-2" d="M1037.9,521.73a32.6,32.6,0,0,0,3.23,10.45l.93,1.7a31.4,31.4,0,0,0,1.92,2.88q5,.32,9.27.23a45.46,45.46,0,0,0,13.53-2,1,1,0,0,1,.64,1.85c-.46.16-.93.31-1.43.45h0a44.74,44.74,0,0,1-9.58,1.56l-.48,0c-1.47.08-3,.13-4.67.13-1.78,0-3.6,0-5.55-.13,6.79,7.64,17.48,12.23,30.8,12.23,24.13,0,45.12-9.16,57.31-29.39H1037.9"/><path class="cls-2" d="M1043.31,521.73a24.49,24.49,0,0,0,9.94,15.26,45.46,45.46,0,0,0,13.53-2,1,1,0,0,1,.64,1.85c-.46.16-.93.31-1.43.45h0a45.41,45.41,0,0,1-9.65,1.56c9.59,4.92,23.46,4.85,39.4-1.28A104.14,104.14,0,0,0,1123,521.73h-79.7"/><path class="cls-2" d="M1048.81,500.23h11v11h-11Zm.92.92h.87v9.19h-.87Zm1.64,0h.91v9.19h-.9v-9.19Zm1.67,0h.91v9.19H1053Zm1.67,0h.9v9.19h-.9Zm1.67,0h.9v9.19h-.9v-9.19Zm1.67,0h.87v9.19h-.87Zm3.49-13.64h11v11h-11v-11Zm.92.92h.87v9.19h-.87Zm1.64,0h.9v9.19h-.9v-9.19Zm1.67,0h.9v9.19h-.9Zm1.67,0h.9v9.19h-.9Zm1.67,0h.91v9.19h-.91Zm1.67,0h.87v9.19h-.87Z"/><path class="cls-2" d="M1061.54,500.23h11v11h-11v-11Zm.92.92h.87v9.19h-.87Zm1.64,0h.9v9.19h-.9v-9.19Zm1.67,0h.9v9.19h-.9Zm1.67,0h.9v9.19h-.9Zm1.67,0h.91v9.19h-.91Zm1.67,0h.87v9.19h-.87Z"/><path class="cls-2" d="M1074.26,500.23h11v11h-11Zm.92.92h.87v9.19h-.87Zm1.64,0h.9v9.19h-.9Zm1.67,0h.9v9.19h-.9Zm1.67,0h.9v9.19h-.9Zm1.67,0h.91v9.19h-.91Zm1.67,0h.87v9.19h-.87Z"/><path class="cls-2" d="M1074.26,487.51h11v11h-11Zm.92.92h.87v9.19h-.87Zm1.64,0h.9v9.19h-.9Zm1.67,0h.9v9.19h-.9Zm1.67,0h.9v9.19h-.9Zm1.67,0h.91v9.19h-.91Zm1.67,0h.87v9.19h-.87Zm3.49,11.81h11v11h-11Zm.92.92h.87v9.19h-.87Zm1.64,0h.9v9.19h-.9Zm1.67,0h.9v9.19h-.9Zm1.67,0h.91v9.19h-.91Zm1.67,0h.91v9.19h-.91Zm1.67,0h.87v9.19h-.87Z"/><path class="cls-2" d="M1087,487.51h11v11h-11Zm.92.92h.87v9.19h-.87Zm1.64,0h.9v9.19h-.9Zm1.67,0h.9v9.19h-.9Zm1.67,0h.91v9.19h-.91Zm1.67,0h.91v9.19h-.91Zm1.67,0h.87v9.19h-.87Z"/><path class="cls-2" d="M1087,474.78h11v11h-11Zm.92.92h.87v9.19h-.87V475.7Zm1.64,0h.9v9.19h-.9V475.7Zm1.67,0h.9v9.19h-.9V475.7Zm1.67,0h.91v9.19h-.91V475.7Zm1.67,0h.91v9.19h-.91V475.7Zm1.67,0h.87v9.19h-.87V475.7Z"/><path class="cls-2" d="M1099.71,500.23h11v11h-11Zm.92.92h.87v9.19h-.87v-9.19Zm1.64,0h.91v9.19h-.9v-9.19Zm1.67,0h.91v9.19h-.91Zm1.67,0h.91v9.19h-.91Zm1.67,0h.9v9.19h-.9Zm1.67,0h.87v9.19h-.87Z"/><path class="cls-2" d="M1071.88,529.14a3,3,0,1,1,.08,6.09h-.08a3,3,0,0,1,0-6.09"/><path class="cls-1" d="M1071.88,530a2.17,2.17,0,0,1,.79.15.89.89,0,1,0,1.22,1.2,2.18,2.18,0,1,1-2-1.34m-53.81-7.17h141.53c-3.08-.78-9.75-1.84-8.65-5.88-5.6,6.48-19.12,4.55-22.53,1.35-3.8,5.51-25.91,3.41-27.45-.88-4.76,5.59-19.51,5.59-24.28,0-1.54,4.29-23.65,6.39-27.45.88-3.41,3.2-16.92,5.13-22.53-1.35,1.1,4-5.57,5.09-8.65,5.88"/><path class="cls-2" d="M1080,551.06c-7.53-3.58-11.67-8.44-14-13.74a46.68,46.68,0,0,1-10.07,1.53q-2.21.12-4.65.12-2.81,0-5.92-.17c6.91,6.91,15.41,12.22,31.15,12.32q1.74,0,3.46-.07"/><path class="cls-2" d="M1068.79,542.22a26.41,26.41,0,0,1-2.8-4.9,46.64,46.64,0,0,1-10.07,1.53c2.69,1.46,6.53,2.81,12.87,3.37"/><path class="cls-2" d="M641.11,553.25H640a12.36,12.36,0,0,0-5.95,0h-1.12c-.34-.86-1.16-.54-1.76-.64-12.46-2.06-22.21-8.26-29.08-18.91,4.52,0,9,0,13.55-.07a16.81,16.81,0,0,0,9-2.41,20.92,20.92,0,0,1-2.81-2.91c-1.15-1.77-2.36-2.56-4.49-1.62a7.79,7.79,0,0,1-2.94.23c-5.26.05-10.52.08-15.78.11l-1.37-3.59c-.64-1.68-.55-3.58-1.55-5.16V504.54c.71-.56.53-1.43.73-2.15.65-2.28,1-4.64,2.29-6.71,5.88.2,11.77-.28,17.63.28a8.54,8.54,0,0,1,6.89,4.07l.3.41.06.1a1.08,1.08,0,0,0,.16.22l.23.62.33.57a.51.51,0,0,1,.1.31l-1.08.53c-.63-1-1.21-2-1.89-2.9-.79-1.08-1.5-1.16-1.93.31-.1.34-.26.66-.39,1l-.31.56-1.12,4.64s-.08.08-.08.11a1.53,1.53,0,0,0,.07.26l-.13,1.11c-1,1.38-.93,5.38,0,6.7a34.35,34.35,0,0,0,2.2,7.84c6.36,14.71,25,14,32.07,4.57,6.18-8.19,6.69-17.24,2.91-26.36a19,19,0,0,0-25.91-9.9c-1.06.51-1.6.86-.31,1.79a11.34,11.34,0,0,1,2.87,3.14c.6.94,1.17,1.07,2.26.72,5.67-1.82,10.75.42,12.88,5.93a24.23,24.23,0,0,1-.28,18.81c-1.82,4.25-5.38,6.12-10,5.69-.81-1.07-1.91-.83-3-.67a2.9,2.9,0,0,1-1.9-1l.13-1a4.66,4.66,0,0,0,1.38-1.94c2.25-4.31,2.16-9,1.83-13.62-.74-10.47-8-20.12-21-19.6-3.83.15-7.67,0-11.5,0a4.4,4.4,0,0,1,.31-.67,41.64,41.64,0,0,1,27.34-18c.79-.15,1.75.1,2.34-.72h9.3c.21.56.72.37,1.11.43,21.12,3.1,36.26,20.44,36.23,41.47s-15.21,38.12-36.29,41.21C642,552.76,641.35,552.52,641.11,553.25Z"/><path class="cls-2" d="M634,553.25a12.36,12.36,0,0,1,5.95,0Z"/><path class="cls-3" d="M636.27,526.81c4.66.44,8.22-1.43,10-5.69a24.23,24.23,0,0,0,.28-18.81c-2.14-5.51-7.21-7.76-12.88-5.93-1.1.35-1.67.22-2.26-.72a11.34,11.34,0,0,0-2.87-3.14c-1.29-.94-.75-1.28.31-1.79a19,19,0,0,1,25.91,9.9c3.79,9.12,3.27,18.17-2.91,26.36-7.09,9.39-25.71,10.14-32.07-4.57a34.35,34.35,0,0,1-2.2-7.84l0-6.7.13-1.11v-.38l1.12-4.64a.47.47,0,0,0,.31-.56c.13-.33.29-.65.39-1,.43-1.47,1.14-1.39,1.93-.31.68.93,1.26,1.93,1.89,2.9,1.27,3.35,1.38,6.86,1.46,10.39a13.71,13.71,0,0,0,6.55,12,2.9,2.9,0,0,0,1.9,1A5.4,5.4,0,0,0,636.27,526.81Z"/><path class="cls-3" d="M598.76,495.68a21.23,21.23,0,0,1,3.42-6.75c3.83,0,7.67.19,11.5,0,13.07-.52,20.3,9.12,21,19.6.33,4.62.42,9.3-1.83,13.62a4.66,4.66,0,0,1-1.38,1.94c-.09-.22-.12-.51-.28-.66-4-3.65-5.15-8.32-5.06-13.54a14.81,14.81,0,0,0-1.71-7.66.51.51,0,0,0-.1-.31l-.33-.57-.23-.62a.22.22,0,0,0-.16-.22l-.06-.1-.3-.41a8.54,8.54,0,0,0-6.89-4.07C610.53,495.39,604.64,495.87,598.76,495.68Z"/><path class="cls-3" d="M602.09,533.71a22.13,22.13,0,0,1-3.43-6.67c5.26,0,10.52-.06,15.78-.11a7.79,7.79,0,0,0,2.94-.23c2.13-.94,3.35-.15,4.49,1.62a20.92,20.92,0,0,0,2.81,2.91,16.81,16.81,0,0,1-9,2.41C611.12,533.69,606.61,533.69,602.09,533.71Z"/><path class="cls-2" d="M624.46,502.25a14.81,14.81,0,0,1,1.71,7.66c-.09,5.22,1.05,9.89,5.06,13.54.16.14.19.43.28.66l-.13,1a13.71,13.71,0,0,1-6.55-12c-.08-3.53-.18-7-1.46-10.39Z"/><path class="cls-2" d="M617.59,507.88l0,6.7C616.66,513.26,616.64,509.26,617.59,507.88Z"/><path class="cls-2" d="M636.27,526.81a5.4,5.4,0,0,1-3-.67C634.37,526,635.46,525.74,636.27,526.81Z"/><path class="cls-2" d="M623.27,500l.3.41Z"/><path class="cls-2" d="M623.63,500.53a.22.22,0,0,1,.16.22A1.08,1.08,0,0,1,623.63,500.53Z"/><path class="cls-2" d="M619.16,501.19a.47.47,0,0,1-.31.56Z"/><path class="cls-2" d="M624,501.37l.33.57Z"/><path class="cls-2" d="M617.73,506.39v.38a1.53,1.53,0,0,1-.07-.26S617.7,506.43,617.73,506.39Z"/><path class="cls-2" d="M598.09,609.25l4.48-21,4.88-.64-4,18.49a3.15,3.15,0,0,0,1.88.66,3.09,3.09,0,0,0,1.84-.61,6.32,6.32,0,0,0,1.55-1.67A12.77,12.77,0,0,0,610,602a22.82,22.82,0,0,0,.93-3,28.9,28.9,0,0,0,.57-3.33,30.36,30.36,0,0,0,.19-3.39,10.27,10.27,0,0,0-.35-2.86,5.2,5.2,0,0,0-1-1.93,3.77,3.77,0,0,0-1.52-1.09,5.34,5.34,0,0,0-2-.35,10.34,10.34,0,0,0-3.41.55,8,8,0,0,0-2.74,1.59,7.35,7.35,0,0,0-1.82,2.52,8.18,8.18,0,0,0-.66,3.37,5.85,5.85,0,0,0,.07,1,4.49,4.49,0,0,0,.15.63,2.26,2.26,0,0,0,.15.36.48.48,0,0,1,.07.23,4.27,4.27,0,0,1-2.59-.69,2.76,2.76,0,0,1-.93-2.37,5.82,5.82,0,0,1,.44-2.21,7.79,7.79,0,0,1,1.25-2.05,10.48,10.48,0,0,1,1.93-1.78,13.49,13.49,0,0,1,2.49-1.41,15.09,15.09,0,0,1,2.92-.93,15.63,15.63,0,0,1,3.24-.33,10.68,10.68,0,0,1,2.87.35,8.14,8.14,0,0,1,2.25,1,7,7,0,0,1,1.68,1.51,8.12,8.12,0,0,1,1.14,1.93,10.46,10.46,0,0,1,.65,2.25,14.3,14.3,0,0,1,.21,2.46,21.59,21.59,0,0,1-.34,3.78,23.85,23.85,0,0,1-.94,3.64,20,20,0,0,1-1.45,3.24,14.11,14.11,0,0,1-1.86,2.62,8.56,8.56,0,0,1-2.17,1.75,4.86,4.86,0,0,1-2.38.64,5.05,5.05,0,0,1-2-.42,7.87,7.87,0,0,1-2.06-1.34l-.27,1.32Z"/><path class="cls-2" d="M629.87,603.34a18.85,18.85,0,0,1-1.59,2.25,11.89,11.89,0,0,1-2,1.95,9.94,9.94,0,0,1-2.48,1.38,8.26,8.26,0,0,1-3,.52,7.1,7.1,0,0,1-2.13-.3,4.2,4.2,0,0,1-1.63-.93,4.06,4.06,0,0,1-1-1.62,7,7,0,0,1-.36-2.39,14.41,14.41,0,0,1,.19-2.19,16.78,16.78,0,0,1,.61-2.54,14.4,14.4,0,0,1,1.11-2.56,10.09,10.09,0,0,1,1.67-2.25,7.76,7.76,0,0,1,2.3-1.59,7.17,7.17,0,0,1,3-.6,5.19,5.19,0,0,1,1.81.27,2.92,2.92,0,0,1,1.11.7,2.32,2.32,0,0,1,.56,1,4.55,4.55,0,0,1,.15,1.18,5.78,5.78,0,0,1-.63,2.67,7.09,7.09,0,0,1-1.68,2.15,8.69,8.69,0,0,1-2.42,1.48,9,9,0,0,1-2.85.66q0,.37-.06.7c0,.22,0,.43,0,.62a5.13,5.13,0,0,0,.15,1.38,1.94,1.94,0,0,0,.45.85,1.59,1.59,0,0,0,.74.43,4,4,0,0,0,1,.12,5.76,5.76,0,0,0,1.78-.26,6.22,6.22,0,0,0,1.49-.71,8.33,8.33,0,0,0,1.31-1.06q.62-.61,1.25-1.3Zm-9-2.33a4.4,4.4,0,0,0,1.8-.53,5.48,5.48,0,0,0,1.53-1.22,6,6,0,0,0,1.06-1.71,5.18,5.18,0,0,0,.39-2,2.3,2.3,0,0,0-.18-1,.65.65,0,0,0-.64-.37,1.76,1.76,0,0,0-1.23.6,6.9,6.9,0,0,0-1.14,1.57,13.44,13.44,0,0,0-.94,2.18A19.38,19.38,0,0,0,620.87,601Z"/><path class="cls-2" d="M630.23,592.76H635L632.61,604q-.08.37-.13.67a3.31,3.31,0,0,0,0,.52,1.15,1.15,0,0,0,.27.8,1.1,1.1,0,0,0,.86.3,2.52,2.52,0,0,0,1.55-.56,6.27,6.27,0,0,0,1.37-1.49,13.13,13.13,0,0,0,1.14-2.1,20.44,20.44,0,0,0,.88-2.4,21,21,0,0,0,.56-2.39,12.33,12.33,0,0,0,.2-2.07.31.31,0,0,1-.17.15,1.67,1.67,0,0,1-.3.1l-.32.06-.26,0a.89.89,0,0,1-.52-.15,1.32,1.32,0,0,1-.38-.39,1.79,1.79,0,0,1-.23-.54,2.48,2.48,0,0,1-.07-.59,1.76,1.76,0,0,1,.49-1.28,2.08,2.08,0,0,1,1.55-.51,1.76,1.76,0,0,1,1.63.89,2.88,2.88,0,0,1,.35.92,5.29,5.29,0,0,1,.11,1.06,20.84,20.84,0,0,1-.23,2.91,21.18,21.18,0,0,1-.72,3.2,20.23,20.23,0,0,1-1.24,3.12,11.94,11.94,0,0,1-1.8,2.67,8.49,8.49,0,0,1-2.4,1.88,6.42,6.42,0,0,1-3,.71,4.31,4.31,0,0,1-3-1,3.7,3.7,0,0,1-1.09-2.92c0-.18,0-.42,0-.7a7.11,7.11,0,0,1,.13-.89Z"/><path class="cls-2" d="M655.1,587.63a5.27,5.27,0,0,0-1.47,1.41,15,15,0,0,0-1.36,2.24,24.73,24.73,0,0,0-1.18,2.79q-.54,1.51-.93,3.06a29.64,29.64,0,0,0-.61,3.06,19.59,19.59,0,0,0-.22,2.78,9.7,9.7,0,0,0,.11,1.54,4.88,4.88,0,0,0,.34,1.21,2,2,0,0,0,.59.79,1.38,1.38,0,0,0,.88.28,2.71,2.71,0,0,0,1.67-.64,8,8,0,0,0,1.6-1.75,15.94,15.94,0,0,0,1.43-2.58,24.06,24.06,0,0,0,1.14-3.14,28.62,28.62,0,0,0,.77-3.42,21.57,21.57,0,0,0,.28-3.41,16.51,16.51,0,0,0-.17-2.52,4.62,4.62,0,0,0-.64-1.81A2.87,2.87,0,0,0,656,586.4a5.32,5.32,0,0,0-2.13-.36,11.11,11.11,0,0,0-3.61.59,9.38,9.38,0,0,0-3,1.69,8.14,8.14,0,0,0-2.08,2.67,7.89,7.89,0,0,0-.77,3.53,4.31,4.31,0,0,0,.06.78,4.83,4.83,0,0,0,.11.48,2,2,0,0,0,.11.3.48.48,0,0,1,.06.21,4.16,4.16,0,0,1-2.46-.63,2.46,2.46,0,0,1-.88-2.14,5.48,5.48,0,0,1,.5-2.27,8.23,8.23,0,0,1,1.4-2.12,11.82,11.82,0,0,1,2.13-1.85,14.71,14.71,0,0,1,2.71-1.46,17.61,17.61,0,0,1,3.14-1,16.54,16.54,0,0,1,3.4-.35,9.43,9.43,0,0,1,3.66.63,6.13,6.13,0,0,1,2.41,1.75,7,7,0,0,1,1.33,2.67,13.25,13.25,0,0,1,.41,3.39,22.29,22.29,0,0,1-1.23,7.11,20.84,20.84,0,0,1-1.61,3.53,13.22,13.22,0,0,1-2.33,3,10.84,10.84,0,0,1-3.09,2.08,9.41,9.41,0,0,1-3.9.78,7.6,7.6,0,0,1-2.38-.35,4.65,4.65,0,0,1-1.87-1.14,5.27,5.27,0,0,1-1.22-2.05,9.51,9.51,0,0,1-.43-3.07,20.4,20.4,0,0,1,.25-3,25.63,25.63,0,0,1,.75-3.38,24.67,24.67,0,0,1,1.25-3.36,14.55,14.55,0,0,1,1.74-2.92,8.6,8.6,0,0,1,2.23-2,5,5,0,0,1,2.72-.77,7.29,7.29,0,0,1,.84,0A3.7,3.7,0,0,1,655.1,587.63Z"/><path class="cls-2" d="M659.06,617.5l5.51-26h4.75l-.53,2.48a6.58,6.58,0,0,1,1.66-1,5.49,5.49,0,0,1,2.19-.4,4.65,4.65,0,0,1,1.58.27,3.1,3.1,0,0,1,1.28.87,4.32,4.32,0,0,1,.85,1.6,8.29,8.29,0,0,1,.31,2.46,20.52,20.52,0,0,1-.15,2.41,16.38,16.38,0,0,1-.52,2.59,14.27,14.27,0,0,1-1,2.5,8.33,8.33,0,0,1-1.51,2.12,7,7,0,0,1-2.13,1.47,6.81,6.81,0,0,1-2.83.56,5.46,5.46,0,0,1-1.09-.1,3.38,3.38,0,0,1-.8-.26,2,2,0,0,1-.55-.38,2.73,2.73,0,0,1-.36-.44l-1.71,8Zm7.21-11.67a1.19,1.19,0,0,0,.39.51,1.34,1.34,0,0,0,.86.24,2.75,2.75,0,0,0,1.55-.44,4.42,4.42,0,0,0,1.19-1.17,7.56,7.56,0,0,0,.87-1.67,14.65,14.65,0,0,0,.58-1.92,17,17,0,0,0,.33-1.94,16.19,16.19,0,0,0,.1-1.73,5.08,5.08,0,0,0-.18-1.5,2.27,2.27,0,0,0-.43-.82A1.1,1.1,0,0,0,671,595a1.9,1.9,0,0,0-1.7.34,3.57,3.57,0,0,0-1.09,1.22Z"/><path class="cls-2" d="M686.36,591.75q.1,2.14.18,3.71t.17,2.72q.08,1.15.14,2t.12,1.42c0,.41.06.79.08,1.13s0,.69,0,1.05a5.78,5.78,0,0,1-.3,1.92,4.93,4.93,0,0,1-.81,1.47,5.16,5.16,0,0,1-1.17,1.07,6.91,6.91,0,0,1-1.4.72,7.69,7.69,0,0,1-1.49.39,9.05,9.05,0,0,1-1.43.12,5.56,5.56,0,0,1-2.15-.38,4.52,4.52,0,0,1-1.51-1,3.85,3.85,0,0,1-.88-1.35,4.25,4.25,0,0,1-.28-1.5,3.6,3.6,0,0,1,.15-1.07,3.78,3.78,0,0,1,.39-.88,3.14,3.14,0,0,1,.56-.67,2.77,2.77,0,0,1,.65-.44,40.22,40.22,0,0,0,2.33-4.9q1-2.42,1.72-4.87Zm-8.94,12.79a2.73,2.73,0,0,0,.46,1.73,1.88,1.88,0,0,0,1.55.57,3.7,3.7,0,0,0,1.06-.15,2.34,2.34,0,0,0,.92-.52,2.58,2.58,0,0,0,.64-.94,3.79,3.79,0,0,0,.24-1.45q0-.42,0-.81t-.06-.84q0-.44-.09-1l-.13-1.27q-.07-.73-.15-1.67t-.18-2.22a28,28,0,0,1-1.17,3.12q-.68,1.51-1.5,3.11a1.76,1.76,0,0,1,.54.45,1.08,1.08,0,0,1,.22.69,1.87,1.87,0,0,1-.1.6,1.61,1.61,0,0,1-.29.52,1.45,1.45,0,0,1-.46.37,1.3,1.3,0,0,1-.6.14,1.62,1.62,0,0,1-.52-.08A.63.63,0,0,1,677.42,604.54Z"/><path class="cls-2" d="M163.21,340.13a5.27,5.27,0,0,0-1.47,1.41,15,15,0,0,0-1.36,2.24,24.91,24.91,0,0,0-1.18,2.79q-.54,1.51-.93,3.06a29.64,29.64,0,0,0-.61,3.06,19.53,19.53,0,0,0-.22,2.78,9.7,9.7,0,0,0,.11,1.54,4.86,4.86,0,0,0,.34,1.21,2,2,0,0,0,.59.79,1.38,1.38,0,0,0,.88.28,2.71,2.71,0,0,0,1.67-.64,8,8,0,0,0,1.6-1.75,15.9,15.9,0,0,0,1.43-2.58,24.06,24.06,0,0,0,1.14-3.14,28.42,28.42,0,0,0,.76-3.42,21.52,21.52,0,0,0,.28-3.41,16.57,16.57,0,0,0-.17-2.52,4.63,4.63,0,0,0-.64-1.81,2.87,2.87,0,0,0-1.29-1.09,5.31,5.31,0,0,0-2.13-.36,11.1,11.1,0,0,0-3.61.59,9.38,9.38,0,0,0-3,1.69,8.16,8.16,0,0,0-2.09,2.67,7.89,7.89,0,0,0-.77,3.53,4.35,4.35,0,0,0,.06.78,4.68,4.68,0,0,0,.11.48,1.88,1.88,0,0,0,.11.3.48.48,0,0,1,.06.21,4.16,4.16,0,0,1-2.46-.63,2.45,2.45,0,0,1-.88-2.14,5.48,5.48,0,0,1,.5-2.27,8.21,8.21,0,0,1,1.4-2.12,11.83,11.83,0,0,1,2.13-1.85,14.67,14.67,0,0,1,2.71-1.46,17.6,17.6,0,0,1,3.14-1,16.55,16.55,0,0,1,3.4-.35,9.44,9.44,0,0,1,3.66.63,6.12,6.12,0,0,1,2.41,1.75,7,7,0,0,1,1.33,2.67,13.23,13.23,0,0,1,.41,3.39,22.28,22.28,0,0,1-1.23,7.11,20.88,20.88,0,0,1-1.61,3.53,13.25,13.25,0,0,1-2.33,3,10.86,10.86,0,0,1-3.09,2.08,9.41,9.41,0,0,1-3.9.78,7.6,7.6,0,0,1-2.38-.35,4.66,4.66,0,0,1-1.87-1.14,5.27,5.27,0,0,1-1.22-2.05,9.48,9.48,0,0,1-.44-3.07,20.4,20.4,0,0,1,.25-3,25.63,25.63,0,0,1,.75-3.38,24.74,24.74,0,0,1,1.25-3.36,14.51,14.51,0,0,1,1.74-2.92,8.59,8.59,0,0,1,2.23-2,5,5,0,0,1,2.72-.77,7.3,7.3,0,0,1,.84,0A3.71,3.71,0,0,1,163.21,340.13Z"/><path class="cls-2" d="M167.17,370l5.51-26h4.75l-.53,2.48a6.61,6.61,0,0,1,1.66-1,5.5,5.5,0,0,1,2.19-.4,4.65,4.65,0,0,1,1.58.27,3.1,3.1,0,0,1,1.28.87,4.33,4.33,0,0,1,.85,1.6,8.31,8.31,0,0,1,.31,2.46,20.73,20.73,0,0,1-.15,2.41,16.49,16.49,0,0,1-.52,2.59,14.27,14.27,0,0,1-1,2.5,8.36,8.36,0,0,1-1.51,2.12,7,7,0,0,1-2.13,1.47,6.81,6.81,0,0,1-2.83.56,5.46,5.46,0,0,1-1.1-.1,3.38,3.38,0,0,1-.8-.26,2,2,0,0,1-.55-.38,2.7,2.7,0,0,1-.36-.44l-1.71,8Zm7.21-11.67a1.18,1.18,0,0,0,.39.51,1.34,1.34,0,0,0,.86.24,2.75,2.75,0,0,0,1.55-.44,4.42,4.42,0,0,0,1.19-1.17,7.52,7.52,0,0,0,.87-1.67,14.65,14.65,0,0,0,.58-1.92,17,17,0,0,0,.33-1.94,16.19,16.19,0,0,0,.1-1.73,5,5,0,0,0-.18-1.5,2.25,2.25,0,0,0-.43-.82,1.09,1.09,0,0,0-.54-.35,1.9,1.9,0,0,0-1.7.34,3.57,3.57,0,0,0-1.09,1.22Z"/><path class="cls-2" d="M198.61,355.84A18.85,18.85,0,0,1,197,358.1a11.89,11.89,0,0,1-2,1.95,9.94,9.94,0,0,1-2.48,1.38,8.26,8.26,0,0,1-3,.52,7.1,7.1,0,0,1-2.13-.3,4.2,4.2,0,0,1-1.63-.93,4.06,4.06,0,0,1-1-1.62,7,7,0,0,1-.36-2.39,14.41,14.41,0,0,1,.19-2.19,16.78,16.78,0,0,1,.61-2.54,14.4,14.4,0,0,1,1.11-2.56,10.09,10.09,0,0,1,1.67-2.25,7.76,7.76,0,0,1,2.3-1.59,7.17,7.17,0,0,1,3-.6,5.19,5.19,0,0,1,1.81.27,2.92,2.92,0,0,1,1.11.7,2.32,2.32,0,0,1,.56,1,4.55,4.55,0,0,1,.15,1.18,5.78,5.78,0,0,1-.63,2.67,7.09,7.09,0,0,1-1.68,2.15,8.69,8.69,0,0,1-2.42,1.48,9,9,0,0,1-2.85.66q0,.37-.06.7c0,.22,0,.43,0,.62a5.13,5.13,0,0,0,.15,1.38,1.94,1.94,0,0,0,.45.85,1.59,1.59,0,0,0,.74.43,4,4,0,0,0,1,.12,5.76,5.76,0,0,0,1.78-.26,6.22,6.22,0,0,0,1.49-.71,8.33,8.33,0,0,0,1.31-1.06q.62-.61,1.25-1.3Zm-9-2.33a4.4,4.4,0,0,0,1.8-.53,5.48,5.48,0,0,0,1.53-1.22,6,6,0,0,0,1.06-1.71,5.18,5.18,0,0,0,.39-2,2.3,2.3,0,0,0-.18-1,.65.65,0,0,0-.64-.37,1.76,1.76,0,0,0-1.23.6,6.9,6.9,0,0,0-1.14,1.57,13.44,13.44,0,0,0-.94,2.18A19.38,19.38,0,0,0,189.61,353.51Z"/><path class="cls-2" d="M195.47,361.75,199,345.26h4.75l-.35,1.71a6.09,6.09,0,0,1,1.06-1,5,5,0,0,1,1-.55,4.35,4.35,0,0,1,.94-.26,5.77,5.77,0,0,1,.83-.06,4.93,4.93,0,0,1,1.47.21,2.91,2.91,0,0,1,1.93,1.82,4.69,4.69,0,0,1,.27,1.69,9.16,9.16,0,0,1-.12,1.42q-.12.76-.3,1.56t-.38,1.59q-.2.79-.38,1.51t-.3,1.34a5.77,5.77,0,0,0-.12,1.09,1.65,1.65,0,0,0,.28,1,1.21,1.21,0,0,0,1,.39,2,2,0,0,0,1.1-.21,4.44,4.44,0,0,1-.45,1.54,3.61,3.61,0,0,1-.82,1.05,3.06,3.06,0,0,1-1.09.61,4.15,4.15,0,0,1-1.26.19,3.61,3.61,0,0,1-1.59-.31,2.75,2.75,0,0,1-1-.84,3.27,3.27,0,0,1-.55-1.19,5.85,5.85,0,0,1-.16-1.38,9.75,9.75,0,0,1,.23-2q.23-1.12.51-2.29t.51-2.27a9.24,9.24,0,0,0,.23-1.88q0-1.69-1.19-1.69a1.55,1.55,0,0,0-.84.24,2.79,2.79,0,0,0-.71.65,4.87,4.87,0,0,0-.58,1,9.34,9.34,0,0,0-.45,1.18l-2.24,10.58Z"/><path class="cls-2" d="M226.9,356.15a10.21,10.21,0,0,1-1.68,2.59,10.82,10.82,0,0,1-5,3.18,10.39,10.39,0,0,1-2.95.43,7.19,7.19,0,0,1-2.75-.47,5,5,0,0,1-3-3.13,6.83,6.83,0,0,1-.35-2.21,8.94,8.94,0,0,1,.42-2.66,9.88,9.88,0,0,1,1.2-2.54,8.8,8.8,0,0,1,1.92-2.08,6.89,6.89,0,0,1,2.57-1.26,4.63,4.63,0,0,1-1.54-1.81,5.12,5.12,0,0,1-.48-2.15,6.42,6.42,0,0,1,.54-2.54,7.72,7.72,0,0,1,1.5-2.28,7.56,7.56,0,0,1,2.29-1.64,6.71,6.71,0,0,1,2.91-.63,6.24,6.24,0,0,1,1.84.27,4.52,4.52,0,0,1,1.51.78,3.56,3.56,0,0,1,1,1.29,4.17,4.17,0,0,1,.36,1.79,4.63,4.63,0,0,1-.19,1.37,3.59,3.59,0,0,1-.53,1.09,2.6,2.6,0,0,1-.78.72,1.84,1.84,0,0,1-.94.26,1.88,1.88,0,0,1-1.55-.89,1.3,1.3,0,0,0,.56-.4,3.38,3.38,0,0,0,.47-.71,4.07,4.07,0,0,0,.31-.87,3.84,3.84,0,0,0,.11-.9,2.05,2.05,0,0,0-.16-.85,1.65,1.65,0,0,0-.41-.57,1.51,1.51,0,0,0-.58-.31,2.37,2.37,0,0,0-.67-.1,2.45,2.45,0,0,0-1.36.4,3.74,3.74,0,0,0-1.06,1.05,5.34,5.34,0,0,0-.69,1.49,5.94,5.94,0,0,0-.25,1.71,5.46,5.46,0,0,0,.19,1.42,4.14,4.14,0,0,0,.59,1.28,4,4,0,0,0,1,1,4.88,4.88,0,0,0,1.52.68,5.77,5.77,0,0,0-1.67.64,7.54,7.54,0,0,0-1.43,1.07,8.47,8.47,0,0,0-1.17,1.38,10,10,0,0,0-.88,1.57,9.18,9.18,0,0,0-.56,1.63,6.89,6.89,0,0,0-.19,1.58,4.67,4.67,0,0,0,.18,1.3,2.93,2.93,0,0,0,.55,1.06,2.52,2.52,0,0,0,1,.71,3.6,3.6,0,0,0,1.43.26,7.07,7.07,0,0,0,1.63-.21,7.79,7.79,0,0,0,3.28-1.69,5.42,5.42,0,0,0,1.19-1.47Z"/><path class="cls-2" d="M228.62,361.75l4.48-21,4.88-.64-1.55,7.31h.19a3.71,3.71,0,0,0,1.84-.48A5.36,5.36,0,0,0,240,345.7a6.35,6.35,0,0,0,1-1.72,5.07,5.07,0,0,0,.38-1.88,3.71,3.71,0,0,0-.24-1.33,3.1,3.1,0,0,0-.76-1.14,3.71,3.71,0,0,0-1.34-.8,6,6,0,0,0-2-.3,9.07,9.07,0,0,0-2,.22,8.48,8.48,0,0,0-1.9.66,8.72,8.72,0,0,0-1.71,1.1,6.88,6.88,0,0,0-1.39,1.55,7.87,7.87,0,0,0-.93,2,8.33,8.33,0,0,0-.35,2.47,5.84,5.84,0,0,0,.07,1,3.73,3.73,0,0,0,.16.63,2.76,2.76,0,0,0,.16.36.48.48,0,0,1,.07.23,4.34,4.34,0,0,1-2.6-.68,2.72,2.72,0,0,1-.93-2.35,5.77,5.77,0,0,1,.45-2.23,8,8,0,0,1,1.26-2.06,10.65,10.65,0,0,1,1.93-1.79,13.68,13.68,0,0,1,2.45-1.41,14.67,14.67,0,0,1,2.82-.93,14.08,14.08,0,0,1,3.05-.33,9.89,9.89,0,0,1,3.14.44,6.62,6.62,0,0,1,2.18,1.17,4.61,4.61,0,0,1,1.28,1.67,4.82,4.82,0,0,1,.42,2,5.43,5.43,0,0,1-.21,1.48,5.58,5.58,0,0,1-.63,1.42,6.8,6.8,0,0,1-2.46,2.33,4.62,4.62,0,0,1,1.8.7,4.37,4.37,0,0,1,1.21,1.22,5.05,5.05,0,0,1,.68,1.59,7.68,7.68,0,0,1,.21,1.8,12.29,12.29,0,0,1-.15,1.8,13.23,13.23,0,0,1-.49,2.07,12.24,12.24,0,0,1-.89,2.07,7.49,7.49,0,0,1-1.35,1.8,6.42,6.42,0,0,1-1.88,1.27,5.91,5.91,0,0,1-2.46.48,6.76,6.76,0,0,1-1.11-.1,3.11,3.11,0,0,1-1.05-.37,2.33,2.33,0,0,1-.79-.75,2.19,2.19,0,0,1-.31-1.23,4.38,4.38,0,0,1,.1-.89,6.13,6.13,0,0,1,.32-1,4.28,4.28,0,0,0,1.14.93,2.38,2.38,0,0,0,1.08.26,2.16,2.16,0,0,0,1.52-.57,4.28,4.28,0,0,0,1-1.45,7.87,7.87,0,0,0,.56-1.92,12.44,12.44,0,0,0,.17-2,8.29,8.29,0,0,0-.15-1.62,3.91,3.91,0,0,0-.52-1.34,2.69,2.69,0,0,0-1-.91,3,3,0,0,0-1.5-.34l-.63,0a6.74,6.74,0,0,0-.89.1l-2.71,12.63Z"/><path class="cls-2" d="M263.94,341.46a4.08,4.08,0,0,1-.19,1.26,3.14,3.14,0,0,1-.51,1,2.21,2.21,0,0,1-.79.64,2.3,2.3,0,0,1-1,.23,2.41,2.41,0,0,1-1.14-.27,2.59,2.59,0,0,1-.88-.77,3.24,3.24,0,0,0,1-1.2,3.57,3.57,0,0,0,.37-1.6,2.26,2.26,0,0,0-.63-1.68,2.35,2.35,0,0,0-1.72-.62,2.92,2.92,0,0,0-1.22.25,2.78,2.78,0,0,0-1,.69,3.14,3.14,0,0,0-.61,1.05,4,4,0,0,0-.22,1.34,4.21,4.21,0,0,0,.53,2.06,11.12,11.12,0,0,0,1.34,1.9q.8.93,1.74,1.89a20,20,0,0,1,1.74,2,11.27,11.27,0,0,1,1.34,2.35,7.15,7.15,0,0,1,.53,2.79,6.72,6.72,0,0,1-.68,3,7.27,7.27,0,0,1-1.88,2.38,9,9,0,0,1-2.82,1.58,10.45,10.45,0,0,1-3.5.57,9.34,9.34,0,0,1-2.86-.41,6.4,6.4,0,0,1-2.19-1.18,5.3,5.3,0,0,1-1.41-1.83,5.49,5.49,0,0,1-.5-2.37,5.81,5.81,0,0,1,.35-2,5.28,5.28,0,0,1,1-1.65,4.49,4.49,0,0,1,1.45-1.1,4.08,4.08,0,0,1,1.79-.4,3.2,3.2,0,0,1,1.95.58,2.48,2.48,0,0,1,1,1.59,4.72,4.72,0,0,0-1.56.24,3.41,3.41,0,0,0-1.18.68,3,3,0,0,0-.75,1.05,3.51,3.51,0,0,0-.27,1.39,2.92,2.92,0,0,0,3.12,3.14,4.09,4.09,0,0,0,1.61-.31,3.85,3.85,0,0,0,1.27-.86,4,4,0,0,0,.84-1.3,4.35,4.35,0,0,0,.31-1.64,5.08,5.08,0,0,0-.3-1.73,8.07,8.07,0,0,0-.8-1.61,15.44,15.44,0,0,0-1.13-1.54l-1.29-1.52q-.66-.76-1.29-1.54a14.64,14.64,0,0,1-1.13-1.59,8.39,8.39,0,0,1-.8-1.68,5.62,5.62,0,0,1-.3-1.84,5.28,5.28,0,0,1,.56-2.41,5.81,5.81,0,0,1,1.55-1.91,7.49,7.49,0,0,1,2.34-1.26,9.1,9.1,0,0,1,2.95-.46,8.25,8.25,0,0,1,2.42.33,5.57,5.57,0,0,1,1.84.93,4.2,4.2,0,0,1,1.18,1.46A4.26,4.26,0,0,1,263.94,341.46Z"/><path class="cls-1" d="M604.3,264.61l17.38,3.7a18.45,18.45,0,0,0-1-2c-5.15-7.25-5.29-15.09-2.67-23.22,1.09-3.39,2.5-6.68,3.41-10.11.86-3.2,1.26-6.53,1.84-9.69,1.49.57,3.12,2.87,4,6.81.62,2.82.93,5.7,1.51,9.42.86-1.48,1.37-2.23,1.75-3.05a38.08,38.08,0,0,0,3.31-15.56c.1-4.88,1.67-9.19,6.57-12.61-2,4.59-.42,8.22,1.12,11.63,3.36,7.44,4.82,15.24,5.39,23.28a1.62,1.62,0,0,0,.51,1c1.49-8.45,1.37-17.33,6.79-24.71-.92,6.86,2.19,12.44,5.09,18.2,4.82,9.56,5.66,19.22-.62,28.64a20.69,20.69,0,0,0-.94,1.88l19.16-3.79a36.4,36.4,0,0,1-7.69,13.17,4.24,4.24,0,0,1-2.83,1.07q-26.09.09-52.17,0a3.5,3.5,0,0,1-2.55-1c-2.81-4.06-5.45-8.24-8.15-12.39Z"/><path class="cls-1" d="M612.68,284.76h55.45c0,2.76.13,5.49-.11,8.18,0,.52-1.51,1.3-2.32,1.31-7.21.1-14.43.06-21.65.06-9.44,0-18.89-.06-28.33,0-2.27,0-3.29-.55-3.08-3C612.82,289.27,612.68,287.14,612.68,284.76Z"/><path class="cls-1" d="M623.8,299.77h32.88c1.14,4.3-4.36,11.9-13.56,13C631.75,314.2,623.7,306.8,623.8,299.77Z"/><path class="cls-1" d="M572.32,370.5l4.48-21,4.88-.64-2.33,11a4.09,4.09,0,0,0,1.59-.45,6.18,6.18,0,0,0,1.39-1,7.59,7.59,0,0,0,1.16-1.39,10,10,0,0,0,.88-1.67,10.19,10.19,0,0,0,.56-1.8,8.89,8.89,0,0,0,.19-1.81,6.24,6.24,0,0,0-.23-1.73,4.12,4.12,0,0,0-.72-1.43,3.37,3.37,0,0,0-1.27-1,4.47,4.47,0,0,0-1.86-.35,11,11,0,0,0-3.6.55,7.35,7.35,0,0,0-2.68,1.58,6.78,6.78,0,0,0-1.67,2.52,9.24,9.24,0,0,0-.58,3.37,5.85,5.85,0,0,0,.07,1,4.49,4.49,0,0,0,.15.63,2.26,2.26,0,0,0,.15.36.48.48,0,0,1,.07.23,6.15,6.15,0,0,1-1.51-.17,2.76,2.76,0,0,1-1.1-.54,2.33,2.33,0,0,1-.68-1,4.27,4.27,0,0,1-.23-1.51,5.24,5.24,0,0,1,.48-2.16,8,8,0,0,1,1.3-2,11.42,11.42,0,0,1,1.95-1.76,14.38,14.38,0,0,1,5.07-2.31,12,12,0,0,1,2.78-.33,10.14,10.14,0,0,1,3.49.54,7,7,0,0,1,2.42,1.44,5.59,5.59,0,0,1,1.41,2.07,6.72,6.72,0,0,1,.45,2.44,8.21,8.21,0,0,1-.65,3.16,8.94,8.94,0,0,1-1.88,2.84,9.56,9.56,0,0,1-7,2.84h-.18l-2,9.4Z"/><path class="cls-1" d="M586.1,370.5,589.6,354h4.75l-.42,2,.89-.76a6.91,6.91,0,0,1,.94-.65,5.64,5.64,0,0,1,1-.46,3.54,3.54,0,0,1,1.13-.18,2.17,2.17,0,0,1,1.71.76,2.26,2.26,0,0,1,.44.79,3,3,0,0,1,.14.93,2.67,2.67,0,0,1-.14.86,2.24,2.24,0,0,1-.44.77,2.35,2.35,0,0,1-.75.55,2.38,2.38,0,0,1-1,.22,1.32,1.32,0,0,1-.72-.16,1.08,1.08,0,0,1-.38-.4,1.88,1.88,0,0,1-.19-.52q-.06-.28-.12-.52a1.4,1.4,0,0,0-.17-.4.38.38,0,0,0-.35-.16,2.23,2.23,0,0,0-1.27.35,9.64,9.64,0,0,0-1.13.91l-2.64,12.53Z"/><path class="cls-1" d="M617.53,358a8.09,8.09,0,0,1-2.5,1.72,13.1,13.1,0,0,1-3.35,1,15.54,15.54,0,0,1-.88,4.12,11,11,0,0,1-1.73,3.12,7.49,7.49,0,0,1-2.4,2,6.2,6.2,0,0,1-2.87.69,7.57,7.57,0,0,1-2.12-.28,4.28,4.28,0,0,1-1.67-.9,4.16,4.16,0,0,1-1.09-1.61,6.51,6.51,0,0,1-.39-2.41,13.78,13.78,0,0,1,.2-2.2,15.82,15.82,0,0,1,.64-2.54,15.12,15.12,0,0,1,1.14-2.55,9.81,9.81,0,0,1,1.71-2.23,8.19,8.19,0,0,1,2.33-1.59,7.17,7.17,0,0,1,3-.6q4.23,0,4.23,5.27v0a.41.41,0,0,0,.15,0h.2a5.13,5.13,0,0,0,1.25-.17,10.45,10.45,0,0,0,1.34-.44,11.41,11.41,0,0,0,1.32-.64q.64-.36,1.18-.73ZM609,360.8a1,1,0,0,1-.7-.51,2,2,0,0,1-.19-.88,2.08,2.08,0,0,1,.28-1.13,1.69,1.69,0,0,1,.75-.65,5.82,5.82,0,0,0-.11-.89,1.91,1.91,0,0,0-.23-.6.82.82,0,0,0-.36-.33,1.37,1.37,0,0,0-.56-.1,1.76,1.76,0,0,0-1.14.46,5.39,5.39,0,0,0-1,1.22,11.05,11.05,0,0,0-.9,1.73,17,17,0,0,0-.7,2,18.18,18.18,0,0,0-.45,2,11.65,11.65,0,0,0-.16,1.83,8.15,8.15,0,0,0,.09,1.34,2.07,2.07,0,0,0,.29.81,1,1,0,0,0,.52.41,2.4,2.4,0,0,0,.79.11,1.84,1.84,0,0,0,1.2-.53,5.51,5.51,0,0,0,1.12-1.45,11.52,11.52,0,0,0,.91-2.17A16.14,16.14,0,0,0,609,360.8Z"/><path class="cls-1" d="M638.9,364.59a14.41,14.41,0,0,1-1.49,3.24,7.72,7.72,0,0,1-1.61,1.84,4.3,4.3,0,0,1-1.59.83,6,6,0,0,1-1.44.19,4.7,4.7,0,0,1-1.84-.31,3.17,3.17,0,0,1-1.19-.84,3.23,3.23,0,0,1-.65-1.19,4.74,4.74,0,0,1-.2-1.38,9.75,9.75,0,0,1,.23-2q.23-1.12.51-2.29t.51-2.27a9.27,9.27,0,0,0,.23-1.88q0-1.69-1.19-1.69a1.55,1.55,0,0,0-.84.24,2.78,2.78,0,0,0-.71.65,4.89,4.89,0,0,0-.58,1,9.42,9.42,0,0,0-.45,1.18l-2.24,10.58h-4.75L622,359.11a3.37,3.37,0,0,0,.1-.82,3,3,0,0,0,0-.55,1.4,1.4,0,0,0-.17-.46,1,1,0,0,0-.31-.32.85.85,0,0,0-.48-.12,1.73,1.73,0,0,0-.89.24,2.68,2.68,0,0,0-.74.66,4.78,4.78,0,0,0-.59,1,9.75,9.75,0,0,0-.45,1.19l-2.24,10.58h-4.75L615,354h4.75l-.35,1.71a5.93,5.93,0,0,1,1.06-1,5.32,5.32,0,0,1,1-.56,4.63,4.63,0,0,1,1-.27,6.26,6.26,0,0,1,.92-.07,4.62,4.62,0,0,1,1.21.15,2.82,2.82,0,0,1,1,.49,2.92,2.92,0,0,1,.74.88,4,4,0,0,1,.44,1.31,7.14,7.14,0,0,1,1.22-1.47,5.54,5.54,0,0,1,1.22-.85,4.38,4.38,0,0,1,1.14-.39,5.78,5.78,0,0,1,1-.1,4.85,4.85,0,0,1,1.46.21,2.92,2.92,0,0,1,1.92,1.82,4.69,4.69,0,0,1,.27,1.69,9.16,9.16,0,0,1-.12,1.42q-.12.76-.29,1.56t-.38,1.59q-.21.79-.38,1.51t-.29,1.34a5.81,5.81,0,0,0-.12,1.09,1.65,1.65,0,0,0,.28,1,1.21,1.21,0,0,0,1,.39,2,2,0,0,0,.93-.21,2.37,2.37,0,0,0,.72-.6,4.6,4.6,0,0,0,.59-.93q.27-.54.52-1.18Z"/><path class="cls-1" d="M650.54,364.59a18.79,18.79,0,0,1-1.59,2.25,11.87,11.87,0,0,1-2,1.95,10,10,0,0,1-2.48,1.38,8.26,8.26,0,0,1-3,.52,7.1,7.1,0,0,1-2.13-.3,4.2,4.2,0,0,1-1.63-.93,4.06,4.06,0,0,1-1-1.62,7,7,0,0,1-.36-2.39,14.41,14.41,0,0,1,.19-2.19,16.78,16.78,0,0,1,.61-2.54,14.4,14.4,0,0,1,1.11-2.56,10.09,10.09,0,0,1,1.67-2.25,7.76,7.76,0,0,1,2.3-1.59,7.16,7.16,0,0,1,3-.6A5.19,5.19,0,0,1,647,354a2.92,2.92,0,0,1,1.11.7,2.32,2.32,0,0,1,.56,1,4.49,4.49,0,0,1,.15,1.18,5.77,5.77,0,0,1-.63,2.67,7.08,7.08,0,0,1-1.68,2.15,8.69,8.69,0,0,1-2.42,1.48,9,9,0,0,1-2.85.66q0,.37-.06.7c0,.22,0,.43,0,.62a5.09,5.09,0,0,0,.15,1.38,2,2,0,0,0,.45.85,1.6,1.6,0,0,0,.74.43,4,4,0,0,0,1,.12,5.76,5.76,0,0,0,1.78-.26,6.21,6.21,0,0,0,1.49-.71,8.29,8.29,0,0,0,1.31-1.06q.62-.61,1.25-1.3Zm-9-2.33a4.41,4.41,0,0,0,1.8-.53,5.47,5.47,0,0,0,1.53-1.22,6,6,0,0,0,1.05-1.71,5.16,5.16,0,0,0,.39-2,2.28,2.28,0,0,0-.18-1,.65.65,0,0,0-.64-.37,1.76,1.76,0,0,0-1.23.6,6.9,6.9,0,0,0-1.13,1.57,13.48,13.48,0,0,0-.94,2.18A19.38,19.38,0,0,0,641.54,362.25Z"/><path class="cls-1" d="M658.85,364.59a13.45,13.45,0,0,1-1,2.32,9.57,9.57,0,0,1-1.19,1.66,6.47,6.47,0,0,1-2.54,1.74,5.78,5.78,0,0,1-1.17.31,7,7,0,0,1-1,.08,4.16,4.16,0,0,1-1.38-.23,2.88,2.88,0,0,1-1.12-.71,3.39,3.39,0,0,1-.75-1.22,5.19,5.19,0,0,1-.27-1.79,8.39,8.39,0,0,1,.06-1q.06-.54.19-1.17l2-9.26h-1.09l.27-1.32h1.08l1-4.56,4.88-.66L655.64,354h2l-.26,1.32h-2l-2.11,9.89a2.85,2.85,0,0,0-.1.54c0,.18,0,.35,0,.52a1.19,1.19,0,0,0,.32,1,1.59,1.59,0,0,0,1,.27,2.17,2.17,0,0,0,.94-.22,3,3,0,0,0,.85-.6,4.34,4.34,0,0,0,.69-.93,5.88,5.88,0,0,0,.5-1.17Z"/><path class="cls-1" d="M674.74,364.59a14.43,14.43,0,0,1-1.49,3.24,7.72,7.72,0,0,1-1.61,1.84,4.3,4.3,0,0,1-1.59.83,6,6,0,0,1-1.44.19,4.7,4.7,0,0,1-1.84-.31,3.16,3.16,0,0,1-1.19-.84,3.22,3.22,0,0,1-.65-1.19,4.73,4.73,0,0,1-.2-1.38,9.71,9.71,0,0,1,.23-2q.23-1.12.51-2.29t.51-2.27a9.27,9.27,0,0,0,.23-1.88q0-1.69-1.19-1.69a1.55,1.55,0,0,0-.84.24,2.77,2.77,0,0,0-.71.65,4.89,4.89,0,0,0-.58,1,9.42,9.42,0,0,0-.45,1.18L660.2,370.5h-4.75l4.78-22.43,4.88-.66-1.77,8.31a6,6,0,0,1,1.05-1,5,5,0,0,1,1-.55,4.35,4.35,0,0,1,.94-.26,5.79,5.79,0,0,1,.83-.06,4.93,4.93,0,0,1,1.46.21,2.91,2.91,0,0,1,1.93,1.82,4.69,4.69,0,0,1,.27,1.69,9.21,9.21,0,0,1-.12,1.42q-.12.76-.3,1.56t-.38,1.59q-.2.79-.38,1.51t-.3,1.34a5.73,5.73,0,0,0-.12,1.09,1.65,1.65,0,0,0,.28,1,1.21,1.21,0,0,0,1,.39,2,2,0,0,0,.93-.21,2.36,2.36,0,0,0,.72-.6,4.58,4.58,0,0,0,.59-.93q.27-.54.52-1.18Z"/><path class="cls-1" d="M686.38,364.59a18.91,18.91,0,0,1-1.59,2.25,11.87,11.87,0,0,1-2,1.95,10,10,0,0,1-2.48,1.38,8.26,8.26,0,0,1-3,.52,7.09,7.09,0,0,1-2.12-.3,4.2,4.2,0,0,1-1.63-.93,4.07,4.07,0,0,1-1-1.62,7,7,0,0,1-.36-2.39,14.42,14.42,0,0,1,.19-2.19,16.77,16.77,0,0,1,.61-2.54,14.4,14.4,0,0,1,1.11-2.56,10.09,10.09,0,0,1,1.67-2.25,7.75,7.75,0,0,1,2.3-1.59,7.17,7.17,0,0,1,3-.6,5.2,5.2,0,0,1,1.81.27,2.91,2.91,0,0,1,1.11.7,2.31,2.31,0,0,1,.56,1,4.53,4.53,0,0,1,.15,1.18,5.78,5.78,0,0,1-.63,2.67,7.1,7.1,0,0,1-1.68,2.15,8.69,8.69,0,0,1-2.42,1.48,9,9,0,0,1-2.85.66q0,.37-.06.7c0,.22,0,.43,0,.62a5.13,5.13,0,0,0,.15,1.38,2,2,0,0,0,.45.85,1.6,1.6,0,0,0,.74.43,4,4,0,0,0,1,.12,5.76,5.76,0,0,0,1.78-.26,6.23,6.23,0,0,0,1.49-.71,8.33,8.33,0,0,0,1.31-1.06q.62-.61,1.25-1.3Zm-9-2.33a4.4,4.4,0,0,0,1.8-.53,5.49,5.49,0,0,0,1.53-1.22,6,6,0,0,0,1.05-1.71,5.18,5.18,0,0,0,.39-2,2.3,2.3,0,0,0-.18-1,.65.65,0,0,0-.64-.37,1.76,1.76,0,0,0-1.23.6,6.93,6.93,0,0,0-1.13,1.57,13.48,13.48,0,0,0-.94,2.18A19.39,19.39,0,0,0,677.38,362.25Z"/><path class="cls-1" d="M702.53,364.59a14.82,14.82,0,0,1-1,2.32,9.76,9.76,0,0,1-1.13,1.66,6.38,6.38,0,0,1-1.2,1.1,5.9,5.9,0,0,1-1.19.64,5.24,5.24,0,0,1-1.11.31,6.49,6.49,0,0,1-1,.08,3.17,3.17,0,0,1-2.25-.78,3.64,3.64,0,0,1-1-2.34,8.16,8.16,0,0,1-1.27,1.63,6,6,0,0,1-1.27,1,4.08,4.08,0,0,1-1.22.44,6.49,6.49,0,0,1-1.11.1,4.16,4.16,0,0,1-1.38-.23,2.88,2.88,0,0,1-1.12-.71,3.39,3.39,0,0,1-.75-1.22,5.19,5.19,0,0,1-.27-1.79,8.39,8.39,0,0,1,.06-1q.06-.54.19-1.17L686.73,354h4.75l-2.37,11.21a5.19,5.19,0,0,0-.1.93,2,2,0,0,0,.21,1,.79.79,0,0,0,.77.39,1.83,1.83,0,0,0,.89-.22,2.57,2.57,0,0,0,.73-.6,4,4,0,0,0,.58-.93,9.17,9.17,0,0,0,.44-1.17L694.88,354h4.75l-2.37,11.21a3.32,3.32,0,0,0-.11.54,4.34,4.34,0,0,0,0,.52,1.17,1.17,0,0,0,.33,1,1.62,1.62,0,0,0,1,.27,1.87,1.87,0,0,0,.89-.22,2.63,2.63,0,0,0,.75-.6,4,4,0,0,0,.6-.93,7.29,7.29,0,0,0,.43-1.17Z"/><path class="cls-1" d="M710,353q.1,2.14.18,3.71t.17,2.72q.08,1.15.14,2t.12,1.42c0,.41.06.79.08,1.13s0,.69,0,1.05a5.78,5.78,0,0,1-.3,1.92,4.93,4.93,0,0,1-.81,1.47,5.16,5.16,0,0,1-1.17,1.07,6.91,6.91,0,0,1-1.4.72,7.69,7.69,0,0,1-1.49.39,9.05,9.05,0,0,1-1.43.12,5.56,5.56,0,0,1-2.15-.38,4.52,4.52,0,0,1-1.51-1,3.85,3.85,0,0,1-.88-1.35,4.25,4.25,0,0,1-.28-1.5,3.6,3.6,0,0,1,.15-1.07,3.78,3.78,0,0,1,.39-.88,3.14,3.14,0,0,1,.56-.67,2.77,2.77,0,0,1,.65-.44,40.22,40.22,0,0,0,2.33-4.9q1-2.42,1.72-4.87Zm-8.94,12.79a2.73,2.73,0,0,0,.46,1.73,1.88,1.88,0,0,0,1.55.57,3.7,3.7,0,0,0,1.06-.15,2.34,2.34,0,0,0,.92-.52,2.58,2.58,0,0,0,.64-.94A3.79,3.79,0,0,0,706,365q0-.42,0-.81t-.06-.84q0-.44-.09-1l-.13-1.27q-.07-.73-.15-1.67t-.18-2.22a28,28,0,0,1-1.17,3.12q-.68,1.51-1.5,3.11a1.76,1.76,0,0,1,.54.45,1.08,1.08,0,0,1,.22.69,1.87,1.87,0,0,1-.1.6,1.61,1.61,0,0,1-.29.52,1.45,1.45,0,0,1-.46.37,1.3,1.3,0,0,1-.6.14,1.62,1.62,0,0,1-.52-.08A.63.63,0,0,1,701.08,365.78Z"/><path class="cls-3" d="M141.46,609.35l4.77-22.43a7.36,7.36,0,0,0-3.4,2.75,8,8,0,0,0-1.21,4.48,5.85,5.85,0,0,0,.07,1,4.49,4.49,0,0,0,.15.63,2.26,2.26,0,0,0,.15.36.48.48,0,0,1,.07.23,6.15,6.15,0,0,1-1.51-.17,2.76,2.76,0,0,1-1.1-.54,2.33,2.33,0,0,1-.68-1,4.27,4.27,0,0,1-.23-1.51A5.24,5.24,0,0,1,139,591a8,8,0,0,1,1.3-2,11.42,11.42,0,0,1,1.95-1.76,14.38,14.38,0,0,1,5.07-2.31,12,12,0,0,1,2.78-.33l.68,0,.64,0-2.14,10.1.93-1.24,1.13-1.51,1.24-1.65,1.23-1.66,1.14-1.53.94-1.26q.4-.54.89-1.15h3.46l-9.16,10.56.6,0,.55,0a6.36,6.36,0,0,1,2,.27,3.14,3.14,0,0,1,1.26.74,2.59,2.59,0,0,1,.65,1.12,5.05,5.05,0,0,1,.19,1.4,10.08,10.08,0,0,1-.25,2.17q-.25,1.14-.56,2.25t-.56,2.13a7.65,7.65,0,0,0-.25,1.8,2.63,2.63,0,0,0,.35,1.36,1.82,1.82,0,0,0,.94.81,16,16,0,0,1-1.87.43,9,9,0,0,1-1.4.13,3.55,3.55,0,0,1-1.3-.2,2.06,2.06,0,0,1-.78-.52,1.7,1.7,0,0,1-.39-.71,3,3,0,0,1-.1-.78,8.18,8.18,0,0,1,.27-1.94q.27-1.1.6-2.29t.6-2.34a9.26,9.26,0,0,0,.27-2.11,3.68,3.68,0,0,0-.1-.91,2,2,0,0,0-.33-.71,1.45,1.45,0,0,0-.61-.46,2.43,2.43,0,0,0-.93-.16l-.51,0a3.43,3.43,0,0,0-.59.1l-2.64,12.43Z"/><path class="cls-3" d="M175.46,603.44a14.87,14.87,0,0,1-1,2.32,9.82,9.82,0,0,1-1.14,1.66,6.41,6.41,0,0,1-1.2,1.1,5.93,5.93,0,0,1-1.19.64,5.23,5.23,0,0,1-1.11.31,6.5,6.5,0,0,1-1,.08,3.17,3.17,0,0,1-2.25-.78,3.65,3.65,0,0,1-1-2.34A8.16,8.16,0,0,1,164.3,608a6,6,0,0,1-1.27,1,4.1,4.1,0,0,1-1.22.44,6.49,6.49,0,0,1-1.11.1,4.16,4.16,0,0,1-1.38-.23,2.88,2.88,0,0,1-1.12-.71,3.38,3.38,0,0,1-.75-1.22,5.16,5.16,0,0,1-.27-1.79,8.5,8.5,0,0,1,.06-1q.06-.54.19-1.17l2.24-10.58h4.75L162,604.07a5.11,5.11,0,0,0-.1.93,2,2,0,0,0,.21,1,.79.79,0,0,0,.77.39,1.83,1.83,0,0,0,.89-.22,2.57,2.57,0,0,0,.73-.6,4,4,0,0,0,.58-.93,9.17,9.17,0,0,0,.44-1.17l2.24-10.58h4.75l-2.37,11.21a3.27,3.27,0,0,0-.11.54,4.24,4.24,0,0,0,0,.52,1.17,1.17,0,0,0,.33,1,1.62,1.62,0,0,0,1,.27,1.87,1.87,0,0,0,.89-.22,2.62,2.62,0,0,0,.75-.6,4.06,4.06,0,0,0,.6-.93,7.34,7.34,0,0,0,.43-1.17Z"/><path class="cls-3" d="M176.84,586.92l4.88-.66-1.58,7.42a9.17,9.17,0,0,1,.89-.49,5.36,5.36,0,0,1,.72-.28,3,3,0,0,1,.59-.12l.51,0a4.19,4.19,0,0,1,1.59.29,2.93,2.93,0,0,1,1.23,1,4.84,4.84,0,0,1,.8,1.75,10.59,10.59,0,0,1,.28,2.64,14.32,14.32,0,0,1-.19,2.17A14.6,14.6,0,0,1,186,603a12.89,12.89,0,0,1-1.11,2.42,9.11,9.11,0,0,1-1.69,2.09A7.82,7.82,0,0,1,180.8,609a8.13,8.13,0,0,1-3.11.56,4.8,4.8,0,0,1-3.45-1.11,4.1,4.1,0,0,1-1.16-3.11,9.3,9.3,0,0,1,0-.94,5.72,5.72,0,0,1,.18-.94Zm1.06,17.15a3.4,3.4,0,0,0-.1.76q0,1.53,1.74,1.53a1.74,1.74,0,0,0,1-.36,4.1,4.1,0,0,0,.93-1,8,8,0,0,0,.78-1.42,13,13,0,0,0,.6-1.71,14.83,14.83,0,0,0,.39-1.83,12.49,12.49,0,0,0,.14-1.8,6.51,6.51,0,0,0-.1-1.17,4,4,0,0,0-.32-1,2,2,0,0,0-.55-.72,1.21,1.21,0,0,0-.78-.27l-.45,0a3.77,3.77,0,0,0-.56.1,3.22,3.22,0,0,0-.54.19,1.06,1.06,0,0,0-.39.29Z"/><path class="cls-3" d="M201,603.44a18.85,18.85,0,0,1-1.59,2.25,11.89,11.89,0,0,1-2,1.95A9.94,9.94,0,0,1,194.9,609a8.26,8.26,0,0,1-3,.52,7.1,7.1,0,0,1-2.13-.3,4.2,4.2,0,0,1-1.63-.93,4.06,4.06,0,0,1-1-1.62,7,7,0,0,1-.36-2.39,14.41,14.41,0,0,1,.19-2.19,16.78,16.78,0,0,1,.61-2.54,14.4,14.4,0,0,1,1.11-2.56,10.09,10.09,0,0,1,1.67-2.25,7.76,7.76,0,0,1,2.3-1.59,7.17,7.17,0,0,1,3-.6,5.19,5.19,0,0,1,1.81.27,2.92,2.92,0,0,1,1.11.7,2.32,2.32,0,0,1,.56,1,4.55,4.55,0,0,1,.15,1.18,5.78,5.78,0,0,1-.63,2.67,7.09,7.09,0,0,1-1.68,2.15,8.69,8.69,0,0,1-2.42,1.48,9,9,0,0,1-2.85.66q0,.37-.06.7c0,.22,0,.43,0,.62a5.13,5.13,0,0,0,.15,1.38,1.94,1.94,0,0,0,.45.85,1.59,1.59,0,0,0,.74.43,4,4,0,0,0,1,.12,5.76,5.76,0,0,0,1.78-.26,6.22,6.22,0,0,0,1.49-.71,8.33,8.33,0,0,0,1.31-1.06q.62-.61,1.25-1.3Zm-9-2.33a4.4,4.4,0,0,0,1.8-.53,5.48,5.48,0,0,0,1.53-1.22,6,6,0,0,0,1.06-1.71,5.18,5.18,0,0,0,.39-2,2.3,2.3,0,0,0-.18-1,.65.65,0,0,0-.64-.37,1.76,1.76,0,0,0-1.23.6,6.9,6.9,0,0,0-1.14,1.57,13.44,13.44,0,0,0-.94,2.18A19.38,19.38,0,0,0,192,601.11Z"/><path class="cls-3" d="M197.83,609.35l3.49-16.49h4.75l-.42,2,.89-.76a6.91,6.91,0,0,1,.94-.65,5.64,5.64,0,0,1,1-.46,3.54,3.54,0,0,1,1.13-.18,2.17,2.17,0,0,1,1.71.76,2.26,2.26,0,0,1,.44.79,3,3,0,0,1,.14.93,2.67,2.67,0,0,1-.14.86,2.24,2.24,0,0,1-.44.77,2.35,2.35,0,0,1-.75.55,2.38,2.38,0,0,1-1,.22,1.32,1.32,0,0,1-.72-.16,1.08,1.08,0,0,1-.38-.4,1.88,1.88,0,0,1-.19-.52q-.06-.28-.12-.52a1.4,1.4,0,0,0-.17-.4.38.38,0,0,0-.35-.16,2.23,2.23,0,0,0-1.27.35,9.64,9.64,0,0,0-1.13.91l-2.64,12.53Z"/><path class="cls-3" d="M228.77,603.44a14.43,14.43,0,0,1-1.49,3.24,7.72,7.72,0,0,1-1.61,1.84,4.31,4.31,0,0,1-1.59.83,6,6,0,0,1-1.44.19,4.7,4.7,0,0,1-1.84-.31,3.17,3.17,0,0,1-1.19-.84,3.23,3.23,0,0,1-.65-1.19,4.74,4.74,0,0,1-.2-1.38,9.75,9.75,0,0,1,.23-2q.23-1.12.51-2.29t.51-2.27a9.24,9.24,0,0,0,.23-1.88q0-1.69-1.19-1.69a1.55,1.55,0,0,0-.84.24,2.79,2.79,0,0,0-.71.65,4.87,4.87,0,0,0-.58,1,9.34,9.34,0,0,0-.45,1.18l-2.24,10.58h-4.75L213,592.86h4.75l-.35,1.71a6.09,6.09,0,0,1,1.06-1,5,5,0,0,1,1-.55,4.35,4.35,0,0,1,.94-.26,5.77,5.77,0,0,1,.83-.06,4.93,4.93,0,0,1,1.47.21,2.91,2.91,0,0,1,1.93,1.82,4.69,4.69,0,0,1,.27,1.69,9.16,9.16,0,0,1-.12,1.42q-.12.76-.3,1.56t-.38,1.59q-.2.79-.38,1.51t-.3,1.34a5.77,5.77,0,0,0-.12,1.09,1.65,1.65,0,0,0,.28,1,1.21,1.21,0,0,0,1,.39,2,2,0,0,0,.93-.21,2.37,2.37,0,0,0,.72-.6,4.62,4.62,0,0,0,.59-.93q.27-.54.52-1.18Z"/><path class="cls-3" d="M240.41,603.44a18.85,18.85,0,0,1-1.59,2.25,11.89,11.89,0,0,1-2,1.95,9.94,9.94,0,0,1-2.48,1.38,8.26,8.26,0,0,1-3,.52,7.1,7.1,0,0,1-2.13-.3,4.2,4.2,0,0,1-1.63-.93,4.06,4.06,0,0,1-1-1.62,7,7,0,0,1-.36-2.39,14.41,14.41,0,0,1,.19-2.19,16.78,16.78,0,0,1,.61-2.54A14.4,14.4,0,0,1,228.1,597a10.09,10.09,0,0,1,1.67-2.25,7.76,7.76,0,0,1,2.3-1.59,7.17,7.17,0,0,1,3-.6,5.19,5.19,0,0,1,1.81.27,2.92,2.92,0,0,1,1.11.7,2.32,2.32,0,0,1,.56,1,4.55,4.55,0,0,1,.15,1.18,5.78,5.78,0,0,1-.63,2.67,7.09,7.09,0,0,1-1.68,2.15A8.69,8.69,0,0,1,234,602a9,9,0,0,1-2.85.66q0,.37-.06.7c0,.22,0,.43,0,.62a5.13,5.13,0,0,0,.15,1.38,1.94,1.94,0,0,0,.45.85,1.59,1.59,0,0,0,.74.43,4,4,0,0,0,1,.12,5.76,5.76,0,0,0,1.78-.26,6.22,6.22,0,0,0,1.49-.71,8.33,8.33,0,0,0,1.31-1.06q.62-.61,1.25-1.3Zm-9-2.33a4.4,4.4,0,0,0,1.8-.53,5.48,5.48,0,0,0,1.53-1.22,6,6,0,0,0,1.06-1.71,5.18,5.18,0,0,0,.39-2,2.3,2.3,0,0,0-.18-1,.65.65,0,0,0-.64-.37,1.76,1.76,0,0,0-1.23.6,6.9,6.9,0,0,0-1.14,1.57,13.44,13.44,0,0,0-.94,2.18A19.38,19.38,0,0,0,231.41,601.11Z"/><path class="cls-3" d="M248.71,603.44a13.45,13.45,0,0,1-1,2.32,9.59,9.59,0,0,1-1.19,1.66,6.46,6.46,0,0,1-2.54,1.74,5.8,5.8,0,0,1-1.17.31,7,7,0,0,1-1,.08,4.16,4.16,0,0,1-1.38-.23,2.88,2.88,0,0,1-1.12-.71,3.38,3.38,0,0,1-.75-1.22,5.16,5.16,0,0,1-.27-1.79,8.5,8.5,0,0,1,.06-1q.06-.54.19-1.17l2-9.26h-1.09l.27-1.32h1.08l1-4.56,4.88-.66-1.13,5.22h2l-.26,1.32h-2l-2.11,9.89a2.81,2.81,0,0,0-.1.54c0,.18,0,.35,0,.52a1.19,1.19,0,0,0,.32,1,1.58,1.58,0,0,0,1,.27,2.17,2.17,0,0,0,.94-.22,3,3,0,0,0,.85-.6,4.31,4.31,0,0,0,.69-.93,5.83,5.83,0,0,0,.5-1.17Z"/><path class="cls-3" d="M260.35,603.44a18.85,18.85,0,0,1-1.59,2.25,11.89,11.89,0,0,1-2,1.95,9.94,9.94,0,0,1-2.48,1.38,8.26,8.26,0,0,1-3,.52,7.1,7.1,0,0,1-2.13-.3,4.2,4.2,0,0,1-1.63-.93,4.06,4.06,0,0,1-1-1.62,7,7,0,0,1-.36-2.39,14.41,14.41,0,0,1,.19-2.19,16.78,16.78,0,0,1,.61-2.54,14.4,14.4,0,0,1,1.11-2.56,10.09,10.09,0,0,1,1.67-2.25,7.76,7.76,0,0,1,2.3-1.59,7.17,7.17,0,0,1,3-.6,5.19,5.19,0,0,1,1.81.27,2.92,2.92,0,0,1,1.11.7,2.32,2.32,0,0,1,.56,1,4.55,4.55,0,0,1,.15,1.18,5.78,5.78,0,0,1-.63,2.67,7.09,7.09,0,0,1-1.68,2.15,8.69,8.69,0,0,1-2.42,1.48,9,9,0,0,1-2.85.66q0,.37-.06.7c0,.22,0,.43,0,.62a5.13,5.13,0,0,0,.15,1.38,1.94,1.94,0,0,0,.45.85,1.59,1.59,0,0,0,.74.43,4,4,0,0,0,1,.12,5.76,5.76,0,0,0,1.78-.26,6.22,6.22,0,0,0,1.49-.71,8.33,8.33,0,0,0,1.31-1.06q.62-.61,1.25-1.3Zm-9-2.33a4.4,4.4,0,0,0,1.8-.53,5.48,5.48,0,0,0,1.53-1.22,6,6,0,0,0,1.06-1.71,5.18,5.18,0,0,0,.39-2,2.3,2.3,0,0,0-.18-1,.65.65,0,0,0-.64-.37,1.76,1.76,0,0,0-1.23.6,6.9,6.9,0,0,0-1.14,1.57,13.44,13.44,0,0,0-.94,2.18A19.38,19.38,0,0,0,251.35,601.11Z"/><path class="cls-3" d="M268.1,591.85q.1,2.14.19,3.71t.17,2.72q.08,1.15.15,2t.12,1.42c0,.41.06.79.08,1.13s0,.69,0,1.05a5.77,5.77,0,0,1-.3,1.92,4.93,4.93,0,0,1-.81,1.47,5.17,5.17,0,0,1-1.18,1.07,6.89,6.89,0,0,1-1.4.72,7.7,7.7,0,0,1-1.49.39,9,9,0,0,1-1.43.12,5.56,5.56,0,0,1-2.15-.38,4.52,4.52,0,0,1-1.51-1,3.84,3.84,0,0,1-.88-1.35,4.24,4.24,0,0,1-.28-1.5,3.59,3.59,0,0,1,.15-1.07,3.76,3.76,0,0,1,.39-.88,3.12,3.12,0,0,1,.56-.67,2.76,2.76,0,0,1,.65-.44,40.08,40.08,0,0,0,2.33-4.9q.95-2.42,1.72-4.87Zm-8.94,12.79a2.73,2.73,0,0,0,.46,1.73,1.88,1.88,0,0,0,1.55.57,3.7,3.7,0,0,0,1.06-.15,2.35,2.35,0,0,0,.92-.52,2.58,2.58,0,0,0,.64-.94,3.79,3.79,0,0,0,.24-1.45q0-.42,0-.81t-.06-.84q0-.44-.09-1l-.13-1.27q-.07-.73-.15-1.67t-.18-2.22a27.82,27.82,0,0,1-1.18,3.12q-.68,1.51-1.5,3.11a1.76,1.76,0,0,1,.54.45,1.08,1.08,0,0,1,.22.69,1.87,1.87,0,0,1-.1.6,1.62,1.62,0,0,1-.29.52,1.46,1.46,0,0,1-.46.37,1.31,1.31,0,0,1-.6.14,1.62,1.62,0,0,1-.52-.08A.63.63,0,0,1,259.16,604.63Z"/><path class="cls-3" d="M204.89,553.39c-5.31,0-10.63,0-15.94,0a6.51,6.51,0,0,1-5.49-2.56c-6.77-8.45-13.59-16.85-20.36-25.29a5.76,5.76,0,0,1-1.2-5.17c2.4-10.26,4.79-20.52,7.09-30.81a7.26,7.26,0,0,1,4.32-5.48c9.49-4.42,18.93-9,28.35-13.53a6.63,6.63,0,0,1,6.23-.05c9.74,4.7,19.51,9.32,29.27,14a5.62,5.62,0,0,1,3.21,4q3.75,16.19,7.49,32.38a5.67,5.67,0,0,1-1.46,4.92c-6.56,8.17-13.17,16.32-19.69,24.53a7.65,7.65,0,0,1-6.69,3.13C215,553.3,209.93,553.39,204.89,553.39Zm-23.42-39.91c.25,3-.18,3.6-2.74,4-1.07.19-2.17.18-3.24.36-1.29.22-2.55.73-2.21,2.32s1.73,1.55,3,1.2,2.3-.83,3.46-1.22a2.58,2.58,0,0,1,3.56,1.63,22.25,22.25,0,0,0,8.25,10.29c1.49,1,1.58,2.27.8,3.7-.62,1.13-1.41,2.17-2,3.3s-.88,2.48.62,3.12,2.16-.42,2.61-1.59.81-2.61,1.4-3.83,1.5-2.06,3.23-1.49a21.54,21.54,0,0,0,13.46,0c1.67-.53,2.49.22,3.08,1.43s.9,2.56,1.4,3.83,1.3,2.29,2.76,1.57,1.12-1.91.52-3-1.48-2.28-2.12-3.48a2.34,2.34,0,0,1,.82-3.47,22,22,0,0,0,8.31-10.35,2.55,2.55,0,0,1,3.56-1.68c1.16.39,2.28.89,3.45,1.24s2.64.34,3-1.24-.9-2.11-2.24-2.29-2.59-.2-3.84-.48c-1.5-.34-2.46-1.05-2.22-3,.41-3.29-.43-6.47-1.38-9.62-.55-1.81-2.54-3.16-1.88-5.28s2.89-2.53,4.45-3.67c1.14-.83,1.76-1.91.78-3.09s-2.11-.58-3,.26-1.81,1.85-2.77,2.72c-1.25,1.13-2.39,1.36-3.85,0a21.21,21.21,0,0,0-11.78-5.65,2.43,2.43,0,0,1-2.37-2.89c.06-1.29.31-2.56.43-3.84s-.28-2.63-1.82-2.65-1.94,1.26-1.84,2.62.41,2.7.4,4-.42,2.46-2.14,2.67a21.74,21.74,0,0,0-12.32,5.88,2.15,2.15,0,0,1-3.21.08c-1.09-.91-2-2-3.09-3s-2.07-1.41-3-.26-.36,2.3.8,3.08c1,.65,2,1.17,2.93,1.86,1.48,1.1,2.21,2.25,1,4.23A22,22,0,0,0,181.47,513.48Z"/><path class="cls-2" d="M181.47,513.48a22,22,0,0,1,2.88-11.54c1.19-2,.46-3.13-1-4.23-.93-.69-2-1.21-2.93-1.86-1.16-.78-1.8-1.88-.8-3.08s2.1-.6,3,.26,2,2.05,3.09,3a2.15,2.15,0,0,0,3.21-.08A21.74,21.74,0,0,1,201.26,490c1.72-.21,2.13-1.33,2.14-2.67s-.3-2.7-.4-4,.27-2.64,1.84-2.62,1.94,1.28,1.82,2.65-.37,2.56-.43,3.84a2.43,2.43,0,0,0,2.37,2.89,21.21,21.21,0,0,1,11.78,5.65c1.45,1.35,2.6,1.12,3.85,0,1-.87,1.81-1.84,2.77-2.72s2.08-1.42,3-.26.37,2.25-.78,3.09c-1.56,1.14-3.8,1.57-4.45,3.67s1.34,3.47,1.88,5.28c1,3.15,1.79,6.33,1.38,9.62-.24,1.92.73,2.63,2.22,3,1.25.28,2.56.31,3.84.48s2.55.73,2.24,2.29-1.68,1.61-3,1.24-2.3-.85-3.45-1.24a2.55,2.55,0,0,0-3.56,1.68,22,22,0,0,1-8.31,10.35,2.34,2.34,0,0,0-.82,3.47c.63,1.2,1.46,2.29,2.12,3.48s.81,2.36-.52,3-2.27-.33-2.76-1.57-.81-2.61-1.4-3.83-1.41-2-3.08-1.43a21.54,21.54,0,0,1-13.46,0c-1.74-.56-2.61.21-3.23,1.49s-.9,2.56-1.4,3.83-1.25,2.16-2.61,1.59-1.26-1.95-.62-3.12,1.41-2.17,2-3.3c.78-1.42.68-2.71-.8-3.7a22.25,22.25,0,0,1-8.25-10.29,2.58,2.58,0,0,0-3.56-1.63c-1.16.39-2.28.89-3.46,1.22s-2.63.4-3-1.2.92-2.11,2.21-2.32c1.07-.18,2.17-.17,3.24-.36C181.28,517.09,181.72,516.48,181.47,513.48Zm32,4.37c-2-.1-2.64.68-2,2.31,1,2.54,2.06,5,3.06,7.56.32.8.71.82,1.35.34a19.28,19.28,0,0,0,6.05-7.57c.4-.88.16-1.23-.73-1.37C218.53,518.7,215.92,518.26,213.45,517.85Zm-11-21.46c.33-1.51,0-1.89-1.52-1.55a19.87,19.87,0,0,0-8.14,4c-.69.55-1,.94,0,1.6,2.16,1.4,4.2,3,6.34,4.43,1.71,1.15,2.81.59,3-1.5C202.23,501,202.31,498.62,202.42,496.39Zm15.35,3.34a18.49,18.49,0,0,0-10.64-5.1c.16,3.13.24,6.18.5,9.21.14,1.59,1.35,2,2.83,1C212.88,503.25,215.23,501.53,217.77,499.73Zm5.74,13.53a23.36,23.36,0,0,0-2.09-8.59c-.61-1.29-1.08-1.19-2-.3-1.7,1.65-3.53,3.17-5.29,4.76-1.6,1.45-1.31,2.67.8,3.31s4.33,1.13,6.43,1.87C223.12,514.93,223.79,514.57,223.52,513.27Zm-18.14,18.39c.87-.13,2.28-.38,3.69-.55s1.43-.88.92-1.83c-1.22-2.28-2.43-4.57-3.79-6.76-.87-1.4-1.92-1.31-2.84.11-.7,1.08-1.28,2.25-1.92,3.37C198.6,531,199,531.63,205.38,531.65Zm-19.22-19.11c.65.49-1,2.41,1.05,2a63.5,63.5,0,0,0,8.23-2.35c1.33-.46,1.47-1.6.47-2.57-1.94-1.87-4-3.6-5.94-5.46-.91-.87-1.27-.5-1.73.41A21.55,21.55,0,0,0,186.16,512.54Zm10.49,5.27-8.25,1.38c-.81.14-.92.59-.59,1.3a19.5,19.5,0,0,0,6.08,7.53c.64.49,1,.41,1.32-.39,1-2.52,2.09-5,3.06-7.54C198.82,518.64,198.1,517.92,196.65,517.81Zm8.22-7.73a3,3,0,0,0-3.13,2.69,3.72,3.72,0,0,0,3,3.45c1.44,0,3-1.68,3.12-3.35A3,3,0,0,0,204.86,510.08Z"/><path class="cls-3" d="M213.45,517.85c2.47.4,5.08.84,7.7,1.26.89.14,1.13.5.73,1.37a19.28,19.28,0,0,1-6.05,7.57c-.64.48-1,.46-1.35-.34-1-2.52-2.1-5-3.06-7.56C210.81,518.54,211.5,517.75,213.45,517.85Z"/><path class="cls-3" d="M202.42,496.39c-.11,2.23-.19,4.6-.36,7-.15,2.08-1.25,2.65-3,1.5-2.14-1.44-4.18-3-6.34-4.43-1-.66-.7-1,0-1.6a19.87,19.87,0,0,1,8.14-4C202.41,494.5,202.75,494.88,202.42,496.39Z"/><path class="cls-3" d="M217.77,499.73c-2.54,1.8-4.9,3.52-7.31,5.14-1.47,1-2.69.56-2.83-1-.26-3-.34-6.07-.5-9.21A18.49,18.49,0,0,1,217.77,499.73Z"/><path class="cls-3" d="M223.52,513.27c.27,1.3-.4,1.67-2.15,1-2.1-.74-4.29-1.23-6.43-1.87s-2.4-1.86-.8-3.31c1.76-1.59,3.59-3.11,5.29-4.76.92-.89,1.4-1,2,.3A23.36,23.36,0,0,1,223.52,513.27Z"/><path class="cls-3" d="M205.38,531.65c-6.39,0-6.78-.69-3.94-5.66.64-1.12,1.22-2.28,1.92-3.37.92-1.43,2-1.51,2.84-.11,1.36,2.19,2.57,4.48,3.79,6.76.5.94.38,1.68-.92,1.83S206.25,531.52,205.38,531.65Z"/><path class="cls-3" d="M186.16,512.54a21.55,21.55,0,0,1,2.08-8c.46-.91.82-1.28,1.73-.41,1.94,1.86,4,3.59,5.94,5.46,1,1,.87,2.11-.47,2.57a63.5,63.5,0,0,1-8.23,2.35C185.19,514.95,186.81,513,186.16,512.54Z"/><path class="cls-3" d="M196.65,517.81c1.46.12,2.18.84,1.62,2.29-1,2.53-2.07,5-3.06,7.54-.31.8-.68.87-1.32.39a19.5,19.5,0,0,1-6.08-7.53c-.33-.72-.22-1.16.59-1.3Z"/><path class="cls-3" d="M204.86,510.08a3,3,0,0,1,3,2.79c-.07,1.67-1.68,3.4-3.12,3.35a3.72,3.72,0,0,1-3-3.45A3,3,0,0,1,204.86,510.08Z"/><path class="cls-2" d="M185.24,236.36h22.67c7.88,0,15.76-.15,23.63,0,10.05.25,16.69,6.88,16.82,16.87q.24,19.08,0,38.17c-.11,10.09-6.51,16.85-16.61,17.05q-20.9.42-41.81,0c-10.14-.2-16.49-6.89-16.59-17-.12-12.72-.06-25.45,0-38.17a61.69,61.69,0,0,1,.79-6.57c5.82,4.25,9.87,8,9.25,15.49-.76,9.23-.25,18.57-.15,27.86.07,6.85,2.3,9.23,9,9.31q18.48.21,37,0c6.73-.07,9.65-3,9.64-9.64q0-17-.42-33.93c-.18-7.7-3-10.37-10.9-10.44-8.68-.08-17.41-.5-26,.13C194.4,246,189.52,243.57,185.24,236.36Z"/><path class="cls-2" d="M201.88,263.72H188.62l2.38-3.95-22.16-22.22-3.89,2.59V226.92h13.2c-3.22,3.23-2.19,5.52.77,8.27,6.2,5.77,11.92,12,18,18.33l4.92-3.22Z"/><path class="cls-2" d="M223.58,274.76c10.62,0,10.62,0,10.62,10.69,0,10.3,0,10.3-11,10.29-10,0-10,0-10-11.3C213.17,274.76,213.17,274.76,223.58,274.76Z"/><path class="cls-2" d="M234.2,259.6c0,10.55,0,10.55-10.82,10.55-10.22,0-10.22,0-10.21-11.16,0-9.92,0-9.92,10.82-9.91C234.2,249.08,234.2,249.08,234.2,259.6Z"/><path class="cls-2" d="M198,295.74c-10.55,0-10.55,0-10.54-10.81,0-10.18,0-10.18,10.56-10.18s10.56,0,10.56,10.8C208.53,295.74,208.53,295.74,198,295.74Z"/><path class="cls-1" d="M437.46,50.93a14.19,14.19,0,0,1-2.95,4.67,17.42,17.42,0,0,1-4,3.14,17.88,17.88,0,0,1-4.41,1.77,17.63,17.63,0,0,1-9.39-.16A8.48,8.48,0,0,1,413,58a10.08,10.08,0,0,1-2.21-4.15,22.84,22.84,0,0,1-.73-6.22,39.53,39.53,0,0,1,.23-4.05,41.66,41.66,0,0,1,.73-4.53,45.35,45.35,0,0,1,1.29-4.7,32.69,32.69,0,0,1,1.9-4.56,26.68,26.68,0,0,1,2.58-4.11,17.73,17.73,0,0,1,3.29-3.32,15.11,15.11,0,0,1,4.07-2.22,14.32,14.32,0,0,1,4.92-.81,14.72,14.72,0,0,1,3.55.41,8.47,8.47,0,0,1,2.9,1.29,6.14,6.14,0,0,1,1.94,2.26,7.26,7.26,0,0,1,.7,3.32,9.45,9.45,0,0,1-.2,2,4.46,4.46,0,0,1-.67,1.59,3.18,3.18,0,0,1-1.2,1,3.86,3.86,0,0,1-1.77.37,5.42,5.42,0,0,1-1.47-.24,3.35,3.35,0,0,1-1.61-1.17,3.1,3.1,0,0,0,.93-.76,5.9,5.9,0,0,0,.8-1.2,7.48,7.48,0,0,0,.56-1.48,6.17,6.17,0,0,0,.21-1.59,4.57,4.57,0,0,0-.17-1.25,2.69,2.69,0,0,0-.57-1.06,2.91,2.91,0,0,0-1-.73,3.85,3.85,0,0,0-1.54-.28A4.71,4.71,0,0,0,427.46,23a12.74,12.74,0,0,0-2.68,3,26.06,26.06,0,0,0-2.31,4.43,41.44,41.44,0,0,0-1.79,5.34,50.76,50.76,0,0,0-1.17,5.79,40.51,40.51,0,0,0-.43,5.74,19.5,19.5,0,0,0,.28,3.44,7.11,7.11,0,0,0,1,2.67,5,5,0,0,0,2,1.74,7.34,7.34,0,0,0,3.26.63,12.63,12.63,0,0,0,6-1.44,13.61,13.61,0,0,0,4.65-4Z"/><path class="cls-1" d="M451.62,50.43a22.15,22.15,0,0,1-1.71,3.83,15.76,15.76,0,0,1-2,2.74,10.69,10.69,0,0,1-4.19,2.87,9.46,9.46,0,0,1-1.93.5,11.5,11.5,0,0,1-1.63.13,6.89,6.89,0,0,1-2.29-.37A4.76,4.76,0,0,1,436.06,59a5.58,5.58,0,0,1-1.24-2,8.54,8.54,0,0,1-.45-3,14,14,0,0,1,.11-1.63q.11-.89.32-1.93l5.82-27.27,8.05-1.09-6.25,29.39a4.59,4.59,0,0,0-.17.89c0,.29,0,.58,0,.86a2,2,0,0,0,.53,1.58,2.61,2.61,0,0,0,1.67.44,3.6,3.6,0,0,0,1.55-.36,5,5,0,0,0,1.39-1,7.07,7.07,0,0,0,1.14-1.53,9.66,9.66,0,0,0,.82-1.93Z"/><path class="cls-1" d="M478.68,39.51a13.36,13.36,0,0,1-4.12,2.84A21.61,21.61,0,0,1,469,44a25.63,25.63,0,0,1-1.45,6.8A18.19,18.19,0,0,1,464.72,56a12.33,12.33,0,0,1-4,3.27A10.24,10.24,0,0,1,456,60.4a12.52,12.52,0,0,1-3.5-.47,7.05,7.05,0,0,1-2.76-1.49A6.86,6.86,0,0,1,448,55.78a10.74,10.74,0,0,1-.65-4,22.73,22.73,0,0,1,.33-3.63A26,26,0,0,1,448.71,44a25,25,0,0,1,1.89-4.21,16.17,16.17,0,0,1,2.82-3.68,13.5,13.5,0,0,1,3.84-2.62,11.83,11.83,0,0,1,5-1q7,0,7,8.69v.05a.67.67,0,0,0,.25.05h.33a8.45,8.45,0,0,0,2.06-.28,17.21,17.21,0,0,0,2.22-.73,19.08,19.08,0,0,0,2.18-1q1.06-.6,1.94-1.21Zm-14.17,4.68a1.63,1.63,0,0,1-1.16-.84A3.25,3.25,0,0,1,463,41.9a3.43,3.43,0,0,1,.46-1.87,2.79,2.79,0,0,1,1.24-1.08,9.7,9.7,0,0,0-.19-1.48,3.18,3.18,0,0,0-.37-1,1.35,1.35,0,0,0-.6-.54,2.26,2.26,0,0,0-.92-.16,2.91,2.91,0,0,0-1.89.76,8.93,8.93,0,0,0-1.71,2,18.31,18.31,0,0,0-1.49,2.86,28.13,28.13,0,0,0-1.16,3.31,29.89,29.89,0,0,0-.74,3.36,19.29,19.29,0,0,0-.27,3,13.47,13.47,0,0,0,.15,2.21,3.43,3.43,0,0,0,.48,1.34,1.7,1.7,0,0,0,.86.68,4,4,0,0,0,1.3.19,3,3,0,0,0,2-.88A9,9,0,0,0,462,52.24a18.94,18.94,0,0,0,1.5-3.59A26.61,26.61,0,0,0,464.51,44.18Z"/><path class="cls-1" d="M500.49,50.43a24.45,24.45,0,0,1-1.67,3.83A16.18,16.18,0,0,1,496.94,57a10.58,10.58,0,0,1-2,1.81,9.7,9.7,0,0,1-2,1.06,8.56,8.56,0,0,1-1.83.5,10.7,10.7,0,0,1-1.59.13,5.24,5.24,0,0,1-3.72-1.29,6,6,0,0,1-1.67-3.87,13.46,13.46,0,0,1-2.1,2.68A9.94,9.94,0,0,1,480,59.6a6.77,6.77,0,0,1-2,.73,10.72,10.72,0,0,1-1.83.17,6.89,6.89,0,0,1-2.29-.37A4.76,4.76,0,0,1,472,59a5.58,5.58,0,0,1-1.24-2,8.54,8.54,0,0,1-.45-3,14,14,0,0,1,.11-1.63q.11-.89.32-1.93L474.42,33h7.84l-3.91,18.5a8.51,8.51,0,0,0-.16,1.54,3.33,3.33,0,0,0,.35,1.58,1.31,1.31,0,0,0,1.28.65,3,3,0,0,0,1.46-.36,4.25,4.25,0,0,0,1.21-1,6.62,6.62,0,0,0,1-1.53,15.16,15.16,0,0,0,.73-1.93L487.87,33h7.84l-3.91,18.5a5.43,5.43,0,0,0-.19.89,7.25,7.25,0,0,0-.05.86,1.93,1.93,0,0,0,.54,1.58,2.67,2.67,0,0,0,1.69.44,3.1,3.1,0,0,0,1.47-.36,4.34,4.34,0,0,0,1.24-1,6.68,6.68,0,0,0,1-1.53,12,12,0,0,0,.72-1.93Z"/><path class="cls-1" d="M517.31,23.16l8.05-1.09-6.25,29.39a5.71,5.71,0,0,0-.19.84,5.59,5.59,0,0,0-.05.76,2.48,2.48,0,0,0,.48,1.55,2.09,2.09,0,0,0,1.75.62,4.16,4.16,0,0,0,1.12-.11,5.26,5.26,0,0,0,.64-.24,6.43,6.43,0,0,1-.65,2.51,5.62,5.62,0,0,1-1.37,1.74,5.45,5.45,0,0,1-1.86,1,6.84,6.84,0,0,1-2.1.33,7.49,7.49,0,0,1-2-.25,5,5,0,0,1-1.67-.8A4.73,4.73,0,0,1,512,58a6.4,6.4,0,0,1-.76-2.06,16.62,16.62,0,0,1-1.41,1.69,10.11,10.11,0,0,1-1.73,1.45,8.5,8.5,0,0,1-2.1,1,8.06,8.06,0,0,1-2.5.37,8.22,8.22,0,0,1-2.71-.45,5.89,5.89,0,0,1-2.31-1.49,7.51,7.51,0,0,1-1.62-2.71,12,12,0,0,1-.61-4.09,23.2,23.2,0,0,1,.37-4,25.23,25.23,0,0,1,1.14-4.25,24.17,24.17,0,0,1,1.93-4.08A16.42,16.42,0,0,1,502.39,36a12.41,12.41,0,0,1,3.52-2.39,10.39,10.39,0,0,1,4.33-.89,5.61,5.61,0,0,1,3.36.8,2.39,2.39,0,0,1,1,2v.21Zm-5.82,27.27L514.15,38a4.5,4.5,0,0,0-.17-.56,2.37,2.37,0,0,0-.36-.62,1.81,1.81,0,0,0-.65-.5,2.42,2.42,0,0,0-1-.2,3.62,3.62,0,0,0-2.17.74,8.05,8.05,0,0,0-1.87,2,15.78,15.78,0,0,0-1.51,2.8,27.21,27.21,0,0,0-1.83,6.5,19.85,19.85,0,0,0-.24,2.88,7.79,7.79,0,0,0,.29,2.42,3.28,3.28,0,0,0,.71,1.26,1.64,1.64,0,0,0,.89.49,5.28,5.28,0,0,0,.85.08A3.07,3.07,0,0,0,508.2,55a4.6,4.6,0,0,0,1.2-.74A5.86,5.86,0,0,0,510.47,53a6.79,6.79,0,0,0,.81-1.71Z"/><path class="cls-1" d="M571.26,19.47l-8.88,40.71h-7.52l-6.3-27-6.22,27h-5.16l8.19-37.29A11,11,0,0,0,539.71,27a11.81,11.81,0,0,0-1.89,6.78,12.45,12.45,0,0,0,.38,3.2,6.64,6.64,0,0,0,1.08,2.35q-3.48,0-5.14-1.42a5.58,5.58,0,0,1-1.66-4.48,11.86,11.86,0,0,1,.6-3.75,13.82,13.82,0,0,1,1.67-3.4,14.86,14.86,0,0,1,2.59-2.91,16.81,16.81,0,0,1,3.35-2.26,18,18,0,0,1,3.93-1.46,18.22,18.22,0,0,1,4.39-.52,12.46,12.46,0,0,1,2.22.17,14.15,14.15,0,0,1,2.09.57L559.88,49,566,19.47Z"/><path class="cls-1" d="M598.18,50.43a24.46,24.46,0,0,1-1.67,3.83A16.18,16.18,0,0,1,594.63,57a10.6,10.6,0,0,1-2,1.81,9.75,9.75,0,0,1-2,1.06,8.55,8.55,0,0,1-1.83.5,10.7,10.7,0,0,1-1.59.13,5.22,5.22,0,0,1-3.68-1.26,5.8,5.8,0,0,1-1.66-3.73,20.89,20.89,0,0,1-1.46,1.82,10.82,10.82,0,0,1-1.78,1.59,9.07,9.07,0,0,1-2.19,1.14,7.8,7.8,0,0,1-2.67.44,8.22,8.22,0,0,1-2.71-.45,5.89,5.89,0,0,1-2.31-1.49,7.51,7.51,0,0,1-1.62-2.71,12,12,0,0,1-.61-4.09,23.2,23.2,0,0,1,.37-4,25.23,25.23,0,0,1,1.14-4.25A24.17,24.17,0,0,1,570,39.44,16.42,16.42,0,0,1,572.7,36a12.41,12.41,0,0,1,3.52-2.39,10.39,10.39,0,0,1,4.33-.89,5.61,5.61,0,0,1,3.36.8,2.39,2.39,0,0,1,1,2v.4l.58-2.9h7.84l-3.91,18.5a5.43,5.43,0,0,0-.19.89,7.05,7.05,0,0,0-.05.86q0,2.34,2.23,2.34a2.79,2.79,0,0,0,1.48-.41,4.8,4.8,0,0,0,1.24-1.1,7.51,7.51,0,0,0,1-1.63,14.25,14.25,0,0,0,.72-2ZM584.46,38.15a2.21,2.21,0,0,0-.11-.6,2.15,2.15,0,0,0-.36-.69,2,2,0,0,0-.68-.56,2.31,2.31,0,0,0-1.09-.23,3.62,3.62,0,0,0-2.17.74,8.05,8.05,0,0,0-1.87,2,15.78,15.78,0,0,0-1.51,2.8,27.21,27.21,0,0,0-1.83,6.5A19.85,19.85,0,0,0,574.6,51a7.79,7.79,0,0,0,.29,2.42,3.28,3.28,0,0,0,.71,1.26,1.64,1.64,0,0,0,.89.49,5.28,5.28,0,0,0,.85.08,3.14,3.14,0,0,0,1.29-.31,4.67,4.67,0,0,0,1.3-.9,6.63,6.63,0,0,0,1.14-1.5,7.44,7.44,0,0,0,.78-2.1Z"/><path class="cls-1" d="M611.46,50.43a22.15,22.15,0,0,1-1.71,3.83,15.76,15.76,0,0,1-2,2.74,10.69,10.69,0,0,1-4.19,2.87,9.46,9.46,0,0,1-1.93.5,11.5,11.5,0,0,1-1.63.13,6.89,6.89,0,0,1-2.29-.37A4.76,4.76,0,0,1,595.9,59a5.58,5.58,0,0,1-1.24-2,8.54,8.54,0,0,1-.45-3,14,14,0,0,1,.11-1.63q.11-.89.32-1.93l3.27-15.28H596.1l.45-2.18h1.78L600,25.45,608,24.36,606.17,33h3.27L609,35.15h-3.27l-3.48,16.32a4.59,4.59,0,0,0-.17.89c0,.29,0,.58,0,.86a2,2,0,0,0,.53,1.58,2.61,2.61,0,0,0,1.67.44,3.6,3.6,0,0,0,1.55-.36,5,5,0,0,0,1.39-1,7.07,7.07,0,0,0,1.14-1.53,9.66,9.66,0,0,0,.82-1.93Z"/><path class="cls-1" d="M624.75,50.43A22.15,22.15,0,0,1,623,54.26a15.76,15.76,0,0,1-2,2.74,10.69,10.69,0,0,1-4.19,2.87,9.46,9.46,0,0,1-1.93.5,11.5,11.5,0,0,1-1.63.13,6.89,6.89,0,0,1-2.29-.37A4.76,4.76,0,0,1,609.19,59a5.58,5.58,0,0,1-1.24-2,8.54,8.54,0,0,1-.45-3,14,14,0,0,1,.11-1.63q.11-.89.32-1.93L611.62,33h7.84l-3.91,18.5a4.59,4.59,0,0,0-.17.89c0,.29,0,.58,0,.86a2,2,0,0,0,.53,1.58,2.61,2.61,0,0,0,1.67.44,3.6,3.6,0,0,0,1.55-.36,5,5,0,0,0,1.39-1,7.07,7.07,0,0,0,1.14-1.53,9.66,9.66,0,0,0,.82-1.93Zm-3.38-24.69a4.17,4.17,0,0,1-1.29,3,4.54,4.54,0,0,1-1.38.9,4.45,4.45,0,0,1-3.37,0,4.36,4.36,0,0,1-1.37-.9,4.08,4.08,0,0,1-.92-1.35,4.46,4.46,0,0,1,0-3.38,4.4,4.4,0,0,1,.92-1.38,4.34,4.34,0,0,1,1.37-.94,4.29,4.29,0,0,1,3.38,0A4.52,4.52,0,0,1,621,24.05,4.16,4.16,0,0,1,621.37,25.74Z"/><path class="cls-1" d="M624.9,33h7.84l-3.91,18.5q-.13.61-.21,1.1a5.43,5.43,0,0,0-.08.86,1.91,1.91,0,0,0,.44,1.32,1.82,1.82,0,0,0,1.42.49,4.16,4.16,0,0,0,2.55-.93,10.34,10.34,0,0,0,2.26-2.46,21.73,21.73,0,0,0,1.89-3.47,33.49,33.49,0,0,0,1.45-4,34.77,34.77,0,0,0,.93-3.95,20.45,20.45,0,0,0,.33-3.42.52.52,0,0,1-.28.24,2.69,2.69,0,0,1-.49.17,3.62,3.62,0,0,1-.53.09l-.42,0a1.47,1.47,0,0,1-.85-.25,2.18,2.18,0,0,1-.62-.65,2.92,2.92,0,0,1-.37-.89,4.08,4.08,0,0,1-.12-1,2.92,2.92,0,0,1,.81-2.11,3.44,3.44,0,0,1,2.56-.84,2.91,2.91,0,0,1,2.68,1.46,4.76,4.76,0,0,1,.57,1.51,8.79,8.79,0,0,1,.17,1.75,34.3,34.3,0,0,1-.37,4.8,35,35,0,0,1-1.18,5.28,33.42,33.42,0,0,1-2,5.14,19.71,19.71,0,0,1-3,4.41,14,14,0,0,1-4,3.1,10.59,10.59,0,0,1-5,1.17,7.11,7.11,0,0,1-4.88-1.58,6.09,6.09,0,0,1-1.79-4.82q0-.45.05-1.16a11.53,11.53,0,0,1,.21-1.47Z"/><path class="cls-1" d="M659.58,52.45a11.88,11.88,0,0,1-1.33,3.91,8.19,8.19,0,0,1-2.15,2.47,7.63,7.63,0,0,1-2.76,1.3,13.26,13.26,0,0,1-3.16.37,11.47,11.47,0,0,1-3.47-.49A6.81,6.81,0,0,1,644,58.48a6.91,6.91,0,0,1-1.71-2.67,11.3,11.3,0,0,1-.61-3.95,23.89,23.89,0,0,1,.32-3.61,27.84,27.84,0,0,1,1-4.2,23.84,23.84,0,0,1,1.83-4.23,16.61,16.61,0,0,1,2.76-3.71,12.78,12.78,0,0,1,3.8-2.63,11.83,11.83,0,0,1,5-1,8.57,8.57,0,0,1,3,.44,4.83,4.83,0,0,1,1.83,1.16,3.84,3.84,0,0,1,.93,1.66,7.54,7.54,0,0,1,.25,2,9.54,9.54,0,0,1-1,4.4,11.72,11.72,0,0,1-2.78,3.55,14.38,14.38,0,0,1-4,2.45,14.81,14.81,0,0,1-4.7,1.09c0,.3-.07.59-.09.86s0,.54,0,.78A7.6,7.6,0,0,0,650,53a3.74,3.74,0,0,0,.72,1.4,2.47,2.47,0,0,0,1.06.73,4,4,0,0,0,1.33.21,6.23,6.23,0,0,0,1.66-.24,10.4,10.4,0,0,0,1.7-.64,14.09,14.09,0,0,0,1.63-.92A11,11,0,0,0,659.58,52.45Zm-9.3-5.87a6.66,6.66,0,0,0,3-.84,9.46,9.46,0,0,0,2.54-2,9.76,9.76,0,0,0,1.75-2.83,8.65,8.65,0,0,0,.65-3.3,3.78,3.78,0,0,0-.29-1.62,1.07,1.07,0,0,0-1.06-.61,2.87,2.87,0,0,0-2,1A11.53,11.53,0,0,0,653,39a26.3,26.3,0,0,0-1.57,3.61A32.93,32.93,0,0,0,650.28,46.58Z"/><path class="cls-1" d="M700.19,50.93a14.19,14.19,0,0,1-2.95,4.67,17.42,17.42,0,0,1-4,3.14,17.88,17.88,0,0,1-4.41,1.77,17.63,17.63,0,0,1-9.39-.16A8.48,8.48,0,0,1,675.7,58a10.08,10.08,0,0,1-2.21-4.15,22.84,22.84,0,0,1-.73-6.22,39.53,39.53,0,0,1,.23-4.05,41.66,41.66,0,0,1,.73-4.53,45.35,45.35,0,0,1,1.29-4.7,32.69,32.69,0,0,1,1.9-4.56,26.68,26.68,0,0,1,2.58-4.11,17.73,17.73,0,0,1,3.29-3.32,15.11,15.11,0,0,1,4.07-2.22,14.32,14.32,0,0,1,4.92-.81,14.72,14.72,0,0,1,3.55.41,8.47,8.47,0,0,1,2.9,1.29,6.14,6.14,0,0,1,1.94,2.26,7.26,7.26,0,0,1,.7,3.32,9.45,9.45,0,0,1-.2,2,4.46,4.46,0,0,1-.67,1.59,3.18,3.18,0,0,1-1.2,1,3.86,3.86,0,0,1-1.77.37,5.42,5.42,0,0,1-1.47-.24,3.35,3.35,0,0,1-1.61-1.17,3.1,3.1,0,0,0,.93-.76,5.9,5.9,0,0,0,.8-1.2,7.48,7.48,0,0,0,.56-1.48,6.17,6.17,0,0,0,.21-1.59,4.57,4.57,0,0,0-.17-1.25,2.69,2.69,0,0,0-.57-1.06,2.91,2.91,0,0,0-1-.73,3.85,3.85,0,0,0-1.54-.28A4.71,4.71,0,0,0,690.18,23a12.74,12.74,0,0,0-2.68,3,26.06,26.06,0,0,0-2.31,4.43,41.44,41.44,0,0,0-1.79,5.34,50.76,50.76,0,0,0-1.17,5.79,40.51,40.51,0,0,0-.43,5.74,19.5,19.5,0,0,0,.28,3.44,7.11,7.11,0,0,0,1,2.67,5,5,0,0,0,2,1.74,7.34,7.34,0,0,0,3.26.63,12.63,12.63,0,0,0,6-1.44,13.61,13.61,0,0,0,4.65-4Z"/><path class="cls-1" d="M728.12,39.51A13.36,13.36,0,0,1,724,42.35,21.61,21.61,0,0,1,718.47,44a25.63,25.63,0,0,1-1.45,6.8A18.19,18.19,0,0,1,714.16,56a12.33,12.33,0,0,1-4,3.27,10.24,10.24,0,0,1-4.73,1.14,12.52,12.52,0,0,1-3.5-.47,7.05,7.05,0,0,1-2.76-1.49,6.86,6.86,0,0,1-1.81-2.66,10.74,10.74,0,0,1-.65-4,22.73,22.73,0,0,1,.33-3.63A26,26,0,0,1,698.15,44,25,25,0,0,1,700,39.79a16.17,16.17,0,0,1,2.82-3.68,13.5,13.5,0,0,1,3.84-2.62,11.83,11.83,0,0,1,5-1q7,0,7,8.69v.05a.67.67,0,0,0,.25.05h.33A8.45,8.45,0,0,0,721.3,41a17.21,17.21,0,0,0,2.22-.73,19.08,19.08,0,0,0,2.18-1q1.06-.6,1.94-1.21Zm-14.17,4.68a1.63,1.63,0,0,1-1.16-.84,3.25,3.25,0,0,1-.31-1.45A3.43,3.43,0,0,1,713,40a2.79,2.79,0,0,1,1.24-1.08,9.7,9.7,0,0,0-.19-1.48,3.18,3.18,0,0,0-.37-1,1.35,1.35,0,0,0-.6-.54,2.26,2.26,0,0,0-.92-.16,2.91,2.91,0,0,0-1.89.76,8.93,8.93,0,0,0-1.71,2A18.31,18.31,0,0,0,707,41.41a28.13,28.13,0,0,0-1.16,3.31,29.89,29.89,0,0,0-.74,3.36,19.29,19.29,0,0,0-.27,3A13.47,13.47,0,0,0,705,53.3a3.43,3.43,0,0,0,.48,1.34,1.7,1.7,0,0,0,.86.68,4,4,0,0,0,1.3.19,3,3,0,0,0,2-.88,9,9,0,0,0,1.85-2.39,18.94,18.94,0,0,0,1.5-3.59A26.61,26.61,0,0,0,713.95,44.18Z"/><path class="cls-1" d="M749.93,50.43a24.45,24.45,0,0,1-1.67,3.83A16.18,16.18,0,0,1,746.38,57a10.58,10.58,0,0,1-2,1.81,9.7,9.7,0,0,1-2,1.06,8.56,8.56,0,0,1-1.83.5,10.7,10.7,0,0,1-1.59.13,5.24,5.24,0,0,1-3.72-1.29,6,6,0,0,1-1.67-3.87,13.46,13.46,0,0,1-2.1,2.68,9.94,9.94,0,0,1-2.1,1.57,6.77,6.77,0,0,1-2,.73,10.72,10.72,0,0,1-1.83.17,6.89,6.89,0,0,1-2.29-.37A4.76,4.76,0,0,1,721.43,59a5.58,5.58,0,0,1-1.24-2,8.54,8.54,0,0,1-.45-3,14,14,0,0,1,.11-1.63q.11-.89.32-1.93L723.86,33h7.84l-3.91,18.5a8.51,8.51,0,0,0-.16,1.54,3.33,3.33,0,0,0,.35,1.58,1.31,1.31,0,0,0,1.28.65,3,3,0,0,0,1.46-.36,4.25,4.25,0,0,0,1.21-1,6.62,6.62,0,0,0,1-1.53,15.16,15.16,0,0,0,.73-1.93L737.31,33h7.84l-3.91,18.5a5.43,5.43,0,0,0-.19.89,7.25,7.25,0,0,0-.05.86,1.93,1.93,0,0,0,.54,1.58,2.67,2.67,0,0,0,1.69.44,3.1,3.1,0,0,0,1.47-.36,4.34,4.34,0,0,0,1.24-1,6.68,6.68,0,0,0,1-1.53,12,12,0,0,0,.72-1.93Z"/><path class="cls-1" d="M744.32,60.18,750.09,33h7.84l-.69,3.38q.72-.64,1.46-1.25A11.34,11.34,0,0,1,760.25,34a9.29,9.29,0,0,1,1.69-.76A5.86,5.86,0,0,1,763.8,33a3.58,3.58,0,0,1,2.82,1.25,3.74,3.74,0,0,1,.72,1.3,5,5,0,0,1,.24,1.54,4.4,4.4,0,0,1-.24,1.42,3.69,3.69,0,0,1-.73,1.26,3.85,3.85,0,0,1-1.24.92,3.93,3.93,0,0,1-1.73.36,2.18,2.18,0,0,1-1.18-.27,1.78,1.78,0,0,1-.62-.66,3.15,3.15,0,0,1-.31-.86q-.09-.47-.2-.86a2.31,2.31,0,0,0-.28-.66.63.63,0,0,0-.57-.27,3.68,3.68,0,0,0-2.1.57,15.91,15.91,0,0,0-1.86,1.5l-4.36,20.68Z"/><path class="cls-1" d="M788.67,50.43a27.55,27.55,0,0,1-4.27,4.08,42.24,42.24,0,0,1-4.05,2.72,8.72,8.72,0,0,1-1.9,1.53,11.52,11.52,0,0,1-2.18,1,13.13,13.13,0,0,1-2.29.56,15,15,0,0,1-2.19.17,9.21,9.21,0,0,1-3.55-.62,7.46,7.46,0,0,1-2.49-1.62A6.34,6.34,0,0,1,764.32,56a7,7,0,0,1-.46-2.49,5.92,5.92,0,0,1,.25-1.77,6.23,6.23,0,0,1,.65-1.45,5.1,5.1,0,0,1,.92-1.1,4.54,4.54,0,0,1,1.08-.73,66.07,66.07,0,0,0,3.85-8.09q1.57-4,2.84-8l8.05-1.06q.16,3.53.31,6.13t.28,4.49q.13,1.9.24,3.23t.2,2.35q.09,1,.13,1.86t0,1.74q0,.61,0,1.12a4.64,4.64,0,0,1-.17,1q1.2-.69,2.17-1.37a18.35,18.35,0,0,0,1.74-1.37Zm-21.93,2a4.51,4.51,0,0,0,.76,2.86,3.11,3.11,0,0,0,2.56.94,6.11,6.11,0,0,0,1.75-.25,3.87,3.87,0,0,0,1.51-.85,4.24,4.24,0,0,0,1.06-1.55,6.25,6.25,0,0,0,.4-2.39q0-.69,0-1.34t-.09-1.38q-.05-.73-.15-1.63t-.21-2.1q-.12-1.2-.25-2.76t-.29-3.67a46.09,46.09,0,0,1-1.94,5.16q-1.12,2.5-2.47,5.13a2.93,2.93,0,0,1,.89.74,1.78,1.78,0,0,1,.36,1.14,3.08,3.08,0,0,1-.16,1,2.66,2.66,0,0,1-.48.86,2.41,2.41,0,0,1-.76.61,2.15,2.15,0,0,1-1,.23,2.66,2.66,0,0,1-.85-.13A1,1,0,0,1,766.75,52.4Z"/><path class="cls-1" d="M802.23,52.45a11.88,11.88,0,0,1-1.33,3.91,8.19,8.19,0,0,1-2.15,2.47,7.63,7.63,0,0,1-2.76,1.3,13.26,13.26,0,0,1-3.16.37,11.47,11.47,0,0,1-3.47-.49,6.81,6.81,0,0,1-2.66-1.53A6.91,6.91,0,0,1,785,55.81a11.3,11.3,0,0,1-.61-3.95,23.89,23.89,0,0,1,.32-3.61,27.84,27.84,0,0,1,1-4.2,23.84,23.84,0,0,1,1.83-4.23,16.61,16.61,0,0,1,2.76-3.71,12.78,12.78,0,0,1,3.8-2.63,11.83,11.83,0,0,1,5-1,8.57,8.57,0,0,1,3,.44,4.83,4.83,0,0,1,1.83,1.16,3.84,3.84,0,0,1,.93,1.66,7.54,7.54,0,0,1,.25,2,9.54,9.54,0,0,1-1,4.4,11.72,11.72,0,0,1-2.78,3.55,14.38,14.38,0,0,1-4,2.45,14.81,14.81,0,0,1-4.7,1.09c0,.3-.07.59-.09.86s0,.54,0,.78a7.6,7.6,0,0,0,.27,2.18,3.74,3.74,0,0,0,.72,1.4,2.47,2.47,0,0,0,1.06.73,4,4,0,0,0,1.33.21,6.23,6.23,0,0,0,1.66-.24,10.4,10.4,0,0,0,1.7-.64,14.09,14.09,0,0,0,1.63-.92A11,11,0,0,0,802.23,52.45Zm-9.3-5.87a6.66,6.66,0,0,0,3-.84,9.46,9.46,0,0,0,2.54-2,9.76,9.76,0,0,0,1.75-2.83,8.65,8.65,0,0,0,.65-3.3,3.78,3.78,0,0,0-.29-1.62,1.07,1.07,0,0,0-1.06-.61,2.87,2.87,0,0,0-2,1A11.53,11.53,0,0,0,795.62,39a26.3,26.3,0,0,0-1.57,3.61A32.93,32.93,0,0,0,792.92,46.58Z"/><path class="cls-3" d="M815.51,60.18l7.18-34h-5.16l.64-2.5q1.12,0,2.5-.11a17.92,17.92,0,0,0,3.08-.54,29.31,29.31,0,0,0,3.75-1.28A33.41,33.41,0,0,0,832,19.47l-8.66,40.71Z"/><path class="cls-3" d="M842.75,60.74a11.84,11.84,0,0,1-5.32-1.06,8.69,8.69,0,0,1-3.37-2.9,11.9,11.9,0,0,1-1.77-4.32,26.06,26.06,0,0,1-.52-5.33,43.74,43.74,0,0,1,.6-7.29,37.5,37.5,0,0,1,1.74-6.67,30,30,0,0,1,2.78-5.71A21.2,21.2,0,0,1,840.58,23a16,16,0,0,1,4.5-2.9,13.19,13.19,0,0,1,5.21-1A10.75,10.75,0,0,1,855,20a8.72,8.72,0,0,1,3.27,2.66,11.62,11.62,0,0,1,1.91,4.13,21.48,21.48,0,0,1,.63,5.37q0,2-.23,4.27t-.71,4.65a45.41,45.41,0,0,1-1.24,4.77,33.5,33.5,0,0,1-1.82,4.57,26.64,26.64,0,0,1-2.45,4.07,16.9,16.9,0,0,1-3.12,3.27,14.23,14.23,0,0,1-3.85,2.18A13,13,0,0,1,842.75,60.74Zm7.47-38.43a3.9,3.9,0,0,0-2.56,1.1,12.52,12.52,0,0,0-2.41,3,28.66,28.66,0,0,0-2.13,4.45,43.62,43.62,0,0,0-1.69,5.46,57.85,57.85,0,0,0-1.12,6,46.58,46.58,0,0,0-.41,6.14q0,1.54.15,3a11.81,11.81,0,0,0,.53,2.6,4.63,4.63,0,0,0,1.08,1.83,2.44,2.44,0,0,0,1.81.69,4,4,0,0,0,2.59-1.08,11.52,11.52,0,0,0,2.37-3,26.37,26.37,0,0,0,2-4.41A44.49,44.49,0,0,0,852,42.71a58.77,58.77,0,0,0,1-6.11,56.38,56.38,0,0,0,.36-6.34,23.59,23.59,0,0,0-.19-3,12.68,12.68,0,0,0-.57-2.54,4.86,4.86,0,0,0-1-1.74A1.89,1.89,0,0,0,850.21,22.31Z"/><path class="cls-3" d="M860.5,60.18l7.18-34h-5.16l.64-2.5q1.12,0,2.5-.11a17.92,17.92,0,0,0,3.08-.54,29.31,29.31,0,0,0,3.75-1.28A33.41,33.41,0,0,0,877,19.47l-8.66,40.71Z"/><path class="cls-4" d="M423.8,84.55a6.76,6.76,0,0,0-8.6,2.76,6.76,6.76,0,0,0,2.46,9.24,6.68,6.68,0,0,0,3.41.9,6.86,6.86,0,0,0,2.71-.56,7.85,7.85,0,0,0,2.36-1.54l1.45,1.58a9.8,9.8,0,0,1-3.08,2,9.22,9.22,0,0,1-8.15-.45,8.86,8.86,0,0,1-4.49-7.79,8.64,8.64,0,0,1,1.22-4.5A8.79,8.79,0,0,1,416.4,83,9.34,9.34,0,0,1,421,81.83a9.44,9.44,0,0,1,3.55.69,8.79,8.79,0,0,1,3,1.94l-1.43,1.73A7.28,7.28,0,0,0,423.8,84.55Z"/><path class="cls-4" d="M438.79,87a6.13,6.13,0,0,1,2.41,2.37,7.43,7.43,0,0,1,0,7,6.11,6.11,0,0,1-2.41,2.38,7.76,7.76,0,0,1-7.07,0,6.13,6.13,0,0,1-2.41-2.37,7.46,7.46,0,0,1,0-7A6.13,6.13,0,0,1,431.72,87a7.76,7.76,0,0,1,7.07,0Zm-5.84,1.78a4.16,4.16,0,0,0-1.58,1.67,5.1,5.1,0,0,0-.56,2.42,5.22,5.22,0,0,0,.56,2.46A4.05,4.05,0,0,0,432.95,97a4.53,4.53,0,0,0,2.32.59,4.48,4.48,0,0,0,2.29-.59,4,4,0,0,0,1.58-1.67,5.22,5.22,0,0,0,.56-2.46,5.1,5.1,0,0,0-.56-2.42,4.15,4.15,0,0,0-1.58-1.67,4.41,4.41,0,0,0-2.29-.6A4.46,4.46,0,0,0,432.95,88.83Z"/><path class="cls-4" d="M465.46,87.57a5.26,5.26,0,0,1,1.3,3.76v8.2h-2.36V92a3.65,3.65,0,0,0-.92-2.63,3.34,3.34,0,0,0-2.52-1,3.81,3.81,0,0,0-3,1.33A4.92,4.92,0,0,0,456.94,93v6.55h-2.36V92a3.68,3.68,0,0,0-.9-2.63,3.32,3.32,0,0,0-2.53-1,3.85,3.85,0,0,0-3,1.33A4.88,4.88,0,0,0,447.08,93v6.55h-2.33V86.27h2.33v2.78q1.3-2.81,4.94-2.86a5.07,5.07,0,0,1,3,.88,4.3,4.3,0,0,1,1.64,2.46q1.23-3.29,5.17-3.34A4.7,4.7,0,0,1,465.46,87.57Z"/><path class="cls-4" d="M480.34,88a7.45,7.45,0,0,1,1.58,5.05q0,.5,0,.75H471.41a4.52,4.52,0,0,0,1.49,2.83,4.42,4.42,0,0,0,3,1.05,5.6,5.6,0,0,0,2.19-.43,5.29,5.29,0,0,0,1.77-1.2l1.28,1.33A6.69,6.69,0,0,1,478.78,99a7.85,7.85,0,0,1-3.06.58,7,7,0,0,1-3.47-.84,5.91,5.91,0,0,1-2.36-2.37,7.63,7.63,0,0,1,0-7,6.12,6.12,0,0,1,2.35-2.38,6.76,6.76,0,0,1,3.44-.87A5.85,5.85,0,0,1,480.34,88Zm-.53,4a3.84,3.84,0,0,0-4.11-3.89,4.19,4.19,0,0,0-2.92,1.05A4.42,4.42,0,0,0,471.38,92Z"/><path class="cls-4" d="M488.52,102.5a1.64,1.64,0,0,0,1.45-.65,3.3,3.3,0,0,0,.5-2V86.27h2.36v13.92a4.63,4.63,0,0,1-1,3.17,3.54,3.54,0,0,1-2.8,1.12,6.23,6.23,0,0,1-2.28-.45l.55-1.78A4.55,4.55,0,0,0,488.52,102.5Zm4.15-21.09a1.61,1.61,0,0,1,0,2.16,1.48,1.48,0,0,1-2.08,0,1.61,1.61,0,0,1,0-2.16,1.48,1.48,0,0,1,2.08,0Z"/><path class="cls-4" d="M505.58,87A6.13,6.13,0,0,1,508,89.42a7.43,7.43,0,0,1,0,7,6.11,6.11,0,0,1-2.41,2.38,7.76,7.76,0,0,1-7.07,0,6.13,6.13,0,0,1-2.41-2.37,7.46,7.46,0,0,1,0-7A6.13,6.13,0,0,1,498.51,87a7.76,7.76,0,0,1,7.07,0Zm-5.84,1.78a4.16,4.16,0,0,0-1.58,1.67,5.1,5.1,0,0,0-.56,2.42,5.22,5.22,0,0,0,.56,2.46A4.05,4.05,0,0,0,499.74,97a4.53,4.53,0,0,0,2.32.59,4.48,4.48,0,0,0,2.29-.59,4,4,0,0,0,1.58-1.67,5.22,5.22,0,0,0,.56-2.46,5.1,5.1,0,0,0-.56-2.42,4.15,4.15,0,0,0-1.58-1.67,4.41,4.41,0,0,0-2.29-.6A4.46,4.46,0,0,0,499.74,88.83Z"/><path class="cls-4" d="M513.74,81.4a1.61,1.61,0,0,1,0,2.16,1.48,1.48,0,0,1-2.08,0,1.61,1.61,0,0,1,0-2.16,1.48,1.48,0,0,1,2.08,0Zm-2.2,4.87h2.33V99.54h-2.33Z"/><path class="cls-4" d="M528.87,87.56a5.19,5.19,0,0,1,1.33,3.77v8.2h-2.33V92a3.54,3.54,0,0,0-.94-2.62,3.51,3.51,0,0,0-2.6-.94,4,4,0,0,0-2.9,1.14,4.48,4.48,0,0,0-1.27,2.9v7.1h-2.33V86.27h2.33v2.81q1.33-2.83,5-2.88A4.87,4.87,0,0,1,528.87,87.56Z"/><path class="cls-4" d="M551.52,86.27V99.54h-2.36V96.73q-1.3,2.84-4.92,2.88a4.75,4.75,0,0,1-3.61-1.37,5.24,5.24,0,0,1-1.3-3.77v-8.2h2.36v7.58a3.6,3.6,0,0,0,.92,2.62,3.35,3.35,0,0,0,2.52.94,3.73,3.73,0,0,0,2.95-1.32,4.93,4.93,0,0,0,1.09-3.3V86.27Z"/><path class="cls-4" d="M560.91,88.4a6.53,6.53,0,0,0-1.89-.3,3.24,3.24,0,0,0-1.69.39,1.3,1.3,0,0,0-.64,1.19,1.33,1.33,0,0,0,.71,1.22,10.42,10.42,0,0,0,2.17.84,16.94,16.94,0,0,1,2.26.8,4,4,0,0,1,1.49,1.18,3.65,3.65,0,0,1-.8,4.92,6.06,6.06,0,0,1-3.52,1,8.79,8.79,0,0,1-2.87-.48,6.51,6.51,0,0,1-2.34-1.35l.88-1.71a6.21,6.21,0,0,0,2,1.2,6.77,6.77,0,0,0,2.37.45,3.55,3.55,0,0,0,1.86-.43,1.42,1.42,0,0,0,.7-1.3,1.48,1.48,0,0,0-.74-1.35,10,10,0,0,0-2.24-.9,14.94,14.94,0,0,1-2.17-.77A3.84,3.84,0,0,1,555,91.84a3.08,3.08,0,0,1-.59-2,3.15,3.15,0,0,1,1.35-2.78,5.86,5.86,0,0,1,3.39-.93,8.46,8.46,0,0,1,2.37.34,7.14,7.14,0,0,1,2,.92l-.85,1.78A8,8,0,0,0,560.91,88.4Z"/><path class="cls-4" d="M580.54,99.54V97.68a5.44,5.44,0,0,1-4.64,2,5.29,5.29,0,0,1-2.42-.53,3.88,3.88,0,0,1-1.61-1.45,3.93,3.93,0,0,1-.56-2.08,3.41,3.41,0,0,1,1.32-2.82,5.9,5.9,0,0,1,3.67-1.07h4.21v-.63a2.75,2.75,0,0,0-.87-2.17,3.7,3.7,0,0,0-2.52-.76A7.22,7.22,0,0,0,573,89.56l-1-1.61a12.08,12.08,0,0,1,2.65-1.34,9,9,0,0,1,2.9-.41,5.55,5.55,0,0,1,3.84,1.22,4.41,4.41,0,0,1,1.38,3.4l0,8.73Zm-1.39-2.62a3.11,3.11,0,0,0,1.37-2.09V93.49h-3.89a4.54,4.54,0,0,0-2.35.48,1.64,1.64,0,0,0-.76,1.5,2,2,0,0,0,.78,1.63,3.31,3.31,0,0,0,2.08.6A4.75,4.75,0,0,0,579.15,96.92Z"/><path class="cls-4" d="M597.47,87.56a5.19,5.19,0,0,1,1.33,3.77v8.2h-2.33V92a3.54,3.54,0,0,0-.94-2.62,3.51,3.51,0,0,0-2.6-.94,4,4,0,0,0-2.9,1.14,4.48,4.48,0,0,0-1.27,2.9v7.1h-2.33V86.27h2.33v2.81q1.33-2.83,5-2.88A4.87,4.87,0,0,1,597.47,87.56Z"/><path class="cls-4" d="M614.75,80.93V99.54h-2.33V96.91a5.28,5.28,0,0,1-2,2,5.9,5.9,0,0,1-2.95.71,6.33,6.33,0,0,1-3.32-.87,5.93,5.93,0,0,1-2.24-2.41,7.51,7.51,0,0,1-.8-3.52,7.3,7.3,0,0,1,.8-3.47A5.9,5.9,0,0,1,604.13,87a6.36,6.36,0,0,1,3.3-.85,6.11,6.11,0,0,1,3,.7,5,5,0,0,1,2,2v-8Zm-4.5,16.13a4.22,4.22,0,0,0,1.59-1.68,5.07,5.07,0,0,0,.58-2.43,5.13,5.13,0,0,0-.58-2.46,4.23,4.23,0,0,0-1.59-1.68,4.46,4.46,0,0,0-2.32-.6,4.39,4.39,0,0,0-2.32.61A4.31,4.31,0,0,0,604,90.51a5.42,5.42,0,0,0,0,4.87,4.21,4.21,0,0,0,1.59,1.68,4.77,4.77,0,0,0,4.64,0Z"/><path class="cls-4" d="M625,80.93h2.33V99.54H625Z"/><path class="cls-4" d="M641.42,88A7.45,7.45,0,0,1,643,93.07q0,.5,0,.75H632.49A4.52,4.52,0,0,0,634,96.65a4.42,4.42,0,0,0,3,1.05,5.6,5.6,0,0,0,2.19-.43,5.29,5.29,0,0,0,1.77-1.2l1.28,1.33A6.69,6.69,0,0,1,639.86,99a7.85,7.85,0,0,1-3.06.58,7,7,0,0,1-3.47-.84A5.91,5.91,0,0,1,631,96.4a7.63,7.63,0,0,1,0-7,6.12,6.12,0,0,1,2.35-2.38,6.76,6.76,0,0,1,3.44-.87A5.85,5.85,0,0,1,641.42,88Zm-.53,4a3.84,3.84,0,0,0-4.11-3.89,4.19,4.19,0,0,0-2.92,1.05A4.42,4.42,0,0,0,632.46,92Z"/><path class="cls-4" d="M653.71,99.54V97.68a5.44,5.44,0,0,1-4.64,2,5.29,5.29,0,0,1-2.42-.53A3.88,3.88,0,0,1,645,97.66a3.93,3.93,0,0,1-.56-2.08,3.41,3.41,0,0,1,1.32-2.82,5.9,5.9,0,0,1,3.67-1.07h4.21v-.63a2.75,2.75,0,0,0-.87-2.17,3.7,3.7,0,0,0-2.52-.76,7.22,7.22,0,0,0-4.09,1.43l-1-1.61a12.08,12.08,0,0,1,2.65-1.34,9,9,0,0,1,2.9-.41,5.55,5.55,0,0,1,3.84,1.22,4.41,4.41,0,0,1,1.38,3.4l0,8.73Zm-1.39-2.62a3.11,3.11,0,0,0,1.37-2.09V93.49h-3.89a4.54,4.54,0,0,0-2.35.48,1.64,1.64,0,0,0-.76,1.5,2,2,0,0,0,.78,1.63,3.31,3.31,0,0,0,2.08.6A4.75,4.75,0,0,0,652.31,96.92Z"/><path class="cls-4" d="M663.79,87a5.52,5.52,0,0,1,2.86-.76v2.26a4.27,4.27,0,0,0-4.72,4.09v7H659.6V86.27h2.33v2.86A4.8,4.8,0,0,1,663.79,87Z"/><path class="cls-4" d="M679.64,87.56A5.19,5.19,0,0,1,681,91.34v8.2h-2.33V92a3.54,3.54,0,0,0-.94-2.62,3.51,3.51,0,0,0-2.6-.94,4,4,0,0,0-2.9,1.14,4.48,4.48,0,0,0-1.27,2.9v7.1H668.6V86.27h2.33v2.81q1.33-2.83,5-2.88A4.87,4.87,0,0,1,679.64,87.56Z"/><path class="cls-4" d="M691.82,97.33a1.33,1.33,0,0,1,.39,1,1.64,1.64,0,0,1-.11.58c-.08.2-.16.39-.24.58l-1.35,2.86h-1.28l1-2.83a1.19,1.19,0,0,1-.53-.49,1.38,1.38,0,0,1-.18-.69,1.34,1.34,0,0,1,.39-1,1.38,1.38,0,0,1,1.91,0Z"/><path class="cls-4" d="M711.7,84.55a6.76,6.76,0,0,0-8.6,2.76,6.76,6.76,0,0,0,2.46,9.24,6.68,6.68,0,0,0,3.41.9,6.86,6.86,0,0,0,2.71-.56A7.85,7.85,0,0,0,714,95.35l1.45,1.58a9.8,9.8,0,0,1-3.08,2,9.22,9.22,0,0,1-8.15-.45,8.86,8.86,0,0,1-4.49-7.79,8.64,8.64,0,0,1,1.22-4.5A8.79,8.79,0,0,1,704.3,83a9.34,9.34,0,0,1,4.64-1.18,9.44,9.44,0,0,1,3.55.69,8.79,8.79,0,0,1,3,1.94L714,86.2A7.28,7.28,0,0,0,711.7,84.55Z"/><path class="cls-4" d="M726.68,87a6.13,6.13,0,0,1,2.41,2.37,7.43,7.43,0,0,1,0,7,6.11,6.11,0,0,1-2.41,2.38,7.76,7.76,0,0,1-7.07,0,6.13,6.13,0,0,1-2.41-2.37,7.46,7.46,0,0,1,0-7A6.13,6.13,0,0,1,719.61,87a7.76,7.76,0,0,1,7.07,0Zm-5.84,1.78a4.16,4.16,0,0,0-1.58,1.67,5.1,5.1,0,0,0-.56,2.42,5.22,5.22,0,0,0,.56,2.46A4.05,4.05,0,0,0,720.84,97a4.53,4.53,0,0,0,2.32.59,4.48,4.48,0,0,0,2.29-.59A4,4,0,0,0,727,95.38a5.22,5.22,0,0,0,.56-2.46A5.1,5.1,0,0,0,727,90.5a4.15,4.15,0,0,0-1.58-1.67,4.41,4.41,0,0,0-2.29-.6A4.46,4.46,0,0,0,720.84,88.83Z"/><path class="cls-4" d="M753.36,87.57a5.26,5.26,0,0,1,1.3,3.76v8.2H752.3V92a3.65,3.65,0,0,0-.92-2.63,3.34,3.34,0,0,0-2.52-1,3.81,3.81,0,0,0-3,1.33A4.92,4.92,0,0,0,744.83,93v6.55h-2.36V92a3.68,3.68,0,0,0-.9-2.63,3.32,3.32,0,0,0-2.53-1,3.85,3.85,0,0,0-3,1.33A4.88,4.88,0,0,0,735,93v6.55h-2.33V86.27H735v2.78q1.3-2.81,4.94-2.86a5.07,5.07,0,0,1,3,.88,4.3,4.3,0,0,1,1.64,2.46q1.23-3.29,5.17-3.34A4.7,4.7,0,0,1,753.36,87.57Z"/><path class="cls-4" d="M760.44,81.4a1.61,1.61,0,0,1,0,2.16,1.48,1.48,0,0,1-2.08,0,1.61,1.61,0,0,1,0-2.16,1.48,1.48,0,0,1,2.08,0Zm-2.2,4.87h2.33V99.54h-2.33Z"/><path class="cls-4" d="M775.58,87.56a5.19,5.19,0,0,1,1.33,3.77v8.2h-2.33V92a3.54,3.54,0,0,0-.94-2.62,3.51,3.51,0,0,0-2.6-.94,4,4,0,0,0-2.9,1.14,4.48,4.48,0,0,0-1.27,2.9v7.1h-2.33V86.27h2.33v2.81q1.33-2.83,5-2.88A4.87,4.87,0,0,1,775.58,87.56Z"/><path class="cls-4" d="M792.24,86.27V98.18a6.46,6.46,0,0,1-.84,3.34,5.58,5.58,0,0,1-2.37,2.19,7.86,7.86,0,0,1-3.56.77,9.07,9.07,0,0,1-5.47-1.86l1-1.71a7.09,7.09,0,0,0,2,1.19,6.63,6.63,0,0,0,2.31.39,4.61,4.61,0,0,0,3.29-1.15,4,4,0,0,0,1.23-3.08V96.4A4.93,4.93,0,0,1,788,98.27a5.61,5.61,0,0,1-2.76.67,6,6,0,0,1-3.15-.82,5.55,5.55,0,0,1-2.12-2.27,7.16,7.16,0,0,1-.75-3.34,7,7,0,0,1,.75-3.29A5.51,5.51,0,0,1,782.06,87a6.1,6.1,0,0,1,3.15-.8,5.68,5.68,0,0,1,2.77.65,4.86,4.86,0,0,1,1.89,1.86V86.27Zm-4.39,10.21a4,4,0,0,0,1.49-1.59,5.21,5.21,0,0,0,0-4.62,4,4,0,0,0-1.49-1.59,4.13,4.13,0,0,0-2.18-.58,4.19,4.19,0,0,0-2.19.58A4.09,4.09,0,0,0,782,90.27a4.78,4.78,0,0,0-.55,2.32,4.59,4.59,0,0,0,1.2,3.21,4,4,0,0,0,3.06,1.25A4.12,4.12,0,0,0,787.85,96.48Z"/><path class="cls-4" d="M807.35,88.4a6.53,6.53,0,0,0-1.89-.3,3.24,3.24,0,0,0-1.69.39,1.3,1.3,0,0,0-.64,1.19,1.33,1.33,0,0,0,.71,1.22,10.42,10.42,0,0,0,2.17.84,16.94,16.94,0,0,1,2.26.8,4,4,0,0,1,1.49,1.18,3.65,3.65,0,0,1-.8,4.92,6.06,6.06,0,0,1-3.52,1,8.79,8.79,0,0,1-2.87-.48,6.51,6.51,0,0,1-2.34-1.35l.88-1.71a6.21,6.21,0,0,0,2,1.2,6.77,6.77,0,0,0,2.37.45,3.55,3.55,0,0,0,1.86-.43,1.42,1.42,0,0,0,.7-1.3,1.48,1.48,0,0,0-.74-1.35,10,10,0,0,0-2.24-.9,14.94,14.94,0,0,1-2.17-.77,3.84,3.84,0,0,1-1.43-1.14,3.08,3.08,0,0,1-.59-2,3.15,3.15,0,0,1,1.35-2.78,5.86,5.86,0,0,1,3.39-.93,8.46,8.46,0,0,1,2.37.34,7.14,7.14,0,0,1,2,.92l-.85,1.78A8,8,0,0,0,807.35,88.4Z"/><path class="cls-4" d="M821.92,87a6.13,6.13,0,0,1,2.41,2.37,7.43,7.43,0,0,1,0,7,6.11,6.11,0,0,1-2.41,2.38,7.76,7.76,0,0,1-7.07,0,6.13,6.13,0,0,1-2.41-2.37,7.46,7.46,0,0,1,0-7A6.13,6.13,0,0,1,814.85,87a7.76,7.76,0,0,1,7.07,0Zm-5.84,1.78a4.16,4.16,0,0,0-1.58,1.67,5.1,5.1,0,0,0-.56,2.42,5.22,5.22,0,0,0,.56,2.46A4.05,4.05,0,0,0,816.08,97a4.53,4.53,0,0,0,2.32.59,4.48,4.48,0,0,0,2.29-.59,4,4,0,0,0,1.58-1.67,5.22,5.22,0,0,0,.56-2.46,5.1,5.1,0,0,0-.56-2.42,4.15,4.15,0,0,0-1.58-1.67,4.41,4.41,0,0,0-2.29-.6A4.46,4.46,0,0,0,816.08,88.83Z"/><path class="cls-4" d="M836.92,87a6.13,6.13,0,0,1,2.41,2.37,7.43,7.43,0,0,1,0,7,6.11,6.11,0,0,1-2.41,2.38,7.76,7.76,0,0,1-7.07,0,6.13,6.13,0,0,1-2.41-2.37,7.46,7.46,0,0,1,0-7A6.13,6.13,0,0,1,829.85,87a7.76,7.76,0,0,1,7.07,0Zm-5.84,1.78a4.16,4.16,0,0,0-1.58,1.67,5.1,5.1,0,0,0-.56,2.42,5.22,5.22,0,0,0,.56,2.46A4.05,4.05,0,0,0,831.07,97a4.53,4.53,0,0,0,2.32.59,4.48,4.48,0,0,0,2.29-.59,4,4,0,0,0,1.58-1.67,5.22,5.22,0,0,0,.56-2.46,5.1,5.1,0,0,0-.56-2.42,4.15,4.15,0,0,0-1.58-1.67,4.41,4.41,0,0,0-2.29-.6A4.46,4.46,0,0,0,831.07,88.83Z"/><path class="cls-4" d="M853.91,87.56a5.19,5.19,0,0,1,1.33,3.77v8.2h-2.33V92a3.54,3.54,0,0,0-.94-2.62,3.51,3.51,0,0,0-2.6-.94,4,4,0,0,0-2.9,1.14,4.48,4.48,0,0,0-1.27,2.9v7.1h-2.33V86.27h2.33v2.81q1.33-2.83,5-2.88A4.87,4.87,0,0,1,853.91,87.56Z"/><path class="cls-4" d="M866.11,97.28a1.42,1.42,0,0,1,.39,1,1.46,1.46,0,0,1-.39,1,1.27,1.27,0,0,1-1,.41,1.31,1.31,0,0,1-1-.41,1.43,1.43,0,0,1-.4-1,1.39,1.39,0,0,1,.4-1,1.34,1.34,0,0,1,1-.4A1.29,1.29,0,0,1,866.11,97.28Z"/><path class="cls-4" d="M870.73,97.28a1.42,1.42,0,0,1,.39,1,1.46,1.46,0,0,1-.39,1,1.27,1.27,0,0,1-1,.41,1.31,1.31,0,0,1-1-.41,1.43,1.43,0,0,1-.4-1,1.39,1.39,0,0,1,.4-1,1.34,1.34,0,0,1,1-.4A1.29,1.29,0,0,1,870.73,97.28Z"/><path class="cls-4" d="M875.34,97.28a1.42,1.42,0,0,1,.39,1,1.46,1.46,0,0,1-.39,1,1.27,1.27,0,0,1-1,.41,1.31,1.31,0,0,1-1-.41,1.43,1.43,0,0,1-.4-1,1.39,1.39,0,0,1,.4-1,1.34,1.34,0,0,1,1-.4A1.29,1.29,0,0,1,875.34,97.28Z"/><path class="cls-4" d="M880,97.28a1.42,1.42,0,0,1,.39,1,1.46,1.46,0,0,1-.39,1,1.27,1.27,0,0,1-1,.41,1.31,1.31,0,0,1-1-.41,1.43,1.43,0,0,1-.4-1,1.39,1.39,0,0,1,.4-1,1.34,1.34,0,0,1,1-.4A1.29,1.29,0,0,1,880,97.28Z"/><path class="cls-2" d="M1043.83,346.2l-2.39,11a24.93,24.93,0,0,1-1.26,4.21,11.41,11.41,0,0,1-1.7,2.94,6.16,6.16,0,0,1-2.19,1.72,6.56,6.56,0,0,1-2.74.56,7,7,0,0,1-2.17-.32,4.91,4.91,0,0,1-1.67-.91,4.12,4.12,0,0,1-1.08-1.41,4.23,4.23,0,0,1-.38-1.81,4.58,4.58,0,0,1,1.27-3.21,4.3,4.3,0,0,1,3.12-1.31,3.14,3.14,0,0,1,2,.61,2,2,0,0,1,.76,1.64,2.05,2.05,0,0,1-.35,1.24,2,2,0,0,0-.8-.62,2.57,2.57,0,0,0-1.06-.22,2.34,2.34,0,0,0-.9.17,2,2,0,0,0-.7.48,2.15,2.15,0,0,0-.45.74,2.93,2.93,0,0,0,0,1.9,2.27,2.27,0,0,0,.44.75,2,2,0,0,0,.67.49,2,2,0,0,0,.85.18,2.43,2.43,0,0,0,1.94-1,7.38,7.38,0,0,0,1.26-3l1.63-7.22h-.13a6.24,6.24,0,0,1-2.14,1.89,6.1,6.1,0,0,1-5.36.08,5.65,5.65,0,0,1-2-1.66,7.88,7.88,0,0,1-1.27-2.6,12.15,12.15,0,0,1-.45-3.41,14.36,14.36,0,0,1,.41-3.48,13.41,13.41,0,0,1,1.18-3.1,12.41,12.41,0,0,1,1.84-2.6,11.61,11.61,0,0,1,2.41-2,11.36,11.36,0,0,1,6.08-1.72,9.29,9.29,0,0,1,2.5.31,5.7,5.7,0,0,1,1.9.89,3.93,3.93,0,0,1,1.2,1.42,4.48,4.48,0,0,1,.23,3.15,3,3,0,0,1-.51,1,2.26,2.26,0,0,1-1.79.85,2.6,2.6,0,0,1-1.15-.26,2.45,2.45,0,0,1-.91-.76,2.36,2.36,0,0,0,.54-.52,3.89,3.89,0,0,0,.45-.73,4.65,4.65,0,0,0,.3-.85,3.67,3.67,0,0,0,.11-.89,2,2,0,0,0-.57-1.52,2.27,2.27,0,0,0-1.62-.53,4.35,4.35,0,0,0-1.91.45,7,7,0,0,0-1.78,1.25,10.45,10.45,0,0,0-1.55,1.9,13.88,13.88,0,0,0-1.24,2.41,15.6,15.6,0,0,0-1.09,5.73,7.36,7.36,0,0,0,.77,3.75,2.48,2.48,0,0,0,2.25,1.28,3.82,3.82,0,0,0,3.12-1.84,15.46,15.46,0,0,0,2.17-5.44Z"/><path class="cls-2" d="M1060,345.39l-.58,1.14a10.84,10.84,0,0,1-.72,1.21,9.18,9.18,0,0,1-.91,1.13,4.47,4.47,0,0,1-1.16.88,16.41,16.41,0,0,1-.81,4.24,11.1,11.1,0,0,1-1.68,3.22,7.42,7.42,0,0,1-2.37,2,6.06,6.06,0,0,1-2.89.72,7.52,7.52,0,0,1-2.09-.28,4.23,4.23,0,0,1-1.66-.89,4.11,4.11,0,0,1-1.08-1.59,6.44,6.44,0,0,1-.39-2.38,14.16,14.16,0,0,1,.19-2.18,16,16,0,0,1,.61-2.51,14.78,14.78,0,0,1,1.1-2.53,9.55,9.55,0,0,1,1.66-2.21,7.85,7.85,0,0,1,2.29-1.57,7.13,7.13,0,0,1,3-.6q3.86,0,4.14,4.4a2,2,0,0,0,.77-.37,4.52,4.52,0,0,0,.65-.61,6.24,6.24,0,0,0,.53-.69l.37-.59Zm-6.13,4.86q-.78-.29-.78-1.47a1.71,1.71,0,0,1,.92-1.71,3.17,3.17,0,0,0-.36-1.46,1,1,0,0,0-.88-.41,1.73,1.73,0,0,0-1.12.45,5.23,5.23,0,0,0-1,1.2,10.5,10.5,0,0,0-.87,1.71,18.1,18.1,0,0,0-1.1,4,12.17,12.17,0,0,0-.15,1.81,8.06,8.06,0,0,0,.09,1.32,2,2,0,0,0,.29.8,1,1,0,0,0,.52.41,2.38,2.38,0,0,0,.78.11,1.76,1.76,0,0,0,1.17-.53,5.39,5.39,0,0,0,1.08-1.43,11.44,11.44,0,0,0,.87-2.15A17,17,0,0,0,1053.88,350.25Z"/><path class="cls-2" d="M1073.38,338a7.27,7.27,0,0,0-3.36,2.67,7.78,7.78,0,0,0-1.2,4.44,5.78,5.78,0,0,0,.07,1,4.55,4.55,0,0,0,.15.63,2.16,2.16,0,0,0,.15.37.48.48,0,0,1,.07.22,6.07,6.07,0,0,1-1.5-.17,2.66,2.66,0,0,1-1.09-.54,2.36,2.36,0,0,1-.67-1,4.19,4.19,0,0,1-.23-1.48,5.19,5.19,0,0,1,.47-2.14,8,8,0,0,1,1.29-2,11.58,11.58,0,0,1,1.93-1.75,13.88,13.88,0,0,1,2.37-1.39,14.14,14.14,0,0,1,2.64-.91,11.89,11.89,0,0,1,2.75-.33l.68,0,.63.06-5,23.42a8.67,8.67,0,0,1,1.7.58q.85.39,1.73.86l1.78,1q.9.48,1.83.89a12.83,12.83,0,0,0,1.91.66,8,8,0,0,0,2,.25,8.28,8.28,0,0,0,1.35-.11,6.16,6.16,0,0,0,1.39-.41,12.12,12.12,0,0,1-.44,2.13,6.6,6.6,0,0,1-.72,1.62,3.31,3.31,0,0,1-1,1,2.27,2.27,0,0,1-1.23.36,5.21,5.21,0,0,1-2.29-.55,15.47,15.47,0,0,1-2.27-1.37q-1.14-.82-2.3-1.79a29.15,29.15,0,0,0-2.39-1.78,14.94,14.94,0,0,0-2.54-1.37,7.08,7.08,0,0,0-2.76-.55h-.37l-.38,0Z"/><path class="cls-2" d="M1095.73,354a14.63,14.63,0,0,1-1,2.29,9.67,9.67,0,0,1-1.12,1.64,6.34,6.34,0,0,1-1.19,1.08,5.86,5.86,0,0,1-1.18.64,5.12,5.12,0,0,1-1.1.3,6.34,6.34,0,0,1-1,.08,3.13,3.13,0,0,1-2.21-.76,3.48,3.48,0,0,1-1-2.24,12.68,12.68,0,0,1-.88,1.09,6.55,6.55,0,0,1-1.07,1,5.45,5.45,0,0,1-1.32.69,4.68,4.68,0,0,1-1.6.26,4.92,4.92,0,0,1-1.63-.27,3.52,3.52,0,0,1-1.39-.89,4.49,4.49,0,0,1-1-1.62,7.2,7.2,0,0,1-.37-2.45,14,14,0,0,1,.22-2.39,15.13,15.13,0,0,1,.68-2.55,14.57,14.57,0,0,1,1.16-2.45,9.83,9.83,0,0,1,1.63-2.07,7.44,7.44,0,0,1,2.11-1.43,6.23,6.23,0,0,1,2.6-.53,3.36,3.36,0,0,1,2,.48,1.43,1.43,0,0,1,.63,1.18v.24l.35-1.74h4.7l-2.34,11.09a3.27,3.27,0,0,0-.11.53,4.24,4.24,0,0,0,0,.52q0,1.4,1.34,1.4a1.67,1.67,0,0,0,.88-.25,2.85,2.85,0,0,0,.74-.66,4.5,4.5,0,0,0,.59-1,8.56,8.56,0,0,0,.43-1.19Zm-8.22-7.36a1.33,1.33,0,0,0-.06-.36,1.28,1.28,0,0,0-.21-.41,1.23,1.23,0,0,0-.41-.33,1.39,1.39,0,0,0-.65-.13,2.17,2.17,0,0,0-1.3.45,4.83,4.83,0,0,0-1.12,1.19,9.52,9.52,0,0,0-.91,1.68,16.29,16.29,0,0,0-1.1,3.9,11.88,11.88,0,0,0-.14,1.73,4.65,4.65,0,0,0,.18,1.45,1.94,1.94,0,0,0,.42.76,1,1,0,0,0,.53.29,3.09,3.09,0,0,0,.51,0,1.88,1.88,0,0,0,.77-.18,2.81,2.81,0,0,0,.78-.54,4,4,0,0,0,.68-.9A4.44,4.44,0,0,0,1086,354Z"/><path class="cls-2" d="M1111.46,354a14.27,14.27,0,0,1-1.47,3.2,7.67,7.67,0,0,1-1.59,1.82,4.26,4.26,0,0,1-1.58.82,6,6,0,0,1-1.43.19,4.67,4.67,0,0,1-1.82-.31,3.13,3.13,0,0,1-1.18-.83,3.19,3.19,0,0,1-.65-1.18,4.69,4.69,0,0,1-.2-1.36,9.64,9.64,0,0,1,.23-1.94q.23-1.11.5-2.27t.5-2.25A9.19,9.19,0,0,0,1103,348q0-1.67-1.18-1.67a1.53,1.53,0,0,0-.83.24,2.74,2.74,0,0,0-.7.64,4.85,4.85,0,0,0-.57,1,9.37,9.37,0,0,0-.45,1.17l-2.21,10.47h-4.7l3.46-16.32h4.7l-.35,1.69a6,6,0,0,1,1-.95,5,5,0,0,1,1-.55,4.37,4.37,0,0,1,.93-.25,5.8,5.8,0,0,1,.82-.06,4.89,4.89,0,0,1,1.45.21,2.88,2.88,0,0,1,1.91,1.8,4.64,4.64,0,0,1,.27,1.67,9,9,0,0,1-.12,1.41q-.12.76-.29,1.55t-.37,1.57q-.2.78-.37,1.5t-.29,1.33a5.69,5.69,0,0,0-.12,1.08,1.63,1.63,0,0,0,.28,1,1.2,1.2,0,0,0,1,.38,2,2,0,0,0,.92-.21,2.34,2.34,0,0,0,.72-.59,4.58,4.58,0,0,0,.58-.92c.18-.36.35-.75.52-1.17Z"/><path class="cls-2" d="M1117.18,358.22a7.55,7.55,0,0,1-.78.71,5.36,5.36,0,0,1-.9.57,5.08,5.08,0,0,1-1,.39,4.77,4.77,0,0,1-1.19.14,4.92,4.92,0,0,1-1.63-.27,3.52,3.52,0,0,1-1.39-.89,4.49,4.49,0,0,1-1-1.62,7.2,7.2,0,0,1-.37-2.45,14,14,0,0,1,.22-2.39,15.13,15.13,0,0,1,.68-2.55,14.57,14.57,0,0,1,1.16-2.45,9.83,9.83,0,0,1,1.63-2.07,7.44,7.44,0,0,1,2.11-1.43,6.23,6.23,0,0,1,2.6-.53,3.36,3.36,0,0,1,2,.48,1.43,1.43,0,0,1,.63,1.18v.06l.32-1.56H1125l-4,18.93a8.53,8.53,0,0,1-1,2.84,6,6,0,0,1-1.5,1.69,4.65,4.65,0,0,1-1.72.81,7.6,7.6,0,0,1-1.7.21,4.11,4.11,0,0,1-1.43-.25,3.91,3.91,0,0,1-1.23-.72,3.59,3.59,0,0,1-.86-1.11,3.14,3.14,0,0,1-.33-1.44,3.89,3.89,0,0,1,.44-1.93,4,4,0,0,1,1.2-1.32,7.6,7.6,0,0,1,1.79-.92q1-.37,2.21-.72Zm-.53,2.41a12.46,12.46,0,0,0-1.43.57,5.4,5.4,0,0,0-1.16.72,3.16,3.16,0,0,0-.77.92A2.43,2.43,0,0,0,1113,364a.85.85,0,0,0,.1.38,1.09,1.09,0,0,0,.27.34,1.63,1.63,0,0,0,.41.25,1.31,1.31,0,0,0,.53.1,1.36,1.36,0,0,0,.53-.12,1.51,1.51,0,0,0,.53-.41,3.3,3.3,0,0,0,.48-.79,6.27,6.27,0,0,0,.38-1.23Zm3-14.1a2.32,2.32,0,0,0-.1-.35,1.29,1.29,0,0,0-.21-.37,1.12,1.12,0,0,0-.39-.29,1.44,1.44,0,0,0-.63-.12,2.17,2.17,0,0,0-1.3.45,4.83,4.83,0,0,0-1.12,1.19,9.52,9.52,0,0,0-.91,1.68,16.29,16.29,0,0,0-1.1,3.9,11.88,11.88,0,0,0-.14,1.73,4.65,4.65,0,0,0,.18,1.45,1.94,1.94,0,0,0,.42.76,1,1,0,0,0,.53.29,3.09,3.09,0,0,0,.51,0,1.88,1.88,0,0,0,.71-.15,2.83,2.83,0,0,0,.74-.45,3.36,3.36,0,0,0,.67-.76,4.28,4.28,0,0,0,.49-1.08Z"/><path class="cls-5" d="M1132.59,297H1023.4c-.65-9.49-.95-19,.85-28.38,3-15.67,11.43-26.87,26.79-32.06a87.51,87.51,0,0,1,48.79-2.47c14.71,3.46,24.64,12.29,28.8,27.2a112,112,0,0,1,3.87,25.69C1132.64,290.31,1133.18,293.66,1132.59,297Zm-47.44-7.32c0-.34,0-.68-.09-1-.29-1.65-.47-2.74,2.08-2.54,3.74.29,6.18-4.24,4.33-7.5a10.68,10.68,0,0,0-4.25-3.93c-1.25-.71-2.3-1.34-2.36-3.07a3.33,3.33,0,0,0-2.11-2.55,10.33,10.33,0,0,0-10.23.3c-1.79,1-1.69,3.38-3,4.27-1.55,1-3.3,1.75-4.36,3.4-2.28,3.58-1.15,7.17,2.83,8.77.82.33.74.79.69,1.39a12.4,12.4,0,0,0,.78,5.56c1.33,3.43,3.91,4.14,6.59,1.7.92-.84,1.27-.66,2,.13a3.69,3.69,0,0,0,4.52,1.15C1084.93,294.72,1085.41,293.69,1085.15,289.68Z"/><path class="cls-2" d="M1137.85,252.13a10.57,10.57,0,0,1-6.87,9.78c-.74.29-1,.25-1.26-.58-.64-2.12-1.38-4.21-2.16-6.28a1.51,1.51,0,0,1,.39-1.78,3.6,3.6,0,0,0,.26-4.49c-.86-1.56-2.2-2.49-4-2.12a2.32,2.32,0,0,1-2.66-1.14,16,16,0,0,0-2.22-2.33c-.85-.75-1-1.15.18-1.8A12.33,12.33,0,0,1,1137.85,252.13Z"/><path class="cls-2" d="M1035.75,244.23a32.85,32.85,0,0,0-4.66,5.24c-.68,1-1.3.56-2.06.3-2.42-.83-4-.46-5.27,1.15-1.69,2.23-1.36,4.52,1.16,6.22,1.13.76,1.32,1.39.76,2.57a14,14,0,0,0-1.08,3.25c-.27,1.39-.89,1.27-1.94.8-7.83-3.49-8.8-12.84-1.91-18.69A12.32,12.32,0,0,1,1035.75,244.23Z"/><path class="cls-2" d="M1066.61,280.59a5.5,5.5,0,0,1,3.54-4.73,1.19,1.19,0,0,1,1.29.13,10.61,10.61,0,0,0,11.5.14,1.79,1.79,0,0,1,2.34-.07,11.84,11.84,0,0,1,3.54,2.83,3,3,0,0,1,.19,3.81c-1,1.3-2.35,2.31-4,1.55-4.65-2.22-9.17-2-13.94-.28C1068.63,284.87,1066.61,283.08,1066.61,280.59Z"/><path class="cls-6" d="M1077.83,287.54a15.29,15.29,0,0,0,.13-2.14c-.11-1.56.46-1.94,1.89-1.55,3,.81,3.14.91,3.31,4.12,0,.89.08,1.79.05,2.68,0,1.77-1,2.85-2.53,3-1.14.08-2.58-1.27-2.82-2.68a5.66,5.66,0,0,1-.09-.89c0-.83,0-1.67,0-2.5Z"/><path class="cls-6" d="M1076.86,285.19a29,29,0,0,0-.25,5.35c.06,1.71-1.28,2.35-2.54,2.81s-1.89-.46-2.4-1.39a9.19,9.19,0,0,1-.92-5.72c0-.23.07-.61.19-.65a47.36,47.36,0,0,1,5.6-1.69C1077.22,283.76,1076.67,284.75,1076.86,285.19Z"/><path class="cls-2" d="M1097.22,271.95a16.75,16.75,0,0,1-11.31-3.63,14.15,14.15,0,0,1-3-18.88c4.7-7.42,15.72-10.27,23.41-6.05,5.33,2.92,8.44,9.39,7.58,15.76-.8,6-5.73,10.88-12.33,12.31A17.46,17.46,0,0,1,1097.22,271.95Zm5.44-21.48a5.13,5.13,0,0,0-5-5.41,5.46,5.46,0,0,0,0,10.87A5.18,5.18,0,0,0,1102.66,250.46Z"/><path class="cls-2" d="M1055,243.24c11.39.06,18.63,9,15.72,19.34-1.78,6.3-6.59,9.46-12.69,10.81-8.79,1.95-18.53-2.56-20-13.12-1-7,3.74-13.45,10.37-15.81A18.49,18.49,0,0,1,1055,243.24Zm1.18,14.65a5.25,5.25,0,0,0,5.13-5.4,5.1,5.1,0,1,0-10.18-.08A5.26,5.26,0,0,0,1056.13,257.9Z"/><path class="cls-3" d="M1102.66,250.46a5.18,5.18,0,0,1-5,5.46,5.46,5.46,0,0,1,0-10.87A5.13,5.13,0,0,1,1102.66,250.46Zm-4.85,1.44a1.24,1.24,0,0,0-1.15,1.4c0,.76.44,1.28,1.27,1.23s1-.61,1-1.26A1.22,1.22,0,0,0,1097.82,251.9Z"/><path class="cls-3" d="M1056.13,257.9a5.26,5.26,0,0,1-5-5.48,5.1,5.1,0,1,1,10.18.08A5.25,5.25,0,0,1,1056.13,257.9Zm1.31-2.85a1,1,0,0,0-1.23-1,1.15,1.15,0,0,0-1,1.31c0,.78.37,1.38,1.17,1.36S1057.49,256.05,1057.45,255Z"/><path class="cls-2" d="M1097.82,251.9a1.22,1.22,0,0,1,1.15,1.37c0,.65-.28,1.21-1,1.26s-1.23-.47-1.27-1.23A1.24,1.24,0,0,1,1097.82,251.9Z"/><path class="cls-2" d="M1057.45,255c0,1-.26,1.64-1.07,1.65s-1.17-.58-1.17-1.36a1.15,1.15,0,0,1,1-1.31A1,1,0,0,1,1057.45,255Z"/></svg>