<svg id="Layer_1" data-name="Layer 1" xmlns="http://www.w3.org/2000/svg" viewBox="0 0 500 500"><defs><style>.cls-1{fill:#4f2403;}.cls-2{fill:#25829f;}.cls-3{fill:#a3be92;}.cls-4{fill:#ff4b00;}.cls-5{fill:#f8f7f5;}.cls-6{fill:#e6ac92;}.cls-7{fill:#fdbf5e;}.cls-8{fill:#c68d77;}.cls-9{fill:#654237;}.cls-10{fill:#f85e51;}.cls-11{fill:#ce957e;}.cls-12{fill:#dcb605;}.cls-13{fill:#2d1515;}.cls-14{fill:#d3e8f5;}.cls-15{fill:#bf6b26;}.cls-16{fill:#ef8813;}.cls-17{fill:#7c9b62;}.cls-18{fill:#060c0c;}.cls-19{fill:#37a9bc;}</style></defs><title>sitting</title><path class="cls-1" d="M417.93,181l15.39,16.68s12.83-20.52,5.13-32.07V164.3Z"/><path class="cls-1" d="M444.86,218.18c2.72-6.92,12.73-22.73,13.93-30.17a98.6,98.6,0,0,0-2.91-44.19c5.33-6.62,9.49-13.76,10.32-22.46a3,3,0,0,1,1.66-2.28c14.36,27.22,13.76,54.36-.5,81.39-2.46,4.66-13.88,20.17-17.37,24.13C447.62,223.43,447.71,218.6,444.86,218.18Z"/><path class="cls-1" d="M319.81,432.35c1.6-1.64,3.61.2,5.3-.61,4.63,3.93,8.58,8.59,13.6,12.13C355.95,456,375.26,458.19,395.54,456c2.44-.26,1.91-1.32.83-2.67-3.51-4.41-6.22-9.3-6.94-14.92-.37-2.91-1.71-3.29-4.11-3.17-8.25.42-16.42-.23-24.13-3.4s-14.78-7-19.05-14.62c5.61-4.65,10-10.58,15.83-15L388.54,431l1.4-10.6c-3.18.59-4.16,3.44-6.54,5.08.48-6.77,5.78-10.48,9.23-15.63-2.68,0-3.75,2.44-5.89,2.09l-.08-.06c.07-1.2.9-2,1.58-2.85,4.39-5.68,10.72-9.49,14.84-15.49a12.14,12.14,0,0,1,6.91-5l.14.16-1.94,4.73-.29.59.56-.32c1.53-1.18,3.08-2.34,4.58-3.55,2.85-2.3,5.78-4.41,10.07-4.61-1.64,2.38-4.74,3.14-4.82,6.52,15.11-4.15,27.08,1,37.25,12.34,7-14.72,11.37-29.39,8.91-45.42l6.41-1.34c26.14,47.15,1.28,109.63-55.58,122.67C376.08,489.21,335.5,468.69,319.81,432.35Z"/><polygon class="cls-1" points="148.55 464.47 172.92 451.64 154.96 447.79 148.55 464.47"/><path class="cls-1" d="M434.91,312.94s34.91,35.24,43,61.32l-26.59-8.56-22.79-34.8Z"/><path class="cls-2" d="M46.55,262.09c-1-72.58,133.78-204.54,206.37-204.26,72.4.28,212.08,133.33,204.26,205.31C449.48,334,326,470.65,255,464.25,182.72,457.73,47.6,334.68,46.55,262.09Z"/><path class="cls-1" d="M152.25,456.2l-2.36,7.91a96.5,96.5,0,0,1-35.6,10.68c-41.9,3.91-83-27.79-89.45-69.36-5.51-35.26,9.24-68.43,38.73-86.55,3.74-2.3,7.53-4.87,12.09-5.56,1.58,1.67-.59,2.14-1.12,2.81-16.38,20.72-19.26,44.09-13.75,69.14a6.42,6.42,0,0,1-1.08,3.09c-5.41,10.21-5.64,20.72-1.36,31.3,1.29,3.2,1.81,4.57-2.68,5-7.78.68-10.18,5-7.76,12.27,3.7-4.1,4.25-4.05,7.79.66,1.33,1.77,2.59,3.61,4,5.28,5.24,6,9.55,6.13,14.8.09,1.45-1.67,2.49-2,4.51-1.06,10.94,5.18,21.73,4.56,32.31-1.18.94-.51,1.8-1.42,3-.72C126.22,447.23,138.32,453.85,152.25,456.2Z"/><path class="cls-3" d="M60.79,385.27c-5.51-25.05-2.63-48.42,13.75-69.14.54-.68,2.71-1.14,1.12-2.81,9.47-6.37,18.62-13.21,28.43-19.06,6.25-2.54,12.48-5.12,18.76-7.61,1.46-.58,2.94-1.79,4.63-.5,1.36,5.88,3,11.64,6.68,16.59.07,2.28-1.48,2.89-3.29,3.57A143.72,143.72,0,0,0,109,316.4c-10,5.82-19.3,12.52-24.22,23.63-.67,1.35-1.44,2.66-2,4.06-3.5,9-3.48,18.39-2.79,27.83-1.7.56-3.39,1.14-5.1,1.66C68.6,375.52,65.08,380.86,60.79,385.27Z"/><path class="cls-3" d="M315.47,100.7c1.24-4.13,5.25-5.44,8.11-7.92,2.47-2.14,6-3,7.6-6.22,2.4.17,4.16-1.38,6.14-2.3a58,58,0,0,1,29.58-5c2.64.7,5.29,1.38,7.93,2.11,11.32,3.09,21,9.42,31,15.32-.81,2.45-2.84,4-4.25,6.08-4.39,6.38-7.86,13.12-8.11,21-.53,17.12,18.39,34.7,36.39,33.92,10.93-.47,18.85-6.56,26.07-14A98.61,98.61,0,0,1,458.79,188c-1.2,7.44-4.31,14.21-7,21.13-6.08,8.85-12.88,17-21.84,23.16-11.65,8-24.44,13.64-37.71,18.29a3.76,3.76,0,0,1-3.22,0c-1.81-5.77-3-11.78-6.29-17-.09-2.44,1.86-2.75,3.51-3.41,5-2,10.25-3.3,14.76-6.38,25.2-6.54,44.75-38.81,37.1-59.07l-14.75,13.12c-2-.3-3-1.94-4.22-3.18q-19.21-19.25-38.36-38.55c-1.16-1.17-2.19-2.52-3.88-3,0-.38-.1-.75-.15-1.13,5.14-5.24,10.25-10.51,15.44-15.7,1.42-1.42,1.06-2.19-.46-3.13-7.08-4.4-14.2-8.79-22.26-11.13-7.19-2.08-14.42-2.59-21.28,1.41-6.32,1.35-11,5.59-16,9.24-1.53,1.12-2.94,2-4.85,1.84Z"/><path class="cls-4" d="M410,388.46a12.14,12.14,0,0,0-6.91,5c-4.13,6-10.45,9.81-14.84,15.49-.67.87-1.51,1.65-1.58,2.85l-.59.82.47.25.2-1c2.14.35,3.2-2,5.89-2.09-3.45,5.14-8.76,8.85-9.23,15.63,2.38-1.63,3.35-4.48,6.54-5.08l-1.4,10.6c-9.94-9.35-14.18-13.25-24.49-22.94,1.3-2.36,38.4-51.13,40.24-51.36L431,383.95c7.51,7.66,8,7.47,11.16-3.1,6-20.37-3.06-33.09-24.45-39.14-1.92-1.67-4.42-2.11-6.64-3.16-1.32-.62-2.92-1-3.34-2.76,3.23-5.34,4.25-11.4,5.64-17.34,3.21-2.29,6,.36,8.53,1.26,9.54,3.34,18.69,7.53,26.64,14.09a46.64,46.64,0,0,1,15.91,25.09c2.47,16-1.91,30.71-8.91,45.43C445.38,393,433.41,387.84,418.3,392c.08-3.38,3.18-4.15,4.82-6.52-4.29.2-7.21,2.31-10.07,4.61-1.51,1.21-3.05,2.37-4.58,3.55l-.28-.28,1.94-4.73a1.57,1.57,0,0,0,1.55-1l.15-.28-.11.32A1.6,1.6,0,0,0,410,388.46Z"/><path class="cls-5" d="M289.39,220.11c-2.32-10.31-6.22-20.13-9.31-30.21-2.12-6.9-4.32-13.78-6.66-20.61-.79-2.31-.56-3.47,2-4.27q18.49-5.78,36.87-11.88c2.62-.87,3.44.12,4.14,2.34,2.53,8.08,5.15,16.14,7.78,24.19.77,2.36,1.28,4.85,2.9,6.87a4.6,4.6,0,0,0,1.16,3.09c-.51,1.58.15,3,.61,4.43,1.61,5,3.11,10,4.89,15,1,2.9.29,4.23-2.65,5.1-5.16,1.53-10.21,3.41-15.31,5.15-6.23,1.2-12.16,3.44-18.08,5.6-4,1.44-6.61,1.51-7.64-3.21Zm32.32-24.26c-.21-1.12.25-2.68-1.4-2.95s-1.62,1.58-2.58,2.23c-2.81.45-1.46,4.62-4.42,4.93h0c-.92-.06-2.17.08-2.31-1.09-.57-5-3.08-2.37-5.19-1.42h0a5,5,0,0,0-4.16,1.66h0c-2.1,0-4.25-.19-5.82,1.67-1.62.28-4-.78-4.4,2.27,2.12.12,3.13-1.32,4.39-2.28,3.4,1.19,3.4,2,0,5l0,0c-1,.29-1.84-1.81-3.16-.15s1,1.72.94,2.25c-.4,2.55,2.81,4.43,1.7,6.52s0,1.48,1.17,2c3.57,1.49,4.58-2.83,7.4-3,.68-.05,0-.69-.42-1-1.05-.78-1.89-2.06-.63-3s2.57.14,3.1,1.29c1.12,2.43,2.16,3.58,4.37.94a2.48,2.48,0,0,1,3.08-.5,1.63,1.63,0,0,1,.42,2.53c-.81,1-.29,1.41.56,1.78.66.29,1.38.47,1.92-.13s1-1.29.08-2.11c-2-1.91-1.6-4.12,1-3.76,2.93.4,3.74-1.32,5.14-2.77,1-.61,3.35,1.32,3-.92C325,202.33,324.32,198.65,321.71,195.85Zm-19.2-6.76q0-.38-.06-.75c4.62-1.59,9.24-3.16,13.85-4.8.92-.33,3.08-.17,1.25-2.17a2.46,2.46,0,0,0-.21-.78l.17-1.52-1.19-.85c.71-2.44-1.08-1.51-2.13-1.58v-1.45c.44-.31,1.17-.57,1.25-1,.22-1.09-.71-1-1.32-.82-1.73.48-3.44,1.06-5.15,1.61L286,182.45c-.75.24-1.81.26-1.62,1.42,0,.24.9.34,1.38.51l0,1.44a1.06,1.06,0,0,0,0,1.82l.08,1.69.74.86.24,1.1c0,.59,0,1.16.59,1.49l.33,1.1c0,.57.11,1.33.74,1.21a83.27,83.27,0,0,0,14.41-4.51C303.72,190.28,303.21,189.46,302.51,189.09Zm10.68-23c-.64-1.39-.29-3.9-3.52-2.81-8.78,3-17.63,5.73-26.46,8.55-1.71.55-2.54,1.3-1.8,3.31s1.5,2.78,3.63,2.07c8.67-2.86,17.38-5.62,26.06-8.44C312.27,168.39,313.61,168,313.19,166.08Zm-33.69,2.38c10.52-2.74,21-5.5,30.91-10.18C299.83,160.86,289.4,163.87,279.5,168.46Zm22.68,50.34c-2.15-.51-3.58-.62-4.41,1.08-.26.53-.13,1.3.42,1.34C299.93,221.34,300.15,219.22,302.18,218.81Zm21.13-7.41c1.4-.17,2.81,1.86,4,0a2,2,0,0,0-.56-1.77C325.15,209.2,324.76,211.25,323.31,211.4ZM306,217.67c-.2-1.09-1-.95-1.57-1.07-.95-.21-1.11.46-1,1.18s.37,1.39,1.23,1A5.67,5.67,0,0,0,306,217.67Zm6.77-21.88.64-.27c-.08-.09-.15-.26-.23-.27a4,4,0,0,0-.69.07Z"/><path class="cls-1" d="M417.72,341.71c21.39,6.05,30.48,18.77,24.45,39.14-3.13,10.57-3.64,10.76-11.16,3.1l-26.73-27.28c1.38-3.85,5.07-5.68,7.53-8.59C413.68,345.87,415.74,343.82,417.72,341.71Z"/><path class="cls-6" d="M402.35,332.93a30.8,30.8,0,0,0-16.29-.68c-4.92,1-9.88-.54-14.79-1.35-1.72-.28-2.27-1.08-1.34-2.51,1.33-2,.08-2.63-1.52-3.18-3.79-1.32-7.56-2.73-11.38-4-2.12-.7-3.61-1.77-2.78-4.18s2.63-2,4.48-1.36c1.3.47,2.63.88,3.94,1.33,6.25,2.14,7.35,1.62,9.91-4.78,2.45-6.12,4.69-7.15,11-4.89,5.45,1.94,11.09,3.37,15.42,7.8a8.47,8.47,0,0,0,7.33,2.1,8.81,8.81,0,0,1,5.5,1c-6.36.5-6.45.49-7.58,7.14C403.83,328,402.2,330.22,402.35,332.93Z"/><path class="cls-6" d="M381.6,250.57a15.21,15.21,0,0,0-10.06,3.84c-4.76,3.94-11.46,3.8-17.09,6.11a2.51,2.51,0,0,1-1.77-.67c.64-4.57-5.51-3.13-5.58-6,0-2-.1-2.79-1.78-4-1.91-1.36-1.44-3.22.95-4,1.69-.53,3.46-.78,6.17-1.36-4.44,0-7.91-.15-11.36.06-2.15.13-4.63.74-5-2.08-.38-3,2.37-2.25,4.17-2.58,6.71-1.22,13.62.06,21.08-1.85-2.37-1.17-4.21-2.06-6-3s-3.45-2.27-2.36-4.57,2.91-.74,4.26-.16c5.33,2.31,11.07,3.66,16.09,6.73,1.24.76,2.71,1,3.45-.82a1.94,1.94,0,0,1,2.37-1.17c-1.89,2.38-2,4.86-.7,7.59C379.61,245.27,380.55,247.95,381.6,250.57Z"/><path class="cls-6" d="M316,354.25a24.84,24.84,0,0,0,2.58,17.34c-3.64-1.38-6.65,1-10,1.62-3.73.73-5.93,2.54-5.75,6.57-2.09-2.23-.6-5-1-7.48-.93-5.43-5.9-8.2-7.94-12.83-1.34-3.63-2.63-7.28-4-10.89-.91-2.33-.37-3.68,1.85-5.09,4.12-2.62,8.35-5.14,11.57-9,2.12-2.54,4.19-1.31,6.07,3.49Z"/><path class="cls-7" d="M363.14,293.52c12.73-4.26,25.53-8.3,38.49-11.79l.95,4.21L364.1,297.51Z"/><path class="cls-7" d="M381.6,250.57c-1.05-2.62-2-5.3-3.19-7.85-1.28-2.74-1.2-5.21.7-7.59,1.49.15,2.25-1.39,3.59-1.59,3.28,5.23,4.48,11.24,6.29,17C386.53,250.25,384.08,254.44,381.6,250.57Z"/><path class="cls-7" d="M402.35,332.93c-.15-2.71,1.48-5,1.92-7.54,1.14-6.65,1.22-6.64,7.58-7.14l1.52.21c-1.38,5.94-2.4,12-5.64,17.34l-4.39-1.58-.85-.76A1.07,1.07,0,0,1,402.35,332.93Z"/><path class="cls-8" d="M316,354.25,309.4,338c3-1.57,5-.51,6.35,2.35C315,345,318,349.57,316,354.25Z"/><path class="cls-9" d="M402.57,285.94l-.95-4.21c1.19-1.11,2.64-.66,4-.69l.26,3.16A3.39,3.39,0,0,1,402.57,285.94Z"/><path class="cls-6" d="M363.14,293.52l1,4c-1.4.08-3.4,1-3.89-.79S361.47,294,363.14,293.52Z"/><path class="cls-6" d="M405.9,284.19l-.26-3.16c1.48-1.59,2.85-1.05,3.27.69C409.46,284,407.69,284.3,405.9,284.19Z"/><path class="cls-9" d="M284.86,225.65l.68-.68Z"/><path class="cls-9" d="M285.69,224.82l.69-.68Z"/><path class="cls-6" d="M402.51,333.45l.85.76Z"/><path class="cls-9" d="M287.36,223.16l.69-.68Z"/><path class="cls-1" d="M38.1,156C-2,106.36,23.34,33.47,85.59,19.62c44.57-9.92,90,19.13,100,64a5.86,5.86,0,0,1,0,1.24c-3.91-1.49-7.09-4.09-10.37-6.59a54.58,54.58,0,0,0-19.81-9.15c-10.36-2.67-20.86-1.83-31.35-1.42-7.19-22.87-43.5-31.81-61-10.35a11.79,11.79,0,0,1-2.41,2.24C50.19,66.77,45.49,76.73,47,89.3c1.67,14.3,7.73,25.76,22.11,31.1,2.85,1.06,5.89,1.59,8.84,2.36.38,9.25,2.85,18,6.12,26.59,2.42,6.38,6.33,12,9.37,18a69.76,69.76,0,0,0-11.57,11.28c-4.82,5.82-14,2.66-15.92-3.31A58.19,58.19,0,0,0,62.14,167c-3.94-7.8-10.1-11.91-19.06-11.25C41.42,155.88,39.76,155.9,38.1,156Z"/><path class="cls-10" d="M124.09,67.69c10.49-.41,21-1.25,31.35,1.42a54.58,54.58,0,0,1,19.81,9.15c3.28,2.5,6.46,5.1,10.37,6.59,3.38,4,4.28,9.24,7.23,13.44,1.66,2.36,3.07,4.89,4.6,7.34,1,5.89,4.33,11,5.74,16.71a63,63,0,0,0,2.05,6.67c.54,1.46-.69,1.92-1.23,2.79l-14.83,3.6a5.3,5.3,0,0,1-1.84-3.1c-2.65-8.12-5.19-16.3-9.48-23.75-3.09-5.36-6.27-10.72-12.13-13.66.08-1.79-1.47-2.2-2.57-2.92a41,41,0,0,0-17.82-6.24c-4.15-.51-8.26-1-13-.05l20.14,21.79c-5.61,6.48-12,12.18-18,18.32-2.28,2.35-5.2,4.17-6.51,7.38-4.21,2.1-6.75,6-10.09,9.11-3.06,2.81-5.84,5.92-8.87,8.76-2,1.87-2.08,3.5-.47,5.74a164.14,164.14,0,0,0,14.77,17.94c1.22,1.27,2.85,2.42,1.86,4.6-4.41,2.76-7.52,6.9-11.14,10.51-5.26-2.14-7.69-7.22-11.31-11-3.4-3.56-6.27-7.63-9.38-11.47-3-6-6.94-11.63-9.37-18-3.27-8.59-5.74-17.35-6.11-26.59,3.47-.07,6.94,0,10.4-.23,7.18-.46,14.09-2.31,19.87-6.57a37.12,37.12,0,0,1,10.1-5.34c5.31-1.86,10-4.83,13.38-10.39-5.85.12-9.63,5.27-15.44,4.22,4.34-3.49,9-6.34,11.6-11.73-2.56.42-4.41,2.34-7.43,1.67C127.08,86,126.8,77,124.09,67.69Z"/><path class="cls-11" d="M169.36,280.92c-.26,1.85-1.17,3.2,1.57,4.85,3.54,2.13-.58,3.42-2.42,5.29,3.17-.16,5.74-.25,8.3-.44,1.83-.14,3.52.11,3.7,2.28s-1.64,2.46-3.13,2.59c-5.23.48-10.48.79-15.72,1.19-1.61.12-3.35-.17-4.77,1.39,1.42,1.67,3.61,1.92,5.32,3s2.31,2.46,1.58,4.21c-.81,1.93-2.38.86-3.58.49-3.16-1-6.09-2.63-9.42-3.08-2.13-1-4.47-1.67-6.33-3-2.47-1.79-3.95-.88-5.41,1.11a18.21,18.21,0,0,0-1.08-6.42c-.88-2.68-2.76-5.14-2.34-8.2a19.78,19.78,0,0,0,9-4.35c4.68-4,11.27-4.21,16.89-6.48,1.08-.44,2.73.54,2.36,1.6-1.6,4.6,1.87,2.72,3.64,3.12A8,8,0,0,1,169.36,280.92Z"/><path class="cls-3" d="M186,219.37c-.83-.67-1.62-1.2-2.3-1.86-11.12-10.68-22.19-21.41-33.38-32-1.81-1.71-1.51-2.7.06-4.3q11.26-11.45,22.31-23.12c1.6-1.7,2.59-1.79,4.29-.13q16.7,16.3,33.59,32.41c1.59,1.52,1.57,2.5.1,4-7.6,7.72-15.13,15.52-22.7,23.27C187.37,218.2,186.72,218.7,186,219.37Zm-9.89-57.55c-1.5.14-2.1,1.16-2.85,1.93-5.69,5.89-11.24,11.92-17.08,17.65-2.31,2.27-2,3.57.17,5.64q13.32,12.58,26.34,25.47c1.92,1.9,3.06,1.56,4.7-.2,5.69-6.08,11.39-12.16,17.29-18,2.11-2.1,2-3.36-.11-5.32-8.87-8.4-17.59-16.95-26.38-25.43C177.46,162.87,176.68,162.32,176.07,161.82Z"/><path class="cls-12" d="M144.49,238.06l1.33.22,1,.92a2.39,2.39,0,0,1,.2.79c-.8,7.27-.91,7.44-8,6-14.22-2.83-28.41-5.82-42.62-8.66-6.75-1.35-7.61-3.36-3.91-9.73l1-.1,1.39.13c1.13,5.43,6.51,3.67,9.4,4.4,11,2.76,22.26,4.17,33.23,7.11C139.81,239.79,142.58,241.26,144.49,238.06Z"/><path class="cls-7" d="M144.49,238.06c-1.91,3.2-4.68,1.74-7.08,1.1-11-2.94-22.27-4.35-33.23-7.11-2.89-.73-8.27,1-9.4-4.4,13.37,2,26.48,5.32,39.73,7.92C137.88,236.22,141.35,236.5,144.49,238.06Z"/><path class="cls-7" d="M135.63,286.12c-.42,3.06,1.46,5.52,2.34,8.2a18.21,18.21,0,0,1,1.08,6.42l-4.88,2c-3.65-5-5.32-10.71-6.68-16.59C130.2,285.51,132.91,282.87,135.63,286.12Z"/><path class="cls-7" d="M146.78,239.19l-1-.92C146.35,238.36,147,238.33,146.78,239.19Z"/><path class="cls-7" d="M93.4,227.52l-1,.1C92.65,226.69,93,227.32,93.4,227.52Z"/><path class="cls-13" d="M467.87,119.08a3,3,0,0,0-1.66,2.28c-.83,8.7-5,15.85-10.32,22.46-7.22,7.39-15.14,13.48-26.07,14-18,.78-36.92-16.8-36.39-33.92.25-7.92,3.72-14.66,8.11-21,1.4-2,3.44-3.63,4.25-6.08,5.43-4.34,10.52-9.13,17.62-10.87,2.27-.56,5-.25,6.71-2.57,3.14,1.4,6.58.5,9.8,1.25,1.85.43,1.56-.88,1.73-2,1.22-7.34,6.11-10.92,13.56-10,8.28,1.07,16.18,7.95,18.42,16,1.87,6.73-.62,11.84-7.13,14.17-1.73.62-2.6,1-1.64,3C466.79,110,465.72,114.93,467.87,119.08Z"/><path class="cls-1" d="M430.12,83.29c-1.66,2.32-4.43,2-6.71,2.57-7.1,1.74-12.2,6.53-17.62,10.87-9.93-5.9-19.65-12.23-31-15.32-2.64-.72-5.29-1.4-7.93-2.11C388.5,72.13,409.6,73.11,430.12,83.29Z"/><path class="cls-1" d="M348.15,103.37c6.86-4,14.09-3.5,21.28-1.41,8.07,2.34,15.19,6.72,22.26,11.13,1.52.94,1.88,1.71.46,3.13-5.19,5.19-10.3,10.46-15.44,15.7Z"/><path class="cls-5" d="M254,90.47c.12-7.82,3.51-13.26,10.05-16.39s12.94-2.25,18.77,2.1c1.41,1.05,2.39,2.35,4.68,1.68,1.85-.55,3,1.23,1.85,2.78-1.31,1.79-.8,3.21-.43,5,1.49,7.23-.29,13.59-6.16,18.24A17.74,17.74,0,0,1,254,90.47ZM284.09,90a12.45,12.45,0,1,0-12.28,12.46A12.17,12.17,0,0,0,284.09,90Z"/><path class="cls-4" d="M320.79,376.88c2,1,2.88,2.65,3.57,4.77C328,393,332.19,404.08,339,414a9.55,9.55,0,0,0,3.14,3.23c4.27,7.58,11.43,11.49,19,14.63s15.88,3.82,24.13,3.4c2.4-.12,3.73.26,4.11,3.17.72,5.62,3.43,10.51,6.94,14.92,1.07,1.35,1.61,2.41-.83,2.67-20.28,2.2-39.59,0-56.83-12.12-5-3.54-9-8.2-13.6-12.13-3.67-6.79-8.47-12.88-11.71-19.95a220.12,220.12,0,0,1-9.64-25.13,7.08,7.08,0,0,1-.35-4.06l.86,0A94.34,94.34,0,0,0,320,377.7Z"/><path class="cls-5" d="M158.85,348.85c2-9,4-18,5.9-27,.23-1.06.58-1.79,1.78-1.76,15.25,4.21,30.67,7.73,46.21,10.69a17.15,17.15,0,0,1,1.86.85c6.26,2,6.23,2,4.83,8.22q-4,17.64-7.87,35.29c-3.11-2.91-3.11-2.91-5.85-1-.41-.9,1.07-1.87,0-2.61s-1.33.17-1.73.93-1.21.95-1.19-.14c0-1.81-.68-1.78-2.26-1.82a15.36,15.36,0,0,1-6.9-1.45c-3.41-1.9-3.74-.27-3.74,2.45l-1.62-.48c.54-1.84.69-3-1.88-3.78A23.36,23.36,0,0,0,180,366c-4.24-.15-8.28-1.62-12.52-2.09a45.41,45.41,0,0,0-11-.31h0c-.19-2.45,1.42-4.73.7-7.23l.22-1.22c.11-.07.3-.14.3-.2a3.46,3.46,0,0,0-.15-.64l-.21-.06-.19.12,1-2.5C159.3,351.08,159.08,350,158.85,348.85Z"/><path class="cls-3" d="M152.25,456.2c-13.93-2.35-26-9-37.84-16.24a58.29,58.29,0,0,0,12.83-17c7.32,4.24,14.61,8.54,22.82,10.91,9,2.59,17.53,2,25.46-3.36,5-1.85,8.79-5.53,12.83-8.79,1.7-1.37,3.31-2.25,5.5-1.68a21.48,21.48,0,0,0,12.05,12.88,5,5,0,0,1-1.63,3.26c-10.22,8.9-21.12,16.6-34.71,19.55A49.24,49.24,0,0,1,152.25,456.2Z"/><path class="cls-1" d="M175.52,430.53c-7.93,5.34-16.5,5.95-25.46,3.36-8.21-2.37-15.5-6.67-22.82-10.91-1-1,.12-1.79.28-2.67l17.61-19.16c1.7.2,2.53,1.62,3.58,2.67Q162.14,417.14,175.52,430.53Z"/><path class="cls-11" d="M231.6,401.07c1.27-.75,2.59-1.25,3.65.22s.09,2.57-.94,3.56c-4.75,4.6-9.46,9.23-14.27,13.75a8.72,8.72,0,0,1-3.83,2.33c-3.12.64-5,2.55-6.64,5l-.83.1c-1.59-.5-2-2.21-3.15-3.15-2.6-2.1-4.12-5.63-8-6.06,2.37-.91,3.67-2,3.65-5.17,0-4.94,1-9.89,1.73-14.82.18-1.24,0-3.09,2.08-3,1.83.08,2.49,1.5,2.82,3.1s-.44,3.58.57,5.5c2.77-1.29,3.54-4.12,5-6.3,2-3,3.79-6.11,5.76-9.13.86-1.32,1.62-3.36,3.75-2.18s1.12,2.8.29,4.31c-.33.61-.63,1.23-.94,1.85a14.73,14.73,0,0,0-3.41,5.65l-.82,1.66-.29.58.55-.31,1-1.54a11.94,11.94,0,0,0,4-4.92c1.52-1.91,2.65-5.71,5.61-3.88,3.15,1.94-.44,4.13-1.28,6.17a6.79,6.79,0,0,0-.25,1.58c-.56,0-.79.33-.83.84l-1.08.23.19.32.85-.58.84-.83a6.26,6.26,0,0,0,1-.65c1.39-1.31,2.88-3.11,4.8-1.2s-.34,3.1-1.26,4.46c-.38.56-.85,1.05-1.28,1.58a10.92,10.92,0,0,0-4.35,5.58C229,404.05,230.5,402.81,231.6,401.07Z"/><path class="cls-3" d="M145.13,401.14l-17.61,19.16c.79-5.79-.68-11.58-.2-17.33,1.07-12.77-5-21.25-15.53-27.4a10.52,10.52,0,0,0-6.37-1.3c-7.15.53-13.75-2.41-20.69-3.11L99.13,355c2,.21,2.93,1.94,4.16,3.16q12.48,12.3,24.86,24.69,7,7.21,14,14.43C143.33,398.44,144.78,399.38,145.13,401.14Z"/><path class="cls-14" d="M255.8,399.22c-9.16-2.6-14.24-8.21-15-16.13s5.76-17.58,14.33-19.1a18.13,18.13,0,0,1,20.24,11.52,17.81,17.81,0,0,1-8.69,21.91c-1.76.91-4,1.22-4,4,0,.89-1,1.22-1.91,1.21-2.25,0-1.8-2.09-2.46-3.31,1-1.19.7-5.37,3.91-1.69l1.2-4.33.27.14c1.51.08,2.93,0,2.91-2.05l2.1-2.12c3.44-.64,3.62-3.45,3.75-6,.19-3.84.51-7.86-3.37-10.42-.3-.2-.81-.09-1.23-.13a.39.39,0,0,1-.42-.42c-.56-4.05-3.86-4.44-6.81-4.55-3.63-.13-7.95-1.28-9.77,3.69l-2.12,2.11c-4.45.35-3.93,4.32-4.29,6.88-.4,2.84-.58,6.4,3.09,8h0c-.12,2.9,1.28,4.28,4.17,4.17l.08-.13c-.09,1.86,1.31,2.45,2.67,2.57C258.3,395.4,257.9,397,255.8,399.22Z"/><path class="cls-7" d="M197.6,416.86c3.87.43,5.39,4,8,6.06,1.17.94,1.56,2.65,3.15,3.15q.16,2,.32,4l-1.82,1.71a1.1,1.1,0,0,0-1.28,1l-.05,0a21.47,21.47,0,0,1-12.05-12.87l.09-.08c.52,0,.78-.2.75-.73l1.44-.75a.78.78,0,0,0,.38-.36.57.57,0,0,1,.26-.49l.65-.63Z"/><path class="cls-7" d="M320,377.7a94.33,94.33,0,0,1-15.75,4.93c-.16-.91,0-2-1.21-2.36a.36.36,0,0,1-.14-.48c-.19-4,2-5.84,5.75-6.57,3.31-.65,6.32-3,10-1.62v.09a3.51,3.51,0,0,0,1.5,4.23.44.44,0,0,1,.22.5Z"/><path class="cls-14" d="M156.46,363.59a45.41,45.41,0,0,1,11,.31c4.25.47,8.29,1.94,12.52,2.09a23.36,23.36,0,0,1,6.37,1.26c2.58.82,2.43,1.94,1.88,3.78C177.53,369,166.83,367,156.46,363.59Z"/><path class="cls-14" d="M189.86,371.51c0-2.71.33-4.35,3.74-2.45a15.36,15.36,0,0,0,6.9,1.45c1.58,0,2.27,0,2.26,1.82,0,1.09.77,1,1.19.14s.65-1.66,1.73-.93-.39,1.71,0,2.61c2.74-1.9,2.74-1.9,5.85,1-.77,1.6-2.17,1-3.25.72C202.15,374.49,196,373,189.86,371.51Zm4.72-.31.11-.3-.38.2Z"/><path class="cls-5" d="M263.4,393.32l-1.2,4.33c-3.21-3.68-2.89.5-3.91,1.69l-2.5-.12c2.09-2.24,2.5-3.82-1.39-4.16-1.35-.12-2.75-.71-2.67-2.57C255.56,393.85,259.4,394.71,263.4,393.32Z"/><path class="cls-14" d="M157.17,356.36c.72,2.5-.89,4.78-.7,7.23C154.7,361,156.45,358.73,157.17,356.36Z"/><path class="cls-3" d="M209.06,430.12q-.16-2-.32-4l.83-.1C209.67,427.38,211.06,429,209.06,430.12Z"/><path class="cls-6" d="M303.06,380.26c1.21.37,1,1.45,1.21,2.36l-.86,0Z"/><path class="cls-3" d="M206,432.88a1.1,1.1,0,0,1,1.28-1A1.37,1.37,0,0,1,206,432.88Z"/><path class="cls-14" d="M157.54,354.3a3.46,3.46,0,0,1,.15.64c0,.06-.19.13-.3.2Z"/><path class="cls-6" d="M197.42,417l-.65.63Z"/><path class="cls-6" d="M196.51,418.13a.78.78,0,0,1-.38.36A.34.34,0,0,1,196.51,418.13Z"/><path class="cls-3" d="M194.69,419.24c0,.53-.24.76-.75.73Z"/><path class="cls-15" d="M408.47,393.62l-.56.32.29-.59Z"/><path class="cls-4" d="M84.73,371.16c6.95.7,13.55,3.64,20.69,3.11a10.52,10.52,0,0,1,6.37,1.3c10.51,6.15,16.6,14.63,15.53,27.4-.48,5.75,1,11.54.2,17.33-.16.88-1.31,1.67-.28,2.67a58.37,58.37,0,0,1-12.84,17c-1.24-.7-2.11.21-3,.72C100.78,446.42,90,447,79.05,441.86c-2-1-3.06-.61-4.51,1.06-5.25,6-9.56,6-14.8-.09-1.45-1.67-2.71-3.51-4-5.28-3.54-4.71-4.09-4.76-7.79-.66-2.42-7.3,0-11.58,7.76-12.27,4.49-.39,4-1.77,2.68-5-4.27-10.58-4-21.09,1.36-31.3a6.42,6.42,0,0,0,1.08-3.09c4.29-4.41,7.81-9.74,14.15-11.68,1.71-.52,3.4-1.11,5.1-1.67A7.11,7.11,0,0,0,84.73,371.16ZM61.36,426.11c-.71,5.17,6.45,13.8,11.06,13.84.59,0,1.22,0,1.27-.68a1.86,1.86,0,0,0-.57-1.39C68.83,434.45,65.34,430.21,61.36,426.11Z"/><path class="cls-1" d="M84.73,371.16a7.11,7.11,0,0,1-4.69.76c-.69-9.44-.7-18.81,2.8-27.83.54-1.4,1.32-2.71,2-4.06,5,4.77,10.5,9.07,14.32,15Z"/><path class="cls-1" d="M410,388.46a1.6,1.6,0,0,1,1.73-.75l0,0a1.57,1.57,0,0,1-1.55,1Z"/><path class="cls-1" d="M386.75,411.9l-.2,1-.47-.25.59-.82Z"/><path class="cls-1" d="M411.73,387.7l.11-.32-.15.28Z"/><path class="cls-6" d="M320.12,375.91a3.51,3.51,0,0,1-1.5-4.23A6.52,6.52,0,0,1,320.12,375.91Z"/><path class="cls-6" d="M320,377.7l.32-1.29a.67.67,0,0,1,.45.48Z"/><path class="cls-14" d="M305.82,197.56c2.11-1,4.62-3.56,5.19,1.42.13,1.17,1.38,1,2.31,1.09-.57.82-1.75,1.23-1.67,2.49-1.62-1-3.27-1-4.49.47s-.25,2.86.13,4.35c.49,1.92,2.08,2,3.47,2.5a1.08,1.08,0,0,0,1.42-.53c.4-.9-.12-1-.93-1.26-1.85-.57-3.17-1.41-.39-2.85.93-.48.8-1.69.8-2.67,1.17,1.38,2.47,2.22,4.31,1.16.74-.43,1.44-.84,1.1-1.91-.62-1.95-2.21-1.79-3.75-1.76,3-.31,1.6-4.49,4.41-4.93,2.44,1.65,2.87,9.25.74,11.56-.28.31-2-.57-.84.82.35.42,1.55,1.07,2-.07a7.73,7.73,0,0,0,.24-2.42c.85.58,1.28,1.79,2.57,1.72h0c-1.41,1.45-2.21,3.17-5.14,2.77-2.62-.36-3.06,1.86-1,3.76.88.83.48,1.49-.08,2.11s-1.26.42-1.92.13c-.84-.38-1.37-.74-.56-1.78a1.63,1.63,0,0,0-.42-2.53,2.48,2.48,0,0,0-3.08.5c-2.21,2.64-3.25,1.49-4.37-.94-.53-1.15-2-2.09-3.1-1.29s-.43,2.18.63,3c.46.34,1.11,1,.42,1-2.82.22-3.82,4.53-7.4,3-1.16-.49-2.35.26-1.17-2s-2.1-4-1.7-6.52c.08-.53-2.35-.47-.94-2.25s2.11.44,3.16.15c-.66,1.5-1.86,3.26,1,3.55a1.78,1.78,0,0,0,2.16-1.94c-.2-2.15-1.92-1.47-3.18-1.63,3.39-3,3.38-3.81,0-5h0c1.57-1.85,3.72-1.67,5.82-1.67-.62,1-3,.77-2.2,2.78.71,1.76,2.43,1.33,3.88,1.39-2,1.58-.5,2.49.69,3.43.65.51,1.41.53,1.62-.33.45-1.85-.41-2.9-2.31-3.1,1.12-2.06,1.29-3.74-1.66-4.17a5,5,0,0,1,4.16-1.66c-.77,1.7-1.69,3.61,1.32,3.77.95.05,2.86-.18,2.63-1.91C309.45,197.11,307.4,197.66,305.82,197.56Z"/><path class="cls-16" d="M313.19,166.08c.42,1.95-.92,2.3-2.09,2.68-8.68,2.83-17.39,5.59-26.06,8.44-2.13.7-2.94-.18-3.63-2.07s.09-2.77,1.8-3.31c8.83-2.82,17.68-5.58,26.46-8.55C312.9,162.18,312.55,164.69,313.19,166.08Z"/><path class="cls-17" d="M285.79,184.38c-.48-.17-1.34-.27-1.38-.51-.19-1.17.87-1.18,1.62-1.42L309,175c1.71-.55,3.42-1.13,5.15-1.61.61-.17,1.54-.27,1.32.82-.08.39-.81.64-1.25,1Z"/><path class="cls-17" d="M287.42,192.79c-.62-.33-.62-.9-.59-1.49,5.28-1.66,10.7-2.9,15.68-5.41l-.07,0c.73,0,1.58.25,1.73-.88l-.07,0c1.08.37,2.07.46,2.58-.87l-.08,0c1.06.29,2.1.56,2.58-.87l-.08,0c3.11.55,5.67-1.17,8.44-2,1.83,2-.33,1.84-1.25,2.17-4.6,1.64-9.23,3.2-13.85,4.8-.71,0-1.53-.13-1.67.92l.07,0c-1.28-.28-2.5-.29-3.42.86l.07,0c-.73,0-1.59-.26-1.73.88l.07,0a2.88,2.88,0,0,0-3.42.86l.07,0C290.66,191.33,289.12,192.46,287.42,192.79Z"/><path class="cls-17" d="M285.77,187.64a1.06,1.06,0,0,1,0-1.82l28.42-9.18c1,.07,2.84-.86,2.13,1.58-1.11.05-2.3-.13-3,1l.07,0c-1-.12-2-.17-2.57.87l.07,0c-.74,0-1.61-.3-1.73.88l.07,0a50.89,50.89,0,0,0-18.42,5.87l.08,0a3,3,0,0,0-3.42.86l.07,0Z"/><path class="cls-6" d="M279.5,168.46c9.9-4.59,20.33-7.6,30.91-10.18C300.54,163,290,165.72,279.5,168.46Z"/><path class="cls-17" d="M286.6,190.19l-.74-.86c.41-.73,1.69-.65,1.64-1.8l-.07,0a2.85,2.85,0,0,0,3.42-.86l-.08,0a81.5,81.5,0,0,0,18.42-5.87l-.07,0c.72,0,1.59.27,1.73-.88l-.07,0c1.08.36,2.06.43,2.57-.87l-.07,0,4.23-.17-.17,1.52a23.64,23.64,0,0,0-8.23,2.81l.08,0c-1-.08-2-.14-2.58.87l.08,0c-1-.06-2-.18-2.58.87l.07,0c-.74,0-1.58-.24-1.73.88l.07,0C296.88,186.09,291.93,188.86,286.6,190.19Z"/><path class="cls-14" d="M314.19,176.64l-28.42,9.18q0-.72,0-1.44l28.41-9.19Q314.2,175.92,314.19,176.64Z"/><path class="cls-17" d="M302.51,189.09c.69.37,1.2,1.19.4,1.5a83.27,83.27,0,0,1-14.41,4.51c-.63.12-.74-.64-.74-1.21,1.6-.69,3.64-.43,4.75-2.18l-.07,0a3.06,3.06,0,0,0,3.42-.86l-.07,0c.73,0,1.59.26,1.73-.88l-.07,0a2.84,2.84,0,0,0,3.42-.86l-.07,0Z"/><path class="cls-14" d="M321.71,195.85c2.6,2.8,3.25,6.48,3.78,10,.34,2.24-2,.31-3,.92h0c.63-.91,2.22-1.45,1.32-3s-2.25-.15-3.32-.54C321,200.78,319.72,198,321.71,195.85Z"/><path class="cls-5" d="M321.71,195.85c-2,2.2-.71,4.93-1.22,7.38a1.8,1.8,0,0,0-.57,1.8,7.73,7.73,0,0,1-.24,2.42c-.5,1.13-1.69.49-2,.07-1.16-1.39.55-.51.84-.82,2.13-2.3,1.69-9.91-.74-11.56,1-.65,1-2.47,2.58-2.23S321.5,194.73,321.71,195.85Z"/><path class="cls-14" d="M286.6,190.19c5.33-1.33,10.28-4.1,15.92-4.31-5,2.51-10.4,3.75-15.68,5.41Z"/><path class="cls-14" d="M309.11,183.41a23.64,23.64,0,0,1,8.23-2.81,2.46,2.46,0,0,1,.21.78C314.78,182.23,312.22,184,309.11,183.41Z"/><path class="cls-14" d="M302.18,218.81c-2,.41-2.25,2.53-4,2.42-.55,0-.68-.81-.42-1.34C298.6,218.19,300,218.3,302.18,218.81Z"/><path class="cls-14" d="M323.31,211.4c1.45-.15,1.84-2.2,3.41-1.78a2,2,0,0,1,.56,1.77C326.11,213.25,324.71,211.23,323.31,211.4Z"/><path class="cls-14" d="M295.81,200.9c-1.26,1-2.27,2.4-4.39,2.28.45-3,2.78-2,4.4-2.27Z"/><path class="cls-14" d="M306,217.67a5.67,5.67,0,0,1-1.38,1.15c-.86.35-1.16-.33-1.23-1s.1-1.38,1-1.18C305,216.72,305.8,216.58,306,217.67Z"/><path class="cls-14" d="M292.51,191.71c-1.12,1.75-3.15,1.48-4.75,2.18l-.33-1.1C289.12,192.46,290.66,191.33,292.51,191.71Z"/><path class="cls-14" d="M317.51,179.07l-4.23.17c.75-1.14,1.94-1,3-1Z"/><path class="cls-14" d="M287.5,187.54c.05,1.15-1.23,1.07-1.64,1.8l-.08-1.69Z"/><path class="cls-14" d="M312.78,195.79l-.29-.47a4,4,0,0,1,.69-.07c.08,0,.15.17.23.27Z"/><path class="cls-14" d="M302.51,189.09l-1.74.17c.15-1.06,1-.88,1.67-.92Q302.49,188.71,302.51,189.09Z"/><path class="cls-7" d="M124.09,67.69c2.71,9.29,3,18.3-3.71,26.69,3,.67,4.87-1.25,7.43-1.67-2.64,5.39-7.26,8.24-11.6,11.73,5.81,1.05,9.6-4.09,15.44-4.22-3.35,5.56-8.07,8.53-13.38,10.39a37.12,37.12,0,0,0-10.1,5.34c-5.77,4.27-12.69,6.11-19.87,6.57-3.46.22-6.93.16-10.4.23-3-.77-6-1.3-8.84-2.36C54.69,115.06,48.63,103.6,47,89.3c-1.47-12.56,3.23-22.53,13.71-29.72a11.79,11.79,0,0,0,2.41-2.24C80.59,35.88,116.9,44.82,124.09,67.69Z"/><path class="cls-1" d="M165.73,94.89l-13.25,12.59L132.33,85.68c4.75-.94,8.86-.46,13,.05A41,41,0,0,1,163.16,92C164.25,92.69,165.81,93.09,165.73,94.89Z"/><path class="cls-5" d="M176.07,161.82c.61.5,1.39,1.05,2.07,1.71,8.79,8.48,17.51,17,26.38,25.43,2.08,2,2.22,3.22.11,5.32-5.9,5.88-11.6,11.95-17.29,18-1.64,1.76-2.78,2.1-4.7.2q-13-12.88-26.34-25.47c-2.19-2.07-2.47-3.37-.17-5.64,5.84-5.73,11.39-11.76,17.08-17.65C174,163,174.57,162,176.07,161.82ZM180.22,206a7.66,7.66,0,0,0,1.85-1.08q7.81-8.58,15.54-17.23a1.86,1.86,0,0,0-.22-2.92,2,2,0,0,0-2.94.39c-2,2.14-3.83,4.36-5.77,6.51-3.06,3.38-6.15,6.73-9.23,10.09-.77.84-1.56,1.73-.82,2.92A6.9,6.9,0,0,0,180.22,206Zm23-15.07a12.2,12.2,0,0,0-1.54-1.9c-1.2-1-2,0-2.81.76-5.39,5.34-10.39,11-15.25,16.86-.92,1.1-1.42,2-.17,3.17,1.51,1.39,2.24-.08,3-.89q7.72-8.08,15.35-16.24C202.27,192.24,202.65,191.68,203.21,191Zm-27.66,10.65a3,3,0,0,0,2.81-1.27c4.89-5.42,9.74-10.87,14.64-16.27,1.07-1.18,1-2.13-.13-3.16-1.33-1.19-2.27-.38-3.15.59q-7.62,8.42-15.21,16.87c-.53.59-1.38,1.25-.71,2.09A5.77,5.77,0,0,0,175.56,201.61Zm3-11a5.28,5.28,0,0,0,1.16-.78q4.79-5.18,9.52-10.42c.85-.94.37-1.76-.37-2.53-1.21-1.26-2.21-.73-3.16.31l-9,9.82c-.59.65-1,1.36-.42,2.21A2.74,2.74,0,0,0,178.52,190.63Z"/><path class="cls-3" d="M284.09,90a12.45,12.45,0,1,1-12.37-12.42A12.11,12.11,0,0,1,284.09,90Zm-12.24,10.77A10.73,10.73,0,1,0,260.9,90.05,10.9,10.9,0,0,0,271.85,100.77Z"/><path class="cls-14" d="M158.85,348.85c.23,1.11.45,2.22-.71,3A3.9,3.9,0,0,1,158.85,348.85Z"/><path class="cls-17" d="M218.09,398.34l.82-1.66.47.39-1,1.54Z"/><path class="cls-2" d="M226.59,396.84l-.85.58-.19-.32,1.08-.23Z"/><path class="cls-2" d="M226.62,396.87c0-.51.28-.84.83-.84l0,0-.84.83Z"/><path class="cls-17" d="M218.35,398.61l-.55.31.29-.58Z"/><path class="cls-3" d="M263.4,393.32c-4,1.39-7.85.53-11.66-.84l-.08.13a12.66,12.66,0,0,0-4.17-4.17h0c-1.69-5.14-2.27-10.19,1.2-14.92l2.12-2.11c5.71-3.38,11.25-3.19,16.58.85a.39.39,0,0,0,.42.42c4,5.34,4.34,10.86.85,16.58l-2.1,2.12-2.91,2.05Zm-4.61-1.22A10.59,10.59,0,1,0,248,381.82,10.44,10.44,0,0,0,258.79,392.1Z"/><path class="cls-5" d="M267.41,372.29c-5.33-4-10.86-4.23-16.58-.85,1.82-5,6.14-3.83,9.77-3.69C263.55,367.85,266.85,368.24,267.41,372.29Z"/><path class="cls-5" d="M268.68,389.3c3.49-5.72,3.15-11.24-.85-16.58.41,0,.92-.07,1.22.13,3.88,2.56,3.56,6.58,3.37,10.42C272.3,385.84,272.12,388.65,268.68,389.3Z"/><path class="cls-5" d="M248.71,373.55c-3.47,4.72-2.89,9.78-1.2,14.92-3.68-1.64-3.49-5.2-3.09-8C244.78,377.87,244.26,373.9,248.71,373.55Z"/><path class="cls-5" d="M247.5,388.46a12.66,12.66,0,0,1,4.17,4.17C248.78,392.73,247.38,391.35,247.5,388.46Z"/><path class="cls-5" d="M263.67,393.47l2.91-2.05C266.6,393.51,265.18,393.55,263.67,393.47Z"/><path class="cls-5" d="M194.58,371.2l-.27-.09.38-.2Z"/><path class="cls-17" d="M61.36,426.11c4,4.1,7.48,8.34,11.76,11.76a1.86,1.86,0,0,1,.57,1.39c-.05.66-.68.68-1.27.68C67.81,439.91,60.65,431.28,61.36,426.11Z"/><path class="cls-5" d="M311.65,202.58c0,1,.13,2.19-.8,2.67-2.78,1.44-1.46,2.28.39,2.85.81.25,1.33.36.93,1.26a1.08,1.08,0,0,1-1.42.53c-1.39-.47-3-.58-3.47-2.5-.38-1.48-1.23-3-.13-4.35s2.87-1.49,4.49-.47Z"/><path class="cls-5" d="M311.65,202.57c-.09-1.26,1.1-1.67,1.67-2.49h0c1.54,0,3.13-.19,3.75,1.76.34,1.07-.36,1.47-1.1,1.91-1.84,1.07-3.14.22-4.31-1.16Z"/><path class="cls-5" d="M303.31,203.41c-1.44-.05-3.17.38-3.88-1.39-.81-2,1.58-1.75,2.2-2.78h0c2.95.44,2.78,2.12,1.66,4.17Z"/><path class="cls-5" d="M305.82,197.56c1.58.1,3.63-.45,3.94,1.88.23,1.73-1.69,2-2.63,1.91-3-.16-2.09-2.07-1.32-3.77Z"/><path class="cls-5" d="M295.82,205.9c1.26.16,3-.52,3.18,1.63a1.78,1.78,0,0,1-2.16,1.94c-2.91-.28-1.71-2.05-1-3.55Z"/><path class="cls-5" d="M319.92,205a1.8,1.8,0,0,1,.57-1.8c1.08.39,2.47-.94,3.32.54s-.69,2.07-1.32,3C321.2,206.82,320.77,205.61,319.92,205Z"/><path class="cls-5" d="M303.31,203.41c1.9.19,2.76,1.25,2.31,3.1-.21.87-1,.84-1.62.33-1.19-.94-2.66-1.85-.69-3.43Z"/><path class="cls-14" d="M300.85,189.22a2.84,2.84,0,0,1-3.42.86C298.36,188.92,299.57,188.93,300.85,189.22Z"/><path class="cls-14" d="M295.85,190.89a3.06,3.06,0,0,1-3.42.86A2.88,2.88,0,0,1,295.85,190.89Z"/><path class="cls-14" d="M306.61,184.24c.62-1,1.59-1,2.58-.87C308.71,184.8,307.66,184.53,306.61,184.24Z"/><path class="cls-14" d="M304.11,185.08c.6-1,1.6-.93,2.58-.87C306.18,185.53,305.19,185.44,304.11,185.08Z"/><path class="cls-14" d="M302.45,185.92c.15-1.13,1-.91,1.73-.88C304,186.17,303.17,185.92,302.45,185.92Z"/><path class="cls-14" d="M297.51,190c-.14,1.15-1,.89-1.73.88C295.92,189.78,296.78,190,297.51,190Z"/><path class="cls-14" d="M309.19,180.88a81.5,81.5,0,0,1-18.42,5.87A50.89,50.89,0,0,1,309.19,180.88Z"/><path class="cls-14" d="M290.85,186.72a2.85,2.85,0,0,1-3.42.86A3,3,0,0,1,290.85,186.72Z"/><path class="cls-14" d="M313.35,179.2c-.52,1.3-1.5,1.23-2.57.87C311.39,179,312.36,179.09,313.35,179.2Z"/><path class="cls-14" d="M310.85,180c-.14,1.15-1,.86-1.73.88C309.24,179.73,310.11,180,310.85,180Z"/><path class="cls-14" d="M180.22,206a6.9,6.9,0,0,1-1.6-1.33c-.74-1.18.05-2.08.82-2.92,3.08-3.36,6.17-6.71,9.23-10.09,1.94-2.15,3.81-4.37,5.77-6.51a2,2,0,0,1,2.94-.39,1.86,1.86,0,0,1,.22,2.92q-7.73,8.65-15.54,17.23A7.66,7.66,0,0,1,180.22,206Z"/><path class="cls-14" d="M203.21,191c-.56.71-.95,1.27-1.41,1.76q-7.66,8.14-15.35,16.24c-.77.81-1.5,2.27-3,.89-1.25-1.15-.75-2.07.17-3.17,4.86-5.82,9.86-11.52,15.25-16.86.78-.77,1.6-1.75,2.81-.76A12.2,12.2,0,0,1,203.21,191Z"/><path class="cls-14" d="M175.56,201.61a5.77,5.77,0,0,1-1.74-1.14c-.67-.85.18-1.5.71-2.09q7.59-8.44,15.21-16.87c.88-1,1.81-1.77,3.15-.59,1.16,1,1.2,2,.13,3.16-4.9,5.4-9.75,10.85-14.64,16.27A3,3,0,0,1,175.56,201.61Z"/><path class="cls-14" d="M178.52,190.63a2.74,2.74,0,0,1-2.23-1.39c-.61-.85-.17-1.56.42-2.21l9-9.82c1-1,2-1.57,3.16-.31.74.77,1.23,1.59.37,2.53q-4.73,5.24-9.52,10.42A5.28,5.28,0,0,1,178.52,190.63Z"/><path class="cls-1" d="M271.85,100.77a10.73,10.73,0,1,1,10.52-10.71A10.93,10.93,0,0,1,271.85,100.77Z"/><path class="cls-1" d="M258.79,392.1a10.59,10.59,0,1,1,10.42-10.68A10.39,10.39,0,0,1,258.79,392.1Z"/><path class="cls-1" d="M23.71,126.7s6.41,37.1,48.95,54.67L61.32,148.91Z"/><path class="cls-6" d="M308.44,129.9l-8.68,7.61a2.23,2.23,0,0,1-2,.77,1.63,1.63,0,0,1-1.06-2.61,5.21,5.21,0,0,1,.79-.81l7.82-6.86c.2-.18.48-.33.58-.56s.17-.69,0-.84a.94.94,0,0,0-.86-.23,14.11,14.11,0,0,0-1.65,1.3,2,2,0,0,1-3-.09,2.08,2.08,0,0,1,.22-3c.45-.43.94-.82,1.4-1.24s.54-.66.18-1.06a.74.74,0,0,0-1.15,0c-.41.35-.81.72-1.23,1.06a1.81,1.81,0,0,1-2.5-.07,1.73,1.73,0,0,1,.32-2.45c.81-.72,1.62-1.44,2.45-2.14.41-.35.73-.74.3-1.23s-.88-.2-1.29.11c-.68.53-1.34,1.11-2.06,1.58a1.06,1.06,0,0,1-1.67-.72,1.55,1.55,0,0,1,.31-1.16,89.6,89.6,0,0,1,12.94-11.57c1.78-1.25,3.31-1,4.72.62q4.28,4.95,8.62,9.84a4.22,4.22,0,0,1,1.17,3.24c-.23,4.19-.37,8.39-.56,12.59a2.55,2.55,0,0,1-1.77,2.63c-.78.25-1.23.11-1.43-.7a20.48,20.48,0,0,1-.74-4c-.1-2.32,0-4.66.06-7a2.68,2.68,0,0,0-.09-.8.54.54,0,0,0-.88-.35,5.42,5.42,0,0,0-.77.6Z"/><path class="cls-6" d="M196.63,158.73q1.55,5,3.11,10.05a2.13,2.13,0,0,0,1.1,1.55,1.35,1.35,0,0,0,1.89-1.46,5.13,5.13,0,0,0-.23-1q-1.39-4.53-2.8-9.06a2,2,0,0,1-.18-.71c0-.24.17-.61.34-.65a.79.79,0,0,1,.73.25,13.9,13.9,0,0,1,.65,1.8,1.75,1.75,0,0,0,2.2,1.38,1.83,1.83,0,0,0,1.11-2.37c-.15-.55-.34-1.09-.49-1.63-.11-.39-.11-.76.32-.89s.7.12.85.55.28.95.44,1.41a1.6,1.6,0,0,0,1.86,1.17,1.54,1.54,0,0,0,.81-2c-.28-.95-.57-1.89-.88-2.83-.15-.47-.22-.92.3-1.08s.73.28.9.72c.27.74.51,1.5.83,2.21a.89.89,0,0,0,1.53.27,1.43,1.43,0,0,0,.27-1,88.35,88.35,0,0,0-4.54-15.16c-.77-1.82-2-2.39-3.72-1.84-3.51,1.11-7,2.21-10.54,3.26a3.42,3.42,0,0,0-2.24,1.89c-1.63,3.3-3.32,6.57-5,9.86a2.45,2.45,0,0,0,.17,2.87c.47.58.86.69,1.35.17a17,17,0,0,0,2.27-2.71c1.07-1.72,2-3.56,2.95-5.35a2.26,2.26,0,0,1,.41-.57c.3-.28.6-.23.8.17a5.34,5.34,0,0,1,.31.83Z"/><polygon class="cls-7" points="315.59 100.36 310.41 103.75 322.96 119.69 327.56 115.09 315.59 100.36"/><path class="cls-7" d="M205.71,139.26c-5.25-.19-9.82,2.61-14.85,3.38-.44-2.45-2.07-4.62-1.68-7.25L204,131.79C203.92,134.43,205.34,136.72,205.71,139.26Z"/><path class="cls-6" d="M123.73,184.88l.54-.33c.29.21.46,0,.67-.07a8.37,8.37,0,0,1,7.23.69c3.35,1.93,6.66,4,10,6a3,3,0,0,1,1.49,3.26c-.33,1.07-1.53,1.43-2.79.79s-2.52-1.31-3.81-2a.83.83,0,0,0,.21.54l8.5,14a1.83,1.83,0,0,1-.24,2.57,1.81,1.81,0,0,1-2.47-.86l-2.35-3.8c-1-1.63-2-3.25-3-4.87-.23-.38-.5-.56-.81-.39s-.32.5-.11.88.27.46.41.69c2.11,3.48,4.21,7,6.33,10.43a2.16,2.16,0,0,1,.25,2c0,.13-.15.22,0,.4l-.65.4c-1.18.13-2-.55-2.71-1.75-2-3.37-4.11-6.7-6.18-10-.08-.14-.16-.27-.25-.41-.23-.34-.52-.45-.79-.29s-.31.46-.11.82c.09.16.19.32.29.48q2.85,4.7,5.7,9.41c.69,1.15.56,2.24-.28,2.73s-1.8,0-2.5-1.13l-6.5-10.51c-.27-.43-.57-1-1-.69s-.15.78.13,1.23q2.22,3.64,4.43,7.29a1.94,1.94,0,0,1-.08,2.3,1.5,1.5,0,0,1-2,.1,3.55,3.55,0,0,1-1-1.2c-3.29-5.37-6.62-10.71-9.83-16.13-1.83-3.09-2-6.62-.43-9.14.44-.72,1.13-1.19,1.54-1.93l.32-.2A6.32,6.32,0,0,0,123.73,184.88Z"/><path class="cls-7" d="M128.85,185.09c-3.93,1.91-6.48,5.29-9.13,8.57-2.91.26-3.82-2.46-5.65-3.81,3.62-3.6,6.73-7.74,11.14-10.51C126.49,181.22,129.12,182.23,128.85,185.09Z"/><path class="cls-13" d="M251.8,137.76l-.83-.52c-.49-.47-.75-1.18-1.5-1.36l-.47-.58,0-.31a23.72,23.72,0,0,1,8.67-8.85,30.75,30.75,0,0,0,8.21-7.4,26.51,26.51,0,0,1,8-6.16,2.17,2.17,0,0,1,3.16,1.33c.18.5.38,1,.57,1.48l-.69.6a3.37,3.37,0,0,0-3.9-1,12.41,12.41,0,0,0-6.92,5.2c-1.31,2-1.24,3.53.08,5.25l-.56.51-.59-.39a.91.91,0,0,0-1.28.07c-.59.57-.23,1.09,0,1.62l-.59.5c-1.84-1.69-3.76-1.32-5.72-.24a13.24,13.24,0,0,0-3.68,3.18c-1.65,2-2.77,4-1.51,6.66Z"/><path class="cls-10" d="M263.23,127.72l.59-.5a8.9,8.9,0,0,1-4.2,13.46,6,6,0,0,1-5.28-.8,12.86,12.86,0,0,1-2.54-2.11l.51-.45c.47.39,1,.76,1.41,1.17a5.83,5.83,0,0,0,7.63.47C264.87,136.4,265.62,131.9,263.23,127.72Z"/><path class="cls-10" d="M277,116l.69-.6c.44.69.93,1.34,1.31,2.06a6.43,6.43,0,0,1-2.55,9.08c-3.85,2.33-7.48,2.12-10.75-.62l.56-.51c2.74,2.34,5.76,2.48,8.92,1C279.63,124.4,280.48,119.47,277,116Z"/><path class="cls-18" d="M249.47,135.88c.75.18,1,.9,1.5,1.36C250,137.26,249.87,136.44,249.47,135.88Z"/><path class="cls-18" d="M249,135l0,.31C248.87,135.19,248.89,135.09,249,135Z"/><path class="cls-19" d="M277,116c3.5,3.48,2.66,8.41-1.82,10.45-3.17,1.44-6.18,1.31-8.92-1-1.32-1.72-1.39-3.21-.08-5.25a12.41,12.41,0,0,1,6.92-5.2A3.37,3.37,0,0,1,277,116Z"/><path class="cls-19" d="M263.23,127.72c2.39,4.18,1.64,8.68-1.88,11.24a5.83,5.83,0,0,1-7.63-.47c-.45-.41-.94-.78-1.41-1.17-1.25-2.62-.14-4.7,1.51-6.66a13.24,13.24,0,0,1,3.68-3.18C259.47,126.4,261.39,126,263.23,127.72Z"/></svg>