<svg id="Layer_1" data-name="Layer 1" xmlns="http://www.w3.org/2000/svg" viewBox="0 0 197.66 197.66"><defs><style>.cls-1{fill:#606060;}.cls-2{fill:#666;}</style></defs><title>icons file</title><path class="cls-1" d="M151,98c0,6,.31,12,0,18-.23,4.86-3,6.53-6.57,6.55-3,0-5.9,0-8.85,0-6.54,0-8.11-1.37-8.79-8.18-4.6,4.63-10.28,4.19-15.88,4.17-14.28,0-28.56,0-42.83,0-7.32,0-10.83-4.73-8.62-11.81-2.91-.46-5.78-1.11-7.48-3.86a6.89,6.89,0,0,1-1.23-5.4,4.69,4.69,0,0,0,3.71,1.13c.68,2.87,2.55,4,5.43,3.93,8.85-.07,17.7,0,26.55,0,1.47,0,2.47,0,2.45,2s-1.12,2-2.54,2q-9.42,0-18.84,0c-3,0-4.9,1.6-4.91,4s1.93,4,4.89,4q24.7,0,49.39,0c4.72,0,8.25-2.89,9.72-7.39.67-2.06.24-4.16.55-6.22l3.7-.57a102.62,102.62,0,0,1,0,12.08,2.76,2.76,0,0,0,0,2.66c-.06,2.65,1.16,3.71,3.85,3.52s5.7,0,8.55,0c3.5,0,3.78-.29,3.8-3.7q.06-8.69.11-17.38C148.25,99.17,149.67,98.42,151,98Z"/><path class="cls-1" d="M54.49,98.6a4.69,4.69,0,0,1-3.71-1.13c1-2.39.39-3.89-1.8-5.66-3.56-2.88-3.24-8.59.46-11.37,1.79-1.34,2.32-2.49,1.63-4.43l.1-2,3.4,1.18c1.06,2.57,3.08,3.3,5.72,3.28,8.67-.07,17.33,0,26,0,1.32,0,2.62-.3,2.61,1.88s-1.23,1.93-2.59,1.93q-14.72,0-29.43,0a14.83,14.83,0,0,0-3.12.25,4,4,0,0,0-.26,7.68,9.92,9.92,0,0,0,2.81.29c9.81,0,19.62,0,29.43,0,1.27,0,3.12-.9,3.16,1.86s-1.91,2-3.3,2c-8.57.05-17.14.09-25.72,0C56.84,94.36,55,95.52,54.49,98.6Z"/><path class="cls-1" d="M122.84,56.86q.08,3.26.17,6.53c0,1.16,0,2.41,1.5,2.67,1.26.22,2.54.59,3.46-1,1.26-2.16,3.4-2.88,5.83-2.87,3.61,0,7.21-.06,10.82,0,4,.09,6.39,2.46,6.51,6.38.06,2,0,4-.08,6-.61.25,0-1.91-1.11-.58-.74.92-2,.42-2.72,1.18-1.74-1.74-3.91-.63-5.87-.83-1.33-.14-2.32,0-2.32-1.92s.62-2.36,2.32-2.2a22.66,22.66,0,0,0,3.41,0c1-.06,2.43.5,2.38-1.44a2.26,2.26,0,0,0-2.47-2.49c-3.7-.05-7.39,0-11.09,0-1.72,0-2.58.84-2.55,2.65,0,2.46-.07,4.92-.12,7.38-.76-1.62-2.11-2-3.72-1.72.12-2.59-.05-4.55-3.66-4.67-2.64-.09-4.36-2.31-4.44-5.1-.11-4,0-8,.07-11.94,1.82-.2,3.2.09,2.83,2.45C121.89,56,122,56.65,122.84,56.86Z"/><path class="cls-1" d="M54.58,75.17,51.18,74l-.1,2a7.5,7.5,0,0,1,5.71-9.45,19.17,19.17,0,0,1,4-.32q19.1,0,38.2,0c1.52,0,3.11.21,4-1.51a1.37,1.37,0,0,0,.18-.5q0-4.24,0-8.48c1.25-.52-.1-2.67,1.66-2.78,2-.12.58,2.35,1.93,2.81,0,2.18.1,4.37.1,6.55,0,6.11-1.71,7.84-7.71,7.85q-19.53,0-39.05,0C56.19,70.18,54.93,71.39,54.58,75.17Z"/><path class="cls-1" d="M147.22,75.16c.74-.75,2-.26,2.72-1.18,1.07-1.33.49.83,1.11.58q0,9.75,0,19.5c-.06,0-.18.11-.17.14a2.32,2.32,0,0,0,.17.36q0,1.73,0,3.46c-1.36.4-2.78,1.15-3.83-.57,0-.28-.06-.57-.06-.85-.1-6-.1-6-6-6.15-1.54,0-2.14-.39-2.16-2.08s.79-2,2.23-1.92c1.13.09,2.29-.06,3.42,0,1.74.15,2.54-.28,2.52-2.3s-1.15-2-2.55-2c-1.23,0-2.48-.08-3.7,0-1.57.13-1.91-.61-1.9-2s.42-1.93,1.8-1.82c.94.08,1.92-.12,2.84,0C146.38,78.92,147.57,77.9,147.22,75.16Z"/><path class="cls-1" d="M106.68,55.77c-1.35-.46.11-2.93-1.93-2.81-1.76.11-.4,2.26-1.66,2.78,0-2.85-.23-5.71-.06-8.54a9.9,9.9,0,0,1,9.37-9.1c4.22-.27,9.55,3.21,10.28,8a53.3,53.3,0,0,1,.17,10.81c-.82-.22-.95-.86-.85-1.54.37-2.36-1-2.65-2.83-2.45,0-1.42-.06-2.85-.13-4.27-.19-3.81-2.78-6.55-6.14-6.53s-5.85,2.69-6,6.6C106.8,51,106.75,53.41,106.68,55.77Z"/><path class="cls-1" d="M103.09,64.23a1.37,1.37,0,0,1-.18.5A.45.45,0,0,1,103.09,64.23Z"/><path class="cls-1" d="M151,94.56a2.32,2.32,0,0,1-.17-.36s.11-.09.17-.14A.56.56,0,0,1,151,94.56Z"/><path class="cls-1" d="M130.91,76.31c.23,8,.24,16,0,24l-3.7.57q0-13.15,0-26.29C128.8,74.36,130.15,74.69,130.91,76.31Z"/><path class="cls-1" d="M130.89,112.39q0,1.33,0,2.66A2.76,2.76,0,0,1,130.89,112.39Z"/><path class="cls-1" d="M112.93,94.43c-9.38.29-12.92-5.53-12.11-14.76.11-1.3.86-1.23,1.73-1.24,1.1,0,2.19,0,2.27,1.49s0,2.66,0,4c.1,3.93,2.42,6.33,6.36,6.56.95.06,1.9-.05,2.84,0,1.22.11,2.84-.74,2.91,1.8s-1.42,2.15-2.9,2.15Z"/><path class="cls-1" d="M138.81,110.53c-1.11-.52-3.79,1.34-3.46-2.11.1-1,.59-1.59,1.59-1.62,1.32,0,2.65-.06,4,0s1.89,1,2,2.3c.09,1.69-1.13,1.4-2.13,1.44C140.17,110.54,139.6,110.53,138.81,110.53Z"/><path class="cls-2" d="M61,160.17h2.91v6.63a11.65,11.65,0,0,1-3.24,1.66,11.35,11.35,0,0,1-3.66.63,9.29,9.29,0,0,1-4.67-1.2A8.92,8.92,0,0,1,49,164.64a8.74,8.74,0,0,1-1.22-4.55,8.48,8.48,0,0,1,1.25-4.52,9,9,0,0,1,3.4-3.21,9.74,9.74,0,0,1,4.77-1.18,10.56,10.56,0,0,1,3.69.67,9.81,9.81,0,0,1,3.14,1.84l-1.89,2.47a7.17,7.17,0,0,0-2.3-1.47,7,7,0,0,0-2.63-.52,6,6,0,0,0-3,.78A6,6,0,0,0,52,163.11a6,6,0,0,0,5.22,3,6.74,6.74,0,0,0,1.88-.29A8.37,8.37,0,0,0,61,165Z"/><path class="cls-2" d="M77.45,157.23a7.46,7.46,0,0,1,1.61,5.11q0,.65,0,1H69.19a3.71,3.71,0,0,0,3.81,3,5.06,5.06,0,0,0,2-.39,4.78,4.78,0,0,0,1.63-1.11l1.74,1.82a6.74,6.74,0,0,1-2.43,1.69,8.17,8.17,0,0,1-3.18.6,7.4,7.4,0,0,1-3.6-.85,5.92,5.92,0,0,1-2.4-2.38,7.73,7.73,0,0,1,0-7.06,6.09,6.09,0,0,1,2.4-2.4,7.11,7.11,0,0,1,3.51-.86A6.07,6.07,0,0,1,77.45,157.23Zm-1.36,3.91a3.24,3.24,0,0,0-1-2.34,3.79,3.79,0,0,0-4.82,0,3.8,3.8,0,0,0-1.18,2.35Z"/><path class="cls-2" d="M89.07,168a6.32,6.32,0,0,1-3.34,1,4,4,0,0,1-2.82-1,3.85,3.85,0,0,1-1.1-3v-6.58H80l0-2.37h1.89v-3.66H85v3.66h3.81v2.37H85v6a1.94,1.94,0,0,0,.35,1.31,1.34,1.34,0,0,0,1,.39,4.64,4.64,0,0,0,1.89-.55Z"/><path class="cls-2" d="M96.69,151.4H100v7.45h8.69V151.4h3.34v17.44h-3.34v-7.07H100v7.07H96.69Z"/><path class="cls-2" d="M126,157.23a7.46,7.46,0,0,1,1.61,5.11q0,.65,0,1h-9.84a3.71,3.71,0,0,0,3.81,3,5.06,5.06,0,0,0,2-.39,4.78,4.78,0,0,0,1.63-1.11l1.74,1.82a6.74,6.74,0,0,1-2.43,1.69,8.17,8.17,0,0,1-3.18.6,7.4,7.4,0,0,1-3.6-.85,5.92,5.92,0,0,1-2.4-2.38,7.73,7.73,0,0,1,0-7.06,6.09,6.09,0,0,1,2.4-2.4,7.11,7.11,0,0,1,3.51-.86A6.07,6.07,0,0,1,126,157.23Zm-1.36,3.91a3.24,3.24,0,0,0-1-2.34,3.79,3.79,0,0,0-4.82,0,3.8,3.8,0,0,0-1.18,2.35Z"/><path class="cls-2" d="M130,150.35h3.24v18.48H130Z"/><path class="cls-2" d="M147.94,156.27a5.81,5.81,0,0,1,2.22,2.4,7.75,7.75,0,0,1,.78,3.56,7.66,7.66,0,0,1-.77,3.51,5.7,5.7,0,0,1-2.19,2.37,6.29,6.29,0,0,1-3.29.85,5.72,5.72,0,0,1-2.64-.59,5,5,0,0,1-1.89-1.71v7h-3.24V155.51h3.24v2.19A4.81,4.81,0,0,1,142,156a5.65,5.65,0,0,1,2.63-.59A6.3,6.3,0,0,1,147.94,156.27ZM146.6,165a4.11,4.11,0,0,0,1-2.9,4.07,4.07,0,0,0-1-2.89,3.82,3.82,0,0,0-5.4,0,4.55,4.55,0,0,0,0,5.8,3.54,3.54,0,0,0,2.71,1.12A3.49,3.49,0,0,0,146.6,165Z"/></svg>