<?xml version="1.0" encoding="utf-8"?>
<!-- Generator: Adobe Illustrator 22.1.0, SVG Export Plug-In . SVG Version: 6.00 Build 0)  -->
<svg version="1.1" id="Layer_1" xmlns="http://www.w3.org/2000/svg" xmlns:xlink="http://www.w3.org/1999/xlink" x="0px" y="0px"
	 viewBox="0 0 45 55" style="enable-background:new 0 0 45 55;" xml:space="preserve">
<style type="text/css">
	.st0{fill:#FFFFFF;stroke:#383842;stroke-linecap:round;stroke-miterlimit:10;}
	.st1{fill:none;stroke:#383842;stroke-linecap:round;stroke-miterlimit:10;}
	.st2{fill:#FFFFFF;stroke:#F26D00;stroke-miterlimit:10;}
	.st3{fill:#FFFFFF;stroke:#383842;stroke-miterlimit:10;}
	.st4{fill:#383842;}
	.st5{fill:none;stroke:#383842;stroke-miterlimit:10;}
	.st6{fill:none;stroke:#F26D00;stroke-linecap:round;stroke-miterlimit:10;}
</style>
<path class="st2" d="M34.2,48.369H1.877c-0.644,0-1.167-0.522-1.167-1.167V1.962c0-0.644,0.522-1.167,1.167-1.167H34.2
	c0.644,0,1.167,0.522,1.167,1.167v45.24C35.366,47.846,34.844,48.369,34.2,48.369z"/>
<path class="st3" d="M39.584,54.24H7.261c-0.644,0-1.167-0.522-1.167-1.167V7.001c0-0.644,0.522-1.167,1.167-1.167h32.323
	c0.644,0,1.167,0.522,1.167,1.167v46.072C40.75,53.717,40.228,54.24,39.584,54.24z"/>
<circle class="st4" cx="12.533" cy="13.109" r="3.818"/>
<line class="st1" x1="19.252" y1="11.382" x2="38.341" y2="11.382"/>
<line class="st1" x1="19.252" y1="15.911" x2="38.341" y2="15.911"/>
<line class="st1" x1="8.716" y1="25.984" x2="38.341" y2="25.984"/>
<line class="st1" x1="8.716" y1="20.896" x2="38.341" y2="20.896"/>
<line class="st1" x1="8.716" y1="30.565" x2="38.341" y2="30.565"/>
<line class="st1" x1="8.716" y1="35.147" x2="38.341" y2="35.147"/>
<line class="st1" x1="8.716" y1="39.728" x2="38.341" y2="39.728"/>
<line class="st1" x1="8.716" y1="44.309" x2="38.341" y2="44.309"/>
<line class="st1" x1="8.716" y1="48.89" x2="38.341" y2="48.89"/>
<g>
	<path class="st3" d="M17.618,48.369l1.085-4.493l21.864-17.039c0.334-0.26,0.815-0.206,1.083,0.122l2.455,3.007
		c0.264,0.323,0.215,0.799-0.109,1.061l-21.42,17.342H17.618z"/>
	<line class="st5" x1="38.649" y1="28.331" x2="42.159" y2="32.514"/>
	<line class="st5" x1="21.252" y1="41.889" x2="24.956" y2="46.442"/>
</g>
</svg>
