<?xml version="1.0" encoding="utf-8"?>
<!-- Generator: Adobe Illustrator 22.1.0, SVG Export Plug-In . SVG Version: 6.00 Build 0)  -->
<svg version="1.1" id="Layer_1" xmlns="http://www.w3.org/2000/svg" xmlns:xlink="http://www.w3.org/1999/xlink" x="0px" y="0px"
	 viewBox="0 0 45 55" style="enable-background:new 0 0 45 55;" xml:space="preserve">
<style type="text/css">
	.st0{fill:#FFFFFF;stroke:#383842;stroke-linecap:round;stroke-miterlimit:10;}
	.st1{fill:none;stroke:#383842;stroke-linecap:round;stroke-miterlimit:10;}
	.st2{fill:#FFFFFF;stroke:#F26D00;stroke-miterlimit:10;}
	.st3{fill:#FFFFFF;stroke:#383842;stroke-miterlimit:10;}
	.st4{fill:#383842;}
	.st5{fill:none;stroke:#383842;stroke-miterlimit:10;}
	.st6{fill:none;}
	.st7{font-family:'Bebas';}
	.st8{font-size:10px;}
	.st9{fill:none;stroke:#F26D00;stroke-linecap:round;stroke-miterlimit:10;}
</style>
<path class="st0" d="M14.645,44.188H2.011c-0.644,0-1.167-0.522-1.167-1.167V2.043c0-0.644,0.522-1.167,1.167-1.167h40.978
	c0.644,0,1.167,0.522,1.167,1.167v40.978c0,0.644-0.522,1.167-1.167,1.167H31.801"/>
<polyline class="st1" points="38.957,54.081 22.992,54.081 7.681,54.081 "/>
<circle class="st4" cx="23.203" cy="38.393" r="4.17"/>
<path class="st4" d="M15.813,54.153v-7.099c0,0,0.037-3.259,3.684-3.259h7.488c0,0,3.608-0.466,3.608,3.026v7.332H15.813z"/>
<rect x="11.041" y="12.657" class="st6" width="23.263" height="14.843"/>
<text transform="matrix(1 0 0 1 11.0413 21.5673)" class="st4 st7 st8">DEMO</text>
<polyline class="st9" points="8.176,14.836 5.903,17.677 8.176,20.392 "/>
<polyline class="st9" points="36.064,14.836 38.337,17.677 36.064,20.392 "/>
</svg>
