<svg id="Layer_1" data-name="Layer 1" xmlns="http://www.w3.org/2000/svg" viewBox="0 0 975 1779"><defs><style>.cls-1{fill:#4e9694;}.cls-2{fill:#62b2b2;}.cls-3{fill:#d8d8d8;}.cls-4{fill:#24605e;}.cls-5{fill:#fff;}.cls-6{fill:#3daaa7;}.cls-7{fill:#5c5e5e;}</style></defs><title>main course</title><rect class="cls-1" x="35.6" y="48.93" width="915.4" height="1716.07"/><rect class="cls-2" x="24" y="14" width="915.4" height="1729.07"/><circle class="cls-3" cx="80.5" cy="43.5" r="9.5"/><circle class="cls-3" cx="120.5" cy="43.5" r="9.5"/><circle class="cls-3" cx="160.5" cy="43.5" r="9.5"/><circle class="cls-3" cx="200.5" cy="43.5" r="9.5"/><circle class="cls-3" cx="240.5" cy="43.5" r="9.5"/><circle class="cls-3" cx="280.5" cy="43.5" r="9.5"/><circle class="cls-3" cx="320.5" cy="43.5" r="9.5"/><circle class="cls-3" cx="360.5" cy="43.5" r="9.5"/><circle class="cls-3" cx="400.5" cy="43.5" r="9.5"/><circle class="cls-3" cx="440.5" cy="43.5" r="9.5"/><circle class="cls-3" cx="480.5" cy="43.5" r="9.5"/><circle class="cls-3" cx="520.5" cy="43.5" r="9.5"/><circle class="cls-3" cx="560.5" cy="43.5" r="9.5"/><circle class="cls-3" cx="600.5" cy="43.5" r="9.5"/><circle class="cls-3" cx="640.5" cy="43.5" r="9.5"/><circle class="cls-3" cx="680.5" cy="43.5" r="9.5"/><circle class="cls-3" cx="720.5" cy="43.5" r="9.5"/><circle class="cls-3" cx="760.5" cy="43.5" r="9.5"/><circle class="cls-3" cx="800.5" cy="43.5" r="9.5"/><circle class="cls-3" cx="840.5" cy="43.5" r="9.5"/><circle class="cls-3" cx="880.5" cy="43.5" r="9.5"/><path class="cls-4" d="M151.16,225.48a9.36,9.36,0,0,0-8.72.28,8.85,8.85,0,0,0-3.34,3.36,9.67,9.67,0,0,0,0,9.4,9,9,0,0,0,3.34,3.38,9.13,9.13,0,0,0,4.68,1.24,9.83,9.83,0,0,0,4-.87,11.33,11.33,0,0,0,3.52-2.4l3.11,3.46a16.27,16.27,0,0,1-5,3.48,14.2,14.2,0,0,1-5.82,1.28,14.42,14.42,0,0,1-7.28-1.89,13.85,13.85,0,0,1-5.19-5.14,14,14,0,0,1-1.89-7.18,13.69,13.69,0,0,1,1.93-7.16,13.85,13.85,0,0,1,5.25-5.08,15.25,15.25,0,0,1,13.16-.67,14.21,14.21,0,0,1,4.84,3.27l-3.07,3.86A10.38,10.38,0,0,0,151.16,225.48Z"/><path class="cls-4" d="M175.36,227.85a9.69,9.69,0,0,1,3.9,3.76,10.94,10.94,0,0,1,1.4,5.57,11.13,11.13,0,0,1-1.4,5.63,9.64,9.64,0,0,1-3.9,3.78,12,12,0,0,1-5.76,1.34,12.23,12.23,0,0,1-5.82-1.34,9.61,9.61,0,0,1-3.92-3.78,11.12,11.12,0,0,1-1.4-5.63,10.93,10.93,0,0,1,1.4-5.57,9.65,9.65,0,0,1,3.92-3.76,12.24,12.24,0,0,1,5.82-1.34A12,12,0,0,1,175.36,227.85Zm-10.09,4.8a7.24,7.24,0,0,0,0,9.21,5.64,5.64,0,0,0,4.33,1.77,5.55,5.55,0,0,0,4.25-1.77,7.24,7.24,0,0,0,0-9.21,5.55,5.55,0,0,0-4.25-1.77A5.64,5.64,0,0,0,165.27,232.65Z"/><path class="cls-4" d="M217.4,228.65a8.31,8.31,0,0,1,2,5.92v13.14H214.3V236.07a4.85,4.85,0,0,0-1.24-3.52,4.47,4.47,0,0,0-3.37-1.28,5.05,5.05,0,0,0-3.88,1.77,6.39,6.39,0,0,0-1.44,4.29v10.39h-5.16V236.07a4.9,4.9,0,0,0-1.22-3.52,4.41,4.41,0,0,0-3.34-1.28,5.09,5.09,0,0,0-3.92,1.77,6.39,6.39,0,0,0-1.44,4.29v10.39h-5.12V226.66h5.12v3.9q2.09-4,7.4-4.09a7.83,7.83,0,0,1,4.62,1.32,6.91,6.91,0,0,1,2.62,3.72q2-5,7.83-5A7.34,7.34,0,0,1,217.4,228.65Z"/><path class="cls-4" d="M240.6,229.38q2.54,2.87,2.54,8.07,0,1,0,1.53H227.56a5.86,5.86,0,0,0,6,4.8,8,8,0,0,0,3.09-.61,7.56,7.56,0,0,0,2.58-1.75l2.75,2.87a10.66,10.66,0,0,1-3.84,2.68,12.91,12.91,0,0,1-5,.94,11.71,11.71,0,0,1-5.69-1.34,9.34,9.34,0,0,1-3.8-3.76,12.21,12.21,0,0,1,0-11.16,9.6,9.6,0,0,1,3.8-3.8,11.21,11.21,0,0,1,5.55-1.36Q238.06,226.51,240.6,229.38Zm-2.14,6.18a5.11,5.11,0,0,0-1.54-3.7,6,6,0,0,0-7.61,0,6,6,0,0,0-1.87,3.72Z"/><path class="cls-4" d="M255.57,220.17h5.27V243h11.88v4.76H255.57Z"/><path class="cls-4" d="M292.11,229.38q2.54,2.87,2.54,8.07,0,1,0,1.53H279.07a5.86,5.86,0,0,0,6,4.8,8,8,0,0,0,3.09-.61,7.56,7.56,0,0,0,2.58-1.75l2.75,2.87a10.66,10.66,0,0,1-3.84,2.68,12.91,12.91,0,0,1-5,.94,11.71,11.71,0,0,1-5.69-1.34,9.34,9.34,0,0,1-3.8-3.76,12.21,12.21,0,0,1,0-11.16,9.6,9.6,0,0,1,3.8-3.8,11.21,11.21,0,0,1,5.55-1.36Q289.57,226.51,292.11,229.38ZM290,235.56a5.11,5.11,0,0,0-1.54-3.7,6,6,0,0,0-7.61,0,6,6,0,0,0-1.87,3.72Z"/><path class="cls-4" d="M310.59,247.72v-2.56a6.89,6.89,0,0,1-2.83,2.09,10.43,10.43,0,0,1-4,.71,8.47,8.47,0,0,1-3.88-.85,6.2,6.2,0,0,1-2.58-2.34,6.32,6.32,0,0,1-.91-3.35,5.6,5.6,0,0,1,2.09-4.62,9.38,9.38,0,0,1,5.9-1.71h6.14v-.55a3.55,3.55,0,0,0-1.22-2.87,5.38,5.38,0,0,0-3.54-1,12.17,12.17,0,0,0-6.26,2l-1.85-3.54a23.33,23.33,0,0,1,4.51-2,16.53,16.53,0,0,1,4.74-.61,9.38,9.38,0,0,1,6.36,2,7,7,0,0,1,2.3,5.51l0,13.77ZM308.78,243a3.63,3.63,0,0,0,1.77-2.58v-1.89h-5.31a5.77,5.77,0,0,0-3,.61,2.17,2.17,0,0,0-1,2,2.56,2.56,0,0,0,1,2.13A4.32,4.32,0,0,0,305,244,6.68,6.68,0,0,0,308.78,243Z"/><path class="cls-4" d="M328.47,227.59a8.51,8.51,0,0,1,4.27-1.12v5a7,7,0,0,0-5.21,1.52,5.84,5.84,0,0,0-1.95,4.62v10.15h-5.12V226.66h5.12v4.05A7.61,7.61,0,0,1,328.47,227.59Z"/><path class="cls-4" d="M353.79,228.65a8.22,8.22,0,0,1,2.09,5.92v13.14h-5.16V236.07a4.75,4.75,0,0,0-1.26-3.48,4.59,4.59,0,0,0-3.42-1.28,5.19,5.19,0,0,0-4,1.73,6.35,6.35,0,0,0-1.48,4.33v10.35h-5.12V226.66h5.12v3.94q2.16-4.05,7.56-4.13A7.52,7.52,0,0,1,353.79,228.65Z"/><path class="cls-4" d="M366.23,226.7l5.27,0,5.16,15.9,5-15.9h5.15l5.08,15.9,5-15.9h5.16l-7.63,21.05h-5.23l-5-14.84-5,14.84h-5.23Z"/><path class="cls-4" d="M408.77,218.48a3.06,3.06,0,0,1,.83,2.2,3,3,0,0,1-.83,2.16,2.95,2.95,0,0,1-4.17,0,3,3,0,0,1-.83-2.16,3.06,3.06,0,0,1,.83-2.2,2.95,2.95,0,0,1,4.17,0Zm-4.6,8.19h5.12v21.05h-5.12Z"/><path class="cls-4" d="M427,246.42a10,10,0,0,1-5.27,1.54,6.31,6.31,0,0,1-4.45-1.59,6.08,6.08,0,0,1-1.73-4.7V231.27h-3l0-3.74h3v-5.78h5.08v5.78h6v3.74h-6v9.48a3.06,3.06,0,0,0,.55,2.07,2.11,2.11,0,0,0,1.65.61,7.33,7.33,0,0,0,3-.87Z"/><path class="cls-4" d="M448.75,228.65a8.22,8.22,0,0,1,2.08,5.92v13.14h-5.15V236.07a4.75,4.75,0,0,0-1.26-3.48,4.59,4.59,0,0,0-3.42-1.28,5.25,5.25,0,0,0-4.05,1.73,6.29,6.29,0,0,0-1.5,4.33v10.35h-5.12v-29.2h5.12v12.16q2.16-4.13,7.59-4.21A7.52,7.52,0,0,1,448.75,228.65Z"/><path class="cls-4" d="M483.85,226.66v21.05h-5.16v-3.9q-2.12,4.09-7.32,4.09a7.32,7.32,0,0,1-5.59-2.16,8.24,8.24,0,0,1-2-5.9V226.66h5.16v11.69a4.81,4.81,0,0,0,1.2,3.46,4.37,4.37,0,0,0,3.33,1.26,4.87,4.87,0,0,0,3.86-1.73,6.45,6.45,0,0,0,1.42-4.29V226.66Z"/><path class="cls-4" d="M498.62,231a10.16,10.16,0,0,0-3-.51,4.06,4.06,0,0,0-2.07.45,1.51,1.51,0,0,0-.77,1.4,1.66,1.66,0,0,0,1,1.52,15.53,15.53,0,0,0,3,1.12,29.37,29.37,0,0,1,3.62,1.32,6.82,6.82,0,0,1,2.46,1.93,5.16,5.16,0,0,1,1,3.36,5.42,5.42,0,0,1-2.36,4.72,10.12,10.12,0,0,1-5.94,1.65,15.07,15.07,0,0,1-4.76-.77,11.2,11.2,0,0,1-3.93-2.18l1.77-3.58a10.36,10.36,0,0,0,3.38,1.91,11.32,11.32,0,0,0,3.74.69,4.48,4.48,0,0,0,2.26-.49,1.6,1.6,0,0,0,.85-1.48,1.78,1.78,0,0,0-1-1.65,17.48,17.48,0,0,0-3.19-1.22,27.06,27.06,0,0,1-3.46-1.24A6.26,6.26,0,0,1,489,236a5.07,5.07,0,0,1-1-3.25,5.48,5.48,0,0,1,2.26-4.74,9.47,9.47,0,0,1,5.69-1.63A14.63,14.63,0,0,1,500,227a12.77,12.77,0,0,1,3.6,1.65l-1.85,3.7A15.16,15.16,0,0,0,498.62,231Z"/><path class="cls-4" d="M534.73,228.65a8.22,8.22,0,0,1,2.08,5.92v13.14h-5.15V236.07a4.75,4.75,0,0,0-1.26-3.48,4.59,4.59,0,0,0-3.42-1.28,5.25,5.25,0,0,0-4.05,1.73,6.29,6.29,0,0,0-1.5,4.33v10.35h-5.12v-29.2h5.12v12.16q2.16-4.13,7.59-4.21A7.52,7.52,0,0,1,534.73,228.65Z"/><path class="cls-4" d="M556.63,227.85a9.69,9.69,0,0,1,3.9,3.76,10.94,10.94,0,0,1,1.4,5.57,11.13,11.13,0,0,1-1.4,5.63,9.64,9.64,0,0,1-3.9,3.78,12,12,0,0,1-5.76,1.34,12.23,12.23,0,0,1-5.82-1.34,9.61,9.61,0,0,1-3.92-3.78,11.12,11.12,0,0,1-1.4-5.63,10.93,10.93,0,0,1,1.4-5.57,9.65,9.65,0,0,1,3.92-3.76,12.24,12.24,0,0,1,5.82-1.34A12,12,0,0,1,556.63,227.85Zm-10.09,4.8a7.24,7.24,0,0,0,0,9.21,5.64,5.64,0,0,0,4.33,1.77,5.55,5.55,0,0,0,4.25-1.77,7.24,7.24,0,0,0,0-9.21,5.55,5.55,0,0,0-4.25-1.77A5.64,5.64,0,0,0,546.53,232.65Z"/><path class="cls-4" d="M561.49,226.7l5.27,0,5.16,15.9,5-15.9h5.15l5.08,15.9,5-15.9h5.16l-7.63,21.05h-5.23l-5-14.84-5,14.84H569.2Z"/><path class="cls-4" d="M620.47,246.42A10,10,0,0,1,615.2,248a6.31,6.31,0,0,1-4.45-1.59,6.08,6.08,0,0,1-1.73-4.7V231.27h-3l0-3.74h3v-5.78h5.08v5.78h6v3.74h-6v9.48a3.06,3.06,0,0,0,.55,2.07,2.11,2.11,0,0,0,1.65.61,7.33,7.33,0,0,0,3-.87Z"/><path class="cls-4" d="M638.36,227.85a9.69,9.69,0,0,1,3.9,3.76,10.94,10.94,0,0,1,1.4,5.57,11.13,11.13,0,0,1-1.4,5.63,9.64,9.64,0,0,1-3.9,3.78,12,12,0,0,1-5.76,1.34,12.23,12.23,0,0,1-5.82-1.34,9.61,9.61,0,0,1-3.92-3.78,11.12,11.12,0,0,1-1.4-5.63,10.93,10.93,0,0,1,1.4-5.57,9.65,9.65,0,0,1,3.92-3.76,12.24,12.24,0,0,1,5.82-1.34A12,12,0,0,1,638.36,227.85Zm-10.09,4.8a7.24,7.24,0,0,0,0,9.21,5.64,5.64,0,0,0,4.33,1.77,5.55,5.55,0,0,0,4.25-1.77,7.24,7.24,0,0,0,0-9.21,5.55,5.55,0,0,0-4.25-1.77A5.64,5.64,0,0,0,628.26,232.65Z"/><path class="cls-4" d="M652.7,226.7l5.27,0,5.16,15.9,5-15.9h5.15l5.08,15.9,5-15.9h5.16l-7.63,21.05h-5.23l-5-14.84-5,14.84h-5.23Z"/><path class="cls-4" d="M704.86,227.85a9.69,9.69,0,0,1,3.9,3.76,10.94,10.94,0,0,1,1.4,5.57,11.13,11.13,0,0,1-1.4,5.63,9.64,9.64,0,0,1-3.9,3.78,12,12,0,0,1-5.76,1.34,12.23,12.23,0,0,1-5.82-1.34,9.61,9.61,0,0,1-3.92-3.78,11.12,11.12,0,0,1-1.4-5.63,10.93,10.93,0,0,1,1.4-5.57,9.65,9.65,0,0,1,3.92-3.76,12.24,12.24,0,0,1,5.82-1.34A12,12,0,0,1,704.86,227.85Zm-10.09,4.8a7.24,7.24,0,0,0,0,9.21,5.64,5.64,0,0,0,4.33,1.77,5.55,5.55,0,0,0,4.25-1.77,7.24,7.24,0,0,0,0-9.21,5.55,5.55,0,0,0-4.25-1.77A5.64,5.64,0,0,0,694.77,232.65Z"/><path class="cls-4" d="M721.7,227.59a8.51,8.51,0,0,1,4.27-1.12v5a7,7,0,0,0-5.21,1.52,5.84,5.84,0,0,0-1.95,4.62v10.15H713.7V226.66h5.12v4.05A7.61,7.61,0,0,1,721.7,227.59Z"/><path class="cls-4" d="M742.89,247.72l-5.71-9.21L734,241.89v5.82h-5.12v-29.2H734v16.92l8.66-8.74h5.9l-7.79,8.11L749,247.72Z"/><path class="cls-4" d="M757.06,226.7l5.27,0,5.16,15.9,5-15.9h5.15l5.08,15.9,5-15.9h5.16l-7.63,21.05H780l-5-14.84-5,14.84h-5.23Z"/><path class="cls-4" d="M799.6,218.48a3.06,3.06,0,0,1,.83,2.2,3,3,0,0,1-.83,2.16,2.95,2.95,0,0,1-4.17,0,3,3,0,0,1-.83-2.16,3.06,3.06,0,0,1,.83-2.2,2.95,2.95,0,0,1,4.17,0Zm-4.6,8.19h5.12v21.05H795Z"/><path class="cls-4" d="M817.86,246.42a10,10,0,0,1-5.27,1.54,6.31,6.31,0,0,1-4.45-1.59,6.08,6.08,0,0,1-1.73-4.7V231.27h-3l0-3.74h3v-5.78h5.08v5.78h6v3.74h-6v9.48a3.06,3.06,0,0,0,.55,2.07,2.11,2.11,0,0,0,1.65.61,7.33,7.33,0,0,0,3-.87Z"/><path class="cls-4" d="M839.58,228.65a8.22,8.22,0,0,1,2.08,5.92v13.14h-5.15V236.07a4.75,4.75,0,0,0-1.26-3.48,4.59,4.59,0,0,0-3.42-1.28,5.25,5.25,0,0,0-4.05,1.73,6.29,6.29,0,0,0-1.5,4.33v10.35h-5.12v-29.2h5.12v12.16q2.16-4.13,7.59-4.21A7.52,7.52,0,0,1,839.58,228.65Z"/><path class="cls-4" d="M858.41,231.5a2.76,2.76,0,0,1,.77,2,2.87,2.87,0,0,1-.77,2.07,2.57,2.57,0,0,1-1.95.81,2.5,2.5,0,0,1-1.91-.83,2.89,2.89,0,0,1-.77-2,2.76,2.76,0,0,1,.77-2,2.56,2.56,0,0,1,1.91-.79A2.61,2.61,0,0,1,858.41,231.5Zm0,11.69a2.76,2.76,0,0,1,.77,2,2.87,2.87,0,0,1-.77,2.07,2.57,2.57,0,0,1-1.95.81,2.5,2.5,0,0,1-1.91-.83,2.89,2.89,0,0,1-.77-2,2.76,2.76,0,0,1,.77-2,2.56,2.56,0,0,1,1.91-.79A2.61,2.61,0,0,1,858.41,243.19Z"/><path class="cls-5" d="M164.3,188.4l5.44-38.23-16,38.23H142.07l1.7-38.39L129.56,188.4h-6.81l21.61-58.46a19.68,19.68,0,0,0-9.93,7,20,20,0,0,0-3.57,12.2,15.67,15.67,0,0,0,.19,2.72,11.45,11.45,0,0,0,.39,1.62,5.11,5.11,0,0,0,.39.91,1.17,1.17,0,0,1,.19.6,15.69,15.69,0,0,1-3.76-.42,7.61,7.61,0,0,1-2.87-1.33,6,6,0,0,1-1.83-2.39,9,9,0,0,1-.64-3.59,14.52,14.52,0,0,1,1.1-5.44,22.16,22.16,0,0,1,3-5.26,29.61,29.61,0,0,1,4.55-4.7,33.72,33.72,0,0,1,5.63-3.8,30.69,30.69,0,0,1,6.27-2.53,24,24,0,0,1,6.5-.91,18.39,18.39,0,0,1,6.44,1.21l-2,44.83,18.74-44.83h12.26l-8.93,62.62Z"/><path class="cls-5" d="M232.36,173.15a38.29,38.29,0,0,1-2.62,6,25.33,25.33,0,0,1-2.93,4.28,16.52,16.52,0,0,1-3.1,2.83,15.3,15.3,0,0,1-3.07,1.66,13.54,13.54,0,0,1-2.87.79,16.81,16.81,0,0,1-2.49.21,8.15,8.15,0,0,1-5.75-2,9.08,9.08,0,0,1-2.6-5.84,33.26,33.26,0,0,1-2.29,2.85,17.05,17.05,0,0,1-2.78,2.49,14.11,14.11,0,0,1-3.43,1.79,12.17,12.17,0,0,1-4.18.69,12.84,12.84,0,0,1-4.24-.71,9.22,9.22,0,0,1-3.62-2.33,11.74,11.74,0,0,1-2.53-4.24,18.77,18.77,0,0,1-1-6.4,36.29,36.29,0,0,1,.58-6.23,39.41,39.41,0,0,1,1.79-6.65,37.8,37.8,0,0,1,3-6.38,25.58,25.58,0,0,1,4.24-5.4,19.4,19.4,0,0,1,5.51-3.74,16.24,16.24,0,0,1,6.77-1.39q3.61,0,5.26,1.25a3.74,3.74,0,0,1,1.64,3.08v.62l.91-4.53h12.26l-6.11,28.92a8.61,8.61,0,0,0-.29,1.39,11.16,11.16,0,0,0-.08,1.35q0,3.66,3.49,3.66a4.36,4.36,0,0,0,2.31-.64,7.48,7.48,0,0,0,1.93-1.72,11.7,11.7,0,0,0,1.54-2.56,22.23,22.23,0,0,0,1.12-3.1Zm-21.44-19.2a3.43,3.43,0,0,0-.17-.94,3.39,3.39,0,0,0-.56-1.08,3.2,3.2,0,0,0-1.06-.87,3.63,3.63,0,0,0-1.7-.35,5.66,5.66,0,0,0-3.39,1.16,12.59,12.59,0,0,0-2.93,3.1,24.74,24.74,0,0,0-2.37,4.38,42.63,42.63,0,0,0-2.87,10.16,31,31,0,0,0-.37,4.51,12.13,12.13,0,0,0,.46,3.78,5.11,5.11,0,0,0,1.1,2,2.56,2.56,0,0,0,1.39.77,8.14,8.14,0,0,0,1.33.13,4.91,4.91,0,0,0,2-.48,7.3,7.3,0,0,0,2-1.41,10.37,10.37,0,0,0,1.79-2.35,11.62,11.62,0,0,0,1.23-3.28Z"/><path class="cls-5" d="M255.09,173.15a34.62,34.62,0,0,1-2.68,6,24.77,24.77,0,0,1-3.07,4.28,16.74,16.74,0,0,1-6.54,4.49,15,15,0,0,1-3,.79,18.06,18.06,0,0,1-2.56.21,10.74,10.74,0,0,1-3.57-.58,7.44,7.44,0,0,1-2.89-1.83,8.75,8.75,0,0,1-1.93-3.16,13.35,13.35,0,0,1-.71-4.61,21.79,21.79,0,0,1,.17-2.56q.17-1.39.5-3l5.78-27.3h12.26l-6.11,28.92a7.2,7.2,0,0,0-.27,1.39q-.06.69-.06,1.35a3.07,3.07,0,0,0,.83,2.47,4.08,4.08,0,0,0,2.62.69,5.62,5.62,0,0,0,2.43-.56,7.82,7.82,0,0,0,2.18-1.56,11.08,11.08,0,0,0,1.79-2.39,15,15,0,0,0,1.29-3Zm-5.28-38.6a6.48,6.48,0,0,1-.54,2.64,6.55,6.55,0,0,1-1.48,2.12,7.11,7.11,0,0,1-2.16,1.41,7,7,0,0,1-5.28,0,6.83,6.83,0,0,1-2.14-1.41,6.41,6.41,0,0,1-1.43-2.12,7,7,0,0,1,0-5.28,6.9,6.9,0,0,1,1.43-2.16,6.78,6.78,0,0,1,2.14-1.48,6.72,6.72,0,0,1,5.28,0,7.06,7.06,0,0,1,3.64,3.64A6.48,6.48,0,0,1,249.81,134.54Z"/><path class="cls-5" d="M248.27,188.4l9-42.55h12.26l-.91,4.4a15.66,15.66,0,0,1,2.72-2.47,12.73,12.73,0,0,1,2.64-1.43,11.25,11.25,0,0,1,2.43-.67,15,15,0,0,1,2.14-.17,12.74,12.74,0,0,1,3.78.54,7.52,7.52,0,0,1,5,4.7,12.11,12.11,0,0,1,.71,4.36,23.75,23.75,0,0,1-.31,3.68q-.31,2-.77,4t-1,4.09q-.52,2-1,3.91t-.77,3.47a15,15,0,0,0-.31,2.8,4.26,4.26,0,0,0,.73,2.58,3.12,3.12,0,0,0,2.68,1,5,5,0,0,0,2.83-.54,11.43,11.43,0,0,1-1.16,4,9.35,9.35,0,0,1-2.12,2.72A7.9,7.9,0,0,1,284,188.4a10.7,10.7,0,0,1-3.24.5,9.34,9.34,0,0,1-4.11-.81,7.09,7.09,0,0,1-2.66-2.16,8.43,8.43,0,0,1-1.41-3.08,15.09,15.09,0,0,1-.42-3.55,25.18,25.18,0,0,1,.6-5q.6-2.89,1.31-5.92t1.31-5.86a23.86,23.86,0,0,0,.6-4.86q0-4.36-3.08-4.36a4,4,0,0,0-2.16.62,7.16,7.16,0,0,0-1.83,1.68,12.58,12.58,0,0,0-1.5,2.49,24.16,24.16,0,0,0-1.16,3.05l-5.78,27.3Z"/><path class="cls-5" d="M353.11,173.94a22.16,22.16,0,0,1-4.61,7.29,27.13,27.13,0,0,1-6.29,4.9,27.94,27.94,0,0,1-6.9,2.76,27.57,27.57,0,0,1-14.69-.25,13.25,13.25,0,0,1-5.8-3.62,15.75,15.75,0,0,1-3.45-6.48,35.7,35.7,0,0,1-1.14-9.72,62.18,62.18,0,0,1,.35-6.34,65.3,65.3,0,0,1,1.14-7.08,71,71,0,0,1,2-7.35,51.14,51.14,0,0,1,3-7.13,41.72,41.72,0,0,1,4-6.42,27.76,27.76,0,0,1,5.15-5.19,23.61,23.61,0,0,1,6.36-3.47,22.38,22.38,0,0,1,7.69-1.27,23,23,0,0,1,5.55.64,13.26,13.26,0,0,1,4.53,2,9.62,9.62,0,0,1,3,3.53,11.32,11.32,0,0,1,1.1,5.19,14.82,14.82,0,0,1-.31,3.14,7,7,0,0,1-1,2.49,5,5,0,0,1-1.87,1.64,6,6,0,0,1-2.76.58,8.55,8.55,0,0,1-2.31-.37,5.24,5.24,0,0,1-2.51-1.83,4.84,4.84,0,0,0,1.45-1.18,9.18,9.18,0,0,0,1.25-1.87,11.75,11.75,0,0,0,.87-2.31,9.64,9.64,0,0,0,.33-2.49,7.16,7.16,0,0,0-.27-2,4.21,4.21,0,0,0-.89-1.66,4.55,4.55,0,0,0-1.62-1.14,6,6,0,0,0-2.41-.44,7.36,7.36,0,0,0-4.59,1.75,20,20,0,0,0-4.2,4.72,40.75,40.75,0,0,0-3.62,6.92,64.84,64.84,0,0,0-2.8,8.35,79.31,79.31,0,0,0-1.83,9.06,63.47,63.47,0,0,0-.67,9,30.54,30.54,0,0,0,.44,5.38,11.11,11.11,0,0,0,1.58,4.18,7.73,7.73,0,0,0,3.12,2.72,11.49,11.49,0,0,0,5.09,1,19.75,19.75,0,0,0,9.31-2.24,21.3,21.3,0,0,0,7.27-6.27Z"/><path class="cls-5" d="M398.73,156.07a20.89,20.89,0,0,1-6.44,4.45,33.78,33.78,0,0,1-8.64,2.62,40.07,40.07,0,0,1-2.26,10.64,28.42,28.42,0,0,1-4.47,8.06,19.29,19.29,0,0,1-6.19,5.11,16,16,0,0,1-7.4,1.79,19.63,19.63,0,0,1-5.46-.73,11,11,0,0,1-4.32-2.33,10.73,10.73,0,0,1-2.83-4.16,16.81,16.81,0,0,1-1-6.21,35.65,35.65,0,0,1,.52-5.67,40.84,40.84,0,0,1,1.66-6.54,39.16,39.16,0,0,1,3-6.59,25.3,25.3,0,0,1,4.4-5.75,21.06,21.06,0,0,1,6-4.09A18.49,18.49,0,0,1,373,145.1q10.93,0,10.93,13.59v.08a1.05,1.05,0,0,0,.39.08h.52a13.18,13.18,0,0,0,3.22-.44,26.61,26.61,0,0,0,3.47-1.14,29.56,29.56,0,0,0,3.41-1.64q1.66-.93,3-1.89Zm-22.15,7.31a2.55,2.55,0,0,1-1.81-1.31,5.09,5.09,0,0,1-.48-2.26,5.37,5.37,0,0,1,.73-2.93A4.36,4.36,0,0,1,377,155.2a15.05,15.05,0,0,0-.29-2.31,5,5,0,0,0-.58-1.54,2.12,2.12,0,0,0-.94-.85,3.55,3.55,0,0,0-1.43-.25,4.54,4.54,0,0,0-3,1.18,14,14,0,0,0-2.68,3.14,28.62,28.62,0,0,0-2.33,4.47,44.11,44.11,0,0,0-1.81,5.17,46.62,46.62,0,0,0-1.16,5.26,30,30,0,0,0-.42,4.72,21,21,0,0,0,.23,3.45,5.35,5.35,0,0,0,.75,2.1,2.66,2.66,0,0,0,1.35,1.06,6.2,6.2,0,0,0,2,.29,4.73,4.73,0,0,0,3.1-1.37,14.16,14.16,0,0,0,2.89-3.74,29.59,29.59,0,0,0,2.35-5.61A41.6,41.6,0,0,0,376.58,163.38Z"/><path class="cls-5" d="M434.8,173.15a38.29,38.29,0,0,1-2.62,6,25.27,25.27,0,0,1-2.93,4.28,16.55,16.55,0,0,1-3.1,2.83,15.33,15.33,0,0,1-3.08,1.66,13.54,13.54,0,0,1-2.87.79,16.81,16.81,0,0,1-2.49.21,8.19,8.19,0,0,1-5.82-2,9.41,9.41,0,0,1-2.62-6A21,21,0,0,1,406,185a15.51,15.51,0,0,1-3.28,2.45,10.55,10.55,0,0,1-3.16,1.14,16.66,16.66,0,0,1-2.87.27,10.74,10.74,0,0,1-3.57-.58,7.44,7.44,0,0,1-2.89-1.83,8.75,8.75,0,0,1-1.93-3.16,13.35,13.35,0,0,1-.71-4.61,21.79,21.79,0,0,1,.17-2.56q.17-1.39.5-3l5.78-27.3h12.26l-6.11,28.92a13.13,13.13,0,0,0-.25,2.41,5.21,5.21,0,0,0,.54,2.47,2.05,2.05,0,0,0,2,1,4.73,4.73,0,0,0,2.29-.56,6.65,6.65,0,0,0,1.89-1.56,10.36,10.36,0,0,0,1.5-2.39,24.13,24.13,0,0,0,1.14-3l5.78-27.3h12.26l-6.11,28.92a8.5,8.5,0,0,0-.29,1.39,11,11,0,0,0-.08,1.35,3,3,0,0,0,.85,2.47,4.18,4.18,0,0,0,2.64.69,4.85,4.85,0,0,0,2.31-.56,6.81,6.81,0,0,0,1.93-1.56,10.45,10.45,0,0,0,1.54-2.39,19,19,0,0,0,1.12-3Z"/><path class="cls-5" d="M428,188.4l9-42.55h12.26l-1.08,5.28q1.12-1,2.29-2a17.76,17.76,0,0,1,2.43-1.68,14.53,14.53,0,0,1,2.64-1.18,9.14,9.14,0,0,1,2.91-.46,5.61,5.61,0,0,1,4.4,2,5.85,5.85,0,0,1,1.12,2,7.84,7.84,0,0,1,.37,2.41,6.88,6.88,0,0,1-.37,2.22,5.78,5.78,0,0,1-1.14,2,6,6,0,0,1-1.93,1.43,6.15,6.15,0,0,1-2.7.56,3.41,3.41,0,0,1-1.85-.42,2.79,2.79,0,0,1-1-1,4.88,4.88,0,0,1-.48-1.35q-.15-.73-.31-1.35a3.64,3.64,0,0,0-.44-1,1,1,0,0,0-.89-.42,5.75,5.75,0,0,0-3.28.89,24.76,24.76,0,0,0-2.91,2.35l-6.81,32.33Z"/><path class="cls-5" d="M499.29,173.15a43,43,0,0,1-6.67,6.38,65.94,65.94,0,0,1-6.34,4.26,13.62,13.62,0,0,1-3,2.39,18,18,0,0,1-3.41,1.58,20.41,20.41,0,0,1-3.57.87,23.29,23.29,0,0,1-3.43.27,14.38,14.38,0,0,1-5.55-1,11.65,11.65,0,0,1-3.89-2.53,9.92,9.92,0,0,1-2.26-3.49,11,11,0,0,1-.73-3.89,9.27,9.27,0,0,1,.39-2.76,9.73,9.73,0,0,1,1-2.26,8,8,0,0,1,1.43-1.72,7.13,7.13,0,0,1,1.68-1.14,103.46,103.46,0,0,0,6-12.65q2.45-6.25,4.45-12.57l12.59-1.66q.25,5.53.48,9.58t.44,7q.21,3,.37,5t.31,3.68q.15,1.6.21,2.91t.06,2.72q0,1-.06,1.75a7.35,7.35,0,0,1-.27,1.5q1.87-1.08,3.39-2.14a28.6,28.6,0,0,0,2.72-2.14ZM465,176.22a7.05,7.05,0,0,0,1.18,4.47q1.19,1.48,4,1.48a9.57,9.57,0,0,0,2.74-.39,6.1,6.1,0,0,0,2.37-1.33A6.67,6.67,0,0,0,477,178a9.77,9.77,0,0,0,.62-3.74q0-1.08-.06-2.1t-.15-2.16q-.08-1.14-.23-2.56t-.33-3.28q-.19-1.87-.39-4.32t-.46-5.73a72,72,0,0,1-3,8.06q-1.74,3.91-3.86,8a4.56,4.56,0,0,1,1.39,1.16,2.78,2.78,0,0,1,.56,1.79,4.84,4.84,0,0,1-.25,1.54A4.16,4.16,0,0,1,470,176a3.75,3.75,0,0,1-1.18,1,3.35,3.35,0,0,1-1.56.35,4.16,4.16,0,0,1-1.33-.21A1.62,1.62,0,0,1,465,176.22Z"/><path class="cls-5" d="M531.28,173.15a48.73,48.73,0,0,1-4.09,5.82,30.73,30.73,0,0,1-5.19,5,25.69,25.69,0,0,1-6.4,3.55,21.31,21.31,0,0,1-7.71,1.35,18.3,18.3,0,0,1-5.49-.77,10.82,10.82,0,0,1-4.2-2.39,10.51,10.51,0,0,1-2.68-4.18,18,18,0,0,1-.94-6.17,37.15,37.15,0,0,1,.5-5.65,43.24,43.24,0,0,1,1.58-6.57,37.2,37.2,0,0,1,2.87-6.61,26,26,0,0,1,4.32-5.8,20,20,0,0,1,5.94-4.11,18.48,18.48,0,0,1,7.77-1.56,13.39,13.39,0,0,1,4.67.69,7.54,7.54,0,0,1,2.87,1.81,6,6,0,0,1,1.46,2.6,11.79,11.79,0,0,1,.39,3.05,14.93,14.93,0,0,1-1.62,6.88,18.34,18.34,0,0,1-4.34,5.55,22.48,22.48,0,0,1-6.25,3.82,23.12,23.12,0,0,1-7.35,1.7q-.08,1-.15,1.81t-.06,1.6a13.29,13.29,0,0,0,.39,3.55,5,5,0,0,0,1.16,2.18,4.12,4.12,0,0,0,1.91,1.1,10.24,10.24,0,0,0,2.68.31,14.87,14.87,0,0,0,4.59-.66,16,16,0,0,0,3.84-1.83,21.51,21.51,0,0,0,3.39-2.74q1.6-1.58,3.22-3.37Zm-23.23-6a11.39,11.39,0,0,0,4.65-1.37,14.17,14.17,0,0,0,3.95-3.14,15.58,15.58,0,0,0,2.72-4.4,13.37,13.37,0,0,0,1-5.13,5.93,5.93,0,0,0-.46-2.53,1.68,1.68,0,0,0-1.66-1,4.54,4.54,0,0,0-3.18,1.56,17.91,17.91,0,0,0-2.93,4.05,34.82,34.82,0,0,0-2.43,5.63A50,50,0,0,0,508.06,167.12Z"/><path class="cls-5" d="M553.22,143.23q.25,5.53.48,9.58t.44,7q.21,3,.37,5t.31,3.68q.15,1.6.21,2.91t.06,2.72a14.91,14.91,0,0,1-.77,5,12.71,12.71,0,0,1-2.08,3.8,13.36,13.36,0,0,1-3,2.76,17.79,17.79,0,0,1-3.61,1.85,19.94,19.94,0,0,1-3.84,1,23.55,23.55,0,0,1-3.7.31,14.38,14.38,0,0,1-5.55-1,11.65,11.65,0,0,1-3.89-2.53,9.92,9.92,0,0,1-2.26-3.49,11,11,0,0,1-.73-3.89,9.27,9.27,0,0,1,.39-2.76,9.73,9.73,0,0,1,1-2.26,8,8,0,0,1,1.43-1.72,7.13,7.13,0,0,1,1.68-1.14,103.46,103.46,0,0,0,6-12.65q2.45-6.25,4.45-12.57Zm-23.06,33a7.05,7.05,0,0,0,1.18,4.47q1.19,1.48,4,1.48a9.57,9.57,0,0,0,2.74-.39,6.1,6.1,0,0,0,2.37-1.33,6.67,6.67,0,0,0,1.66-2.43,9.77,9.77,0,0,0,.62-3.74q0-1.08-.06-2.1t-.15-2.16q-.08-1.14-.23-2.56t-.33-3.28q-.19-1.87-.39-4.32t-.46-5.73a72,72,0,0,1-3,8.06q-1.74,3.91-3.86,8a4.56,4.56,0,0,1,1.39,1.16,2.78,2.78,0,0,1,.56,1.79,4.84,4.84,0,0,1-.25,1.54,4.16,4.16,0,0,1-.75,1.35,3.75,3.75,0,0,1-1.18,1,3.35,3.35,0,0,1-1.56.35,4.16,4.16,0,0,1-1.33-.21A1.62,1.62,0,0,1,530.16,176.22Z"/><path class="cls-5" d="M575.5,188.4l11.22-53.1h-8.06l1-3.91q1.74,0,3.91-.17a28.13,28.13,0,0,0,4.82-.85,45.94,45.94,0,0,0,5.86-2,52.37,52.37,0,0,0,7.06-3.64L587.75,188.4Z"/><path class="cls-5" d="M620,189.27a18.5,18.5,0,0,1-8.31-1.66,13.59,13.59,0,0,1-5.28-4.53,18.58,18.58,0,0,1-2.76-6.75,40.78,40.78,0,0,1-.81-8.33,68.55,68.55,0,0,1,.93-11.41,58.63,58.63,0,0,1,2.72-10.43,46.87,46.87,0,0,1,4.34-8.93,33.07,33.07,0,0,1,5.78-7,25,25,0,0,1,7-4.53,20.64,20.64,0,0,1,8.14-1.62,16.81,16.81,0,0,1,7.29,1.48,13.63,13.63,0,0,1,5.11,4.16,18.19,18.19,0,0,1,3,6.46,33.59,33.59,0,0,1,1,8.39q0,3.12-.35,6.67t-1.1,7.27a71.15,71.15,0,0,1-1.93,7.46,52.26,52.26,0,0,1-2.85,7.15,41.7,41.7,0,0,1-3.82,6.36,26.35,26.35,0,0,1-4.88,5.11,22.26,22.26,0,0,1-6,3.41A20.27,20.27,0,0,1,620,189.27Zm11.68-60.08a6.09,6.09,0,0,0-4,1.72,19.54,19.54,0,0,0-3.76,4.7,44.7,44.7,0,0,0-3.32,7A68.41,68.41,0,0,0,618,151.1a90.57,90.57,0,0,0-1.75,9.41,73,73,0,0,0-.64,9.6,46.87,46.87,0,0,0,.23,4.7,18.44,18.44,0,0,0,.83,4.07,7.24,7.24,0,0,0,1.68,2.87,3.82,3.82,0,0,0,2.83,1.08,6.22,6.22,0,0,0,4.05-1.68,18,18,0,0,0,3.7-4.61,41.27,41.27,0,0,0,3.16-6.9,69.52,69.52,0,0,0,2.45-8.56,91.93,91.93,0,0,0,1.58-9.56,88.19,88.19,0,0,0,.56-9.91,37,37,0,0,0-.29-4.74,19.84,19.84,0,0,0-.89-4,7.6,7.6,0,0,0-1.54-2.72A3,3,0,0,0,631.71,129.18Z"/><path class="cls-5" d="M649.75,188.4,661,135.29h-8.06l1-3.91q1.74,0,3.91-.17a28.13,28.13,0,0,0,4.82-.85,45.94,45.94,0,0,0,5.86-2,52.37,52.37,0,0,0,7.06-3.64L662,188.4Z"/><path class="cls-5" d="M392.17,1537.63a20.1,20.1,0,0,1,7.77,7.53,21.77,21.77,0,0,1,0,21.48,20.25,20.25,0,0,1-7.83,7.53,22.82,22.82,0,0,1-11.16,2.73H364v-42h17.1A22.53,22.53,0,0,1,392.17,1537.63Zm-3,32a15,15,0,0,0,5.64-5.64,16.66,16.66,0,0,0,0-16.14,15.29,15.29,0,0,0-5.73-5.67,16,16,0,0,0-8.07-2.07H369.76v31.56h11.46A15.73,15.73,0,0,0,389.17,1569.64Z"/><path class="cls-5" d="M430.69,1547a14.68,14.68,0,0,1,5.76,5.67,17.77,17.77,0,0,1,0,16.65,14.61,14.61,0,0,1-5.76,5.7,18.56,18.56,0,0,1-16.92,0,14.66,14.66,0,0,1-5.76-5.67,17.83,17.83,0,0,1,0-16.68,14.68,14.68,0,0,1,5.76-5.67,18.56,18.56,0,0,1,16.92,0Zm-14,4.26a10,10,0,0,0-3.78,4,12.18,12.18,0,0,0-1.35,5.79,12.49,12.49,0,0,0,1.35,5.88,9.7,9.7,0,0,0,3.78,4,10.85,10.85,0,0,0,5.55,1.41,10.73,10.73,0,0,0,5.49-1.41,9.7,9.7,0,0,0,3.78-4,12.49,12.49,0,0,0,1.35-5.88,12.18,12.18,0,0,0-1.35-5.79,10,10,0,0,0-3.78-4,10.56,10.56,0,0,0-5.49-1.44A10.68,10.68,0,0,0,416.71,1551.28Z"/><path class="cls-5" d="M458.14,1550a11,11,0,0,0-5.55,1.38,9.8,9.8,0,0,0-3.81,3.9,11.92,11.92,0,0,0-1.38,5.82,12.15,12.15,0,0,0,1.35,5.82,9.92,9.92,0,0,0,3.72,3.93,10.41,10.41,0,0,0,5.43,1.41,14.28,14.28,0,0,0,5.52-1,10.49,10.49,0,0,0,4.08-2.94l3.18,3.24a14,14,0,0,1-5.49,4.14,18.8,18.8,0,0,1-7.53,1.44,16.38,16.38,0,0,1-8.22-2,14.42,14.42,0,0,1-5.61-5.67,16.86,16.86,0,0,1-2-8.31,17,17,0,0,1,2-8.34,14.38,14.38,0,0,1,5.61-5.7,16.39,16.39,0,0,1,8.22-2,20.1,20.1,0,0,1,7.23,1.23,14,14,0,0,1,5.37,3.57l-3.06,3.84A12.57,12.57,0,0,0,458.14,1550Z"/><path class="cls-5" d="M499.48,1576.9l-10.14-15.42-6.18,6.42v9h-5.58v-44.52h5.58v28.38l15.36-15.6h6.54l-11.82,12.3,13,19.44Z"/><path class="cls-5" d="M533.26,1549.33q3.78,4.35,3.78,12.09,0,1.2-.06,1.8H511.9a10.81,10.81,0,0,0,3.57,6.78,10.56,10.56,0,0,0,7.17,2.52,13.42,13.42,0,0,0,5.25-1,12.61,12.61,0,0,0,4.23-2.88l3.06,3.18a16,16,0,0,1-5.64,3.9,18.78,18.78,0,0,1-7.32,1.38,16.86,16.86,0,0,1-8.31-2,14.11,14.11,0,0,1-5.64-5.67,18.25,18.25,0,0,1,0-16.65,14.64,14.64,0,0,1,5.61-5.7,16.18,16.18,0,0,1,8.22-2.07Q529.48,1545,533.26,1549.33ZM532,1558.9a9.2,9.2,0,0,0-9.84-9.3,10,10,0,0,0-7,2.52,10.58,10.58,0,0,0-3.33,6.78Z"/><path class="cls-5" d="M553.3,1546.81a13.2,13.2,0,0,1,6.84-1.83v5.4a10.21,10.21,0,0,0-11.28,9.78v16.74h-5.58v-31.74h5.58V1552A11.48,11.48,0,0,1,553.3,1546.81Z"/><path class="cls-6" d="M235.62,1540h17.77v18.17h9a39,39,0,0,0,12.35-2.07,31.62,31.62,0,0,0,6-2.71,22.27,22.27,0,0,1-4.17-11.49c-.51-5.54.61-12.76,4.36-17.1l1.87-2.16,2.23,1.79c5.6,4.5,10.32,10.79,11.15,18,6.75-2,14.67-1.52,20.62,1.92l2.44,1.41-1.28,2.51c-5,9.82-15.55,12.86-25.83,12.32-15.38,38.32-48.88,56.46-89.49,56.46-21,0-40.23-7.84-51.19-26.46l-.18-.3-1.6-3.25a51.54,51.54,0,0,1-4.1-26.14l.25-2.69H161V1540h17.77v-17.77h35.54v-17.77h21.32V1540"/><path class="cls-4" d="M293.19,1546.74c1.19-9.26-5.74-16.53-10-20-5,5.73-5.72,20.73,2,27-4.34,3.85-13.47,7.34-22.83,7.34H148.49a48,48,0,0,0,4.72,26.46l1.3,2.37a43.94,43.94,0,0,0,2.68,4q7,.45,12.95.32h0c7.76-.17,14.09-1.09,18.89-2.75a1.37,1.37,0,0,1,.9,2.58c-.64.22-1.3.43-2,.63h0a59.41,59.41,0,0,1-13.06,2.13c.31,0-.32,0-.32,0l-.58,0c-2.06.12-4.28.14-6.55.14-2.48,0-4.93,0-7.66-.19l-.07,0c9.49,10.67,24.33,17.06,42.92,17.06,39.36,0,72.74-17.45,87.53-56.62,10.49,1.08,20.57-1.6,25.15-10.55-7.3-4.21-16.7-2.87-22.1-.15"/><path class="cls-4" d="M293.19,1546.74c1.19-9.26-5.74-16.53-10-20-5,5.73-5.72,20.73,2,27-4.34,3.85-13.47,7.34-22.83,7.34H155.23c-.46,15,5.09,26.31,14.91,33.17h0c7.76-.17,14.09-1.09,18.89-2.75a1.37,1.37,0,0,1,.9,2.58c-.64.22-1.3.43-2,.63h0a62.46,62.46,0,0,1-13.41,2.22l-.13-.12c13.4,6.87,32.82,6.85,55.09-1.71,25-9.59,48.2-27.87,64.42-48.77l-.71.34"/><path class="cls-4" d="M148.7,1573a45.52,45.52,0,0,0,4.51,14.59l1.3,2.37a43.85,43.85,0,0,0,2.68,4q7,.45,12.95.32c7.76-.17,14.09-1.09,18.89-2.75a1.37,1.37,0,0,1,.9,2.58c-.64.22-1.3.43-2,.63h0a62.48,62.48,0,0,1-13.39,2.18l-.67,0c-2.06.12-4.25.19-6.53.19-2.48,0-5,0-7.76-.19,9.49,10.67,24.42,17.08,43,17.08,33.7,0,63-12.79,80-41H148.7"/><path class="cls-4" d="M156.26,1573a34.2,34.2,0,0,0,13.88,21.31c7.76-.17,14.09-1.09,18.89-2.75a1.37,1.37,0,0,1,.9,2.58c-.64.22-1.3.43-2,.63h0a63.42,63.42,0,0,1-13.48,2.18c13.39,6.87,32.76,6.77,55-1.78A145.43,145.43,0,0,0,267.55,1573H156.26"/><path class="cls-4" d="M163.94,1543h15.4v15.4h-15.4Zm1.28,1.28h1.22v12.83h-1.22Zm2.28,0h1.26v12.83h-1.26v-12.83Zm2.33,0h1.26v12.83h-1.26Zm2.33,0h1.26v12.83h-1.26Zm2.33,0h1.26v12.83h-1.26v-12.83Zm2.33,0h1.22v12.83h-1.22Zm4.87-19.05h15.4v15.4h-15.4v-15.4Zm1.28,1.28h1.21v12.83H183Zm2.28,0h1.26v12.83h-1.26V1526.5Zm2.33,0h1.26v12.83h-1.26Zm2.33,0h1.26v12.83h-1.26Zm2.33,0h1.26v12.83h-1.26Zm2.33,0h1.22v12.83h-1.22Z"/><path class="cls-4" d="M181.71,1543h15.4v15.4h-15.4V1543Zm1.28,1.28h1.21v12.83H183Zm2.28,0h1.26v12.83h-1.26v-12.83Zm2.33,0h1.26v12.83h-1.26Zm2.33,0h1.26v12.83h-1.26Zm2.33,0h1.26v12.83h-1.26Zm2.33,0h1.22v12.83h-1.22Z"/><path class="cls-4" d="M199.48,1543h15.4v15.4h-15.4Zm1.28,1.28H202v12.83h-1.21Zm2.28,0h1.26v12.83h-1.26Zm2.33,0h1.26v12.83h-1.26Zm2.33,0H209v12.83h-1.26Zm2.33,0h1.27v12.83h-1.27Zm2.33,0h1.22v12.83h-1.22Z"/><path class="cls-4" d="M199.48,1525.21h15.4v15.4h-15.4Zm1.28,1.28H202v12.83h-1.21Zm2.28,0h1.26v12.83h-1.26Zm2.33,0h1.26v12.83h-1.26Zm2.33,0H209v12.83h-1.26Zm2.33,0h1.27v12.83h-1.27Zm2.33,0h1.22v12.83h-1.22Zm4.87,16.49h15.4v15.4h-15.4Zm1.28,1.28h1.21v12.83h-1.21Zm2.28,0h1.26v12.83h-1.26Zm2.33,0h1.26v12.83h-1.26Zm2.33,0h1.26v12.83h-1.26Zm2.33,0h1.26v12.83h-1.26Zm2.33,0h1.22v12.83h-1.22Z"/><path class="cls-4" d="M217.25,1525.21h15.4v15.4h-15.4Zm1.28,1.28h1.21v12.83h-1.21Zm2.28,0h1.26v12.83h-1.26Zm2.33,0h1.26v12.83h-1.26Zm2.33,0h1.26v12.83h-1.26Zm2.33,0h1.26v12.83h-1.26Zm2.33,0h1.22v12.83h-1.22Z"/><path class="cls-4" d="M217.25,1507.44h15.4v15.4h-15.4Zm1.28,1.28h1.21v12.83h-1.21v-12.84Zm2.28,0h1.26v12.83h-1.26v-12.84Zm2.33,0h1.26v12.83h-1.26v-12.84Zm2.33,0h1.26v12.83h-1.26v-12.84Zm2.33,0h1.26v12.83h-1.26v-12.84Zm2.33,0h1.22v12.83h-1.22v-12.84Z"/><path class="cls-4" d="M235,1543h15.4v15.4H235Zm1.28,1.28h1.22v12.83h-1.22v-12.83Zm2.28,0h1.26v12.83h-1.26v-12.83Zm2.33,0h1.26v12.83h-1.26Zm2.33,0h1.26v12.83h-1.26Zm2.33,0h1.26v12.83h-1.26Zm2.33,0h1.22v12.83h-1.22Z"/><path class="cls-4" d="M196.15,1583.35a4.25,4.25,0,1,1,.11,8.5h-.11a4.25,4.25,0,0,1,0-8.5"/><path class="cls-6" d="M196.15,1584.56a3,3,0,0,1,1.1.21,1.24,1.24,0,1,0,1.71,1.67,3,3,0,1,1-2.81-1.88m-75.15-10H318.64c-4.3-1.09-13.62-2.57-12.08-8.21-7.83,9.05-26.7,6.35-31.46,1.89-5.3,7.69-36.18,4.77-38.33-1.22-6.65,7.8-27.25,7.8-33.9,0-2.15,6-33,8.92-38.33,1.22-4.76,4.47-23.63,7.17-31.46-1.89,1.54,5.64-7.78,7.11-12.08,8.21"/><path class="cls-4" d="M207.44,1614c-10.52-5-16.3-11.78-19.51-19.19a65.18,65.18,0,0,1-14.07,2.13q-3.08.17-6.49.17-3.93,0-8.27-.23c9.65,9.64,21.52,17.07,43.5,17.2q2.43,0,4.84-.09"/><path class="cls-4" d="M191.84,1601.62a36.88,36.88,0,0,1-3.91-6.84,65.14,65.14,0,0,1-14.07,2.14c3.75,2,9.11,3.92,18,4.7"/><path class="cls-4" d="M216.32,935.34h-1.68a18.62,18.62,0,0,0-9,0H204c-.52-1.29-1.74-.81-2.64-1-18.76-3.1-33.45-12.43-43.79-28.47,6.8,0,13.6,0,20.4-.11a25.31,25.31,0,0,0,13.6-3.63c-1.56-1.57-3.2-2.78-4.23-4.38-1.73-2.66-3.56-3.85-6.76-2.44-1.28.56-2.94.33-4.42.35-7.92.08-15.84.12-23.76.17l-2.06-5.41c-1-2.53-.83-5.39-2.33-7.76V862c1.07-.84.79-2.15,1.1-3.24,1-3.43,1.55-7,3.45-10.1,8.85.3,17.73-.43,26.55.42,4.22.41,8,2.2,10.37,6.13l.45.61.1.15a1.63,1.63,0,0,0,.24.33l.35.94.5.85a.76.76,0,0,1,.15.47l-1.63.81c-.94-1.46-1.83-3-2.85-4.36-1.19-1.63-2.26-1.75-2.91.47-.15.51-.39,1-.59,1.49l-.46.85-1.69,7c0,.06-.13.12-.12.17a2.3,2.3,0,0,0,.11.39l-.19,1.67c-1.43,2.08-1.41,8.1,0,10.09a51.74,51.74,0,0,0,3.32,11.8c9.57,22.15,37.62,21,48.29,6.88,9.31-12.34,10.08-26,4.38-39.7a28.63,28.63,0,0,0-39-14.91c-1.6.77-2.41,1.29-.47,2.7a17.08,17.08,0,0,1,4.32,4.73c.9,1.42,1.75,1.62,3.41,1.09,8.54-2.75,16.18.64,19.4,8.93a36.48,36.48,0,0,1-.42,28.33c-2.74,6.4-8.1,9.22-15.12,8.56-1.22-1.61-2.87-1.25-4.5-1a4.37,4.37,0,0,1-2.86-1.53l.19-1.53a7,7,0,0,0,2.08-2.92c3.39-6.5,3.25-13.54,2.76-20.5-1.12-15.77-12-30.3-31.69-29.51-5.76.23-11.55,0-17.32,0a6.62,6.62,0,0,1,.47-1c10.07-14.58,23.73-23.68,41.18-27,1.19-.23,2.63.16,3.52-1.09h14c.32.84,1.08.56,1.67.65,31.8,4.67,54.61,30.78,54.55,62.45-.05,31.47-22.91,57.41-54.66,62.06C217.72,934.6,216.7,934.23,216.32,935.34Z"/><path class="cls-4" d="M205.68,935.34a18.62,18.62,0,0,1,9,0Z"/><path class="cls-6" d="M209,895.52c7,.66,12.38-2.16,15.12-8.56a36.48,36.48,0,0,0,.42-28.33c-3.22-8.3-10.86-11.68-19.4-8.93-1.66.53-2.51.33-3.41-1.09a17.08,17.08,0,0,0-4.32-4.73c-1.94-1.41-1.13-1.93.47-2.7a28.63,28.63,0,0,1,39,14.91c5.7,13.74,4.93,27.37-4.38,39.7-10.67,14.14-38.72,15.28-48.29-6.88A51.74,51.74,0,0,1,181,877.1l0-10.09.19-1.67,0-.57,1.69-7a.71.71,0,0,0,.46-.85c.2-.5.44-1,.59-1.49.65-2.22,1.72-2.1,2.91-.47,1,1.4,1.9,2.91,2.85,4.36,1.92,5,2.08,10.33,2.2,15.64.16,7.66,3.29,13.8,9.86,18a4.37,4.37,0,0,0,2.86,1.53A8.13,8.13,0,0,0,209,895.52Z"/><path class="cls-6" d="M152.55,848.63a32,32,0,0,1,5.16-10.17c5.77,0,11.56.28,17.32.05,19.68-.79,30.57,13.74,31.69,29.51.49,7,.63,14-2.76,20.5a7,7,0,0,1-2.08,2.92c-.13-.33-.18-.77-.42-1-6-5.5-7.76-12.54-7.63-20.4a22.3,22.3,0,0,0-2.58-11.53.76.76,0,0,0-.15-.47l-.5-.85-.34-.94a.33.33,0,0,0-.24-.33l-.1-.15-.45-.61c-2.34-3.93-6.15-5.72-10.37-6.13C170.28,848.21,161.4,848.93,152.55,848.63Z"/><path class="cls-6" d="M157.57,905.91a33.33,33.33,0,0,1-5.17-10c7.92-.05,15.84-.09,23.76-.17,1.49,0,3.14.21,4.42-.35,3.21-1.41,5-.22,6.76,2.44,1,1.6,2.68,2.8,4.23,4.38A25.31,25.31,0,0,1,178,905.8C171.17,905.89,164.37,905.88,157.57,905.91Z"/><path class="cls-4" d="M191.25,858.54a22.3,22.3,0,0,1,2.58,11.53c-.14,7.86,1.58,14.9,7.63,20.4.24.22.28.65.42,1l-.19,1.53c-6.57-4.2-9.7-10.34-9.86-18-.11-5.32-.28-10.59-2.2-15.64Z"/><path class="cls-4" d="M180.91,867l0,10.09C179.51,875.11,179.48,869.09,180.91,867Z"/><path class="cls-4" d="M209,895.52a8.13,8.13,0,0,1-4.5-1C206.18,894.26,207.83,893.91,209,895.52Z"/><path class="cls-4" d="M189.47,855.18l.45.61Z"/><path class="cls-4" d="M190,855.95a.33.33,0,0,1,.24.33A1.62,1.62,0,0,1,190,855.95Z"/><path class="cls-4" d="M183.28,856.94a.71.71,0,0,1-.46.85Z"/><path class="cls-4" d="M190.6,857.21l.5.85Z"/><path class="cls-4" d="M181.12,864.77l0,.57a2.3,2.3,0,0,1-.11-.39C181,864.89,181.08,864.83,181.12,864.77Z"/><path class="cls-5" d="M392.17,847.72a20.11,20.11,0,0,1,7.77,7.53,21.77,21.77,0,0,1,0,21.48,20.26,20.26,0,0,1-7.83,7.53A22.83,22.83,0,0,1,380.92,887H364V845h17.1A22.54,22.54,0,0,1,392.17,847.72Zm-3,32a15,15,0,0,0,5.64-5.64,16.66,16.66,0,0,0,0-16.14,15.31,15.31,0,0,0-5.73-5.67,16,16,0,0,0-8.07-2.07H369.76v31.56h11.46A15.74,15.74,0,0,0,389.17,879.73Z"/><path class="cls-5" d="M432.94,859.42q3.78,4.35,3.78,12.09,0,1.2-.06,1.8H411.58a10.81,10.81,0,0,0,3.57,6.78,10.57,10.57,0,0,0,7.17,2.52,13.41,13.41,0,0,0,5.25-1,12.61,12.61,0,0,0,4.23-2.88l3.06,3.18a16,16,0,0,1-5.64,3.9,18.76,18.76,0,0,1-7.32,1.38,16.87,16.87,0,0,1-8.31-2,14.12,14.12,0,0,1-5.64-5.67,17,17,0,0,1-2-8.34,16.87,16.87,0,0,1,2-8.31,14.63,14.63,0,0,1,5.61-5.7,16.19,16.19,0,0,1,8.22-2.07Q429.16,855.07,432.94,859.42ZM431.68,869a9.2,9.2,0,0,0-9.84-9.3,10,10,0,0,0-7,2.52,10.57,10.57,0,0,0-3.33,6.78Z"/><path class="cls-5" d="M436.6,855.25h5.94l9.54,26.22,9.48-26.22h5.64L454.84,887H449Z"/><path class="cls-5" d="M500.71,847.45a21.2,21.2,0,0,1,8,7.71,20.52,20.52,0,0,1,2.94,10.77,20.83,20.83,0,0,1-2.94,10.83,21.27,21.27,0,0,1-8,7.8,23.15,23.15,0,0,1-22.26,0,21.27,21.27,0,0,1-8-7.8,20.82,20.82,0,0,1-2.94-10.83,20.51,20.51,0,0,1,2.94-10.77,21.26,21.26,0,0,1,8-7.71,23.44,23.44,0,0,1,22.29,0Zm-19.2,4.5a16.42,16.42,0,0,0-6,5.85,16,16,0,0,0,0,16.29,16.57,16.57,0,0,0,6,5.91,15.83,15.83,0,0,0,8.13,2.19,15.52,15.52,0,0,0,8.07-2.19,16.49,16.49,0,0,0,5.88-5.91,16.24,16.24,0,0,0,0-16.29,16.34,16.34,0,0,0-5.88-5.85,15.7,15.7,0,0,0-8.07-2.16A16,16,0,0,0,481.51,851.95Z"/><path class="cls-5" d="M543.58,857.11a14,14,0,0,1,5.4,5.7,19.28,19.28,0,0,1,0,16.71,13.7,13.7,0,0,1-5.34,5.64,15.39,15.39,0,0,1-7.89,2,14.49,14.49,0,0,1-7.08-1.68,12,12,0,0,1-4.8-4.8v17.94h-5.58V855.25h5.58v6.3a12.11,12.11,0,0,1,4.77-4.8,14.18,14.18,0,0,1,7-1.68A15.37,15.37,0,0,1,543.58,857.11Zm-3.51,23.76a9.9,9.9,0,0,0,3.78-4A12.36,12.36,0,0,0,545.2,871a12,12,0,0,0-1.38-5.76,10.19,10.19,0,0,0-3.78-4,10.4,10.4,0,0,0-5.46-1.44,10.55,10.55,0,0,0-5.49,1.44,10.12,10.12,0,0,0-3.81,4,12.9,12.9,0,0,0,0,11.61,10.15,10.15,0,0,0,3.81,4,11.18,11.18,0,0,0,11,0Z"/><path class="cls-5" d="M570.31,860.35a15.57,15.57,0,0,0-4.53-.72,7.73,7.73,0,0,0-4,.93,3.11,3.11,0,0,0-1.53,2.85,3.17,3.17,0,0,0,1.71,2.91,24.84,24.84,0,0,0,5.19,2,40.7,40.7,0,0,1,5.4,1.92,9.58,9.58,0,0,1,3.57,2.82,8.74,8.74,0,0,1-1.92,11.76,14.5,14.5,0,0,1-8.43,2.34,21,21,0,0,1-6.87-1.14,15.58,15.58,0,0,1-5.61-3.24l2.1-4.08a14.85,14.85,0,0,0,4.89,2.88,16.24,16.24,0,0,0,5.67,1.08,8.49,8.49,0,0,0,4.44-1,3.4,3.4,0,0,0,1.68-3.12,3.55,3.55,0,0,0-1.77-3.24,24.13,24.13,0,0,0-5.37-2.16,36,36,0,0,1-5.19-1.83,9.21,9.21,0,0,1-3.42-2.73,7.37,7.37,0,0,1-1.41-4.68,7.53,7.53,0,0,1,3.24-6.66,14,14,0,0,1,8.1-2.22,20.2,20.2,0,0,1,5.67.81A17,17,0,0,1,576.7,858l-2,4.26A19.09,19.09,0,0,0,570.31,860.35Z"/><path class="cls-4" d="M162.12,1320.12c0-11.27,0-22.55-.12-33.82,0-1.55.51-2,2-2,11.27.08,22.55.08,33.82.11q0,7.62,0,15.24c-6,0-12.08.08-18.11,0-1.82,0-2.33.57-2.31,2.34.07,6,0,12.07,0,18.11Z"/><path class="cls-4" d="M234.13,1284.45c11.27,0,22.54,0,33.81-.12,1.52,0,2,.45,2,2-.08,11.27-.09,22.54-.11,33.81l-15.17,0c0-5.81-.19-11.63,0-17.44.08-2.51-.76-3-3.1-3-5.81.13-11.62,0-17.43-.08Z"/><path class="cls-4" d="M197.9,1392.09c-11.29,0-22.59.07-33.88.15-1.51,0-2-.47-2-2,.09-11.29.12-22.59.16-33.88h15.14c0,5.82.26,11.64.07,17.44-.09,2.69.81,3.2,3.28,3.14,5.72-.15,11.44,0,17.16,0Z"/><path class="cls-4" d="M269.76,1356.36q.07,17.07.15,34.15c0,1.23-.42,1.73-1.69,1.72q-17.07-.12-34.14-.17l.06-15.14c5.93,0,11.86-.15,17.78,0,2.27.06,2.73-.69,2.69-2.8-.12-5.93,0-11.86,0-17.78Z"/><path class="cls-4" d="M234.13,1284.45q0,7.56,0,15.11H212.15l-.7,1.35,20,19.55c-4,0-7.86,0-11.73,0a3.61,3.61,0,0,1-2.53-1.31l-19.36-19.47q0-7.62,0-15.24Z"/><path class="cls-4" d="M269.76,1356.36H254.62l-19.68-19.51c-.27-.27-.69-.59-.7-.9,0-4.27,0-8.54,0-12.82l.87-.41,19.56,19.75v-22.39l15.17,0Q269.78,1338.24,269.76,1356.36Z"/><path class="cls-4" d="M177.31,1356.35H162.17q0-18.12,0-36.24h15.27q9.26,9.31,18.5,18.63c.79.8,2,1.43,2,2.74.05,4,0,8.07,0,12.81l-20.62-20.49Z"/><path class="cls-4" d="M234.14,1376.92l-.06,15.14-36.17,0q0-7.56-.09-15.11h22l.74-1.37-19.93-19.26c3.59,0,7,.09,10.4,0a5.34,5.34,0,0,1,4.34,1.83C221.55,1364.45,227.86,1370.67,234.14,1376.92Z"/><path class="cls-5" d="M388.84,1309.48a16.17,16.17,0,0,0-20.58,6.6,16.18,16.18,0,0,0,5.88,22.11,16,16,0,0,0,8.16,2.16,16.44,16.44,0,0,0,6.48-1.35,18.76,18.76,0,0,0,5.64-3.69l3.48,3.78a23.43,23.43,0,0,1-7.38,4.89,22.05,22.05,0,0,1-19.5-1.08,21.2,21.2,0,0,1-10.74-18.63,20.66,20.66,0,0,1,2.91-10.77,21,21,0,0,1,7.95-7.71,22.35,22.35,0,0,1,11.1-2.82,22.61,22.61,0,0,1,8.49,1.65,21,21,0,0,1,7.11,4.65l-3.42,4.14A17.34,17.34,0,0,0,388.84,1309.48Z"/><path class="cls-5" d="M404.32,1300.81h5.58v44.52h-5.58Z"/><path class="cls-5" d="M441.37,1315.45a14.68,14.68,0,0,1,5.76,5.67,17.77,17.77,0,0,1,0,16.65,14.61,14.61,0,0,1-5.76,5.7,18.56,18.56,0,0,1-16.92,0,14.66,14.66,0,0,1-5.76-5.67,17.83,17.83,0,0,1,0-16.68,14.68,14.68,0,0,1,5.76-5.67,18.56,18.56,0,0,1,16.92,0Zm-14,4.26a10,10,0,0,0-3.78,4,12.18,12.18,0,0,0-1.35,5.79,12.49,12.49,0,0,0,1.35,5.88,9.7,9.7,0,0,0,3.78,4,10.85,10.85,0,0,0,5.55,1.41,10.73,10.73,0,0,0,5.49-1.41,9.7,9.7,0,0,0,3.78-4,12.49,12.49,0,0,0,1.35-5.88,12.18,12.18,0,0,0-1.35-5.79,10,10,0,0,0-3.78-4,10.56,10.56,0,0,0-5.49-1.44A10.68,10.68,0,0,0,427.39,1319.71Z"/><path class="cls-5" d="M483.7,1313.59v31.74h-5.64v-6.72q-3.12,6.78-11.76,6.9-5.52,0-8.64-3.27t-3.12-9v-19.62h5.64v18.12a8.61,8.61,0,0,0,2.19,6.27,8,8,0,0,0,6,2.25,8.92,8.92,0,0,0,7-3.15,11.8,11.8,0,0,0,2.61-7.89v-15.6Z"/><path class="cls-5" d="M522.76,1300.81v44.52h-5.58V1339a12.62,12.62,0,0,1-4.83,4.89,14.1,14.1,0,0,1-7,1.71,15.15,15.15,0,0,1-8-2.07,14.22,14.22,0,0,1-5.37-5.76,18,18,0,0,1-1.92-8.43,17.5,17.5,0,0,1,1.92-8.31,14.11,14.11,0,0,1,5.37-5.67,15.21,15.21,0,0,1,7.89-2,14.62,14.62,0,0,1,7.14,1.68,12,12,0,0,1,4.8,4.86v-19.08ZM512,1339.39a10.11,10.11,0,0,0,3.81-4,12.14,12.14,0,0,0,1.38-5.82,12.28,12.28,0,0,0-1.38-5.88,10.13,10.13,0,0,0-3.81-4,10.68,10.68,0,0,0-5.55-1.44,10.51,10.51,0,0,0-5.55,1.47,10.33,10.33,0,0,0-3.81,4.05,13,13,0,0,0,0,11.64,10.1,10.1,0,0,0,3.81,4,11.41,11.41,0,0,0,11.1,0Z"/><path class="cls-5" d="M577.36,1303.33h5.7v42h-5.82l-24-32.52v32.52h-5.76v-42h5.82l24.06,32.58Z"/><path class="cls-5" d="M612.58,1345.33v-4.44q-3.54,4.68-11.1,4.68a12.66,12.66,0,0,1-5.79-1.26,9.27,9.27,0,0,1-3.84-3.48,9.39,9.39,0,0,1-1.35-5,8.15,8.15,0,0,1,3.15-6.75q3.15-2.49,8.79-2.55h10.08V1325a6.56,6.56,0,0,0-2.07-5.19,8.84,8.84,0,0,0-6-1.83,17.26,17.26,0,0,0-9.78,3.42l-2.34-3.84a29.06,29.06,0,0,1,6.33-3.21,21.59,21.59,0,0,1,6.93-1q5.94,0,9.18,2.91a10.54,10.54,0,0,1,3.3,8.13l.06,20.88Zm-3.33-6.27a7.45,7.45,0,0,0,3.27-5v-3.18h-9.3a10.86,10.86,0,0,0-5.61,1.14,3.93,3.93,0,0,0-1.83,3.6,4.67,4.67,0,0,0,1.86,3.9,7.92,7.92,0,0,0,5,1.44A11.36,11.36,0,0,0,609.25,1339.06Z"/><path class="cls-5" d="M643.72,1343.23a13.68,13.68,0,0,1-7.44,2.34,8.46,8.46,0,0,1-6.12-2.25q-2.34-2.25-2.34-6.81v-17.58h-4.5v-4.26h4.5v-8.52h5.64v8.52h9.72v4.26h-9.72v16.56a5.87,5.87,0,0,0,1,3.78,3.55,3.55,0,0,0,2.88,1.14,10.06,10.06,0,0,0,4.92-1.5Z"/><path class="cls-5" d="M654.36,1301.95a3.86,3.86,0,0,1,0,5.16,3.55,3.55,0,0,1-5,0,3.86,3.86,0,0,1,0-5.16,3.55,3.55,0,0,1,5,0Zm-5.25,11.64h5.58v31.74h-5.58Z"/><path class="cls-5" d="M658.89,1313.59h5.94l9.54,26.22,9.48-26.22h5.64l-12.36,31.74h-5.82Z"/><path class="cls-5" d="M716.19,1317.76q3.78,4.35,3.78,12.09,0,1.2-.06,1.8H694.83a10.81,10.81,0,0,0,3.57,6.78,10.56,10.56,0,0,0,7.17,2.52,13.42,13.42,0,0,0,5.25-1,12.61,12.61,0,0,0,4.23-2.88l3.06,3.18a16,16,0,0,1-5.64,3.9,18.78,18.78,0,0,1-7.32,1.38,16.86,16.86,0,0,1-8.31-2,14.11,14.11,0,0,1-5.64-5.67,18.25,18.25,0,0,1,0-16.65,14.64,14.64,0,0,1,5.61-5.7,16.18,16.18,0,0,1,8.22-2.07Q712.41,1313.41,716.19,1317.76Zm-1.26,9.57a9.2,9.2,0,0,0-9.84-9.3,10,10,0,0,0-7,2.52,10.58,10.58,0,0,0-3.33,6.78Z"/><path class="cls-5" d="M393.49,393.71a21.2,21.2,0,0,1,8,7.71,20.52,20.52,0,0,1,2.94,10.77A20.83,20.83,0,0,1,401.5,423a21.27,21.27,0,0,1-8,7.8,23.16,23.16,0,0,1-22.26,0,21.27,21.27,0,0,1-8-7.8,20.82,20.82,0,0,1-2.94-10.83,20.51,20.51,0,0,1,2.94-10.77,21.26,21.26,0,0,1,8-7.71,23.43,23.43,0,0,1,22.29,0Zm-19.2,4.5a16.41,16.41,0,0,0-6,5.85,16,16,0,0,0,0,16.29,16.56,16.56,0,0,0,6,5.91,15.83,15.83,0,0,0,8.13,2.19,15.52,15.52,0,0,0,8.07-2.19,16.49,16.49,0,0,0,5.88-5.91,16.24,16.24,0,0,0,0-16.29,16.33,16.33,0,0,0-5.88-5.85,15.69,15.69,0,0,0-8.07-2.16A16,16,0,0,0,374.29,398.21Z"/><path class="cls-5" d="M436.36,403.37a14,14,0,0,1,5.4,5.7,19.28,19.28,0,0,1,0,16.71,13.7,13.7,0,0,1-5.34,5.64,15.38,15.38,0,0,1-7.89,2,14.47,14.47,0,0,1-7.08-1.68,12,12,0,0,1-4.8-4.8v17.94H411.1V401.51h5.58v6.3a12.11,12.11,0,0,1,4.77-4.8,14.18,14.18,0,0,1,7-1.68A15.37,15.37,0,0,1,436.36,403.37Zm-3.51,23.76a9.91,9.91,0,0,0,3.78-4,12.35,12.35,0,0,0,1.35-5.82,12,12,0,0,0-1.38-5.76,10.19,10.19,0,0,0-3.78-4,10.41,10.41,0,0,0-5.46-1.44,10.56,10.56,0,0,0-5.49,1.44,10.12,10.12,0,0,0-3.81,4,12.9,12.9,0,0,0,0,11.61,10.16,10.16,0,0,0,3.81,4,11.18,11.18,0,0,0,11,0Z"/><path class="cls-5" d="M474,405.68q3.78,4.35,3.78,12.09,0,1.2-.06,1.8H452.62a10.81,10.81,0,0,0,3.57,6.78,10.57,10.57,0,0,0,7.17,2.52,13.41,13.41,0,0,0,5.25-1,12.61,12.61,0,0,0,4.23-2.88l3.06,3.18a16,16,0,0,1-5.64,3.9,18.78,18.78,0,0,1-7.32,1.38,16.86,16.86,0,0,1-8.31-2,14.11,14.11,0,0,1-5.64-5.67,18.25,18.25,0,0,1,0-16.65,14.63,14.63,0,0,1,5.61-5.7,16.19,16.19,0,0,1,8.22-2.07Q470.2,401.33,474,405.68Zm-1.26,9.57a9.2,9.2,0,0,0-9.84-9.3,10,10,0,0,0-7,2.52,10.57,10.57,0,0,0-3.33,6.78Z"/><path class="cls-5" d="M510.4,404.6q3.18,3.27,3.18,9v19.62H508V415.13a7.8,7.8,0,0,0-8.46-8.52,9.58,9.58,0,0,0-6.93,2.73,10.72,10.72,0,0,0-3,6.93v17H484V401.51h5.58v6.72q3.18-6.78,12.06-6.9Q507.22,401.33,510.4,404.6Z"/><path class="cls-5" d="M522.7,391.25h29.16v5.22h-23.4v13H549.4v5.22H528.46V428h24.12v5.22H522.7Z"/><path class="cls-5" d="M588.55,394a9.13,9.13,0,0,1,3.69,7.71,9.3,9.3,0,0,1-2,6.09,9.92,9.92,0,0,1-5.58,3.33,10.93,10.93,0,0,1,6.87,3.51,10.42,10.42,0,0,1,2.49,7.11,9.93,9.93,0,0,1-4.05,8.43q-4,3-11.19,3H560.5v-42h17.94Q584.86,391.25,588.55,394Zm-4.38,13.38a5.61,5.61,0,0,0,2.13-4.71,5.46,5.46,0,0,0-2.13-4.62,9.54,9.54,0,0,0-6-1.56H566.26v12.54h11.88A9.65,9.65,0,0,0,584.17,407.42Zm1.29,18.78a5.89,5.89,0,0,0,2.64-5.13,5.71,5.71,0,0,0-2.64-5,12.87,12.87,0,0,0-7.32-1.8H566.26V428h11.88A12.41,12.41,0,0,0,585.46,426.2Z"/><path class="cls-5" d="M620.29,397.22a20.58,20.58,0,0,0-5.79-.93,10.69,10.69,0,0,0-5.85,1.41,4.38,4.38,0,0,0-2.19,3.87,5.09,5.09,0,0,0,1.32,3.63,9.33,9.33,0,0,0,3.24,2.22q1.92.81,5.34,1.89a60.45,60.45,0,0,1,6.9,2.52,12,12,0,0,1,4.5,3.57,9.88,9.88,0,0,1,1.86,6.27,10.49,10.49,0,0,1-2,6.3,12.5,12.5,0,0,1-5.46,4.17,20.74,20.74,0,0,1-8.07,1.47,23.47,23.47,0,0,1-9-1.8,24.38,24.38,0,0,1-7.56-4.8l2.58-5a21.63,21.63,0,0,0,6.75,4.53,18.6,18.6,0,0,0,7.29,1.59,11.65,11.65,0,0,0,6.63-1.65,5.14,5.14,0,0,0,2.43-4.47,5.21,5.21,0,0,0-1.32-3.66,9.31,9.31,0,0,0-3.33-2.28,56.92,56.92,0,0,0-5.43-1.86,55.35,55.35,0,0,1-6.84-2.46,11.8,11.8,0,0,1-4.47-3.54A9.75,9.75,0,0,1,600,402a9.9,9.9,0,0,1,1.86-5.94,11.75,11.75,0,0,1,5.22-4,20.42,20.42,0,0,1,7.8-1.38,25.22,25.22,0,0,1,7.41,1.11,24.89,24.89,0,0,1,6.45,3l-2.4,5.16A24.21,24.21,0,0,0,620.29,397.22Z"/><path class="cls-4" d="M164.14,636.23l24.75,5.27a26.27,26.27,0,0,0-1.43-2.82c-7.33-10.33-7.53-21.48-3.8-33.06,1.55-4.82,3.55-9.52,4.86-14.4,1.22-4.56,1.8-9.3,2.62-13.79,2.12.81,4.44,4.08,5.66,9.7.88,4,1.32,8.12,2.14,13.41,1.22-2.11,2-3.18,2.5-4.34A54.23,54.23,0,0,0,206.17,574c.15-7,2.38-13.08,9.35-18-2.89,6.54-.6,11.71,1.6,16.56,4.79,10.59,6.86,21.7,7.68,33.15a2.3,2.3,0,0,0,.72,1.48c2.12-12,1.95-24.67,9.67-35.19-1.31,9.77,3.11,17.71,7.24,25.91,6.86,13.62,8.06,27.37-.88,40.78a29.47,29.47,0,0,0-1.33,2.68L267.5,636a51.83,51.83,0,0,1-11,18.75,6,6,0,0,1-4,1.52q-37.14.13-74.29,0c-1.24,0-3-.53-3.64-1.44-4-5.78-7.76-11.74-11.6-17.64Z"/><path class="cls-4" d="M176.07,664.93H255c0,3.93.18,7.81-.16,11.65-.07.74-2.15,1.85-3.31,1.86-10.27.15-20.55.09-30.82.09-13.44,0-26.89-.08-40.33.06-3.23,0-4.69-.79-4.38-4.25C176.28,671.35,176.07,668.32,176.07,664.93Z"/><path class="cls-4" d="M191.9,686.3h46.82c1.62,6.13-6.21,16.94-19.3,18.55C203.22,706.85,191.77,696.31,191.9,686.3Z"/><path class="cls-5" d="M392.35,622.36q4.29,3.72,4.29,10.44,0,7-4.32,10.89t-12.12,3.87H369.76v13.08H364v-42h16.2Q388.06,618.64,392.35,622.36ZM388.24,640q2.88-2.37,2.88-7t-2.88-6.81q-2.88-2.31-8.28-2.31l-10.2.06v18.42H380Q385.36,642.34,388.24,640Z"/><path class="cls-5" d="M412.36,630.55a13.2,13.2,0,0,1,6.84-1.83v5.4a10.21,10.21,0,0,0-11.28,9.78v16.74h-5.58V628.9h5.58v6.84A11.48,11.48,0,0,1,412.36,630.55Z"/><path class="cls-5" d="M445.51,630.76a14.68,14.68,0,0,1,5.76,5.67,17.77,17.77,0,0,1,0,16.65,14.61,14.61,0,0,1-5.76,5.7,18.56,18.56,0,0,1-16.92,0,14.67,14.67,0,0,1-5.76-5.67,17.83,17.83,0,0,1,0-16.68,14.68,14.68,0,0,1,5.76-5.67,18.56,18.56,0,0,1,16.92,0Zm-14,4.26a10,10,0,0,0-3.78,4,12.18,12.18,0,0,0-1.35,5.79,12.49,12.49,0,0,0,1.35,5.88,9.7,9.7,0,0,0,3.78,4,10.85,10.85,0,0,0,5.55,1.41,10.73,10.73,0,0,0,5.49-1.41,9.7,9.7,0,0,0,3.78-4,12.49,12.49,0,0,0,1.35-5.88,12.18,12.18,0,0,0-1.35-5.79,10,10,0,0,0-3.78-4,10.56,10.56,0,0,0-5.49-1.44A10.68,10.68,0,0,0,431.53,635Z"/><path class="cls-5" d="M509.32,632q3.12,3.3,3.12,9v19.62H506.8V642.52a8.72,8.72,0,0,0-2.19-6.3,8,8,0,0,0-6-2.28,9.11,9.11,0,0,0-7.08,3.18,11.77,11.77,0,0,0-2.58,7.86v15.66h-5.64V642.52a8.8,8.8,0,0,0-2.16-6.3,8,8,0,0,0-6.06-2.28,9.2,9.2,0,0,0-7.11,3.18,11.69,11.69,0,0,0-2.61,7.86v15.66h-5.58V628.9h5.58v6.66q3.12-6.72,11.82-6.84a12.14,12.14,0,0,1,7.29,2.1,10.3,10.3,0,0,1,3.93,5.88q2.94-7.86,12.36-8A11.24,11.24,0,0,1,509.32,632Z"/><path class="cls-5" d="M544.9,633.07q3.78,4.35,3.78,12.09,0,1.2-.06,1.8H523.54a10.81,10.81,0,0,0,3.57,6.78,10.57,10.57,0,0,0,7.17,2.52,13.41,13.41,0,0,0,5.25-1,12.61,12.61,0,0,0,4.23-2.88l3.06,3.18a16,16,0,0,1-5.64,3.9,18.78,18.78,0,0,1-7.32,1.38,16.86,16.86,0,0,1-8.31-2,14.11,14.11,0,0,1-5.64-5.67,18.25,18.25,0,0,1,0-16.65,14.63,14.63,0,0,1,5.61-5.7,16.19,16.19,0,0,1,8.22-2.07Q541.12,628.72,544.9,633.07Zm-1.26,9.57a9.2,9.2,0,0,0-9.84-9.3,10,10,0,0,0-7,2.52,10.57,10.57,0,0,0-3.33,6.78Z"/><path class="cls-5" d="M572,658.54a13.68,13.68,0,0,1-7.44,2.34,8.46,8.46,0,0,1-6.12-2.25q-2.34-2.25-2.34-6.81V634.24h-4.5V630h4.5v-8.52h5.64V630h9.72v4.26H561.7V650.8a5.87,5.87,0,0,0,1,3.78,3.55,3.55,0,0,0,2.88,1.14,10.06,10.06,0,0,0,4.92-1.5Z"/><path class="cls-5" d="M604.12,632q3.18,3.27,3.18,9v19.62h-5.58V642.52a7.8,7.8,0,0,0-8.46-8.52,9.44,9.44,0,0,0-7.32,3.12,11.53,11.53,0,0,0-2.7,7.92v15.6h-5.58V616.12h5.58v19.62q3.18-6.9,12.12-7Q600.94,628.72,604.12,632Z"/><path class="cls-5" d="M639.76,633.07q3.78,4.35,3.78,12.09,0,1.2-.06,1.8H618.4a10.81,10.81,0,0,0,3.57,6.78,10.57,10.57,0,0,0,7.17,2.52,13.41,13.41,0,0,0,5.25-1,12.61,12.61,0,0,0,4.23-2.88l3.06,3.18a16,16,0,0,1-5.64,3.9,18.78,18.78,0,0,1-7.32,1.38,16.86,16.86,0,0,1-8.31-2,14.11,14.11,0,0,1-5.64-5.67,18.25,18.25,0,0,1,0-16.65,14.63,14.63,0,0,1,5.61-5.7,16.19,16.19,0,0,1,8.22-2.07Q636,628.72,639.76,633.07Zm-1.26,9.57a9.2,9.2,0,0,0-9.84-9.3,10,10,0,0,0-7,2.52,10.57,10.57,0,0,0-3.33,6.78Z"/><path class="cls-5" d="M677.86,628.9v31.74h-5.64v-6.72q-3.12,6.78-11.76,6.9-5.52,0-8.64-3.27t-3.12-9V628.9h5.64V647a8.61,8.61,0,0,0,2.19,6.27,8,8,0,0,0,6,2.25,8.92,8.92,0,0,0,7-3.15,11.8,11.8,0,0,0,2.61-7.89V628.9Z"/><path class="cls-5" d="M700.33,634a15.58,15.58,0,0,0-4.53-.72,7.74,7.74,0,0,0-4,.93,3.11,3.11,0,0,0-1.53,2.85,3.17,3.17,0,0,0,1.71,2.91,24.84,24.84,0,0,0,5.19,2,40.77,40.77,0,0,1,5.4,1.92,9.59,9.59,0,0,1,3.57,2.82,8.74,8.74,0,0,1-1.92,11.76,14.49,14.49,0,0,1-8.43,2.34,21.05,21.05,0,0,1-6.87-1.14,15.59,15.59,0,0,1-5.61-3.24l2.1-4.08a14.85,14.85,0,0,0,4.89,2.88,16.24,16.24,0,0,0,5.67,1.08,8.49,8.49,0,0,0,4.44-1,3.4,3.4,0,0,0,1.68-3.12,3.55,3.55,0,0,0-1.77-3.24,24.08,24.08,0,0,0-5.37-2.16,35.89,35.89,0,0,1-5.19-1.83,9.2,9.2,0,0,1-3.42-2.73,7.37,7.37,0,0,1-1.41-4.68,7.54,7.54,0,0,1,3.24-6.66,14,14,0,0,1,8.1-2.22,20.23,20.23,0,0,1,5.67.81,17,17,0,0,1,4.83,2.19l-2,4.26A19,19,0,0,0,700.33,634Z"/><path class="cls-5" d="M399.22,1113.33h-7L377.5,1094l-7.74,8.4v11H364v-42h5.76v23.58l21.48-23.58h6.9l-16.62,18.12Z"/><path class="cls-5" d="M432.58,1081.59v31.74h-5.64v-6.72q-3.12,6.78-11.76,6.9-5.52,0-8.64-3.27t-3.12-9v-19.62h5.64v18.12a8.61,8.61,0,0,0,2.19,6.27,8,8,0,0,0,6,2.25,8.92,8.92,0,0,0,7-3.15,11.8,11.8,0,0,0,2.61-7.89v-15.6Z"/><path class="cls-5" d="M467.62,1083.45a14,14,0,0,1,5.4,5.7,19.28,19.28,0,0,1,0,16.71,13.7,13.7,0,0,1-5.34,5.64,15.38,15.38,0,0,1-7.89,2,14.47,14.47,0,0,1-7.08-1.68,12,12,0,0,1-4.8-4.8v6.3h-5.58v-44.52h5.58v19.08a12.11,12.11,0,0,1,4.77-4.8,14.18,14.18,0,0,1,7-1.68A15.37,15.37,0,0,1,467.62,1083.45Zm-3.51,23.76a9.91,9.91,0,0,0,3.78-4,12.36,12.36,0,0,0,1.35-5.82,12,12,0,0,0-1.38-5.76,10.19,10.19,0,0,0-3.78-4,10.41,10.41,0,0,0-5.46-1.44,10.56,10.56,0,0,0-5.49,1.44,10.11,10.11,0,0,0-3.81,4,12.9,12.9,0,0,0,0,11.61,10.16,10.16,0,0,0,3.81,4,11.18,11.18,0,0,0,11,0Z"/><path class="cls-5" d="M505.24,1085.76q3.78,4.35,3.78,12.09,0,1.2-.06,1.8H483.88a10.81,10.81,0,0,0,3.57,6.78,10.56,10.56,0,0,0,7.17,2.52,13.42,13.42,0,0,0,5.25-1,12.61,12.61,0,0,0,4.23-2.88l3.06,3.18a16,16,0,0,1-5.64,3.9,18.78,18.78,0,0,1-7.32,1.38,16.86,16.86,0,0,1-8.31-2,14.11,14.11,0,0,1-5.64-5.67,18.25,18.25,0,0,1,0-16.65,14.64,14.64,0,0,1,5.61-5.7,16.18,16.18,0,0,1,8.22-2.07Q501.46,1081.41,505.24,1085.76Zm-1.26,9.57a9.2,9.2,0,0,0-9.84-9.3,10,10,0,0,0-7,2.52,10.58,10.58,0,0,0-3.33,6.78Z"/><path class="cls-5" d="M525.28,1083.24a13.2,13.2,0,0,1,6.84-1.83v5.4a10.21,10.21,0,0,0-11.28,9.78v16.74h-5.58v-31.74h5.58v6.84A11.48,11.48,0,0,1,525.28,1083.24Z"/><path class="cls-5" d="M563.2,1084.68q3.18,3.27,3.18,9v19.62H560.8v-18.12a7.8,7.8,0,0,0-8.46-8.52,9.58,9.58,0,0,0-6.93,2.73,10.72,10.72,0,0,0-3,6.93v17H536.8v-31.74h5.58v6.72q3.18-6.78,12.06-6.9Q560,1081.41,563.2,1084.68Z"/><path class="cls-5" d="M598.84,1085.76q3.78,4.35,3.78,12.09,0,1.2-.06,1.8H577.48a10.81,10.81,0,0,0,3.57,6.78,10.56,10.56,0,0,0,7.17,2.52,13.42,13.42,0,0,0,5.25-1,12.61,12.61,0,0,0,4.23-2.88l3.06,3.18a16,16,0,0,1-5.64,3.9,18.78,18.78,0,0,1-7.32,1.38,16.86,16.86,0,0,1-8.31-2,14.11,14.11,0,0,1-5.64-5.67,18.25,18.25,0,0,1,0-16.65,14.64,14.64,0,0,1,5.61-5.7,16.18,16.18,0,0,1,8.22-2.07Q595.06,1081.41,598.84,1085.76Zm-1.26,9.57a9.2,9.2,0,0,0-9.84-9.3,10,10,0,0,0-7,2.52,10.58,10.58,0,0,0-3.33,6.78Z"/><path class="cls-5" d="M625.9,1111.23a13.68,13.68,0,0,1-7.44,2.34,8.46,8.46,0,0,1-6.12-2.25q-2.34-2.25-2.34-6.81v-17.58h-4.5v-4.26H610v-8.52h5.64v8.52h9.72v4.26h-9.72v16.56a5.87,5.87,0,0,0,1,3.78,3.55,3.55,0,0,0,2.88,1.14,10.06,10.06,0,0,0,4.92-1.5Z"/><path class="cls-5" d="M654.76,1085.76q3.78,4.35,3.78,12.09,0,1.2-.06,1.8H633.4a10.81,10.81,0,0,0,3.57,6.78,10.56,10.56,0,0,0,7.17,2.52,13.42,13.42,0,0,0,5.25-1,12.61,12.61,0,0,0,4.23-2.88l3.06,3.18a16,16,0,0,1-5.64,3.9,18.78,18.78,0,0,1-7.32,1.38,16.86,16.86,0,0,1-8.31-2,14.11,14.11,0,0,1-5.64-5.67,18.25,18.25,0,0,1,0-16.65,14.64,14.64,0,0,1,5.61-5.7,16.18,16.18,0,0,1,8.22-2.07Q651,1081.41,654.76,1085.76Zm-1.26,9.57a9.2,9.2,0,0,0-9.84-9.3,10,10,0,0,0-7,2.52,10.58,10.58,0,0,0-3.33,6.78Z"/><path class="cls-5" d="M677.77,1086.69a15.57,15.57,0,0,0-4.53-.72,7.73,7.73,0,0,0-4,.93,3.11,3.11,0,0,0-1.53,2.85,3.17,3.17,0,0,0,1.71,2.91,24.84,24.84,0,0,0,5.19,2,40.84,40.84,0,0,1,5.4,1.92,9.59,9.59,0,0,1,3.57,2.82,8.74,8.74,0,0,1-1.92,11.76,14.49,14.49,0,0,1-8.43,2.34,21,21,0,0,1-6.87-1.14,15.61,15.61,0,0,1-5.61-3.24l2.1-4.08a14.84,14.84,0,0,0,4.89,2.88,16.22,16.22,0,0,0,5.67,1.08,8.49,8.49,0,0,0,4.44-1,3.4,3.4,0,0,0,1.68-3.12,3.55,3.55,0,0,0-1.77-3.24,24.12,24.12,0,0,0-5.37-2.16,35.78,35.78,0,0,1-5.19-1.83,9.19,9.19,0,0,1-3.42-2.73,7.37,7.37,0,0,1-1.41-4.68,7.54,7.54,0,0,1,3.24-6.66,14,14,0,0,1,8.1-2.22,20.23,20.23,0,0,1,5.67.81,17.07,17.07,0,0,1,4.83,2.19l-2,4.26A19,19,0,0,0,677.77,1086.69Z"/><path class="cls-4" d="M213.8,1168.89c-8.1,0-16.2,0-24.3,0a9.93,9.93,0,0,1-8.37-3.9c-10.31-12.87-20.71-25.68-31-38.55a8.79,8.79,0,0,1-1.83-7.88c3.66-15.64,7.3-31.28,10.8-47a11.07,11.07,0,0,1,6.58-8.35c14.47-6.74,28.85-13.66,43.22-20.62a10.11,10.11,0,0,1,9.49-.08c14.84,7.16,29.74,14.21,44.61,21.3a8.57,8.57,0,0,1,4.9,6.07q5.72,24.68,11.42,49.36c.65,2.85-.48,5.31-2.23,7.5-10,12.46-20.07,24.87-30,37.38a11.66,11.66,0,0,1-10.2,4.76C229.17,1168.74,221.48,1168.89,213.8,1168.89Zm-35.7-60.83c.39,4.57-.28,5.49-4.17,6.17-1.63.28-3.31.28-4.94.55-2,.33-3.89,1.11-3.36,3.54s2.63,2.36,4.54,1.83,3.5-1.27,5.27-1.85c2.55-.85,4.38,0,5.43,2.48a33.91,33.91,0,0,0,12.57,15.68c2.27,1.5,2.42,3.46,1.23,5.63-.94,1.72-2.15,3.3-3.09,5s-1.35,3.78.95,4.75c2.08.88,3.28-.64,4-2.42s1.23-4,2.13-5.83,2.28-3.13,4.93-2.28a32.83,32.83,0,0,0,20.51,0c2.54-.82,3.79.34,4.69,2.18s1.38,3.9,2.14,5.83,2,3.49,4.21,2.4c2-1,1.71-2.91.79-4.58s-2.26-3.48-3.22-5.31c-1.07-2-1-3.8,1.25-5.29a33.45,33.45,0,0,0,12.67-15.77c1-2.54,2.82-3.43,5.42-2.56,1.77.6,3.48,1.36,5.27,1.88,1.95.57,4,.52,4.5-1.88s-1.38-3.21-3.41-3.49-3.95-.31-5.86-.74c-2.28-.52-3.75-1.61-3.39-4.53.62-5-.66-9.85-2.11-14.66-.83-2.75-3.87-4.82-2.87-8s4.4-3.86,6.78-5.6c1.74-1.27,2.68-2.9,1.18-4.71s-3.22-.89-4.63.4-2.76,2.82-4.22,4.14c-1.91,1.73-3.65,2.08-5.86,0a32.34,32.34,0,0,0-18-8.61c-2.8-.38-3.72-2-3.61-4.4.08-2,.48-3.9.65-5.86s-.42-4-2.77-4-3,1.92-2.8,4,.63,4.12.61,6.17-.64,3.76-3.26,4.08a33.14,33.14,0,0,0-18.78,9c-1.77,1.64-3.34,1.41-4.89.12s-3.12-3-4.71-4.52c-1.41-1.31-3.15-2.16-4.62-.4s-.55,3.5,1.21,4.69c1.46,1,3,1.79,4.46,2.84,2.25,1.67,3.38,3.42,1.56,6.45A33.52,33.52,0,0,0,178.1,1108.06Z"/><path class="cls-6" d="M178.1,1108.06a33.52,33.52,0,0,1,4.39-17.59c1.82-3,.7-4.77-1.56-6.45-1.41-1-3-1.85-4.46-2.84-1.77-1.19-2.74-2.86-1.21-4.69s3.2-.91,4.62.4c1.6,1.48,3,3.13,4.71,4.52s3.13,1.52,4.89-.12a33.14,33.14,0,0,1,18.78-9c2.63-.32,3.25-2,3.26-4.08s-.45-4.11-.61-6.17.41-4,2.8-4,3,2,2.77,4-.57,3.9-.65,5.86c-.11,2.45.81,4,3.61,4.4a32.34,32.34,0,0,1,18,8.61c2.21,2.06,4,1.71,5.86,0,1.46-1.32,2.76-2.81,4.22-4.14s3.17-2.16,4.63-.4.56,3.44-1.18,4.71c-2.38,1.73-5.78,2.39-6.78,5.6s2,5.29,2.87,8c1.45,4.81,2.73,9.64,2.11,14.66-.36,2.92,1.11,4,3.39,4.53,1.91.43,3.91.47,5.86.74s3.89,1.11,3.41,3.49-2.56,2.45-4.5,1.88c-1.79-.52-3.5-1.29-5.27-1.88-2.6-.88-4.4,0-5.42,2.56a33.45,33.45,0,0,1-12.67,15.77c-2.24,1.49-2.33,3.25-1.25,5.29,1,1.83,2.23,3.5,3.22,5.31s1.23,3.6-.79,4.58c-2.23,1.09-3.47-.51-4.21-2.4s-1.24-4-2.14-5.83-2.15-3-4.69-2.18a32.83,32.83,0,0,1-20.51,0c-2.65-.86-4,.32-4.93,2.28s-1.37,3.91-2.13,5.83-1.9,3.3-4,2.42c-2.3-1-1.92-3-.95-4.75s2.15-3.3,3.09-5c1.19-2.17,1-4.13-1.23-5.63a33.91,33.91,0,0,1-12.57-15.68c-1-2.49-2.88-3.33-5.43-2.48-1.77.59-3.48,1.36-5.27,1.85s-4,.6-4.54-1.83,1.4-3.21,3.36-3.54c1.63-.27,3.31-.26,4.94-.55C177.82,1113.55,178.49,1112.63,178.1,1108.06Zm48.76,6.66c-3-.15-4,1-3.1,3.51,1.47,3.87,3.13,7.67,4.67,11.52.49,1.22,1.08,1.25,2.05.51a29.38,29.38,0,0,0,9.23-11.54c.61-1.33.24-1.88-1.12-2.09C234.6,1116,230.61,1115.33,226.85,1114.72ZM210,1082c.5-2.3,0-2.88-2.32-2.36a30.28,30.28,0,0,0-12.41,6.07c-1,.84-1.54,1.43,0,2.44,3.29,2.14,6.4,4.56,9.66,6.75,2.6,1.76,4.28.9,4.5-2.28C209.75,1089,209.87,1085.4,210,1082Zm23.39,5.09a28.18,28.18,0,0,0-16.22-7.77c.25,4.77.37,9.41.77,14,.21,2.42,2.06,3.08,4.31,1.57C226,1092.46,229.56,1089.84,233.44,1087.1Zm8.75,20.63a35.61,35.61,0,0,0-3.18-13.1c-.92-2-1.65-1.82-3.06-.46-2.6,2.51-5.39,4.83-8.07,7.25-2.44,2.21-2,4.08,1.22,5s6.6,1.72,9.81,2.85C241.58,1110.27,242.61,1109.71,242.19,1107.73Zm-27.64,28c1.33-.2,3.47-.59,5.63-.84,2-.23,2.17-1.35,1.41-2.78-1.86-3.47-3.71-7-5.78-10.31-1.32-2.13-2.93-2-4.34.17-1.07,1.65-1.95,3.42-2.93,5.13C204.21,1134.7,204.81,1135.71,214.55,1135.75Zm-29.3-29.13c1,.75-1.48,3.67,1.6,3.06a96.79,96.79,0,0,0,12.54-3.58c2-.69,2.24-2.43.71-3.91-3-2.84-6.1-5.48-9.06-8.32-1.39-1.33-1.93-.76-2.63.62A32.85,32.85,0,0,0,185.25,1106.62Zm16,8c-4.21.7-8.39,1.4-12.57,2.11-1.24.21-1.4.89-.9,2a29.72,29.72,0,0,0,9.26,11.47c1,.74,1.54.63,2-.59,1.51-3.85,3.19-7.63,4.66-11.49C204.56,1115.93,203.46,1114.82,201.24,1114.65Zm12.53-11.78c-2.49,0-4.78,2-4.77,4.1,0,2.44,2.42,5.19,4.62,5.26s4.64-2.56,4.76-5.11C218.46,1104.94,216.25,1102.89,213.76,1102.87Z"/><path class="cls-4" d="M226.85,1114.72c3.76.62,7.74,1.29,11.73,1.92,1.36.21,1.72.76,1.12,2.09a29.38,29.38,0,0,1-9.23,11.54c-1,.73-1.56.71-2.05-.51-1.53-3.85-3.2-7.65-4.67-11.52C222.82,1115.76,223.88,1114.57,226.85,1114.72Z"/><path class="cls-4" d="M210,1082c-.17,3.39-.3,7-.55,10.62-.22,3.18-1.9,4-4.5,2.28-3.26-2.2-6.36-4.61-9.66-6.75-1.55-1-1.06-1.59,0-2.44a30.28,30.28,0,0,1,12.41-6.07C210,1079.12,210.55,1079.7,210,1082Z"/><path class="cls-4" d="M233.44,1087.1c-3.88,2.74-7.46,5.36-11.15,7.83-2.25,1.51-4.1.85-4.31-1.57-.4-4.62-.52-9.26-.77-14A28.18,28.18,0,0,1,233.44,1087.1Z"/><path class="cls-4" d="M242.19,1107.73c.42,2-.61,2.54-3.27,1.6-3.2-1.14-6.55-1.87-9.81-2.85s-3.66-2.83-1.22-5c2.68-2.43,5.47-4.74,8.07-7.25,1.41-1.36,2.13-1.52,3.06.46A35.61,35.61,0,0,1,242.19,1107.73Z"/><path class="cls-4" d="M214.55,1135.75c-9.74,0-10.34-1.05-6-8.62,1-1.71,1.86-3.48,2.93-5.13,1.41-2.17,3-2.3,4.34-.17,2.07,3.35,3.92,6.83,5.78,10.31.77,1.44.58,2.56-1.41,2.78C218,1135.16,215.88,1135.55,214.55,1135.75Z"/><path class="cls-4" d="M185.25,1106.62a32.85,32.85,0,0,1,3.17-12.13c.7-1.38,1.25-1.94,2.63-.62,3,2.83,6.11,5.47,9.06,8.32,1.53,1.48,1.32,3.22-.71,3.91a96.79,96.79,0,0,1-12.54,3.58C183.78,1110.29,186.24,1107.37,185.25,1106.62Z"/><path class="cls-4" d="M201.24,1114.65c2.22.18,3.32,1.28,2.48,3.49-1.47,3.86-3.15,7.65-4.66,11.49-.48,1.22-1,1.33-2,.59a29.72,29.72,0,0,1-9.26-11.47c-.5-1.09-.34-1.77.9-2C192.85,1116,197,1115.35,201.24,1114.65Z"/><path class="cls-4" d="M213.76,1102.87c2.48,0,4.7,2.07,4.61,4.25-.11,2.55-2.56,5.18-4.76,5.11S209,1109.42,209,1107C209,1104.82,211.28,1102.85,213.76,1102.87Z"/><path class="cls-4" d="M180,354h35.71c12.41,0,24.83-.24,37.23.07,15.84.39,26.3,10.83,26.49,26.57q.37,30.07,0,60.14c-.17,15.9-10.26,26.54-26.16,26.86q-32.92.66-65.86,0c-16-.31-26-10.86-26.14-26.81-.2-20-.1-40.09,0-60.14,0-3.06.71-6.13,1.24-10.34,9.17,6.69,15.56,12.54,14.57,24.41-1.2,14.54-.4,29.25-.24,43.89.11,10.79,3.62,14.54,14.25,14.67q29.11.34,58.23,0c10.61-.12,15.2-4.77,15.19-15.18q0-26.73-.66-53.45c-.29-12.13-4.79-16.33-17.18-16.45-13.68-.13-27.42-.79-41,.2C194.4,369.27,186.72,365.36,180,354Z"/><path class="cls-4" d="M206.19,397.1h-20.9l3.75-6.22-34.9-35L148,360V339.13h20.8c-5.08,5.08-3.45,8.69,1.21,13,9.76,9.09,18.78,19,28.43,28.87l7.76-5.07Z"/><path class="cls-4" d="M240.38,414.49c16.73,0,16.73,0,16.72,16.84,0,16.22,0,16.22-17.36,16.22-15.8,0-15.8,0-15.78-17.81C224,414.5,224,414.5,240.38,414.49Z"/><path class="cls-4" d="M257.1,390.61c0,16.62,0,16.62-17.05,16.62-16.1,0-16.1,0-16.09-17.58C224,374,224,374,241,374,257.1,374,257.1,374,257.1,390.61Z"/><path class="cls-4" d="M200,447.55c-16.61,0-16.61,0-16.61-17,0-16,0-16,16.63-16s16.64,0,16.63,17C216.67,447.55,216.67,447.55,200,447.55Z"/><path class="cls-7" d="M77,44.23a156,156,0,0,1-.36-17,77,77,0,0,1,2.16-16.86,21.77,21.77,0,0,1,3.65-7.87A8.5,8.5,0,0,1,86.08-.14a7.9,7.9,0,0,1,4.45-.17A19.65,19.65,0,0,1,98,3.79a54.72,54.72,0,0,1,6,5.83,54.47,54.47,0,0,0-6.34-5.43A19,19,0,0,0,90.33.67a6.77,6.77,0,0,0-3.8.36,7.13,7.13,0,0,0-2.89,2.42,20.16,20.16,0,0,0-2.89,7.42,74.68,74.68,0,0,0-1.11,16.41A152.77,152.77,0,0,0,81,43.77Z"/><path class="cls-7" d="M117,44.23a156,156,0,0,1-.36-17,77,77,0,0,1,2.16-16.86,21.77,21.77,0,0,1,3.65-7.87,8.5,8.5,0,0,1,3.62-2.67,7.9,7.9,0,0,1,4.45-.17A19.65,19.65,0,0,1,138,3.79a54.72,54.72,0,0,1,6,5.83,54.47,54.47,0,0,0-6.34-5.43A19,19,0,0,0,130.33.67a6.77,6.77,0,0,0-3.8.36,7.13,7.13,0,0,0-2.89,2.42,20.16,20.16,0,0,0-2.89,7.42,74.68,74.68,0,0,0-1.11,16.41A152.77,152.77,0,0,0,121,43.77Z"/><path class="cls-7" d="M157,44.23a156,156,0,0,1-.36-17,77,77,0,0,1,2.16-16.86,21.77,21.77,0,0,1,3.65-7.87,8.5,8.5,0,0,1,3.62-2.67,7.9,7.9,0,0,1,4.45-.17A19.65,19.65,0,0,1,178,3.79a54.72,54.72,0,0,1,6,5.83,54.47,54.47,0,0,0-6.34-5.43A19,19,0,0,0,170.33.67a6.77,6.77,0,0,0-3.8.36,7.13,7.13,0,0,0-2.89,2.42,20.16,20.16,0,0,0-2.89,7.42,74.68,74.68,0,0,0-1.11,16.41A152.77,152.77,0,0,0,161,43.77Z"/><path class="cls-7" d="M197,44.23a156,156,0,0,1-.36-17,77,77,0,0,1,2.16-16.86,21.77,21.77,0,0,1,3.65-7.87,8.5,8.5,0,0,1,3.62-2.67,7.9,7.9,0,0,1,4.45-.17A19.65,19.65,0,0,1,218,3.79a54.72,54.72,0,0,1,6,5.83,54.47,54.47,0,0,0-6.34-5.43A19,19,0,0,0,210.33.67a6.77,6.77,0,0,0-3.8.36,7.13,7.13,0,0,0-2.89,2.42,20.16,20.16,0,0,0-2.89,7.42,74.68,74.68,0,0,0-1.11,16.41A152.77,152.77,0,0,0,201,43.77Z"/><path class="cls-7" d="M237,44.23a156,156,0,0,1-.36-17,77,77,0,0,1,2.16-16.86,21.77,21.77,0,0,1,3.65-7.87,8.5,8.5,0,0,1,3.62-2.67,7.9,7.9,0,0,1,4.45-.17A19.65,19.65,0,0,1,258,3.79a54.72,54.72,0,0,1,6,5.83,54.47,54.47,0,0,0-6.34-5.43A19,19,0,0,0,250.33.67a6.77,6.77,0,0,0-3.8.36,7.13,7.13,0,0,0-2.89,2.42,20.16,20.16,0,0,0-2.89,7.42,74.68,74.68,0,0,0-1.11,16.41A152.77,152.77,0,0,0,241,43.77Z"/><path class="cls-7" d="M277,44.23a156,156,0,0,1-.36-17,77,77,0,0,1,2.16-16.86,21.77,21.77,0,0,1,3.65-7.87,8.5,8.5,0,0,1,3.62-2.67,7.9,7.9,0,0,1,4.45-.17A19.65,19.65,0,0,1,298,3.79a54.72,54.72,0,0,1,6,5.83,54.47,54.47,0,0,0-6.34-5.43A19,19,0,0,0,290.33.67a6.77,6.77,0,0,0-3.8.36,7.13,7.13,0,0,0-2.89,2.42,20.16,20.16,0,0,0-2.89,7.42,74.68,74.68,0,0,0-1.11,16.41A152.77,152.77,0,0,0,281,43.77Z"/><path class="cls-7" d="M317,44.23a156,156,0,0,1-.36-17,77,77,0,0,1,2.16-16.86,21.77,21.77,0,0,1,3.65-7.87,8.5,8.5,0,0,1,3.62-2.67,7.9,7.9,0,0,1,4.45-.17A19.65,19.65,0,0,1,338,3.79a54.72,54.72,0,0,1,6,5.83,54.47,54.47,0,0,0-6.34-5.43A19,19,0,0,0,330.33.67a6.77,6.77,0,0,0-3.8.36,7.13,7.13,0,0,0-2.89,2.42,20.16,20.16,0,0,0-2.89,7.42,74.68,74.68,0,0,0-1.11,16.41A152.77,152.77,0,0,0,321,43.77Z"/><path class="cls-7" d="M357,44.23a156,156,0,0,1-.36-17,77,77,0,0,1,2.16-16.86,21.77,21.77,0,0,1,3.65-7.87,8.5,8.5,0,0,1,3.62-2.67,7.9,7.9,0,0,1,4.45-.17A19.65,19.65,0,0,1,378,3.79a54.72,54.72,0,0,1,6,5.83,54.47,54.47,0,0,0-6.34-5.43A19,19,0,0,0,370.33.67a6.77,6.77,0,0,0-3.8.36,7.13,7.13,0,0,0-2.89,2.42,20.16,20.16,0,0,0-2.89,7.42,74.68,74.68,0,0,0-1.11,16.41A152.77,152.77,0,0,0,361,43.77Z"/><path class="cls-7" d="M397,44.23a156,156,0,0,1-.36-17,77,77,0,0,1,2.16-16.86,21.77,21.77,0,0,1,3.65-7.87,8.5,8.5,0,0,1,3.62-2.67,7.9,7.9,0,0,1,4.45-.17A19.65,19.65,0,0,1,418,3.79a54.72,54.72,0,0,1,6,5.83,54.47,54.47,0,0,0-6.34-5.43A19,19,0,0,0,410.33.67a6.77,6.77,0,0,0-3.8.36,7.13,7.13,0,0,0-2.89,2.42,20.16,20.16,0,0,0-2.89,7.42,74.68,74.68,0,0,0-1.11,16.41A152.77,152.77,0,0,0,401,43.77Z"/><path class="cls-7" d="M437,44.23a156,156,0,0,1-.36-17,77,77,0,0,1,2.16-16.86,21.77,21.77,0,0,1,3.65-7.87,8.5,8.5,0,0,1,3.62-2.67,7.9,7.9,0,0,1,4.45-.17A19.65,19.65,0,0,1,458,3.79a54.72,54.72,0,0,1,6,5.83,54.47,54.47,0,0,0-6.34-5.43A19,19,0,0,0,450.33.67a6.77,6.77,0,0,0-3.8.36,7.13,7.13,0,0,0-2.89,2.42,20.16,20.16,0,0,0-2.89,7.42,74.68,74.68,0,0,0-1.11,16.41A152.77,152.77,0,0,0,441,43.77Z"/><path class="cls-7" d="M477,44.23a156,156,0,0,1-.36-17,77,77,0,0,1,2.16-16.86,21.77,21.77,0,0,1,3.65-7.87,8.5,8.5,0,0,1,3.62-2.67,7.9,7.9,0,0,1,4.45-.17A19.65,19.65,0,0,1,498,3.79a54.72,54.72,0,0,1,6,5.83,54.47,54.47,0,0,0-6.34-5.43A19,19,0,0,0,490.33.67a6.77,6.77,0,0,0-3.8.36,7.13,7.13,0,0,0-2.89,2.42,20.16,20.16,0,0,0-2.89,7.42,74.68,74.68,0,0,0-1.11,16.41A152.77,152.77,0,0,0,481,43.77Z"/><path class="cls-7" d="M517,44.23a156,156,0,0,1-.36-17,77,77,0,0,1,2.16-16.86,21.77,21.77,0,0,1,3.65-7.87,8.5,8.5,0,0,1,3.62-2.67,7.9,7.9,0,0,1,4.45-.17A19.65,19.65,0,0,1,538,3.79a54.72,54.72,0,0,1,6,5.83,54.47,54.47,0,0,0-6.34-5.43A19,19,0,0,0,530.33.67a6.77,6.77,0,0,0-3.8.36,7.13,7.13,0,0,0-2.89,2.42,20.16,20.16,0,0,0-2.89,7.42,74.68,74.68,0,0,0-1.11,16.41A152.77,152.77,0,0,0,521,43.77Z"/><path class="cls-7" d="M557,44.23a156,156,0,0,1-.36-17,77,77,0,0,1,2.16-16.86,21.77,21.77,0,0,1,3.65-7.87,8.5,8.5,0,0,1,3.62-2.67,7.9,7.9,0,0,1,4.45-.17A19.65,19.65,0,0,1,578,3.79a54.72,54.72,0,0,1,6,5.83,54.47,54.47,0,0,0-6.34-5.43A19,19,0,0,0,570.33.67a6.77,6.77,0,0,0-3.8.36,7.13,7.13,0,0,0-2.89,2.42,20.16,20.16,0,0,0-2.89,7.42,74.68,74.68,0,0,0-1.11,16.41A152.77,152.77,0,0,0,561,43.77Z"/><path class="cls-7" d="M597,44.23a156,156,0,0,1-.36-17,77,77,0,0,1,2.16-16.86,21.77,21.77,0,0,1,3.65-7.87,8.5,8.5,0,0,1,3.62-2.67,7.9,7.9,0,0,1,4.45-.17A19.65,19.65,0,0,1,618,3.79a54.72,54.72,0,0,1,6,5.83,54.47,54.47,0,0,0-6.34-5.43A19,19,0,0,0,610.33.67a6.77,6.77,0,0,0-3.8.36,7.13,7.13,0,0,0-2.89,2.42,20.16,20.16,0,0,0-2.89,7.42,74.68,74.68,0,0,0-1.11,16.41A152.77,152.77,0,0,0,601,43.77Z"/><path class="cls-7" d="M637,44.23a156,156,0,0,1-.36-17,77,77,0,0,1,2.16-16.86,21.77,21.77,0,0,1,3.65-7.87,8.5,8.5,0,0,1,3.62-2.67,7.9,7.9,0,0,1,4.45-.17A19.65,19.65,0,0,1,658,3.79a54.72,54.72,0,0,1,6,5.83,54.47,54.47,0,0,0-6.34-5.43A19,19,0,0,0,650.33.67a6.77,6.77,0,0,0-3.8.36,7.13,7.13,0,0,0-2.89,2.42,20.16,20.16,0,0,0-2.89,7.42,74.68,74.68,0,0,0-1.11,16.41A152.77,152.77,0,0,0,641,43.77Z"/><path class="cls-7" d="M677,44.23a156,156,0,0,1-.36-17,77,77,0,0,1,2.16-16.86,21.77,21.77,0,0,1,3.65-7.87,8.5,8.5,0,0,1,3.62-2.67,7.9,7.9,0,0,1,4.45-.17A19.65,19.65,0,0,1,698,3.79a54.72,54.72,0,0,1,6,5.83,54.47,54.47,0,0,0-6.34-5.43A19,19,0,0,0,690.33.67a6.77,6.77,0,0,0-3.8.36,7.13,7.13,0,0,0-2.89,2.42,20.16,20.16,0,0,0-2.89,7.42,74.68,74.68,0,0,0-1.11,16.41A152.77,152.77,0,0,0,681,43.77Z"/><path class="cls-7" d="M717,44.23a156,156,0,0,1-.36-17,77,77,0,0,1,2.16-16.86,21.77,21.77,0,0,1,3.65-7.87,8.5,8.5,0,0,1,3.62-2.67,7.9,7.9,0,0,1,4.45-.17A19.65,19.65,0,0,1,738,3.79a54.72,54.72,0,0,1,6,5.83,54.47,54.47,0,0,0-6.34-5.43A19,19,0,0,0,730.33.67a6.77,6.77,0,0,0-3.8.36,7.13,7.13,0,0,0-2.89,2.42,20.16,20.16,0,0,0-2.89,7.42,74.68,74.68,0,0,0-1.11,16.41A152.77,152.77,0,0,0,721,43.77Z"/><path class="cls-7" d="M757,44.23a156,156,0,0,1-.36-17,77,77,0,0,1,2.16-16.86,21.77,21.77,0,0,1,3.65-7.87,8.5,8.5,0,0,1,3.62-2.67,7.9,7.9,0,0,1,4.45-.17A19.65,19.65,0,0,1,778,3.79a54.72,54.72,0,0,1,6,5.83,54.47,54.47,0,0,0-6.34-5.43A19,19,0,0,0,770.33.67a6.77,6.77,0,0,0-3.8.36,7.13,7.13,0,0,0-2.89,2.42,20.16,20.16,0,0,0-2.89,7.42,74.68,74.68,0,0,0-1.11,16.41A152.77,152.77,0,0,0,761,43.77Z"/><path class="cls-7" d="M797,44.23a156,156,0,0,1-.36-17,77,77,0,0,1,2.16-16.86,21.77,21.77,0,0,1,3.65-7.87,8.5,8.5,0,0,1,3.62-2.67,7.9,7.9,0,0,1,4.45-.17A19.65,19.65,0,0,1,818,3.79a54.72,54.72,0,0,1,6,5.83,54.47,54.47,0,0,0-6.34-5.43A19,19,0,0,0,810.33.67a6.77,6.77,0,0,0-3.8.36,7.13,7.13,0,0,0-2.89,2.42,20.16,20.16,0,0,0-2.89,7.42,74.68,74.68,0,0,0-1.11,16.41A152.77,152.77,0,0,0,801,43.77Z"/><path class="cls-7" d="M837,44.23a156,156,0,0,1-.36-17,77,77,0,0,1,2.16-16.86,21.77,21.77,0,0,1,3.65-7.87,8.5,8.5,0,0,1,3.62-2.67,7.9,7.9,0,0,1,4.45-.17A19.65,19.65,0,0,1,858,3.79a54.72,54.72,0,0,1,6,5.83,54.47,54.47,0,0,0-6.34-5.43A19,19,0,0,0,850.33.67a6.77,6.77,0,0,0-3.8.36,7.13,7.13,0,0,0-2.89,2.42,20.16,20.16,0,0,0-2.89,7.42,74.68,74.68,0,0,0-1.11,16.41A152.77,152.77,0,0,0,841,43.77Z"/><path class="cls-7" d="M877,44.23a156,156,0,0,1-.36-17,77,77,0,0,1,2.16-16.86,21.77,21.77,0,0,1,3.65-7.87,8.5,8.5,0,0,1,3.62-2.67,7.9,7.9,0,0,1,4.45-.17A19.65,19.65,0,0,1,898,3.79a54.72,54.72,0,0,1,6,5.83,54.47,54.47,0,0,0-6.34-5.43A19,19,0,0,0,890.33.67a6.77,6.77,0,0,0-3.8.36,7.13,7.13,0,0,0-2.89,2.42,20.16,20.16,0,0,0-2.89,7.42,74.68,74.68,0,0,0-1.11,16.41A152.77,152.77,0,0,0,881,43.77Z"/></svg>