<svg id="Layer_1" data-name="Layer 1" xmlns="http://www.w3.org/2000/svg" viewBox="0 0 1171 551"><defs><style>.cls-1{fill:#4e9694;}.cls-2{fill:#62b2b2;}.cls-3{fill:#d8d8d8;}.cls-4{fill:#24605e;}.cls-5{fill:#fff;}.cls-6{fill:#3daaa7;}.cls-7{fill:#5c5e5e;}</style></defs><title>main course</title><rect class="cls-1" x="19.06" y="46" width="1144" height="495"/><rect class="cls-2" x="12.06" y="36" width="1144" height="495"/><circle class="cls-3" cx="58.56" cy="65.5" r="9.5"/><circle class="cls-3" cx="98.56" cy="65.5" r="9.5"/><circle class="cls-3" cx="138.56" cy="65.5" r="9.5"/><circle class="cls-3" cx="178.56" cy="65.5" r="9.5"/><circle class="cls-3" cx="218.56" cy="65.5" r="9.5"/><circle class="cls-3" cx="258.56" cy="65.5" r="9.5"/><circle class="cls-3" cx="298.56" cy="65.5" r="9.5"/><circle class="cls-3" cx="338.56" cy="65.5" r="9.5"/><circle class="cls-3" cx="378.56" cy="65.5" r="9.5"/><circle class="cls-3" cx="418.56" cy="65.5" r="9.5"/><circle class="cls-3" cx="458.56" cy="65.5" r="9.5"/><circle class="cls-3" cx="498.56" cy="65.5" r="9.5"/><circle class="cls-3" cx="538.56" cy="65.5" r="9.5"/><circle class="cls-3" cx="578.56" cy="65.5" r="9.5"/><circle class="cls-3" cx="618.56" cy="65.5" r="9.5"/><circle class="cls-3" cx="658.56" cy="65.5" r="9.5"/><circle class="cls-3" cx="698.56" cy="65.5" r="9.5"/><circle class="cls-3" cx="738.56" cy="65.5" r="9.5"/><circle class="cls-3" cx="778.56" cy="65.5" r="9.5"/><circle class="cls-3" cx="818.56" cy="65.5" r="9.5"/><circle class="cls-3" cx="858.56" cy="65.5" r="9.5"/><circle class="cls-3" cx="898.56" cy="65.5" r="9.5"/><circle class="cls-3" cx="938.56" cy="65.5" r="9.5"/><circle class="cls-3" cx="978.56" cy="65.5" r="9.5"/><circle class="cls-3" cx="1018.56" cy="65.5" r="9.5"/><circle class="cls-3" cx="1058.56" cy="65.5" r="9.5"/><circle class="cls-3" cx="1098.56" cy="65.5" r="9.5"/><path class="cls-4" d="M138.36,164.73a4.38,4.38,0,0,0-4.08.13,4.15,4.15,0,0,0-1.56,1.58,4.53,4.53,0,0,0,0,4.4,4.22,4.22,0,0,0,1.56,1.58,4.27,4.27,0,0,0,2.19.58,4.6,4.6,0,0,0,1.85-.41,5.3,5.3,0,0,0,1.65-1.12l1.46,1.62a7.62,7.62,0,0,1-2.36,1.63,6.65,6.65,0,0,1-2.73.6,6.74,6.74,0,0,1-3.41-.88,6.48,6.48,0,0,1-2.43-2.4,6.56,6.56,0,0,1-.88-3.36,6.41,6.41,0,0,1,.9-3.35,6.48,6.48,0,0,1,2.46-2.38,7.13,7.13,0,0,1,6.16-.31,6.65,6.65,0,0,1,2.27,1.53L140,166A4.85,4.85,0,0,0,138.36,164.73Z"/><path class="cls-4" d="M149.68,165.83a4.53,4.53,0,0,1,1.82,1.76,5.12,5.12,0,0,1,.65,2.61,5.21,5.21,0,0,1-.65,2.63,4.51,4.51,0,0,1-1.82,1.77,5.62,5.62,0,0,1-2.7.63,5.71,5.71,0,0,1-2.73-.63,4.49,4.49,0,0,1-1.83-1.77,5.2,5.2,0,0,1-.65-2.63,5.12,5.12,0,0,1,.65-2.61,4.51,4.51,0,0,1,1.83-1.76,5.71,5.71,0,0,1,2.73-.63A5.62,5.62,0,0,1,149.68,165.83ZM145,168.08a3.39,3.39,0,0,0,0,4.31,2.64,2.64,0,0,0,2,.83,2.6,2.6,0,0,0,2-.83,3.39,3.39,0,0,0,0-4.31,2.6,2.6,0,0,0-2-.83A2.64,2.64,0,0,0,145,168.08Z"/><path class="cls-4" d="M169.36,166.21a3.89,3.89,0,0,1,1,2.77v6.15H167.9v-5.45a2.27,2.27,0,0,0-.58-1.65,2.09,2.09,0,0,0-1.57-.6,2.37,2.37,0,0,0-1.81.83,3,3,0,0,0-.67,2v4.86h-2.41v-5.45a2.29,2.29,0,0,0-.57-1.65,2.06,2.06,0,0,0-1.57-.6,2.38,2.38,0,0,0-1.83.83,3,3,0,0,0-.67,2v4.86h-2.39v-9.85h2.39v1.82a4.09,4.09,0,0,1,5.63-1.3,3.24,3.24,0,0,1,1.22,1.74,3.65,3.65,0,0,1,3.66-2.36A3.44,3.44,0,0,1,169.36,166.21Z"/><path class="cls-4" d="M180.21,166.55a5.51,5.51,0,0,1,1.19,3.78q0,.48,0,.72h-7.27a2.74,2.74,0,0,0,2.82,2.25,3.75,3.75,0,0,0,1.45-.29,3.53,3.53,0,0,0,1.21-.82l1.29,1.34a5,5,0,0,1-1.8,1.25,6.05,6.05,0,0,1-2.35.44,5.47,5.47,0,0,1-2.66-.63,4.37,4.37,0,0,1-1.78-1.76,5.72,5.72,0,0,1,0-5.22,4.5,4.5,0,0,1,1.78-1.78,5.24,5.24,0,0,1,2.6-.63A4.49,4.49,0,0,1,180.21,166.55Zm-1,2.89a2.39,2.39,0,0,0-.72-1.73,2.8,2.8,0,0,0-3.56,0,2.8,2.8,0,0,0-.87,1.74Z"/><path class="cls-4" d="M187.22,162.24h2.47V172.9h5.56v2.23h-8Z"/><path class="cls-4" d="M204.32,166.55a5.51,5.51,0,0,1,1.19,3.78q0,.48,0,.72h-7.27a2.74,2.74,0,0,0,2.82,2.25,3.75,3.75,0,0,0,1.45-.29,3.53,3.53,0,0,0,1.21-.82l1.29,1.34a5,5,0,0,1-1.8,1.25,6.05,6.05,0,0,1-2.35.44,5.47,5.47,0,0,1-2.66-.63,4.37,4.37,0,0,1-1.78-1.76,5.72,5.72,0,0,1,0-5.22,4.5,4.5,0,0,1,1.78-1.78,5.24,5.24,0,0,1,2.6-.63A4.49,4.49,0,0,1,204.32,166.55Zm-1,2.89a2.39,2.39,0,0,0-.72-1.73,2.8,2.8,0,0,0-3.56,0,2.8,2.8,0,0,0-.87,1.74Z"/><path class="cls-4" d="M213,175.13v-1.2a3.23,3.23,0,0,1-1.33,1,4.88,4.88,0,0,1-1.86.33,4,4,0,0,1-1.81-.4,2.9,2.9,0,0,1-1.21-1.1,3,3,0,0,1-.42-1.57,2.62,2.62,0,0,1,1-2.16,4.39,4.39,0,0,1,2.76-.8h2.87V169a1.66,1.66,0,0,0-.57-1.34,2.52,2.52,0,0,0-1.66-.48,5.7,5.7,0,0,0-2.93.92l-.87-1.66a10.9,10.9,0,0,1,2.11-.93,7.73,7.73,0,0,1,2.22-.29,4.39,4.39,0,0,1,3,.92,3.28,3.28,0,0,1,1.08,2.58l0,6.45Zm-.85-2.22a1.7,1.7,0,0,0,.83-1.21v-.88h-2.49a2.7,2.7,0,0,0-1.41.29,1,1,0,0,0-.45.93,1.19,1.19,0,0,0,.47,1,2,2,0,0,0,1.28.37A3.13,3.13,0,0,0,212.11,172.91Z"/><path class="cls-4" d="M221.33,165.71a4,4,0,0,1,2-.52v2.32a3.25,3.25,0,0,0-2.44.71,2.73,2.73,0,0,0-.91,2.16v4.75h-2.39v-9.85H220v1.9A3.56,3.56,0,0,1,221.33,165.71Z"/><path class="cls-4" d="M233.18,166.21a3.85,3.85,0,0,1,1,2.77v6.15h-2.41v-5.45a2.22,2.22,0,0,0-.59-1.63,2.15,2.15,0,0,0-1.6-.6,2.43,2.43,0,0,0-1.89.81,3,3,0,0,0-.69,2v4.84h-2.39v-9.85H227v1.84a3.73,3.73,0,0,1,3.54-1.93A3.52,3.52,0,0,1,233.18,166.21Z"/><path class="cls-4" d="M239,165.3l2.47,0,2.41,7.44,2.34-7.44h2.41l2.38,7.44,2.36-7.44h2.41l-3.57,9.85h-2.45l-2.36-6.94-2.34,6.94h-2.45Z"/><path class="cls-4" d="M258.9,161.45a1.43,1.43,0,0,1,.39,1,1.41,1.41,0,0,1-.39,1,1.38,1.38,0,0,1-2,0,1.41,1.41,0,0,1-.39-1,1.43,1.43,0,0,1,.39-1,1.38,1.38,0,0,1,2,0Zm-2.15,3.83h2.39v9.85h-2.39Z"/><path class="cls-4" d="M267.45,174.53a4.68,4.68,0,0,1-2.47.72,3,3,0,0,1-2.08-.75,2.84,2.84,0,0,1-.81-2.2v-4.86h-1.38l0-1.75h1.4V163h2.38v2.71h2.82v1.75h-2.82v4.44a1.43,1.43,0,0,0,.26,1,1,1,0,0,0,.77.29,3.43,3.43,0,0,0,1.4-.41Z"/><path class="cls-4" d="M277.61,166.21a3.85,3.85,0,0,1,1,2.77v6.15h-2.41v-5.45a2.22,2.22,0,0,0-.59-1.63,2.15,2.15,0,0,0-1.6-.6,2.46,2.46,0,0,0-1.9.81,2.94,2.94,0,0,0-.7,2v4.84H269V161.47h2.39v5.69a3.73,3.73,0,0,1,3.55-2A3.52,3.52,0,0,1,277.61,166.21Z"/><path class="cls-4" d="M294,165.28v9.85h-2.41v-1.82a3.54,3.54,0,0,1-3.42,1.92,3.42,3.42,0,0,1-2.61-1,3.85,3.85,0,0,1-1-2.76v-6.17H287v5.47a2.25,2.25,0,0,0,.56,1.62,2,2,0,0,0,1.56.59,2.28,2.28,0,0,0,1.8-.81,3,3,0,0,0,.66-2v-4.86Z"/><path class="cls-4" d="M301,167.29a4.76,4.76,0,0,0-1.41-.24,1.9,1.9,0,0,0-1,.21.71.71,0,0,0-.36.65.77.77,0,0,0,.45.71,7.26,7.26,0,0,0,1.43.53,13.85,13.85,0,0,1,1.69.62,3.2,3.2,0,0,1,1.15.9,2.42,2.42,0,0,1,.49,1.58,2.53,2.53,0,0,1-1.1,2.21,4.73,4.73,0,0,1-2.78.77,7.06,7.06,0,0,1-2.23-.36,5.26,5.26,0,0,1-1.84-1l.83-1.68a4.85,4.85,0,0,0,1.58.89,5.29,5.29,0,0,0,1.75.32,2.1,2.1,0,0,0,1.06-.23.75.75,0,0,0,.4-.69.83.83,0,0,0-.46-.77,8.16,8.16,0,0,0-1.49-.57,12.67,12.67,0,0,1-1.62-.58,2.92,2.92,0,0,1-1.09-.87,2.37,2.37,0,0,1-.46-1.52,2.57,2.57,0,0,1,1.06-2.22,4.43,4.43,0,0,1,2.66-.76,6.83,6.83,0,0,1,1.92.28,6,6,0,0,1,1.69.77l-.87,1.73A7.11,7.11,0,0,0,301,167.29Z"/><path class="cls-4" d="M317.85,166.21a3.85,3.85,0,0,1,1,2.77v6.15h-2.41v-5.45a2.22,2.22,0,0,0-.59-1.63,2.15,2.15,0,0,0-1.6-.6,2.46,2.46,0,0,0-1.9.81,2.94,2.94,0,0,0-.7,2v4.84h-2.39V161.47h2.39v5.69a3.73,3.73,0,0,1,3.55-2A3.52,3.52,0,0,1,317.85,166.21Z"/><path class="cls-4" d="M328.09,165.83a4.53,4.53,0,0,1,1.82,1.76,5.12,5.12,0,0,1,.65,2.61,5.21,5.21,0,0,1-.65,2.63,4.51,4.51,0,0,1-1.82,1.77,5.62,5.62,0,0,1-2.7.63,5.71,5.71,0,0,1-2.73-.63,4.49,4.49,0,0,1-1.83-1.77,5.2,5.2,0,0,1-.65-2.63,5.12,5.12,0,0,1,.65-2.61,4.51,4.51,0,0,1,1.83-1.76,5.71,5.71,0,0,1,2.73-.63A5.62,5.62,0,0,1,328.09,165.83Zm-4.72,2.25a3.39,3.39,0,0,0,0,4.31,2.64,2.64,0,0,0,2,.83,2.6,2.6,0,0,0,2-.83,3.39,3.39,0,0,0,0-4.31,2.6,2.6,0,0,0-2-.83A2.64,2.64,0,0,0,323.37,168.08Z"/><path class="cls-4" d="M330.37,165.3l2.47,0,2.41,7.44,2.34-7.44H340l2.38,7.44,2.36-7.44h2.41l-3.57,9.85h-2.45l-2.36-6.94-2.34,6.94H334Z"/><path class="cls-4" d="M358,174.53a4.68,4.68,0,0,1-2.47.72,3,3,0,0,1-2.08-.75,2.84,2.84,0,0,1-.81-2.2v-4.86h-1.38l0-1.75h1.4V163H355v2.71h2.82v1.75H355v4.44a1.43,1.43,0,0,0,.26,1,1,1,0,0,0,.77.29,3.43,3.43,0,0,0,1.4-.41Z"/><path class="cls-4" d="M366.34,165.83a4.53,4.53,0,0,1,1.82,1.76,5.12,5.12,0,0,1,.65,2.61,5.21,5.21,0,0,1-.65,2.63,4.51,4.51,0,0,1-1.82,1.77,5.62,5.62,0,0,1-2.7.63,5.71,5.71,0,0,1-2.73-.63,4.49,4.49,0,0,1-1.83-1.77,5.2,5.2,0,0,1-.65-2.63,5.12,5.12,0,0,1,.65-2.61,4.51,4.51,0,0,1,1.83-1.76,5.71,5.71,0,0,1,2.73-.63A5.62,5.62,0,0,1,366.34,165.83Zm-4.72,2.25a3.39,3.39,0,0,0,0,4.31,2.64,2.64,0,0,0,2,.83,2.6,2.6,0,0,0,2-.83,3.39,3.39,0,0,0,0-4.31,2.6,2.6,0,0,0-2-.83A2.64,2.64,0,0,0,361.62,168.08Z"/><path class="cls-4" d="M373.05,165.3l2.47,0,2.41,7.44,2.34-7.44h2.41l2.38,7.44,2.36-7.44h2.41l-3.57,9.85H383.8l-2.36-6.94-2.34,6.94h-2.45Z"/><path class="cls-4" d="M397.46,165.83a4.53,4.53,0,0,1,1.82,1.76,5.12,5.12,0,0,1,.65,2.61,5.21,5.21,0,0,1-.65,2.63,4.51,4.51,0,0,1-1.82,1.77,5.62,5.62,0,0,1-2.7.63,5.71,5.71,0,0,1-2.73-.63,4.49,4.49,0,0,1-1.83-1.77,5.2,5.2,0,0,1-.65-2.63,5.12,5.12,0,0,1,.65-2.61,4.51,4.51,0,0,1,1.83-1.76,5.71,5.71,0,0,1,2.73-.63A5.62,5.62,0,0,1,397.46,165.83Zm-4.72,2.25a3.39,3.39,0,0,0,0,4.31,2.64,2.64,0,0,0,2,.83,2.6,2.6,0,0,0,2-.83,3.39,3.39,0,0,0,0-4.31,2.6,2.6,0,0,0-2-.83A2.64,2.64,0,0,0,392.74,168.08Z"/><path class="cls-4" d="M405.34,165.71a4,4,0,0,1,2-.52v2.32a3.25,3.25,0,0,0-2.44.71,2.73,2.73,0,0,0-.91,2.16v4.75h-2.39v-9.85H404v1.9A3.56,3.56,0,0,1,405.34,165.71Z"/><path class="cls-4" d="M415.26,175.13l-2.67-4.31-1.51,1.58v2.73h-2.39V161.47h2.39v7.92l4.05-4.09h2.76l-3.65,3.79,3.87,6Z"/><path class="cls-4" d="M421.88,165.3l2.47,0,2.41,7.44,2.34-7.44h2.41l2.38,7.44,2.36-7.44h2.41l-3.57,9.85h-2.45l-2.36-6.94-2.34,6.94h-2.45Z"/><path class="cls-4" d="M441.79,161.45a1.43,1.43,0,0,1,.39,1,1.41,1.41,0,0,1-.39,1,1.38,1.38,0,0,1-2,0,1.41,1.41,0,0,1-.39-1,1.43,1.43,0,0,1,.39-1,1.38,1.38,0,0,1,2,0Zm-2.15,3.83H442v9.85h-2.39Z"/><path class="cls-4" d="M450.33,174.53a4.68,4.68,0,0,1-2.47.72,3,3,0,0,1-2.08-.75,2.84,2.84,0,0,1-.81-2.2v-4.86h-1.38l0-1.75H445V163h2.38v2.71h2.82v1.75h-2.82v4.44a1.43,1.43,0,0,0,.26,1,1,1,0,0,0,.77.29,3.43,3.43,0,0,0,1.4-.41Z"/><path class="cls-4" d="M460.5,166.21a3.85,3.85,0,0,1,1,2.77v6.15h-2.41v-5.45a2.22,2.22,0,0,0-.59-1.63,2.15,2.15,0,0,0-1.6-.6,2.46,2.46,0,0,0-1.9.81,2.94,2.94,0,0,0-.7,2v4.84h-2.39V161.47h2.39v5.69a3.73,3.73,0,0,1,3.55-2A3.52,3.52,0,0,1,460.5,166.21Z"/><path class="cls-4" d="M469.31,167.55a1.29,1.29,0,0,1,.36.94,1.35,1.35,0,0,1-.36,1,1.2,1.2,0,0,1-.91.38,1.17,1.17,0,0,1-.89-.39,1.35,1.35,0,0,1-.36-1,1.29,1.29,0,0,1,.36-.94,1.2,1.2,0,0,1,.89-.37A1.22,1.22,0,0,1,469.31,167.55Zm0,5.47a1.29,1.29,0,0,1,.36.94,1.34,1.34,0,0,1-.36,1,1.2,1.2,0,0,1-.91.38,1.17,1.17,0,0,1-.89-.39,1.35,1.35,0,0,1-.36-1,1.29,1.29,0,0,1,.36-.94,1.19,1.19,0,0,1,.89-.37A1.22,1.22,0,0,1,469.31,173Z"/><path class="cls-5" d="M148.72,150.18l2.55-17.89-7.49,17.89h-5.46l.8-18-6.65,18h-3.19l10.11-27.36a9.21,9.21,0,0,0-4.65,3.26,9.35,9.35,0,0,0-1.67,5.71,7.33,7.33,0,0,0,.09,1.27,5.35,5.35,0,0,0,.18.76,2.36,2.36,0,0,0,.18.43.55.55,0,0,1,.09.28,7.34,7.34,0,0,1-1.76-.19,3.57,3.57,0,0,1-1.34-.62,2.8,2.8,0,0,1-.86-1.12,4.19,4.19,0,0,1-.3-1.68,6.79,6.79,0,0,1,.52-2.55,10.37,10.37,0,0,1,1.42-2.46,13.87,13.87,0,0,1,2.13-2.2,15.8,15.8,0,0,1,2.63-1.78,14.4,14.4,0,0,1,2.94-1.19,11.27,11.27,0,0,1,3-.43,8.6,8.6,0,0,1,3,.56l-.91,21,8.77-21h5.74l-4.18,29.3Z"/><path class="cls-5" d="M180.57,143a17.93,17.93,0,0,1-1.23,2.8,11.85,11.85,0,0,1-1.37,2,7.75,7.75,0,0,1-1.45,1.32,7.18,7.18,0,0,1-1.44.78,6.29,6.29,0,0,1-1.34.37,7.77,7.77,0,0,1-1.17.1,3.81,3.81,0,0,1-2.69-.92,4.25,4.25,0,0,1-1.22-2.73,15.39,15.39,0,0,1-1.07,1.33,8,8,0,0,1-1.3,1.17,6.59,6.59,0,0,1-1.6.84,5.7,5.7,0,0,1-2,.32,6,6,0,0,1-2-.33,4.3,4.3,0,0,1-1.69-1.09,5.48,5.48,0,0,1-1.19-2,8.78,8.78,0,0,1-.45-3,17,17,0,0,1,.27-2.92,18.42,18.42,0,0,1,.84-3.11,17.61,17.61,0,0,1,1.41-3,11.94,11.94,0,0,1,2-2.53,9.08,9.08,0,0,1,2.58-1.75,7.6,7.6,0,0,1,3.17-.65,4.1,4.1,0,0,1,2.46.58,1.75,1.75,0,0,1,.77,1.44v.29l.43-2.12h5.74l-2.86,13.53a4,4,0,0,0-.14.65,5.16,5.16,0,0,0,0,.63q0,1.71,1.63,1.71a2,2,0,0,0,1.08-.3,3.52,3.52,0,0,0,.9-.81,5.49,5.49,0,0,0,.72-1.2,10.37,10.37,0,0,0,.52-1.45Zm-10-9a1.68,1.68,0,0,0-.34-.94,1.5,1.5,0,0,0-.5-.41,1.7,1.7,0,0,0-.8-.17,2.65,2.65,0,0,0-1.58.54,5.89,5.89,0,0,0-1.37,1.45,11.53,11.53,0,0,0-1.11,2.05,19.89,19.89,0,0,0-1.34,4.75,14.48,14.48,0,0,0-.17,2.11,5.68,5.68,0,0,0,.21,1.77,2.39,2.39,0,0,0,.52.92,1.2,1.2,0,0,0,.65.36,3.81,3.81,0,0,0,.62.06,2.31,2.31,0,0,0,.94-.22,3.44,3.44,0,0,0,1-.66,4.87,4.87,0,0,0,.84-1.1,5.45,5.45,0,0,0,.57-1.54Z"/><path class="cls-5" d="M191.2,143a16.22,16.22,0,0,1-1.25,2.8,11.59,11.59,0,0,1-1.44,2,7.82,7.82,0,0,1-3.06,2.1,7,7,0,0,1-1.41.37,8.36,8.36,0,0,1-1.2.1,5,5,0,0,1-1.67-.27,3.48,3.48,0,0,1-1.35-.86,4.09,4.09,0,0,1-.9-1.48,6.25,6.25,0,0,1-.33-2.16,10.17,10.17,0,0,1,.08-1.2c.05-.43.13-.9.23-1.41l2.7-12.77h5.74l-2.86,13.53a3.4,3.4,0,0,0-.13.65q0,.32,0,.63a1.44,1.44,0,0,0,.39,1.16,1.91,1.91,0,0,0,1.22.32,2.63,2.63,0,0,0,1.14-.26,3.64,3.64,0,0,0,1-.73,5.16,5.16,0,0,0,.84-1.12,7,7,0,0,0,.6-1.41ZM188.73,125a3,3,0,0,1-.25,1.23,3.07,3.07,0,0,1-.69,1,3.34,3.34,0,0,1-1,.66,3.27,3.27,0,0,1-2.47,0,3.22,3.22,0,0,1-1-.66,3,3,0,0,1-.67-1,3.25,3.25,0,0,1,0-2.47,3.23,3.23,0,0,1,.67-1,3.2,3.2,0,0,1,1-.69,3.15,3.15,0,0,1,2.47,0,3.3,3.3,0,0,1,1.7,1.7A3,3,0,0,1,188.73,125Z"/><path class="cls-5" d="M188,150.18l4.22-19.91H198l-.43,2.06a7.34,7.34,0,0,1,1.27-1.16,6,6,0,0,1,1.23-.67,5.27,5.27,0,0,1,1.14-.31,7,7,0,0,1,1-.08,6,6,0,0,1,1.77.25,3.52,3.52,0,0,1,2.33,2.2,5.67,5.67,0,0,1,.33,2,11.09,11.09,0,0,1-.15,1.72q-.15.92-.36,1.89t-.46,1.92q-.24,1-.46,1.83t-.36,1.62a7,7,0,0,0-.15,1.31,2,2,0,0,0,.34,1.21,1.46,1.46,0,0,0,1.25.47,2.37,2.37,0,0,0,1.32-.25,5.36,5.36,0,0,1-.54,1.86,4.38,4.38,0,0,1-1,1.27,3.68,3.68,0,0,1-1.32.74,5,5,0,0,1-1.52.23,4.37,4.37,0,0,1-1.92-.38,3.32,3.32,0,0,1-1.24-1,3.94,3.94,0,0,1-.66-1.44,7.06,7.06,0,0,1-.19-1.66,11.78,11.78,0,0,1,.28-2.36q.28-1.35.61-2.77t.61-2.74a11.15,11.15,0,0,0,.28-2.28q0-2-1.44-2a1.87,1.87,0,0,0-1,.29,3.35,3.35,0,0,0-.86.79A5.9,5.9,0,0,0,197,136a11.28,11.28,0,0,0-.54,1.43l-2.7,12.77Z"/><path class="cls-5" d="M237.07,143.42a10.36,10.36,0,0,1-2.16,3.41,12.68,12.68,0,0,1-2.95,2.29,13.1,13.1,0,0,1-3.23,1.29,12.89,12.89,0,0,1-6.87-.12,6.19,6.19,0,0,1-2.71-1.69,7.37,7.37,0,0,1-1.61-3A16.72,16.72,0,0,1,217,141a29,29,0,0,1,.17-3,30.42,30.42,0,0,1,.53-3.32,33.17,33.17,0,0,1,.94-3.44A24,24,0,0,1,220,128a19.52,19.52,0,0,1,1.89-3,13,13,0,0,1,2.41-2.43,11,11,0,0,1,3-1.62,10.47,10.47,0,0,1,3.6-.59,10.74,10.74,0,0,1,2.6.3,6.21,6.21,0,0,1,2.12.94,4.5,4.5,0,0,1,1.42,1.65,5.3,5.3,0,0,1,.52,2.43,6.92,6.92,0,0,1-.15,1.47,3.27,3.27,0,0,1-.49,1.17,2.33,2.33,0,0,1-.87.77,2.82,2.82,0,0,1-1.29.27,4,4,0,0,1-1.08-.17,2.46,2.46,0,0,1-1.18-.86,2.28,2.28,0,0,0,.68-.55,4.28,4.28,0,0,0,.58-.87,5.49,5.49,0,0,0,.41-1.08,4.51,4.51,0,0,0,.16-1.17,3.35,3.35,0,0,0-.13-.91,2,2,0,0,0-.42-.78,2.14,2.14,0,0,0-.76-.53,2.8,2.8,0,0,0-1.13-.2,3.45,3.45,0,0,0-2.15.82,9.33,9.33,0,0,0-2,2.21,19.1,19.1,0,0,0-1.69,3.24,30.32,30.32,0,0,0-1.31,3.91,37.21,37.21,0,0,0-.86,4.24,29.68,29.68,0,0,0-.31,4.2,14.34,14.34,0,0,0,.2,2.52,5.21,5.21,0,0,0,.74,2,3.62,3.62,0,0,0,1.46,1.27,5.38,5.38,0,0,0,2.38.46,9.24,9.24,0,0,0,4.36-1.05,10,10,0,0,0,3.4-2.94Z"/><path class="cls-5" d="M258.42,135.05a9.78,9.78,0,0,1-3,2.08,15.82,15.82,0,0,1-4,1.22,18.72,18.72,0,0,1-1.06,5,13.3,13.3,0,0,1-2.09,3.77,9,9,0,0,1-2.9,2.39,7.49,7.49,0,0,1-3.46.84,9.18,9.18,0,0,1-2.56-.34,5.16,5.16,0,0,1-2-1.09A5,5,0,0,1,236,147a7.88,7.88,0,0,1-.48-2.91,16.65,16.65,0,0,1,.24-2.65,19.13,19.13,0,0,1,.78-3.06,18.29,18.29,0,0,1,1.38-3.08,11.84,11.84,0,0,1,2.06-2.69,9.87,9.87,0,0,1,2.81-1.92,8.65,8.65,0,0,1,3.64-.73q5.11,0,5.11,6.36v0a.49.49,0,0,0,.18,0h.24a6.18,6.18,0,0,0,1.51-.2,12.56,12.56,0,0,0,1.62-.54,14,14,0,0,0,1.59-.77q.78-.44,1.42-.88Zm-10.36,3.42a1.19,1.19,0,0,1-.85-.61,2.39,2.39,0,0,1-.22-1.06,2.51,2.51,0,0,1,.34-1.37,2,2,0,0,1,.9-.79,7.09,7.09,0,0,0-.14-1.08,2.32,2.32,0,0,0-.27-.72,1,1,0,0,0-.44-.4,1.66,1.66,0,0,0-.67-.12,2.12,2.12,0,0,0-1.38.55,6.53,6.53,0,0,0-1.25,1.47,13.38,13.38,0,0,0-1.09,2.09,20.59,20.59,0,0,0-.85,2.42,21.76,21.76,0,0,0-.54,2.46,14,14,0,0,0-.19,2.21,9.8,9.8,0,0,0,.11,1.61,2.51,2.51,0,0,0,.35,1,1.24,1.24,0,0,0,.63.5,2.9,2.9,0,0,0,1,.14,2.21,2.21,0,0,0,1.45-.64,6.64,6.64,0,0,0,1.35-1.75,13.91,13.91,0,0,0,1.1-2.62A19.51,19.51,0,0,0,248.06,138.48Z"/><path class="cls-5" d="M275.3,143a18,18,0,0,1-1.23,2.8,11.88,11.88,0,0,1-1.37,2,7.77,7.77,0,0,1-1.45,1.32,7.18,7.18,0,0,1-1.44.78,6.29,6.29,0,0,1-1.34.37,7.77,7.77,0,0,1-1.17.1,3.83,3.83,0,0,1-2.72-.94,4.4,4.4,0,0,1-1.22-2.83,9.85,9.85,0,0,1-1.54,2,7.26,7.26,0,0,1-1.54,1.15,5,5,0,0,1-1.48.54,7.8,7.8,0,0,1-1.34.13,5,5,0,0,1-1.67-.27,3.48,3.48,0,0,1-1.35-.86,4.09,4.09,0,0,1-.9-1.48,6.25,6.25,0,0,1-.33-2.16,10.17,10.17,0,0,1,.08-1.2c.05-.43.13-.9.23-1.41l2.7-12.77H262L259.1,143.8a6.15,6.15,0,0,0-.12,1.13,2.44,2.44,0,0,0,.25,1.16,1,1,0,0,0,.93.48,2.22,2.22,0,0,0,1.07-.26,3.11,3.11,0,0,0,.88-.73,4.81,4.81,0,0,0,.7-1.12,11.18,11.18,0,0,0,.54-1.41l2.7-12.77h5.74l-2.86,13.53a4,4,0,0,0-.14.65,5.26,5.26,0,0,0,0,.63,1.42,1.42,0,0,0,.4,1.16,2,2,0,0,0,1.23.32,2.27,2.27,0,0,0,1.08-.26,3.17,3.17,0,0,0,.9-.73,4.87,4.87,0,0,0,.72-1.12,8.85,8.85,0,0,0,.52-1.41Z"/><path class="cls-5" d="M272.11,150.18l4.22-19.91h5.74l-.51,2.47q.53-.47,1.07-.91a8.27,8.27,0,0,1,1.14-.79,6.79,6.79,0,0,1,1.23-.55,4.28,4.28,0,0,1,1.36-.21,2.62,2.62,0,0,1,2.06.91,2.74,2.74,0,0,1,.52,1,3.67,3.67,0,0,1,.17,1.13,3.22,3.22,0,0,1-.17,1,2.7,2.7,0,0,1-.53.92,2.83,2.83,0,0,1-.9.67,2.88,2.88,0,0,1-1.26.26,1.6,1.6,0,0,1-.87-.19,1.3,1.3,0,0,1-.46-.49,2.29,2.29,0,0,1-.22-.63c0-.23-.09-.44-.15-.63a1.67,1.67,0,0,0-.2-.49.46.46,0,0,0-.42-.19,2.69,2.69,0,0,0-1.54.42,11.5,11.5,0,0,0-1.36,1.1l-3.19,15.13Z"/><path class="cls-5" d="M305.47,143a20.15,20.15,0,0,1-3.12,3,31,31,0,0,1-3,2,6.41,6.41,0,0,1-1.39,1.12,8.44,8.44,0,0,1-1.59.74,9.55,9.55,0,0,1-1.67.41,10.91,10.91,0,0,1-1.6.13,6.73,6.73,0,0,1-2.6-.46,5.46,5.46,0,0,1-1.82-1.19,4.63,4.63,0,0,1-1.06-1.63,5.13,5.13,0,0,1-.34-1.82,4.34,4.34,0,0,1,.18-1.29A4.58,4.58,0,0,1,288,143a3.73,3.73,0,0,1,.67-.81,3.33,3.33,0,0,1,.79-.54,48.39,48.39,0,0,0,2.82-5.92q1.15-2.93,2.08-5.88l5.89-.78q.12,2.59.22,4.48t.2,3.29q.1,1.39.18,2.36t.15,1.72q.07.75.1,1.36c0,.41,0,.83,0,1.27s0,.57,0,.82a3.44,3.44,0,0,1-.13.7q.88-.51,1.58-1a13.36,13.36,0,0,0,1.27-1Zm-16,1.44a3.3,3.3,0,0,0,.55,2.09,2.27,2.27,0,0,0,1.88.69,4.46,4.46,0,0,0,1.28-.18,2.85,2.85,0,0,0,1.11-.62,3.12,3.12,0,0,0,.78-1.14,4.57,4.57,0,0,0,.29-1.75q0-.51,0-1t-.07-1q0-.53-.11-1.2l-.16-1.54q-.09-.87-.18-2t-.21-2.68a33.66,33.66,0,0,1-1.42,3.77q-.82,1.83-1.81,3.75a2.13,2.13,0,0,1,.65.54,1.3,1.3,0,0,1,.26.84,2.25,2.25,0,0,1-.12.72,2,2,0,0,1-.35.63,1.77,1.77,0,0,1-.55.45,1.58,1.58,0,0,1-.73.17,1.94,1.94,0,0,1-.62-.1A.76.76,0,0,1,289.43,144.48Z"/><path class="cls-5" d="M320.45,143a22.74,22.74,0,0,1-1.92,2.72,14.37,14.37,0,0,1-2.43,2.35,12,12,0,0,1-3,1.66,10,10,0,0,1-3.61.63,8.57,8.57,0,0,1-2.57-.36,5.08,5.08,0,0,1-2-1.12,4.92,4.92,0,0,1-1.25-2,8.43,8.43,0,0,1-.44-2.89,17.39,17.39,0,0,1,.23-2.64,20.19,20.19,0,0,1,.74-3.07,17.44,17.44,0,0,1,1.34-3.09,12.15,12.15,0,0,1,2-2.71,9.36,9.36,0,0,1,2.78-1.92,8.65,8.65,0,0,1,3.64-.73,6.26,6.26,0,0,1,2.19.32,3.52,3.52,0,0,1,1.34.85,2.79,2.79,0,0,1,.68,1.21,5.51,5.51,0,0,1,.19,1.43,7,7,0,0,1-.76,3.22,8.58,8.58,0,0,1-2,2.6,10.53,10.53,0,0,1-2.93,1.79,10.86,10.86,0,0,1-3.44.8c0,.3,0,.58-.07.85s0,.52,0,.75a6.21,6.21,0,0,0,.18,1.66,2.35,2.35,0,0,0,.54,1,1.93,1.93,0,0,0,.89.52,4.78,4.78,0,0,0,1.25.15,7,7,0,0,0,2.15-.31,7.53,7.53,0,0,0,1.8-.86,10.16,10.16,0,0,0,1.58-1.28q.75-.74,1.51-1.58Zm-10.87-2.82a5.34,5.34,0,0,0,2.18-.64,6.62,6.62,0,0,0,1.85-1.47,7.28,7.28,0,0,0,1.27-2.06,6.25,6.25,0,0,0,.48-2.4,2.78,2.78,0,0,0-.21-1.19.79.79,0,0,0-.78-.45,2.12,2.12,0,0,0-1.49.73,8.37,8.37,0,0,0-1.37,1.9,16.3,16.3,0,0,0-1.14,2.63A23.31,23.31,0,0,0,309.58,140.23Z"/><path class="cls-5" d="M330.71,129q.12,2.59.22,4.48t.2,3.29q.1,1.39.18,2.36t.15,1.72q.07.75.1,1.36c0,.41,0,.83,0,1.27a7,7,0,0,1-.36,2.32,5.94,5.94,0,0,1-1,1.78,6.27,6.27,0,0,1-1.42,1.29,8.36,8.36,0,0,1-1.69.87,9.34,9.34,0,0,1-1.8.48,11.07,11.07,0,0,1-1.73.15A6.73,6.73,0,0,1,321,150a5.46,5.46,0,0,1-1.82-1.19,4.63,4.63,0,0,1-1.06-1.63,5.13,5.13,0,0,1-.34-1.82A4.34,4.34,0,0,1,318,144a4.58,4.58,0,0,1,.48-1.06,3.73,3.73,0,0,1,.67-.81,3.33,3.33,0,0,1,.79-.54,48.39,48.39,0,0,0,2.82-5.92q1.15-2.93,2.08-5.88Zm-10.79,15.44a3.3,3.3,0,0,0,.55,2.09,2.27,2.27,0,0,0,1.88.69,4.46,4.46,0,0,0,1.28-.18,2.85,2.85,0,0,0,1.11-.62,3.12,3.12,0,0,0,.78-1.14,4.57,4.57,0,0,0,.29-1.75q0-.51,0-1t-.07-1q0-.53-.11-1.2l-.16-1.54q-.09-.87-.18-2t-.21-2.68a33.66,33.66,0,0,1-1.42,3.77q-.82,1.83-1.81,3.75a2.13,2.13,0,0,1,.65.54,1.3,1.3,0,0,1,.26.84,2.25,2.25,0,0,1-.12.72,2,2,0,0,1-.35.63,1.77,1.77,0,0,1-.55.45,1.58,1.58,0,0,1-.73.17,1.94,1.94,0,0,1-.62-.1A.76.76,0,0,1,319.92,144.48Z"/><path class="cls-5" d="M341.13,150.18l5.25-24.85h-3.77l.47-1.83q.82,0,1.83-.08a13.17,13.17,0,0,0,2.26-.4,21.57,21.57,0,0,0,2.74-.93,24.41,24.41,0,0,0,3.31-1.7l-6.34,29.79Z"/><path class="cls-5" d="M362,150.59a8.67,8.67,0,0,1-3.89-.78,6.36,6.36,0,0,1-2.47-2.12,8.69,8.69,0,0,1-1.29-3.16,19.07,19.07,0,0,1-.38-3.9,32.08,32.08,0,0,1,.44-5.34,27.46,27.46,0,0,1,1.27-4.88,21.9,21.9,0,0,1,2-4.18,15.48,15.48,0,0,1,2.7-3.26,11.72,11.72,0,0,1,3.3-2.12,9.66,9.66,0,0,1,3.81-.76,7.86,7.86,0,0,1,3.41.69,6.37,6.37,0,0,1,2.39,1.94,8.51,8.51,0,0,1,1.4,3,15.71,15.71,0,0,1,.46,3.93q0,1.46-.17,3.12t-.52,3.4a33.25,33.25,0,0,1-.9,3.49,24.44,24.44,0,0,1-1.33,3.34,19.44,19.44,0,0,1-1.79,3,12.31,12.31,0,0,1-2.28,2.39,10.42,10.42,0,0,1-2.82,1.59A9.49,9.49,0,0,1,362,150.59Zm5.46-28.12a2.85,2.85,0,0,0-1.88.81,9.16,9.16,0,0,0-1.76,2.2,20.89,20.89,0,0,0-1.56,3.26,32,32,0,0,0-1.23,4,42.4,42.4,0,0,0-.82,4.4,34.13,34.13,0,0,0-.3,4.49,21.93,21.93,0,0,0,.11,2.2,8.64,8.64,0,0,0,.39,1.91,3.39,3.39,0,0,0,.79,1.34,1.78,1.78,0,0,0,1.32.51,2.91,2.91,0,0,0,1.9-.79,8.43,8.43,0,0,0,1.73-2.16,19.3,19.3,0,0,0,1.48-3.23,32.48,32.48,0,0,0,1.15-4,42.9,42.9,0,0,0,.74-4.47,41.2,41.2,0,0,0,.26-4.64,17.24,17.24,0,0,0-.14-2.22,9.26,9.26,0,0,0-.42-1.86,3.56,3.56,0,0,0-.72-1.27A1.38,1.38,0,0,0,367.44,122.47Z"/><path class="cls-5" d="M375.88,150.18l5.25-24.85h-3.77l.47-1.83q.82,0,1.83-.08a13.17,13.17,0,0,0,2.26-.4,21.57,21.57,0,0,0,2.74-.93,24.41,24.41,0,0,0,3.31-1.7l-6.34,29.79Z"/><path class="cls-6" d="M858.12,422.92H868.9v11h5.45a23.65,23.65,0,0,0,7.49-1.26,19.19,19.19,0,0,0,3.64-1.65,13.52,13.52,0,0,1-2.53-7c-.31-3.37.37-7.75,2.65-10.38l1.13-1.31,1.35,1.09c3.4,2.73,6.26,6.55,6.77,10.91a16.49,16.49,0,0,1,12.52,1.16l1.48.85-.78,1.52c-3.05,6-9.44,7.81-15.68,7.48-9.34,23.26-29.67,34.27-54.32,34.27-12.74,0-24.42-4.76-31.08-16.06l-.11-.18-1-2a31.28,31.28,0,0,1-2.49-15.87l.15-1.63h9.22v-11H823.6V412.13h21.57V401.34h12.94v21.57"/><path class="cls-4" d="M893.06,427c.72-5.62-3.48-10-6.09-12.13-3,3.48-3.47,12.58,1.24,16.42-2.63,2.34-8.18,4.46-13.86,4.46H805.23a29.13,29.13,0,0,0,2.87,16.06l.79,1.44a26.67,26.67,0,0,0,1.63,2.45q4.26.27,7.86.19h0a38.53,38.53,0,0,0,11.47-1.67.83.83,0,0,1,.54,1.57c-.39.13-.79.26-1.21.38h0a36.06,36.06,0,0,1-7.93,1.29c.19,0-.2,0-.2,0l-.35,0c-1.25.07-2.6.08-4,.08s-3,0-4.65-.11l0,0c5.76,6.47,14.77,10.36,26.06,10.36,23.89,0,44.16-10.59,53.13-34.37,6.37.65,12.49-1,15.27-6.4-4.43-2.56-10.13-1.74-13.42-.09"/><path class="cls-4" d="M893.06,427c.72-5.62-3.48-10-6.09-12.13-3,3.48-3.47,12.58,1.24,16.42-2.63,2.34-8.18,4.46-13.86,4.46h-65c-.28,9.08,3.09,16,9,20.14h0a38.53,38.53,0,0,0,11.47-1.67.83.83,0,0,1,.54,1.57c-.39.13-.79.26-1.21.38h0A37.92,37.92,0,0,1,821,457.5l-.08-.07c8.13,4.17,19.92,4.16,33.44-1,15.16-5.82,29.26-16.92,39.1-29.6l-.43.21"/><path class="cls-4" d="M805.36,442.94a27.63,27.63,0,0,0,2.74,8.86l.79,1.44a26.62,26.62,0,0,0,1.63,2.45q4.26.27,7.86.19a38.53,38.53,0,0,0,11.47-1.67.83.83,0,0,1,.54,1.57c-.39.13-.79.26-1.21.38h0a37.93,37.93,0,0,1-8.12,1.32h-.41c-1.25.07-2.58.11-4,.11s-3,0-4.71-.11c5.76,6.47,14.82,10.37,26.11,10.37,20.45,0,38.25-7.76,48.58-24.92h-81.3"/><path class="cls-4" d="M809.94,442.94a20.76,20.76,0,0,0,8.43,12.93,38.53,38.53,0,0,0,11.47-1.67.83.83,0,0,1,.54,1.57c-.39.13-.79.26-1.21.38h0a38.5,38.5,0,0,1-8.18,1.32c8.13,4.17,19.89,4.11,33.4-1.08a88.28,88.28,0,0,0,23.11-13.45H809.94"/><path class="cls-4" d="M814.61,424.71H824v9.35h-9.35Zm.78.78h.74v7.79h-.74Zm1.39,0h.77v7.79h-.77v-7.79Zm1.42,0H819v7.79h-.77Zm1.42,0h.77v7.79h-.77Zm1.42,0h.77v7.79H821v-7.79Zm1.42,0h.74v7.79h-.74Zm3-11.57h9.35v9.35H825.4v-9.35Zm.78.78h.74v7.79h-.74Zm1.39,0h.77v7.79h-.77v-7.79Zm1.42,0h.77v7.79H829Zm1.42,0h.77v7.79h-.77Zm1.42,0h.77v7.79h-.77Zm1.42,0H834v7.79h-.74Z"/><path class="cls-4" d="M825.4,424.71h9.35v9.35H825.4v-9.35Zm.78.78h.74v7.79h-.74Zm1.39,0h.77v7.79h-.77v-7.79Zm1.42,0h.77v7.79H829Zm1.42,0h.77v7.79h-.77Zm1.42,0h.77v7.79h-.77Zm1.42,0H834v7.79h-.74Z"/><path class="cls-4" d="M836.18,424.71h9.35v9.35h-9.35Zm.78.78h.74v7.79H837Zm1.39,0h.77v7.79h-.77Zm1.42,0h.77v7.79h-.77Zm1.42,0h.77v7.79h-.77Zm1.42,0h.77v7.79h-.77Zm1.42,0h.74v7.79H844Z"/><path class="cls-4" d="M836.18,413.93h9.35v9.35h-9.35Zm.78.78h.74v7.79H837Zm1.39,0h.77v7.79h-.77Zm1.42,0h.77v7.79h-.77Zm1.42,0h.77v7.79h-.77Zm1.42,0h.77v7.79h-.77Zm1.42,0h.74v7.79H844Zm3,10h9.35v9.35H847Zm.78.78h.74v7.79h-.74Zm1.39,0h.77v7.79h-.77Zm1.42,0h.77v7.79h-.77Zm1.42,0h.77v7.79H852Zm1.42,0h.77v7.79h-.77Zm1.42,0h.74v7.79h-.74Z"/><path class="cls-4" d="M847,413.93h9.35v9.35H847Zm.78.78h.74v7.79h-.74Zm1.39,0h.77v7.79h-.77Zm1.42,0h.77v7.79h-.77Zm1.42,0h.77v7.79H852Zm1.42,0h.77v7.79h-.77Zm1.42,0h.74v7.79h-.74Z"/><path class="cls-4" d="M847,403.14h9.35v9.35H847Zm.78.78h.74v7.79h-.74v-7.79Zm1.39,0h.77v7.79h-.77v-7.79Zm1.42,0h.77v7.79h-.77v-7.79Zm1.42,0h.77v7.79H852v-7.79Zm1.42,0h.77v7.79h-.77v-7.79Zm1.42,0h.74v7.79h-.74v-7.79Z"/><path class="cls-4" d="M857.76,424.71h9.35v9.35h-9.35Zm.78.78h.74v7.79h-.74v-7.79Zm1.39,0h.77v7.79h-.77v-7.79Zm1.42,0h.77v7.79h-.77Zm1.42,0h.77v7.79h-.77Zm1.42,0h.77v7.79h-.77Zm1.42,0h.74v7.79h-.74Z"/><path class="cls-4" d="M834.16,449.22a2.58,2.58,0,1,1,.07,5.16h-.07a2.58,2.58,0,0,1,0-5.16"/><path class="cls-6" d="M834.16,450a1.84,1.84,0,0,1,.67.13.75.75,0,1,0,1,1,1.85,1.85,0,1,1-1.71-1.14m-45.62-6.08h120c-2.61-.66-8.26-1.56-7.33-5-4.75,5.5-16.21,3.86-19.1,1.15-3.22,4.67-22,2.89-23.27-.74-4,4.74-16.54,4.74-20.58,0-1.31,3.64-20,5.41-23.27.74-2.89,2.71-14.35,4.35-19.1-1.15.93,3.42-4.72,4.32-7.33,5"/><path class="cls-4" d="M841,467.8c-6.39-3-9.89-7.15-11.84-11.65a39.57,39.57,0,0,1-8.54,1.3q-1.87.1-3.94.11-2.38,0-5-.14c5.86,5.85,13.06,10.36,26.41,10.44q1.48,0,2.94-.06"/><path class="cls-4" d="M831.55,460.31a22.39,22.39,0,0,1-2.37-4.15,39.54,39.54,0,0,1-8.54,1.3c2.28,1.24,5.53,2.38,10.91,2.85"/><path class="cls-4" d="M514,471.39h-1a10.6,10.6,0,0,0-5.1,0h-1c-.3-.74-1-.46-1.51-.55-10.69-1.77-19.06-7.08-24.95-16.22,3.87,0,7.75,0,11.62-.06a14.42,14.42,0,0,0,7.75-2.07,17.94,17.94,0,0,1-2.41-2.49c-1-1.52-2-2.19-3.85-1.39a6.68,6.68,0,0,1-2.52.2c-4.51,0-9,.07-13.53.1l-1.18-3.08c-.55-1.44-.47-3.07-1.33-4.42V429.6c.61-.48.45-1.23.63-1.85a22.29,22.29,0,0,1,2-5.75c5,.17,10.1-.24,15.12.24a7.33,7.33,0,0,1,5.91,3.49l.25.35.05.09a.93.93,0,0,0,.14.19l.2.53.29.49a.43.43,0,0,1,.09.27l-.93.46c-.54-.83-1-1.69-1.62-2.49s-1.29-1-1.66.27c-.09.29-.22.57-.34.85l-.26.48-1,4s-.07.07-.07.1a1.31,1.31,0,0,0,.06.22l-.11,1c-.82,1.18-.8,4.61,0,5.75a29.47,29.47,0,0,0,1.89,6.72c5.45,12.62,21.43,12,27.51,3.92,5.3-7,5.74-14.79,2.49-22.62a16.31,16.31,0,0,0-22.23-8.49c-.91.44-1.37.73-.27,1.54a9.73,9.73,0,0,1,2.46,2.69c.51.81,1,.92,1.94.62,4.87-1.56,9.22.36,11.05,5.09a20.78,20.78,0,0,1-.24,16.14c-1.56,3.65-4.61,5.25-8.61,4.88-.69-.92-1.63-.71-2.56-.57a2.49,2.49,0,0,1-1.63-.87l.11-.87a4,4,0,0,0,1.19-1.66c1.93-3.7,1.85-7.71,1.57-11.68-.64-9-6.84-17.26-18.05-16.81-3.28.13-6.58,0-9.87,0a3.77,3.77,0,0,1,.27-.57,35.73,35.73,0,0,1,23.46-15.4c.68-.13,1.5.09,2-.62h8c.18.48.62.32,1,.37,18.11,2.66,31.11,17.53,31.08,35.58s-13.05,32.71-31.14,35.35C514.78,471,514.2,470.76,514,471.39Z"/><path class="cls-4" d="M507.92,471.39a10.6,10.6,0,0,1,5.1,0Z"/><path class="cls-6" d="M509.84,448.71c4,.37,7.05-1.23,8.61-4.88a20.78,20.78,0,0,0,.24-16.14c-1.83-4.73-6.18-6.65-11.05-5.09-.94.3-1.43.19-1.94-.62a9.73,9.73,0,0,0-2.46-2.69c-1.11-.8-.64-1.1.27-1.54a16.31,16.31,0,0,1,22.23,8.49c3.25,7.83,2.81,15.59-2.49,22.62-6.08,8.06-22.06,8.7-27.51-3.92a29.47,29.47,0,0,1-1.89-6.72l0-5.75.11-1v-.32l1-4a.41.41,0,0,0,.26-.48c.11-.28.25-.56.34-.85.37-1.26,1-1.19,1.66-.27s1.09,1.66,1.62,2.49A26.17,26.17,0,0,1,500,437a11.77,11.77,0,0,0,5.62,10.25,2.49,2.49,0,0,0,1.63.87A4.63,4.63,0,0,0,509.84,448.71Z"/><path class="cls-6" d="M477.65,422a18.21,18.21,0,0,1,2.94-5.79c3.29,0,6.58.16,9.87,0,11.21-.45,17.41,7.83,18.05,16.81.28,4,.36,8-1.57,11.68a4,4,0,0,1-1.19,1.66c-.08-.19-.1-.44-.24-.56-3.44-3.13-4.42-7.14-4.35-11.62a12.7,12.7,0,0,0-1.47-6.57.44.44,0,0,0-.09-.27l-.29-.49-.2-.53a.19.19,0,0,0-.14-.19l-.05-.09-.25-.35a7.33,7.33,0,0,0-5.91-3.49C487.75,421.75,482.69,422.17,477.65,422Z"/><path class="cls-6" d="M480.51,454.62a19,19,0,0,1-2.95-5.72c4.51,0,9-.05,13.53-.1a6.68,6.68,0,0,0,2.52-.2c1.83-.81,2.87-.13,3.85,1.39a17.94,17.94,0,0,0,2.41,2.49,14.42,14.42,0,0,1-7.75,2.07C488.26,454.61,484.38,454.61,480.51,454.62Z"/><path class="cls-4" d="M499.7,427.64a12.7,12.7,0,0,1,1.47,6.57c-.08,4.48.9,8.49,4.35,11.62.14.12.16.37.24.56l-.11.87A11.77,11.77,0,0,1,500,437a26.17,26.17,0,0,0-1.25-8.91Z"/><path class="cls-4" d="M493.81,432.47l0,5.75C493,437.08,493,433.65,493.81,432.47Z"/><path class="cls-4" d="M509.84,448.71a4.63,4.63,0,0,1-2.56-.57C508.2,448,509.14,447.79,509.84,448.71Z"/><path class="cls-4" d="M498.68,425.73l.25.35Z"/><path class="cls-4" d="M499,426.16a.19.19,0,0,1,.14.19A.93.93,0,0,1,499,426.16Z"/><path class="cls-4" d="M495.16,426.73a.41.41,0,0,1-.26.48Z"/><path class="cls-4" d="M499.33,426.89l.29.49Z"/><path class="cls-4" d="M493.93,431.19v.32a1.31,1.31,0,0,1-.06-.22S493.9,431.22,493.93,431.19Z"/><path class="cls-4" d="M813.2,263.55c0-7.42,0-14.83-.08-22.25,0-1,.34-1.3,1.32-1.29,7.42.05,14.83.05,22.25.07q0,5,0,10c-4,0-7.94.05-11.91,0-1.19,0-1.53.38-1.52,1.54,0,4,0,7.94,0,11.91Z"/><path class="cls-4" d="M860.56,240.09c7.41,0,14.82,0,22.23-.08,1,0,1.32.3,1.31,1.3-.05,7.41-.06,14.82-.07,22.23l-10,0c0-3.82-.12-7.65,0-11.47,0-1.65-.5-2-2-2-3.82.08-7.64,0-11.46-.05Z"/><path class="cls-4" d="M836.74,310.89c-7.43,0-14.86,0-22.28.1-1,0-1.34-.31-1.33-1.32.06-7.43.08-14.86.11-22.28h10c0,3.83.17,7.65,0,11.47-.06,1.77.54,2.11,2.15,2.06,3.76-.1,7.52,0,11.29,0Z"/><path class="cls-4" d="M884,287.39q0,11.23.1,22.46c0,.81-.28,1.14-1.11,1.13q-11.23-.08-22.46-.11l0-10c3.9,0,7.8-.1,11.7,0,1.5,0,1.8-.46,1.77-1.84-.08-3.9,0-7.8,0-11.7Z"/><path class="cls-4" d="M860.56,240.09q0,5,0,9.94H846.11l-.46.89,13.16,12.86h-7.71a2.37,2.37,0,0,1-1.66-.86L836.7,250.11q0-5,0-10Z"/><path class="cls-4" d="M884,287.39H874L861.1,274.55c-.18-.18-.46-.39-.46-.59,0-2.81,0-5.62,0-8.43l.57-.27,12.86,13V263.53l10,0Q884,275.47,884,287.39Z"/><path class="cls-4" d="M823.2,287.38h-10q0-11.92,0-23.83h10q6.09,6.12,12.17,12.26c.52.53,1.32.94,1.33,1.8,0,2.65,0,5.3,0,8.43L823.2,272.56Z"/><path class="cls-4" d="M860.57,300.91l0,10-23.79,0q0-5-.06-9.94h14.44l.49-.9L838.5,287.38c2.36,0,4.6.06,6.84,0a3.51,3.51,0,0,1,2.86,1.2C852.29,292.71,856.44,296.8,860.57,300.91Z"/><path class="cls-5" d="M929.59,287.24a7.31,7.31,0,0,1-1.52,2.4,8.92,8.92,0,0,1-2.07,1.61,9.19,9.19,0,0,1-2.27.91,9.07,9.07,0,0,1-4.83-.08,4.36,4.36,0,0,1-1.91-1.19,5.19,5.19,0,0,1-1.13-2.13,11.74,11.74,0,0,1-.38-3.2,20.54,20.54,0,0,1,.12-2.08,21.48,21.48,0,0,1,.38-2.33,23.4,23.4,0,0,1,.66-2.42,16.78,16.78,0,0,1,1-2.34,13.76,13.76,0,0,1,1.33-2.11,9.13,9.13,0,0,1,1.7-1.71,7.76,7.76,0,0,1,2.09-1.14,7.35,7.35,0,0,1,2.53-.42,7.54,7.54,0,0,1,1.83.21,4.37,4.37,0,0,1,1.49.66,3.16,3.16,0,0,1,1,1.16,3.73,3.73,0,0,1,.36,1.71,4.86,4.86,0,0,1-.1,1,2.3,2.3,0,0,1-.34.82,1.63,1.63,0,0,1-.62.54,2,2,0,0,1-.91.19,2.81,2.81,0,0,1-.76-.12,1.73,1.73,0,0,1-.83-.6,1.6,1.6,0,0,0,.48-.39,3,3,0,0,0,.41-.62,3.89,3.89,0,0,0,.29-.76,3.16,3.16,0,0,0,.11-.82,2.34,2.34,0,0,0-.09-.64,1.39,1.39,0,0,0-.29-.55,1.49,1.49,0,0,0-.53-.38,2,2,0,0,0-.79-.14,2.42,2.42,0,0,0-1.51.57,6.57,6.57,0,0,0-1.38,1.55,13.45,13.45,0,0,0-1.19,2.28,21.29,21.29,0,0,0-.92,2.75,26.13,26.13,0,0,0-.6,3,20.93,20.93,0,0,0-.22,3,10.05,10.05,0,0,0,.14,1.77,3.66,3.66,0,0,0,.52,1.37,2.55,2.55,0,0,0,1,.9,3.79,3.79,0,0,0,1.67.32,6.5,6.5,0,0,0,3.06-.74A7,7,0,0,0,929,287Z"/><path class="cls-5" d="M936.88,287a11.42,11.42,0,0,1-.88,2,8.2,8.2,0,0,1-1,1.41,5.5,5.5,0,0,1-2.15,1.48,4.92,4.92,0,0,1-1,.26,5.88,5.88,0,0,1-.84.07,3.52,3.52,0,0,1-1.18-.19,2.45,2.45,0,0,1-1-.6,2.87,2.87,0,0,1-.64-1,4.38,4.38,0,0,1-.23-1.52,7.21,7.21,0,0,1,.05-.84q.05-.46.16-1l3-14,4.14-.56-3.21,15.12a2.37,2.37,0,0,0-.09.46c0,.15,0,.3,0,.44a1,1,0,0,0,.27.81,1.34,1.34,0,0,0,.86.23,1.85,1.85,0,0,0,.8-.18,2.57,2.57,0,0,0,.72-.51,3.66,3.66,0,0,0,.59-.79,5,5,0,0,0,.42-1Z"/><path class="cls-5" d="M950.8,281.36a6.87,6.87,0,0,1-2.12,1.46,11.1,11.1,0,0,1-2.84.86,13.16,13.16,0,0,1-.75,3.5,9.35,9.35,0,0,1-1.47,2.65,6.34,6.34,0,0,1-2,1.68,5.27,5.27,0,0,1-2.43.59,6.46,6.46,0,0,1-1.8-.24,3.63,3.63,0,0,1-1.42-.77,3.54,3.54,0,0,1-.93-1.37,5.55,5.55,0,0,1-.33-2,11.78,11.78,0,0,1,.17-1.87,13.45,13.45,0,0,1,.55-2.15,12.9,12.9,0,0,1,1-2.17,8.33,8.33,0,0,1,1.45-1.89,6.93,6.93,0,0,1,2-1.35,6.08,6.08,0,0,1,2.56-.51q3.6,0,3.6,4.47v0l.13,0h.17a4.33,4.33,0,0,0,1.06-.14,8.76,8.76,0,0,0,1.14-.38,9.76,9.76,0,0,0,1.12-.54q.55-.31,1-.62Zm-7.29,2.41a.84.84,0,0,1-.59-.43,1.68,1.68,0,0,1-.16-.75,1.77,1.77,0,0,1,.24-1,1.43,1.43,0,0,1,.64-.55,5,5,0,0,0-.1-.76,1.63,1.63,0,0,0-.19-.51.7.7,0,0,0-.31-.28,1.17,1.17,0,0,0-.47-.08,1.5,1.5,0,0,0-1,.39,4.61,4.61,0,0,0-.88,1,9.39,9.39,0,0,0-.77,1.47,14.49,14.49,0,0,0-.59,1.7,15.27,15.27,0,0,0-.38,1.73,9.94,9.94,0,0,0-.14,1.55,7,7,0,0,0,.08,1.13,1.76,1.76,0,0,0,.25.69.87.87,0,0,0,.44.35,2.05,2.05,0,0,0,.67.1,1.56,1.56,0,0,0,1-.45,4.66,4.66,0,0,0,1-1.23,9.74,9.74,0,0,0,.77-1.85A13.67,13.67,0,0,0,943.51,283.77Z"/><path class="cls-5" d="M962,287a12.62,12.62,0,0,1-.86,2,8.41,8.41,0,0,1-1,1.41,5.47,5.47,0,0,1-1,.93,5.05,5.05,0,0,1-1,.55,4.45,4.45,0,0,1-.94.26,5.47,5.47,0,0,1-.82.07,2.69,2.69,0,0,1-1.91-.66,3.09,3.09,0,0,1-.86-2,7,7,0,0,1-1.08,1.38,5.12,5.12,0,0,1-1.08.81,3.48,3.48,0,0,1-1,.38,5.45,5.45,0,0,1-.94.09,3.52,3.52,0,0,1-1.18-.19,2.45,2.45,0,0,1-1-.6,2.87,2.87,0,0,1-.64-1,4.38,4.38,0,0,1-.23-1.52,7.21,7.21,0,0,1,.05-.84q.05-.46.16-1l1.9-9h4l-2,9.52a4.34,4.34,0,0,0-.08.79,1.71,1.71,0,0,0,.18.81.67.67,0,0,0,.66.33,1.56,1.56,0,0,0,.75-.18,2.2,2.2,0,0,0,.62-.51,3.42,3.42,0,0,0,.49-.79,8,8,0,0,0,.38-1l1.9-9h4l-2,9.52a2.74,2.74,0,0,0-.1.46,3.63,3.63,0,0,0,0,.44,1,1,0,0,0,.28.81,1.37,1.37,0,0,0,.87.23,1.6,1.6,0,0,0,.76-.18,2.24,2.24,0,0,0,.64-.51,3.45,3.45,0,0,0,.51-.79,6.28,6.28,0,0,0,.37-1Z"/><path class="cls-5" d="M970.67,273l4.14-.56-3.21,15.12a3,3,0,0,0-.1.43,2.79,2.79,0,0,0,0,.39,1.28,1.28,0,0,0,.25.8,1.08,1.08,0,0,0,.9.32,2.16,2.16,0,0,0,.57-.05l.33-.12a3.31,3.31,0,0,1-.33,1.29,2.89,2.89,0,0,1-.7.9,2.81,2.81,0,0,1-1,.53,3.51,3.51,0,0,1-1.08.17,3.84,3.84,0,0,1-1-.13,2.6,2.6,0,0,1-.86-.41,2.44,2.44,0,0,1-.65-.72,3.3,3.3,0,0,1-.39-1.06,8.6,8.6,0,0,1-.72.87,5.2,5.2,0,0,1-.89.75,4.4,4.4,0,0,1-1.08.52,4.12,4.12,0,0,1-1.29.19,4.21,4.21,0,0,1-1.39-.23,3,3,0,0,1-1.19-.77,3.86,3.86,0,0,1-.83-1.39,6.19,6.19,0,0,1-.31-2.11,12,12,0,0,1,.19-2.05,13,13,0,0,1,.59-2.19,12.44,12.44,0,0,1,1-2.1,8.4,8.4,0,0,1,1.39-1.78,6.38,6.38,0,0,1,1.81-1.23,5.34,5.34,0,0,1,2.23-.46,2.88,2.88,0,0,1,1.73.41,1.23,1.23,0,0,1,.54,1v.11Zm-3,14,1.37-6.41a2.24,2.24,0,0,0-.09-.29,1.21,1.21,0,0,0-.18-.32.93.93,0,0,0-.33-.26,1.24,1.24,0,0,0-.54-.1,1.87,1.87,0,0,0-1.11.38,4.15,4.15,0,0,0-1,1,8.08,8.08,0,0,0-.78,1.44,14,14,0,0,0-.94,3.34,10.19,10.19,0,0,0-.12,1.48,4,4,0,0,0,.15,1.24,1.69,1.69,0,0,0,.36.65.84.84,0,0,0,.46.25,2.69,2.69,0,0,0,.44,0,1.57,1.57,0,0,0,.6-.13,2.35,2.35,0,0,0,.62-.38,3,3,0,0,0,.55-.63,3.51,3.51,0,0,0,.42-.88Z"/><path class="cls-5" d="M998.42,271.05,993.86,292H990l-3.24-13.89L983.55,292H980.9l4.21-19.18a5.63,5.63,0,0,0-2.91,2.12,6.08,6.08,0,0,0-1,3.49,6.38,6.38,0,0,0,.2,1.65,3.41,3.41,0,0,0,.55,1.21,4,4,0,0,1-2.65-.73,2.87,2.87,0,0,1-.85-2.3,6.1,6.1,0,0,1,.31-1.93,7.1,7.1,0,0,1,.86-1.75,7.64,7.64,0,0,1,1.33-1.5,8.64,8.64,0,0,1,1.72-1.16,9.26,9.26,0,0,1,2-.75,9.38,9.38,0,0,1,2.26-.27,6.39,6.39,0,0,1,1.14.09,7.34,7.34,0,0,1,1.07.29l3.38,15,3.13-15.2Z"/><path class="cls-5" d="M1012.27,287a12.62,12.62,0,0,1-.86,2,8.29,8.29,0,0,1-1,1.41,5.44,5.44,0,0,1-1,.93,5.05,5.05,0,0,1-1,.55,4.45,4.45,0,0,1-.94.26,5.47,5.47,0,0,1-.82.07,2.69,2.69,0,0,1-1.89-.65,3,3,0,0,1-.85-1.92,10.85,10.85,0,0,1-.75.94,5.59,5.59,0,0,1-.92.82,4.64,4.64,0,0,1-1.13.59,4,4,0,0,1-1.37.23,4.21,4.21,0,0,1-1.39-.23,3,3,0,0,1-1.19-.77,3.86,3.86,0,0,1-.83-1.39,6.19,6.19,0,0,1-.31-2.11,12,12,0,0,1,.19-2.05,13,13,0,0,1,.59-2.19,12.44,12.44,0,0,1,1-2.1,8.4,8.4,0,0,1,1.39-1.78,6.38,6.38,0,0,1,1.81-1.23,5.34,5.34,0,0,1,2.23-.46,2.88,2.88,0,0,1,1.73.41,1.23,1.23,0,0,1,.54,1v.21l.3-1.49h4l-2,9.52a2.84,2.84,0,0,0-.1.46,3.63,3.63,0,0,0,0,.44q0,1.2,1.15,1.2a1.43,1.43,0,0,0,.76-.21,2.47,2.47,0,0,0,.64-.57,3.85,3.85,0,0,0,.51-.84,7.36,7.36,0,0,0,.37-1Zm-7.05-6.32a1.14,1.14,0,0,0-.05-.31,1.1,1.1,0,0,0-.18-.36,1,1,0,0,0-.35-.29,1.19,1.19,0,0,0-.56-.12,1.87,1.87,0,0,0-1.11.38,4.15,4.15,0,0,0-1,1,8.08,8.08,0,0,0-.78,1.44,14,14,0,0,0-.94,3.34,10.19,10.19,0,0,0-.12,1.48,4,4,0,0,0,.15,1.24,1.69,1.69,0,0,0,.36.65.84.84,0,0,0,.46.25,2.69,2.69,0,0,0,.44,0,1.62,1.62,0,0,0,.66-.16,2.39,2.39,0,0,0,.67-.46,3.42,3.42,0,0,0,.59-.77,3.82,3.82,0,0,0,.4-1.08Z"/><path class="cls-5" d="M1019.11,287a11.42,11.42,0,0,1-.88,2,8.2,8.2,0,0,1-1,1.41,5.5,5.5,0,0,1-2.15,1.48,4.92,4.92,0,0,1-1,.26,5.88,5.88,0,0,1-.84.07,3.52,3.52,0,0,1-1.18-.19,2.45,2.45,0,0,1-1-.6,2.87,2.87,0,0,1-.64-1,4.38,4.38,0,0,1-.23-1.52,7.21,7.21,0,0,1,.05-.84q.05-.46.16-1l1.68-7.86h-.93l.23-1.12h.92l.85-3.87,4.14-.56-1,4.43h1.68l-.22,1.12h-1.68l-1.79,8.39a2.37,2.37,0,0,0-.09.46c0,.15,0,.3,0,.44a1,1,0,0,0,.27.81,1.34,1.34,0,0,0,.86.23,1.85,1.85,0,0,0,.8-.18,2.57,2.57,0,0,0,.72-.51,3.66,3.66,0,0,0,.59-.79,5,5,0,0,0,.42-1Z"/><path class="cls-5" d="M1025.94,287a11.42,11.42,0,0,1-.88,2,8.14,8.14,0,0,1-1,1.41,5.5,5.5,0,0,1-2.15,1.48,4.92,4.92,0,0,1-1,.26,5.88,5.88,0,0,1-.84.07,3.53,3.53,0,0,1-1.18-.19,2.45,2.45,0,0,1-1-.6,2.89,2.89,0,0,1-.64-1,4.4,4.4,0,0,1-.23-1.52,7.21,7.21,0,0,1,.05-.84q.06-.46.16-1l1.9-9h4l-2,9.52a2.37,2.37,0,0,0-.09.46c0,.15,0,.3,0,.44a1,1,0,0,0,.27.81,1.34,1.34,0,0,0,.86.23,1.85,1.85,0,0,0,.8-.18,2.57,2.57,0,0,0,.72-.51,3.63,3.63,0,0,0,.59-.79,5,5,0,0,0,.42-1Zm-1.74-12.7a2.13,2.13,0,0,1-.18.87,2.16,2.16,0,0,1-.49.7,2.35,2.35,0,0,1-.71.46,2.29,2.29,0,0,1-1.74,0,2.26,2.26,0,0,1-.7-.46,2.14,2.14,0,0,1-.47-.7,2.29,2.29,0,0,1,0-1.74,2.29,2.29,0,0,1,.47-.71,2.23,2.23,0,0,1,.7-.49,2.21,2.21,0,0,1,1.74,0,2.32,2.32,0,0,1,1.2,1.2A2.13,2.13,0,0,1,1024.2,274.28Z"/><path class="cls-5" d="M1026,278h4l-2,9.52c0,.21-.08.4-.11.57a2.82,2.82,0,0,0,0,.44,1,1,0,0,0,.23.68.93.93,0,0,0,.73.25,2.14,2.14,0,0,0,1.31-.48,5.32,5.32,0,0,0,1.16-1.26,11.19,11.19,0,0,0,1-1.78,17.42,17.42,0,0,0,.75-2,17.86,17.86,0,0,0,.48-2,10.55,10.55,0,0,0,.17-1.76.26.26,0,0,1-.14.12l-.25.09-.27,0h-.22a.76.76,0,0,1-.44-.13,1.12,1.12,0,0,1-.32-.33,1.51,1.51,0,0,1-.19-.46,2.11,2.11,0,0,1-.06-.5,1.5,1.5,0,0,1,.42-1.09,1.77,1.77,0,0,1,1.32-.43,1.5,1.5,0,0,1,1.38.75,2.45,2.45,0,0,1,.29.78,4.58,4.58,0,0,1,.09.9,17.75,17.75,0,0,1-.19,2.47,18.08,18.08,0,0,1-.61,2.71,17.26,17.26,0,0,1-1.05,2.65,10.16,10.16,0,0,1-1.52,2.27,7.22,7.22,0,0,1-2,1.59,5.45,5.45,0,0,1-2.57.6,3.66,3.66,0,0,1-2.51-.81,3.14,3.14,0,0,1-.92-2.48q0-.23,0-.59a6,6,0,0,1,.11-.76Z"/><path class="cls-5" d="M1043.86,288a6.1,6.1,0,0,1-.68,2,4.21,4.21,0,0,1-1.11,1.27,3.93,3.93,0,0,1-1.42.67,6.78,6.78,0,0,1-1.63.19,5.89,5.89,0,0,1-1.78-.25,3.51,3.51,0,0,1-1.37-.79,3.57,3.57,0,0,1-.88-1.37,5.83,5.83,0,0,1-.31-2,12.24,12.24,0,0,1,.16-1.86,14.21,14.21,0,0,1,.52-2.16,12.31,12.31,0,0,1,.94-2.17,8.56,8.56,0,0,1,1.42-1.91,6.58,6.58,0,0,1,2-1.35,6.08,6.08,0,0,1,2.56-.51,4.4,4.4,0,0,1,1.54.23,2.48,2.48,0,0,1,.94.59,2,2,0,0,1,.48.85,3.85,3.85,0,0,1,.13,1,4.91,4.91,0,0,1-.53,2.26,6,6,0,0,1-1.43,1.83,7.4,7.4,0,0,1-2.06,1.26,7.6,7.6,0,0,1-2.42.56c0,.16,0,.3,0,.44s0,.28,0,.4a3.93,3.93,0,0,0,.14,1.12,1.92,1.92,0,0,0,.37.72,1.28,1.28,0,0,0,.55.38,2.06,2.06,0,0,0,.68.11,3.2,3.2,0,0,0,.85-.12,5.37,5.37,0,0,0,.88-.33,7.3,7.3,0,0,0,.84-.47A5.66,5.66,0,0,0,1043.86,288Zm-4.79-3a3.43,3.43,0,0,0,1.54-.43,4.85,4.85,0,0,0,1.31-1,5,5,0,0,0,.9-1.46,4.44,4.44,0,0,0,.33-1.7,2,2,0,0,0-.15-.83.55.55,0,0,0-.55-.31,1.48,1.48,0,0,0-1,.53,5.93,5.93,0,0,0-1,1.36,13.55,13.55,0,0,0-.81,1.86A17,17,0,0,0,1039.08,285Z"/><path class="cls-5" d="M235.2,275.64a4.48,4.48,0,0,0-1.25,1.2,12.65,12.65,0,0,0-1.16,1.9,21,21,0,0,0-1,2.37q-.46,1.28-.79,2.6a25.09,25.09,0,0,0-.52,2.6,16.6,16.6,0,0,0-.18,2.36,8.23,8.23,0,0,0,.1,1.31,4.13,4.13,0,0,0,.29,1,1.7,1.7,0,0,0,.5.67,1.18,1.18,0,0,0,.75.24,2.3,2.3,0,0,0,1.42-.55,6.73,6.73,0,0,0,1.36-1.49,13.54,13.54,0,0,0,1.22-2.19,20.43,20.43,0,0,0,1-2.67,24.26,24.26,0,0,0,.65-2.91,18.31,18.31,0,0,0,.24-2.9,14.07,14.07,0,0,0-.14-2.14,3.93,3.93,0,0,0-.54-1.54,2.44,2.44,0,0,0-1.09-.92,4.51,4.51,0,0,0-1.8-.31,9.41,9.41,0,0,0-3.06.5,8,8,0,0,0-2.58,1.44,6.92,6.92,0,0,0-1.77,2.27,6.7,6.7,0,0,0-.66,3,3.67,3.67,0,0,0,0,.66,3.86,3.86,0,0,0,.1.41,1.61,1.61,0,0,0,.1.25.4.4,0,0,1,0,.18,3.53,3.53,0,0,1-2.08-.53,2.08,2.08,0,0,1-.75-1.82,4.66,4.66,0,0,1,.42-1.93,7,7,0,0,1,1.19-1.8,10.06,10.06,0,0,1,1.81-1.57,12.48,12.48,0,0,1,2.3-1.24,15,15,0,0,1,2.67-.81,14.06,14.06,0,0,1,2.88-.29,8,8,0,0,1,3.11.53,5.2,5.2,0,0,1,2,1.48,5.9,5.9,0,0,1,1.13,2.27,11.25,11.25,0,0,1,.35,2.88,18.91,18.91,0,0,1-1,6,17.77,17.77,0,0,1-1.37,3,11.24,11.24,0,0,1-2,2.54,9.24,9.24,0,0,1-2.62,1.76,8,8,0,0,1-3.31.66,6.47,6.47,0,0,1-2-.3,4,4,0,0,1-1.59-1,4.47,4.47,0,0,1-1-1.74,8.06,8.06,0,0,1-.37-2.6,17.33,17.33,0,0,1,.21-2.55,21.8,21.8,0,0,1,.64-2.87,21,21,0,0,1,1.06-2.85,12.33,12.33,0,0,1,1.48-2.47,7.3,7.3,0,0,1,1.89-1.74,4.28,4.28,0,0,1,2.31-.66,6.2,6.2,0,0,1,.71,0A3.14,3.14,0,0,1,235.2,275.64Z"/><path class="cls-5" d="M238.56,301l4.68-22h4l-.45,2.11a5.58,5.58,0,0,1,1.41-.86,4.67,4.67,0,0,1,1.86-.34,3.94,3.94,0,0,1,1.34.23,2.63,2.63,0,0,1,1.09.74,3.66,3.66,0,0,1,.72,1.36,7.06,7.06,0,0,1,.27,2.09,17.55,17.55,0,0,1-.13,2,14,14,0,0,1-.44,2.2,12.12,12.12,0,0,1-.83,2.12,7.11,7.11,0,0,1-1.28,1.8,5.93,5.93,0,0,1-1.81,1.25,5.78,5.78,0,0,1-2.4.47,4.64,4.64,0,0,1-.93-.08,2.89,2.89,0,0,1-.68-.22,1.7,1.7,0,0,1-.46-.32,2.26,2.26,0,0,1-.31-.38L242.79,300Zm6.13-9.91a1,1,0,0,0,.33.44,1.14,1.14,0,0,0,.73.21,2.34,2.34,0,0,0,1.31-.38,3.76,3.76,0,0,0,1-1,6.41,6.41,0,0,0,.74-1.42,12.51,12.51,0,0,0,.49-1.63,14.42,14.42,0,0,0,.28-1.65,13.69,13.69,0,0,0,.09-1.47,4.28,4.28,0,0,0-.15-1.27,1.92,1.92,0,0,0-.36-.7.93.93,0,0,0-.46-.29,1.61,1.61,0,0,0-1.44.29,3,3,0,0,0-.92,1Z"/><path class="cls-5" d="M265.26,289a16.06,16.06,0,0,1-1.35,1.91,10.13,10.13,0,0,1-1.71,1.65,8.45,8.45,0,0,1-2.11,1.17,7,7,0,0,1-2.54.44,6,6,0,0,1-1.8-.25,3.57,3.57,0,0,1-1.38-.79,3.46,3.46,0,0,1-.88-1.37,5.93,5.93,0,0,1-.31-2,12.24,12.24,0,0,1,.16-1.86,14.21,14.21,0,0,1,.52-2.16,12.24,12.24,0,0,1,.94-2.17,8.55,8.55,0,0,1,1.42-1.91,6.57,6.57,0,0,1,2-1.35,6.08,6.08,0,0,1,2.56-.51,4.4,4.4,0,0,1,1.54.23,2.48,2.48,0,0,1,.94.59,2,2,0,0,1,.48.85,3.87,3.87,0,0,1,.13,1,4.91,4.91,0,0,1-.53,2.26,6,6,0,0,1-1.43,1.83,7.41,7.41,0,0,1-2.06,1.26,7.61,7.61,0,0,1-2.42.56q0,.31,0,.59c0,.19,0,.36,0,.53a4.37,4.37,0,0,0,.13,1.17,1.65,1.65,0,0,0,.38.72,1.36,1.36,0,0,0,.63.36,3.37,3.37,0,0,0,.88.1,4.91,4.91,0,0,0,1.51-.22,5.29,5.29,0,0,0,1.26-.6,7.09,7.09,0,0,0,1.11-.9q.53-.52,1.06-1.11Zm-7.64-2a3.74,3.74,0,0,0,1.53-.45,4.67,4.67,0,0,0,1.3-1,5.14,5.14,0,0,0,.9-1.45,4.4,4.4,0,0,0,.33-1.69,2,2,0,0,0-.15-.83.55.55,0,0,0-.55-.31,1.49,1.49,0,0,0-1,.51,5.88,5.88,0,0,0-1,1.33,11.42,11.42,0,0,0-.8,1.85A16.41,16.41,0,0,0,257.62,287Z"/><path class="cls-5" d="M262.6,294l3-14h4l-.3,1.45a5.16,5.16,0,0,1,.9-.81,4.19,4.19,0,0,1,.87-.47,3.68,3.68,0,0,1,.8-.22,5,5,0,0,1,.7-.05,4.2,4.2,0,0,1,1.24.18,2.47,2.47,0,0,1,1.64,1.54,4,4,0,0,1,.23,1.44,7.78,7.78,0,0,1-.1,1.21q-.1.65-.25,1.33t-.32,1.35q-.17.67-.32,1.29t-.25,1.14a4.9,4.9,0,0,0-.1.92,1.4,1.4,0,0,0,.24.85,1,1,0,0,0,.88.33,1.66,1.66,0,0,0,.93-.18,3.77,3.77,0,0,1-.38,1.31,3.08,3.08,0,0,1-.7.9,2.6,2.6,0,0,1-.93.52,3.52,3.52,0,0,1-1.07.16,3.07,3.07,0,0,1-1.35-.27,2.34,2.34,0,0,1-.87-.71,2.77,2.77,0,0,1-.46-1,5,5,0,0,1-.14-1.17,8.27,8.27,0,0,1,.2-1.66q.2-1,.43-1.95t.43-1.93a7.87,7.87,0,0,0,.2-1.6q0-1.44-1-1.44a1.32,1.32,0,0,0-.71.21,2.36,2.36,0,0,0-.6.55,4.13,4.13,0,0,0-.49.82,7.9,7.9,0,0,0-.38,1l-1.9,9Z"/><path class="cls-5" d="M289.28,289.24a8.69,8.69,0,0,1-1.43,2.2,9.2,9.2,0,0,1-4.27,2.7,8.83,8.83,0,0,1-2.5.36,6.1,6.1,0,0,1-2.33-.4,4.27,4.27,0,0,1-2.52-2.66,5.8,5.8,0,0,1-.3-1.87,7.59,7.59,0,0,1,.36-2.26,8.38,8.38,0,0,1,1-2.15,7.47,7.47,0,0,1,1.63-1.76,5.85,5.85,0,0,1,2.18-1.07,3.92,3.92,0,0,1-1.31-1.54,4.34,4.34,0,0,1-.4-1.83,5.44,5.44,0,0,1,.46-2.15,6.52,6.52,0,0,1,1.27-1.93,6.4,6.4,0,0,1,1.94-1.39,5.7,5.7,0,0,1,2.47-.53,5.29,5.29,0,0,1,1.57.23,3.83,3.83,0,0,1,1.28.66,3,3,0,0,1,.85,1.09,3.54,3.54,0,0,1,.31,1.52,3.94,3.94,0,0,1-.16,1.16,3.06,3.06,0,0,1-.45.92,2.2,2.2,0,0,1-.66.61,1.57,1.57,0,0,1-.8.22,1.59,1.59,0,0,1-1.31-.75,1.1,1.1,0,0,0,.47-.34,2.88,2.88,0,0,0,.4-.6,3.46,3.46,0,0,0,.27-.74,3.28,3.28,0,0,0,.1-.77,1.75,1.75,0,0,0-.14-.72,1.41,1.41,0,0,0-.35-.49,1.3,1.3,0,0,0-.49-.27,2,2,0,0,0-.57-.08,2.08,2.08,0,0,0-1.16.34,3.18,3.18,0,0,0-.9.9,4.54,4.54,0,0,0-.59,1.26,5,5,0,0,0-.21,1.45,4.63,4.63,0,0,0,.16,1.2,3.51,3.51,0,0,0,.5,1.09,3.42,3.42,0,0,0,.88.88,4.14,4.14,0,0,0,1.29.58,4.91,4.91,0,0,0-1.42.55,6.4,6.4,0,0,0-1.22.91,7.16,7.16,0,0,0-1,1.17,8.55,8.55,0,0,0-.75,1.33,7.78,7.78,0,0,0-.47,1.39,5.85,5.85,0,0,0-.16,1.34,4,4,0,0,0,.15,1.11,2.48,2.48,0,0,0,.46.9,2.13,2.13,0,0,0,.82.6,3.06,3.06,0,0,0,1.22.22,6,6,0,0,0,1.39-.18,6.62,6.62,0,0,0,2.78-1.44,4.61,4.61,0,0,0,1-1.24Z"/><path class="cls-5" d="M290.74,294l3.8-17.81,4.14-.55-1.31,6.21h.16a3.15,3.15,0,0,0,1.57-.41,4.56,4.56,0,0,0,1.28-1.07,5.39,5.39,0,0,0,.87-1.46,4.31,4.31,0,0,0,.32-1.6,3.15,3.15,0,0,0-.21-1.13,2.63,2.63,0,0,0-.64-1,3.15,3.15,0,0,0-1.14-.68,5.05,5.05,0,0,0-1.7-.25,7.73,7.73,0,0,0-1.66.18,7.18,7.18,0,0,0-1.61.56,7.39,7.39,0,0,0-1.46.94,5.85,5.85,0,0,0-1.18,1.32,6.67,6.67,0,0,0-.79,1.71,7.07,7.07,0,0,0-.29,2.1,5,5,0,0,0,.06.87,3.14,3.14,0,0,0,.14.53,2.36,2.36,0,0,0,.14.31.41.41,0,0,1,.06.19,3.69,3.69,0,0,1-2.21-.57,2.31,2.31,0,0,1-.79-2,4.89,4.89,0,0,1,.38-1.89,6.78,6.78,0,0,1,1.07-1.75,9,9,0,0,1,1.64-1.52,11.59,11.59,0,0,1,2.08-1.2,12.37,12.37,0,0,1,2.39-.79,12,12,0,0,1,2.59-.28,8.41,8.41,0,0,1,2.67.38,5.63,5.63,0,0,1,1.85,1,3.91,3.91,0,0,1,1.09,1.42,4.1,4.1,0,0,1,.36,1.67,4.62,4.62,0,0,1-.18,1.26,4.73,4.73,0,0,1-.53,1.2,5.78,5.78,0,0,1-2.09,2,3.92,3.92,0,0,1,1.53.59,3.72,3.72,0,0,1,1,1,4.29,4.29,0,0,1,.57,1.35,6.54,6.54,0,0,1,.18,1.53,10.42,10.42,0,0,1-.13,1.53,11.28,11.28,0,0,1-.42,1.76,10.38,10.38,0,0,1-.75,1.76,6.36,6.36,0,0,1-1.15,1.53,5.48,5.48,0,0,1-1.59,1.08,5,5,0,0,1-2.08.41,5.74,5.74,0,0,1-.94-.08,2.64,2.64,0,0,1-.9-.31,2,2,0,0,1-.67-.64,1.86,1.86,0,0,1-.27-1,3.72,3.72,0,0,1,.08-.75,5.22,5.22,0,0,1,.27-.87,3.62,3.62,0,0,0,1,.79,2,2,0,0,0,.92.22,1.84,1.84,0,0,0,1.29-.49,3.64,3.64,0,0,0,.85-1.23,6.68,6.68,0,0,0,.47-1.63,10.57,10.57,0,0,0,.14-1.68,7,7,0,0,0-.13-1.37,3.32,3.32,0,0,0-.44-1.13,2.29,2.29,0,0,0-.81-.77,2.55,2.55,0,0,0-1.27-.29h-.53a5.61,5.61,0,0,0-.75.08L294.78,294Z"/><path class="cls-5" d="M320.72,276.77a3.48,3.48,0,0,1-.16,1.07,2.68,2.68,0,0,1-.43.83,1.89,1.89,0,0,1-.67.54,2,2,0,0,1-.86.19,2,2,0,0,1-1-.23,2.19,2.19,0,0,1-.75-.65,2.76,2.76,0,0,0,.83-1,3,3,0,0,0,.31-1.36,1.92,1.92,0,0,0-.53-1.43,2,2,0,0,0-1.46-.53,2.48,2.48,0,0,0-1,.21,2.36,2.36,0,0,0-.81.59,2.67,2.67,0,0,0-.52.9,3.37,3.37,0,0,0-.18,1.13,3.58,3.58,0,0,0,.45,1.75,9.44,9.44,0,0,0,1.13,1.61q.68.79,1.48,1.61a16.91,16.91,0,0,1,1.48,1.74,9.57,9.57,0,0,1,1.13,2,6.06,6.06,0,0,1,.45,2.37,5.7,5.7,0,0,1-.57,2.55,6.17,6.17,0,0,1-1.59,2,7.64,7.64,0,0,1-2.39,1.34,8.88,8.88,0,0,1-3,.49,7.92,7.92,0,0,1-2.43-.35,5.43,5.43,0,0,1-1.86-1,4.5,4.5,0,0,1-1.2-1.55,4.67,4.67,0,0,1-.42-2,4.93,4.93,0,0,1,.3-1.74,4.47,4.47,0,0,1,.82-1.4,3.8,3.8,0,0,1,1.23-.94,3.46,3.46,0,0,1,1.52-.34,2.72,2.72,0,0,1,1.65.49,2.1,2.1,0,0,1,.83,1.35,4,4,0,0,0-1.33.21,2.9,2.9,0,0,0-1,.57,2.53,2.53,0,0,0-.64.9,3,3,0,0,0-.23,1.18,2.48,2.48,0,0,0,2.65,2.67,3.47,3.47,0,0,0,1.37-.27,3.27,3.27,0,0,0,1.08-.73,3.4,3.4,0,0,0,.71-1.11,3.69,3.69,0,0,0,.26-1.39,4.32,4.32,0,0,0-.25-1.47,6.85,6.85,0,0,0-.68-1.37,13.09,13.09,0,0,0-1-1.31l-1.09-1.29q-.56-.65-1.09-1.31a12.52,12.52,0,0,1-1-1.35,7.14,7.14,0,0,1-.68-1.43,4.77,4.77,0,0,1-.25-1.56,4.48,4.48,0,0,1,.47-2,4.94,4.94,0,0,1,1.31-1.62,6.35,6.35,0,0,1,2-1.07,7.74,7.74,0,0,1,2.5-.39,7,7,0,0,1,2.05.28,4.73,4.73,0,0,1,1.57.79,3.56,3.56,0,0,1,1,1.24A3.62,3.62,0,0,1,320.72,276.77Z"/><path class="cls-4" d="M474.85,279.21l16.28,3.47a17.28,17.28,0,0,0-.94-1.86c-4.82-6.79-4.95-14.13-2.5-21.74,1-3.17,2.34-6.26,3.2-9.47.8-3,1.18-6.11,1.73-9.07,1.39.53,2.92,2.68,3.73,6.38.58,2.64.87,5.34,1.41,8.82.8-1.39,1.29-2.09,1.64-2.86a35.67,35.67,0,0,0,3.1-14.57c.1-4.57,1.57-8.61,6.15-11.81-1.9,4.3-.39,7.7,1.05,10.89a63,63,0,0,1,5.05,21.8,1.51,1.51,0,0,0,.48,1c1.39-7.92,1.28-16.23,6.36-23.15-.86,6.42,2,11.65,4.77,17,4.51,9,5.3,18-.58,26.82a19.38,19.38,0,0,0-.88,1.76l17.94-3.55a34.09,34.09,0,0,1-7.2,12.33,4,4,0,0,1-2.65,1q-24.43.09-48.86,0a3.28,3.28,0,0,1-2.39-.95c-2.63-3.8-5.1-7.72-7.63-11.6Z"/><path class="cls-4" d="M482.7,298.09h51.93c0,2.59.12,5.14-.1,7.66,0,.49-1.41,1.21-2.18,1.23-6.76.1-13.51.06-20.27.06-8.84,0-17.69-.06-26.53,0-2.12,0-3.08-.52-2.88-2.8C482.83,302.31,482.7,300.32,482.7,298.09Z"/><path class="cls-4" d="M493.11,312.15H523.9c1.07,4-4.09,11.14-12.69,12.2C500.56,325.66,493,318.73,493.11,312.15Z"/><path class="cls-5" d="M561.25,294l3.8-17.81,4.14-.55-2,9.35a3.49,3.49,0,0,0,1.35-.38,5.25,5.25,0,0,0,1.18-.84,6.47,6.47,0,0,0,1-1.18,8.62,8.62,0,0,0,1.22-2.95,7.52,7.52,0,0,0,.16-1.54,5.31,5.31,0,0,0-.2-1.47,3.51,3.51,0,0,0-.62-1.22,2.86,2.86,0,0,0-1.08-.83,3.81,3.81,0,0,0-1.58-.3,9.34,9.34,0,0,0-3.06.46,6.23,6.23,0,0,0-2.28,1.34,5.76,5.76,0,0,0-1.42,2.14,7.85,7.85,0,0,0-.49,2.86,5,5,0,0,0,.06.87,3.74,3.74,0,0,0,.13.53,1.91,1.91,0,0,0,.13.31.41.41,0,0,1,.06.19,5.2,5.2,0,0,1-1.29-.14,2.33,2.33,0,0,1-.94-.46,2,2,0,0,1-.57-.83,3.61,3.61,0,0,1-.2-1.29,4.44,4.44,0,0,1,.4-1.83,6.83,6.83,0,0,1,1.11-1.71,9.67,9.67,0,0,1,1.65-1.49,12.2,12.2,0,0,1,4.31-2,10.21,10.21,0,0,1,2.36-.28,8.59,8.59,0,0,1,3,.46,6,6,0,0,1,2.06,1.22,4.75,4.75,0,0,1,1.2,1.76,5.71,5.71,0,0,1,.38,2.07,7,7,0,0,1-.55,2.68,7.59,7.59,0,0,1-1.6,2.41,8.11,8.11,0,0,1-5.93,2.41H567l-1.71,8Z"/><path class="cls-5" d="M573,294l3-14h4l-.36,1.74.75-.64a5.74,5.74,0,0,1,.8-.55,4.83,4.83,0,0,1,.87-.39,3,3,0,0,1,1-.15,1.84,1.84,0,0,1,1.45.64,1.92,1.92,0,0,1,.37.67,2.57,2.57,0,0,1,.12.79,2.26,2.26,0,0,1-.12.73,1.89,1.89,0,0,1-.38.65,2,2,0,0,1-.64.47,2,2,0,0,1-.89.18,1.13,1.13,0,0,1-.61-.14.92.92,0,0,1-.32-.34,1.61,1.61,0,0,1-.16-.44c0-.16-.07-.31-.1-.44a1.17,1.17,0,0,0-.14-.34.33.33,0,0,0-.29-.14,1.89,1.89,0,0,0-1.08.29,8.18,8.18,0,0,0-1,.77L577,294Z"/><path class="cls-5" d="M599.64,283.36a6.89,6.89,0,0,1-2.12,1.46,11.11,11.11,0,0,1-2.84.86,13.2,13.2,0,0,1-.75,3.5,9.37,9.37,0,0,1-1.47,2.65,6.34,6.34,0,0,1-2,1.68,5.27,5.27,0,0,1-2.43.59,6.46,6.46,0,0,1-1.8-.24,3.63,3.63,0,0,1-1.42-.77,3.53,3.53,0,0,1-.93-1.37,5.53,5.53,0,0,1-.33-2,11.67,11.67,0,0,1,.17-1.87,13.45,13.45,0,0,1,.55-2.15,12.82,12.82,0,0,1,1-2.17,8.3,8.3,0,0,1,1.45-1.89,6.92,6.92,0,0,1,2-1.35,6.08,6.08,0,0,1,2.56-.51q3.59,0,3.6,4.47v0l.13,0h.17a4.34,4.34,0,0,0,1.06-.14,8.76,8.76,0,0,0,1.14-.38,9.84,9.84,0,0,0,1.12-.54q.55-.31,1-.62Zm-7.29,2.41a.84.84,0,0,1-.59-.43,1.67,1.67,0,0,1-.16-.75,1.76,1.76,0,0,1,.24-1,1.43,1.43,0,0,1,.64-.55,5.08,5.08,0,0,0-.1-.76,1.63,1.63,0,0,0-.19-.51.7.7,0,0,0-.31-.28,1.17,1.17,0,0,0-.47-.08,1.49,1.49,0,0,0-1,.39,4.56,4.56,0,0,0-.88,1,9.39,9.39,0,0,0-.77,1.47,14.49,14.49,0,0,0-.59,1.7,15.27,15.27,0,0,0-.38,1.73,9.82,9.82,0,0,0-.14,1.55,6.87,6.87,0,0,0,.08,1.13,1.76,1.76,0,0,0,.25.69.87.87,0,0,0,.44.35,2,2,0,0,0,.67.1,1.56,1.56,0,0,0,1-.45,4.66,4.66,0,0,0,1-1.23,9.8,9.8,0,0,0,.77-1.85A13.77,13.77,0,0,0,592.35,285.77Z"/><path class="cls-5" d="M617.78,289a12.21,12.21,0,0,1-1.26,2.75,6.56,6.56,0,0,1-1.37,1.57,3.64,3.64,0,0,1-1.35.7,5.12,5.12,0,0,1-1.22.16,4,4,0,0,1-1.56-.27,2.7,2.7,0,0,1-1-.71,2.75,2.75,0,0,1-.55-1,4,4,0,0,1-.17-1.17,8.3,8.3,0,0,1,.2-1.66q.2-1,.43-1.95t.43-1.93a7.87,7.87,0,0,0,.2-1.6q0-1.44-1-1.44a1.32,1.32,0,0,0-.71.21,2.36,2.36,0,0,0-.6.55,4.13,4.13,0,0,0-.49.82,8,8,0,0,0-.38,1l-1.9,9h-4l2.05-9.67a2.87,2.87,0,0,0,.08-.7,2.52,2.52,0,0,0,0-.46,1.17,1.17,0,0,0-.14-.39.83.83,0,0,0-.26-.27.72.72,0,0,0-.4-.1,1.47,1.47,0,0,0-.76.21,2.26,2.26,0,0,0-.63.56,4.08,4.08,0,0,0-.5.83,8.38,8.38,0,0,0-.38,1l-1.9,9h-4l3-14h4l-.3,1.45a5,5,0,0,1,.9-.81,4.49,4.49,0,0,1,.89-.48,3.93,3.93,0,0,1,.85-.23,5.26,5.26,0,0,1,.78-.06,3.89,3.89,0,0,1,1,.13,2.38,2.38,0,0,1,.85.42,2.47,2.47,0,0,1,.63.75,3.39,3.39,0,0,1,.37,1.11,6.07,6.07,0,0,1,1-1.25,4.7,4.7,0,0,1,1-.72,3.7,3.7,0,0,1,1-.33,4.91,4.91,0,0,1,.85-.08,4.13,4.13,0,0,1,1.24.18,2.48,2.48,0,0,1,1.63,1.54,4,4,0,0,1,.23,1.44,7.78,7.78,0,0,1-.1,1.21q-.1.65-.25,1.33t-.32,1.35q-.18.67-.32,1.29t-.25,1.14a4.9,4.9,0,0,0-.1.92,1.41,1.41,0,0,0,.24.85,1,1,0,0,0,.88.33,1.7,1.7,0,0,0,.79-.18,2,2,0,0,0,.62-.51,3.92,3.92,0,0,0,.5-.79q.23-.46.44-1Z"/><path class="cls-5" d="M627.66,289a16.11,16.11,0,0,1-1.35,1.91,10.14,10.14,0,0,1-1.71,1.65,8.45,8.45,0,0,1-2.11,1.17,7,7,0,0,1-2.54.44,6,6,0,0,1-1.8-.25,3.57,3.57,0,0,1-1.38-.79,3.46,3.46,0,0,1-.88-1.37,5.93,5.93,0,0,1-.31-2,12.24,12.24,0,0,1,.16-1.86,14.21,14.21,0,0,1,.52-2.16,12.16,12.16,0,0,1,.94-2.17,8.53,8.53,0,0,1,1.42-1.91,6.57,6.57,0,0,1,2-1.35,6.08,6.08,0,0,1,2.56-.51,4.4,4.4,0,0,1,1.54.23,2.48,2.48,0,0,1,.94.59,2,2,0,0,1,.48.85,3.89,3.89,0,0,1,.13,1,4.91,4.91,0,0,1-.53,2.26,6,6,0,0,1-1.43,1.83,7.42,7.42,0,0,1-2.06,1.26,7.61,7.61,0,0,1-2.42.56q0,.31,0,.59c0,.19,0,.36,0,.53a4.37,4.37,0,0,0,.13,1.17,1.64,1.64,0,0,0,.38.72,1.35,1.35,0,0,0,.63.36,3.37,3.37,0,0,0,.88.1,4.91,4.91,0,0,0,1.51-.22,5.3,5.3,0,0,0,1.26-.6,7.12,7.12,0,0,0,1.11-.9q.53-.52,1.06-1.11ZM620,287a3.74,3.74,0,0,0,1.53-.45,4.67,4.67,0,0,0,1.3-1,5.15,5.15,0,0,0,.9-1.45,4.41,4.41,0,0,0,.33-1.69,2,2,0,0,0-.15-.83.55.55,0,0,0-.55-.31,1.49,1.49,0,0,0-1,.51,5.88,5.88,0,0,0-1,1.33,11.42,11.42,0,0,0-.8,1.85A16.41,16.41,0,0,0,620,287Z"/><path class="cls-5" d="M634.71,289a11.42,11.42,0,0,1-.88,2,8.14,8.14,0,0,1-1,1.41,5.5,5.5,0,0,1-2.15,1.48,4.92,4.92,0,0,1-1,.26,5.88,5.88,0,0,1-.84.07,3.53,3.53,0,0,1-1.18-.19,2.45,2.45,0,0,1-1-.6,2.89,2.89,0,0,1-.64-1,4.4,4.4,0,0,1-.23-1.52,7.21,7.21,0,0,1,.05-.84q.06-.46.16-1l1.68-7.86h-.93L627,280H628l.85-3.87,4.14-.56L632,280h1.68l-.22,1.12h-1.68L630,289.52a2.37,2.37,0,0,0-.09.46c0,.15,0,.3,0,.44a1,1,0,0,0,.27.81,1.34,1.34,0,0,0,.86.23,1.85,1.85,0,0,0,.8-.18,2.57,2.57,0,0,0,.72-.51,3.63,3.63,0,0,0,.59-.79,5,5,0,0,0,.42-1Z"/><path class="cls-5" d="M648.21,289a12.21,12.21,0,0,1-1.26,2.75,6.56,6.56,0,0,1-1.37,1.57,3.64,3.64,0,0,1-1.35.7,5.12,5.12,0,0,1-1.22.16,4,4,0,0,1-1.56-.27,2.7,2.7,0,0,1-1-.71,2.75,2.75,0,0,1-.55-1,4,4,0,0,1-.17-1.17,8.3,8.3,0,0,1,.2-1.66q.2-1,.43-1.95t.43-1.93a7.87,7.87,0,0,0,.2-1.6q0-1.44-1-1.44a1.32,1.32,0,0,0-.71.21,2.36,2.36,0,0,0-.6.55,4.13,4.13,0,0,0-.49.82,8,8,0,0,0-.38,1l-1.9,9h-4l4.06-19,4.14-.56-1.5,7.05a5.17,5.17,0,0,1,.9-.81,4.2,4.2,0,0,1,.87-.47,3.68,3.68,0,0,1,.8-.22,5,5,0,0,1,.7-.05,4.2,4.2,0,0,1,1.24.18,2.47,2.47,0,0,1,1.64,1.54,4,4,0,0,1,.23,1.44,7.78,7.78,0,0,1-.1,1.21q-.1.65-.25,1.33t-.32,1.35q-.17.67-.32,1.29t-.25,1.14a4.9,4.9,0,0,0-.1.92,1.41,1.41,0,0,0,.24.85,1,1,0,0,0,.88.33,1.7,1.7,0,0,0,.79-.18,2,2,0,0,0,.62-.51,3.92,3.92,0,0,0,.5-.79q.23-.46.44-1Z"/><path class="cls-5" d="M658.09,289a16.11,16.11,0,0,1-1.35,1.91,10.14,10.14,0,0,1-1.71,1.65,8.45,8.45,0,0,1-2.11,1.17,7,7,0,0,1-2.54.44,6,6,0,0,1-1.8-.25,3.57,3.57,0,0,1-1.38-.79,3.46,3.46,0,0,1-.88-1.37,5.93,5.93,0,0,1-.31-2,12.24,12.24,0,0,1,.16-1.86,14.21,14.21,0,0,1,.52-2.16,12.16,12.16,0,0,1,.94-2.17,8.53,8.53,0,0,1,1.42-1.91,6.57,6.57,0,0,1,2-1.35,6.08,6.08,0,0,1,2.56-.51,4.4,4.4,0,0,1,1.54.23,2.48,2.48,0,0,1,.94.59,2,2,0,0,1,.48.85,3.89,3.89,0,0,1,.13,1,4.91,4.91,0,0,1-.53,2.26,6,6,0,0,1-1.43,1.83,7.42,7.42,0,0,1-2.06,1.26,7.61,7.61,0,0,1-2.42.56q0,.31,0,.59c0,.19,0,.36,0,.53a4.37,4.37,0,0,0,.13,1.17,1.64,1.64,0,0,0,.38.72,1.35,1.35,0,0,0,.63.36,3.37,3.37,0,0,0,.88.1,4.91,4.91,0,0,0,1.51-.22A5.3,5.3,0,0,0,655,291a7.12,7.12,0,0,0,1.11-.9q.53-.52,1.06-1.11Zm-7.64-2a3.74,3.74,0,0,0,1.53-.45,4.67,4.67,0,0,0,1.3-1,5.15,5.15,0,0,0,.9-1.45,4.41,4.41,0,0,0,.33-1.69,2,2,0,0,0-.15-.83.55.55,0,0,0-.55-.31,1.49,1.49,0,0,0-1,.51,5.88,5.88,0,0,0-1,1.33,11.42,11.42,0,0,0-.8,1.85A16.41,16.41,0,0,0,650.45,287Z"/><path class="cls-5" d="M671.8,289a12.62,12.62,0,0,1-.86,2,8.29,8.29,0,0,1-1,1.41,5.44,5.44,0,0,1-1,.93,5.05,5.05,0,0,1-1,.55,4.45,4.45,0,0,1-.94.26,5.47,5.47,0,0,1-.82.07,2.69,2.69,0,0,1-1.91-.66,3.1,3.1,0,0,1-.86-2,7,7,0,0,1-1.08,1.38,5.09,5.09,0,0,1-1.08.81,3.48,3.48,0,0,1-1,.38,5.43,5.43,0,0,1-.94.09,3.53,3.53,0,0,1-1.18-.19,2.45,2.45,0,0,1-1-.6,2.89,2.89,0,0,1-.64-1,4.4,4.4,0,0,1-.23-1.52,7.21,7.21,0,0,1,.05-.84q.06-.46.16-1l1.9-9h4l-2,9.52a4.34,4.34,0,0,0-.08.79,1.72,1.72,0,0,0,.18.81.67.67,0,0,0,.66.33,1.56,1.56,0,0,0,.75-.18,2.18,2.18,0,0,0,.62-.51A3.42,3.42,0,0,0,663,290a7.84,7.84,0,0,0,.38-1l1.9-9h4l-2,9.52a2.84,2.84,0,0,0-.1.46,3.63,3.63,0,0,0,0,.44,1,1,0,0,0,.28.81,1.37,1.37,0,0,0,.87.23,1.6,1.6,0,0,0,.76-.18,2.24,2.24,0,0,0,.64-.51,3.41,3.41,0,0,0,.51-.79,6.28,6.28,0,0,0,.37-1Z"/><path class="cls-5" d="M678.16,279.14q.08,1.82.16,3.15t.14,2.31q.07,1,.12,1.66t.1,1.21c0,.35.05.67.07,1s0,.59,0,.9a4.92,4.92,0,0,1-.25,1.63,4.19,4.19,0,0,1-.68,1.25,4.42,4.42,0,0,1-1,.91,5.9,5.9,0,0,1-1.19.61,6.55,6.55,0,0,1-1.26.33,7.74,7.74,0,0,1-1.22.1,4.74,4.74,0,0,1-1.83-.32,3.82,3.82,0,0,1-1.28-.83,3.26,3.26,0,0,1-.75-1.15,3.61,3.61,0,0,1-.24-1.28,3,3,0,0,1,.13-.91,3.19,3.19,0,0,1,.33-.75,2.62,2.62,0,0,1,.47-.57,2.33,2.33,0,0,1,.55-.38,34.12,34.12,0,0,0,2-4.16q.81-2.06,1.46-4.14ZM670.57,290a2.32,2.32,0,0,0,.39,1.47,1.6,1.6,0,0,0,1.32.49,3.15,3.15,0,0,0,.9-.13,2,2,0,0,0,.78-.44,2.19,2.19,0,0,0,.55-.8,3.21,3.21,0,0,0,.21-1.23c0-.24,0-.47,0-.69s0-.46,0-.71,0-.53-.08-.84l-.11-1.08q-.06-.62-.13-1.42t-.15-1.89a23.82,23.82,0,0,1-1,2.65q-.57,1.28-1.27,2.64a1.51,1.51,0,0,1,.46.38.92.92,0,0,1,.18.59,1.59,1.59,0,0,1-.08.51,1.37,1.37,0,0,1-.25.44,1.24,1.24,0,0,1-.39.31,1.11,1.11,0,0,1-.51.12,1.36,1.36,0,0,1-.44-.07A.53.53,0,0,1,670.57,290Z"/><path class="cls-5" d="M917.12,444l3.8-17.81,4.14-.55-3.36,15.7a2.66,2.66,0,0,0,1.6.56,2.62,2.62,0,0,0,1.56-.52,5.38,5.38,0,0,0,1.32-1.42,10.9,10.9,0,0,0,1.06-2.1,19.54,19.54,0,0,0,.79-2.58,24.51,24.51,0,0,0,.49-2.83,25.68,25.68,0,0,0,.16-2.88,8.75,8.75,0,0,0-.29-2.43,4.43,4.43,0,0,0-.83-1.64,3.21,3.21,0,0,0-1.29-.93,4.54,4.54,0,0,0-1.67-.29,8.79,8.79,0,0,0-2.9.46,6.75,6.75,0,0,0-2.32,1.35,6.24,6.24,0,0,0-1.54,2.14,7,7,0,0,0-.56,2.86,5,5,0,0,0,.06.87,3.74,3.74,0,0,0,.13.53,1.91,1.91,0,0,0,.13.31.41.41,0,0,1,.06.19,3.63,3.63,0,0,1-2.2-.59,2.34,2.34,0,0,1-.79-2,4.94,4.94,0,0,1,.38-1.88,6.59,6.59,0,0,1,1.06-1.74,8.83,8.83,0,0,1,1.64-1.51,11.42,11.42,0,0,1,2.11-1.2,12.71,12.71,0,0,1,2.48-.79,13.27,13.27,0,0,1,2.75-.28,9.09,9.09,0,0,1,2.43.3,6.9,6.9,0,0,1,1.91.84,6,6,0,0,1,1.43,1.29,6.92,6.92,0,0,1,1,1.64,8.94,8.94,0,0,1,.55,1.91,12.14,12.14,0,0,1,.18,2.08,18.3,18.3,0,0,1-.29,3.21,20.2,20.2,0,0,1-.8,3.09,17,17,0,0,1-1.23,2.75,12,12,0,0,1-1.58,2.22,7.27,7.27,0,0,1-1.84,1.48,4.12,4.12,0,0,1-2,.54,4.28,4.28,0,0,1-1.67-.36,6.69,6.69,0,0,1-1.75-1.13l-.23,1.12Z"/><path class="cls-5" d="M948.14,433.36a6.87,6.87,0,0,1-2.12,1.46,11.1,11.1,0,0,1-2.84.86,13.16,13.16,0,0,1-.75,3.5,9.35,9.35,0,0,1-1.47,2.65,6.34,6.34,0,0,1-2,1.68,5.27,5.27,0,0,1-2.43.59,6.46,6.46,0,0,1-1.8-.24,3.63,3.63,0,0,1-1.42-.77,3.54,3.54,0,0,1-.93-1.37,5.55,5.55,0,0,1-.33-2,11.78,11.78,0,0,1,.17-1.87,13.45,13.45,0,0,1,.55-2.15,12.9,12.9,0,0,1,1-2.17,8.33,8.33,0,0,1,1.45-1.89,6.93,6.93,0,0,1,2-1.35,6.08,6.08,0,0,1,2.56-.51q3.6,0,3.6,4.47v0l.13,0h.17a4.33,4.33,0,0,0,1.06-.14,8.76,8.76,0,0,0,1.14-.38,9.76,9.76,0,0,0,1.12-.54q.55-.31,1-.62Zm-7.29,2.41a.84.84,0,0,1-.59-.43,1.68,1.68,0,0,1-.16-.75,1.77,1.77,0,0,1,.24-1,1.43,1.43,0,0,1,.64-.55,5,5,0,0,0-.1-.76,1.63,1.63,0,0,0-.19-.51.7.7,0,0,0-.31-.28,1.17,1.17,0,0,0-.47-.08,1.5,1.5,0,0,0-1,.39,4.61,4.61,0,0,0-.88,1,9.39,9.39,0,0,0-.77,1.47,14.49,14.49,0,0,0-.59,1.7,15.27,15.27,0,0,0-.38,1.73,9.94,9.94,0,0,0-.14,1.55,7,7,0,0,0,.08,1.13,1.76,1.76,0,0,0,.25.69.87.87,0,0,0,.44.35,2.05,2.05,0,0,0,.67.1,1.56,1.56,0,0,0,1-.45,4.66,4.66,0,0,0,1-1.23,9.74,9.74,0,0,0,.77-1.85A13.67,13.67,0,0,0,940.85,435.77Z"/><path class="cls-5" d="M955.75,439a16.11,16.11,0,0,1-1.35,1.91,10.14,10.14,0,0,1-1.71,1.65,8.45,8.45,0,0,1-2.11,1.17,7,7,0,0,1-2.54.44,6,6,0,0,1-1.8-.25,3.57,3.57,0,0,1-1.38-.79,3.46,3.46,0,0,1-.88-1.37,5.93,5.93,0,0,1-.31-2,12.37,12.37,0,0,1,.16-1.87,13.67,13.67,0,0,1,.53-2.17,12.91,12.91,0,0,1,.94-2.17,8.13,8.13,0,0,1,1.42-1.9,6.8,6.8,0,0,1,1.95-1.35,6,6,0,0,1,2.53-.51,4.42,4.42,0,0,1,1.53.23,2.6,2.6,0,0,1,1,.59,2,2,0,0,1,.49.83,3.29,3.29,0,0,1,.14.93,3.06,3.06,0,0,1-.12.9,1.94,1.94,0,0,1-.32.64,1.28,1.28,0,0,1-.48.38,1.39,1.39,0,0,1-.57.12,1.81,1.81,0,0,1-1-.33,4.72,4.72,0,0,0,.34-1.65,1.6,1.6,0,0,0-.19-.83.64.64,0,0,0-.59-.31,1.31,1.31,0,0,0-.87.4,4.8,4.8,0,0,0-.84,1.05,9.94,9.94,0,0,0-.75,1.5,16.11,16.11,0,0,0-.59,1.76,16.45,16.45,0,0,0-.4,1.83,10.88,10.88,0,0,0-.14,1.69,4.37,4.37,0,0,0,.13,1.17,1.64,1.64,0,0,0,.38.72,1.35,1.35,0,0,0,.63.36,3.37,3.37,0,0,0,.88.1,4.91,4.91,0,0,0,1.51-.22,5.3,5.3,0,0,0,1.26-.6,7.12,7.12,0,0,0,1.11-.9q.53-.52,1.06-1.11Z"/><path class="cls-5" d="M969.83,439a11.42,11.42,0,0,1-1.29,2.8,6.58,6.58,0,0,1-1.4,1.56,3.65,3.65,0,0,1-1.35.68,5,5,0,0,1-1.11.15,3.74,3.74,0,0,1-2.64-.83,3.06,3.06,0,0,1-.89-2.36,7.4,7.4,0,0,1,.16-1.46l.23-1.09a3.23,3.23,0,0,0,.09-.53q0-.26,0-.49a1.92,1.92,0,0,0-.22-1,.84.84,0,0,0-.79-.37,2,2,0,0,0-1,.28,7.75,7.75,0,0,0-1.09.76L957.12,444h-4l4.06-19,4.14-.56-2.09,9.86,5.4-4.25h2.78l-5.61,3.9a3.62,3.62,0,0,1,.93-.12,3.31,3.31,0,0,1,1.36.26,2.66,2.66,0,0,1,1,.71,3,3,0,0,1,.57,1,4.25,4.25,0,0,1,.18,1.26c0,.17,0,.35,0,.53a3.23,3.23,0,0,1-.09.54l-.31,1.39a3.45,3.45,0,0,0-.1.45,3,3,0,0,0,0,.45,1.23,1.23,0,0,0,.22.73,1,1,0,0,0,.88.31,1.7,1.7,0,0,0,.79-.18,2,2,0,0,0,.62-.51,3.92,3.92,0,0,0,.5-.79q.23-.46.44-1Z"/><path class="cls-5" d="M979.72,439a16.11,16.11,0,0,1-1.35,1.91,10.14,10.14,0,0,1-1.71,1.65,8.45,8.45,0,0,1-2.11,1.17,7,7,0,0,1-2.54.44,6,6,0,0,1-1.8-.25,3.57,3.57,0,0,1-1.38-.79,3.46,3.46,0,0,1-.88-1.37,5.93,5.93,0,0,1-.31-2,12.24,12.24,0,0,1,.16-1.86,14.21,14.21,0,0,1,.52-2.16,12.16,12.16,0,0,1,.94-2.17,8.53,8.53,0,0,1,1.42-1.91,6.57,6.57,0,0,1,2-1.35,6.08,6.08,0,0,1,2.56-.51,4.4,4.4,0,0,1,1.54.23,2.48,2.48,0,0,1,.94.59,2,2,0,0,1,.48.85,3.89,3.89,0,0,1,.13,1,4.91,4.91,0,0,1-.53,2.26,6,6,0,0,1-1.43,1.83,7.42,7.42,0,0,1-2.06,1.26,7.61,7.61,0,0,1-2.42.56q0,.31,0,.59c0,.19,0,.36,0,.53a4.37,4.37,0,0,0,.13,1.17,1.64,1.64,0,0,0,.38.72,1.35,1.35,0,0,0,.63.36,3.37,3.37,0,0,0,.88.1,4.91,4.91,0,0,0,1.51-.22,5.3,5.3,0,0,0,1.26-.6,7.12,7.12,0,0,0,1.11-.9q.53-.52,1.06-1.11Zm-7.64-2a3.74,3.74,0,0,0,1.53-.45,4.67,4.67,0,0,0,1.3-1,5.15,5.15,0,0,0,.9-1.45,4.41,4.41,0,0,0,.33-1.69,2,2,0,0,0-.15-.83.55.55,0,0,0-.55-.31,1.49,1.49,0,0,0-1,.51,5.88,5.88,0,0,0-1,1.33,11.42,11.42,0,0,0-.8,1.85A16.41,16.41,0,0,0,972.07,437Z"/><path class="cls-5" d="M977,444l3-14h4l-.36,1.74.75-.64a5.74,5.74,0,0,1,.8-.55,4.83,4.83,0,0,1,.87-.39,3,3,0,0,1,1-.15,1.84,1.84,0,0,1,1.45.64,1.92,1.92,0,0,1,.37.67,2.57,2.57,0,0,1,.12.79,2.26,2.26,0,0,1-.12.73,1.89,1.89,0,0,1-.38.65,2,2,0,0,1-.64.47,2,2,0,0,1-.89.18,1.13,1.13,0,0,1-.61-.14.92.92,0,0,1-.32-.34,1.61,1.61,0,0,1-.16-.44c0-.16-.07-.31-.1-.44a1.17,1.17,0,0,0-.14-.34.33.33,0,0,0-.29-.14,1.89,1.89,0,0,0-1.08.29,8.18,8.18,0,0,0-1,.77L981.08,444Z"/><path class="cls-5" d="M561.94,444l3.8-17.81,4.14-.55-3.36,15.7a2.66,2.66,0,0,0,1.6.56,2.62,2.62,0,0,0,1.56-.52A5.38,5.38,0,0,0,571,440a10.9,10.9,0,0,0,1.06-2.1,19.54,19.54,0,0,0,.79-2.58,24.51,24.51,0,0,0,.49-2.83,25.68,25.68,0,0,0,.16-2.88,8.75,8.75,0,0,0-.29-2.43,4.43,4.43,0,0,0-.83-1.64,3.21,3.21,0,0,0-1.29-.93,4.54,4.54,0,0,0-1.67-.29,8.79,8.79,0,0,0-2.9.46,6.75,6.75,0,0,0-2.32,1.35,6.24,6.24,0,0,0-1.54,2.14,7,7,0,0,0-.56,2.86,5,5,0,0,0,.06.87,3.74,3.74,0,0,0,.13.53,1.91,1.91,0,0,0,.13.31.41.41,0,0,1,.06.19,3.63,3.63,0,0,1-2.2-.59,2.34,2.34,0,0,1-.79-2,4.94,4.94,0,0,1,.38-1.88,6.59,6.59,0,0,1,1.06-1.74,8.83,8.83,0,0,1,1.64-1.51,11.42,11.42,0,0,1,2.11-1.2,12.71,12.71,0,0,1,2.48-.79,13.27,13.27,0,0,1,2.75-.28,9.09,9.09,0,0,1,2.43.3,6.9,6.9,0,0,1,1.91.84,6,6,0,0,1,1.43,1.29,6.92,6.92,0,0,1,1,1.64,8.94,8.94,0,0,1,.55,1.91,12.14,12.14,0,0,1,.18,2.08,18.3,18.3,0,0,1-.29,3.21,20.2,20.2,0,0,1-.8,3.09,17,17,0,0,1-1.23,2.75,12,12,0,0,1-1.58,2.22,7.27,7.27,0,0,1-1.84,1.48,4.12,4.12,0,0,1-2,.54,4.28,4.28,0,0,1-1.67-.36,6.69,6.69,0,0,1-1.75-1.13L566,444Z"/><path class="cls-5" d="M588.92,439a16,16,0,0,1-1.35,1.91,10.11,10.11,0,0,1-1.71,1.65,8.44,8.44,0,0,1-2.11,1.17,7,7,0,0,1-2.54.44,6,6,0,0,1-1.8-.25,3.57,3.57,0,0,1-1.38-.79,3.46,3.46,0,0,1-.88-1.37,5.93,5.93,0,0,1-.31-2,12.24,12.24,0,0,1,.16-1.86,14.21,14.21,0,0,1,.52-2.16,12.31,12.31,0,0,1,.94-2.17,8.56,8.56,0,0,1,1.42-1.91,6.58,6.58,0,0,1,2-1.35,6.08,6.08,0,0,1,2.56-.51A4.4,4.4,0,0,1,586,430a2.48,2.48,0,0,1,.94.59,2,2,0,0,1,.48.85,3.85,3.85,0,0,1,.13,1,4.91,4.91,0,0,1-.53,2.26,6,6,0,0,1-1.43,1.83,7.4,7.4,0,0,1-2.06,1.26,7.6,7.6,0,0,1-2.42.56q0,.31,0,.59c0,.19,0,.36,0,.53a4.37,4.37,0,0,0,.13,1.17,1.65,1.65,0,0,0,.38.72,1.36,1.36,0,0,0,.63.36,3.38,3.38,0,0,0,.88.1,4.91,4.91,0,0,0,1.51-.22,5.28,5.28,0,0,0,1.26-.6,7.07,7.07,0,0,0,1.11-.9q.53-.52,1.06-1.11Zm-7.64-2a3.74,3.74,0,0,0,1.53-.45,4.67,4.67,0,0,0,1.3-1,5.13,5.13,0,0,0,.9-1.45,4.39,4.39,0,0,0,.33-1.69,2,2,0,0,0-.15-.83.55.55,0,0,0-.55-.31,1.49,1.49,0,0,0-1,.51,5.88,5.88,0,0,0-1,1.33,11.42,11.42,0,0,0-.8,1.85A16.41,16.41,0,0,0,581.28,437Z"/><path class="cls-5" d="M589.22,430h4l-2,9.52c0,.21-.08.4-.11.57a2.82,2.82,0,0,0,0,.44,1,1,0,0,0,.23.68.93.93,0,0,0,.73.25,2.14,2.14,0,0,0,1.31-.48,5.32,5.32,0,0,0,1.16-1.26,11.19,11.19,0,0,0,1-1.78,17.42,17.42,0,0,0,.75-2,17.86,17.86,0,0,0,.48-2,10.55,10.55,0,0,0,.17-1.76.26.26,0,0,1-.14.12l-.25.09-.27,0H596a.76.76,0,0,1-.44-.13,1.12,1.12,0,0,1-.32-.33,1.51,1.51,0,0,1-.19-.46,2.11,2.11,0,0,1-.06-.5,1.5,1.5,0,0,1,.42-1.09,1.77,1.77,0,0,1,1.32-.43,1.5,1.5,0,0,1,1.38.75,2.45,2.45,0,0,1,.29.78,4.58,4.58,0,0,1,.09.9,17.75,17.75,0,0,1-.19,2.47,18.08,18.08,0,0,1-.61,2.71,17.26,17.26,0,0,1-1.05,2.65,10.16,10.16,0,0,1-1.52,2.27,7.22,7.22,0,0,1-2,1.59,5.45,5.45,0,0,1-2.57.6,3.66,3.66,0,0,1-2.51-.81,3.14,3.14,0,0,1-.92-2.48q0-.23,0-.59a6,6,0,0,1,.11-.76Z"/><path class="cls-5" d="M610.35,425.64a4.48,4.48,0,0,0-1.25,1.2,12.69,12.69,0,0,0-1.16,1.9,21.18,21.18,0,0,0-1,2.37q-.46,1.28-.79,2.6a25.09,25.09,0,0,0-.52,2.6,16.6,16.6,0,0,0-.18,2.36,8.28,8.28,0,0,0,.1,1.31,4.13,4.13,0,0,0,.29,1,1.7,1.7,0,0,0,.5.67,1.18,1.18,0,0,0,.75.24,2.3,2.3,0,0,0,1.42-.55,6.72,6.72,0,0,0,1.36-1.49,13.54,13.54,0,0,0,1.22-2.19,20.36,20.36,0,0,0,1-2.67,24.16,24.16,0,0,0,.65-2.91,18.31,18.31,0,0,0,.24-2.9,14.07,14.07,0,0,0-.14-2.14,3.92,3.92,0,0,0-.54-1.54,2.44,2.44,0,0,0-1.09-.92,4.51,4.51,0,0,0-1.8-.31,9.41,9.41,0,0,0-3.06.5,8,8,0,0,0-2.58,1.44,6.92,6.92,0,0,0-1.77,2.27,6.7,6.7,0,0,0-.66,3,3.67,3.67,0,0,0,0,.66,4,4,0,0,0,.1.41,1.66,1.66,0,0,0,.1.25.4.4,0,0,1,0,.18,3.54,3.54,0,0,1-2.08-.53,2.08,2.08,0,0,1-.75-1.82,4.66,4.66,0,0,1,.42-1.93,7,7,0,0,1,1.19-1.8,10.08,10.08,0,0,1,1.81-1.57,12.48,12.48,0,0,1,2.3-1.24,15,15,0,0,1,2.67-.81A14.06,14.06,0,0,1,610,423a8,8,0,0,1,3.11.53,5.2,5.2,0,0,1,2,1.48,5.9,5.9,0,0,1,1.13,2.27,11.25,11.25,0,0,1,.35,2.88,18.91,18.91,0,0,1-1,6,17.73,17.73,0,0,1-1.37,3,11.24,11.24,0,0,1-2,2.54,9.24,9.24,0,0,1-2.62,1.76,8,8,0,0,1-3.31.66,6.47,6.47,0,0,1-2-.3,4,4,0,0,1-1.59-1,4.48,4.48,0,0,1-1-1.74,8.06,8.06,0,0,1-.37-2.6,17.33,17.33,0,0,1,.21-2.55,22,22,0,0,1,.64-2.87,21,21,0,0,1,1.06-2.85,12.33,12.33,0,0,1,1.48-2.47,7.3,7.3,0,0,1,1.89-1.74,4.28,4.28,0,0,1,2.31-.66,6.2,6.2,0,0,1,.71,0A3.13,3.13,0,0,1,610.35,425.64Z"/><path class="cls-5" d="M613.71,451l4.68-22h4l-.45,2.11a5.57,5.57,0,0,1,1.41-.86,4.67,4.67,0,0,1,1.86-.34,3.94,3.94,0,0,1,1.34.23,2.63,2.63,0,0,1,1.09.74,3.67,3.67,0,0,1,.72,1.36,7.06,7.06,0,0,1,.27,2.09,17.65,17.65,0,0,1-.13,2,14.07,14.07,0,0,1-.44,2.2,12.12,12.12,0,0,1-.83,2.12,7.12,7.12,0,0,1-1.28,1.8,5.93,5.93,0,0,1-1.81,1.25,5.78,5.78,0,0,1-2.4.47,4.63,4.63,0,0,1-.93-.08,2.89,2.89,0,0,1-.68-.22,1.69,1.69,0,0,1-.46-.32,2.26,2.26,0,0,1-.31-.38L617.93,450Zm6.13-9.91a1,1,0,0,0,.33.44,1.14,1.14,0,0,0,.73.21,2.34,2.34,0,0,0,1.31-.38,3.76,3.76,0,0,0,1-1,6.45,6.45,0,0,0,.74-1.42,12.51,12.51,0,0,0,.49-1.63,14.52,14.52,0,0,0,.28-1.65,13.82,13.82,0,0,0,.09-1.47,4.3,4.3,0,0,0-.15-1.27,1.93,1.93,0,0,0-.36-.7.93.93,0,0,0-.46-.29,1.61,1.61,0,0,0-1.44.29,3,3,0,0,0-.92,1Z"/><path class="cls-5" d="M636.88,429.14q.08,1.82.16,3.15t.14,2.31q.07,1,.12,1.66t.1,1.21q0,.53.07,1t0,.9a4.89,4.89,0,0,1-.25,1.63,4.19,4.19,0,0,1-.68,1.25,4.42,4.42,0,0,1-1,.91,5.85,5.85,0,0,1-1.19.61,6.54,6.54,0,0,1-1.26.33,7.74,7.74,0,0,1-1.22.1,4.74,4.74,0,0,1-1.83-.32,3.83,3.83,0,0,1-1.28-.83,3.27,3.27,0,0,1-.75-1.15,3.61,3.61,0,0,1-.24-1.28,3.07,3.07,0,0,1,.13-.91,3.19,3.19,0,0,1,.33-.75,2.62,2.62,0,0,1,.47-.57,2.33,2.33,0,0,1,.55-.38,34,34,0,0,0,2-4.16q.81-2.06,1.46-4.14ZM629.29,440a2.32,2.32,0,0,0,.39,1.47,1.6,1.6,0,0,0,1.32.49,3.15,3.15,0,0,0,.9-.13,2,2,0,0,0,.78-.44,2.19,2.19,0,0,0,.55-.8,3.21,3.21,0,0,0,.21-1.23c0-.24,0-.47,0-.69s0-.46,0-.71,0-.53-.08-.84l-.11-1.08q-.06-.62-.13-1.42t-.15-1.89a23.63,23.63,0,0,1-1,2.65q-.57,1.28-1.27,2.64a1.5,1.5,0,0,1,.46.38.92.92,0,0,1,.18.59,1.59,1.59,0,0,1-.08.51,1.37,1.37,0,0,1-.25.44,1.24,1.24,0,0,1-.39.31,1.11,1.11,0,0,1-.51.12,1.36,1.36,0,0,1-.44-.07A.54.54,0,0,1,629.29,440Z"/><path class="cls-5" d="M229.12,444l4-19a6.25,6.25,0,0,0-2.88,2.33,6.76,6.76,0,0,0-1,3.81,5,5,0,0,0,.06.87,3.74,3.74,0,0,0,.13.53,2,2,0,0,0,.13.31.41.41,0,0,1,.06.19,5.2,5.2,0,0,1-1.29-.14,2.33,2.33,0,0,1-.94-.46,2,2,0,0,1-.57-.83,3.62,3.62,0,0,1-.2-1.29,4.45,4.45,0,0,1,.4-1.83,6.83,6.83,0,0,1,1.11-1.71,9.69,9.69,0,0,1,1.65-1.49,12.2,12.2,0,0,1,4.31-2,10.21,10.21,0,0,1,2.36-.28h.58l.54,0-1.82,8.57.79-1.05,1-1.29,1.05-1.4,1-1.41,1-1.3.8-1.07.75-1h2.94l-7.78,9h1a5.39,5.39,0,0,1,1.7.23,2.66,2.66,0,0,1,1.07.63,2.21,2.21,0,0,1,.55,1,4.3,4.3,0,0,1,.16,1.19,8.58,8.58,0,0,1-.21,1.84q-.21,1-.47,1.91t-.47,1.8a6.48,6.48,0,0,0-.21,1.53,2.23,2.23,0,0,0,.29,1.16,1.55,1.55,0,0,0,.8.69,13.76,13.76,0,0,1-1.59.37,7.63,7.63,0,0,1-1.19.11,3,3,0,0,1-1.11-.17,1.75,1.75,0,0,1-.66-.44,1.44,1.44,0,0,1-.33-.6,2.57,2.57,0,0,1-.09-.66,6.94,6.94,0,0,1,.23-1.65q.23-.94.51-1.94t.51-2a7.86,7.86,0,0,0,.23-1.79,3.14,3.14,0,0,0-.09-.77,1.68,1.68,0,0,0-.28-.6,1.22,1.22,0,0,0-.52-.39,2.07,2.07,0,0,0-.79-.14l-.43,0a2.91,2.91,0,0,0-.5.09L233.14,444Z"/><path class="cls-5" d="M258,439a12.62,12.62,0,0,1-.86,2,8.35,8.35,0,0,1-1,1.41,5.46,5.46,0,0,1-1,.93,5.05,5.05,0,0,1-1,.55,4.45,4.45,0,0,1-.94.26,5.47,5.47,0,0,1-.82.07,2.69,2.69,0,0,1-1.91-.66,3.1,3.1,0,0,1-.86-2,7,7,0,0,1-1.08,1.38,5.1,5.1,0,0,1-1.08.81,3.48,3.48,0,0,1-1,.38,5.44,5.44,0,0,1-.94.09,3.52,3.52,0,0,1-1.18-.19,2.45,2.45,0,0,1-1-.6,2.88,2.88,0,0,1-.64-1,4.39,4.39,0,0,1-.23-1.52,7.21,7.21,0,0,1,.05-.84q.05-.46.16-1l1.9-9h4l-2,9.52a4.34,4.34,0,0,0-.08.79,1.71,1.71,0,0,0,.18.81.67.67,0,0,0,.66.33,1.56,1.56,0,0,0,.75-.18,2.19,2.19,0,0,0,.62-.51,3.42,3.42,0,0,0,.49-.79,7.92,7.92,0,0,0,.38-1l1.9-9h4l-2,9.52a2.78,2.78,0,0,0-.1.46,3.63,3.63,0,0,0,0,.44,1,1,0,0,0,.28.81,1.37,1.37,0,0,0,.87.23,1.6,1.6,0,0,0,.76-.18,2.24,2.24,0,0,0,.64-.51,3.43,3.43,0,0,0,.51-.79,6.28,6.28,0,0,0,.37-1Z"/><path class="cls-5" d="M259.15,425l4.14-.56L262,430.7a7.85,7.85,0,0,1,.76-.42,4.51,4.51,0,0,1,.61-.24,2.56,2.56,0,0,1,.5-.1l.43,0a3.56,3.56,0,0,1,1.35.25,2.5,2.5,0,0,1,1,.81,4.11,4.11,0,0,1,.68,1.48,9,9,0,0,1,.24,2.24,12.2,12.2,0,0,1-.16,1.84,12.42,12.42,0,0,1-.51,2.07,10.94,10.94,0,0,1-.94,2.05,7.74,7.74,0,0,1-1.44,1.78,6.65,6.65,0,0,1-2,1.25,6.9,6.9,0,0,1-2.64.47,4.08,4.08,0,0,1-2.93-.94,3.48,3.48,0,0,1-1-2.64,7.89,7.89,0,0,1,0-.8,4.88,4.88,0,0,1,.15-.8Zm.9,14.56a2.89,2.89,0,0,0-.08.64q0,1.3,1.48,1.3a1.47,1.47,0,0,0,.88-.31,3.49,3.49,0,0,0,.79-.82,6.8,6.8,0,0,0,.66-1.2,11.18,11.18,0,0,0,.51-1.45,12.57,12.57,0,0,0,.33-1.55,10.6,10.6,0,0,0,.12-1.53,5.51,5.51,0,0,0-.09-1,3.42,3.42,0,0,0-.27-.87,1.73,1.73,0,0,0-.46-.61,1,1,0,0,0-.66-.23l-.38,0a3.09,3.09,0,0,0-.48.08,2.73,2.73,0,0,0-.46.16.89.89,0,0,0-.33.25Z"/><path class="cls-5" d="M279.65,439a16.06,16.06,0,0,1-1.35,1.91,10.13,10.13,0,0,1-1.71,1.65,8.45,8.45,0,0,1-2.11,1.17,7,7,0,0,1-2.54.44,6,6,0,0,1-1.8-.25,3.57,3.57,0,0,1-1.38-.79,3.46,3.46,0,0,1-.88-1.37,5.93,5.93,0,0,1-.31-2,12.24,12.24,0,0,1,.16-1.86,14.21,14.21,0,0,1,.52-2.16,12.24,12.24,0,0,1,.94-2.17,8.55,8.55,0,0,1,1.42-1.91,6.57,6.57,0,0,1,2-1.35,6.08,6.08,0,0,1,2.56-.51,4.4,4.4,0,0,1,1.54.23,2.48,2.48,0,0,1,.94.59,2,2,0,0,1,.48.85,3.87,3.87,0,0,1,.13,1,4.91,4.91,0,0,1-.53,2.26,6,6,0,0,1-1.43,1.83,7.41,7.41,0,0,1-2.06,1.26,7.61,7.61,0,0,1-2.42.56q0,.31,0,.59c0,.19,0,.36,0,.53a4.37,4.37,0,0,0,.13,1.17,1.65,1.65,0,0,0,.38.72,1.36,1.36,0,0,0,.63.36,3.37,3.37,0,0,0,.88.1,4.91,4.91,0,0,0,1.51-.22,5.29,5.29,0,0,0,1.26-.6,7.09,7.09,0,0,0,1.11-.9q.53-.52,1.06-1.11ZM272,437a3.74,3.74,0,0,0,1.53-.45,4.67,4.67,0,0,0,1.3-1,5.14,5.14,0,0,0,.9-1.45,4.4,4.4,0,0,0,.33-1.69,2,2,0,0,0-.15-.83.55.55,0,0,0-.55-.31,1.49,1.49,0,0,0-1,.51,5.88,5.88,0,0,0-1,1.33,11.42,11.42,0,0,0-.8,1.85A16.41,16.41,0,0,0,272,437Z"/><path class="cls-5" d="M277,444l3-14h4l-.36,1.74.75-.64a5.74,5.74,0,0,1,.8-.55,4.81,4.81,0,0,1,.87-.39,3,3,0,0,1,1-.15,1.84,1.84,0,0,1,1.45.64,1.92,1.92,0,0,1,.37.67,2.57,2.57,0,0,1,.12.79,2.26,2.26,0,0,1-.12.73,1.9,1.9,0,0,1-.38.65,2,2,0,0,1-.64.47,2,2,0,0,1-.89.18,1.13,1.13,0,0,1-.61-.14.91.91,0,0,1-.32-.34,1.6,1.6,0,0,1-.16-.44c0-.16-.07-.31-.1-.44a1.19,1.19,0,0,0-.14-.34.33.33,0,0,0-.29-.14,1.89,1.89,0,0,0-1.08.29,8.14,8.14,0,0,0-1,.77L281,444Z"/><path class="cls-5" d="M303.24,439a12.23,12.23,0,0,1-1.26,2.75,6.56,6.56,0,0,1-1.37,1.57,3.65,3.65,0,0,1-1.35.7,5.12,5.12,0,0,1-1.22.16,4,4,0,0,1-1.56-.27,2.7,2.7,0,0,1-1-.71,2.74,2.74,0,0,1-.55-1,4,4,0,0,1-.17-1.17,8.27,8.27,0,0,1,.2-1.66q.2-1,.43-1.95t.43-1.93a7.87,7.87,0,0,0,.2-1.6q0-1.44-1-1.44a1.32,1.32,0,0,0-.71.21,2.36,2.36,0,0,0-.6.55,4.13,4.13,0,0,0-.49.82,7.9,7.9,0,0,0-.38,1l-1.9,9h-4l3-14h4l-.3,1.45a5.16,5.16,0,0,1,.9-.81,4.19,4.19,0,0,1,.87-.47,3.68,3.68,0,0,1,.8-.22,5,5,0,0,1,.7-.05,4.2,4.2,0,0,1,1.24.18,2.47,2.47,0,0,1,1.64,1.54,4,4,0,0,1,.23,1.44,7.78,7.78,0,0,1-.1,1.21q-.1.65-.25,1.33t-.32,1.35q-.17.67-.32,1.29t-.25,1.14a4.9,4.9,0,0,0-.1.92,1.4,1.4,0,0,0,.24.85,1,1,0,0,0,.88.33,1.7,1.7,0,0,0,.79-.18,2,2,0,0,0,.62-.51,3.94,3.94,0,0,0,.5-.79q.23-.46.44-1Z"/><path class="cls-5" d="M313.13,439a16.06,16.06,0,0,1-1.35,1.91,10.13,10.13,0,0,1-1.71,1.65,8.45,8.45,0,0,1-2.11,1.17,7,7,0,0,1-2.54.44,6,6,0,0,1-1.8-.25,3.57,3.57,0,0,1-1.38-.79,3.46,3.46,0,0,1-.88-1.37,5.93,5.93,0,0,1-.31-2,12.24,12.24,0,0,1,.16-1.86,14.21,14.21,0,0,1,.52-2.16,12.24,12.24,0,0,1,.94-2.17,8.55,8.55,0,0,1,1.42-1.91,6.57,6.57,0,0,1,2-1.35,6.08,6.08,0,0,1,2.56-.51,4.4,4.4,0,0,1,1.54.23,2.48,2.48,0,0,1,.94.59,2,2,0,0,1,.48.85,3.87,3.87,0,0,1,.13,1,4.91,4.91,0,0,1-.53,2.26,6,6,0,0,1-1.43,1.83,7.41,7.41,0,0,1-2.06,1.26,7.61,7.61,0,0,1-2.42.56q0,.31,0,.59c0,.19,0,.36,0,.53a4.37,4.37,0,0,0,.13,1.17,1.65,1.65,0,0,0,.38.72,1.36,1.36,0,0,0,.63.36,3.37,3.37,0,0,0,.88.1,4.91,4.91,0,0,0,1.51-.22A5.29,5.29,0,0,0,310,441a7.09,7.09,0,0,0,1.11-.9q.53-.52,1.06-1.11Zm-7.64-2a3.74,3.74,0,0,0,1.53-.45,4.67,4.67,0,0,0,1.3-1,5.14,5.14,0,0,0,.9-1.45,4.4,4.4,0,0,0,.33-1.69,2,2,0,0,0-.15-.83.55.55,0,0,0-.55-.31,1.49,1.49,0,0,0-1,.51,5.88,5.88,0,0,0-1,1.33,11.42,11.42,0,0,0-.8,1.85A16.41,16.41,0,0,0,305.48,437Z"/><path class="cls-5" d="M320.18,439a11.42,11.42,0,0,1-.88,2,8.17,8.17,0,0,1-1,1.41,5.5,5.5,0,0,1-2.15,1.48,4.92,4.92,0,0,1-1,.26,5.88,5.88,0,0,1-.84.07,3.52,3.52,0,0,1-1.18-.19,2.45,2.45,0,0,1-1-.6,2.88,2.88,0,0,1-.64-1,4.39,4.39,0,0,1-.23-1.52,7.21,7.21,0,0,1,.05-.84q.05-.46.16-1l1.68-7.86h-.93l.23-1.12h.92l.85-3.87,4.14-.56-1,4.43h1.68l-.22,1.12h-1.68l-1.79,8.39a2.37,2.37,0,0,0-.09.46c0,.15,0,.3,0,.44a1,1,0,0,0,.27.81,1.34,1.34,0,0,0,.86.23,1.85,1.85,0,0,0,.8-.18,2.57,2.57,0,0,0,.72-.51,3.65,3.65,0,0,0,.59-.79,5,5,0,0,0,.42-1Z"/><path class="cls-5" d="M330.06,439a16.06,16.06,0,0,1-1.35,1.91,10.13,10.13,0,0,1-1.71,1.65,8.45,8.45,0,0,1-2.11,1.17,7,7,0,0,1-2.54.44,6,6,0,0,1-1.8-.25,3.57,3.57,0,0,1-1.38-.79,3.46,3.46,0,0,1-.88-1.37,5.93,5.93,0,0,1-.31-2,12.24,12.24,0,0,1,.16-1.86,14.21,14.21,0,0,1,.52-2.16,12.24,12.24,0,0,1,.94-2.17,8.55,8.55,0,0,1,1.42-1.91,6.57,6.57,0,0,1,2-1.35,6.08,6.08,0,0,1,2.56-.51,4.4,4.4,0,0,1,1.54.23,2.48,2.48,0,0,1,.94.59,2,2,0,0,1,.48.85,3.87,3.87,0,0,1,.13,1,4.91,4.91,0,0,1-.53,2.26,6,6,0,0,1-1.43,1.83,7.41,7.41,0,0,1-2.06,1.26,7.61,7.61,0,0,1-2.42.56q0,.31,0,.59c0,.19,0,.36,0,.53a4.37,4.37,0,0,0,.13,1.17,1.65,1.65,0,0,0,.38.72,1.36,1.36,0,0,0,.63.36,3.37,3.37,0,0,0,.88.1,4.91,4.91,0,0,0,1.51-.22,5.29,5.29,0,0,0,1.26-.6,7.09,7.09,0,0,0,1.11-.9q.53-.52,1.06-1.11Zm-7.64-2a3.74,3.74,0,0,0,1.53-.45,4.67,4.67,0,0,0,1.3-1,5.14,5.14,0,0,0,.9-1.45,4.4,4.4,0,0,0,.33-1.69,2,2,0,0,0-.15-.83.55.55,0,0,0-.55-.31,1.49,1.49,0,0,0-1,.51,5.88,5.88,0,0,0-1,1.33,11.42,11.42,0,0,0-.8,1.85A16.41,16.41,0,0,0,322.42,437Z"/><path class="cls-5" d="M336.64,429.14q.08,1.82.16,3.15t.14,2.31q.07,1,.12,1.66t.1,1.21q0,.53.07,1t0,.9A4.91,4.91,0,0,1,337,441a4.19,4.19,0,0,1-.68,1.25,4.42,4.42,0,0,1-1,.91,5.87,5.87,0,0,1-1.19.61,6.54,6.54,0,0,1-1.26.33,7.74,7.74,0,0,1-1.22.1,4.74,4.74,0,0,1-1.83-.32,3.83,3.83,0,0,1-1.28-.83,3.27,3.27,0,0,1-.75-1.15,3.61,3.61,0,0,1-.24-1.28,3.05,3.05,0,0,1,.13-.91,3.19,3.19,0,0,1,.33-.75,2.62,2.62,0,0,1,.47-.57A2.33,2.33,0,0,1,329,438a34,34,0,0,0,2-4.16q.81-2.06,1.46-4.14ZM329,440a2.32,2.32,0,0,0,.39,1.47,1.6,1.6,0,0,0,1.32.49,3.15,3.15,0,0,0,.9-.13,2,2,0,0,0,.78-.44,2.19,2.19,0,0,0,.55-.8,3.21,3.21,0,0,0,.21-1.23c0-.24,0-.47,0-.69s0-.46,0-.71,0-.53-.08-.84l-.11-1.08q-.06-.62-.13-1.42t-.15-1.89a23.72,23.72,0,0,1-1,2.65q-.57,1.28-1.27,2.64a1.5,1.5,0,0,1,.46.38.92.92,0,0,1,.18.59,1.59,1.59,0,0,1-.08.51,1.37,1.37,0,0,1-.25.44,1.24,1.24,0,0,1-.39.31,1.11,1.11,0,0,1-.51.12,1.36,1.36,0,0,1-.44-.07A.53.53,0,0,1,329,440Z"/><path class="cls-4" d="M166.8,473.18c-4.79,0-9.58,0-14.37,0a5.87,5.87,0,0,1-5-2.31c-6.1-7.62-12.25-15.19-18.36-22.81a5.2,5.2,0,0,1-1.09-4.66c2.16-9.25,4.32-18.51,6.39-27.78a6.55,6.55,0,0,1,3.89-4.94c8.56-4,17.07-8.08,25.57-12.2a6,6,0,0,1,5.62,0c8.78,4.24,17.59,8.4,26.39,12.6a5.07,5.07,0,0,1,2.9,3.59q3.38,14.6,6.75,29.2a5.11,5.11,0,0,1-1.32,4.44c-5.92,7.37-11.87,14.71-17.75,22.12a6.9,6.9,0,0,1-6,2.82C175.89,473.1,171.34,473.18,166.8,473.18Zm-21.12-36c.23,2.7-.16,3.25-2.47,3.65-1,.17-2,.16-2.92.32-1.16.19-2.3.66-2,2.09s1.56,1.4,2.69,1.08,2.07-.75,3.12-1.1a2.33,2.33,0,0,1,3.21,1.47,20.06,20.06,0,0,0,7.44,9.28,2.25,2.25,0,0,1,.73,3.33c-.56,1-1.27,2-1.83,3s-.8,2.24.56,2.81,1.94-.38,2.36-1.43.73-2.35,1.26-3.45a2.14,2.14,0,0,1,2.92-1.35,19.42,19.42,0,0,0,12.13,0,2,2,0,0,1,2.77,1.29c.53,1.1.82,2.31,1.26,3.45s1.17,2.07,2.49,1.42,1-1.72.47-2.71-1.34-2.06-1.91-3.14a2.11,2.11,0,0,1,.74-3.13,19.79,19.79,0,0,0,7.5-9.33,2.3,2.3,0,0,1,3.21-1.51c1,.35,2.06.81,3.11,1.11s2.38.31,2.66-1.11-.82-1.9-2-2.06-2.34-.18-3.47-.44c-1.35-.31-2.22-1-2-2.68.37-3-.39-5.83-1.25-8.67-.49-1.63-2.29-2.85-1.7-4.76s2.6-2.29,4-3.31c1-.75,1.59-1.72.7-2.79s-1.9-.52-2.74.24-1.63,1.67-2.49,2.45c-1.13,1-2.16,1.23-3.47,0a19.13,19.13,0,0,0-10.62-5.09,2.19,2.19,0,0,1-2.14-2.6c0-1.16.28-2.31.39-3.47s-.25-2.37-1.64-2.39-1.75,1.14-1.66,2.36.37,2.43.36,3.65-.38,2.22-1.93,2.41a19.6,19.6,0,0,0-11.11,5.31,1.94,1.94,0,0,1-2.9.07c-1-.82-1.84-1.8-2.79-2.67s-1.87-1.28-2.73-.24-.33,2.07.72,2.78c.86.58,1.8,1.06,2.64,1.68,1.33,1,2,2,.92,3.81A19.83,19.83,0,0,0,145.67,437.2Z"/><path class="cls-6" d="M145.67,437.2a19.83,19.83,0,0,1,2.6-10.4c1.08-1.79.41-2.82-.92-3.81-.83-.62-1.77-1.1-2.64-1.68-1-.7-1.62-1.69-.72-2.78s1.89-.54,2.73.24,1.8,1.85,2.79,2.67a1.94,1.94,0,0,0,2.9-.07,19.6,19.6,0,0,1,11.11-5.31c1.55-.19,1.92-1.2,1.93-2.41s-.27-2.43-.36-3.65.24-2.38,1.66-2.36,1.75,1.16,1.64,2.39-.34,2.31-.39,3.47a2.19,2.19,0,0,0,2.14,2.6,19.13,19.13,0,0,1,10.62,5.09c1.31,1.22,2.34,1,3.47,0,.86-.78,1.63-1.66,2.49-2.45s1.87-1.28,2.74-.24.33,2-.7,2.79c-1.41,1-3.42,1.41-4,3.31s1.21,3.13,1.7,4.76c.86,2.84,1.62,5.7,1.25,8.67-.21,1.73.65,2.37,2,2.68,1.13.26,2.31.28,3.47.44s2.3.66,2,2.06-1.51,1.45-2.66,1.11-2.07-.76-3.11-1.11a2.3,2.3,0,0,0-3.21,1.51,19.79,19.79,0,0,1-7.5,9.33,2.11,2.11,0,0,0-.74,3.13c.57,1.08,1.32,2.07,1.91,3.14s.73,2.13-.47,2.71-2.05-.3-2.49-1.42-.73-2.35-1.26-3.45a2,2,0,0,0-2.77-1.29,19.42,19.42,0,0,1-12.13,0,2.14,2.14,0,0,0-2.92,1.35c-.53,1.1-.81,2.31-1.26,3.45s-1.13,2-2.36,1.43-1.13-1.76-.56-2.81,1.27-2,1.83-3a2.25,2.25,0,0,0-.73-3.33,20.06,20.06,0,0,1-7.44-9.28,2.33,2.33,0,0,0-3.21-1.47c-1,.35-2.06.8-3.12,1.1s-2.37.36-2.69-1.08.83-1.9,2-2.09c1-.16,2-.16,2.92-.32C145.51,440.44,145.9,439.9,145.67,437.2Zm28.84,3.94c-1.76-.09-2.38.62-1.83,2.08.87,2.29,1.85,4.54,2.76,6.81.29.72.64.74,1.21.3a17.38,17.38,0,0,0,5.46-6.83c.36-.79.14-1.11-.66-1.24C179.1,441.9,176.74,441.5,174.52,441.14Zm-9.94-19.35c.3-1.36,0-1.7-1.37-1.39a17.92,17.92,0,0,0-7.34,3.59c-.62.5-.91.84,0,1.44,1.95,1.26,3.79,2.7,5.71,4,1.54,1,2.53.53,2.66-1.35C164.4,425.93,164.47,423.79,164.57,421.78Zm13.84,3a16.67,16.67,0,0,0-9.6-4.6c.15,2.82.22,5.57.45,8.3.12,1.43,1.22,1.82,2.55.93C174,428,176.12,426.42,178.41,424.8Zm5.18,12.2a21.07,21.07,0,0,0-1.88-7.75c-.55-1.17-1-1.08-1.81-.27-1.54,1.49-3.19,2.85-4.77,4.29s-1.18,2.41.72,3,3.91,1,5.8,1.69C183.23,438.5,183.84,438.17,183.59,437Zm-16.35,16.58c.79-.12,2.05-.35,3.33-.49s1.29-.8.83-1.65c-1.1-2.05-2.19-4.12-3.42-6.1-.78-1.26-1.73-1.18-2.56.1-.63,1-1.15,2-1.73,3C161.12,453,161.48,453.56,167.24,453.58Zm-17.33-17.23c.58.44-.87,2.17.95,1.81a57.26,57.26,0,0,0,7.42-2.12c1.2-.41,1.33-1.44.42-2.31-1.75-1.68-3.61-3.24-5.36-4.92-.82-.78-1.14-.45-1.56.37A19.43,19.43,0,0,0,149.91,436.34Zm9.46,4.75-7.44,1.25c-.73.12-.83.53-.53,1.17a17.58,17.58,0,0,0,5.48,6.79c.58.44.91.37,1.19-.35.9-2.28,1.89-4.51,2.76-6.8C161.33,441.85,160.68,441.2,159.36,441.09Zm7.41-7a2.75,2.75,0,0,0-2.82,2.43,3.36,3.36,0,0,0,2.74,3.11c1.3,0,2.75-1.51,2.81-3A2.69,2.69,0,0,0,166.77,434.13Z"/><path class="cls-4" d="M174.52,441.14c2.22.36,4.58.76,6.94,1.13.81.13,1,.45.66,1.24a17.38,17.38,0,0,1-5.46,6.83c-.58.43-.93.42-1.21-.3-.91-2.28-1.89-4.52-2.76-6.81C172.13,441.75,172.76,441,174.52,441.14Z"/><path class="cls-4" d="M164.57,421.78c-.1,2-.18,4.15-.33,6.28-.13,1.88-1.12,2.39-2.66,1.35-1.93-1.3-3.77-2.73-5.71-4-.92-.6-.63-.94,0-1.44a17.92,17.92,0,0,1,7.34-3.59C164.56,420.08,164.87,420.42,164.57,421.78Z"/><path class="cls-4" d="M178.41,424.8c-2.29,1.62-4.42,3.17-6.59,4.63-1.33.89-2.42.5-2.55-.93-.23-2.73-.31-5.48-.45-8.3A16.67,16.67,0,0,1,178.41,424.8Z"/><path class="cls-4" d="M183.59,437c.25,1.17-.36,1.5-1.94.94-1.89-.67-3.87-1.11-5.8-1.69s-2.17-1.68-.72-3,3.23-2.81,4.77-4.29c.83-.8,1.26-.9,1.81.27A21.07,21.07,0,0,1,183.59,437Z"/><path class="cls-4" d="M167.24,453.58c-5.76,0-6.12-.62-3.55-5.1.58-1,1.1-2.06,1.73-3,.83-1.29,1.78-1.36,2.56-.1,1.23,2,2.32,4,3.42,6.1.45.85.34,1.51-.83,1.65S168,453.46,167.24,453.58Z"/><path class="cls-4" d="M149.91,436.34a19.43,19.43,0,0,1,1.87-7.18c.42-.82.74-1.15,1.56-.37,1.75,1.68,3.61,3.24,5.36,4.92.91.87.78,1.9-.42,2.31a57.26,57.26,0,0,1-7.42,2.12C149,438.51,150.49,436.79,149.91,436.34Z"/><path class="cls-4" d="M159.36,441.09c1.31.1,2,.75,1.46,2.06-.87,2.29-1.86,4.52-2.76,6.8-.28.72-.61.79-1.19.35a17.58,17.58,0,0,1-5.48-6.79c-.3-.65-.2-1,.53-1.17Z"/><path class="cls-4" d="M166.77,434.13a2.69,2.69,0,0,1,2.72,2.51c-.07,1.51-1.51,3.06-2.81,3a3.36,3.36,0,0,1-2.74-3.11A2.75,2.75,0,0,1,166.77,434.13Z"/><path class="cls-4" d="M139.39,242.43h23.83c8.28,0,16.57-.16,24.85,0,10.57.26,17.55,7.23,17.68,17.73q.25,20.07,0,40.14c-.11,10.61-6.85,17.71-17.46,17.93q-22,.44-44,0c-10.66-.21-17.34-7.25-17.44-17.89-.13-13.38-.06-26.76,0-40.14a64.86,64.86,0,0,1,.83-6.9c6.12,4.46,10.38,8.37,9.73,16.29-.8,9.7-.26,19.52-.16,29.29.08,7.2,2.42,9.71,9.51,9.79q19.43.22,38.86,0c7.08-.08,10.15-3.18,10.13-10.13q0-17.84-.44-35.67c-.19-8.1-3.19-10.9-11.46-11-9.13-.09-18.3-.53-27.38.14C149,252.62,143.9,250,139.39,242.43Z"/><path class="cls-4" d="M156.89,271.2H142.94l2.5-4.15-23.29-23.36-4.09,2.73V232.51h13.88c-3.39,3.39-2.3,5.8.8,8.69,6.52,6.07,12.53,12.67,19,19.27l5.18-3.39Z"/><path class="cls-4" d="M179.71,282.8c11.16,0,11.16,0,11.16,11.24,0,10.83,0,10.83-11.59,10.82-10.54,0-10.54,0-10.53-11.88C168.76,282.8,168.76,282.8,179.71,282.8Z"/><path class="cls-4" d="M190.87,266.87c0,11.09,0,11.09-11.38,11.09-10.74,0-10.74,0-10.74-11.73,0-10.43,0-10.43,11.38-10.42C190.87,255.81,190.87,255.81,190.87,266.87Z"/><path class="cls-4" d="M152.77,304.87c-11.09,0-11.09,0-11.08-11.36,0-10.7,0-10.7,11.1-10.7s11.11,0,11.1,11.35C163.88,304.86,163.88,304.86,152.77,304.87Z"/><path class="cls-7" d="M55.07,66.23a156,156,0,0,1-.36-17,77,77,0,0,1,2.16-16.86,21.77,21.77,0,0,1,3.65-7.87,8.5,8.5,0,0,1,3.62-2.67,7.9,7.9,0,0,1,4.45-.17A19.65,19.65,0,0,1,76,25.79a54.71,54.71,0,0,1,6,5.83,54.46,54.46,0,0,0-6.34-5.43,19,19,0,0,0-7.33-3.52,6.77,6.77,0,0,0-3.8.36,7.13,7.13,0,0,0-2.89,2.42,20.16,20.16,0,0,0-2.89,7.42,74.67,74.67,0,0,0-1.11,16.41A152.77,152.77,0,0,0,59,65.77Z"/><path class="cls-7" d="M95.07,66.23a156,156,0,0,1-.36-17,77,77,0,0,1,2.16-16.86,21.77,21.77,0,0,1,3.65-7.87,8.5,8.5,0,0,1,3.62-2.67,7.9,7.9,0,0,1,4.45-.17,19.65,19.65,0,0,1,7.43,4.1,54.71,54.71,0,0,1,6,5.83,54.46,54.46,0,0,0-6.34-5.43,19,19,0,0,0-7.33-3.52,6.77,6.77,0,0,0-3.8.36,7.13,7.13,0,0,0-2.89,2.42,20.16,20.16,0,0,0-2.89,7.42,74.67,74.67,0,0,0-1.11,16.41A152.77,152.77,0,0,0,99,65.77Z"/><path class="cls-7" d="M135.07,66.23a156,156,0,0,1-.36-17,77,77,0,0,1,2.16-16.86,21.77,21.77,0,0,1,3.65-7.87,8.5,8.5,0,0,1,3.62-2.67,7.9,7.9,0,0,1,4.45-.17,19.65,19.65,0,0,1,7.43,4.1,54.71,54.71,0,0,1,6,5.83,54.46,54.46,0,0,0-6.34-5.43,19,19,0,0,0-7.33-3.52,6.77,6.77,0,0,0-3.8.36,7.13,7.13,0,0,0-2.89,2.42,20.16,20.16,0,0,0-2.89,7.42,74.67,74.67,0,0,0-1.11,16.41A152.77,152.77,0,0,0,139,65.77Z"/><path class="cls-7" d="M175.07,66.23a156,156,0,0,1-.36-17,77,77,0,0,1,2.16-16.86,21.77,21.77,0,0,1,3.65-7.87,8.5,8.5,0,0,1,3.62-2.67,7.9,7.9,0,0,1,4.45-.17,19.65,19.65,0,0,1,7.43,4.1,54.71,54.71,0,0,1,6,5.83,54.46,54.46,0,0,0-6.34-5.43,19,19,0,0,0-7.33-3.52,6.77,6.77,0,0,0-3.8.36,7.13,7.13,0,0,0-2.89,2.42,20.16,20.16,0,0,0-2.89,7.42,74.67,74.67,0,0,0-1.11,16.41A152.77,152.77,0,0,0,179,65.77Z"/><path class="cls-7" d="M215.07,66.23a156,156,0,0,1-.36-17,77,77,0,0,1,2.16-16.86,21.77,21.77,0,0,1,3.65-7.87,8.5,8.5,0,0,1,3.62-2.67,7.9,7.9,0,0,1,4.45-.17,19.65,19.65,0,0,1,7.43,4.1,54.71,54.71,0,0,1,6,5.83,54.46,54.46,0,0,0-6.34-5.43,19,19,0,0,0-7.33-3.52,6.77,6.77,0,0,0-3.8.36,7.13,7.13,0,0,0-2.89,2.42,20.16,20.16,0,0,0-2.89,7.42,74.67,74.67,0,0,0-1.11,16.41A152.77,152.77,0,0,0,219,65.77Z"/><path class="cls-7" d="M255.07,66.23a156,156,0,0,1-.36-17,77,77,0,0,1,2.16-16.86,21.77,21.77,0,0,1,3.65-7.87,8.5,8.5,0,0,1,3.62-2.67,7.9,7.9,0,0,1,4.45-.17,19.65,19.65,0,0,1,7.43,4.1,54.71,54.71,0,0,1,6,5.83,54.46,54.46,0,0,0-6.34-5.43,19,19,0,0,0-7.33-3.52,6.77,6.77,0,0,0-3.8.36,7.13,7.13,0,0,0-2.89,2.42,20.16,20.16,0,0,0-2.89,7.42,74.67,74.67,0,0,0-1.11,16.41A152.77,152.77,0,0,0,259,65.77Z"/><path class="cls-7" d="M295.07,66.23a156,156,0,0,1-.36-17,77,77,0,0,1,2.16-16.86,21.77,21.77,0,0,1,3.65-7.87,8.5,8.5,0,0,1,3.62-2.67,7.9,7.9,0,0,1,4.45-.17,19.65,19.65,0,0,1,7.43,4.1,54.71,54.71,0,0,1,6,5.83,54.46,54.46,0,0,0-6.34-5.43,19,19,0,0,0-7.33-3.52,6.77,6.77,0,0,0-3.8.36,7.13,7.13,0,0,0-2.89,2.42,20.16,20.16,0,0,0-2.89,7.42,74.67,74.67,0,0,0-1.11,16.41A152.77,152.77,0,0,0,299,65.77Z"/><path class="cls-7" d="M335.07,66.23a156,156,0,0,1-.36-17,77,77,0,0,1,2.16-16.86,21.77,21.77,0,0,1,3.65-7.87,8.5,8.5,0,0,1,3.62-2.67,7.9,7.9,0,0,1,4.45-.17,19.65,19.65,0,0,1,7.43,4.1,54.71,54.71,0,0,1,6,5.83,54.46,54.46,0,0,0-6.34-5.43,19,19,0,0,0-7.33-3.52,6.77,6.77,0,0,0-3.8.36,7.13,7.13,0,0,0-2.89,2.42,20.16,20.16,0,0,0-2.89,7.42,74.67,74.67,0,0,0-1.11,16.41A152.77,152.77,0,0,0,339,65.77Z"/><path class="cls-7" d="M375.07,66.23a156,156,0,0,1-.36-17,77,77,0,0,1,2.16-16.86,21.77,21.77,0,0,1,3.65-7.87,8.5,8.5,0,0,1,3.62-2.67,7.9,7.9,0,0,1,4.45-.17,19.65,19.65,0,0,1,7.43,4.1,54.71,54.71,0,0,1,6,5.83,54.46,54.46,0,0,0-6.34-5.43,19,19,0,0,0-7.33-3.52,6.77,6.77,0,0,0-3.8.36,7.13,7.13,0,0,0-2.89,2.42,20.16,20.16,0,0,0-2.89,7.42,74.67,74.67,0,0,0-1.11,16.41A152.77,152.77,0,0,0,379,65.77Z"/><path class="cls-7" d="M415.07,66.23a156,156,0,0,1-.36-17,77,77,0,0,1,2.16-16.86,21.77,21.77,0,0,1,3.65-7.87,8.5,8.5,0,0,1,3.62-2.67,7.9,7.9,0,0,1,4.45-.17,19.65,19.65,0,0,1,7.43,4.1,54.71,54.71,0,0,1,6,5.83,54.46,54.46,0,0,0-6.34-5.43,19,19,0,0,0-7.33-3.52,6.77,6.77,0,0,0-3.8.36,7.13,7.13,0,0,0-2.89,2.42,20.16,20.16,0,0,0-2.89,7.42,74.67,74.67,0,0,0-1.11,16.41A152.77,152.77,0,0,0,419,65.77Z"/><path class="cls-7" d="M455.07,66.23a156,156,0,0,1-.36-17,77,77,0,0,1,2.16-16.86,21.77,21.77,0,0,1,3.65-7.87,8.5,8.5,0,0,1,3.62-2.67,7.9,7.9,0,0,1,4.45-.17,19.65,19.65,0,0,1,7.43,4.1,54.71,54.71,0,0,1,6,5.83,54.46,54.46,0,0,0-6.34-5.43,19,19,0,0,0-7.33-3.52,6.77,6.77,0,0,0-3.8.36,7.13,7.13,0,0,0-2.89,2.42,20.16,20.16,0,0,0-2.89,7.42,74.67,74.67,0,0,0-1.11,16.41A152.77,152.77,0,0,0,459,65.77Z"/><path class="cls-7" d="M495.07,66.23a156,156,0,0,1-.36-17,77,77,0,0,1,2.16-16.86,21.77,21.77,0,0,1,3.65-7.87,8.5,8.5,0,0,1,3.62-2.67,7.9,7.9,0,0,1,4.45-.17,19.65,19.65,0,0,1,7.43,4.1,54.71,54.71,0,0,1,6,5.83,54.46,54.46,0,0,0-6.34-5.43,19,19,0,0,0-7.33-3.52,6.77,6.77,0,0,0-3.8.36,7.13,7.13,0,0,0-2.89,2.42,20.15,20.15,0,0,0-2.89,7.42,74.67,74.67,0,0,0-1.11,16.41A152.79,152.79,0,0,0,499,65.77Z"/><path class="cls-7" d="M535.07,66.23a156,156,0,0,1-.36-17,77,77,0,0,1,2.16-16.86,21.77,21.77,0,0,1,3.65-7.87,8.5,8.5,0,0,1,3.62-2.67,7.9,7.9,0,0,1,4.45-.17,19.65,19.65,0,0,1,7.43,4.1,54.71,54.71,0,0,1,6,5.83,54.46,54.46,0,0,0-6.34-5.43,19,19,0,0,0-7.33-3.52,6.77,6.77,0,0,0-3.8.36,7.13,7.13,0,0,0-2.89,2.42,20.15,20.15,0,0,0-2.89,7.42,74.67,74.67,0,0,0-1.11,16.41A152.79,152.79,0,0,0,539,65.77Z"/><path class="cls-7" d="M575.07,66.23a156,156,0,0,1-.36-17,77,77,0,0,1,2.16-16.86,21.77,21.77,0,0,1,3.65-7.87,8.5,8.5,0,0,1,3.62-2.67,7.9,7.9,0,0,1,4.45-.17,19.65,19.65,0,0,1,7.43,4.1,54.71,54.71,0,0,1,6,5.83,54.46,54.46,0,0,0-6.34-5.43,19,19,0,0,0-7.33-3.52,6.77,6.77,0,0,0-3.8.36,7.13,7.13,0,0,0-2.89,2.42,20.15,20.15,0,0,0-2.89,7.42,74.67,74.67,0,0,0-1.11,16.41A152.79,152.79,0,0,0,579,65.77Z"/><path class="cls-7" d="M615.07,66.23a156,156,0,0,1-.36-17,77,77,0,0,1,2.16-16.86,21.77,21.77,0,0,1,3.65-7.87,8.5,8.5,0,0,1,3.62-2.67,7.9,7.9,0,0,1,4.45-.17,19.65,19.65,0,0,1,7.43,4.1,54.71,54.71,0,0,1,6,5.83,54.46,54.46,0,0,0-6.34-5.43,19,19,0,0,0-7.33-3.52,6.77,6.77,0,0,0-3.8.36,7.13,7.13,0,0,0-2.89,2.42,20.15,20.15,0,0,0-2.89,7.42,74.67,74.67,0,0,0-1.11,16.41A152.79,152.79,0,0,0,619,65.77Z"/><path class="cls-7" d="M655.07,66.23a156,156,0,0,1-.36-17,77,77,0,0,1,2.16-16.86,21.77,21.77,0,0,1,3.65-7.87,8.5,8.5,0,0,1,3.62-2.67,7.9,7.9,0,0,1,4.45-.17,19.65,19.65,0,0,1,7.43,4.1,54.71,54.71,0,0,1,6,5.83,54.46,54.46,0,0,0-6.34-5.43,19,19,0,0,0-7.33-3.52,6.77,6.77,0,0,0-3.8.36,7.13,7.13,0,0,0-2.89,2.42,20.15,20.15,0,0,0-2.89,7.42,74.67,74.67,0,0,0-1.11,16.41A152.79,152.79,0,0,0,659,65.77Z"/><path class="cls-7" d="M695.07,66.23a156,156,0,0,1-.36-17,77,77,0,0,1,2.16-16.86,21.77,21.77,0,0,1,3.65-7.87,8.5,8.5,0,0,1,3.62-2.67,7.9,7.9,0,0,1,4.45-.17,19.65,19.65,0,0,1,7.43,4.1,54.71,54.71,0,0,1,6,5.83,54.46,54.46,0,0,0-6.34-5.43,19,19,0,0,0-7.33-3.52,6.77,6.77,0,0,0-3.8.36,7.13,7.13,0,0,0-2.89,2.42,20.15,20.15,0,0,0-2.89,7.42,74.67,74.67,0,0,0-1.11,16.41A152.79,152.79,0,0,0,699,65.77Z"/><path class="cls-7" d="M735.07,66.23a156,156,0,0,1-.36-17,77,77,0,0,1,2.16-16.86,21.77,21.77,0,0,1,3.65-7.87,8.5,8.5,0,0,1,3.62-2.67,7.9,7.9,0,0,1,4.45-.17,19.65,19.65,0,0,1,7.43,4.1,54.71,54.71,0,0,1,6,5.83,54.46,54.46,0,0,0-6.34-5.43,19,19,0,0,0-7.33-3.52,6.77,6.77,0,0,0-3.8.36,7.13,7.13,0,0,0-2.89,2.42,20.15,20.15,0,0,0-2.89,7.42,74.67,74.67,0,0,0-1.11,16.41A152.79,152.79,0,0,0,739,65.77Z"/><path class="cls-7" d="M775.07,66.23a156,156,0,0,1-.36-17,77,77,0,0,1,2.16-16.86,21.77,21.77,0,0,1,3.65-7.87,8.5,8.5,0,0,1,3.62-2.67,7.9,7.9,0,0,1,4.45-.17,19.65,19.65,0,0,1,7.43,4.1,54.71,54.71,0,0,1,6,5.83,54.46,54.46,0,0,0-6.34-5.43,19,19,0,0,0-7.33-3.52,6.77,6.77,0,0,0-3.8.36,7.13,7.13,0,0,0-2.89,2.42,20.15,20.15,0,0,0-2.89,7.42,74.67,74.67,0,0,0-1.11,16.41A152.79,152.79,0,0,0,779,65.77Z"/><path class="cls-7" d="M815.07,66.23a156,156,0,0,1-.36-17,77,77,0,0,1,2.16-16.86,21.77,21.77,0,0,1,3.65-7.87,8.5,8.5,0,0,1,3.62-2.67,7.9,7.9,0,0,1,4.45-.17,19.65,19.65,0,0,1,7.43,4.1,54.71,54.71,0,0,1,6,5.83,54.46,54.46,0,0,0-6.34-5.43,19,19,0,0,0-7.33-3.52,6.77,6.77,0,0,0-3.8.36,7.13,7.13,0,0,0-2.89,2.42,20.15,20.15,0,0,0-2.89,7.42,74.67,74.67,0,0,0-1.11,16.41A152.79,152.79,0,0,0,819,65.77Z"/><path class="cls-7" d="M855.07,66.23a156,156,0,0,1-.36-17,77,77,0,0,1,2.16-16.86,21.77,21.77,0,0,1,3.65-7.87,8.5,8.5,0,0,1,3.62-2.67,7.9,7.9,0,0,1,4.45-.17,19.65,19.65,0,0,1,7.43,4.1,54.71,54.71,0,0,1,6,5.83,54.46,54.46,0,0,0-6.34-5.43,19,19,0,0,0-7.33-3.52,6.77,6.77,0,0,0-3.8.36,7.13,7.13,0,0,0-2.89,2.42,20.15,20.15,0,0,0-2.89,7.42,74.67,74.67,0,0,0-1.11,16.41A152.79,152.79,0,0,0,859,65.77Z"/><path class="cls-7" d="M895.07,66.23a156,156,0,0,1-.36-17,77,77,0,0,1,2.16-16.86,21.77,21.77,0,0,1,3.65-7.87,8.5,8.5,0,0,1,3.62-2.67,7.9,7.9,0,0,1,4.45-.17,19.65,19.65,0,0,1,7.43,4.1,54.71,54.71,0,0,1,6,5.83,54.46,54.46,0,0,0-6.34-5.43,19,19,0,0,0-7.33-3.52,6.77,6.77,0,0,0-3.8.36,7.13,7.13,0,0,0-2.89,2.42,20.15,20.15,0,0,0-2.89,7.42,74.67,74.67,0,0,0-1.11,16.41A152.79,152.79,0,0,0,899,65.77Z"/><path class="cls-7" d="M935.07,66.23a156,156,0,0,1-.36-17,77,77,0,0,1,2.16-16.86,21.77,21.77,0,0,1,3.65-7.87,8.5,8.5,0,0,1,3.62-2.67,7.9,7.9,0,0,1,4.45-.17,19.65,19.65,0,0,1,7.43,4.1,54.71,54.71,0,0,1,6,5.83,54.46,54.46,0,0,0-6.34-5.43,19,19,0,0,0-7.33-3.52,6.77,6.77,0,0,0-3.8.36,7.13,7.13,0,0,0-2.89,2.42,20.15,20.15,0,0,0-2.89,7.42,74.67,74.67,0,0,0-1.11,16.41A152.79,152.79,0,0,0,939,65.77Z"/><path class="cls-7" d="M975.07,66.23a156,156,0,0,1-.36-17,77,77,0,0,1,2.16-16.86,21.77,21.77,0,0,1,3.65-7.87,8.5,8.5,0,0,1,3.62-2.67,7.9,7.9,0,0,1,4.45-.17,19.65,19.65,0,0,1,7.43,4.1,54.71,54.71,0,0,1,6,5.83,54.47,54.47,0,0,0-6.34-5.43,19,19,0,0,0-7.33-3.52,6.77,6.77,0,0,0-3.8.36,7.13,7.13,0,0,0-2.89,2.42,20.16,20.16,0,0,0-2.89,7.42,74.67,74.67,0,0,0-1.11,16.41A152.77,152.77,0,0,0,979,65.77Z"/><path class="cls-7" d="M1015.07,66.23a156,156,0,0,1-.36-17,77,77,0,0,1,2.16-16.86,21.77,21.77,0,0,1,3.65-7.87,8.5,8.5,0,0,1,3.62-2.67,7.9,7.9,0,0,1,4.45-.17,19.65,19.65,0,0,1,7.43,4.1,54.71,54.71,0,0,1,6,5.83,54.47,54.47,0,0,0-6.34-5.43,19,19,0,0,0-7.33-3.52,6.77,6.77,0,0,0-3.8.36,7.13,7.13,0,0,0-2.89,2.42,20.16,20.16,0,0,0-2.89,7.42,74.67,74.67,0,0,0-1.11,16.41A152.77,152.77,0,0,0,1019,65.77Z"/><path class="cls-7" d="M1055.07,66.23a156,156,0,0,1-.36-17,77,77,0,0,1,2.16-16.86,21.77,21.77,0,0,1,3.65-7.87,8.5,8.5,0,0,1,3.62-2.67,7.9,7.9,0,0,1,4.45-.17,19.65,19.65,0,0,1,7.43,4.1,54.71,54.71,0,0,1,6,5.83,54.47,54.47,0,0,0-6.34-5.43,19,19,0,0,0-7.33-3.52,6.77,6.77,0,0,0-3.8.36,7.13,7.13,0,0,0-2.89,2.42,20.16,20.16,0,0,0-2.89,7.42,74.67,74.67,0,0,0-1.11,16.41A152.77,152.77,0,0,0,1059,65.77Z"/><path class="cls-7" d="M1095.07,66.23a156,156,0,0,1-.36-17,77,77,0,0,1,2.16-16.86,21.77,21.77,0,0,1,3.65-7.87,8.5,8.5,0,0,1,3.62-2.67,7.9,7.9,0,0,1,4.45-.17,19.65,19.65,0,0,1,7.43,4.1,54.71,54.71,0,0,1,6,5.83,54.47,54.47,0,0,0-6.34-5.43,19,19,0,0,0-7.33-3.52,6.77,6.77,0,0,0-3.8.36,7.13,7.13,0,0,0-2.89,2.42,20.16,20.16,0,0,0-2.89,7.42,74.67,74.67,0,0,0-1.11,16.41A152.77,152.77,0,0,0,1099,65.77Z"/></svg>