<svg id="Layer_1" data-name="Layer 1" xmlns="http://www.w3.org/2000/svg" viewBox="0 0 1200.12 1372.56"><defs><style>.cls-1{fill:#62b2b2;}.cls-2{fill:#fff;}.cls-3,.cls-4,.cls-5{fill:#606060;}.cls-4,.cls-5{stroke:#fff;}.cls-4,.cls-5,.cls-7{stroke-miterlimit:10;}.cls-4{stroke-width:3px;}.cls-6{fill:#4e3837;}.cls-7{fill:none;stroke:#606060;stroke-width:6px;}</style></defs><title>cafe menu mobile</title><rect class="cls-1" x="-0.41" width="1203.26" height="119.56"/><path class="cls-2" d="M197.34,97.41l6-41.82-17.5,41.82H173l1.86-42-15.55,42h-7.46l23.64-64a21.53,21.53,0,0,0-10.87,7.61q-3.91,5.3-3.91,13.34a17.16,17.16,0,0,0,.2,3,12.57,12.57,0,0,0,.43,1.77,5.5,5.5,0,0,0,.43,1,1.28,1.28,0,0,1,.2.66,17.17,17.17,0,0,1-4.11-.45,8.32,8.32,0,0,1-3.14-1.46,6.53,6.53,0,0,1-2-2.61,9.8,9.8,0,0,1-.7-3.93,15.89,15.89,0,0,1,1.2-6,24.25,24.25,0,0,1,3.32-5.75,32.4,32.4,0,0,1,5-5.14,36.88,36.88,0,0,1,6.16-4.16,33.58,33.58,0,0,1,6.86-2.77,26.29,26.29,0,0,1,7.11-1,20.12,20.12,0,0,1,7,1.32l-2.14,49.05,20.5-49.05h13.41l-9.77,68.51Z"/><path class="cls-2" d="M257.85,80.72a53.26,53.26,0,0,1-4.48,6.36,33.63,33.63,0,0,1-5.68,5.5,28.1,28.1,0,0,1-7,3.89A23.31,23.31,0,0,1,232.25,98a20,20,0,0,1-6-.84,11.85,11.85,0,0,1-4.59-2.61,11.49,11.49,0,0,1-2.93-4.57,19.71,19.71,0,0,1-1-6.75,40.77,40.77,0,0,1,.55-6.18A47.41,47.41,0,0,1,220,69.81a40.74,40.74,0,0,1,3.14-7.23,28.43,28.43,0,0,1,4.73-6.34,21.86,21.86,0,0,1,6.5-4.5,20.23,20.23,0,0,1,8.5-1.7,14.64,14.64,0,0,1,5.11.75,8.26,8.26,0,0,1,3.14,2,6.55,6.55,0,0,1,1.59,2.84,12.89,12.89,0,0,1,.43,3.34,16.33,16.33,0,0,1-1.77,7.52,20.06,20.06,0,0,1-4.75,6.07,24.6,24.6,0,0,1-6.84,4.18,25.31,25.31,0,0,1-8,1.86q-.09,1-.16,2t-.07,1.75a14.56,14.56,0,0,0,.43,3.89,5.5,5.5,0,0,0,1.27,2.39,4.51,4.51,0,0,0,2.09,1.2,11.22,11.22,0,0,0,2.93.34,16.28,16.28,0,0,0,5-.73,17.58,17.58,0,0,0,4.21-2,23.6,23.6,0,0,0,3.71-3q1.75-1.73,3.52-3.68Zm-25.41-6.59a12.47,12.47,0,0,0,5.09-1.5,15.49,15.49,0,0,0,4.32-3.43,17.05,17.05,0,0,0,3-4.82,14.61,14.61,0,0,0,1.11-5.61,6.49,6.49,0,0,0-.5-2.77,1.84,1.84,0,0,0-1.82-1,5,5,0,0,0-3.48,1.71,19.58,19.58,0,0,0-3.21,4.43,38.06,38.06,0,0,0-2.66,6.16A54.49,54.49,0,0,0,232.44,74.13Z"/><path class="cls-2" d="M305.58,80.72a40.64,40.64,0,0,1-4.21,9.14,21.78,21.78,0,0,1-4.55,5.21,12.14,12.14,0,0,1-4.5,2.34,17,17,0,0,1-4.07.55,13.31,13.31,0,0,1-5.18-.89,9,9,0,0,1-3.36-2.36,9.11,9.11,0,0,1-1.84-3.36,13.38,13.38,0,0,1-.57-3.89,27.52,27.52,0,0,1,.66-5.52q.66-3.16,1.43-6.48T280.83,69a26.12,26.12,0,0,0,.66-5.32q0-4.77-3.36-4.77a4.38,4.38,0,0,0-2.36.68,7.83,7.83,0,0,0-2,1.84,13.8,13.8,0,0,0-1.64,2.73,26.36,26.36,0,0,0-1.27,3.34l-6.32,29.87H251.12L261,50.85H274.4l-1,4.82a17.13,17.13,0,0,1,3-2.71,14,14,0,0,1,2.89-1.57,12.32,12.32,0,0,1,2.66-.73,16.4,16.4,0,0,1,2.34-.18,13.94,13.94,0,0,1,4.14.59,8.23,8.23,0,0,1,5.46,5.14,13.25,13.25,0,0,1,.77,4.77,25.91,25.91,0,0,1-.34,4q-.34,2.16-.84,4.41t-1.07,4.48q-.57,2.23-1.07,4.27t-.84,3.8a16.3,16.3,0,0,0-.34,3.07,4.66,4.66,0,0,0,.8,2.82A3.41,3.41,0,0,0,293.85,89a5.63,5.63,0,0,0,2.64-.59,6.67,6.67,0,0,0,2-1.68,13.11,13.11,0,0,0,1.66-2.61q.75-1.52,1.48-3.34Z"/><path class="cls-2" d="M331,50.85h13.41L337.72,82.5a9.38,9.38,0,0,0-.32,1.52,12.19,12.19,0,0,0-.09,1.48,3.31,3.31,0,0,0,.93,2.7,4.57,4.57,0,0,0,2.89.75,10.9,10.9,0,0,0,1.11,0,5,5,0,0,0,.77-.14,4.8,4.8,0,0,0,.61-.2,5.56,5.56,0,0,1,.59-.2,11.37,11.37,0,0,1-1.09,4.34,9.33,9.33,0,0,1-2.32,3,9,9,0,0,1-3.21,1.73,12.67,12.67,0,0,1-3.71.55,8.6,8.6,0,0,1-6.3-2.3,10.54,10.54,0,0,1-2.84-6.52,21.48,21.48,0,0,1-3.57,4.59,17.18,17.18,0,0,1-3.64,2.68,11.78,11.78,0,0,1-3.5,1.25,18.61,18.61,0,0,1-3.16.3,11.76,11.76,0,0,1-3.91-.64,8.15,8.15,0,0,1-3.16-2,9.58,9.58,0,0,1-2.11-3.46,14.6,14.6,0,0,1-.77-5,23.77,23.77,0,0,1,.18-2.8q.18-1.52.55-3.3L308,50.85H321.4L314.72,82.5a10.5,10.5,0,0,0-.27,2.36,8.39,8.39,0,0,0,.14,1.55,4.21,4.21,0,0,0,.45,1.3,2.54,2.54,0,0,0,.84.91,2.41,2.41,0,0,0,1.34.34,5.18,5.18,0,0,0,2.5-.61,7.28,7.28,0,0,0,2.07-1.71A11.33,11.33,0,0,0,323.43,84a26.28,26.28,0,0,0,1.25-3.3Z"/><path class="cls-3" d="M293.17,368.31c-10.29-7.23-19.15-15.4-25.9-25.8a75.24,75.24,0,0,1-12-36.38c-.42-6,.84-9,6.72-11,6.81-2.36,14-3.75,21.08-5.2,3.91-.8,8-.87,12-1.28,4.91-.51,7.41.75,7.45,4,.06,4.61-3.39,4.76-6.77,5.21-8.23,1.1-16.43,2.39-24.64,3.64a22.49,22.49,0,0,0-3.2,1c24.31,7.64,96.67,8.43,126.67-.64-6-1-12-2.5-18.08-2.93-16.14-1.14-32.32-1.84-48.48-2.67-4.45-.23-7.11-3.15-5.22-6.3a6.38,6.38,0,0,1,4.55-2.72c21-.25,41.92.35,62.53,4.64,4.43.92,8.57,3.17,12.86,4.77a22.83,22.83,0,0,0,3.77,1.17c16.15,3,27.06,19,23,33.92-4.45,16.52-21.35,25.5-37.37,19.61-2.6-1-3.81-.36-5.67,1.35-5.72,5.29-11.71,10.28-17.85,15.6q15,0,30,0c2.77,0,6.52-.74,7.16,2.71a12,12,0,0,1-2,8.49c-4.87,6.43-12.29,9.1-19.74,11.33-17.1,5.12-34.72,6.5-52.43,6.54-18.31,0-36.57-1.15-54.17-6.7a79.09,79.09,0,0,1-15.23-7.12,17.08,17.08,0,0,1-5.7-6.07c-3.22-5.44-.87-9.17,5.47-9.18Q277.6,368.29,293.17,368.31ZM265.4,312c4.34,34.43,35.86,59.23,71.06,56.14,37.55-3.29,58.72-34,59.55-56.05A367.64,367.64,0,0,1,265.4,312Zm4.76,65.67c23.89,14.13,99.64,13.67,121.23,0Zm124.36-35c8,2.61,14.76,1.87,20.52-3.27,6-5.36,7.23-12.4,5.08-19.91-1.89-6.61-6.41-10.64-13.69-12.34A77.07,77.07,0,0,1,394.52,342.69Z"/><path class="cls-3" d="M305.85,276.63c-.19-5,2.25-8.86,5.62-12.19,3.06-3,6.37-5.8,9.42-8.84,6.14-6.14,6-9.13-.76-14.4-3.39-2.65-7.09-4.92-10.38-7.67a14.56,14.56,0,0,1-4.22-5.52c-.38-1,1.35-2.75,2.12-4.16.84,1,1.7,2,2.51,3.06s1.39,2.43,2.41,3.23c4.09,3.2,8.55,6,12.43,9.37,6.25,5.52,6.62,10.66,1.22,17A85.65,85.65,0,0,1,316,266.43c-5.49,4.62-7.15,10.32-4.48,16.73,2.26,5.42,5.61,10.38,8.25,15.65.71,1.42.57,3.27.82,4.93-1.42-.68-3.34-1-4.2-2.1C310.69,294.25,306.38,286.2,305.85,276.63Z"/><path class="cls-3" d="M355.33,240.81c-.52,9.91-5.23,18.07-11.17,25.62-.63.8-2.49.62-3.78.89.15-1.31,0-2.81.52-3.91,2.91-5.62,6.44-11,8.93-16.75,2.59-6,1-11.55-4.1-16a81.68,81.68,0,0,1-10.22-9.87c-1.94-2.39-2.8-5.7-3.87-8.7-.2-.57.79-2.07,1.5-2.3a2.72,2.72,0,0,1,2.37,1.27c1.47,7.27,7.7,10.64,12.36,15.24C352,230.35,355.83,234.42,355.33,240.81Z"/><path class="cls-4" d="M351.17,1029.19c24.81.58,52.2,13,73.88,37.57a12.53,12.53,0,0,1,2.85,7.23c.14,3.15-2.14,5.49-5.28,6.36a7.56,7.56,0,0,1-8.29-2.61A94.31,94.31,0,0,0,391,1057.82a93.35,93.35,0,0,0-118.42,18.55,15,15,0,0,1-4.9,3.88c-3,1.33-6.61-.06-8.5-2.68-2.11-2.91-2.32-6.7.4-9.47,5.86-6,11.68-12.12,18.26-17.25C296.17,1036.5,320,1028.87,351.17,1029.19Z"/><path class="cls-4" d="M343.12,1060.3c23.5.45,43.1,9.41,58.68,27.06,2.73,3.09,3.2,6.51,1.46,9.45-1.82,3.09-4.69,4.59-8.09,3.63a12.46,12.46,0,0,1-5.43-3.59c-10.73-11.73-23.81-19-39.65-20.73-20.37-2.27-37.71,4.31-52.15,18.73-.92.92-1.75,1.93-2.64,2.88-3.23,3.47-7.79,4-11.07,1.22s-3.64-7.58-.46-11.38a74.64,74.64,0,0,1,21.27-17.47A76.3,76.3,0,0,1,343.12,1060.3Z"/><path class="cls-4" d="M342.68,1091.47c13.85.24,25.44,5.27,34.74,15.36,3.83,4.16,3.94,8.7.48,11.91s-7.84,2.71-11.79-1.45c-13.34-14.07-33.3-14-46.69.21-3.72,3.94-8.09,4.42-11.53,1.27s-3.5-7.55.15-11.6C317.33,1096.86,329,1091.74,342.68,1091.47Z"/><path class="cls-5" d="M342.8,1153.65a15.5,15.5,0,1,1,15.58-15.24A15.54,15.54,0,0,1,342.8,1153.65Z"/><path class="cls-6" d="M219.95,462.77h28.12v5.86H237.33v28.61h-6.65V468.63H219.95Z"/><path class="cls-6" d="M268.43,474.29q3.18,3.59,3.18,10.1,0,1.28,0,1.92H252.11a7.34,7.34,0,0,0,7.54,6,10,10,0,0,0,3.87-.76,9.47,9.47,0,0,0,3.23-2.19l3.45,3.59a13.31,13.31,0,0,1-4.8,3.35,16.15,16.15,0,0,1-6.28,1.18,14.66,14.66,0,0,1-7.12-1.67,11.69,11.69,0,0,1-4.75-4.7,15.29,15.29,0,0,1,0-14A12,12,0,0,1,252,472.4a14,14,0,0,1,6.94-1.7Q265.26,470.7,268.43,474.29ZM265.75,482a6.39,6.39,0,0,0-1.92-4.63,7.49,7.49,0,0,0-9.53,0A7.5,7.5,0,0,0,252,482Z"/><path class="cls-6" d="M291.55,497.24V494a8.62,8.62,0,0,1-3.55,2.61,13.05,13.05,0,0,1-5,.89,10.6,10.6,0,0,1-4.85-1.06,7.75,7.75,0,0,1-3.23-2.93,7.92,7.92,0,0,1-1.13-4.18,7,7,0,0,1,2.61-5.79q2.61-2.09,7.39-2.14h7.68v-.69a4.44,4.44,0,0,0-1.53-3.6,6.73,6.73,0,0,0-4.43-1.28,15.22,15.22,0,0,0-7.83,2.46l-2.31-4.43a29.15,29.15,0,0,1,5.64-2.49,20.64,20.64,0,0,1,5.93-.76q5.12,0,8,2.46a8.79,8.79,0,0,1,2.88,6.9l0,17.24Zm-2.27-5.93a4.54,4.54,0,0,0,2.22-3.23v-2.36h-6.65a7.23,7.23,0,0,0-3.77.76,2.72,2.72,0,0,0-1.21,2.49,3.2,3.2,0,0,0,1.25,2.66,5.4,5.4,0,0,0,3.42,1A8.36,8.36,0,0,0,289.29,491.31Z"/><path class="cls-6" d="M314.41,457.11h5.42l-15.66,45.8H298.7Z"/><path class="cls-6" d="M339.35,469.42a11.71,11.71,0,0,0-10.91.34,11.1,11.1,0,0,0-4.19,4.21,12.1,12.1,0,0,0,0,11.77,11.25,11.25,0,0,0,4.19,4.24,11.4,11.4,0,0,0,5.86,1.55,12.3,12.3,0,0,0,5-1.08,14.2,14.2,0,0,0,4.41-3l3.89,4.33a20.31,20.31,0,0,1-6.3,4.36,17.73,17.73,0,0,1-7.29,1.6,18,18,0,0,1-9.11-2.37,17.33,17.33,0,0,1-6.5-6.43,17.55,17.55,0,0,1-2.36-9,17.14,17.14,0,0,1,2.41-9,17.33,17.33,0,0,1,6.58-6.35,19.08,19.08,0,0,1,16.47-.84,17.81,17.81,0,0,1,6.06,4.09l-3.84,4.83A13,13,0,0,0,339.35,469.42Z"/><path class="cls-6" d="M369.64,472.37a12.12,12.12,0,0,1,4.88,4.7,13.69,13.69,0,0,1,1.75,7,13.92,13.92,0,0,1-1.75,7,12.06,12.06,0,0,1-4.88,4.73,15.06,15.06,0,0,1-7.21,1.67,15.31,15.31,0,0,1-7.29-1.67,12,12,0,0,1-4.9-4.73,13.92,13.92,0,0,1-1.75-7,13.69,13.69,0,0,1,1.75-7,12.08,12.08,0,0,1,4.9-4.7,15.31,15.31,0,0,1,7.29-1.68A15.06,15.06,0,0,1,369.64,472.37Zm-12.63,6a9.06,9.06,0,0,0,0,11.52,7.06,7.06,0,0,0,5.42,2.22,7,7,0,0,0,5.32-2.22,9.06,9.06,0,0,0,0-11.52,7,7,0,0,0-5.32-2.22A7.06,7.06,0,0,0,357,478.38Z"/><path class="cls-6" d="M388.94,466.76a3.16,3.16,0,0,0-1,2.51V472h6.6v4.68H388v20.58h-6.4V476.66h-3.45V472h3.45v-2.51a9.13,9.13,0,0,1,1.28-5,8.16,8.16,0,0,1,3.42-3.08,10.59,10.59,0,0,1,4.65-1,11.06,11.06,0,0,1,4.83,1.13l-1.13,5.17a9.18,9.18,0,0,0-3.25-.79A3.58,3.58,0,0,0,388.94,466.76Z"/><path class="cls-6" d="M406,466.76a3.16,3.16,0,0,0-1,2.51V472h6.6v4.68h-6.6v20.58h-6.4V476.66h-3.45V472h3.45v-2.51a9.13,9.13,0,0,1,1.28-5,8.16,8.16,0,0,1,3.42-3.08,10.59,10.59,0,0,1,4.65-1,11.06,11.06,0,0,1,4.83,1.13l-1.13,5.17a9.18,9.18,0,0,0-3.25-.79A3.58,3.58,0,0,0,406,466.76Z"/><path class="cls-6" d="M434.3,474.29q3.18,3.59,3.18,10.1,0,1.28,0,1.92H418a7.34,7.34,0,0,0,7.54,6,10,10,0,0,0,3.87-.76,9.47,9.47,0,0,0,3.23-2.19L436,493a13.31,13.31,0,0,1-4.8,3.35,16.15,16.15,0,0,1-6.28,1.18,14.66,14.66,0,0,1-7.12-1.67,11.69,11.69,0,0,1-4.75-4.7,15.29,15.29,0,0,1,0-14,12,12,0,0,1,4.75-4.75,14,14,0,0,1,6.94-1.7Q431.12,470.7,434.3,474.29ZM431.62,482a6.39,6.39,0,0,0-1.92-4.63,7.49,7.49,0,0,0-9.53,0,7.5,7.5,0,0,0-2.34,4.65Z"/><path class="cls-6" d="M462.32,474.29q3.18,3.59,3.18,10.1,0,1.28,0,1.92H446a7.34,7.34,0,0,0,7.54,6,10,10,0,0,0,3.87-.76,9.47,9.47,0,0,0,3.23-2.19l3.45,3.59a13.31,13.31,0,0,1-4.8,3.35,16.15,16.15,0,0,1-6.28,1.18,14.66,14.66,0,0,1-7.12-1.67,11.69,11.69,0,0,1-4.75-4.7,15.29,15.29,0,0,1,0-14,12,12,0,0,1,4.75-4.75,14,14,0,0,1,6.94-1.7Q459.14,470.7,462.32,474.29ZM459.64,482a6.39,6.39,0,0,0-1.92-4.63,7.49,7.49,0,0,0-9.53,0,7.5,7.5,0,0,0-2.34,4.65Z"/><path class="cls-6" d="M245.51,1205.77H269.3l0,5.76H252.11v9.31h15.61v5.76H252.11v13.64h-6.6Z"/><path class="cls-6" d="M282.86,1215.05a10.67,10.67,0,0,1,5.34-1.4v6.2a8.7,8.7,0,0,0-6.52,1.9,7.31,7.31,0,0,0-2.44,5.79v12.71h-6.4V1213.9h6.4V1219A9.53,9.53,0,0,1,282.86,1215.05Z"/><path class="cls-6" d="M312,1217.3q3.18,3.59,3.18,10.1,0,1.28,0,1.92H295.69a7.34,7.34,0,0,0,7.54,6,10,10,0,0,0,3.87-.76,9.47,9.47,0,0,0,3.23-2.19l3.45,3.59a13.31,13.31,0,0,1-4.8,3.35,16.15,16.15,0,0,1-6.28,1.18,14.66,14.66,0,0,1-7.12-1.67,11.69,11.69,0,0,1-4.75-4.7,15.29,15.29,0,0,1,0-14,12,12,0,0,1,4.75-4.75,14,14,0,0,1,6.94-1.7Q308.84,1213.7,312,1217.3Zm-2.68,7.73a6.39,6.39,0,0,0-1.92-4.63,7.49,7.49,0,0,0-9.53,0,7.5,7.5,0,0,0-2.34,4.65Z"/><path class="cls-6" d="M340,1217.3q3.18,3.59,3.18,10.1,0,1.28,0,1.92H323.71a7.34,7.34,0,0,0,7.54,6,10,10,0,0,0,3.87-.76,9.47,9.47,0,0,0,3.23-2.19l3.45,3.59a13.31,13.31,0,0,1-4.8,3.35,16.15,16.15,0,0,1-6.28,1.18,14.66,14.66,0,0,1-7.12-1.67,11.69,11.69,0,0,1-4.75-4.7,15.29,15.29,0,0,1,0-14,12,12,0,0,1,4.75-4.75,14,14,0,0,1,6.94-1.7Q336.86,1213.7,340,1217.3Zm-2.68,7.73a6.39,6.39,0,0,0-1.92-4.63,7.49,7.49,0,0,0-9.53,0,7.5,7.5,0,0,0-2.34,4.65Z"/><path class="cls-6" d="M354.49,1213.95l6.6-.05,6.45,19.9,6.26-19.9h6.45l6.35,19.9,6.3-19.9h6.45l-9.55,26.35h-6.55l-6.3-18.57-6.25,18.57h-6.55Z"/><path class="cls-6" d="M407.73,1203.66a3.83,3.83,0,0,1,1,2.76,3.77,3.77,0,0,1-1,2.71,3.68,3.68,0,0,1-5.22,0,3.77,3.77,0,0,1-1-2.71,3.83,3.83,0,0,1,1-2.76,3.68,3.68,0,0,1,5.22,0ZM402,1213.9h6.4v26.35H402Z"/><path class="cls-6" d="M423.71,1209.76a3.16,3.16,0,0,0-1,2.51V1215h6.6v4.68h-6.6v20.58h-6.4v-20.58H412.9V1215h3.45v-2.51a9.13,9.13,0,0,1,1.28-5,8.16,8.16,0,0,1,3.42-3.08,10.59,10.59,0,0,1,4.65-1,11.06,11.06,0,0,1,4.83,1.13l-1.13,5.17a9.18,9.18,0,0,0-3.25-.79A3.58,3.58,0,0,0,423.71,1209.76Zm15.19-6.11a3.83,3.83,0,0,1,1,2.76,3.77,3.77,0,0,1-1,2.71,3.68,3.68,0,0,1-5.22,0,3.76,3.76,0,0,1-1-2.71,3.83,3.83,0,0,1,1-2.76,3.68,3.68,0,0,1,5.22,0Zm-5.76,10.24h6.4v26.35h-6.4Z"/><path class="cls-3" d="M986.11,740.74c.06,10.72.55,21.47,0,32.17-.42,8.69-5.36,11.69-11.75,11.72-5.28,0-10.56,0-15.84,0-11.71,0-14.5-2.44-15.73-14.63-8.23,8.29-18.39,7.49-28.42,7.47-25.54-.06-51.09,0-76.63,0-13.09,0-19.38-8.46-15.43-21.12-5.21-.83-10.34-2-13.38-6.91-1.82-2.95-3.08-6.07-2.21-9.66,2,1.45,4.07,2.48,6.63,2,1.22,5.14,4.56,7.07,9.71,7,15.83-.12,31.67,0,47.5-.08,2.63,0,4.42,0,4.38,3.63s-2,3.55-4.55,3.54q-16.86-.08-33.71,0c-5.38,0-8.77,2.87-8.78,7.11s3.45,7.22,8.75,7.22q44.18.06,88.37,0c8.44,0,14.76-5.17,17.39-13.22,1.21-3.69.43-7.45,1-11.13l6.63-1a183.58,183.58,0,0,1,0,21.61,4.94,4.94,0,0,0,0,4.76c-.11,4.74,2.08,6.63,6.9,6.3,5.07-.35,10.19-.07,15.29-.08,6.26,0,6.76-.52,6.8-6.62q.1-15.54.21-31.09C981.13,742.8,983.67,741.45,986.11,740.74Z"/><path class="cls-3" d="M813.4,741.77c-2.55.46-4.66-.57-6.63-2,1.71-4.28.71-7-3.22-10.13-6.37-5.15-5.8-15.37.83-20.34,3.2-2.4,4.15-4.46,2.92-7.93.06-1.16.11-2.31.18-3.61l6.08,2.11c1.9,4.59,5.52,5.91,10.24,5.87,15.5-.13,31,0,46.52-.05,2.36,0,4.68-.54,4.67,3.37s-2.21,3.46-4.64,3.45q-26.33,0-52.65,0a26.53,26.53,0,0,0-5.58.44,7.07,7.07,0,0,0-.46,13.74,17.75,17.75,0,0,0,5,.52c17.55,0,35.1,0,52.65.08,2.28,0,5.59-1.61,5.65,3.33.07,5.2-3.41,3.64-5.9,3.66-15.34.09-30.67.16-46,0C817.59,734.2,814.29,736.26,813.4,741.77Z"/><path class="cls-3" d="M935.68,667.1q.15,5.84.3,11.68c.05,2.07,0,4.32,2.68,4.78,2.26.39,4.54,1.05,6.19-1.78,2.26-3.86,6.08-5.15,10.43-5.13,6.45,0,12.9-.1,19.35,0,7.12.16,11.44,4.41,11.65,11.41.11,3.56-.09,7.12-.15,10.68-1.1.44-.07-3.42-2-1-1.32,1.64-3.54.76-4.86,2.11-3.11-3.11-7-1.12-10.51-1.48-2.38-.25-4.14-.07-4.14-3.43s1.11-4.23,4.14-3.94a40.54,40.54,0,0,0,6.1,0c1.81-.1,4.35.9,4.26-2.58-.07-3-1.66-4.41-4.41-4.45-6.61-.1-13.23-.07-19.84,0-3.07,0-4.61,1.51-4.57,4.74.05,4.4-.13,8.81-.21,13.21-1.35-2.9-3.77-3.5-6.66-3.08.22-4.64-.09-8.15-6.54-8.36-4.73-.16-7.8-4.13-7.94-9.13-.19-7.12.06-14.24.13-21.36,3.26-.35,5.72.17,5.06,4.39C934,665.56,934.21,666.72,935.68,667.1Z"/><path class="cls-3" d="M813.55,699.86l-6.08-2.11c-.06,1.29-.12,2.45-.18,3.61a13.42,13.42,0,0,1,10.21-16.9,34.29,34.29,0,0,1,7.09-.57q34.17-.06,68.34,0c2.71,0,5.56.38,7.09-2.7a2.46,2.46,0,0,0,.32-.89q0-7.59,0-15.18c2.24-.93-.18-4.78,3-5,3.66-.22,1,4.2,3.46,5,.06,3.9.17,7.81.18,11.71,0,10.92-3.05,14-13.8,14q-34.93,0-69.87,0C816.44,690.94,814.18,693.1,813.55,699.86Z"/><path class="cls-3" d="M979.29,699.85c1.33-1.35,3.54-.46,4.86-2.11,1.91-2.37.88,1.48,2,1q0,17.44,0,34.89c-.11.08-.32.2-.31.24a4.15,4.15,0,0,0,.3.64q0,3.09,0,6.19c-2.44.71-5,2.06-6.85-1,0-.51-.1-1-.11-1.52-.19-10.65-.18-10.74-10.65-11-2.76-.07-3.83-.7-3.86-3.72,0-3.23,1.41-3.63,4-3.44,2,.15,4.09-.11,6.11.06,3.11.27,4.54-.51,4.51-4.12s-2.06-3.58-4.56-3.51c-2.21.06-4.43-.14-6.63,0-2.82.23-3.42-1.09-3.4-3.61s.75-3.45,3.21-3.25c1.69.14,3.44-.22,5.09.07C977.79,706.57,979.91,704.74,979.29,699.85Z"/><path class="cls-3" d="M906.77,665.16c-2.42-.82.2-5.24-3.46-5-3.15.19-.72,4-3,5-.06-5.1-.42-10.21-.11-15.28.53-8.77,7.85-15.72,16.75-16.28,7.55-.48,17.09,5.75,18.39,14.23,1,6.44.63,12.88.3,19.33-1.47-.39-1.7-1.55-1.51-2.75.65-4.22-1.81-4.74-5.06-4.39-.07-2.54-.1-5.09-.23-7.63-.34-6.82-5-11.72-11-11.68s-10.47,4.82-10.74,11.81C907,656.69,906.89,660.93,906.77,665.16Z"/><path class="cls-3" d="M900.34,680.28a2.46,2.46,0,0,1-.32.89A.81.81,0,0,1,900.34,680.28Z"/><path class="cls-3" d="M986.11,734.55a4.15,4.15,0,0,1-.3-.64s.2-.16.31-.24A1,1,0,0,1,986.11,734.55Z"/><path class="cls-3" d="M950.11,701.9c.4,14.31.43,28.62,0,42.93l-6.63,1q0-23.52,0-47C946.34,698.4,948.76,699,950.11,701.9Z"/><path class="cls-3" d="M950.08,766.44q0,2.38,0,4.76A4.94,4.94,0,0,1,950.08,766.44Z"/><path class="cls-3" d="M917.94,734.32c-16.79.52-23.11-9.89-21.67-26.41.2-2.32,1.53-2.21,3.1-2.22,2,0,3.91.05,4.05,2.66.13,2.37,0,4.75.08,7.12.18,7,4.33,11.32,11.38,11.74,1.69.1,3.4-.1,5.09.05,2.19.19,5.07-1.32,5.2,3.21s-2.53,3.85-5.2,3.85Z"/><path class="cls-3" d="M964.25,763.12c-2-.93-6.78,2.39-6.2-3.78.17-1.81,1.05-2.84,2.85-2.9,2.37-.08,4.74-.11,7.1,0,2.54.12,3.38,1.83,3.5,4.11.17,3-2,2.51-3.81,2.57C966.68,763.14,965.67,763.12,964.25,763.12Z"/><path class="cls-6" d="M816.88,861h5.76v13.1a23,23,0,0,1-6.4,3.27,22.43,22.43,0,0,1-7.24,1.26,18.36,18.36,0,0,1-9.23-2.37,17.63,17.63,0,0,1-6.58-6.43,17.27,17.27,0,0,1-2.41-9,16.76,16.76,0,0,1,2.46-8.94,17.75,17.75,0,0,1,6.72-6.35,19.26,19.26,0,0,1,9.43-2.34,20.91,20.91,0,0,1,7.29,1.33,19.38,19.38,0,0,1,6.21,3.65l-3.74,4.87a14.21,14.21,0,0,0-4.56-2.91,13.88,13.88,0,0,0-5.2-1,11.92,11.92,0,0,0-6,1.55,11.78,11.78,0,0,0-4.28,16.13,11.82,11.82,0,0,0,10.32,5.86,13.31,13.31,0,0,0,3.72-.57,16.51,16.51,0,0,0,3.72-1.6Z"/><path class="cls-6" d="M849.36,855.22q3.18,3.59,3.18,10.1,0,1.28,0,1.92H833a7.34,7.34,0,0,0,7.54,6,10,10,0,0,0,3.87-.76,9.47,9.47,0,0,0,3.23-2.19l3.45,3.59a13.31,13.31,0,0,1-4.8,3.35,16.15,16.15,0,0,1-6.28,1.18,14.66,14.66,0,0,1-7.12-1.67,11.69,11.69,0,0,1-4.75-4.7,15.29,15.29,0,0,1,0-14,12,12,0,0,1,4.75-4.75,14,14,0,0,1,6.94-1.7Q846.18,851.62,849.36,855.22ZM846.68,863a6.39,6.39,0,0,0-1.92-4.63,7.49,7.49,0,0,0-9.53,0,7.5,7.5,0,0,0-2.34,4.65Z"/><path class="cls-6" d="M872.33,876.54a12.49,12.49,0,0,1-6.6,1.92,7.9,7.9,0,0,1-5.56-2,7.6,7.6,0,0,1-2.17-5.89v-13h-3.69l0-4.68H858v-7.24h6.35v7.24h7.54v4.68h-7.54v11.87A3.84,3.84,0,0,0,865,872a2.64,2.64,0,0,0,2.07.76,9.16,9.16,0,0,0,3.74-1.08Z"/><path class="cls-6" d="M887.4,843.69H894v14.72h17.19V843.69h6.6v34.47h-6.6v-14H894v14h-6.6Z"/><path class="cls-6" d="M945.39,855.22q3.18,3.59,3.18,10.1,0,1.28,0,1.92H929.07a7.34,7.34,0,0,0,7.54,6,10,10,0,0,0,3.87-.76,9.47,9.47,0,0,0,3.23-2.19l3.45,3.59a13.31,13.31,0,0,1-4.8,3.35,16.15,16.15,0,0,1-6.28,1.18,14.66,14.66,0,0,1-7.12-1.67,11.69,11.69,0,0,1-4.75-4.7,15.29,15.29,0,0,1,0-14,12,12,0,0,1,4.75-4.75,14,14,0,0,1,6.94-1.7Q942.22,851.62,945.39,855.22ZM942.71,863a6.39,6.39,0,0,0-1.92-4.63,7.49,7.49,0,0,0-9.53,0,7.5,7.5,0,0,0-2.34,4.65Z"/><path class="cls-6" d="M953.2,841.63h6.4v36.54h-6.4Z"/><path class="cls-6" d="M988.73,853.32a11.47,11.47,0,0,1,4.38,4.75,15.34,15.34,0,0,1,1.55,7,15.13,15.13,0,0,1-1.53,6.94,11.26,11.26,0,0,1-4.33,4.68,12.45,12.45,0,0,1-6.5,1.67,11.29,11.29,0,0,1-5.22-1.16,9.8,9.8,0,0,1-3.74-3.37v13.84h-6.4v-35.9h6.4v4.33a9.52,9.52,0,0,1,3.67-3.37,11.19,11.19,0,0,1,5.2-1.16A12.42,12.42,0,0,1,988.73,853.32Zm-2.63,17.34a8.13,8.13,0,0,0,2.07-5.74,8,8,0,0,0-2.07-5.71,7.55,7.55,0,0,0-10.69,0,9,9,0,0,0,0,11.47,7,7,0,0,0,5.37,2.22A6.91,6.91,0,0,0,986.1,870.66Z"/><path class="cls-7" d="M888.13,400.53c-5.18,0-10.37-.06-15.55,0-2.29,0-3.07-.93-3.17-3.13-.32-6.89.9-13,7.36-16.95A4.92,4.92,0,0,1,882,380c3.94,1.87,8,1.57,12.09.13a6.72,6.72,0,0,1,4.81.28c6.07,3.2,9.43,11.45,7.48,18.22-.25.85-1.92,1.78-3,1.82C898.29,400.63,893.21,400.53,888.13,400.53Z"/><path class="cls-7" d="M838,320.62c-5.08,0-10.16-.06-15.23,0-2.21,0-3.09-.72-3.19-3-.27-6.5.63-12.42,6.52-16.44,2.05-1.4,3.87-2.08,6.52-.83,3.78,1.79,7.81,1.33,11.78-.17a5.79,5.79,0,0,1,4.24.2,13.84,13.84,0,0,1,7.85,12.15c.07,1.34-.08,2.7.08,4,.36,3.05-.73,4.3-4,4.14C847.71,320.45,842.83,320.62,838,320.62Z"/><path class="cls-7" d="M940,318.78c-5.08,0-10.16-.08-15.24,0-2.43.06-3.18-.87-3.29-3.26-.31-6.79.86-12.81,7.19-16.7a5.1,5.1,0,0,1,5.45-.5c3.91,1.85,8,1.48,12.09,0a6.24,6.24,0,0,1,4.51.28c6.26,3.27,9.62,11.46,7.61,18.43-.22.77-1.79,1.61-2.76,1.64C950.34,318.86,945.15,318.78,940,318.78Z"/><path class="cls-7" d="M951.66,279A11.84,11.84,0,0,1,936,291.47c-6.14-2.16-9.14-8.61-7.63-16.46a11.7,11.7,0,0,1,12-9.62C947.29,265.62,951.67,270.86,951.66,279Z"/><path class="cls-7" d="M876.15,360.36c-.8-9.12,7.59-15.56,15.93-12.48,7.21,2.67,9.1,9.9,7.06,17.74-1.57,6-8.13,9.41-14.28,7.78C879.19,371.9,876.14,367.33,876.15,360.36Z"/><path class="cls-7" d="M826.32,280.72c-.9-10.51,8.78-15.31,15.36-12.91,4.48,1.63,7.31,4.68,8,9.42.57,4.15.58,8.29-2.05,11.92a11.83,11.83,0,0,1-13.29,4.19C829,291.59,826.32,287.29,826.32,280.72Z"/><path class="cls-3" d="M826.15,331.74a16.31,16.31,0,0,1,2.1-.31c1.94,0,3.89,0,6.34,0,1.83,18.85,10.66,33.33,27,43.28-.88,1.4-1.67,2.61-2.41,3.85s-1.31,2.29-1.94,3.4C840.48,375,825,349.89,826.15,331.74Z"/><path class="cls-3" d="M941.12,331.64h8.31c2.18,16.81-13.32,42.25-30.73,50.38l-4.47-7.32C930.37,364.82,939.39,350.46,941.12,331.64Z"/><path class="cls-3" d="M913.06,282.25c-16.87-8.26-33.52-8.17-50.35,0a59.6,59.6,0,0,1,.64-8.41,4.86,4.86,0,0,1,2.82-2.82,62.45,62.45,0,0,1,43.21-.19c2.35.82,3.37,2,3.2,4.54A51.5,51.5,0,0,0,913.06,282.25Z"/><path class="cls-6" d="M776.48,460.23h6.4V494.7h-6.26L758.9,471V494.7h-6.45V460.23h6.25L776.48,484Z"/><path class="cls-6" d="M810.44,471.75q3.18,3.59,3.18,10.1,0,1.28,0,1.92H794.11a7.34,7.34,0,0,0,7.54,6,10,10,0,0,0,3.87-.76,9.47,9.47,0,0,0,3.23-2.19l3.45,3.59a13.31,13.31,0,0,1-4.8,3.35,16.15,16.15,0,0,1-6.28,1.18,14.66,14.66,0,0,1-7.12-1.67,11.69,11.69,0,0,1-4.75-4.7,15.29,15.29,0,0,1,0-14,12,12,0,0,1,4.75-4.75,14,14,0,0,1,6.94-1.7Q807.26,468.16,810.44,471.75Zm-2.68,7.73a6.39,6.39,0,0,0-1.92-4.63,7.49,7.49,0,0,0-9.53,0,7.5,7.5,0,0,0-2.34,4.65Z"/><path class="cls-6" d="M833.41,493.08a12.49,12.49,0,0,1-6.6,1.92,7.9,7.9,0,0,1-5.56-2,7.6,7.6,0,0,1-2.17-5.89v-13h-3.69l0-4.68h3.74V462.2h6.35v7.24H833v4.68h-7.54V486a3.84,3.84,0,0,0,.69,2.59,2.64,2.64,0,0,0,2.07.76,9.16,9.16,0,0,0,3.74-1.08Z"/><path class="cls-6" d="M833.26,468.41l6.6-.05,6.45,19.9,6.26-19.9H859l6.35,19.9,6.3-19.9h6.45l-9.55,26.35H862l-6.3-18.57-6.25,18.57h-6.55Z"/><path class="cls-6" d="M898.54,469.83a12.12,12.12,0,0,1,4.88,4.7,13.69,13.69,0,0,1,1.75,7,13.92,13.92,0,0,1-1.75,7,12.06,12.06,0,0,1-4.88,4.73,15.06,15.06,0,0,1-7.21,1.67,15.31,15.31,0,0,1-7.29-1.67,12,12,0,0,1-4.9-4.73,13.92,13.92,0,0,1-1.75-7,13.69,13.69,0,0,1,1.75-7,12.08,12.08,0,0,1,4.9-4.7,15.31,15.31,0,0,1,7.29-1.68A15.06,15.06,0,0,1,898.54,469.83Zm-12.63,6a9.06,9.06,0,0,0,0,11.52,7.06,7.06,0,0,0,5.42,2.22,7,7,0,0,0,5.32-2.22,9.06,9.06,0,0,0,0-11.52,7,7,0,0,0-5.32-2.22A7.06,7.06,0,0,0,885.91,475.84Z"/><path class="cls-6" d="M919.62,469.51a10.67,10.67,0,0,1,5.34-1.4v6.2a8.7,8.7,0,0,0-6.52,1.9A7.31,7.31,0,0,0,916,482V494.7h-6.4V468.36H916v5.07A9.53,9.53,0,0,1,919.62,469.51Z"/><path class="cls-6" d="M946.14,494.7,939,483.18l-4,4.24v7.29h-6.4V458.16H935v21.18l10.84-10.93h7.39l-9.75,10.15,10.34,16.15Z"/><path class="cls-6" d="M962.73,458.11a3.83,3.83,0,0,1,1,2.76,3.77,3.77,0,0,1-1,2.71,3.68,3.68,0,0,1-5.22,0,3.77,3.77,0,0,1-1-2.71,3.83,3.83,0,0,1,1-2.76,3.68,3.68,0,0,1,5.22,0ZM957,468.36h6.4V494.7H957Z"/><path class="cls-6" d="M993.17,470.84a10.28,10.28,0,0,1,2.61,7.41V494.7h-6.45V480.13a5.94,5.94,0,0,0-1.58-4.36,5.75,5.75,0,0,0-4.28-1.6,6.49,6.49,0,0,0-5,2.17,7.94,7.94,0,0,0-1.85,5.42v13h-6.4V468.36h6.4v4.93q2.71-5.07,9.46-5.17A9.4,9.4,0,0,1,993.17,470.84Z"/><path class="cls-6" d="M1025.92,468.36v23.84a12.28,12.28,0,0,1-1.7,6.52,11.17,11.17,0,0,1-4.83,4.29,16.62,16.62,0,0,1-7.26,1.5A19.35,19.35,0,0,1,1001,501l2.56-4.63a13.57,13.57,0,0,0,8.23,2.76,8.29,8.29,0,0,0,5.64-1.82,6.25,6.25,0,0,0,2.09-5v-3.1a8.76,8.76,0,0,1-3.45,3.08,10.87,10.87,0,0,1-4.93,1.06,11.61,11.61,0,0,1-6.11-1.6,10.91,10.91,0,0,1-4.14-4.48,14.31,14.31,0,0,1-1.48-6.62,13.91,13.91,0,0,1,1.48-6.53,10.83,10.83,0,0,1,4.14-4.41,11.75,11.75,0,0,1,6.11-1.58,10.72,10.72,0,0,1,4.9,1.08,9,9,0,0,1,3.47,3.05v-3.94Zm-8.35,17.9a8.59,8.59,0,0,0,0-10.88,7.1,7.1,0,0,0-10.1,0,8.39,8.39,0,0,0,0,10.86,7.14,7.14,0,0,0,10.1,0Z"/><path class="cls-3" d="M298.77,774.77c-8.78,10.89-17.62,10.81-25.49-.39-8.54,4.55-17.31,8.94-25.71,13.94-1.57.94-1.5,4.41-2.54,6.54a32.11,32.11,0,0,1-3.31,4.6c-.94-1.67-2.6-3.29-2.7-5-.34-6,2.26-10.5,7.91-13.26,7.79-3.81,15.44-7.92,23.14-11.9,4.44-2.29,4.41-3.36,1.94-7.47a27.54,27.54,0,0,1-4-10.51,86.3,86.3,0,0,1,0-16.52,17.89,17.89,0,0,1,17.59-16.61c9-.26,17.21,6.12,18.27,15.25a101.64,101.64,0,0,1,0,20c-.24,2.93-2.14,5.9-3.84,8.49-2.6,4-2.46,5.33,1.89,7.61,7.83,4.1,15.75,8.06,23.51,12.3,5.95,3.25,8.22,7.77,7.14,14.07-.22,1.25-1.82,2.26-2.79,3.38-1.06-1.07-3.12-2.26-3-3.19.75-6.47-3.6-8.74-8.25-11.07C312,781.76,305.53,778.3,298.77,774.77Zm-24.55-31.2H274c0,2.5-.13,5,0,7.49.36,5.79,5.4,11.23,10.94,12,4.8.65,11.86-3.88,12.5-9.43a87.72,87.72,0,0,0-.14-20.79c-.67-5.38-6.65-8.93-12-8.54a11.64,11.64,0,0,0-11.1,10.31A82.58,82.58,0,0,0,274.22,743.58Zm3.88,24.62c1.85,3.14,2.64,6.19,4.52,7.21a8.63,8.63,0,0,0,7.25-.3c1.72-1,2.32-3.93,3.93-7-3.67.56-5.6,1.09-7.53,1.08C284.16,769.21,282.06,768.72,278.1,768.19Z"/><path class="cls-3" d="M405.46,774.82c-8.31,11.33-19.11,10-25.62-.36-8.24,4.33-16.67,8.42-24.67,13.21-1.9,1.14-2.31,4.67-3.55,7-.89,1.67-2,3.19-3.07,4.78-1-1.57-2.77-3.07-2.91-4.71-.51-6,2-10.59,7.64-13.39,7.77-3.88,15.44-8,23.16-11.93,4.85-2.49,4.74-3.35,2.09-7.81a29.82,29.82,0,0,1-3.81-11c-.64-4.76-.21-9.68-.13-14.53A17.85,17.85,0,0,1,392,718.2c9.29-.44,17.93,6.58,18.75,16a112.13,112.13,0,0,1-.08,19c-.23,2.81-1.86,5.72-3.49,8.15-3.2,4.76-3.07,5.92,2.15,8.61q11.35,5.86,22.7,11.74c5.55,2.86,8,7.47,7.24,13.58-.18,1.44-1.74,2.7-2.66,4-1.13-1.19-3.31-2.49-3.21-3.56.58-6-3.22-8.23-7.61-10.43C418.9,781.93,412.17,778.31,405.46,774.82Zm-.68-31.18h0c0-2.67.15-5.34,0-8a12.22,12.22,0,0,0-11.81-11.37,11.9,11.9,0,0,0-12.2,11.39c-.25,5.15-.2,10.33,0,15.49.22,6.09,6.26,12,12,11.95s11.72-5.9,12.07-12C404.9,748.65,404.78,746.14,404.78,743.64ZM399,768.82H386.35c-.39,4.78,1.94,7.74,6.27,7.79S399.32,773.68,399,768.82Z"/><path class="cls-3" d="M373.67,704.44c-3.94,0-7.41-.09-10.88,0s-4.9-1.3-4.88-4.72q.1-16.53,0-33.06c0-3.62,1.54-5,5.17-5q26.79.16,53.59,0c3.45,0,4.9,1.33,4.89,4.68,0,11.18-.07,22.37,0,33.55,0,3.18-1.38,4.54-4.52,4.51-6.51-.07-13-.28-19.53.11A14.82,14.82,0,0,0,390,707.4c-3.74,2.76-6.92,6.28-10.52,9.24-1,.81-3,1.41-3.94.95s-1.7-2.34-1.82-3.66C373.49,711,373.67,708,373.67,704.44Zm-9.32-7c5.6,3.24,17.39-5.05,15.54,10.23a36.17,36.17,0,0,0,4-3.43c4.22-5,9.49-6.72,16-6.1,5,.48,10.17.1,15.16.1V668.17H364.35Z"/><path class="cls-3" d="M292.16,698.16a88,88,0,0,1-.09,8.95c-.16,1.49-.85,3.55-1.93,4.11s-3.47-.23-4.2-1.22c-9-12.29-21.68-13-35.22-12-6.44.5-6.53,0-6.54-6.2,0-10.36.14-20.71-.07-31.07-.08-3.94,1.29-5.29,5.21-5.26q26.56.21,53.11,0c3.89,0,5.31,1.3,5.23,5.25-.2,10.69-.22,21.38,0,32.06.1,4.32-1.65,5.63-5.63,5.36C299,698,295.82,698.16,292.16,698.16Zm9.14-36H250.72v29.67c12.24,1.21,25.84-4.27,34.88,10.85a36.28,36.28,0,0,0,.34-4.45c-.55-4.8,1.5-6.76,6.32-6.3,2.92.28,5.89.05,9,.05Z"/><path class="cls-3" d="M389.8,686.87c4.67,0,9.35-.24,14,.14,1.47.12,2.81,1.9,4.2,2.91-1.4,1-2.77,2.92-4.2,3q-14.49.39-29,0c-1.42,0-2.78-1.93-4.18-3,1.39-1,2.73-2.82,4.19-2.92,5-.37,10-.14,15-.14Z"/><path class="cls-3" d="M382.76,680.37a61.61,61.61,0,0,1-9-.14c-1.16-.17-2.08-2-3.12-3,1-.93,2-2.62,3-2.66,6.33-.25,12.67-.25,19,0a2.81,2.81,0,0,1,.1,5.61,89.92,89.92,0,0,1-10,.14Z"/><path class="cls-3" d="M276.46,668c4.83,0,9.68-.24,14.47.15,1.52.12,2.91,1.94,4.36,3-1.48,1-2.93,2.75-4.43,2.79q-14.48.38-29,0c-1.45,0-2.86-1.86-4.28-2.86,1.45-1,2.85-2.81,4.37-2.93C266.79,667.75,271.63,668,276.46,668Z"/><path class="cls-3" d="M270.12,680.71a67,67,0,0,1,9,.13c1.22.17,2.24,1.78,3.35,2.74-.9,1-1.76,2.94-2.7,3-6.5.26-13,.26-19.51,0-.93,0-2.47-2-2.46-3.06s1.72-2.51,2.82-2.63a83.66,83.66,0,0,1,9.5-.13Z"/><path class="cls-6" d="M148.3,843.26h28.12v5.86H165.68v28.61H159V849.12H148.3Z"/><path class="cls-6" d="M194.84,877.73v-3.2a8.62,8.62,0,0,1-3.55,2.61,13.05,13.05,0,0,1-5,.89,10.6,10.6,0,0,1-4.85-1.06,7.75,7.75,0,0,1-3.23-2.93,7.92,7.92,0,0,1-1.13-4.18,7,7,0,0,1,2.61-5.79q2.61-2.09,7.39-2.14h7.68v-.69a4.44,4.44,0,0,0-1.53-3.6,6.73,6.73,0,0,0-4.43-1.28,15.22,15.22,0,0,0-7.83,2.46l-2.31-4.43a29.15,29.15,0,0,1,5.64-2.49,20.64,20.64,0,0,1,5.93-.76q5.12,0,8,2.46a8.79,8.79,0,0,1,2.88,6.9l0,17.24Zm-2.27-5.93a4.54,4.54,0,0,0,2.22-3.23v-2.36h-6.65a7.23,7.23,0,0,0-3.77.76,2.72,2.72,0,0,0-1.21,2.49,3.2,3.2,0,0,0,1.25,2.66,5.4,5.4,0,0,0,3.42,1A8.36,8.36,0,0,0,192.57,871.8Z"/><path class="cls-6" d="M207.44,841.19h6.4v36.54h-6.4Z"/><path class="cls-6" d="M238.77,877.73l-7.14-11.52-4,4.24v7.29h-6.4V841.19h6.4v21.18l10.84-10.93h7.39l-9.75,10.15,10.34,16.15Z"/><path class="cls-6" d="M275.95,876.1a12.49,12.49,0,0,1-6.6,1.92,7.9,7.9,0,0,1-5.56-2,7.6,7.6,0,0,1-2.17-5.89v-13h-3.69l0-4.68h3.74v-7.24H268v7.24h7.54v4.68H268V869a3.84,3.84,0,0,0,.69,2.59,2.64,2.64,0,0,0,2.07.76,9.16,9.16,0,0,0,3.74-1.08Z"/><path class="cls-6" d="M298.33,852.86a12.12,12.12,0,0,1,4.88,4.7,13.69,13.69,0,0,1,1.75,7,13.92,13.92,0,0,1-1.75,7,12.06,12.06,0,0,1-4.88,4.73,15.06,15.06,0,0,1-7.21,1.67,15.31,15.31,0,0,1-7.29-1.67,12,12,0,0,1-4.9-4.73,13.92,13.92,0,0,1-1.75-7,13.69,13.69,0,0,1,1.75-7,12.08,12.08,0,0,1,4.9-4.7,15.31,15.31,0,0,1,7.29-1.68A15.06,15.06,0,0,1,298.33,852.86Zm-12.63,6a9.06,9.06,0,0,0,0,11.52,7.06,7.06,0,0,0,5.42,2.22,7,7,0,0,0,5.32-2.22,9.06,9.06,0,0,0,0-11.52,7,7,0,0,0-5.32-2.22A7.06,7.06,0,0,0,285.7,858.87Z"/><path class="cls-6" d="M339.06,852.86a12.12,12.12,0,0,1,4.88,4.7,13.69,13.69,0,0,1,1.75,7,13.92,13.92,0,0,1-1.75,7,12.06,12.06,0,0,1-4.88,4.73,15.06,15.06,0,0,1-7.21,1.67,15.31,15.31,0,0,1-7.29-1.67,12,12,0,0,1-4.9-4.73,13.92,13.92,0,0,1-1.75-7,13.69,13.69,0,0,1,1.75-7,12.08,12.08,0,0,1,4.9-4.7,15.31,15.31,0,0,1,7.29-1.68A15.06,15.06,0,0,1,339.06,852.86Zm-12.63,6a9.06,9.06,0,0,0,0,11.52,7.06,7.06,0,0,0,5.42,2.22,7,7,0,0,0,5.32-2.22,9.06,9.06,0,0,0,0-11.52,7,7,0,0,0-5.32-2.22A7.06,7.06,0,0,0,326.43,858.87Z"/><path class="cls-6" d="M374.44,851.38v26.35H368v-4.87q-2.66,5.12-9.16,5.12a9.17,9.17,0,0,1-7-2.71,10.32,10.32,0,0,1-2.56-7.39v-16.5h6.45V866a6,6,0,0,0,1.5,4.33,5.47,5.47,0,0,0,4.16,1.57,6.1,6.1,0,0,0,4.83-2.17,8.08,8.08,0,0,0,1.77-5.37v-13Z"/><path class="cls-6" d="M391.31,852.54a10.67,10.67,0,0,1,5.34-1.4v6.2a8.7,8.7,0,0,0-6.52,1.9,7.31,7.31,0,0,0-2.44,5.79v12.71h-6.4V851.38h6.4v5.07A9.53,9.53,0,0,1,391.31,852.54Z"/><path class="cls-6" d="M426.35,876.1a12.49,12.49,0,0,1-6.6,1.92,7.9,7.9,0,0,1-5.56-2,7.6,7.6,0,0,1-2.17-5.89v-13h-3.69l0-4.68H412v-7.24h6.35v7.24h7.54v4.68h-7.54V869a3.84,3.84,0,0,0,.69,2.59,2.64,2.64,0,0,0,2.07.76,9.16,9.16,0,0,0,3.74-1.08Z"/><path class="cls-6" d="M450.46,854.78q3.18,3.59,3.18,10.1,0,1.28,0,1.92H434.13a7.34,7.34,0,0,0,7.54,6,10,10,0,0,0,3.87-.76,9.47,9.47,0,0,0,3.23-2.19l3.45,3.59a13.31,13.31,0,0,1-4.8,3.35,16.15,16.15,0,0,1-6.28,1.18A14.66,14.66,0,0,1,434,876.3a11.69,11.69,0,0,1-4.75-4.7,15.29,15.29,0,0,1,0-14,12,12,0,0,1,4.75-4.75,14,14,0,0,1,6.94-1.7Q447.28,851.18,450.46,854.78Zm-2.68,7.73a6.39,6.39,0,0,0-1.92-4.63,7.49,7.49,0,0,0-9.53,0,7.5,7.5,0,0,0-2.34,4.65Z"/><path class="cls-6" d="M473.58,877.73v-3.2a8.62,8.62,0,0,1-3.55,2.61,13.05,13.05,0,0,1-5,.89,10.6,10.6,0,0,1-4.85-1.06A7.75,7.75,0,0,1,457,874a7.92,7.92,0,0,1-1.13-4.18,7,7,0,0,1,2.61-5.79q2.61-2.09,7.39-2.14h7.68v-.69a4.44,4.44,0,0,0-1.53-3.6,6.73,6.73,0,0,0-4.43-1.28,15.22,15.22,0,0,0-7.83,2.46l-2.31-4.43a29.15,29.15,0,0,1,5.64-2.49,20.64,20.64,0,0,1,5.93-.76q5.12,0,8,2.46a8.79,8.79,0,0,1,2.88,6.9l0,17.24Zm-2.27-5.93a4.54,4.54,0,0,0,2.22-3.23v-2.36h-6.65a7.23,7.23,0,0,0-3.77.76,2.72,2.72,0,0,0-1.21,2.49,3.2,3.2,0,0,0,1.25,2.66,5.4,5.4,0,0,0,3.42,1A8.36,8.36,0,0,0,471.31,871.8Z"/><path class="cls-6" d="M527.51,853.87a10.41,10.41,0,0,1,2.56,7.41v16.45h-6.45V863.15a6.07,6.07,0,0,0-1.55-4.41,5.59,5.59,0,0,0-4.21-1.6,6.31,6.31,0,0,0-4.85,2.22,8,8,0,0,0-1.8,5.37v13h-6.45V863.15a6.13,6.13,0,0,0-1.53-4.41,5.51,5.51,0,0,0-4.19-1.6,6.37,6.37,0,0,0-4.9,2.22,8,8,0,0,0-1.8,5.37v13h-6.4V851.38h6.4v4.88q2.61-5,9.26-5.12a9.78,9.78,0,0,1,5.79,1.65,8.64,8.64,0,0,1,3.27,4.65q2.51-6.21,9.8-6.3A9.18,9.18,0,0,1,527.51,853.87Z"/><path class="cls-6" d="M726.54,1202.36h23.79l0,5.76H733.14v9.31h15.61v5.76H733.14v13.64h-6.6Z"/><path class="cls-6" d="M772.61,1212a12.12,12.12,0,0,1,4.88,4.7,13.69,13.69,0,0,1,1.75,7,13.92,13.92,0,0,1-1.75,7,12.06,12.06,0,0,1-4.88,4.73,15.06,15.06,0,0,1-7.21,1.67,15.31,15.31,0,0,1-7.29-1.67,12,12,0,0,1-4.9-4.73,13.92,13.92,0,0,1-1.75-7,13.69,13.69,0,0,1,1.75-7,12.08,12.08,0,0,1,4.9-4.7,15.31,15.31,0,0,1,7.29-1.68A15.06,15.06,0,0,1,772.61,1212ZM760,1218a9.06,9.06,0,0,0,0,11.52,7.06,7.06,0,0,0,5.42,2.22,7,7,0,0,0,5.32-2.22,9.06,9.06,0,0,0,0-11.52,7,7,0,0,0-5.32-2.22A7.06,7.06,0,0,0,760,1218Z"/><path class="cls-6" d="M802.41,1212a12.12,12.12,0,0,1,4.88,4.7,13.69,13.69,0,0,1,1.75,7,13.92,13.92,0,0,1-1.75,7,12.06,12.06,0,0,1-4.88,4.73,15.06,15.06,0,0,1-7.21,1.67,15.31,15.31,0,0,1-7.29-1.67,12,12,0,0,1-4.9-4.73,13.92,13.92,0,0,1-1.75-7,13.69,13.69,0,0,1,1.75-7,12.08,12.08,0,0,1,4.9-4.7,15.31,15.31,0,0,1,7.29-1.68A15.06,15.06,0,0,1,802.41,1212Zm-12.63,6a9.06,9.06,0,0,0,0,11.52,7.06,7.06,0,0,0,5.42,2.22,7,7,0,0,0,5.32-2.22,9.06,9.06,0,0,0,0-11.52,7,7,0,0,0-5.32-2.22A7.06,7.06,0,0,0,789.78,1218Z"/><path class="cls-6" d="M825.11,1215.86a12.66,12.66,0,0,0-3.77-.64,5.1,5.1,0,0,0-2.59.57,1.89,1.89,0,0,0-1,1.75,2.07,2.07,0,0,0,1.21,1.9,19.5,19.5,0,0,0,3.82,1.4,36.75,36.75,0,0,1,4.53,1.65,8.51,8.51,0,0,1,3.08,2.41,6.45,6.45,0,0,1,1.31,4.21,6.78,6.78,0,0,1-3,5.91,12.66,12.66,0,0,1-7.44,2.07,18.84,18.84,0,0,1-6-1,14,14,0,0,1-4.92-2.73l2.22-4.48a12.91,12.91,0,0,0,4.24,2.39,14.11,14.11,0,0,0,4.68.86,5.61,5.61,0,0,0,2.83-.62,2,2,0,0,0,1.06-1.85,2.23,2.23,0,0,0-1.23-2.07,21.73,21.73,0,0,0-4-1.53,33.75,33.75,0,0,1-4.33-1.55,7.81,7.81,0,0,1-2.91-2.31,6.34,6.34,0,0,1-1.23-4.06,6.87,6.87,0,0,1,2.83-5.94,11.86,11.86,0,0,1,7.12-2,18.32,18.32,0,0,1,5.15.74,16,16,0,0,1,4.51,2.07l-2.31,4.63A18.88,18.88,0,0,0,825.11,1215.86Z"/><path class="cls-6" d="M858.11,1212a11.47,11.47,0,0,1,4.38,4.75,15.34,15.34,0,0,1,1.55,7,15.13,15.13,0,0,1-1.53,6.94,11.26,11.26,0,0,1-4.33,4.68,12.45,12.45,0,0,1-6.5,1.67,11.29,11.29,0,0,1-5.22-1.16,9.8,9.8,0,0,1-3.74-3.37v4.29h-6.4v-36.54h6.4v14.53a9.52,9.52,0,0,1,3.67-3.37,11.19,11.19,0,0,1,5.2-1.16A12.42,12.42,0,0,1,858.11,1212Zm-2.63,17.34a8.13,8.13,0,0,0,2.07-5.74,8,8,0,0,0-2.07-5.71,7.55,7.55,0,0,0-10.69,0,9,9,0,0,0,0,11.47,7,7,0,0,0,5.37,2.22A6.91,6.91,0,0,0,855.47,1229.32Z"/><path class="cls-6" d="M884,1236.83v-3.2a8.62,8.62,0,0,1-3.55,2.61,13.05,13.05,0,0,1-5,.89,10.6,10.6,0,0,1-4.85-1.06,7.75,7.75,0,0,1-3.23-2.93,7.92,7.92,0,0,1-1.13-4.18,7,7,0,0,1,2.61-5.79q2.61-2.09,7.39-2.14H884v-.69a4.44,4.44,0,0,0-1.53-3.6,6.73,6.73,0,0,0-4.43-1.28,15.22,15.22,0,0,0-7.83,2.46l-2.31-4.43a29.15,29.15,0,0,1,5.64-2.49,20.64,20.64,0,0,1,5.93-.76q5.12,0,8,2.46a8.79,8.79,0,0,1,2.88,6.9l0,17.24Zm-2.27-5.93a4.54,4.54,0,0,0,2.22-3.23v-2.36h-6.65a7.23,7.23,0,0,0-3.77.76,2.72,2.72,0,0,0-1.21,2.49,3.2,3.2,0,0,0,1.25,2.66,5.4,5.4,0,0,0,3.42,1A8.36,8.36,0,0,0,881.77,1230.9Z"/><path class="cls-6" d="M896.64,1200.29H903v36.54h-6.4Z"/><path class="cls-6" d="M910.38,1200.29h6.4v36.54h-6.4Z"/><path class="cls-6" d="M950.22,1235.21a12.49,12.49,0,0,1-6.6,1.92,7.9,7.9,0,0,1-5.56-2,7.6,7.6,0,0,1-2.17-5.89v-13H932.2l0-4.68h3.74v-7.24h6.35v7.24h7.54v4.68h-7.54v11.87a3.84,3.84,0,0,0,.69,2.59,2.64,2.64,0,0,0,2.07.76,9.16,9.16,0,0,0,3.74-1.08Z"/><path class="cls-6" d="M969.68,1236.83v-3.2a8.62,8.62,0,0,1-3.55,2.61,13.05,13.05,0,0,1-5,.89,10.6,10.6,0,0,1-4.85-1.06,7.75,7.75,0,0,1-3.23-2.93,7.92,7.92,0,0,1-1.13-4.18,7,7,0,0,1,2.61-5.79q2.61-2.09,7.39-2.14h7.68v-.69a4.44,4.44,0,0,0-1.53-3.6,6.73,6.73,0,0,0-4.43-1.28,15.22,15.22,0,0,0-7.83,2.46l-2.31-4.43a29.15,29.15,0,0,1,5.64-2.49,20.64,20.64,0,0,1,5.93-.76q5.12,0,8,2.46a8.79,8.79,0,0,1,2.88,6.9l0,17.24Zm-2.27-5.93a4.54,4.54,0,0,0,2.22-3.23v-2.36H963a7.23,7.23,0,0,0-3.77.76,2.72,2.72,0,0,0-1.21,2.49,3.2,3.2,0,0,0,1.25,2.66,5.4,5.4,0,0,0,3.42,1A8.36,8.36,0,0,0,967.41,1230.9Z"/><path class="cls-6" d="M1004.08,1212a11.47,11.47,0,0,1,4.38,4.75,15.34,15.34,0,0,1,1.55,7,15.13,15.13,0,0,1-1.53,6.94,11.26,11.26,0,0,1-4.33,4.68,12.45,12.45,0,0,1-6.5,1.67,11.29,11.29,0,0,1-5.22-1.16,9.8,9.8,0,0,1-3.74-3.37v4.29h-6.4v-36.54h6.4v14.53a9.52,9.52,0,0,1,3.67-3.37,11.19,11.19,0,0,1,5.2-1.16A12.42,12.42,0,0,1,1004.08,1212Zm-2.63,17.34a8.13,8.13,0,0,0,2.07-5.74,8,8,0,0,0-2.07-5.71,7.55,7.55,0,0,0-10.69,0,9,9,0,0,0,0,11.47,7,7,0,0,0,5.37,2.22A6.91,6.91,0,0,0,1001.44,1229.32Z"/><path class="cls-6" d="M1014.69,1200.29h6.4v36.54h-6.4Z"/><path class="cls-6" d="M1048.65,1213.88q3.18,3.59,3.18,10.1,0,1.28,0,1.92h-19.45a7.34,7.34,0,0,0,7.54,6,10,10,0,0,0,3.87-.76,9.47,9.47,0,0,0,3.23-2.19l3.45,3.59a13.31,13.31,0,0,1-4.8,3.35,16.15,16.15,0,0,1-6.28,1.18,14.66,14.66,0,0,1-7.12-1.67,11.69,11.69,0,0,1-4.75-4.7,15.29,15.29,0,0,1,0-14,12,12,0,0,1,4.75-4.75,14,14,0,0,1,6.94-1.7Q1045.47,1210.29,1048.65,1213.88Zm-2.68,7.73A6.39,6.39,0,0,0,1044,1217a7.49,7.49,0,0,0-9.53,0,7.5,7.5,0,0,0-2.34,4.65Z"/><path class="cls-3" d="M939.5,1007.4h3.38c6.46,3.06,9.07,11.77,4.17,15.92-3.81,3.23-2.5,6.56-2.64,10.36h6.38c7.68,0,9.37,1.65,9.37,9.24q0,40.47,0,80.93c0,.9,0,1.8,0,2.7-.35,4.32-2.62,6.46-7,6.53-2.88,0-5.76,0-9.44,0,.62,3.29.21,6.91,1.82,8.56,6,6.19,5.14,14-2.65,17.72H939.5c-6.33-3.26-8.89-11.55-4.17-15.72,3.66-3.23,2.6-6.6,2.71-10.29H909.17c.48,3,0,6.5,1.5,8.18,6.08,6.75,5.48,13.59-2.24,17.82h-4.05c-6.23-3.8-8.4-11.8-3.62-15.92,3.71-3.2,2.74-6.48,2.62-10.11h-29c.45,3-.1,6.52,1.41,8.15,6.2,6.73,5.81,13.24-1.8,17.88h-4.05c-6.38-3.5-8.74-11.56-4-15.8,3.59-3.21,2.79-6.51,2.6-10.3H839.84c.46,3-.09,6.62,1.46,8.33,6.07,6.67,5.37,13.77-2.44,17.77h-3.38c-6.46-3.06-9.07-11.77-4.17-15.92,3.81-3.23,2.5-6.56,2.64-10.36h-6.38c-7.68,0-9.37-1.65-9.37-9.24q0-40.46,0-80.93c0-.9,0-1.8,0-2.7.35-4.32,2.62-6.46,7-6.54,2.88,0,5.76,0,9.44,0-.62-3.28-.2-6.9-1.81-8.55-6-6.2-5.15-14,2.65-17.72h3.38c6.31,3.23,8.87,11.56,4.17,15.72-3.66,3.23-2.6,6.6-2.71,10.29h28.87c-.48-3,0-6.5-1.5-8.18-6.08-6.75-5.48-13.61,2.24-17.82H874c6.23,3.8,8.4,11.8,3.62,15.92-3.71,3.2-2.73,6.48-2.62,10.1h29c-.45-3,.1-6.52-1.41-8.14-6.19-6.67-5.79-13.25,1.81-17.88h4.05c6.32,3.45,8.71,11.62,4,15.8-3.61,3.2-2.79,6.51-2.61,10.29h28.71c-.46-3,.09-6.62-1.46-8.33C931,1018.5,931.69,1011.4,939.5,1007.4Zm-115.19,45.75h3.8c8,0,16,0,24,0,4.36,0,6.1,1.58,6.12,5.78q.1,24.47,0,48.94c0,4.07-1.75,5.68-5.84,5.71-8.1.05-16.2,0-24.3,0h-3.74v13.16H886V1101c-9.06-2.75-14.13-8.6-14.6-16.65-.49-8.48,4-14.25,14.59-18.9v-25.56H824.31Zm68,73.69H954v-13.23h-3.81c-8,0-16,0-24,0-4.36,0-6.1-1.58-6.12-5.78q-.1-24.47,0-48.93c0-4.07,1.75-5.68,5.84-5.71,8.1-.05,16.2,0,24.3,0H954V1040H892.41v25.74c8.9,2.69,14.41,8.78,14.55,16.67.18,10-5.34,16-14.65,18.74Zm-40.22-67.63H824.36v48.28h27.73Zm102.06,0h-27.8v48.26h27.8Zm-68.11,13c-6,1.94-9.12,6.61-8.61,12.41.43,4.91,4.18,9.12,8.61,9.64Zm6.3,22.13c5.29-1,8.84-5.77,8.63-11.54-.19-5.24-4-9.8-8.63-10.26ZM840,1016.89l-2.87-3.36c-.72,1.06-2,2.12-2,3.19s1.21,2.23,1.89,3.35Zm28.92-.07,2.92,3.24c.68-1.1,1.89-2.21,1.89-3.31s-1.24-2.15-1.94-3.22Zm40.48.17-2.78-3.45c-.73,1-2,2.08-2,3.13s1.15,2.26,1.8,3.39Zm34.86,0-2.87-3.47c-.72,1-2,2.06-2,3.11s1.1,2.28,1.72,3.43Zm-110.2,133.11,3.09,3.11c.65-1.11,1.82-2.23,1.8-3.33s-1.24-2.14-1.94-3.21Zm40.75-.33-3.11-3.11c-.62,1.13-1.73,2.28-1.7,3.4s1.24,2.09,1.94,3.13Zm34.59,0-3-3.11c-.66,1.13-1.84,2.26-1.82,3.37s1.29,2.1,2,3.15Zm28.92.22,3,3.19c.69-1.09,1.93-2.19,1.92-3.27s-1.27-2.18-2-3.27Z"/></svg>