<svg id="Layer_1" data-name="Layer 1" xmlns="http://www.w3.org/2000/svg" viewBox="0 0 1281 619"><defs><style>.cls-1{fill:#62b2b2;}.cls-2{fill:#fff;}.cls-3,.cls-4,.cls-5{fill:#606060;}.cls-4,.cls-5{stroke:#fff;}.cls-4,.cls-5,.cls-6{stroke-miterlimit:10;}.cls-4{stroke-width:3px;}.cls-6{fill:none;stroke:#606060;stroke-width:4px;}.cls-7{fill:#4e3837;}</style></defs><title>menu section</title><rect class="cls-1" y="16" width="1280" height="79"/><path class="cls-2" d="M134.43,73l3.23-22.65L128.17,73h-6.92l1-22.75L113.84,73h-4l12.8-34.64a11.65,11.65,0,0,0-5.88,4.12,11.84,11.84,0,0,0-2.12,7.23,9.33,9.33,0,0,0,.11,1.61,6.92,6.92,0,0,0,.23,1,3,3,0,0,0,.23.54.69.69,0,0,1,.11.36,9.31,9.31,0,0,1-2.23-.25,4.51,4.51,0,0,1-1.7-.79,3.53,3.53,0,0,1-1.08-1.42,5.31,5.31,0,0,1-.38-2.13,8.61,8.61,0,0,1,.65-3.23,13.15,13.15,0,0,1,1.8-3.11,17.55,17.55,0,0,1,2.7-2.78,19.91,19.91,0,0,1,3.34-2.25,18.16,18.16,0,0,1,3.72-1.5,14.25,14.25,0,0,1,3.85-.54,10.88,10.88,0,0,1,3.82.71l-1.16,26.56,11.1-26.56H147L141.69,73Z"/><path class="cls-2" d="M167.19,64a28.78,28.78,0,0,1-2.43,3.45,18.22,18.22,0,0,1-3.08,3,15.23,15.23,0,0,1-3.79,2.1,12.63,12.63,0,0,1-4.57.8,10.83,10.83,0,0,1-3.25-.46,6.42,6.42,0,0,1-2.49-1.42A6.23,6.23,0,0,1,146,68.94a10.69,10.69,0,0,1-.55-3.66,22,22,0,0,1,.3-3.35,25.58,25.58,0,0,1,.94-3.89,22,22,0,0,1,1.7-3.92,15.41,15.41,0,0,1,2.56-3.43,11.85,11.85,0,0,1,3.52-2.44,10.94,10.94,0,0,1,4.6-.92,7.94,7.94,0,0,1,2.77.41,4.47,4.47,0,0,1,1.7,1.07,3.55,3.55,0,0,1,.86,1.54,7,7,0,0,1,.23,1.81,8.84,8.84,0,0,1-1,4.08,10.86,10.86,0,0,1-2.57,3.29,13.32,13.32,0,0,1-3.71,2.26,13.7,13.7,0,0,1-4.36,1c0,.38-.06.73-.09,1.07s0,.65,0,.95a7.88,7.88,0,0,0,.23,2.11,3,3,0,0,0,.69,1.29,2.43,2.43,0,0,0,1.13.65,6.07,6.07,0,0,0,1.59.18,8.82,8.82,0,0,0,2.72-.39,9.51,9.51,0,0,0,2.28-1.08,12.83,12.83,0,0,0,2-1.62q.95-.94,1.91-2Zm-13.76-3.57a6.75,6.75,0,0,0,2.76-.81,8.4,8.4,0,0,0,2.34-1.86,9.22,9.22,0,0,0,1.61-2.61,7.92,7.92,0,0,0,.6-3,3.51,3.51,0,0,0-.27-1.5,1,1,0,0,0-1-.57,2.69,2.69,0,0,0-1.88.92,10.6,10.6,0,0,0-1.74,2.4,20.61,20.61,0,0,0-1.44,3.34A29.51,29.51,0,0,0,153.43,60.39Z"/><path class="cls-2" d="M193,64a22,22,0,0,1-2.28,4.95,11.79,11.79,0,0,1-2.46,2.82A6.58,6.58,0,0,1,185.87,73a9.21,9.21,0,0,1-2.2.3,7.2,7.2,0,0,1-2.81-.48A4.86,4.86,0,0,1,179,71.53a4.94,4.94,0,0,1-1-1.82,7.25,7.25,0,0,1-.31-2.1,14.91,14.91,0,0,1,.36-3q.36-1.71.78-3.51t.78-3.47a14.14,14.14,0,0,0,.36-2.88q0-2.58-1.82-2.58a2.37,2.37,0,0,0-1.28.37,4.27,4.27,0,0,0-1.08,1,7.51,7.51,0,0,0-.89,1.48,14.27,14.27,0,0,0-.69,1.81L170.81,73h-7.26l5.34-25.21h7.26l-.54,2.61a9.29,9.29,0,0,1,1.61-1.46,7.57,7.57,0,0,1,1.56-.85,6.69,6.69,0,0,1,1.44-.39,8.87,8.87,0,0,1,1.27-.1,7.56,7.56,0,0,1,2.24.32,4.46,4.46,0,0,1,3,2.78,7.18,7.18,0,0,1,.42,2.58,14,14,0,0,1-.18,2.18q-.18,1.17-.46,2.39t-.58,2.42q-.31,1.21-.58,2.31t-.46,2.06a8.84,8.84,0,0,0-.18,1.66,2.52,2.52,0,0,0,.43,1.53,1.85,1.85,0,0,0,1.59.59,3,3,0,0,0,1.43-.32,3.6,3.6,0,0,0,1.11-.91,7.11,7.11,0,0,0,.9-1.42q.41-.82.8-1.81Z"/><path class="cls-2" d="M206.81,47.78h7.26l-3.62,17.13a5,5,0,0,0-.17.83,6.56,6.56,0,0,0,0,.8,1.79,1.79,0,0,0,.5,1.46,2.48,2.48,0,0,0,1.56.41,5.93,5.93,0,0,0,.6,0,2.73,2.73,0,0,0,.42-.07l.33-.11.32-.11a6.15,6.15,0,0,1-.59,2.35,5.06,5.06,0,0,1-1.26,1.61,4.89,4.89,0,0,1-1.74.94,6.85,6.85,0,0,1-2,.3A4.66,4.66,0,0,1,205,72a5.71,5.71,0,0,1-1.54-3.53A11.61,11.61,0,0,1,201.5,71a9.3,9.3,0,0,1-2,1.45,6.39,6.39,0,0,1-1.9.68,10.08,10.08,0,0,1-1.71.16,6.37,6.37,0,0,1-2.12-.34,4.41,4.41,0,0,1-1.71-1.08A5.18,5.18,0,0,1,191,70a7.9,7.9,0,0,1-.42-2.73,12.9,12.9,0,0,1,.1-1.51q.1-.82.3-1.79l3.42-16.17h7.26L198,64.92a5.67,5.67,0,0,0-.15,1.28,4.52,4.52,0,0,0,.07.84,2.3,2.3,0,0,0,.25.7,1.38,1.38,0,0,0,.46.49,1.31,1.31,0,0,0,.73.18,2.81,2.81,0,0,0,1.35-.33,3.93,3.93,0,0,0,1.12-.92,6.15,6.15,0,0,0,.89-1.42,14.26,14.26,0,0,0,.68-1.79Z"/><path class="cls-3" d="M215.58,231.74a48.31,48.31,0,0,1-13.18-13.12,38.28,38.28,0,0,1-6.11-18.51c-.21-3.06.43-4.58,3.42-5.62a84.27,84.27,0,0,1,10.72-2.65c2-.41,4.05-.44,6.08-.65,2.5-.26,3.77.38,3.79,2,0,2.35-1.72,2.42-3.45,2.65-4.19.56-8.36,1.21-12.54,1.85a11.44,11.44,0,0,0-1.63.53c12.37,3.89,49.18,4.29,64.44-.33-3.07-.51-6.11-1.27-9.2-1.49-8.21-.58-16.44-.94-24.66-1.36-2.26-.12-3.62-1.6-2.65-3.2a3.24,3.24,0,0,1,2.31-1.38c10.67-.13,21.32.18,31.81,2.36a46.47,46.47,0,0,1,6.54,2.43,11.61,11.61,0,0,0,1.92.59c8.22,1.52,13.77,9.68,11.72,17.26a14.38,14.38,0,0,1-19,10,2.34,2.34,0,0,0-2.88.69c-2.91,2.69-6,5.23-9.08,7.93h15.29c1.41,0,3.32-.38,3.64,1.38a6.1,6.1,0,0,1-1,4.32c-2.48,3.27-6.25,4.63-10,5.76-8.7,2.61-17.66,3.31-26.67,3.33-9.31,0-18.6-.59-27.56-3.41a40.24,40.24,0,0,1-7.75-3.62,8.69,8.69,0,0,1-2.9-3.09c-1.64-2.77-.44-4.67,2.78-4.67ZM201.45,203.1c2.21,17.51,18.24,30.13,36.15,28.56,19.1-1.68,29.87-17.29,30.3-28.52A187,187,0,0,1,201.45,203.1Zm2.42,33.41c12.15,7.19,50.69,7,61.67,0Zm63.26-17.8c4.05,1.33,7.51.95,10.44-1.66s3.68-6.31,2.59-10.13c-1-3.36-3.26-5.41-7-6.28A39.21,39.21,0,0,1,267.14,218.7Z"/><path class="cls-3" d="M222,185.09a8.12,8.12,0,0,1,2.86-6.2c1.56-1.54,3.24-3,4.79-4.5,3.12-3.12,3-4.65-.39-7.32-1.72-1.35-3.6-2.5-5.28-3.9a7.41,7.41,0,0,1-2.15-2.81c-.19-.49.69-1.4,1.08-2.12.43.52.87,1,1.28,1.56a8.63,8.63,0,0,0,1.23,1.64c2.08,1.63,4.35,3,6.33,4.77,3.18,2.81,3.37,5.42.62,8.66a43.57,43.57,0,0,1-5.21,5c-2.79,2.35-3.64,5.25-2.28,8.51,1.15,2.76,2.86,5.28,4.2,8a8.64,8.64,0,0,1,.42,2.51c-.72-.35-1.7-.5-2.13-1.07C224.5,194.06,222.3,190,222,185.09Z"/><path class="cls-3" d="M247.2,166.87c-.26,5-2.66,9.19-5.68,13-.32.41-1.27.32-1.92.46a6.05,6.05,0,0,1,.27-2c1.48-2.86,3.28-5.57,4.54-8.52s.53-5.88-2.09-8.14a41.55,41.55,0,0,1-5.2-5,14.73,14.73,0,0,1-2-4.43c-.1-.29.4-1.05.76-1.17a1.38,1.38,0,0,1,1.21.64c.75,3.7,3.92,5.41,6.29,7.76C245.5,161.55,247.46,163.62,247.2,166.87Z"/><path class="cls-4" d="M238.2,465.82c12.62.29,26.55,6.6,37.59,19.11a6.38,6.38,0,0,1,1.45,3.68,3.29,3.29,0,0,1-2.69,3.23,3.84,3.84,0,0,1-4.21-1.33,48,48,0,0,0-11.9-10.14,47.49,47.49,0,0,0-60.24,9.44,7.62,7.62,0,0,1-2.49,2,3.68,3.68,0,0,1-4.32-1.37,3.62,3.62,0,0,1,.2-4.82,96.87,96.87,0,0,1,9.29-8.78C210.21,469.54,222.35,465.66,238.2,465.82Z"/><path class="cls-4" d="M234.1,481.65A39.19,39.19,0,0,1,264,495.41a3.94,3.94,0,0,1,.74,4.81,3.48,3.48,0,0,1-4.12,1.85,6.34,6.34,0,0,1-2.76-1.82,31.37,31.37,0,0,0-20.17-10.55c-10.36-1.15-19.18,2.19-26.53,9.53-.47.47-.89,1-1.34,1.46a3.92,3.92,0,1,1-5.86-5.17,38,38,0,0,1,10.82-8.89A38.82,38.82,0,0,1,234.1,481.65Z"/><path class="cls-4" d="M233.88,497.5a23.6,23.6,0,0,1,17.67,7.81c2,2.11,2,4.42.24,6.06s-4,1.38-6-.74c-6.79-7.16-16.94-7.11-23.75.11-1.89,2-4.12,2.25-5.86.64s-1.78-3.84.07-5.9A23.46,23.46,0,0,1,233.88,497.5Z"/><path class="cls-5" d="M233.94,529.14a7.89,7.89,0,1,1,7.92-7.75A7.9,7.9,0,0,1,233.94,529.14Z"/><path class="cls-6" d="M842.14,248.24c-2.64,0-5.28,0-7.91,0-1.17,0-1.56-.47-1.61-1.6-.16-3.51.46-6.63,3.75-8.64a2.5,2.5,0,0,1,2.64-.24,7.79,7.79,0,0,0,6.15.07,3.41,3.41,0,0,1,2.45.14,8.34,8.34,0,0,1,3.8,9.28,2,2,0,0,1-1.51.93C847.32,248.29,844.73,248.24,842.14,248.24Z"/><path class="cls-6" d="M816.63,207.52c-2.58,0-5.17,0-7.75,0-1.12,0-1.57-.37-1.62-1.55-.14-3.31.32-6.33,3.32-8.38a3,3,0,0,1,3.32-.42,7.47,7.47,0,0,0,6-.09,2.94,2.94,0,0,1,2.16.1,7.05,7.05,0,0,1,4,6.19c0,.68,0,1.38,0,2.05.18,1.56-.37,2.19-2,2.11C821.59,207.43,819.1,207.52,816.63,207.52Z"/><path class="cls-6" d="M868.52,206.58c-2.58,0-5.17,0-7.75,0-1.24,0-1.62-.44-1.67-1.66-.16-3.46.44-6.53,3.66-8.51a2.59,2.59,0,0,1,2.77-.25,7.75,7.75,0,0,0,6.15,0,3.17,3.17,0,0,1,2.29.14,8.32,8.32,0,0,1,3.87,9.39,1.81,1.81,0,0,1-1.41.84C873.79,206.63,871.16,206.58,868.52,206.58Z"/><path class="cls-6" d="M874.47,186.29a6,6,0,0,1-8,6.38c-3.12-1.1-4.65-4.39-3.88-8.39a6,6,0,0,1,6.1-4.9C872.24,179.49,874.47,182.17,874.47,186.29Z"/><path class="cls-6" d="M836.05,227.77a6,6,0,0,1,8.1-6.36c3.67,1.36,4.63,5,3.59,9a5.87,5.87,0,0,1-7.26,4C837.6,233.65,836,231.32,836.05,227.77Z"/><path class="cls-6" d="M810.7,187.19a6,6,0,0,1,7.81-6.58,5.7,5.7,0,0,1,4,4.8c.29,2.11.3,4.22-1,6.08a6,6,0,0,1-6.76,2.13C812.09,192.73,810.7,190.54,810.7,187.19Z"/><path class="cls-3" d="M810.61,213.19a8.29,8.29,0,0,1,1.07-.16c1,0,2,0,3.22,0,.93,9.6,5.42,17,13.73,22.06-.45.71-.85,1.33-1.23,2s-.67,1.16-1,1.73C817.91,235.22,810,222.44,810.61,213.19Z"/><path class="cls-3" d="M869.11,213.14h4.23c1.11,8.57-6.78,21.53-15.63,25.67l-2.27-3.73A27.45,27.45,0,0,0,869.11,213.14Z"/><path class="cls-3" d="M854.83,188a27.75,27.75,0,0,0-25.61,0,30.42,30.42,0,0,1,.33-4.28,2.47,2.47,0,0,1,1.43-1.44,31.72,31.72,0,0,1,22-.1,2,2,0,0,1,1.63,2.31A26.28,26.28,0,0,0,854.83,188Z"/><path class="cls-3" d="M280.55,364.47c0,5.46.28,10.92,0,16.37-.21,4.42-2.73,5.95-6,6-2.69,0-5.37,0-8.06,0-6,0-7.38-1.24-8-7.44-4.19,4.22-9.35,3.81-14.46,3.8-13,0-26,0-39,0-6.66,0-9.86-4.3-7.85-10.74-2.65-.42-5.26-1-6.81-3.51a6.27,6.27,0,0,1-1.12-4.91,4.27,4.27,0,0,0,3.37,1c.62,2.61,2.32,3.6,4.94,3.58,8.05-.06,16.11,0,24.17,0,1.34,0,2.25,0,2.23,1.85s-1,1.81-2.31,1.8q-8.57,0-17.15,0c-2.74,0-4.46,1.46-4.47,3.62s1.76,3.67,4.45,3.67q22.48,0,45,0c4.3,0,7.51-2.63,8.85-6.72.61-1.88.22-3.79.5-5.66l3.37-.52a93.39,93.39,0,0,1,0,11,2.51,2.51,0,0,0,0,2.42c-.06,2.41,1.06,3.37,3.51,3.2s5.18,0,7.78,0c3.18,0,3.44-.26,3.46-3.37q.05-7.91.1-15.81C278,365.51,279.31,364.83,280.55,364.47Z"/><path class="cls-3" d="M192.69,365a4.27,4.27,0,0,1-3.37-1c.87-2.18.36-3.54-1.64-5.15a6.65,6.65,0,0,1,.42-10.35c1.63-1.22,2.11-2.27,1.49-4l.09-1.83,3.09,1.07c1,2.34,2.81,3,5.21,3,7.89-.07,15.78,0,23.67,0,1.2,0,2.38-.27,2.38,1.71s-1.12,1.76-2.36,1.76q-13.39,0-26.79,0a13.5,13.5,0,0,0-2.84.22,3.6,3.6,0,0,0-.24,7,9,9,0,0,0,2.56.27c8.93,0,17.86,0,26.79,0,1.16,0,2.84-.82,2.88,1.69s-1.73,1.85-3,1.86c-7.8,0-15.6.08-23.4,0C194.82,361.14,193.14,362.19,192.69,365Z"/><path class="cls-3" d="M254.9,327q.08,3,.15,5.94c0,1.05,0,2.2,1.36,2.43,1.15.2,2.31.54,3.15-.9,1.15-2,3.09-2.62,5.31-2.61,3.28,0,6.56-.05,9.84,0,3.62.08,5.82,2.24,5.93,5.8.06,1.81,0,3.62-.07,5.43-.56.22,0-1.74-1-.53-.67.84-1.8.39-2.47,1.07-1.58-1.58-3.56-.57-5.35-.75-1.21-.12-2.11,0-2.11-1.75s.57-2.15,2.11-2a20.62,20.62,0,0,0,3.1,0c.92-.05,2.21.46,2.17-1.31a2.05,2.05,0,0,0-2.25-2.26c-3.36-.05-6.73,0-10.09,0a2.07,2.07,0,0,0-2.33,2.41c0,2.24-.07,4.48-.11,6.72-.69-1.47-1.92-1.78-3.39-1.57.11-2.36,0-4.14-3.33-4.25-2.41-.08-4-2.1-4-4.64-.1-3.62,0-7.25.06-10.87,1.66-.18,2.91.08,2.58,2.23C254,326.22,254.15,326.81,254.9,327Z"/><path class="cls-3" d="M192.77,343.67l-3.09-1.07-.09,1.83a6.83,6.83,0,0,1,5.2-8.6,17.45,17.45,0,0,1,3.61-.29q17.38,0,34.76,0c1.38,0,2.83.19,3.61-1.37a1.25,1.25,0,0,0,.16-.45q0-3.86,0-7.72c1.14-.47-.09-2.43,1.51-2.53,1.86-.11.53,2.14,1.76,2.56,0,2,.09,4,.09,6,0,5.56-1.55,7.14-7,7.14q-17.77,0-35.54,0C194.24,339.13,193.09,340.23,192.77,343.67Z"/><path class="cls-3" d="M277.08,343.66c.67-.69,1.8-.24,2.47-1.07,1-1.21.45.75,1,.53q0,8.87,0,17.75c-.05,0-.16.1-.16.12a2.11,2.11,0,0,0,.15.33q0,1.57,0,3.15c-1.24.36-2.53,1-3.49-.52,0-.26-.05-.52-.06-.78-.09-5.42-.09-5.47-5.42-5.6-1.41,0-1.95-.36-2-1.89s.72-1.85,2-1.75c1,.08,2.08-.06,3.11,0,1.58.14,2.31-.26,2.3-2.1s-1-1.82-2.32-1.78-2.25-.07-3.37,0c-1.43.12-1.74-.55-1.73-1.84s.38-1.76,1.64-1.65c.86.07,1.75-.11,2.59,0C276.32,347.08,277.4,346.15,277.08,343.66Z"/><path class="cls-3" d="M240.19,326c-1.23-.42.1-2.67-1.76-2.56-1.6.1-.37,2.06-1.51,2.53,0-2.59-.21-5.19-.06-7.77a9,9,0,0,1,8.52-8.28c3.84-.24,8.69,2.93,9.35,7.24a48.51,48.51,0,0,1,.16,9.84c-.75-.2-.86-.79-.77-1.4.33-2.15-.92-2.41-2.58-2.23,0-1.29-.05-2.59-.11-3.88-.17-3.47-2.53-6-5.59-5.94s-5.33,2.45-5.46,6C240.3,321.71,240.25,323.86,240.19,326Z"/><path class="cls-3" d="M236.92,333.71a1.25,1.25,0,0,1-.16.45A.41.41,0,0,1,236.92,333.71Z"/><path class="cls-3" d="M280.55,361.32a2.11,2.11,0,0,1-.15-.33s.1-.08.16-.12A.51.51,0,0,1,280.55,361.32Z"/><path class="cls-3" d="M262.24,344.71c.21,7.28.22,14.56,0,21.84l-3.37.52q0-12,0-23.93C260.32,342.93,261.55,343.23,262.24,344.71Z"/><path class="cls-3" d="M262.22,377.54q0,1.21,0,2.42A2.51,2.51,0,0,1,262.22,377.54Z"/><path class="cls-3" d="M245.88,361.2c-8.54.26-11.76-5-11-13.44.1-1.18.78-1.12,1.58-1.13,1,0,2,0,2.06,1.35s0,2.42,0,3.62c.09,3.58,2.2,5.76,5.79,6,.86.05,1.73,0,2.59,0,1.11.1,2.58-.67,2.64,1.63s-1.29,2-2.64,2Z"/><path class="cls-3" d="M269.43,375.85c-1-.47-3.45,1.22-3.15-1.92.09-.92.53-1.45,1.45-1.48,1.2,0,2.41-.06,3.61,0s1.72.93,1.78,2.09c.08,1.54-1,1.28-1.94,1.31C270.67,375.86,270.15,375.85,269.43,375.85Z"/><path class="cls-3" d="M830.94,381.78c-4.47,5.54-9,5.5-13-.2-4.35,2.32-8.8,4.55-13.08,7.09-.8.48-.76,2.24-1.29,3.33a16.33,16.33,0,0,1-1.68,2.34c-.48-.85-1.32-1.67-1.37-2.55a6.58,6.58,0,0,1,4-6.75c4-1.94,7.85-4,11.77-6.05,2.26-1.17,2.25-1.71,1-3.8a14,14,0,0,1-2-5.34,43.9,43.9,0,0,1,0-8.4,9.1,9.1,0,0,1,8.95-8.45,9,9,0,0,1,9.29,7.76,51.71,51.71,0,0,1,0,10.17,10.2,10.2,0,0,1-2,4.32c-1.32,2-1.25,2.71,1,3.87,4,2.09,8,4.1,12,6.26,3,1.65,4.18,4,3.63,7.16-.11.64-.93,1.15-1.42,1.72-.54-.54-1.59-1.15-1.53-1.62.38-3.29-1.83-4.45-4.2-5.63C837.67,385.34,834.39,383.58,830.94,381.78Zm-12.49-15.87h-.1c0,1.27-.07,2.55,0,3.81a6.87,6.87,0,0,0,5.56,6.1c2.44.33,6-2,6.36-4.8a44.62,44.62,0,0,0-.07-10.58c-.34-2.74-3.38-4.54-6.09-4.34a5.92,5.92,0,0,0-5.65,5.24A42,42,0,0,0,818.45,365.91Zm2,12.52c.94,1.6,1.34,3.15,2.3,3.67a4.39,4.39,0,0,0,3.69-.15c.88-.5,1.18-2,2-3.55a31.1,31.1,0,0,1-3.83.55A38.65,38.65,0,0,1,820.43,378.43Z"/><path class="cls-3" d="M885.22,381.8c-4.23,5.76-9.72,5.09-13-.19-4.19,2.2-8.48,4.28-12.55,6.72-1,.58-1.17,2.38-1.81,3.57-.45.85-1,1.62-1.56,2.43-.52-.8-1.41-1.56-1.48-2.4a6.49,6.49,0,0,1,3.89-6.81c4-2,7.85-4.05,11.78-6.07,2.47-1.27,2.41-1.71,1.06-4a15.17,15.17,0,0,1-1.94-5.61,49.59,49.59,0,0,1-.07-7.39,9.22,9.22,0,0,1,18.37-1,57,57,0,0,1,0,9.68,9.41,9.41,0,0,1-1.78,4.14c-1.63,2.42-1.56,3,1.09,4.38l11.55,6a6.33,6.33,0,0,1,3.68,6.91c-.09.73-.88,1.37-1.35,2.06-.57-.61-1.69-1.26-1.63-1.81.3-3-1.64-4.19-3.87-5.3C892.06,385.42,888.63,383.58,885.22,381.8Zm-.34-15.86h0c0-1.36.08-2.72,0-4.07a6.22,6.22,0,0,0-6-5.78,6.05,6.05,0,0,0-6.21,5.79c-.12,2.62-.1,5.26,0,7.88.11,3.1,3.19,6.08,6.1,6.08s6-3,6.14-6.09C884.94,368.49,884.88,367.21,884.88,365.94Zm-3,12.81H875.5c-.2,2.43,1,3.94,3.19,4S882.1,381.22,881.92,378.75Z"/><path class="cls-3" d="M869.05,346c-2,0-3.77,0-5.53,0s-2.49-.66-2.48-2.4q0-8.41,0-16.82c0-1.84.78-2.54,2.63-2.52q13.63.08,27.26,0c1.75,0,2.49.68,2.49,2.38,0,5.69,0,11.38,0,17.07,0,1.62-.7,2.31-2.3,2.29-3.31,0-6.63-.14-9.93.06a7.54,7.54,0,0,0-3.8,1.43c-1.9,1.41-3.52,3.19-5.35,4.7a2.37,2.37,0,0,1-2,.48,2.54,2.54,0,0,1-.92-1.86C869,349.33,869.05,347.81,869.05,346Zm-4.74-3.54c2.85,1.65,8.85-2.57,7.9,5.2a18.4,18.4,0,0,0,2-1.74,8.75,8.75,0,0,1,8.14-3.1c2.56.24,5.17,0,7.71,0V327.55h-25.8Z"/><path class="cls-3" d="M827.58,342.8a44.78,44.78,0,0,1,0,4.55,2.94,2.94,0,0,1-1,2.09,2.29,2.29,0,0,1-2.13-.62c-4.57-6.25-11-6.62-17.92-6.08-3.28.26-3.32,0-3.33-3.16,0-5.27.07-10.54,0-15.8,0-2,.66-2.69,2.65-2.67q13.51.11,27,0c2,0,2.7.66,2.66,2.67-.1,5.44-.11,10.88,0,16.31.05,2.2-.84,2.86-2.86,2.73C831,342.72,829.45,342.8,827.58,342.8Zm4.65-18.32H806.5v15.09c6.23.62,13.14-2.17,17.74,5.52a18.46,18.46,0,0,0,.17-2.26c-.28-2.44.76-3.44,3.22-3.2,1.49.14,3,0,4.6,0Z"/><path class="cls-3" d="M877.25,337.06c2.37,0,4.76-.12,7.11.07.75.06,1.43,1,2.14,1.48-.71.53-1.41,1.49-2.14,1.51q-7.37.2-14.75,0c-.72,0-1.42-1-2.12-1.51.71-.52,1.39-1.43,2.13-1.49,2.53-.19,5.08-.07,7.62-.07Z"/><path class="cls-3" d="M873.68,333.75a31.34,31.34,0,0,1-4.57-.07c-.59-.09-1.06-1-1.59-1.53.5-.47,1-1.33,1.51-1.35,3.22-.13,6.45-.12,9.66,0a1.43,1.43,0,0,1,.05,2.85,45.74,45.74,0,0,1-5.08.07Z"/><path class="cls-3" d="M819.6,327.46c2.46,0,4.92-.12,7.36.08.78.06,1.48,1,2.22,1.52-.75.49-1.49,1.4-2.26,1.42q-7.36.19-14.74,0c-.74,0-1.45-.95-2.18-1.46.74-.52,1.45-1.43,2.22-1.49C814.67,327.33,817.14,327.46,819.6,327.46Z"/><path class="cls-3" d="M816.37,333.93a34.1,34.1,0,0,1,4.58.07c.62.08,1.14.91,1.7,1.39-.46.53-.89,1.5-1.37,1.52-3.31.13-6.62.13-9.93,0-.47,0-1.26-1-1.25-1.56s.88-1.28,1.43-1.34a42.56,42.56,0,0,1,4.83-.06Z"/><path class="cls-7" d="M311.24,208.39h13.1v2.73h-5v13.33h-3.1V211.12h-5Z"/><path class="cls-7" d="M333.82,213.76a6.87,6.87,0,0,1,1.48,4.7q0,.6,0,.89h-9.06a3.42,3.42,0,0,0,3.51,2.8,4.66,4.66,0,0,0,1.8-.36,4.41,4.41,0,0,0,1.5-1l1.61,1.67A6.2,6.2,0,0,1,332.4,224a7.52,7.52,0,0,1-2.92.55,6.83,6.83,0,0,1-3.31-.78,5.45,5.45,0,0,1-2.21-2.19,7.12,7.12,0,0,1,0-6.5,5.61,5.61,0,0,1,2.21-2.21,6.53,6.53,0,0,1,3.23-.79A5.58,5.58,0,0,1,333.82,213.76Zm-1.25,3.6a3,3,0,0,0-.89-2.16,3.49,3.49,0,0,0-4.44,0,3.49,3.49,0,0,0-1.09,2.17Z"/><path class="cls-7" d="M344.59,224.45V223a4,4,0,0,1-1.65,1.22,6.08,6.08,0,0,1-2.32.41,4.94,4.94,0,0,1-2.26-.49,3.61,3.61,0,0,1-1.5-1.37,3.69,3.69,0,0,1-.53-1.95,3.26,3.26,0,0,1,1.22-2.7,5.47,5.47,0,0,1,3.44-1h3.58v-.32a2.07,2.07,0,0,0-.71-1.67,3.14,3.14,0,0,0-2.06-.6,7.09,7.09,0,0,0-3.65,1.15l-1.08-2.06a13.58,13.58,0,0,1,2.63-1.16,9.61,9.61,0,0,1,2.76-.36,5.47,5.47,0,0,1,3.7,1.15,4.1,4.1,0,0,1,1.34,3.21l0,8Zm-1.06-2.76a2.11,2.11,0,0,0,1-1.5v-1.1h-3.1a3.37,3.37,0,0,0-1.75.36,1.27,1.27,0,0,0-.56,1.16,1.49,1.49,0,0,0,.58,1.24,2.51,2.51,0,0,0,1.59.46A3.9,3.9,0,0,0,343.53,221.69Z"/><path class="cls-7" d="M355.23,205.75h2.52l-7.29,21.33h-2.55Z"/><path class="cls-7" d="M366.85,211.49a5.45,5.45,0,0,0-5.08.16,5.17,5.17,0,0,0-1.95,2,5.64,5.64,0,0,0,0,5.48,5.24,5.24,0,0,0,1.95,2,5.31,5.31,0,0,0,2.73.72,5.73,5.73,0,0,0,2.31-.5,6.62,6.62,0,0,0,2.05-1.4l1.81,2a9.46,9.46,0,0,1-2.94,2,8.26,8.26,0,0,1-3.4.75,8.4,8.4,0,0,1-4.24-1.1,8.07,8.07,0,0,1-3-3,8.18,8.18,0,0,1-1.1-4.19,8,8,0,0,1,1.12-4.17,8.07,8.07,0,0,1,3.06-3,8.89,8.89,0,0,1,7.67-.39,8.3,8.3,0,0,1,2.82,1.9L368.86,213A6,6,0,0,0,366.85,211.49Z"/><path class="cls-7" d="M381,212.87a5.65,5.65,0,0,1,2.27,2.19,6.37,6.37,0,0,1,.81,3.25,6.48,6.48,0,0,1-.81,3.28,5.62,5.62,0,0,1-2.27,2.2,7,7,0,0,1-3.36.78,7.13,7.13,0,0,1-3.4-.78,5.6,5.6,0,0,1-2.28-2.2,6.48,6.48,0,0,1-.81-3.28,6.37,6.37,0,0,1,.81-3.25,5.63,5.63,0,0,1,2.28-2.19,7.13,7.13,0,0,1,3.4-.78A7,7,0,0,1,381,212.87Zm-5.88,2.8a4.22,4.22,0,0,0,0,5.37,3.29,3.29,0,0,0,2.52,1,3.24,3.24,0,0,0,2.48-1,4.22,4.22,0,0,0,0-5.37,3.24,3.24,0,0,0-2.48-1A3.29,3.29,0,0,0,375.08,215.67Z"/><path class="cls-7" d="M390,210.25a1.47,1.47,0,0,0-.45,1.17v1.26h3.07v2.18H389.5v9.59h-3v-9.59h-1.61v-2.18h1.61v-1.17a4.25,4.25,0,0,1,.6-2.31,3.8,3.8,0,0,1,1.59-1.43,4.93,4.93,0,0,1,2.17-.48,5.15,5.15,0,0,1,2.25.53l-.53,2.41a4.28,4.28,0,0,0-1.51-.37A1.67,1.67,0,0,0,390,210.25Z"/><path class="cls-7" d="M397.91,210.25a1.47,1.47,0,0,0-.45,1.17v1.26h3.07v2.18h-3.07v9.59h-3v-9.59h-1.61v-2.18h1.61v-1.17a4.25,4.25,0,0,1,.6-2.31,3.8,3.8,0,0,1,1.59-1.43,4.93,4.93,0,0,1,2.17-.48,5.15,5.15,0,0,1,2.25.53l-.53,2.41a4.28,4.28,0,0,0-1.51-.37A1.67,1.67,0,0,0,397.91,210.25Z"/><path class="cls-7" d="M411.08,213.76a6.87,6.87,0,0,1,1.48,4.7q0,.6,0,.89h-9.06a3.42,3.42,0,0,0,3.51,2.8,4.66,4.66,0,0,0,1.8-.36,4.41,4.41,0,0,0,1.5-1l1.61,1.67a6.2,6.2,0,0,1-2.24,1.56,7.52,7.52,0,0,1-2.92.55,6.83,6.83,0,0,1-3.31-.78,5.45,5.45,0,0,1-2.21-2.19,7.12,7.12,0,0,1,0-6.5,5.61,5.61,0,0,1,2.21-2.21,6.53,6.53,0,0,1,3.23-.79A5.58,5.58,0,0,1,411.08,213.76Zm-1.25,3.6a3,3,0,0,0-.89-2.16,3.49,3.49,0,0,0-4.44,0,3.49,3.49,0,0,0-1.09,2.17Z"/><path class="cls-7" d="M424.13,213.76a6.87,6.87,0,0,1,1.48,4.7q0,.6,0,.89h-9.06a3.42,3.42,0,0,0,3.51,2.8,4.66,4.66,0,0,0,1.8-.36,4.41,4.41,0,0,0,1.5-1l1.61,1.67a6.2,6.2,0,0,1-2.24,1.56,7.52,7.52,0,0,1-2.92.55,6.83,6.83,0,0,1-3.31-.78,5.45,5.45,0,0,1-2.21-2.19,7.12,7.12,0,0,1,0-6.5,5.61,5.61,0,0,1,2.21-2.21,6.53,6.53,0,0,1,3.23-.79A5.58,5.58,0,0,1,424.13,213.76Zm-1.25,3.6a3,3,0,0,0-.89-2.16,3.49,3.49,0,0,0-4.44,0,3.49,3.49,0,0,0-1.09,2.17Z"/><path class="cls-7" d="M313,492.13h11.08l0,2.68h-8v4.33h7.27v2.68h-7.27v6.35H313Z"/><path class="cls-7" d="M330.4,496.45a5,5,0,0,1,2.49-.65v2.89a4.05,4.05,0,0,0-3,.88,3.41,3.41,0,0,0-1.14,2.7v5.92h-3V495.91h3v2.36A4.44,4.44,0,0,1,330.4,496.45Z"/><path class="cls-7" d="M344,497.5a6.87,6.87,0,0,1,1.48,4.7q0,.6,0,.89h-9.06a3.42,3.42,0,0,0,3.51,2.8,4.66,4.66,0,0,0,1.8-.36,4.41,4.41,0,0,0,1.5-1l1.61,1.67a6.2,6.2,0,0,1-2.24,1.56,7.52,7.52,0,0,1-2.92.55,6.83,6.83,0,0,1-3.31-.78,5.45,5.45,0,0,1-2.21-2.19,7.12,7.12,0,0,1,0-6.5,5.61,5.61,0,0,1,2.21-2.21,6.53,6.53,0,0,1,3.23-.79A5.58,5.58,0,0,1,344,497.5Zm-1.25,3.6a3,3,0,0,0-.89-2.16,3.49,3.49,0,0,0-4.44,0,3.49,3.49,0,0,0-1.09,2.17Z"/><path class="cls-7" d="M357,497.5a6.87,6.87,0,0,1,1.48,4.7q0,.6,0,.89h-9.06a3.42,3.42,0,0,0,3.51,2.8,4.66,4.66,0,0,0,1.8-.36,4.41,4.41,0,0,0,1.5-1l1.61,1.67a6.2,6.2,0,0,1-2.24,1.56,7.52,7.52,0,0,1-2.92.55,6.83,6.83,0,0,1-3.31-.78,5.45,5.45,0,0,1-2.21-2.19,7.12,7.12,0,0,1,0-6.5,5.61,5.61,0,0,1,2.21-2.21,6.53,6.53,0,0,1,3.23-.79A5.58,5.58,0,0,1,357,497.5Zm-1.25,3.6a3,3,0,0,0-.89-2.16,3.49,3.49,0,0,0-4.44,0,3.49,3.49,0,0,0-1.09,2.17Z"/><path class="cls-7" d="M363.76,495.94l3.07,0,3,9.27,2.91-9.27h3l3,9.27,2.94-9.27h3l-4.45,12.27h-3.05l-2.94-8.65-2.91,8.65h-3.05Z"/><path class="cls-7" d="M388.56,491.14a1.79,1.79,0,0,1,.48,1.28,1.76,1.76,0,0,1-.48,1.26,1.72,1.72,0,0,1-2.43,0,1.75,1.75,0,0,1-.48-1.26,1.78,1.78,0,0,1,.48-1.28,1.72,1.72,0,0,1,2.43,0Zm-2.68,4.77h3v12.27h-3Z"/><path class="cls-7" d="M396,494a1.47,1.47,0,0,0-.45,1.17v1.26h3.07v2.18h-3.07v9.59h-3V498.6H391v-2.18h1.61v-1.17a4.25,4.25,0,0,1,.6-2.31,3.8,3.8,0,0,1,1.59-1.43,4.93,4.93,0,0,1,2.17-.48,5.15,5.15,0,0,1,2.25.53l-.53,2.41a4.28,4.28,0,0,0-1.51-.37A1.67,1.67,0,0,0,396,494Zm7.08-2.84a1.79,1.79,0,0,1,.48,1.28,1.76,1.76,0,0,1-.48,1.26,1.72,1.72,0,0,1-2.43,0,1.75,1.75,0,0,1-.48-1.26,1.78,1.78,0,0,1,.48-1.28,1.72,1.72,0,0,1,2.43,0Zm-2.68,4.77h3v12.27h-3Z"/><path class="cls-7" d="M930,207.21h3v16.06H930l-8.26-11.06v11.06h-3V207.21h2.91L930,218.29Z"/><path class="cls-7" d="M945.8,212.58a6.87,6.87,0,0,1,1.48,4.7q0,.6,0,.89h-9.06a3.42,3.42,0,0,0,3.51,2.8,4.66,4.66,0,0,0,1.8-.36,4.41,4.41,0,0,0,1.5-1l1.61,1.67a6.2,6.2,0,0,1-2.24,1.56,7.52,7.52,0,0,1-2.92.55,6.83,6.83,0,0,1-3.31-.78,5.45,5.45,0,0,1-2.21-2.19,7.12,7.12,0,0,1,0-6.5,5.61,5.61,0,0,1,2.21-2.21,6.53,6.53,0,0,1,3.23-.79A5.58,5.58,0,0,1,945.8,212.58Zm-1.25,3.6a3,3,0,0,0-.89-2.16,3.49,3.49,0,0,0-4.44,0,3.49,3.49,0,0,0-1.09,2.17Z"/><path class="cls-7" d="M956.5,222.51a5.82,5.82,0,0,1-3.07.89,3.68,3.68,0,0,1-2.59-.93,3.54,3.54,0,0,1-1-2.74v-6.06H948.1l0-2.18h1.74v-3.37h3v3.37h3.51v2.18h-3.51v5.53a1.79,1.79,0,0,0,.32,1.21,1.23,1.23,0,0,0,1,.36,4.27,4.27,0,0,0,1.74-.5Z"/><path class="cls-7" d="M956.43,211l3.07,0,3,9.27,2.91-9.27h3l3,9.27,2.94-9.27h3l-4.45,12.27h-3.05l-2.94-8.65L964,223.27h-3.05Z"/><path class="cls-7" d="M986.83,211.68a5.65,5.65,0,0,1,2.27,2.19,6.37,6.37,0,0,1,.81,3.25,6.48,6.48,0,0,1-.81,3.28,5.62,5.62,0,0,1-2.27,2.2,7,7,0,0,1-3.36.78,7.13,7.13,0,0,1-3.4-.78,5.6,5.6,0,0,1-2.28-2.2,6.48,6.48,0,0,1-.81-3.28,6.37,6.37,0,0,1,.81-3.25,5.63,5.63,0,0,1,2.28-2.19,7.13,7.13,0,0,1,3.4-.78A7,7,0,0,1,986.83,211.68Zm-5.88,2.8a4.22,4.22,0,0,0,0,5.37,3.29,3.29,0,0,0,2.52,1,3.24,3.24,0,0,0,2.48-1,4.22,4.22,0,0,0,0-5.37,3.24,3.24,0,0,0-2.48-1A3.29,3.29,0,0,0,981,214.48Z"/><path class="cls-7" d="M996.65,211.53a5,5,0,0,1,2.49-.65v2.89a4.05,4.05,0,0,0-3,.88,3.41,3.41,0,0,0-1.14,2.7v5.92h-3V211h3v2.36A4.44,4.44,0,0,1,996.65,211.53Z"/><path class="cls-7" d="M1009,223.27l-3.33-5.37-1.88,2v3.39h-3v-17h3v9.86l5-5.09h3.44l-4.54,4.73,4.82,7.52Z"/><path class="cls-7" d="M1016.73,206.22a1.79,1.79,0,0,1,.48,1.28,1.76,1.76,0,0,1-.48,1.26,1.72,1.72,0,0,1-2.43,0,1.75,1.75,0,0,1-.48-1.26,1.78,1.78,0,0,1,.48-1.28,1.72,1.72,0,0,1,2.43,0ZM1014,211h3v12.27h-3Z"/><path class="cls-7" d="M1030.91,212.15a4.79,4.79,0,0,1,1.22,3.45v7.66h-3v-6.79a2.77,2.77,0,0,0-.73-2,2.68,2.68,0,0,0-2-.75,3,3,0,0,0-2.35,1,3.7,3.7,0,0,0-.86,2.52v6h-3V211h3v2.29a4.65,4.65,0,0,1,4.4-2.41A4.38,4.38,0,0,1,1030.91,212.15Z"/><path class="cls-7" d="M1046.16,211v11.1a5.72,5.72,0,0,1-.79,3,5.2,5.2,0,0,1-2.25,2,7.74,7.74,0,0,1-3.38.7,9,9,0,0,1-5.18-1.63l1.19-2.16a6.32,6.32,0,0,0,3.83,1.28,3.86,3.86,0,0,0,2.63-.85,2.91,2.91,0,0,0,1-2.32v-1.45a4.08,4.08,0,0,1-1.61,1.43,5.06,5.06,0,0,1-2.29.49,5.41,5.41,0,0,1-2.84-.75,5.08,5.08,0,0,1-1.93-2.09,6.66,6.66,0,0,1-.69-3.08,6.48,6.48,0,0,1,.69-3,5,5,0,0,1,1.93-2.05,5.47,5.47,0,0,1,2.84-.73,5,5,0,0,1,2.28.5,4.21,4.21,0,0,1,1.62,1.42V211Zm-3.89,8.34a4,4,0,0,0,0-5.07,3.31,3.31,0,0,0-4.7,0,3.91,3.91,0,0,0,0,5.06,3.32,3.32,0,0,0,4.7,0Z"/><path class="cls-7" d="M324,357.53h2.68v6.1a10.71,10.71,0,0,1-3,1.53,10.45,10.45,0,0,1-3.37.58,8.55,8.55,0,0,1-4.3-1.1,8.21,8.21,0,0,1-3.06-3,8,8,0,0,1-1.12-4.19A7.81,7.81,0,0,1,313,353.3a8.27,8.27,0,0,1,3.13-3,9,9,0,0,1,4.39-1.09,9.74,9.74,0,0,1,3.4.62,9,9,0,0,1,2.89,1.7l-1.74,2.27a6.62,6.62,0,0,0-2.12-1.35,6.47,6.47,0,0,0-2.42-.48,5.55,5.55,0,0,0-2.79.72,5.49,5.49,0,0,0-2,7.51,5.5,5.5,0,0,0,4.81,2.73,6.2,6.2,0,0,0,1.73-.26A7.69,7.69,0,0,0,324,362Z"/><path class="cls-7" d="M339.17,354.82a6.87,6.87,0,0,1,1.48,4.7q0,.6,0,.89h-9.06a3.42,3.42,0,0,0,3.51,2.8,4.66,4.66,0,0,0,1.8-.36,4.41,4.41,0,0,0,1.5-1l1.61,1.67a6.2,6.2,0,0,1-2.24,1.56,7.52,7.52,0,0,1-2.92.55,6.83,6.83,0,0,1-3.31-.78,5.45,5.45,0,0,1-2.21-2.19,7.12,7.12,0,0,1,0-6.5,5.61,5.61,0,0,1,2.21-2.21,6.53,6.53,0,0,1,3.23-.79A5.58,5.58,0,0,1,339.17,354.82Zm-1.25,3.6a3,3,0,0,0-.89-2.16,3.49,3.49,0,0,0-4.44,0,3.49,3.49,0,0,0-1.09,2.17Z"/><path class="cls-7" d="M349.87,364.76a5.82,5.82,0,0,1-3.07.89,3.68,3.68,0,0,1-2.59-.93,3.54,3.54,0,0,1-1-2.74v-6.06h-1.72l0-2.18h1.74v-3.37h3v3.37h3.51v2.18h-3.51v5.53a1.79,1.79,0,0,0,.32,1.21,1.23,1.23,0,0,0,1,.36,4.27,4.27,0,0,0,1.74-.5Z"/><path class="cls-7" d="M356.89,349.46H360v6.86h8v-6.86H371v16.06H368V359h-8v6.51h-3.07Z"/><path class="cls-7" d="M383.9,354.82a6.87,6.87,0,0,1,1.48,4.7q0,.6,0,.89H376.3a3.42,3.42,0,0,0,3.51,2.8,4.66,4.66,0,0,0,1.8-.36,4.41,4.41,0,0,0,1.5-1l1.61,1.67a6.2,6.2,0,0,1-2.24,1.56,7.52,7.52,0,0,1-2.92.55,6.83,6.83,0,0,1-3.31-.78,5.45,5.45,0,0,1-2.21-2.19,7.12,7.12,0,0,1,0-6.5,5.61,5.61,0,0,1,2.21-2.21,6.53,6.53,0,0,1,3.23-.79A5.58,5.58,0,0,1,383.9,354.82Zm-1.25,3.6a3,3,0,0,0-.89-2.16,3.49,3.49,0,0,0-4.44,0,3.49,3.49,0,0,0-1.09,2.17Z"/><path class="cls-7" d="M387.54,348.49h3v17h-3Z"/><path class="cls-7" d="M404.09,353.94a5.34,5.34,0,0,1,2,2.21,7.15,7.15,0,0,1,.72,3.28,7,7,0,0,1-.71,3.23,5.24,5.24,0,0,1-2,2.18,5.8,5.8,0,0,1-3,.78,5.26,5.26,0,0,1-2.43-.54,4.57,4.57,0,0,1-1.74-1.57V370h-3V353.24h3v2a4.43,4.43,0,0,1,1.71-1.57,5.21,5.21,0,0,1,2.42-.54A5.79,5.79,0,0,1,404.09,353.94ZM402.86,362a3.79,3.79,0,0,0,1-2.67,3.74,3.74,0,0,0-1-2.66,3.52,3.52,0,0,0-5,0,4.19,4.19,0,0,0,0,5.34,3.27,3.27,0,0,0,2.5,1A3.22,3.22,0,0,0,402.86,362Z"/><path class="cls-7" d="M916.84,348.73h13.1v2.73h-5v13.33h-3.1V351.46h-5Z"/><path class="cls-7" d="M938.52,364.79V363.3a4,4,0,0,1-1.65,1.22,6.08,6.08,0,0,1-2.32.41,4.94,4.94,0,0,1-2.26-.49,3.61,3.61,0,0,1-1.5-1.37,3.69,3.69,0,0,1-.53-1.95,3.26,3.26,0,0,1,1.22-2.7,5.47,5.47,0,0,1,3.44-1h3.58v-.32a2.07,2.07,0,0,0-.71-1.67,3.14,3.14,0,0,0-2.06-.6,7.09,7.09,0,0,0-3.65,1.15L931,353.92a13.58,13.58,0,0,1,2.63-1.16,9.61,9.61,0,0,1,2.76-.36,5.47,5.47,0,0,1,3.7,1.15,4.1,4.1,0,0,1,1.34,3.21l0,8ZM937.46,362a2.11,2.11,0,0,0,1-1.5v-1.1h-3.1a3.37,3.37,0,0,0-1.75.36,1.27,1.27,0,0,0-.56,1.16,1.49,1.49,0,0,0,.58,1.24,2.51,2.51,0,0,0,1.59.46A3.9,3.9,0,0,0,937.46,362Z"/><path class="cls-7" d="M944.39,347.77h3v17h-3Z"/><path class="cls-7" d="M959,364.79l-3.33-5.37-1.88,2v3.39h-3v-17h3v9.86l5-5.09h3.44l-4.54,4.73,4.82,7.52Z"/><path class="cls-7" d="M976.3,364a5.82,5.82,0,0,1-3.07.89,3.68,3.68,0,0,1-2.59-.93,3.54,3.54,0,0,1-1-2.74V355.2H967.9l0-2.18h1.74v-3.37h3V353h3.51v2.18h-3.51v5.53a1.79,1.79,0,0,0,.32,1.21,1.23,1.23,0,0,0,1,.36,4.27,4.27,0,0,0,1.74-.5Z"/><path class="cls-7" d="M986.72,353.21A5.65,5.65,0,0,1,989,355.4a6.37,6.37,0,0,1,.81,3.25,6.48,6.48,0,0,1-.81,3.28,5.62,5.62,0,0,1-2.27,2.2,7,7,0,0,1-3.36.78,7.13,7.13,0,0,1-3.4-.78,5.6,5.6,0,0,1-2.28-2.2,6.48,6.48,0,0,1-.81-3.28,6.37,6.37,0,0,1,.81-3.25,5.63,5.63,0,0,1,2.28-2.19,7.13,7.13,0,0,1,3.4-.78A7,7,0,0,1,986.72,353.21Zm-5.88,2.8a4.22,4.22,0,0,0,0,5.37,3.29,3.29,0,0,0,2.52,1,3.24,3.24,0,0,0,2.48-1,4.22,4.22,0,0,0,0-5.37,3.24,3.24,0,0,0-2.48-1A3.29,3.29,0,0,0,980.84,356Z"/><path class="cls-7" d="M1005.69,353.21a5.65,5.65,0,0,1,2.27,2.19,6.37,6.37,0,0,1,.81,3.25,6.48,6.48,0,0,1-.81,3.28,5.62,5.62,0,0,1-2.27,2.2,7,7,0,0,1-3.36.78,7.13,7.13,0,0,1-3.4-.78,5.6,5.6,0,0,1-2.28-2.2,6.48,6.48,0,0,1-.81-3.28,6.37,6.37,0,0,1,.81-3.25,5.63,5.63,0,0,1,2.28-2.19,7.13,7.13,0,0,1,3.4-.78A7,7,0,0,1,1005.69,353.21Zm-5.88,2.8a4.22,4.22,0,0,0,0,5.37,3.29,3.29,0,0,0,2.52,1,3.24,3.24,0,0,0,2.48-1,4.22,4.22,0,0,0,0-5.37,3.24,3.24,0,0,0-2.48-1A3.29,3.29,0,0,0,999.81,356Z"/><path class="cls-7" d="M1022.17,352.52v12.27h-3v-2.27a4.41,4.41,0,0,1-4.27,2.38,4.27,4.27,0,0,1-3.26-1.26,4.81,4.81,0,0,1-1.19-3.44v-7.68h3v6.81a2.8,2.8,0,0,0,.7,2,2.55,2.55,0,0,0,1.94.73,2.84,2.84,0,0,0,2.25-1,3.76,3.76,0,0,0,.83-2.5v-6.06Z"/><path class="cls-7" d="M1030,353.06a5,5,0,0,1,2.49-.65v2.89a4.05,4.05,0,0,0-3,.88,3.41,3.41,0,0,0-1.14,2.7v5.92h-3V352.52h3v2.36A4.44,4.44,0,0,1,1030,353.06Z"/><path class="cls-7" d="M1046.35,364a5.82,5.82,0,0,1-3.07.89,3.68,3.68,0,0,1-2.59-.93,3.54,3.54,0,0,1-1-2.74V355.2H1038l0-2.18h1.74v-3.37h3V353h3.51v2.18h-3.51v5.53a1.79,1.79,0,0,0,.32,1.21,1.23,1.23,0,0,0,1,.36,4.27,4.27,0,0,0,1.74-.5Z"/><path class="cls-7" d="M1057.58,354.1a6.87,6.87,0,0,1,1.48,4.7q0,.6,0,.89H1050a3.42,3.42,0,0,0,3.51,2.8,4.66,4.66,0,0,0,1.8-.36,4.41,4.41,0,0,0,1.5-1l1.61,1.67a6.2,6.2,0,0,1-2.24,1.56,7.52,7.52,0,0,1-2.92.55,6.83,6.83,0,0,1-3.31-.78,5.45,5.45,0,0,1-2.21-2.19,7.12,7.12,0,0,1,0-6.5,5.61,5.61,0,0,1,2.21-2.21,6.53,6.53,0,0,1,3.23-.79A5.58,5.58,0,0,1,1057.58,354.1Zm-1.25,3.6a3,3,0,0,0-.89-2.16,3.49,3.49,0,0,0-4.44,0,3.49,3.49,0,0,0-1.09,2.17Z"/><path class="cls-7" d="M1068.35,364.79V363.3a4,4,0,0,1-1.65,1.22,6.08,6.08,0,0,1-2.32.41,4.94,4.94,0,0,1-2.26-.49,3.61,3.61,0,0,1-1.5-1.37,3.69,3.69,0,0,1-.53-1.95,3.26,3.26,0,0,1,1.22-2.7,5.47,5.47,0,0,1,3.44-1h3.58v-.32a2.07,2.07,0,0,0-.71-1.67,3.14,3.14,0,0,0-2.06-.6,7.09,7.09,0,0,0-3.65,1.15l-1.08-2.06a13.58,13.58,0,0,1,2.63-1.16,9.61,9.61,0,0,1,2.76-.36,5.47,5.47,0,0,1,3.7,1.15,4.1,4.1,0,0,1,1.34,3.21l0,8Zm-1.06-2.76a2.11,2.11,0,0,0,1-1.5v-1.1h-3.1a3.37,3.37,0,0,0-1.75.36,1.27,1.27,0,0,0-.56,1.16,1.49,1.49,0,0,0,.58,1.24,2.51,2.51,0,0,0,1.59.46A3.9,3.9,0,0,0,1067.29,362Z"/><path class="cls-7" d="M1093.47,353.68a4.85,4.85,0,0,1,1.19,3.45v7.66h-3V358a2.83,2.83,0,0,0-.72-2.05,2.6,2.6,0,0,0-2-.75,2.94,2.94,0,0,0-2.26,1,3.72,3.72,0,0,0-.84,2.5v6.06h-3V358a2.85,2.85,0,0,0-.71-2.05,2.57,2.57,0,0,0-2-.75,3,3,0,0,0-2.28,1,3.73,3.73,0,0,0-.84,2.5v6.06h-3V352.52h3v2.27a5.1,5.1,0,0,1,7-1.62,4,4,0,0,1,1.53,2.17,4.54,4.54,0,0,1,4.56-2.94A4.27,4.27,0,0,1,1093.47,353.68Z"/><path class="cls-7" d="M918.63,490.54h11.08l0,2.68h-8v4.33H929v2.68H921.7v6.35h-3.07Z"/><path class="cls-7" d="M940.09,495a5.65,5.65,0,0,1,2.27,2.19,6.37,6.37,0,0,1,.81,3.25,6.48,6.48,0,0,1-.81,3.28,5.62,5.62,0,0,1-2.27,2.2,7,7,0,0,1-3.36.78,7.13,7.13,0,0,1-3.4-.78,5.6,5.6,0,0,1-2.28-2.2,6.48,6.48,0,0,1-.81-3.28,6.37,6.37,0,0,1,.81-3.25,5.63,5.63,0,0,1,2.28-2.19,7.13,7.13,0,0,1,3.4-.78A7,7,0,0,1,940.09,495Zm-5.88,2.8a4.22,4.22,0,0,0,0,5.37,3.29,3.29,0,0,0,2.52,1,3.24,3.24,0,0,0,2.48-1,4.22,4.22,0,0,0,0-5.37,3.24,3.24,0,0,0-2.48-1A3.29,3.29,0,0,0,934.2,497.81Z"/><path class="cls-7" d="M954,495a5.65,5.65,0,0,1,2.27,2.19,6.37,6.37,0,0,1,.81,3.25,6.48,6.48,0,0,1-.81,3.28,5.62,5.62,0,0,1-2.27,2.2,7,7,0,0,1-3.36.78,7.13,7.13,0,0,1-3.4-.78,5.6,5.6,0,0,1-2.28-2.2,6.48,6.48,0,0,1-.81-3.28,6.37,6.37,0,0,1,.81-3.25,5.63,5.63,0,0,1,2.28-2.19,7.13,7.13,0,0,1,3.4-.78A7,7,0,0,1,954,495Zm-5.88,2.8a4.22,4.22,0,0,0,0,5.37,3.29,3.29,0,0,0,2.52,1,3.24,3.24,0,0,0,2.48-1,4.22,4.22,0,0,0,0-5.37,3.24,3.24,0,0,0-2.48-1A3.29,3.29,0,0,0,948.08,497.81Z"/><path class="cls-7" d="M964.54,496.83a5.89,5.89,0,0,0-1.75-.3,2.38,2.38,0,0,0-1.2.26.88.88,0,0,0-.45.81,1,1,0,0,0,.56.88,9.08,9.08,0,0,0,1.78.65,17.12,17.12,0,0,1,2.11.77A4,4,0,0,1,967,501a3,3,0,0,1,.61,2,3.16,3.16,0,0,1-1.38,2.75,5.89,5.89,0,0,1-3.46,1,8.77,8.77,0,0,1-2.78-.45,6.53,6.53,0,0,1-2.29-1.27l1-2.09a6,6,0,0,0,2,1.11,6.57,6.57,0,0,0,2.18.4,2.61,2.61,0,0,0,1.32-.29.93.93,0,0,0,.49-.86,1,1,0,0,0-.57-1,10.12,10.12,0,0,0-1.86-.71,15.72,15.72,0,0,1-2-.72,3.64,3.64,0,0,1-1.35-1.08,3,3,0,0,1-.57-1.89,3.2,3.2,0,0,1,1.32-2.76,5.53,5.53,0,0,1,3.31-1,8.53,8.53,0,0,1,2.4.34,7.44,7.44,0,0,1,2.1,1l-1.08,2.16A8.79,8.79,0,0,0,964.54,496.83Z"/><path class="cls-7" d="M979.91,495a5.34,5.34,0,0,1,2,2.21,7.15,7.15,0,0,1,.72,3.28,7,7,0,0,1-.71,3.23,5.24,5.24,0,0,1-2,2.18,5.8,5.8,0,0,1-3,.78,5.26,5.26,0,0,1-2.43-.54,4.57,4.57,0,0,1-1.74-1.57v2h-3v-17h3v6.77a4.43,4.43,0,0,1,1.71-1.57,5.21,5.21,0,0,1,2.42-.54A5.79,5.79,0,0,1,979.91,495Zm-1.23,8.07a3.79,3.79,0,0,0,1-2.67,3.74,3.74,0,0,0-1-2.66,3.52,3.52,0,0,0-5,0,4.19,4.19,0,0,0,0,5.34,3.27,3.27,0,0,0,2.5,1A3.22,3.22,0,0,0,978.68,503.1Z"/><path class="cls-7" d="M992,506.6v-1.49a4,4,0,0,1-1.65,1.22,6.08,6.08,0,0,1-2.32.41,4.94,4.94,0,0,1-2.26-.49,3.61,3.61,0,0,1-1.5-1.37,3.69,3.69,0,0,1-.53-1.95,3.26,3.26,0,0,1,1.22-2.7,5.47,5.47,0,0,1,3.44-1H992v-.32a2.07,2.07,0,0,0-.71-1.67,3.14,3.14,0,0,0-2.06-.6,7.09,7.09,0,0,0-3.65,1.15l-1.08-2.06a13.58,13.58,0,0,1,2.63-1.16,9.61,9.61,0,0,1,2.76-.36,5.47,5.47,0,0,1,3.7,1.15,4.1,4.1,0,0,1,1.34,3.21l0,8Zm-1.06-2.76a2.11,2.11,0,0,0,1-1.5v-1.1h-3.1a3.37,3.37,0,0,0-1.75.36,1.27,1.27,0,0,0-.56,1.16,1.49,1.49,0,0,0,.58,1.24,2.51,2.51,0,0,0,1.59.46A3.9,3.9,0,0,0,990.93,503.83Z"/><path class="cls-7" d="M997.86,489.58h3v17h-3Z"/><path class="cls-7" d="M1004.26,489.58h3v17h-3Z"/><path class="cls-7" d="M1022.81,505.84a5.82,5.82,0,0,1-3.07.89,3.68,3.68,0,0,1-2.59-.93,3.54,3.54,0,0,1-1-2.74V497h-1.72l0-2.18h1.74v-3.37h3v3.37h3.51V497h-3.51v5.53a1.79,1.79,0,0,0,.32,1.21,1.23,1.23,0,0,0,1,.36,4.27,4.27,0,0,0,1.74-.5Z"/><path class="cls-7" d="M1031.88,506.6v-1.49a4,4,0,0,1-1.65,1.22,6.08,6.08,0,0,1-2.32.41,4.94,4.94,0,0,1-2.26-.49,3.61,3.61,0,0,1-1.5-1.37,3.69,3.69,0,0,1-.53-1.95,3.26,3.26,0,0,1,1.22-2.7,5.47,5.47,0,0,1,3.44-1h3.58v-.32a2.07,2.07,0,0,0-.71-1.67,3.14,3.14,0,0,0-2.06-.6,7.09,7.09,0,0,0-3.65,1.15l-1.08-2.06a13.58,13.58,0,0,1,2.63-1.16,9.61,9.61,0,0,1,2.76-.36,5.47,5.47,0,0,1,3.7,1.15,4.1,4.1,0,0,1,1.34,3.21l0,8Zm-1.06-2.76a2.11,2.11,0,0,0,1-1.5v-1.1h-3.1a3.37,3.37,0,0,0-1.75.36,1.27,1.27,0,0,0-.56,1.16A1.49,1.49,0,0,0,1027,504a2.51,2.51,0,0,0,1.59.46A3.9,3.9,0,0,0,1030.82,503.83Z"/><path class="cls-7" d="M1047.9,495a5.34,5.34,0,0,1,2,2.21,7.15,7.15,0,0,1,.72,3.28,7,7,0,0,1-.71,3.23,5.24,5.24,0,0,1-2,2.18,5.8,5.8,0,0,1-3,.78,5.26,5.26,0,0,1-2.43-.54,4.57,4.57,0,0,1-1.74-1.57v2h-3v-17h3v6.77a4.43,4.43,0,0,1,1.71-1.57,5.21,5.21,0,0,1,2.42-.54A5.79,5.79,0,0,1,1047.9,495Zm-1.23,8.07a3.79,3.79,0,0,0,1-2.67,3.74,3.74,0,0,0-1-2.66,3.52,3.52,0,0,0-5,0,4.19,4.19,0,0,0,0,5.34,3.27,3.27,0,0,0,2.5,1A3.22,3.22,0,0,0,1046.67,503.1Z"/><path class="cls-7" d="M1052.84,489.58h3v17h-3Z"/><path class="cls-7" d="M1068.66,495.91a6.87,6.87,0,0,1,1.48,4.7q0,.6,0,.89h-9.06a3.42,3.42,0,0,0,3.51,2.8,4.66,4.66,0,0,0,1.8-.36,4.41,4.41,0,0,0,1.5-1l1.61,1.67a6.2,6.2,0,0,1-2.24,1.56,7.52,7.52,0,0,1-2.92.55,6.83,6.83,0,0,1-3.31-.78,5.45,5.45,0,0,1-2.21-2.19,7.12,7.12,0,0,1,0-6.5A5.61,5.61,0,0,1,1061,495a6.53,6.53,0,0,1,3.23-.79A5.58,5.58,0,0,1,1068.66,495.91Zm-1.25,3.6a3,3,0,0,0-.89-2.16,3.49,3.49,0,0,0-4.44,0,3.49,3.49,0,0,0-1.09,2.17Z"/><path class="cls-3" d="M875.64,449.06h1.72c3.28,1.56,4.62,6,2.12,8.1-1.94,1.64-1.27,3.34-1.34,5.27h3.25c3.91,0,4.77.84,4.77,4.7q0,20.59,0,41.17c0,.46,0,.92,0,1.37a3.21,3.21,0,0,1-3.54,3.32c-1.46,0-2.93,0-4.8,0,.32,1.67.11,3.51.93,4.35,3.07,3.15,2.62,7.12-1.35,9h-1.72c-3.22-1.66-4.52-5.87-2.12-8,1.86-1.65,1.32-3.36,1.38-5.23H860.22c.25,1.53,0,3.31.76,4.16,3.09,3.43,2.79,6.91-1.14,9.07h-2.06c-3.17-1.93-4.27-6-1.84-8.1,1.89-1.63,1.39-3.29,1.33-5.14H842.52c.23,1.52,0,3.31.72,4.15,3.15,3.42,3,6.73-.92,9.1h-2.06c-3.24-1.78-4.45-5.88-2-8,1.83-1.63,1.42-3.31,1.32-5.24h-14.6c.23,1.53,0,3.37.74,4.24,3.09,3.39,2.73,7-1.24,9h-1.72c-3.28-1.56-4.62-6-2.12-8.1,1.94-1.64,1.27-3.34,1.34-5.27H818.7c-3.91,0-4.77-.84-4.77-4.7q0-20.59,0-41.17c0-.46,0-.92,0-1.37a3.21,3.21,0,0,1,3.54-3.33c1.46,0,2.93,0,4.8,0-.32-1.67-.1-3.51-.92-4.35-3.07-3.15-2.62-7.14,1.35-9h1.72c3.21,1.64,4.51,5.88,2.12,8-1.86,1.64-1.32,3.36-1.38,5.23h14.69c-.25-1.53,0-3.31-.76-4.16-3.09-3.43-2.79-6.92,1.14-9.07h2.06c3.17,1.93,4.27,6,1.84,8.1-1.89,1.63-1.39,3.3-1.34,5.14h14.76c-.23-1.52,0-3.32-.72-4.14-3.15-3.39-2.95-6.74.92-9.1h2.06c3.22,1.76,4.43,5.91,2,8-1.83,1.63-1.42,3.31-1.33,5.24h14.6c-.23-1.53,0-3.37-.74-4.24C871.32,454.71,871.67,451.1,875.64,449.06ZM817,472.34H819c4.06,0,8.13,0,12.19,0,2.22,0,3.11.8,3.11,2.94q0,12.45,0,24.9c0,2.07-.89,2.89-3,2.91-4.12,0-8.24,0-12.36,0H817v6.69H848.4v-13.1c-4.61-1.4-7.19-4.38-7.43-8.47-.25-4.31,2-7.25,7.42-9.61v-13H817Zm34.59,37.49H883V503.1h-1.94c-4.06,0-8.13,0-12.19,0-2.22,0-3.1-.8-3.11-2.94q0-12.45,0-24.89c0-2.07.89-2.89,3-2.91,4.12,0,8.24,0,12.36,0H883v-6.69H851.69v13.1c4.53,1.37,7.33,4.47,7.4,8.48.09,5.1-2.72,8.13-7.45,9.53Zm-20.46-34.4H817.07V500h14.11Zm51.92,0H869V500H883.1ZM848.45,482a5.84,5.84,0,0,0-4.38,6.31,5.35,5.35,0,0,0,4.38,4.9Zm3.2,11.26a5.53,5.53,0,0,0,4.39-5.87,5.33,5.33,0,0,0-4.39-5.22ZM825,453.89l-1.46-1.71c-.37.54-1,1.08-1,1.62s.62,1.13,1,1.7Zm14.71,0,1.49,1.65c.35-.56,1-1.12,1-1.68s-.63-1.09-1-1.64Zm20.6.08-1.41-1.76c-.37.53-1,1.06-1,1.59s.59,1.15.92,1.73Zm17.73,0-1.46-1.76c-.37.53-1,1-1,1.58s.56,1.16.88,1.74ZM822,521.67l1.57,1.58c.33-.56.92-1.13.91-1.69s-.63-1.09-1-1.63Zm20.73-.17-1.58-1.58c-.31.58-.88,1.16-.87,1.73s.63,1.06,1,1.59Zm17.6,0-1.52-1.58c-.33.57-.94,1.15-.93,1.72s.66,1.07,1,1.6Zm14.71.11,1.51,1.63c.35-.56,1-1.11,1-1.67s-.65-1.11-1-1.66Z"/></svg>