<svg id="Layer_1" data-name="Layer 1" xmlns="http://www.w3.org/2000/svg" viewBox="0 0 197.66 197.66"><defs><style>.cls-1{fill:none;stroke:#606060;stroke-miterlimit:10;stroke-width:3px;}.cls-2{fill:#606060;}.cls-3{fill:#666;}</style></defs><title>icons file</title><path class="cls-1" d="M98.19,125c-3.16,0-6.31,0-9.47,0-1.4,0-1.87-.57-1.93-1.91-.2-4.2.55-7.94,4.48-10.33a3,3,0,0,1,3.16-.29,9.32,9.32,0,0,0,7.36.08,4.08,4.08,0,0,1,2.93.17,10,10,0,0,1,4.55,11.11,2.34,2.34,0,0,1-1.81,1.11C104.38,125.07,101.28,125,98.19,125Z"/><path class="cls-1" d="M67.65,76.28c-3.09,0-6.18,0-9.28,0-1.35,0-1.88-.44-1.94-1.86-.16-4,.38-7.57,4-10a3.54,3.54,0,0,1,4-.5,8.94,8.94,0,0,0,7.17-.11,3.52,3.52,0,0,1,2.58.12,8.44,8.44,0,0,1,4.78,7.41c0,.82,0,1.65,0,2.46.22,1.86-.44,2.62-2.42,2.52C73.58,76.18,70.61,76.28,67.65,76.28Z"/><path class="cls-1" d="M129.75,75.16c-3.09,0-6.19,0-9.28,0-1.48,0-1.94-.53-2-2-.19-4.14.52-7.81,4.38-10.18a3.1,3.1,0,0,1,3.32-.3,9.28,9.28,0,0,0,7.36,0,3.8,3.8,0,0,1,2.74.17,10,10,0,0,1,4.63,11.24,2.17,2.17,0,0,1-1.68,1C136.07,75.21,132.91,75.16,129.75,75.16Z"/><path class="cls-1" d="M136.87,50.87a7.21,7.21,0,0,1-9.55,7.63c-3.74-1.32-5.57-5.25-4.64-10A7.13,7.13,0,0,1,130,42.6C134.21,42.74,136.88,45.94,136.87,50.87Z"/><path class="cls-1" d="M90.9,100.51a7.2,7.2,0,0,1,9.7-7.61c4.39,1.63,5.54,6,4.3,10.82a7,7,0,0,1-8.69,4.74C92.75,107.55,90.89,104.77,90.9,100.51Z"/><path class="cls-1" d="M60.56,52a7.21,7.21,0,0,1,9.35-7.87,6.83,6.83,0,0,1,4.84,5.75c.35,2.53.36,5.05-1.25,7.27a7.2,7.2,0,0,1-8.09,2.55C62.21,58.58,60.56,56,60.56,52Z"/><path class="cls-2" d="M60.45,83.06a9.92,9.92,0,0,1,1.28-.19c1.18,0,2.37,0,3.86,0,1.12,11.49,6.49,20.32,16.43,26.4-.54.85-1,1.59-1.47,2.35s-.8,1.39-1.18,2.07C69.18,109.43,59.74,94.13,60.45,83.06Z"/><path class="cls-2" d="M130.46,83h5.06c1.33,10.25-8.11,25.77-18.71,30.73l-2.72-4.46C123.91,103.24,129.4,94.48,130.46,83Z"/><path class="cls-2" d="M113.37,52.88c-10.27-5-20.41-5-30.65,0a36.41,36.41,0,0,1,.39-5.13A3,3,0,0,1,84.82,46a38,38,0,0,1,26.31-.12,2.4,2.4,0,0,1,1.95,2.77A31.46,31.46,0,0,0,113.37,52.88Z"/><path class="cls-3" d="M43.85,150.84h3.24v17.44H43.92l-9-12v12H31.69V150.84h3.16l9,12Z"/><path class="cls-3" d="M61,156.67a7.46,7.46,0,0,1,1.61,5.11q0,.65,0,1H52.77a3.71,3.71,0,0,0,3.81,3,5.06,5.06,0,0,0,2-.39,4.78,4.78,0,0,0,1.63-1.11l1.74,1.82a6.74,6.74,0,0,1-2.43,1.69,8.17,8.17,0,0,1-3.18.6,7.4,7.4,0,0,1-3.6-.85,5.92,5.92,0,0,1-2.4-2.38,7.73,7.73,0,0,1,0-7.06,6.09,6.09,0,0,1,2.4-2.4,7.11,7.11,0,0,1,3.51-.86A6.06,6.06,0,0,1,61,156.67Zm-1.36,3.91a3.23,3.23,0,0,0-1-2.34,3.79,3.79,0,0,0-4.82,0,3.79,3.79,0,0,0-1.18,2.35Z"/><path class="cls-3" d="M72.64,167.45a6.32,6.32,0,0,1-3.34,1,4,4,0,0,1-2.81-1,3.85,3.85,0,0,1-1.1-3v-6.58H63.53l0-2.37h1.89v-3.66h3.21v3.66h3.81v2.37H68.61v6a1.94,1.94,0,0,0,.35,1.31,1.34,1.34,0,0,0,1,.39A4.64,4.64,0,0,0,71.9,165Z"/><path class="cls-3" d="M72.57,155l3.34,0L79.17,165l3.16-10.06h3.26L88.81,165,92,154.95h3.26l-4.83,13.33H87.11l-3.19-9.39-3.16,9.39H77.45Z"/><path class="cls-3" d="M105.58,155.7a6.13,6.13,0,0,1,2.47,2.38,6.92,6.92,0,0,1,.88,3.52,7,7,0,0,1-.88,3.56,6.1,6.1,0,0,1-2.47,2.39,7.6,7.6,0,0,1-3.65.85,7.73,7.73,0,0,1-3.69-.85,6.08,6.08,0,0,1-2.48-2.39,7,7,0,0,1-.88-3.56,6.92,6.92,0,0,1,.88-3.52,6.11,6.11,0,0,1,2.48-2.38,7.74,7.74,0,0,1,3.69-.85A7.62,7.62,0,0,1,105.58,155.7Zm-6.39,3a4.58,4.58,0,0,0,0,5.83,3.57,3.57,0,0,0,2.74,1.12,3.51,3.51,0,0,0,2.69-1.12,4.58,4.58,0,0,0,0-5.83,3.52,3.52,0,0,0-2.69-1.12A3.58,3.58,0,0,0,99.19,158.73Z"/><path class="cls-3" d="M116.24,155.53a5.38,5.38,0,0,1,2.7-.71V158a4.39,4.39,0,0,0-3.3,1,3.7,3.7,0,0,0-1.23,2.93v6.43h-3.24V154.95h3.24v2.57A4.82,4.82,0,0,1,116.24,155.53Z"/><path class="cls-3" d="M129.66,168.27,126,162.45l-2,2.14v3.69h-3.24V149.79H124V160.5l5.48-5.53h3.74l-4.93,5.13,5.23,8.17Z"/><path class="cls-3" d="M138.05,149.77a1.94,1.94,0,0,1,.52,1.39,1.91,1.91,0,0,1-.52,1.37,1.86,1.86,0,0,1-2.64,0,1.91,1.91,0,0,1-.52-1.37,1.94,1.94,0,0,1,.52-1.39,1.86,1.86,0,0,1,2.64,0Zm-2.91,5.18h3.24v13.33h-3.24Z"/><path class="cls-3" d="M153.44,156.21a5.2,5.2,0,0,1,1.32,3.75v8.32H151.5V160.9a3,3,0,0,0-.8-2.2,2.91,2.91,0,0,0-2.17-.81A3.28,3.28,0,0,0,146,159a4,4,0,0,0-.93,2.74v6.55h-3.24V154.95H145v2.49a5,5,0,0,1,4.78-2.62A4.76,4.76,0,0,1,153.44,156.21Z"/><path class="cls-3" d="M170,154.95V167a6.21,6.21,0,0,1-.86,3.3,5.65,5.65,0,0,1-2.44,2.17,8.4,8.4,0,0,1-3.67.76,9.78,9.78,0,0,1-5.63-1.77l1.29-2.34a6.86,6.86,0,0,0,4.16,1.4,4.19,4.19,0,0,0,2.85-.92,3.16,3.16,0,0,0,1.06-2.52v-1.57a4.43,4.43,0,0,1-1.74,1.56,5.49,5.49,0,0,1-2.49.54,5.87,5.87,0,0,1-3.09-.81,5.52,5.52,0,0,1-2.09-2.27,7.23,7.23,0,0,1-.75-3.35,7,7,0,0,1,.75-3.3,5.48,5.48,0,0,1,2.09-2.23,5.94,5.94,0,0,1,3.09-.8,5.43,5.43,0,0,1,2.48.55,4.58,4.58,0,0,1,1.76,1.54v-2ZM165.79,164a4.34,4.34,0,0,0,0-5.5,3.59,3.59,0,0,0-5.11,0,4.24,4.24,0,0,0,0,5.49,3.61,3.61,0,0,0,5.11,0Z"/></svg>