<svg id="Layer_1" data-name="Layer 1" xmlns="http://www.w3.org/2000/svg" viewBox="0 0 197.66 197.66"><defs><style>.cls-1{fill:#606060;}.cls-2{fill:#666;}</style></defs><title>icons file</title><path class="cls-1" d="M77.26,100.64c-4.68,5.81-9.41,5.77-13.6-.21-4.56,2.43-9.24,4.77-13.72,7.44-.84.5-.8,2.35-1.36,3.49a17.13,17.13,0,0,1-1.76,2.46c-.5-.89-1.39-1.76-1.44-2.67a6.9,6.9,0,0,1,4.22-7.08c4.16-2,8.24-4.23,12.35-6.35,2.37-1.22,2.36-1.79,1-4a14.69,14.69,0,0,1-2.14-5.61,46.06,46.06,0,0,1,0-8.82,9.55,9.55,0,0,1,9.39-8.87A9.42,9.42,0,0,1,80,78.59a54.24,54.24,0,0,1,0,10.67,10.7,10.7,0,0,1-2,4.53c-1.39,2.12-1.32,2.84,1,4.06,4.18,2.19,8.4,4.3,12.55,6.56,3.18,1.73,4.39,4.15,3.81,7.51-.12.67-1,1.21-1.49,1.81-.57-.57-1.67-1.2-1.61-1.7.4-3.45-1.92-4.66-4.4-5.91C84.32,104.37,80.87,102.52,77.26,100.64ZM64.16,84h-.11c0,1.33-.07,2.67,0,4a7.21,7.21,0,0,0,5.84,6.4c2.56.35,6.33-2.07,6.67-5a46.81,46.81,0,0,0-.08-11.1c-.36-2.87-3.55-4.77-6.39-4.56a6.21,6.21,0,0,0-5.92,5.5A44.07,44.07,0,0,0,64.16,84Zm2.07,13.14c1,1.68,1.41,3.3,2.41,3.85a4.61,4.61,0,0,0,3.87-.16c.92-.53,1.24-2.1,2.1-3.72a32.63,32.63,0,0,1-4,.58A40.55,40.55,0,0,1,66.23,97.13Z"/><path class="cls-1" d="M134.2,100.67c-4.44,6-10.2,5.34-13.67-.19-4.4,2.31-8.89,4.49-13.17,7.05-1,.61-1.23,2.49-1.9,3.75-.47.89-1.09,1.7-1.64,2.55-.54-.84-1.48-1.64-1.55-2.51a6.8,6.8,0,0,1,4.08-7.15c4.15-2.07,8.24-4.25,12.36-6.37,2.59-1.33,2.53-1.79,1.12-4.17a15.92,15.92,0,0,1-2-5.88,52,52,0,0,1-.07-7.75A9.67,9.67,0,0,1,137,79a59.84,59.84,0,0,1,0,10.16,9.88,9.88,0,0,1-1.86,4.35c-1.71,2.54-1.64,3.16,1.15,4.6l12.11,6.26a6.64,6.64,0,0,1,3.87,7.25c-.1.77-.93,1.44-1.42,2.16-.6-.64-1.77-1.33-1.71-1.9.31-3.18-1.72-4.39-4.06-5.57C141.38,104.46,137.78,102.53,134.2,100.67ZM133.84,84h0c0-1.42.08-2.85,0-4.27a6.52,6.52,0,0,0-6.3-6.07A6.35,6.35,0,0,0,121,79.77c-.13,2.75-.11,5.51,0,8.27.12,3.25,3.34,6.38,6.4,6.38s6.25-3.15,6.44-6.39C133.91,86.7,133.84,85.36,133.84,84Zm-3.1,13.44H124c-.21,2.55,1,4.13,3.35,4.16S130.92,100.06,130.74,97.46Z"/><path class="cls-1" d="M117.24,63.11c-2.11,0-4,0-5.8,0s-2.61-.69-2.6-2.52q.05-8.82,0-17.64c0-1.93.82-2.66,2.76-2.65q14.3.09,28.6,0c1.84,0,2.62.71,2.61,2.5,0,6,0,11.94,0,17.91,0,1.7-.73,2.42-2.41,2.41-3.47,0-7-.15-10.42.06a7.91,7.91,0,0,0-4,1.5c-2,1.47-3.69,3.35-5.62,4.93a2.48,2.48,0,0,1-2.1.5,2.67,2.67,0,0,1-1-2C117.14,66.6,117.24,65,117.24,63.11Zm-5-3.71c3,1.73,9.28-2.7,8.29,5.46A19.3,19.3,0,0,0,122.71,63a9.18,9.18,0,0,1,8.53-3.26c2.69.26,5.43.05,8.09.05V43.75H112.26Z"/><path class="cls-1" d="M73.74,59.75a47,47,0,0,1,0,4.77,3.09,3.09,0,0,1-1,2.2,2.41,2.41,0,0,1-2.24-.65c-4.8-6.56-11.57-6.94-18.79-6.38-3.44.27-3.49,0-3.49-3.31,0-5.53.07-11.05,0-16.58,0-2.1.69-2.82,2.78-2.8q14.17.11,28.35,0c2.07,0,2.83.69,2.79,2.8-.11,5.7-.12,11.41,0,17.11.05,2.31-.88,3-3,2.86C77.37,59.66,75.69,59.75,73.74,59.75Zm4.88-19.22h-27V56.37c6.53.65,13.79-2.28,18.61,5.79a19.36,19.36,0,0,0,.18-2.37c-.29-2.56.8-3.61,3.38-3.36,1.56.15,3.14,0,4.82,0Z"/><path class="cls-1" d="M125.84,53.73c2.49,0,5-.13,7.46.07.78.06,1.5,1,2.24,1.55-.75.55-1.48,1.56-2.24,1.58q-7.73.21-15.47,0c-.76,0-1.49-1-2.23-1.58.74-.55,1.46-1.5,2.23-1.56,2.65-.2,5.33-.08,8-.08Z"/><path class="cls-1" d="M122.09,50.26a32.88,32.88,0,0,1-4.79-.08c-.62-.09-1.11-1-1.66-1.61.53-.49,1-1.4,1.59-1.42,3.38-.13,6.76-.13,10.14,0a2.08,2.08,0,0,1,1.44,1.47,2.08,2.08,0,0,1-1.38,1.52,48,48,0,0,1-5.33.07Z"/><path class="cls-1" d="M65.36,43.66c2.58,0,5.16-.13,7.72.08.81.07,1.55,1,2.33,1.6-.79.52-1.56,1.47-2.37,1.49q-7.73.2-15.46,0c-.78,0-1.53-1-2.29-1.53.78-.55,1.52-1.5,2.33-1.56C60.2,43.52,62.78,43.65,65.36,43.66Z"/><path class="cls-1" d="M62,50.44a35.77,35.77,0,0,1,4.8.07c.65.09,1.19,1,1.79,1.46-.48.55-.94,1.57-1.44,1.59-3.47.14-6.95.14-10.41,0-.5,0-1.32-1.07-1.31-1.63s.92-1.34,1.5-1.4A44.65,44.65,0,0,1,62,50.45Z"/><path class="cls-2" d="M3.15,149.3H17.37v3H11.94v14.47H8.58V152.27H3.15Z"/><path class="cls-2" d="M26.69,166.74v-1.62a4.36,4.36,0,0,1-1.79,1.32,6.6,6.6,0,0,1-2.52.45,5.36,5.36,0,0,1-2.45-.54,3.93,3.93,0,0,1-1.63-1.48,4,4,0,0,1-.57-2.12A3.54,3.54,0,0,1,19,159.83a5.94,5.94,0,0,1,3.74-1.08h3.89v-.35a2.24,2.24,0,0,0-.77-1.82,3.41,3.41,0,0,0-2.24-.65,7.7,7.7,0,0,0-4,1.25l-1.17-2.24a14.76,14.76,0,0,1,2.85-1.26,10.47,10.47,0,0,1,3-.39,5.94,5.94,0,0,1,4,1.25A4.45,4.45,0,0,1,29.85,158l0,8.72Zm-1.15-3a2.3,2.3,0,0,0,1.12-1.63v-1.2H23.3a3.66,3.66,0,0,0-1.91.39,1.37,1.37,0,0,0-.61,1.26,1.62,1.62,0,0,0,.64,1.34,2.73,2.73,0,0,0,1.73.5A4.23,4.23,0,0,0,25.54,163.74Z"/><path class="cls-2" d="M33.06,148.26H36.3v18.48H33.06Z"/><path class="cls-2" d="M48.91,166.74l-3.61-5.83-2,2.14v3.69H40V148.26h3.24V159l5.48-5.53h3.74l-4.93,5.13,5.23,8.17Z"/><path class="cls-2" d="M67.71,165.92a6.32,6.32,0,0,1-3.34,1,4,4,0,0,1-2.81-1,3.85,3.85,0,0,1-1.1-3v-6.58H58.59l0-2.37h1.89V150.3h3.21V154h3.81v2.37H63.68v6a1.94,1.94,0,0,0,.35,1.31,1.34,1.34,0,0,0,1,.39,4.64,4.64,0,0,0,1.89-.55Z"/><path class="cls-2" d="M79,154.16a6.13,6.13,0,0,1,2.47,2.38,6.92,6.92,0,0,1,.88,3.52,7,7,0,0,1-.88,3.56A6.1,6.1,0,0,1,79,166a7.6,7.6,0,0,1-3.65.85A7.73,7.73,0,0,1,71.7,166a6.08,6.08,0,0,1-2.48-2.39,7,7,0,0,1-.88-3.56,6.92,6.92,0,0,1,.88-3.52,6.11,6.11,0,0,1,2.48-2.38,7.74,7.74,0,0,1,3.69-.85A7.62,7.62,0,0,1,79,154.16Zm-6.39,3a4.58,4.58,0,0,0,0,5.83,3.57,3.57,0,0,0,2.74,1.12A3.51,3.51,0,0,0,78.07,163a4.58,4.58,0,0,0,0-5.83,3.52,3.52,0,0,0-2.69-1.12A3.58,3.58,0,0,0,72.64,157.2Z"/><path class="cls-2" d="M99.63,154.16a6.13,6.13,0,0,1,2.47,2.38,6.92,6.92,0,0,1,.88,3.52,7,7,0,0,1-.88,3.56A6.1,6.1,0,0,1,99.63,166a7.6,7.6,0,0,1-3.65.85,7.73,7.73,0,0,1-3.69-.85,6.08,6.08,0,0,1-2.48-2.39,7,7,0,0,1-.88-3.56,6.92,6.92,0,0,1,.88-3.52,6.11,6.11,0,0,1,2.48-2.38,7.74,7.74,0,0,1,3.69-.85A7.62,7.62,0,0,1,99.63,154.16Zm-6.39,3a4.58,4.58,0,0,0,0,5.83A3.57,3.57,0,0,0,96,164.15,3.51,3.51,0,0,0,98.67,163a4.58,4.58,0,0,0,0-5.83A3.52,3.52,0,0,0,96,156.08,3.58,3.58,0,0,0,93.24,157.2Z"/><path class="cls-2" d="M117.53,153.41v13.33h-3.26v-2.47a4.78,4.78,0,0,1-4.63,2.59,4.63,4.63,0,0,1-3.54-1.37,5.22,5.22,0,0,1-1.29-3.74v-8.34h3.26v7.4a3,3,0,0,0,.76,2.19,2.77,2.77,0,0,0,2.1.8,3.08,3.08,0,0,0,2.44-1.1,4.09,4.09,0,0,0,.9-2.71v-6.58Z"/><path class="cls-2" d="M126.06,154a5.38,5.38,0,0,1,2.7-.71v3.14a4.39,4.39,0,0,0-3.3,1,3.7,3.7,0,0,0-1.23,2.93v6.43H121V153.41h3.24V156A4.82,4.82,0,0,1,126.06,154Z"/><path class="cls-2" d="M143.78,165.92a6.32,6.32,0,0,1-3.34,1,4,4,0,0,1-2.81-1,3.85,3.85,0,0,1-1.1-3v-6.58h-1.87l0-2.37h1.89V150.3h3.21V154h3.81v2.37h-3.81v6a1.94,1.94,0,0,0,.35,1.31,1.34,1.34,0,0,0,1,.39,4.64,4.64,0,0,0,1.89-.55Z"/><path class="cls-2" d="M156,155.13a7.46,7.46,0,0,1,1.61,5.11q0,.65,0,1h-9.84a3.71,3.71,0,0,0,3.81,3,5.06,5.06,0,0,0,2-.39,4.78,4.78,0,0,0,1.63-1.11l1.74,1.82a6.74,6.74,0,0,1-2.43,1.69,8.17,8.17,0,0,1-3.18.6,7.4,7.4,0,0,1-3.6-.85,5.92,5.92,0,0,1-2.4-2.38,7.73,7.73,0,0,1,0-7.06,6.09,6.09,0,0,1,2.4-2.4,7.11,7.11,0,0,1,3.51-.86A6.06,6.06,0,0,1,156,155.13ZM154.61,159a3.23,3.23,0,0,0-1-2.34,3.79,3.79,0,0,0-4.82,0,3.79,3.79,0,0,0-1.18,2.35Z"/><path class="cls-2" d="M167.67,166.74v-1.62a4.36,4.36,0,0,1-1.79,1.32,6.6,6.6,0,0,1-2.52.45,5.36,5.36,0,0,1-2.45-.54,3.93,3.93,0,0,1-1.63-1.48,4,4,0,0,1-.57-2.12,3.54,3.54,0,0,1,1.32-2.93,5.94,5.94,0,0,1,3.74-1.08h3.89v-.35a2.24,2.24,0,0,0-.77-1.82,3.41,3.41,0,0,0-2.24-.65,7.7,7.7,0,0,0-4,1.25l-1.17-2.24a14.76,14.76,0,0,1,2.85-1.26,10.47,10.47,0,0,1,3-.39,5.94,5.94,0,0,1,4,1.25,4.45,4.45,0,0,1,1.46,3.49l0,8.72Zm-1.15-3a2.3,2.3,0,0,0,1.12-1.63v-1.2h-3.36a3.66,3.66,0,0,0-1.91.39,1.37,1.37,0,0,0-.61,1.26,1.62,1.62,0,0,0,.64,1.34,2.73,2.73,0,0,0,1.73.5A4.23,4.23,0,0,0,166.52,163.74Z"/><path class="cls-2" d="M194.94,154.67a5.27,5.27,0,0,1,1.29,3.75v8.32H193v-7.37a3.07,3.07,0,0,0-.78-2.23,2.83,2.83,0,0,0-2.13-.81,3.2,3.2,0,0,0-2.45,1.12,4,4,0,0,0-.91,2.71v6.58h-3.26v-7.37a3.1,3.1,0,0,0-.77-2.23,2.79,2.79,0,0,0-2.12-.81,3.22,3.22,0,0,0-2.48,1.12,4.05,4.05,0,0,0-.91,2.71v6.58h-3.24V153.41h3.24v2.47a4.91,4.91,0,0,1,4.68-2.59,5,5,0,0,1,2.93.83,4.38,4.38,0,0,1,1.66,2.35,4.93,4.93,0,0,1,5-3.19A4.65,4.65,0,0,1,194.94,154.67Z"/></svg>