<svg id="Layer_1" data-name="Layer 1" xmlns="http://www.w3.org/2000/svg" viewBox="0 0 197.66 197.66"><defs><style>.cls-1,.cls-2{fill:#606060;}.cls-1{stroke:#fff;stroke-miterlimit:10;}.cls-3{fill:#666;}</style></defs><title>icons file</title><path class="cls-1" d="M73.88,112.42a47.82,47.82,0,0,1-13-13,37.89,37.89,0,0,1-6-18.32c-.21-3,.42-4.54,3.38-5.56a83.42,83.42,0,0,1,10.61-2.62c2-.4,4-.44,6-.64,2.47-.26,3.73.38,3.75,2,0,2.32-1.71,2.4-3.41,2.62-4.14.55-8.28,1.2-12.41,1.84a11.32,11.32,0,0,0-1.61.52c12.24,3.85,48.68,4.24,63.79-.32-3-.51-6.05-1.26-9.11-1.48-8.13-.57-16.27-.93-24.41-1.34C89.15,76,87.81,74.55,88.76,73a3.21,3.21,0,0,1,2.29-1.37c10.56-.12,21.11.18,31.49,2.33a46,46,0,0,1,6.48,2.4,11.5,11.5,0,0,0,1.9.59c8.13,1.51,13.63,9.58,11.6,17.08a14.24,14.24,0,0,1-18.82,9.87,2.32,2.32,0,0,0-2.85.68c-2.88,2.66-5.9,5.17-9,7.85H127c1.4,0,3.28-.37,3.61,1.37a6,6,0,0,1-1,4.28c-2.45,3.24-6.19,4.58-9.94,5.7-8.61,2.58-17.48,3.27-26.4,3.3-9.22,0-18.41-.58-27.28-3.37a39.83,39.83,0,0,1-7.67-3.59A8.6,8.6,0,0,1,55.45,117c-1.62-2.74-.44-4.62,2.75-4.62Zm-14-28.35C62.08,101.41,78,113.9,95.68,112.35c18.91-1.66,29.57-17.11,30-28.23A185.13,185.13,0,0,1,59.9,84.07Zm2.4,33.07c12,7.11,50.17,6.88,61,0Zm62.62-17.62c4,1.32,7.43.94,10.34-1.65s3.64-6.24,2.56-10c-1-3.33-3.23-5.36-6.89-6.21A38.81,38.81,0,0,1,124.91,99.52Z"/><path class="cls-2" d="M80.27,66.25a8,8,0,0,1,2.83-6.14c1.54-1.52,3.21-2.92,4.74-4.45,3.09-3.09,3-4.6-.38-7.25-1.71-1.33-3.57-2.48-5.23-3.86a7.33,7.33,0,0,1-2.13-2.78c-.19-.48.68-1.38,1.07-2.1.42.51.86,1,1.26,1.54a8.54,8.54,0,0,0,1.21,1.63c2.06,1.61,4.31,3,6.26,4.72,3.15,2.78,3.33,5.37.61,8.57a43.13,43.13,0,0,1-5.15,5c-2.76,2.33-3.6,5.19-2.26,8.42,1.14,2.73,2.83,5.22,4.15,7.88a8.55,8.55,0,0,1,.41,2.48c-.72-.34-1.68-.5-2.11-1.06C82.7,75.13,80.53,71.08,80.27,66.25Z"/><path class="cls-2" d="M105.18,48.22c-.26,5-2.63,9.1-5.62,12.9-.32.4-1.25.31-1.9.45a6,6,0,0,1,.26-2c1.46-2.83,3.24-5.52,4.5-8.43s.52-5.82-2.06-8.06a41.13,41.13,0,0,1-5.15-5,14.58,14.58,0,0,1-1.95-4.38c-.1-.29.4-1,.76-1.16a1.37,1.37,0,0,1,1.19.64c.74,3.66,3.88,5.36,6.22,7.68C103.49,43,105.43,45,105.18,48.22Z"/><path class="cls-3" d="M38.07,154.14H52.29v3H46.86v14.47H43.5V157.11H38.07Z"/><path class="cls-3" d="M62.59,160a7.46,7.46,0,0,1,1.61,5.11q0,.65,0,1H54.33a3.71,3.71,0,0,0,3.81,3,5.06,5.06,0,0,0,2-.39,4.78,4.78,0,0,0,1.63-1.11l1.74,1.82A6.74,6.74,0,0,1,61,171.11a8.17,8.17,0,0,1-3.18.6,7.4,7.4,0,0,1-3.6-.85,5.92,5.92,0,0,1-2.4-2.38,7.73,7.73,0,0,1,0-7.06,6.09,6.09,0,0,1,2.4-2.4,7.11,7.11,0,0,1,3.51-.86A6.07,6.07,0,0,1,62.59,160Zm-1.36,3.91a3.24,3.24,0,0,0-1-2.34,3.79,3.79,0,0,0-4.82,0,3.8,3.8,0,0,0-1.18,2.35Z"/><path class="cls-3" d="M74.29,171.58V170a4.36,4.36,0,0,1-1.79,1.32,6.6,6.6,0,0,1-2.52.45,5.36,5.36,0,0,1-2.45-.54,3.93,3.93,0,0,1-1.63-1.48,4,4,0,0,1-.57-2.12,3.54,3.54,0,0,1,1.32-2.93,5.94,5.94,0,0,1,3.74-1.08h3.89v-.35a2.24,2.24,0,0,0-.77-1.82,3.41,3.41,0,0,0-2.24-.65,7.7,7.7,0,0,0-4,1.25l-1.17-2.24A14.75,14.75,0,0,1,69,158.52a10.48,10.48,0,0,1,3-.39,5.94,5.94,0,0,1,4,1.25,4.45,4.45,0,0,1,1.46,3.49l0,8.72Zm-1.15-3a2.3,2.3,0,0,0,1.12-1.63v-1.2H70.9a3.66,3.66,0,0,0-1.91.39,1.37,1.37,0,0,0-.61,1.26,1.62,1.62,0,0,0,.63,1.34,2.73,2.73,0,0,0,1.73.5A4.24,4.24,0,0,0,73.14,168.58Z"/><path class="cls-3" d="M85.84,151.28h2.74l-7.92,23.16H77.9Z"/><path class="cls-3" d="M98.46,157.51a5.92,5.92,0,0,0-5.52.17,5.6,5.6,0,0,0-2.12,2.13,6.12,6.12,0,0,0,0,6,5.69,5.69,0,0,0,2.12,2.14,5.77,5.77,0,0,0,3,.78,6.23,6.23,0,0,0,2.5-.55,7.18,7.18,0,0,0,2.23-1.52l2,2.19a10.29,10.29,0,0,1-3.19,2.2,9,9,0,0,1-3.69.81,9.12,9.12,0,0,1-4.61-1.2,8.76,8.76,0,0,1-3.29-3.25,8.88,8.88,0,0,1-1.2-4.55,8.67,8.67,0,0,1,1.22-4.53,8.77,8.77,0,0,1,3.33-3.21,9.64,9.64,0,0,1,8.33-.42,9,9,0,0,1,3.06,2.07l-1.94,2.44A6.56,6.56,0,0,0,98.46,157.51Z"/><path class="cls-3" d="M113.78,159a6.13,6.13,0,0,1,2.47,2.38,6.93,6.93,0,0,1,.88,3.52,7,7,0,0,1-.88,3.56,6.1,6.1,0,0,1-2.47,2.39,7.6,7.6,0,0,1-3.65.85,7.73,7.73,0,0,1-3.69-.85,6.08,6.08,0,0,1-2.48-2.39,7,7,0,0,1-.88-3.56,6.92,6.92,0,0,1,.88-3.52,6.11,6.11,0,0,1,2.48-2.38,7.74,7.74,0,0,1,3.69-.85A7.61,7.61,0,0,1,113.78,159Zm-6.39,3a4.58,4.58,0,0,0,0,5.83,3.57,3.57,0,0,0,2.74,1.12,3.51,3.51,0,0,0,2.69-1.12,4.58,4.58,0,0,0,0-5.83,3.52,3.52,0,0,0-2.69-1.12A3.57,3.57,0,0,0,107.39,162Z"/><path class="cls-3" d="M123.54,156.16a1.6,1.6,0,0,0-.49,1.27v1.37h3.34v2.37h-3.34v10.41h-3.24V161.17h-1.74V158.8h1.74v-1.27a4.63,4.63,0,0,1,.65-2.5,4.12,4.12,0,0,1,1.73-1.56,5.34,5.34,0,0,1,2.35-.52,5.6,5.6,0,0,1,2.44.57l-.57,2.62a4.67,4.67,0,0,0-1.64-.4A1.81,1.81,0,0,0,123.54,156.16Z"/><path class="cls-3" d="M132.18,156.16a1.6,1.6,0,0,0-.49,1.27v1.37H135v2.37H131.7v10.41h-3.24V161.17h-1.74V158.8h1.74v-1.27a4.63,4.63,0,0,1,.65-2.5,4.12,4.12,0,0,1,1.73-1.56,5.34,5.34,0,0,1,2.35-.52,5.6,5.6,0,0,1,2.44.57l-.57,2.62a4.67,4.67,0,0,0-1.64-.4A1.81,1.81,0,0,0,132.18,156.16Z"/><path class="cls-3" d="M146.48,160a7.46,7.46,0,0,1,1.61,5.11q0,.65,0,1h-9.84a3.71,3.71,0,0,0,3.81,3,5.06,5.06,0,0,0,2-.39,4.78,4.78,0,0,0,1.63-1.11l1.74,1.82a6.74,6.74,0,0,1-2.43,1.69,8.17,8.17,0,0,1-3.18.6,7.4,7.4,0,0,1-3.6-.85,5.92,5.92,0,0,1-2.4-2.38,7.73,7.73,0,0,1,0-7.06,6.09,6.09,0,0,1,2.4-2.4,7.11,7.11,0,0,1,3.51-.86A6.07,6.07,0,0,1,146.48,160Zm-1.36,3.91a3.24,3.24,0,0,0-1-2.34,3.79,3.79,0,0,0-4.82,0,3.8,3.8,0,0,0-1.18,2.35Z"/><path class="cls-3" d="M160.65,160a7.46,7.46,0,0,1,1.61,5.11q0,.65,0,1H152.4a3.71,3.71,0,0,0,3.81,3,5.06,5.06,0,0,0,2-.39,4.78,4.78,0,0,0,1.63-1.11l1.74,1.82a6.74,6.74,0,0,1-2.43,1.69,8.17,8.17,0,0,1-3.18.6,7.4,7.4,0,0,1-3.6-.85,5.92,5.92,0,0,1-2.4-2.38,7.73,7.73,0,0,1,0-7.06,6.09,6.09,0,0,1,2.4-2.4,7.11,7.11,0,0,1,3.51-.86A6.07,6.07,0,0,1,160.65,160Zm-1.36,3.91a3.24,3.24,0,0,0-1-2.34,3.79,3.79,0,0,0-4.82,0,3.8,3.8,0,0,0-1.18,2.35Z"/></svg>