<svg id="Layer_1" data-name="Layer 1" xmlns="http://www.w3.org/2000/svg" viewBox="0 0 197.66 197.66"><defs><style>.cls-1{fill:#606060;stroke:#fff;stroke-miterlimit:10;stroke-width:4px;}.cls-2{fill:#666;}</style></defs><title>wifi icon</title><path class="cls-1" d="M103.79,44c14.55.34,30.62,7.61,43.34,22a7.35,7.35,0,0,1,1.67,4.24A3.79,3.79,0,0,1,145.7,74a4.43,4.43,0,0,1-4.86-1.53,55.32,55.32,0,0,0-13.72-11.69A54.76,54.76,0,0,0,57.66,71.63a8.78,8.78,0,0,1-2.87,2.28,4.24,4.24,0,0,1-5-1.57A4.17,4.17,0,0,1,50,66.78,111.7,111.7,0,0,1,60.75,56.66C71.52,48.25,85.51,43.77,103.79,44Z"/><path class="cls-1" d="M99.06,62.21a45.19,45.19,0,0,1,34.42,15.87c1.6,1.81,1.88,3.82.86,5.54a4,4,0,0,1-4.75,2.13,7.31,7.31,0,0,1-3.18-2.1,36.23,36.23,0,0,0-23.26-12.16c-12-1.33-22.12,2.53-30.59,11-.54.54-1,1.13-1.55,1.69-1.9,2-4.57,2.33-6.49.72a4.62,4.62,0,0,1-.27-6.68A43.78,43.78,0,0,1,76.74,68,44.76,44.76,0,0,1,99.06,62.21Z"/><path class="cls-1" d="M98.81,80.49a27.22,27.22,0,0,1,20.38,9c2.25,2.44,2.31,5.1.28,7s-4.6,1.59-6.91-.85c-7.82-8.25-19.53-8.2-27.39.12-2.18,2.31-4.75,2.59-6.76.74s-2.05-4.43.09-6.8A27,27,0,0,1,98.81,80.49Z"/><path class="cls-1" d="M98.88,117a9.09,9.09,0,1,1,9.12-9.06V108A9.11,9.11,0,0,1,98.88,117Z"/><path class="cls-2" d="M45,148.89H56.61l0,2.81H48.24v4.54h7.61V159H48.24v6.65H45Z"/><path class="cls-2" d="M63.78,153.41a5.19,5.19,0,0,1,2.6-.68v3a4.23,4.23,0,0,0-3.18.92A3.56,3.56,0,0,0,62,159.5v6.19H58.89V152.85H62v2.47A4.64,4.64,0,0,1,63.78,153.41Z"/><path class="cls-2" d="M78.54,154.51a7.18,7.18,0,0,1,1.55,4.92q0,.62,0,.94H70.58a3.58,3.58,0,0,0,3.67,2.93,4.87,4.87,0,0,0,1.88-.37,4.6,4.6,0,0,0,1.57-1.07l1.68,1.75a6.5,6.5,0,0,1-2.34,1.63,7.88,7.88,0,0,1-3.06.58,7.14,7.14,0,0,1-3.47-.82,5.7,5.7,0,0,1-2.32-2.29,7.45,7.45,0,0,1,0-6.8,5.86,5.86,0,0,1,2.32-2.32,6.84,6.84,0,0,1,3.38-.83A5.84,5.84,0,0,1,78.54,154.51Zm-1.31,3.77a3.11,3.11,0,0,0-.94-2.26,3.65,3.65,0,0,0-4.64,0,3.66,3.66,0,0,0-1.14,2.27Z"/><path class="cls-2" d="M92.75,154.51a7.19,7.19,0,0,1,1.55,4.92q0,.62,0,.94H84.79a3.58,3.58,0,0,0,3.67,2.93,4.87,4.87,0,0,0,1.88-.37,4.6,4.6,0,0,0,1.57-1.07l1.68,1.75a6.5,6.5,0,0,1-2.34,1.63,7.88,7.88,0,0,1-3.06.58,7.14,7.14,0,0,1-3.47-.82,5.7,5.7,0,0,1-2.32-2.29,7.45,7.45,0,0,1,0-6.8,5.86,5.86,0,0,1,2.32-2.32,6.84,6.84,0,0,1,3.38-.83A5.84,5.84,0,0,1,92.75,154.51Zm-1.31,3.77A3.11,3.11,0,0,0,90.5,156a3.65,3.65,0,0,0-4.64,0,3.66,3.66,0,0,0-1.14,2.27Z"/><path class="cls-2" d="M123.36,148.89h3.34L121,165.69h-3.34l-3.84-12.74-3.91,12.74h-3.29L101,148.89h3.46l4,13.32,3.94-13.32h3.17l4,13.37Z"/><path class="cls-2" d="M131.49,147.86a1.87,1.87,0,0,1,.5,1.34,1.84,1.84,0,0,1-.5,1.32,1.8,1.8,0,0,1-2.54,0,1.84,1.84,0,0,1-.5-1.32,1.87,1.87,0,0,1,.5-1.34,1.8,1.8,0,0,1,2.54,0Zm-2.81,5h3.12v12.84h-3.12Z"/><path class="cls-2" d="M135.79,148.89h11.59l0,2.81H139v4.54h7.61V159H139v6.65h-3.22Z"/><path class="cls-2" d="M152.47,147.86a1.87,1.87,0,0,1,.5,1.34,1.84,1.84,0,0,1-.5,1.32,1.8,1.8,0,0,1-2.54,0,1.84,1.84,0,0,1-.5-1.32,1.87,1.87,0,0,1,.5-1.34,1.8,1.8,0,0,1,2.54,0Zm-2.81,5h3.12v12.84h-3.12Z"/></svg>