<svg width="20" height="19" viewBox="0 0 20 19" fill="none" xmlns="http://www.w3.org/2000/svg">
<path fill-rule="evenodd" clip-rule="evenodd" d="M10.0001 0.3125C10.1752 0.312387 10.3467 0.361267 10.4954 0.453609C10.6441 0.54595 10.7639 0.678065 10.8414 0.835L13.1939 5.60375L18.4564 6.36875C18.6295 6.39389 18.7921 6.46694 18.9258 6.57965C19.0595 6.69235 19.1591 6.84022 19.2132 7.00654C19.2673 7.17286 19.2738 7.351 19.2319 7.52081C19.1901 7.69063 19.1016 7.84535 18.9764 7.9675L15.1689 11.68L16.0676 16.92C16.0973 17.0924 16.0781 17.2697 16.0122 17.4318C15.9464 17.5938 15.8365 17.7342 15.695 17.8371C15.5535 17.94 15.386 18.0012 15.2115 18.0139C15.0371 18.0265 14.8625 17.9901 14.7076 17.9087L10.0001 15.4338L5.29264 17.9087C5.13788 17.99 4.96348 18.0264 4.78913 18.0138C4.61479 18.0011 4.44744 17.94 4.306 17.8373C4.16455 17.7346 4.05463 17.5944 3.98866 17.4325C3.92269 17.2707 3.90329 17.0936 3.93264 16.9212L4.83264 11.6788L1.02264 7.9675C0.897102 7.8454 0.808269 7.69058 0.766209 7.52059C0.72415 7.35059 0.730547 7.17221 0.784675 7.00566C0.838803 6.83911 0.938499 6.69105 1.07246 6.57826C1.20643 6.46547 1.36931 6.39246 1.54264 6.3675L6.80514 5.60375L9.15889 0.835C9.23637 0.678065 9.35623 0.54595 9.5049 0.453609C9.65357 0.361267 9.82513 0.312387 10.0001 0.3125ZM10.0001 3.36875L8.26889 6.875C8.20166 7.01113 8.10238 7.12889 7.97957 7.21816C7.85677 7.30743 7.71412 7.36554 7.56389 7.3875L3.69264 7.95L6.49264 10.68C6.60158 10.7861 6.68309 10.9171 6.73013 11.0617C6.77716 11.2063 6.78832 11.3601 6.76264 11.51L6.10264 15.365L9.56389 13.545C9.69843 13.4743 9.84815 13.4373 10.0001 13.4373C10.1521 13.4373 10.3019 13.4743 10.4364 13.545L13.8989 15.365L13.2364 11.51C13.2107 11.3601 13.2219 11.2063 13.2689 11.0617C13.316 10.9171 13.3975 10.7861 13.5064 10.68L16.3064 7.95125L12.4364 7.38875C12.2862 7.36679 12.1435 7.30868 12.0207 7.21941C11.8979 7.13014 11.7986 7.01238 11.7314 6.87625L10.0001 3.3675V3.36875Z" fill="black"/>
</svg>
