<svg width="120" height="120" viewBox="0 0 120 120" fill="none" xmlns="http://www.w3.org/2000/svg">
<g opacity="0.8">
<circle cx="60" cy="60" r="60" fill="#FEFEFE"/>
<path d="M84.9374 56.7346L50.5199 35.7008C49.9401 35.3463 49.2764 35.1527 48.597 35.1398C47.9176 35.127 47.2471 35.2954 46.6544 35.6277C46.0616 35.96 45.5682 36.4442 45.2247 37.0306C44.8812 37.6169 44.7002 38.2842 44.7002 38.9637V81.0349C44.7007 81.7142 44.8821 82.3811 45.2257 82.9671C45.5693 83.5531 46.0627 84.0371 46.6553 84.3693C47.2478 84.7015 47.9181 84.87 48.5973 84.8574C49.2765 84.8448 49.94 84.6517 50.5199 84.2978L84.9374 63.264C85.4965 62.9221 85.9584 62.4423 86.2789 61.8707C86.5994 61.299 86.7677 60.6547 86.7677 59.9993C86.7677 59.3439 86.5994 58.6996 86.2789 58.1279C85.9584 57.5563 85.4965 57.0765 84.9374 56.7346Z" fill="black"/>
</g>
</svg>
