<svg width="16" height="12" viewBox="0 0 16 12" fill="none" xmlns="http://www.w3.org/2000/svg">
<path fill-rule="evenodd" clip-rule="evenodd" d="M1.67876 5.932C2.09076 5.311 2.92076 4.182 4.04476 3.215C5.17476 2.242 6.52676 1.5 7.99976 1.5C9.47276 1.5 10.8238 2.242 11.9548 3.215C13.0788 4.182 13.9088 5.311 14.3208 5.932C14.3347 5.95195 14.3421 5.97569 14.3421 6C14.3421 6.02431 14.3347 6.04805 14.3208 6.068C13.9088 6.689 13.0788 7.818 11.9548 8.785C10.8248 9.758 9.47276 10.5 7.99976 10.5C6.52676 10.5 5.17576 9.758 4.04476 8.785C2.91976 7.818 2.08976 6.69 1.67876 6.068C1.66487 6.04805 1.65742 6.02431 1.65742 6C1.65742 5.97569 1.66487 5.95195 1.67876 5.932ZM7.99976 0C6.01876 0 4.32976 0.992 3.06676 2.078C1.79676 3.169 0.879765 4.423 0.429765 5.1C0.252066 5.36615 0.157227 5.67898 0.157227 5.999C0.157227 6.31902 0.252066 6.63185 0.429765 6.898C0.879765 7.576 1.79676 8.83 3.06676 9.922C4.32876 11.008 6.01876 12 7.99976 12C9.98076 12 11.6698 11.008 12.9328 9.922C14.2028 8.831 15.1198 7.577 15.5698 6.899C15.7475 6.63285 15.8423 6.32002 15.8423 6C15.8423 5.67998 15.7475 5.36715 15.5698 5.101C15.1198 4.423 14.2028 3.169 12.9328 2.078C11.6708 0.992 9.98076 0 7.99976 0ZM7.99976 8C8.5302 8 9.03891 7.78929 9.41398 7.41421C9.78905 7.03914 9.99976 6.53043 9.99976 6C9.99976 5.46957 9.78905 4.96086 9.41398 4.58579C9.03891 4.21071 8.5302 4 7.99976 4C7.46933 4 6.96062 4.21071 6.58555 4.58579C6.21048 4.96086 5.99976 5.46957 5.99976 6C5.99976 6.53043 6.21048 7.03914 6.58555 7.41421C6.96062 7.78929 7.46933 8 7.99976 8Z" fill="black"/>
</svg>
