<svg width="13" height="15" viewBox="0 0 13 15" fill="none" xmlns="http://www.w3.org/2000/svg">
<path fill-rule="evenodd" clip-rule="evenodd" d="M3.5 2.24981C3.5 2.44872 3.42099 2.63949 3.28033 2.78014C3.13968 2.92079 2.94892 2.99981 2.75 2.99981C2.55109 2.99981 2.36033 2.92079 2.21967 2.78014C2.07902 2.63949 2 2.44872 2 2.24981C2 2.0509 2.07902 1.86013 2.21967 1.71948C2.36033 1.57883 2.55109 1.49981 2.75 1.49981C2.94892 1.49981 3.13968 1.57883 3.28033 1.71948C3.42099 1.86013 3.5 2.0509 3.5 2.24981ZM3.5 4.37181C4.00042 4.19489 4.42217 3.84676 4.69073 3.38895C4.95929 2.93114 5.05735 2.39313 4.9676 1.87001C4.87785 1.34689 4.60605 0.872336 4.20025 0.53023C3.79445 0.188123 3.28077 0.000488281 2.75 0.000488281C2.21924 0.000488281 1.70556 0.188123 1.29976 0.53023C0.893958 0.872336 0.622161 1.34689 0.532408 1.87001C0.442654 2.39313 0.540723 2.93114 0.809281 3.38895C1.07784 3.84676 1.49959 4.19489 2 4.37181V5.24981C2 5.84655 2.23706 6.41884 2.65901 6.8408C3.08097 7.26276 3.65327 7.49981 4.25 7.49981H5.75V9.62781C5.24932 9.80474 4.8273 10.153 4.55855 10.611C4.28981 11.069 4.19164 11.6073 4.28139 12.1307C4.37115 12.6541 4.64306 13.1289 5.04905 13.4712C5.45504 13.8134 5.96897 14.0012 6.5 14.0012C7.03104 14.0012 7.54497 13.8134 7.95096 13.4712C8.35695 13.1289 8.62886 12.6541 8.71862 12.1307C8.80837 11.6073 8.7102 11.069 8.44146 10.611C8.17271 10.153 7.75069 9.80474 7.25 9.62781V7.49981H8.75C9.34674 7.49981 9.91904 7.26276 10.341 6.8408C10.763 6.41884 11 5.84655 11 5.24981V4.37181C11.5004 4.19489 11.9222 3.84676 12.1907 3.38895C12.4593 2.93114 12.5574 2.39313 12.4676 1.87001C12.3778 1.34689 12.1061 0.872336 11.7002 0.53023C11.2944 0.188123 10.7808 0.000488281 10.25 0.000488281C9.71924 0.000488281 9.20556 0.188123 8.79976 0.53023C8.39396 0.872336 8.12216 1.34689 8.03241 1.87001C7.94265 2.39313 8.04072 2.93114 8.30928 3.38895C8.57784 3.84676 8.99959 4.19489 9.5 4.37181V5.24981C9.5 5.44872 9.42099 5.63949 9.28033 5.78014C9.13968 5.92079 8.94892 5.99981 8.75 5.99981H4.25C4.05109 5.99981 3.86033 5.92079 3.71967 5.78014C3.57902 5.63949 3.5 5.44872 3.5 5.24981V4.37181ZM7.25 11.7498C7.25 11.9487 7.17099 12.1395 7.03033 12.2801C6.88968 12.4208 6.69892 12.4998 6.5 12.4998C6.30109 12.4998 6.11033 12.4208 5.96967 12.2801C5.82902 12.1395 5.75 11.9487 5.75 11.7498C5.75 11.5509 5.82902 11.3601 5.96967 11.2195C6.11033 11.0788 6.30109 10.9998 6.5 10.9998C6.69892 10.9998 6.88968 11.0788 7.03033 11.2195C7.17099 11.3601 7.25 11.5509 7.25 11.7498ZM10.25 2.99981C10.4489 2.99981 10.6397 2.92079 10.7803 2.78014C10.921 2.63949 11 2.44872 11 2.24981C11 2.0509 10.921 1.86013 10.7803 1.71948C10.6397 1.57883 10.4489 1.49981 10.25 1.49981C10.0511 1.49981 9.86033 1.57883 9.71968 1.71948C9.57902 1.86013 9.5 2.0509 9.5 2.24981C9.5 2.44872 9.57902 2.63949 9.71968 2.78014C9.86033 2.92079 10.0511 2.99981 10.25 2.99981Z" fill="black"/>
</svg>
