<?xml version="1.0" encoding="UTF-8"?>
<svg width="24px" height="24px" viewBox="0 0 24 24" version="1.1" xmlns="http://www.w3.org/2000/svg" xmlns:xlink="http://www.w3.org/1999/xlink">
    <!-- Generator: Sketch 54.1 (76490) - https://sketchapp.com -->
    <title>MEDIUM Copy 3</title>
    <desc>Created with Sketch.</desc>
    <g id="MEDIUM-Copy-3" stroke="none" stroke-width="1" fill="none" fill-rule="evenodd">
        <path d="M1.92,0.672 C1.23074863,0.672 0.672,1.23074863 0.672,1.92 L0.672,22.08 C0.672,22.7692514 1.23074863,23.328 1.92,23.328 L22.08,23.328 C22.7692514,23.328 23.328,22.7692514 23.328,22.08 L23.328,1.92 C23.328,1.23074863 22.7692514,0.672 22.08,0.672 L1.92,0.672 Z M1.92,4.26325641e-16 L22.08,0 C23.1403867,-2.07841508e-15 24,0.85961328 24,1.92 L24,22.08 C24,23.1403867 23.1403867,24 22.08,24 L1.92,24 C0.85961328,24 5.56185562e-16,23.1403867 4.26325641e-16,22.08 L0,1.92 C-1.2985992e-16,0.85961328 0.85961328,6.21115522e-16 1.92,4.26325641e-16 Z" id="Rectangle-Copy-13" fill="#FFFFFF" fill-rule="nonzero"></path>
        <path d="M3.02401164,18.8786127 C3.02401164,18.7734104 3.02401164,18.6682081 3.02401164,18.5710983 C3.65631821,17.8104046 4.29662867,17.0578035 4.91292748,16.2809249 C5.02498181,16.1352601 5.07300509,15.8924855 5.07300509,15.6982659 C5.08100897,13.132948 5.08100897,10.5757225 5.06500121,8.01040462 C5.06500121,7.75144509 4.944943,7.45202312 4.78486539,7.2416185 C4.35265583,6.65895954 3.87242299,6.12485549 3.42420568,5.5583815 C3.32815911,5.43699422 3.28013582,5.26705202 3.18408926,5.0566474 C4.81688091,5.0566474 6.34562212,5.06473988 7.88236721,5.04855491 C8.15449915,5.04855491 8.28256124,5.13757225 8.39461557,5.38034682 C9.56318215,7.99421965 10.7477565,10.6080925 11.9243269,13.2138728 C11.9803541,13.3352601 12.0443852,13.4485549 12.1164201,13.6023121 C12.1724472,13.4890173 12.1964589,13.4323699 12.2204705,13.3757225 C13.2769828,10.7132948 14.3414989,8.05086705 15.3900073,5.38843931 C15.4940577,5.12947977 15.6141159,5.04046243 15.8862479,5.04855491 C17.3589619,5.0566474 18.831676,5.04855491 20.30439,5.04855491 C20.30439,5.15375723 20.30439,5.25895954 20.30439,5.35606936 C19.8641766,5.7849711 19.4079554,6.19768786 18.9837497,6.64277457 C18.8636915,6.76416185 18.7836527,6.98265896 18.7836527,7.15260116 C18.7756488,10.3815029 18.7756488,13.6104046 18.7836527,16.8473988 C18.7836527,17.0011561 18.8396798,17.1953757 18.9437303,17.300578 C19.3839437,17.7618497 19.8561727,18.1988439 20.3123939,18.6439306 C20.3123939,18.7248555 20.3123939,18.7976879 20.3123939,18.8786127 C20.1843318,18.8947977 20.0642736,18.9352601 19.9362115,18.9352601 C17.9112297,18.9352601 15.8862479,18.9352601 13.8692699,18.9352601 C13.7572156,18.9352601 13.6451613,18.9271676 13.4210526,18.9109827 C13.533107,18.716763 13.5891341,18.5710983 13.6931846,18.465896 C14.0213437,18.1260116 14.3575067,17.7861272 14.7176813,17.4624277 C14.9577977,17.2439306 15.0538443,17.0011561 15.0538443,16.6774566 C15.0458404,14.2578035 15.0538443,11.8381503 15.0458404,9.41040462 C15.0458404,9.32138728 15.0218288,9.23236994 14.9978171,9.03815029 C14.9177783,9.22427746 14.8777589,9.30520231 14.8457434,9.38612717 C13.6531652,12.4450867 12.4685908,15.4959538 11.2760126,18.5549133 C11.2119816,18.716763 11.1879699,18.8867052 10.9318457,18.8867052 C10.6837254,18.8867052 10.579675,18.7815029 10.4836284,18.5710983 C9.09895707,15.5040462 7.70628183,12.4369942 6.30560272,9.3699422 C6.26558331,9.28092486 6.21756003,9.20809249 6.16953675,9.12716763 C6.1455251,9.13526012 6.12151346,9.13526012 6.1055057,9.1433526 C6.1055057,9.26473988 6.1055057,9.38612717 6.1055057,9.51560694 C6.1055057,11.5387283 6.08949794,13.5537572 6.12151346,15.5768786 C6.12151346,15.8682081 6.25757943,16.2080925 6.43366481,16.4508671 C6.92190153,17.1144509 7.46616541,17.7375723 7.97841378,18.3849711 C8.07446034,18.5063584 8.13048751,18.6763006 8.22653408,18.8786127 C6.42566093,18.8786127 4.72883822,18.8786127 3.02401164,18.8786127 Z" id="Path" fill="#FFFFFF"></path>
    </g>
</svg>