<svg id="background" xmlns="http://www.w3.org/2000/svg" xmlns:xlink="http://www.w3.org/1999/xlink" viewBox="0 0 121.5 131.85">
  <defs>
    <style>
      .cls-1, .cls-16, .cls-19, .cls-2, .cls-3 {
        fill: #fff;
      }

      .cls-1 {
        clip-rule: evenodd;
      }

      .cls-3 {
        fill-rule: evenodd;
      }

      .cls-4 {
        clip-path: url(#clip-path);
      }

      .cls-5 {
        clip-path: url(#clip-path-2);
      }

      .cls-6 {
        clip-path: url(#clip-path-3);
      }

      .cls-7 {
        clip-path: url(#clip-path-4);
      }

      .cls-8 {
        clip-path: url(#clip-path-5);
      }

      .cls-9 {
        clip-path: url(#clip-path-6);
      }

      .cls-10 {
        clip-path: url(#clip-path-7);
      }

      .cls-11 {
        clip-path: url(#clip-path-8);
      }

      .cls-12 {
        clip-path: url(#clip-path-9);
      }

      .cls-13 {
        clip-path: url(#clip-path-10);
      }

      .cls-14 {
        clip-path: url(#clip-path-11);
      }

      .cls-15 {
        fill: #1595ff;
      }

      .cls-16, .cls-17 {
        font-size: 16.58px;
      }

      .cls-16, .cls-17, .cls-19 {
        font-family: Lato-Bold, Lato;
        font-weight: 700;
      }

      .cls-17 {
        fill: #152347;
      }

      .cls-18 {
        letter-spacing: -0.02em;
      }

      .cls-19 {
        font-size: 48px;
      }
    </style>
    <clipPath id="clip-path">
      <path class="cls-1" d="M2235.34-1037.75l-18.16,6.08,6.08,18.19,18.17-6.08Zm2.38-23.44,3.75,11.2,10.57-3.53a4.83,4.83,0,0,1,6.11,3,4.84,4.84,0,0,1-3.05,6.12l-10.56,3.53,6.08,18.19,11.49-3.84a4.83,4.83,0,0,1,6.11,3.05,4.82,4.82,0,0,1-3,6.11l-11.48,3.84,3.81,11.38a4.85,4.85,0,0,1-3.06,6.14,4.85,4.85,0,0,1-6.13-3.06l-3.81-11.38-18.17,6.08,3.59,10.7a4.83,4.83,0,0,1-3.05,6.11,4.84,4.84,0,0,1-6.12-3l-3.58-10.7L2206-997.52a4.83,4.83,0,0,1-6.11-3.05,4.82,4.82,0,0,1,3-6.11l11.13-3.73L2208-1028.6l-12.06,4a4.83,4.83,0,0,1-6.11-3,4.84,4.84,0,0,1,3.05-6.12l12-4-4-11.91a4.84,4.84,0,0,1,3-6.12,4.85,4.85,0,0,1,6.12,3l4,11.92,18.17-6.08-3.75-11.21a4.84,4.84,0,0,1,3.06-6.13A4.84,4.84,0,0,1,2237.72-1061.19Z"/>
    </clipPath>
    <clipPath id="clip-path-2">
      <path class="cls-2" d="M2195-1078.94h68c12.17,0,22,10.22,22,22.77v60.58c0,12.56-9.83,22.77-22,22.77h-68c-12.17,0-22-10.21-22-22.77v-60.58C2173-1068.72,2182.86-1078.94,2195-1078.94Zm0,5.14c-9.29,0-16.86,7.87-16.86,17.63v60.58c0,9.76,7.57,17.63,16.86,17.63h68c9.29,0,16.86-7.87,16.86-17.63v-60.58c0-9.76-7.57-17.63-16.86-17.63Zm0,5c-6.6,0-12,5.61-12,12.58v60.58c0,7,5.4,12.58,12,12.58h68c6.6,0,12-5.61,12-12.58v-60.58c0-7-5.4-12.58-12-12.58Zm0-5.14h68c9.49,0,17.14,8,17.14,17.72v60.58c0,9.77-7.65,17.72-17.14,17.72h-68c-9.49,0-17.14-8-17.14-17.72v-60.58C2177.89-1065.93,2185.54-1073.89,2195-1073.89Z"/>
    </clipPath>
    <clipPath id="clip-path-3">
      <circle class="cls-2" cx="1766.42" cy="-1036.69" r="4.78" transform="translate(39.03 63.8) rotate(-2.09)"/>
    </clipPath>
    <clipPath id="clip-path-4">
      <circle class="cls-2" cx="1766.42" cy="-1017.18" r="4.78" transform="translate(63.85 103.6) rotate(-3.42)"/>
    </clipPath>
    <clipPath id="clip-path-5">
      <circle class="cls-2" cx="1766.42" cy="-997.66" r="4.78"/>
    </clipPath>
    <clipPath id="clip-path-6">
      <path class="cls-2" d="M1791.88-1000.61h-15.21c-.41,0-.74,1.32-.74,3s.33,2.94.74,2.94h15.21c.4,0,.73-1.32.73-2.94S1792.28-1000.61,1791.88-1000.61Z"/>
    </clipPath>
    <clipPath id="clip-path-7">
      <path class="cls-2" d="M1807.82-1019.55h-30.41c-.82,0-1.48,1.32-1.48,2.94s.66,2.94,1.48,2.94h30.41c.82,0,1.47-1.31,1.47-2.94S1808.64-1019.55,1807.82-1019.55Z"/>
    </clipPath>
    <clipPath id="clip-path-8">
      <path class="cls-2" d="M1810-1039.63h-32.46c-.87,0-1.58,1.31-1.58,2.94s.71,2.94,1.58,2.94H1810c.87,0,1.58-1.31,1.58-2.94S1810.84-1039.63,1810-1039.63Z"/>
    </clipPath>
    <clipPath id="clip-path-9">
      <path class="cls-2" d="M1808.62-1061.26h-26.35c-.7,0-1.27,1.32-1.27,3s.57,2.94,1.27,2.94h26.35c.71,0,1.28-1.32,1.28-2.94S1809.33-1061.26,1808.62-1061.26Z"/>
    </clipPath>
    <clipPath id="clip-path-10">
      <path class="cls-2" d="M1756.63-984.5h39.3v-16.89h21.81v-69.15h-61.11Zm0,9.89a9.89,9.89,0,0,1-9.89-9.89v-86a9.89,9.89,0,0,1,9.89-9.89h61.11a9.89,9.89,0,0,1,9.89,9.89v72.71a6,6,0,0,1-2,4.48l-19.9,17.28a6,6,0,0,1-3.89,1.45Z"/>
    </clipPath>
    <clipPath id="clip-path-11">
      <path class="cls-2" d="M1774.25-1064.57a2.41,2.41,0,0,1,3.34.66,2.4,2.4,0,0,1-.67,3.34l-10,6.66,0,0a3.37,3.37,0,0,1-4.66-1l-2.53-3.92a2.4,2.4,0,0,1,.72-3.32,2.4,2.4,0,0,1,3.32.71l1.74,2.69Z"/>
    </clipPath>
  </defs>
  <title>Hacktoberfest</title>
  <g>
    <g>
      <path class="cls-3" d="M2235.34-1037.75l-18.16,6.08,6.08,18.19,18.17-6.08Zm2.38-23.44,3.75,11.2,10.57-3.53a4.83,4.83,0,0,1,6.11,3,4.84,4.84,0,0,1-3.05,6.12l-10.56,3.53,6.08,18.19,11.49-3.84a4.83,4.83,0,0,1,6.11,3.05,4.82,4.82,0,0,1-3,6.11l-11.48,3.84,3.81,11.38a4.85,4.85,0,0,1-3.06,6.14,4.85,4.85,0,0,1-6.13-3.06l-3.81-11.38-18.17,6.08,3.59,10.7a4.83,4.83,0,0,1-3.05,6.11,4.84,4.84,0,0,1-6.12-3l-3.58-10.7L2206-997.52a4.83,4.83,0,0,1-6.11-3.05,4.82,4.82,0,0,1,3-6.11l11.13-3.73L2208-1028.6l-12.06,4a4.83,4.83,0,0,1-6.11-3,4.84,4.84,0,0,1,3.05-6.12l12-4-4-11.91a4.84,4.84,0,0,1,3-6.12,4.85,4.85,0,0,1,6.12,3l4,11.92,18.17-6.08-3.75-11.21a4.84,4.84,0,0,1,3.06-6.13A4.84,4.84,0,0,1,2237.72-1061.19Z"/>
      <g class="cls-4">
        <rect class="cls-2" x="112.65" y="-4101.71" width="4780.62" height="5525.98"/>
      </g>
    </g>
    <g>
      <path class="cls-2" d="M2195-1078.94h68c12.17,0,22,10.22,22,22.77v60.58c0,12.56-9.83,22.77-22,22.77h-68c-12.17,0-22-10.21-22-22.77v-60.58C2173-1068.72,2182.86-1078.94,2195-1078.94Zm0,5.14c-9.29,0-16.86,7.87-16.86,17.63v60.58c0,9.76,7.57,17.63,16.86,17.63h68c9.29,0,16.86-7.87,16.86-17.63v-60.58c0-9.76-7.57-17.63-16.86-17.63Zm0,5c-6.6,0-12,5.61-12,12.58v60.58c0,7,5.4,12.58,12,12.58h68c6.6,0,12-5.61,12-12.58v-60.58c0-7-5.4-12.58-12-12.58Zm0-5.14h68c9.49,0,17.14,8,17.14,17.72v60.58c0,9.77-7.65,17.72-17.14,17.72h-68c-9.49,0-17.14-8-17.14-17.72v-60.58C2177.89-1065.93,2185.54-1073.89,2195-1073.89Z"/>
      <g class="cls-5">
        <rect class="cls-2" x="112.65" y="-4101.71" width="4780.62" height="5525.98"/>
      </g>
    </g>
  </g>
  <g>
    <g>
      <circle class="cls-2" cx="1766.42" cy="-1036.69" r="4.78" transform="translate(39.03 63.8) rotate(-2.09)"/>
      <g class="cls-6">
        <rect class="cls-2" x="-196.73" y="-2027.42" width="4477.93" height="5176.1"/>
      </g>
    </g>
    <g>
      <circle class="cls-2" cx="1766.42" cy="-1017.18" r="4.78" transform="translate(63.85 103.6) rotate(-3.42)"/>
      <g class="cls-7">
        <rect class="cls-2" x="-196.73" y="-2027.42" width="4477.93" height="5176.1"/>
      </g>
    </g>
    <g>
      <circle class="cls-2" cx="1766.42" cy="-997.66" r="4.78"/>
      <g class="cls-8">
        <rect class="cls-2" x="-196.73" y="-2027.42" width="4477.93" height="5176.1"/>
      </g>
    </g>
    <g>
      <path class="cls-2" d="M1791.88-1000.61h-15.21c-.41,0-.74,1.32-.74,3s.33,2.94.74,2.94h15.21c.4,0,.73-1.32.73-2.94S1792.28-1000.61,1791.88-1000.61Z"/>
      <g class="cls-9">
        <rect class="cls-2" x="-196.73" y="-2027.42" width="4477.93" height="5176.1"/>
      </g>
    </g>
    <g>
      <path class="cls-2" d="M1807.82-1019.55h-30.41c-.82,0-1.48,1.32-1.48,2.94s.66,2.94,1.48,2.94h30.41c.82,0,1.47-1.31,1.47-2.94S1808.64-1019.55,1807.82-1019.55Z"/>
      <g class="cls-10">
        <rect class="cls-2" x="-196.73" y="-2027.42" width="4477.93" height="5176.1"/>
      </g>
    </g>
    <g>
      <path class="cls-2" d="M1810-1039.63h-32.46c-.87,0-1.58,1.31-1.58,2.94s.71,2.94,1.58,2.94H1810c.87,0,1.58-1.31,1.58-2.94S1810.84-1039.63,1810-1039.63Z"/>
      <g class="cls-11">
        <rect class="cls-2" x="-196.73" y="-2027.42" width="4477.93" height="5176.1"/>
      </g>
    </g>
    <g>
      <path class="cls-2" d="M1808.62-1061.26h-26.35c-.7,0-1.27,1.32-1.27,3s.57,2.94,1.27,2.94h26.35c.71,0,1.28-1.32,1.28-2.94S1809.33-1061.26,1808.62-1061.26Z"/>
      <g class="cls-12">
        <rect class="cls-2" x="-196.73" y="-2027.42" width="4477.93" height="5176.1"/>
      </g>
    </g>
    <g>
      <path class="cls-2" d="M1756.63-984.5h39.3v-16.89h21.81v-69.15h-61.11Zm0,9.89a9.89,9.89,0,0,1-9.89-9.89v-86a9.89,9.89,0,0,1,9.89-9.89h61.11a9.89,9.89,0,0,1,9.89,9.89v72.71a6,6,0,0,1-2,4.48l-19.9,17.28a6,6,0,0,1-3.89,1.45Z"/>
      <g class="cls-13">
        <rect class="cls-2" x="-196.73" y="-2027.42" width="4477.93" height="5176.1"/>
      </g>
    </g>
    <g>
      <path class="cls-2" d="M1774.25-1064.57a2.41,2.41,0,0,1,3.34.66,2.4,2.4,0,0,1-.67,3.34l-10,6.66,0,0a3.37,3.37,0,0,1-4.66-1l-2.53-3.92a2.4,2.4,0,0,1,.72-3.32,2.4,2.4,0,0,1,3.32.71l1.74,2.69Z"/>
      <g class="cls-14">
        <rect class="cls-2" x="-196.73" y="-2027.42" width="4477.93" height="5176.1"/>
      </g>
    </g>
  </g>
  <g>
    <path class="cls-2" d="M103.75,15.39h-86a12,12,0,0,0-12,12V116a12,12,0,0,0,12,12h86a12,12,0,0,0,12-12V27.39A12,12,0,0,0,103.75,15.39Zm3.89,92.38a12,12,0,0,1-12,12H25.85a12,12,0,0,1-12-12V62.66a12,12,0,0,1,12-12H95.64a12,12,0,0,1,12,12Z"/>
    <rect class="cls-15" x="36.07" y="3.87" width="3.85" height="23.03" rx="1.93"/>
    <rect class="cls-15" x="80.78" y="3.87" width="3.85" height="23.03" rx="1.93"/>
    <text class="cls-16" transform="translate(29.06 113.06)">October</text>
    <text class="cls-17" transform="translate(29.06 43.61)">Saturd<tspan class="cls-18" x="49.63" y="0">a</tspan><tspan x="58.01" y="0">y</tspan></text>
    <text class="cls-19" transform="translate(33.06 93.09)">26</text>
  </g>
</svg>
