<svg width="79" height="73" viewBox="0 0 79 73" fill="none" xmlns="http://www.w3.org/2000/svg">
<g clip-path="url(#clip0)">
<path d="M43.3371 0.5H10.8343C4.85737 0.5 0 5.35737 0 11.3343V52.4865C0 53.2991 0.975086 53.6963 1.53486 53.1185L10.8343 43.8371H43.3371C49.3141 43.8371 54.1714 38.9798 54.1714 33.0029V11.3343C54.1714 5.35737 49.3141 0.5 43.3371 0.5Z" fill="#0077C5"/>
<path d="M41.5313 31.197C43.5259 31.197 45.1428 29.5801 45.1428 27.5856C45.1428 25.591 43.5259 23.9741 41.5313 23.9741C39.5368 23.9741 37.9199 25.591 37.9199 27.5856C37.9199 29.5801 39.5368 31.197 41.5313 31.197Z" fill="#003B61"/>
<path d="M27.086 31.197C29.0806 31.197 30.6975 29.5801 30.6975 27.5856C30.6975 25.591 29.0806 23.9741 27.086 23.9741C25.0915 23.9741 23.4746 25.591 23.4746 27.5856C23.4746 29.5801 25.0915 31.197 27.086 31.197Z" fill="#003B61"/>
<path d="M12.6407 31.197C14.6353 31.197 16.2522 29.5801 16.2522 27.5856C16.2522 25.591 14.6353 23.9741 12.6407 23.9741C10.6462 23.9741 9.0293 25.591 9.0293 27.5856C9.0293 29.5801 10.6462 31.197 12.6407 31.197Z" fill="#003B61"/>
<path d="M41.5313 25.78C43.5259 25.78 45.1428 24.1631 45.1428 22.1686C45.1428 20.174 43.5259 18.5571 41.5313 18.5571C39.5368 18.5571 37.9199 20.174 37.9199 22.1686C37.9199 24.1631 39.5368 25.78 41.5313 25.78Z" fill="white"/>
<path d="M27.086 25.78C29.0806 25.78 30.6975 24.1631 30.6975 22.1686C30.6975 20.174 29.0806 18.5571 27.086 18.5571C25.0915 18.5571 23.4746 20.174 23.4746 22.1686C23.4746 24.1631 25.0915 25.78 27.086 25.78Z" fill="white"/>
<path d="M12.6407 25.78C14.6353 25.78 16.2522 24.1631 16.2522 22.1686C16.2522 20.174 14.6353 18.5571 12.6407 18.5571C10.6462 18.5571 9.0293 20.174 9.0293 22.1686C9.0293 24.1631 10.6462 25.78 12.6407 25.78Z" fill="white"/>
<path d="M10.8343 0.5H43.3371C49.3141 0.5 54.1714 5.35737 54.1714 11.3343V16.7514C54.1714 10.7745 49.3141 5.91714 43.3371 5.91714H10.8343C4.85737 5.91714 0 10.7745 0 16.7514V11.3343C0 5.35737 4.85737 0.5 10.8343 0.5Z" fill="#003B61"/>
<path d="M77.8801 53.1006V49.0378C77.8801 48.6405 77.6092 48.2794 77.23 48.171L71.8129 46.5639C71.4698 45.3902 71.0184 44.2707 70.4406 43.2234L73.1311 38.2577C73.3297 37.9146 73.2575 37.4631 72.9686 37.1923L70.0975 34.3212C69.8086 34.0323 69.3752 33.9781 69.0321 34.1587L64.0664 36.8492C63.0191 36.2714 61.8995 35.8199 60.7258 35.4769L59.1187 30.0597C58.9923 29.6625 58.6493 29.3916 58.2339 29.3916H54.1711C53.7738 29.3916 53.4127 29.6625 53.3043 30.0417L51.6973 35.4588C50.5235 35.8019 49.404 36.2533 48.3567 36.8311L43.391 34.1406C43.0479 33.942 42.5965 34.0142 42.3256 34.3031L39.4545 37.1742C39.1656 37.4631 39.1114 37.8965 39.292 38.2396L41.9825 43.2053C41.4047 44.2526 40.9533 45.3722 40.6102 46.5459L35.193 48.153C34.8138 48.2613 34.543 48.6225 34.543 49.0197V53.0826C34.543 53.4798 34.8138 53.841 35.193 53.9493L40.6102 55.5564C40.9533 56.7301 41.4047 57.8497 41.9825 58.897L39.292 63.8627C39.0934 64.2058 39.1656 64.6572 39.4545 64.9281L42.3256 67.7991C42.6145 68.0881 43.0479 68.1422 43.391 67.9617L48.3567 65.2711C49.404 65.849 50.5235 66.3004 51.6973 66.6435L53.3043 72.0606C53.4127 72.4579 53.7738 72.7287 54.1711 72.7287H58.2339C58.6312 72.7287 58.9923 72.4579 59.1007 72.0787L60.7078 66.6615C61.8815 66.3185 63.001 65.867 64.0483 65.2892L69.0141 67.9797C69.3571 68.1783 69.8086 68.1061 70.0794 67.8172L72.9505 64.9461C73.2394 64.6572 73.2936 64.2238 73.113 63.8807L70.4225 58.915C71.0003 57.8677 71.4518 56.7482 71.7948 55.5745L77.212 53.9674C77.6093 53.841 77.8801 53.4979 77.8801 53.1006ZM56.2115 59.1859C51.7153 59.1859 48.0858 55.5564 48.0858 51.0602C48.0858 46.5639 51.7153 42.9345 56.2115 42.9345C60.7078 42.9345 64.3373 46.5639 64.3373 51.0602C64.3373 55.5564 60.6897 59.1859 56.2115 59.1859Z" fill="black"/>
</g>
<defs>
<clipPath id="clip0">
<rect width="79" height="72.2286" fill="white" transform="translate(0 0.5)"/>
</clipPath>
</defs>
</svg>
