<svg id="Layer_1" data-name="Layer 1" xmlns="http://www.w3.org/2000/svg" xmlns:xlink="http://www.w3.org/1999/xlink" viewBox="0 0 191.81 193.72"><defs><style>.cls-1{fill:none;}.cls-2,.cls-7{fill:#fff;}.cls-2{opacity:0.37;}.cls-3{clip-path:url(#clip-path);}.cls-4{fill:#ddd;}.cls-5{fill:#fcfcfc;stroke:#ddd;stroke-miterlimit:10;stroke-width:3px;}.cls-6{fill:#ed592a;}</style><clipPath id="clip-path"><circle class="cls-1" cx="95.91" cy="97.93" r="76.72"/></clipPath></defs><title>bgrd</title><ellipse class="cls-2" cx="95.91" cy="96.86" rx="95.91" ry="96.86"/><g class="cls-3"><circle class="cls-4" cx="95.91" cy="97.93" r="76.72"/><path class="cls-5" d="M135.94,128a91.16,91.16,0,0,0-2,9.17c-.33,2.83-2.12,4-4.76,4.37s-5.21.33-7.81.55a17.41,17.41,0,0,0-4,.62c-2.43.81-4,2.37-3.9,4.91s1.94,4.08,4.46,4.44a74.78,74.78,0,0,0,8.81.4c2.24.05,4.49,0,6.65,0,1.19,3,.15,4.45-2.82,5.4a105.36,105.36,0,0,1-63.79.4c-5.81-1.76-8.85-6.07-8.85-11.62a68.57,68.57,0,0,0-.06-7.8c-.31-2.68-1.12-5.32-1.84-8.53C67.82,118.41,119.27,116.81,135.94,128Z"/><path class="cls-6" d="M97.91,96.42h1.87l1.11,9.46.89,0c.87-2.53,1.88-5,2.58-7.59.62-2.27,2-2.67,3.79-1.74a11.86,11.86,0,0,1,3.77,2.79q5.49,6.73,10.63,13.74c.91,1.25,1.18,3,2.13,5.47-5-1.54-9.65-.48-12.33-5.49l-1,2.81c-8.14,0-16.19,0-24.23-.06-.67,0-1.33-.88-2.06-1.39-3.61,3.78-9.3,2.66-14.08,4.3-.51.17-1.56-.71-2.13-1.32-3-3.23-6-6.53-9-9.8-1.81-2-2.1-4.1-.14-6s3.9-1.47,5.77.19l11.1,9.83c2.94-3.87,5.74-7.65,8.66-11.33A16,16,0,0,1,89,96.81c2-1.32,3.77-1.29,4.53,1.66a24.4,24.4,0,0,0,3.3,7.4Z"/><path d="M136.61,135.31a0,0,0,0,1,0,0c-.09-5.81,2.23-8.29,7.17-8.38,10.9-.21,12.09,1,12.09,11.91,0,6.91,0,13.82,0,21a0,0,0,0,1,0,0c-6.53,0-12.81,6.81-19.56,6.82a0,0,0,0,1,0,0c0-2.75-.13-12.23.08-14.88a4,4,0,0,1,1.72-2.26c2.19-1.61,4.56-3,6.73-4.63a.91.91,0,0,0,.17-.18,1.29,1.29,0,0,0-1.37-2l-.11,0a4.71,4.71,0,0,0-1.69,1.13c-5.82,5.39-12.76,6.92-20.43,6-.45-.05-1,.14-1.34-.07l-.94-.65a2.83,2.83,0,0,1,1-5.08h0c2.74-.6,5.68-.29,8.46-.77a13.73,13.73,0,0,0,5.42-2.13,81.27,81.27,0,0,0,7.83-6.55,1.24,1.24,0,0,0,.31-.5,1.28,1.28,0,0,0-1.36-1.71,1.77,1.77,0,0,0-.61.19A30.39,30.39,0,0,0,136.61,135.31Z"/><path d="M52.06,162.21h-15A1.21,1.21,0,0,1,35.89,161c0-5.62,0-11.2,0-16.78q0-3.41,0-6.82c0-.68,0-1.37,0-2,.34-3.65,2.89-5.92,6.88-6.18,7.88-.5,11.63.89,12.12,5.11a50.87,50.87,0,0,1-.42,12.14c-.6-2.84-1.12-5.7-1.86-8.5a1.77,1.77,0,0,0-.15-.37,1.2,1.2,0,0,0-2.23.48,1.46,1.46,0,0,0,0,.3c.64,3.69,1.38,7.36,2.31,11a7,7,0,0,0,2,3c2.29,2.2,4.92,4.09,7,6.46a6,6,0,0,1,.92,3.14,1.21,1.21,0,0,1-1.09,1.35c-1.23.11-2.49.27-3.34-.25-6.6-4-12.4-8.7-13.62-17.13a2.8,2.8,0,0,0-.15-.57A1.21,1.21,0,0,0,42,146c0,.24.06.47.11.71.31,1.66,1.11,3.22,1.52,4.86a13.16,13.16,0,0,0,6.06,8.66A22.33,22.33,0,0,1,52.06,162.21Z"/><path d="M45.74,126.29A11.09,11.09,0,0,1,34.54,115a11.19,11.19,0,1,1,11.2,11.26Z"/><path d="M157.28,112.78a11.21,11.21,0,1,1-22.41-.28,11.21,11.21,0,0,1,22.41.28Z"/><path class="cls-6" d="M98.55,73a10.13,10.13,0,0,1,10.31,10,10.22,10.22,0,1,1-20.44.16A10.11,10.11,0,0,1,98.55,73Z"/><circle class="cls-7" cx="128.44" cy="95.47" r="3.07"/><circle class="cls-7" cx="130.99" cy="102.61" r="2.05"/><ellipse class="cls-7" cx="137.28" cy="78.89" rx="18.95" ry="12.83"/><circle cx="129.32" cy="79.19" r="1.67"/><circle cx="137.28" cy="79.19" r="1.67"/><circle cx="145.23" cy="79.19" r="1.67"/><rect class="cls-7" x="47.14" y="57.36" width="36.9" height="24.55" rx="2.94" ry="2.94"/><path class="cls-7" d="M71.79,79.86s-.34,5.11,4.43,7c0,0-2-5.11,1.88-7S72.47,74.92,71.79,79.86Z"/><rect class="cls-6" x="51.92" y="63.66" width="27.19" height="2.08"/><rect class="cls-6" x="51.92" y="68.38" width="19.74" height="2.08"/><rect class="cls-6" x="51.92" y="73.09" width="23.86" height="2.08"/></g></svg>