<svg id="Layer_1" data-name="Layer 1" xmlns="http://www.w3.org/2000/svg" xmlns:xlink="http://www.w3.org/1999/xlink" viewBox="0 0 195.87 197.82"><defs><clipPath id="clip-path"><circle cx="97.94" cy="98.37" r="82" fill="none"/></clipPath></defs><title>events img</title><ellipse cx="97.94" cy="98.37" rx="97.94" ry="98.91" fill="#fff" opacity="0.37"/><circle cx="97.94" cy="98.37" r="82" fill="#ddd"/><g clip-path="url(#clip-path)"><polygon points="129.59 53.05 191.45 107 159.94 208.37 62.69 143.68 129.59 53.05" fill="#b7b6b6"/></g><path d="M134.63,78.81l0,58.14c0,5.73-1.4,7.16-7.08,7.16L63,144a5.27,5.27,0,0,1-3.71-5.34q0-29.5,0-59a7.34,7.34,0,0,1,.23-1.31c1.33.06,2.66.17,4,.17q33.37,0,66.75,0C131.75,78.54,133.19,78.72,134.63,78.81ZM88.72,88.87c-4.83,0-4.83,0-4.83,4.66s0,4.73,5.11,4.73c4.83,0,4.83,0,4.84-4.68S93.84,88.86,88.72,88.87ZM89,115.61c4.83,0,4.83,0,4.83-4.67s0-4.73-5.13-4.72c-4.82,0-4.82,0-4.82,4.69S83.89,115.62,89,115.61Zm-.07,16.06c4.89,0,4.89,0,4.9-4.6,0-4.78,0-4.78-5.06-4.78-4.89,0-4.89,0-4.89,4.61C83.89,131.68,83.89,131.68,88.94,131.67ZM99.25,93.38c0,4.87,0,4.87,4.59,4.88,4.79,0,4.79,0,4.8-4.36,0-5,0-5-4.44-5C99.25,88.86,99.25,88.86,99.25,93.38Zm15.37,0c0,4.87,0,4.87,4.59,4.88,4.77,0,4.77,0,4.78-4.36,0-5,0-5-4.43-5C114.62,88.86,114.62,88.86,114.62,93.38ZM73.69,106.22c-4.61,0-4.61,0-4.61,4.88,0,4.51,0,4.51,4.64,4.51s4.75,0,4.75-4.7S78.47,106.22,73.69,106.22Zm30.19,9.37c5.58-.1,4.84.81,4.89-4.24.06-5.22,0-5.22-4.26-5.22-5.23,0-5.23,0-5.23,4.25C99.28,115.59,99.28,115.59,103.88,115.59Zm10.74-4.82c0,4.82,0,4.82,4.28,4.84,5.08,0,5.08,0,5.09-4.37,0-5,0-5-4.45-5C114.63,106.21,114.63,106.21,114.62,110.77Zm-41,20.9c4.82,0,4.82,0,4.83-4.29,0-5.07,0-5.07-4.37-5.08-5,0-5,0-5,4.46C69.08,131.66,69.08,131.66,73.64,131.67Zm30.46-9.37c-4.84,0-4.84,0-4.85,4.27,0,5.09,0,5.09,4.35,5.1,5,0,5,0,5-4.43C108.65,122.3,108.65,122.3,104.1,122.3Zm10.52,4.5c0,4.85,0,4.85,4.25,4.87,5.11,0,5.11,0,5.12-4.33,0-5,0-5-4.41-5C114.63,122.29,114.63,122.29,114.62,126.8Z" fill="#fefdfb"/><path d="M134.63,78.81c-1.44-.09-2.88-.27-4.31-.27q-33.37,0-66.75,0c-1.33,0-2.66-.11-4-.17-.11-4.35-.3-8.69-.32-13C59.22,54.81,62,52.06,72.44,52q0,3.7,0,7.4c-2.41,2.64-2.65,5.64-.6,7.58a5.84,5.84,0,0,0,7.33-.05c2-2,1.73-5.18-.65-7.54q0-3.69,0-7.39h37.83c0,2.45,0,4.9,0,7.36-2.79,2.29-3.13,4.9-.94,7.34a4.89,4.89,0,0,0,7.35.28c2.48-2.41,2.26-4.88-.69-7.62,0-2.46,0-4.91,0-7.37,2.11.1,4.31-.13,6.32.37,4,1,6,3.93,7,7.78,0,5,0,10-.09,14.94C135.39,76.32,135.66,77.71,134.63,78.81Z" fill="#ed592a"/><path d="M72.46,59.35q0-3.69,0-7.4a18.75,18.75,0,0,1,.23-2c.32-1.55,1.09-2.7,2.87-2.67A2.75,2.75,0,0,1,78.39,50c.11.65.12,1.32.17,2q0,3.69,0,7.38c0,.68,0,1.36,0,2-2.12,3.73-3.84,3.75-6.06,0Z" fill="#353535"/><path d="M116.43,59.3c0-2.46,0-4.91,0-7.36,0-.66.11-1.32.16-2A2.75,2.75,0,0,1,122,50l.15,2c0,2.46,0,4.91,0,7.37l0,1.71c-.22,1.69-.92,3-2.82,3s-2.6-1.33-2.83-3Z" fill="#353535"/><path d="M88.72,88.87c5.12,0,5.12,0,5.12,4.71s0,4.68-4.84,4.68c-5.11,0-5.11,0-5.11-4.73S83.89,88.87,88.72,88.87Z" fill="#b7b6b6"/><path d="M89,115.61c-5.12,0-5.12,0-5.12-4.7s0-4.69,4.82-4.69c5.13,0,5.13,0,5.13,4.72S93.84,115.61,89,115.61Z" fill="#b7b6b6"/><path d="M88.94,131.67c-5,0-5,0-5-4.77,0-4.61,0-4.61,4.89-4.61,5.06,0,5.06,0,5.06,4.78C93.83,131.67,93.83,131.67,88.94,131.67Z" fill="#b7b6b6"/><path d="M99.25,93.38c0-4.52,0-4.52,5-4.51,4.45,0,4.45,0,4.44,5,0,4.36,0,4.36-4.8,4.36C99.24,98.25,99.24,98.25,99.25,93.38Z" fill="#b7b6b6"/><path d="M114.62,93.38c0-4.52,0-4.52,4.94-4.51,4.45,0,4.45,0,4.43,5,0,4.36,0,4.36-4.78,4.36C114.61,98.25,114.61,98.25,114.62,93.38Z" fill="#b7b6b6"/><path d="M73.69,106.22c4.78,0,4.78,0,4.78,4.69s0,4.7-4.75,4.7-4.63,0-4.64-4.51C69.08,106.23,69.08,106.23,73.69,106.22Z" fill="#b7b6b6"/><path d="M103.88,115.59c-4.6,0-4.6,0-4.6-5.21,0-4.26,0-4.26,5.23-4.25,4.28,0,4.32,0,4.26,5.22C108.72,116.4,109.46,115.49,103.88,115.59Z" fill="#ed592a"/><path d="M114.62,110.77c0-4.56,0-4.56,4.92-4.55,4.46,0,4.46,0,4.45,5,0,4.38,0,4.38-5.09,4.37C114.62,115.59,114.62,115.59,114.62,110.77Z" fill="#b7b6b6"/><path d="M73.64,131.67c-4.56,0-4.56,0-4.56-4.91,0-4.48,0-4.48,5-4.46,4.39,0,4.39,0,4.37,5.08C78.46,131.67,78.46,131.67,73.64,131.67Z" fill="#b7b6b6"/><path d="M104.1,122.3c4.55,0,4.55,0,4.54,4.94,0,4.44,0,4.44-5,4.43-4.37,0-4.37,0-4.35-5.1C99.26,122.29,99.26,122.29,104.1,122.3Z" fill="#b7b6b6"/><path d="M114.62,126.8c0-4.51,0-4.51,5-4.5,4.42,0,4.42,0,4.41,5,0,4.34,0,4.34-5.12,4.33C114.61,131.65,114.61,131.65,114.62,126.8Z" fill="#b7b6b6"/><path d="M122.12,61l0-1.71c2.95,2.74,3.17,5.21.69,7.62a4.89,4.89,0,0,1-7.35-.28c-2.19-2.44-1.85-5,.94-7.34,0,.57,0,1.14,0,1.71-1.56,1.8-1.2,3.55.4,5a3.4,3.4,0,0,0,4.85,0C123.31,64.57,123.69,62.81,122.12,61Z" fill="#d42307"/><path d="M72.46,59.35c0,.69,0,1.39,0,2.08-1.27,1.92-.74,3.6.93,4.85a3.48,3.48,0,0,0,4.3,0,3.25,3.25,0,0,0,.83-4.86c0-.69,0-1.37,0-2,2.38,2.36,2.66,5.56.65,7.54a5.84,5.84,0,0,1-7.33.05C69.81,65,70.05,62,72.46,59.35Z" fill="#d42307"/><path d="M78.53,61.39a3.25,3.25,0,0,1-.83,4.86,3.48,3.48,0,0,1-4.3,0c-1.67-1.25-2.2-2.93-.93-4.85C74.69,65.14,76.41,65.12,78.53,61.39Z" fill="#ddd"/><path d="M122.12,61c1.57,1.8,1.19,3.56-.4,5a3.4,3.4,0,0,1-4.85,0c-1.6-1.44-2-3.19-.4-5,.23,1.68.93,3,2.83,3S121.9,62.7,122.12,61Z" fill="#ddd"/></svg>